<?xml version="1.0" standalone="no"?>
<!DOCTYPE svg PUBLIC "-//W3C//DTD SVG 1.1//EN" "http://www.w3.org/Graphics/SVG/1.1/DTD/svg11.dtd" >
<svg xmlns="http://www.w3.org/2000/svg" width="100%" height="100%">
<metadata>
Created by FontXChange 20110222 at Sun Mar  1 15:34:07 2015
 By Bruno Germano
Copyright (c) 2014 Schick Toikka. All rights reserved. Dia is a trademark of Schick Toikka. Unauthorised copying or modification of any of its data is illegal.
</metadata>
<defs>
<font id="Dia-Regular" horiz-adv-x="600" >
  <font-face 
    font-family="Dia Regular"
    font-weight="400"
    font-stretch="normal"
    units-per-em="1000"
    panose-1="2 11 5 5 6 1 1 1 1 1"
    ascent="800"
    descent="-200"
    x-height="476"
    cap-height="627"
    bbox="-200 -255 1983 867"
    underline-thickness="29"
    underline-position="-52"
    stemh="72"
    stemv="81"
    unicode-range="U+0020-FB02"
  />
<missing-glyph horiz-adv-x="700" 
d="M610 -200h-520v1000h520v-1000zM367 301l213 -433v870zM350 265l-212 -435h424zM562 770h-425l213 -434zM333 301l-212 435v-868z" />
    <glyph glyph-name="fi" unicode="fi" horiz-adv-x="575" 
d="M193 0h-81v415h-82v61h83v79c0 80 45 125 119 125c25 0 57 -6 75 -15l-14 -57c-12 6 -38 10 -51 10c-38 0 -53 -21 -53 -71v-71h103v-61h-99v-415zM490 0h-81v476h81v-476zM494 582h-89v88h89v-88z" />
    <glyph glyph-name="fl" unicode="fl" horiz-adv-x="575" 
d="M193 0h-81v415h-82v61h83v79c0 80 45 125 119 125c25 0 57 -6 75 -15l-14 -57c-12 6 -38 10 -51 10c-38 0 -53 -21 -53 -71v-71h103v-61h-99v-415zM490 0h-81v670h31c23 0 40 3 50 6v-676z" />
    <glyph glyph-name=".notdef" horiz-adv-x="700" 
d="M610 -200h-520v1000h520v-1000zM367 301l213 -433v870zM350 265l-212 -435h424zM562 770h-425l213 -434zM333 301l-212 435v-868z" />
    <glyph glyph-name="space" unicode=" " horiz-adv-x="221" 
 />
    <glyph glyph-name="uni00A0" unicode="&#xa0;" horiz-adv-x="221" 
 />
    <glyph glyph-name="bar" unicode="|" horiz-adv-x="251" 
d="M95 -195v940h61v-940h-61z" />
    <glyph glyph-name="brokenbar" unicode="&#xa6;" horiz-adv-x="251" 
d="M95 -194v404h61v-404h-61zM95 341v404h61v-404h-61z" />
    <glyph glyph-name="hyphen" unicode="-" horiz-adv-x="353" 
d="M55 228v70h243v-70h-243z" />
    <glyph glyph-name="uni00AD" unicode="&#xad;" horiz-adv-x="353" 
d="M55 228v70h243v-70h-243z" />
    <glyph glyph-name="endash" unicode="&#x2013;" horiz-adv-x="500" 
d="M55 229v62h390v-62h-390z" />
    <glyph glyph-name="emdash" unicode="&#x2014;" horiz-adv-x="1000" 
d="M55 229v62h890v-62h-890z" />
    <glyph glyph-name="underscore" unicode="_" horiz-adv-x="500" 
d="M55 -82v62h390v-62h-390z" />
    <glyph glyph-name="asciitilde" unicode="~" 
d="M142 170h-65c0 99 50 143 128 143c85 0 132 -85 193 -85c30 0 59 15 59 77h66c0 -99 -50 -143 -128 -143c-86 0 -132 85 -193 85c-29 0 -60 -14 -60 -77z" />
    <glyph glyph-name="plus" unicode="+" 
d="M82 235v64h185v187h66v-187h185v-64h-185v-185h-66v185h-185z" />
    <glyph glyph-name="plusminus" unicode="&#xb1;" 
d="M82 307v64h185v166h66v-166h185v-64h-185v-166h-66v166h-185zM82 0v64h436v-64h-436z" />
    <glyph glyph-name="divide" unicode="&#xf7;" 
d="M72 235v64h456v-64h-456zM351 429h-103v105h103v-105zM351 0h-103v105h103v-105z" />
    <glyph glyph-name="minus" unicode="&#x2212;" 
d="M112 235v64h376v-64h-376z" />
    <glyph glyph-name="infinity" unicode="&#x221e;" horiz-adv-x="687" 
d="M202 382c71 0 111 -40 141 -86c30 46 70 86 142 86c92 0 147 -63 147 -146c0 -84 -55 -147 -147 -147c-72 0 -112 39 -142 86c-30 -47 -69 -86 -141 -86c-92 0 -147 63 -147 147c0 83 55 146 147 146zM483 324c-51 0 -79 -41 -105 -88c26 -48 54 -88 105 -88s80 41 80 88
c0 46 -29 88 -80 88zM204 148c50 0 78 40 104 87c-27 48 -53 89 -104 89c-50 0 -80 -42 -80 -88s30 -88 80 -88z" />
    <glyph glyph-name="multiply" unicode="&#xd7;" 
d="M98 113l155 154l-155 155l48 48l154 -155l155 154l47 -47l-154 -155l154 -154l-47 -47l-155 154l-154 -155z" />
    <glyph glyph-name="equal" unicode="=" 
d="M92 352v64h416v-64h-416zM92 130v64h416v-64h-416z" />
    <glyph glyph-name="notequal" unicode="&#x2260;" 
d="M92 352v64h232l50 126h62l-50 -126h122v-64h-147l-62 -158h209v-64h-234l-49 -127h-63l50 127h-120v64h145l62 158h-207z" />
    <glyph glyph-name="approxequal" unicode="&#x2248;" 
d="M142 294h-65c0 99 50 143 128 143c85 0 132 -85 193 -85c30 0 59 15 59 77h66c0 -99 -50 -143 -128 -143c-86 0 -132 85 -193 85c-29 0 -60 -14 -60 -77zM142 106h-65c0 99 50 143 128 143c85 0 132 -85 193 -85c30 0 59 15 59 77h66c0 -99 -50 -143 -128 -143
c-86 0 -132 85 -193 85c-29 0 -60 -14 -60 -77z" />
    <glyph glyph-name="less" unicode="&#x3c;" 
d="M85 244v72l430 157v-72l-353 -121l353 -121v-73z" />
    <glyph glyph-name="greater" unicode="&#x3e;" 
d="M515 316v-72l-430 -158v73l353 121l-353 121v72z" />
    <glyph glyph-name="lessequal" unicode="&#x2264;" 
d="M88 317v72l430 157v-72l-353 -121l353 -121v-73zM518 64v-64h-436v64h436z" />
    <glyph glyph-name="greaterequal" unicode="&#x2265;" 
d="M512 389v-72l-430 -158v73l353 121l-353 121v72zM82 0v64h436v-64h-436z" />
    <glyph glyph-name="exclam" unicode="!" horiz-adv-x="293" 
d="M161 215h-29l-30 186v226h90v-226zM198 0h-103v105h103v-105z" />
    <glyph glyph-name="exclamdown" unicode="&#xa1;" horiz-adv-x="293" 
d="M132 261h29l30 -186v-226h-90v226zM95 476h103v-105h-103v105z" />
    <glyph glyph-name="question" unicode="?" horiz-adv-x="507" 
d="M299 0h-103v105h103v-105zM131 432l-78 -4c-1 5 -3 19 -3 26c0 99 80 185 209 185c120 0 198 -68 198 -165c0 -85 -64 -126 -137 -174c-36 -24 -50 -49 -54 -79l-2 -16h-42l-3 14c-2 9 -4 21 -4 28c0 39 14 73 70 108c47 30 90 68 90 120c0 55 -48 92 -116 92
c-79 0 -130 -53 -130 -116c0 -6 1 -14 2 -19z" />
    <glyph glyph-name="questiondown" unicode="&#xbf;" horiz-adv-x="507" 
d="M208 476h103v-105h-103v105zM376 44l78 4c1 -5 3 -19 3 -26c0 -99 -80 -185 -209 -185c-120 0 -198 68 -198 165c0 85 64 126 137 174c36 24 50 49 54 79l2 16h42l3 -14c2 -9 4 -21 4 -28c0 -39 -14 -73 -70 -108c-47 -30 -90 -68 -90 -120c0 -55 48 -92 116 -92
c79 0 130 53 130 116c0 6 -1 14 -2 19z" />
    <glyph glyph-name="quotesingle" unicode="'" horiz-adv-x="229" 
d="M129 434h-28l-26 136v100h79v-100z" />
    <glyph glyph-name="quotedbl" unicode="&#x22;" horiz-adv-x="384" 
d="M129 434h-28l-26 136v100h79v-100zM284 434h-28l-26 136v100h79v-100z" />
    <glyph glyph-name="comma" unicode="," horiz-adv-x="283" 
d="M198 -13c0 -93 -32 -140 -113 -140v38c36 0 60 28 60 72v43h-50v105h103v-118z" />
    <glyph glyph-name="period" unicode="." horiz-adv-x="273" 
d="M188 0h-103v105h103v-105z" />
    <glyph glyph-name="ellipsis" unicode="&#x2026;" horiz-adv-x="839" 
d="M188 0h-103v105h103v-105zM471 0h-103v105h103v-105zM754 0h-103v105h103v-105z" />
    <glyph glyph-name="colon" unicode=":" horiz-adv-x="283" 
d="M193 0h-103v105h103v-105zM193 371h-103v105h103v-105z" />
    <glyph glyph-name="semicolon" unicode=";" horiz-adv-x="293" 
d="M203 -13c0 -93 -32 -140 -113 -140v38c36 0 60 28 60 72v43h-50v105h103v-118zM203 371h-103v105h103v-105z" />
    <glyph glyph-name="periodcentered" unicode="&#xb7;" horiz-adv-x="283" 
d="M193 202h-103v105h103v-105z" />
    <glyph glyph-name="uni2219" unicode="&#x2219;" horiz-adv-x="283" 
d="M193 202h-103v105h103v-105z" />
    <glyph glyph-name="bullet" unicode="&#x2022;" horiz-adv-x="367" 
d="M90 259c0 57 39 94 94 94s93 -37 93 -94c0 -58 -38 -94 -93 -94c-56 0 -94 36 -94 94z" />
    <glyph glyph-name="quoteleft" unicode="&#x2018;" horiz-adv-x="279" 
d="M85 432v101c0 93 27 140 109 140v-38c-37 0 -61 -28 -61 -72v-26h50v-105h-98z" />
    <glyph glyph-name="quotedblleft" unicode="&#x201c;" horiz-adv-x="454" 
d="M85 432v101c0 93 27 140 109 140v-38c-37 0 -61 -28 -61 -72v-26h50v-105h-98zM260 432v101c0 93 27 140 109 140v-38c-37 0 -61 -28 -61 -72v-26h50v-105h-98z" />
    <glyph glyph-name="quoteright" unicode="&#x2019;" horiz-adv-x="279" 
d="M194 569c0 -93 -27 -140 -109 -140v38c37 0 60 28 60 72v26h-50v105h99v-101z" />
    <glyph glyph-name="quotedblright" unicode="&#x201d;" horiz-adv-x="454" 
d="M194 569c0 -93 -27 -140 -109 -140v38c37 0 60 28 60 72v26h-50v105h99v-101zM369 569c0 -93 -27 -140 -109 -140v38c37 0 60 28 60 72v26h-50v105h99v-101z" />
    <glyph glyph-name="quotesinglbase" unicode="&#x201a;" horiz-adv-x="279" 
d="M194 4c0 -93 -27 -140 -109 -140v38c37 0 65 28 65 72v26h-55v105h99v-101z" />
    <glyph glyph-name="quotedblbase" unicode="&#x201e;" horiz-adv-x="454" 
d="M194 4c0 -93 -27 -140 -109 -140v38c37 0 65 28 65 72v26h-55v105h99v-101zM369 4c0 -93 -27 -140 -109 -140v38c37 0 65 28 65 72v26h-55v105h99v-101z" />
    <glyph glyph-name="guilsinglleft" unicode="&#x2039;" horiz-adv-x="313" 
d="M174 59l-119 180l119 179h64l-94 -179l94 -180h-64z" />
    <glyph glyph-name="guillemotleft" unicode="&#xab;" horiz-adv-x="480" 
d="M174 59l-119 180l119 179h64l-94 -179l94 -180h-64zM341 59l-119 180l119 179h64l-94 -179l94 -180h-64z" />
    <glyph glyph-name="guilsinglright" unicode="&#x203a;" horiz-adv-x="313" 
d="M139 418l119 -180l-119 -179h-64l94 179l-94 180h64z" />
    <glyph glyph-name="guillemotright" unicode="&#xbb;" horiz-adv-x="480" 
d="M139 418l119 -180l-119 -179h-64l94 179l-94 180h64zM306 418l119 -180l-119 -179h-64l94 179l-94 180h64z" />
    <glyph glyph-name="slash" unicode="/" horiz-adv-x="373" 
d="M5 -194l295 939h68l-294 -939h-69z" />
    <glyph glyph-name="backslash" unicode="\" horiz-adv-x="373" 
d="M73 745l295 -939h-69l-294 939h68z" />
    <glyph glyph-name="fraction" unicode="&#x2044;" horiz-adv-x="149" 
d="M-200 0l485 627h64l-484 -627h-65z" />
    <glyph glyph-name="uni2215" unicode="&#x2215;" horiz-adv-x="149" 
d="M-200 0l485 627h64l-484 -627h-65z" />
    <glyph glyph-name="parenleft" unicode="(" horiz-adv-x="311" 
d="M296 -155l-36 -31c-155 161 -180 338 -180 462s25 303 180 461l36 -30c-114 -154 -138 -313 -138 -431c0 -119 24 -256 138 -431z" />
    <glyph glyph-name="parenright" unicode=")" horiz-adv-x="311" 
d="M51 -186l-36 31c114 175 138 312 138 431c0 118 -24 277 -138 431l36 30c155 -158 180 -337 180 -461s-25 -301 -180 -462z" />
    <glyph glyph-name="braceleft" unicode="{" horiz-adv-x="335" 
d="M203 -58c0 -66 28 -84 73 -84c14 0 27 2 35 4l9 -50c-10 -3 -31 -6 -52 -6c-91 0 -138 44 -138 136c0 69 37 161 37 216c0 68 -37 90 -87 90v54c50 0 87 22 87 90c0 55 -37 147 -37 216c0 92 47 136 138 136c21 0 42 -3 52 -6l-9 -50c-8 2 -21 4 -35 4
c-45 0 -73 -18 -73 -84c0 -56 37 -160 37 -226c0 -50 -13 -93 -89 -107c76 -14 89 -57 89 -107c0 -66 -37 -170 -37 -226z" />
    <glyph glyph-name="braceright" unicode="}" horiz-adv-x="335" 
d="M132 -58c0 56 -37 160 -37 226c0 50 13 93 89 107c-76 14 -89 57 -89 107c0 66 37 170 37 226c0 66 -28 84 -73 84c-14 0 -27 -2 -35 -4l-9 50c10 3 31 6 52 6c91 0 138 -44 138 -136c0 -69 -37 -161 -37 -216c0 -68 37 -90 87 -90v-54c-50 0 -87 -22 -87 -90
c0 -55 37 -147 37 -216c0 -92 -47 -136 -138 -136c-21 0 -42 3 -52 6l9 50c8 -2 21 -4 35 -4c45 0 73 18 73 84z" />
    <glyph glyph-name="bracketleft" unicode="[" horiz-adv-x="288" 
d="M90 -194v939h183v-54h-110v-830h110v-55h-183z" />
    <glyph glyph-name="bracketright" unicode="]" horiz-adv-x="288" 
d="M198 745v-939h-183v55h110v830h-110v54h183z" />
    <glyph glyph-name="onehalf" unicode="&#xbd;" horiz-adv-x="900" 
d="M186 0l485 627h64l-484 -627h-65zM636 217l-55 -21c-10 14 -16 30 -16 52c0 61 45 114 124 114c84 0 123 -50 123 -105c0 -64 -60 -118 -176 -205h179v-52h-258v45c88 81 192 141 192 209c0 37 -25 57 -61 57c-35 0 -61 -26 -61 -59c0 -13 3 -26 9 -35zM70 273v51h107
v213c-18 -16 -57 -29 -100 -29v52c49 4 97 24 108 67h54v-303h82v-51h-251z" />
    <glyph glyph-name="onequarter" unicode="&#xbc;" horiz-adv-x="900" 
d="M186 0l485 627h64l-484 -627h-65zM70 273v51h107v213c-18 -16 -57 -29 -100 -29v52c49 4 97 24 108 67h54v-303h82v-51h-251zM701 126v153l-121 -153h121zM763 0h-62v77h-186v43l186 234h62v-228h46v-49h-46v-77z" />
    <glyph glyph-name="threequarters" unicode="&#xbe;" horiz-adv-x="900" 
d="M205 317c45 0 73 23 73 60c0 45 -34 57 -102 57h-7v48h7c54 0 82 16 82 53c0 32 -25 49 -59 49c-40 0 -67 -23 -70 -64l-57 5c0 58 43 110 127 110c68 0 123 -32 123 -94c0 -49 -33 -69 -70 -79c44 -3 89 -31 89 -86c0 -66 -49 -111 -135 -111c-88 0 -139 50 -139 109
l60 8c0 -37 29 -65 78 -65zM186 0l485 627h64l-484 -627h-65zM701 126v153l-121 -153h121zM763 0h-62v77h-186v43l186 234h62v-228h46v-49h-46v-77z" />
    <glyph glyph-name="uni2153" unicode="&#x2153;" horiz-adv-x="900" 
d="M691 43c45 0 73 23 73 60c0 45 -34 57 -102 57h-7v48h7c54 0 82 16 82 53c0 32 -25 49 -59 49c-40 0 -67 -23 -70 -64l-57 5c0 58 43 110 127 110c68 0 123 -32 123 -94c0 -49 -33 -69 -70 -79c44 -3 89 -31 89 -86c0 -66 -49 -111 -135 -111c-88 0 -139 50 -139 109
l60 8c0 -37 29 -65 78 -65zM70 273v51h107v213c-18 -16 -57 -29 -100 -29v52c49 4 97 24 108 67h54v-303h82v-51h-251zM186 0l485 627h64l-484 -627h-65z" />
    <glyph glyph-name="uni2154" unicode="&#x2154;" horiz-adv-x="900" 
d="M691 43c45 0 73 23 73 60c0 45 -34 57 -102 57h-7v48h7c54 0 82 16 82 53c0 32 -25 49 -59 49c-40 0 -67 -23 -70 -64l-57 5c0 58 43 110 127 110c68 0 123 -32 123 -94c0 -49 -33 -69 -70 -79c44 -3 89 -31 89 -86c0 -66 -49 -111 -135 -111c-88 0 -139 50 -139 109
l60 8c0 -37 29 -65 78 -65zM143 490l-55 -21c-10 14 -16 30 -16 52c0 61 45 114 124 114c84 0 123 -50 123 -105c0 -64 -60 -118 -176 -205h179v-52h-258v45c88 81 192 141 192 209c0 37 -25 57 -61 57c-35 0 -61 -26 -61 -59c0 -13 3 -26 9 -35zM186 0l485 627h64
l-484 -627h-65z" />
    <glyph glyph-name="uni2155" unicode="&#x2155;" horiz-adv-x="900" 
d="M70 273v51h107v213c-18 -16 -57 -29 -100 -29v52c49 4 97 24 108 67h54v-303h82v-51h-251zM186 0l485 627h64l-484 -627h-65zM695 -9c-83 0 -137 48 -137 109l60 8c0 -35 27 -65 76 -65c41 0 71 26 71 72c0 44 -29 69 -72 69c-29 0 -49 -13 -66 -30l-48 11l21 188h201
v-51h-148l-11 -95c16 14 45 24 70 24c73 0 118 -45 118 -112c0 -72 -51 -128 -135 -128z" />
    <glyph glyph-name="uni2156" unicode="&#x2156;" horiz-adv-x="900" 
d="M186 0l485 627h64l-484 -627h-65zM143 490l-55 -21c-10 14 -16 30 -16 52c0 61 45 114 124 114c84 0 123 -50 123 -105c0 -64 -60 -118 -176 -205h179v-52h-258v45c88 81 192 141 192 209c0 37 -25 57 -61 57c-35 0 -61 -26 -61 -59c0 -13 3 -26 9 -35zM695 -9
c-83 0 -137 48 -137 109l60 8c0 -35 27 -65 76 -65c41 0 71 26 71 72c0 44 -29 69 -72 69c-29 0 -49 -13 -66 -30l-48 11l21 188h201v-51h-148l-11 -95c16 14 45 24 70 24c73 0 118 -45 118 -112c0 -72 -51 -128 -135 -128z" />
    <glyph glyph-name="uni2157" unicode="&#x2157;" horiz-adv-x="900" 
d="M200 317c45 0 73 23 73 60c0 45 -34 57 -102 57h-7v48h7c54 0 82 16 82 53c0 32 -25 49 -59 49c-40 0 -67 -23 -70 -64l-57 5c0 58 43 110 127 110c68 0 123 -32 123 -94c0 -49 -33 -69 -70 -79c44 -3 89 -31 89 -86c0 -66 -49 -111 -135 -111c-88 0 -139 50 -139 109
l60 8c0 -37 29 -65 78 -65zM186 0l485 627h64l-484 -627h-65zM695 -9c-83 0 -137 48 -137 109l60 8c0 -35 27 -65 76 -65c41 0 71 26 71 72c0 44 -29 69 -72 69c-29 0 -49 -13 -66 -30l-48 11l21 188h201v-51h-148l-11 -95c16 14 45 24 70 24c73 0 118 -45 118 -112
c0 -72 -51 -128 -135 -128z" />
    <glyph glyph-name="uni2158" unicode="&#x2158;" horiz-adv-x="900" 
d="M186 0l485 627h64l-484 -627h-65zM695 -9c-83 0 -137 48 -137 109l60 8c0 -35 27 -65 76 -65c41 0 71 26 71 72c0 44 -29 69 -72 69c-29 0 -49 -13 -66 -30l-48 11l21 188h201v-51h-148l-11 -95c16 14 45 24 70 24c73 0 118 -45 118 -112c0 -72 -51 -128 -135 -128z
M232 399v153l-121 -153h121zM294 273h-62v77h-186v43l186 234h62v-228h46v-49h-46v-77z" />
    <glyph glyph-name="uni2159" unicode="&#x2159;" horiz-adv-x="900" 
d="M186 0l485 627h64l-484 -627h-65zM70 273v51h107v213c-18 -16 -57 -29 -100 -29v52c49 4 97 24 108 67h54v-303h82v-51h-251zM699 310c-42 0 -79 -30 -83 -115c23 23 59 36 91 36c66 0 120 -41 120 -115c0 -63 -47 -125 -130 -125c-97 0 -146 77 -146 183
c0 132 63 187 149 187c73 0 123 -41 129 -92l-61 -12c-9 35 -33 53 -69 53zM694 184c-34 0 -60 -13 -77 -35c6 -72 35 -106 78 -106c42 0 67 29 67 74c0 44 -35 67 -68 67z" />
    <glyph glyph-name="uni215A" unicode="&#x215a;" horiz-adv-x="900" 
d="M186 0l485 627h64l-484 -627h-65zM699 310c-42 0 -79 -30 -83 -115c23 23 59 36 91 36c66 0 120 -41 120 -115c0 -63 -47 -125 -130 -125c-97 0 -146 77 -146 183c0 132 63 187 149 187c73 0 123 -41 129 -92l-61 -12c-9 35 -33 53 -69 53zM694 184
c-34 0 -60 -13 -77 -35c6 -72 35 -106 78 -106c42 0 67 29 67 74c0 44 -35 67 -68 67zM209 265c-83 0 -137 48 -137 109l60 8c0 -35 27 -65 76 -65c41 0 71 26 71 72c0 44 -29 69 -72 69c-29 0 -49 -13 -66 -30l-48 11l21 188h201v-51h-148l-11 -95c16 14 45 24 70 24
c73 0 118 -45 118 -112c0 -72 -51 -128 -135 -128z" />
    <glyph glyph-name="uni215B" unicode="&#x215b;" horiz-adv-x="900" 
d="M186 0l485 627h64l-484 -627h-65zM70 273v51h107v213c-18 -16 -57 -29 -100 -29v52c49 4 97 24 108 67h54v-303h82v-51h-251zM700 -9c-88 0 -142 41 -142 102c0 49 35 83 85 91c-37 9 -72 34 -72 84c0 47 48 92 129 92s128 -45 128 -92c0 -50 -34 -75 -71 -84
c50 -8 85 -42 85 -91c0 -61 -55 -102 -142 -102zM700 158c-46 0 -76 -24 -76 -60c0 -35 28 -59 76 -59c49 0 76 24 76 59c0 36 -29 60 -76 60zM700 312c-39 0 -64 -20 -64 -50s26 -54 64 -54s65 24 65 54s-26 50 -65 50z" />
    <glyph glyph-name="uni215C" unicode="&#x215c;" horiz-adv-x="900" 
d="M186 0l485 627h64l-484 -627h-65zM200 317c45 0 73 23 73 60c0 45 -34 57 -102 57h-7v48h7c54 0 82 16 82 53c0 32 -25 49 -59 49c-40 0 -67 -23 -70 -64l-57 5c0 58 43 110 127 110c68 0 123 -32 123 -94c0 -49 -33 -69 -70 -79c44 -3 89 -31 89 -86
c0 -66 -49 -111 -135 -111c-88 0 -139 50 -139 109l60 8c0 -37 29 -65 78 -65zM700 -9c-88 0 -142 41 -142 102c0 49 35 83 85 91c-37 9 -72 34 -72 84c0 47 48 92 129 92s128 -45 128 -92c0 -50 -34 -75 -71 -84c50 -8 85 -42 85 -91c0 -61 -55 -102 -142 -102zM700 158
c-46 0 -76 -24 -76 -60c0 -35 28 -59 76 -59c49 0 76 24 76 59c0 36 -29 60 -76 60zM700 312c-39 0 -64 -20 -64 -50s26 -54 64 -54s65 24 65 54s-26 50 -65 50z" />
    <glyph glyph-name="uni215D" unicode="&#x215d;" horiz-adv-x="900" 
d="M186 0l485 627h64l-484 -627h-65zM700 -9c-88 0 -142 41 -142 102c0 49 35 83 85 91c-37 9 -72 34 -72 84c0 47 48 92 129 92s128 -45 128 -92c0 -50 -34 -75 -71 -84c50 -8 85 -42 85 -91c0 -61 -55 -102 -142 -102zM700 158c-46 0 -76 -24 -76 -60c0 -35 28 -59 76 -59
c49 0 76 24 76 59c0 36 -29 60 -76 60zM700 312c-39 0 -64 -20 -64 -50s26 -54 64 -54s65 24 65 54s-26 50 -65 50zM209 265c-83 0 -137 48 -137 109l60 8c0 -35 27 -65 76 -65c41 0 71 26 71 72c0 44 -29 69 -72 69c-29 0 -49 -13 -66 -30l-48 11l21 188h201v-51h-148
l-11 -95c16 14 45 24 70 24c73 0 118 -45 118 -112c0 -72 -51 -128 -135 -128z" />
    <glyph glyph-name="uni215E" unicode="&#x215e;" horiz-adv-x="900" 
d="M186 0l485 627h64l-484 -627h-65zM700 -9c-88 0 -142 41 -142 102c0 49 35 83 85 91c-37 9 -72 34 -72 84c0 47 48 92 129 92s128 -45 128 -92c0 -50 -34 -75 -71 -84c50 -8 85 -42 85 -91c0 -61 -55 -102 -142 -102zM700 158c-46 0 -76 -24 -76 -60c0 -35 28 -59 76 -59
c49 0 76 24 76 59c0 36 -29 60 -76 60zM700 312c-39 0 -64 -20 -64 -50s26 -54 64 -54s65 24 65 54s-26 50 -65 50zM271 273h-66c0 122 34 236 119 303h-189v51h255v-43c-100 -88 -124 -223 -119 -311z" />
    <glyph glyph-name="A" unicode="A" horiz-adv-x="610" 
d="M501 0l-61 164h-274l-61 -164h-88l240 627h96l240 -627h-92zM303 534l-111 -298h221z" />
    <glyph glyph-name="B" unicode="B" horiz-adv-x="611" 
d="M336 0h-246v627h227c127 0 219 -42 219 -164c0 -76 -53 -135 -134 -143c98 -3 154 -51 154 -141c0 -127 -84 -179 -220 -179zM332 71c79 0 136 22 136 107c0 73 -44 106 -136 106h-158v-213h158zM320 353c79 2 128 30 128 105c0 70 -48 98 -128 98h-146v-203h146z" />
    <glyph glyph-name="C" unicode="C" horiz-adv-x="663" 
d="M148 314c0 -179 95 -253 193 -253c116 0 173 78 181 152l81 -10c-8 -124 -111 -215 -261 -215c-147 0 -282 101 -282 325s135 326 282 326c150 0 253 -91 261 -215l-81 -10c-8 74 -65 152 -181 152c-98 0 -193 -73 -193 -252z" />
    <glyph glyph-name="D" unicode="D" horiz-adv-x="647" 
d="M174 71h123c122 0 202 69 202 244c0 174 -80 241 -202 241h-123v-485zM297 0h-207v627h207c169 0 290 -89 290 -312c0 -224 -121 -315 -290 -315z" />
    <glyph glyph-name="E" unicode="E" horiz-adv-x="575" 
d="M515 0h-425v627h419v-72h-335v-200h284v-71h-284v-213h341v-71z" />
    <glyph glyph-name="F" unicode="F" horiz-adv-x="542" 
d="M174 0h-84v627h402v-72h-318v-200h276v-71h-276v-284z" />
    <glyph glyph-name="G" unicode="G" horiz-adv-x="683" 
d="M60 315c0 221 135 324 282 324c150 0 253 -91 261 -215l-81 -10c-8 74 -65 152 -181 152c-98 0 -193 -73 -193 -252c0 -167 81 -254 205 -254c67 0 132 28 164 75v119h-211v71h295v-325h-53l-17 114c-26 -74 -101 -126 -197 -126c-152 0 -274 108 -274 327z" />
    <glyph glyph-name="H" unicode="H" horiz-adv-x="650" 
d="M560 0h-85v284h-301v-284h-84v627h84v-272h301v272h85v-627z" />
    <glyph glyph-name="I" unicode="I" horiz-adv-x="264" 
d="M174 0h-84v627h84v-627z" />
    <glyph glyph-name="IJ" unicode="&#x132;" horiz-adv-x="614" 
d="M169 315h-84v312h84v-312zM302 -12c-143 0 -217 82 -217 188h84c0 -61 44 -115 133 -115c96 0 142 64 142 172v394h85v-402c0 -148 -74 -237 -227 -237z" />
    <glyph glyph-name="J" unicode="J" horiz-adv-x="542" 
d="M242 -12c-135 0 -207 88 -207 195c0 27 5 59 12 77l77 -14c-5 -22 -7 -35 -7 -57c0 -69 43 -128 125 -128c93 0 131 75 131 184v382h84v-395c0 -149 -73 -244 -215 -244z" />
    <glyph glyph-name="K" unicode="K" horiz-adv-x="602" 
d="M577 0h-104l-210 290l-89 -94v-196h-84v627h84v-325l297 325h105l-254 -276z" />
    <glyph glyph-name="L" unicode="L" horiz-adv-x="499" 
d="M474 0h-384v627h84v-555h300v-72z" />
    <glyph glyph-name="M" unicode="M" horiz-adv-x="796" 
d="M90 0v627h129l180 -527l178 527h129v-627h-84v537l-182 -537h-94l-172 535v-535h-84z" />
    <glyph glyph-name="N" unicode="N" horiz-adv-x="681" 
d="M591 0h-95l-322 512v-512h-84v627h106l311 -508v508h84v-627z" />
    <glyph glyph-name="O" unicode="O" horiz-adv-x="690" 
d="M345 61c117 0 197 88 197 252s-80 253 -197 253s-197 -89 -197 -253s80 -252 197 -252zM345 -12c-153 0 -285 104 -285 325s132 326 285 326s285 -105 285 -326s-132 -325 -285 -325z" />
    <glyph glyph-name="P" unicode="P" horiz-adv-x="576" 
d="M291 246h-117v-246h-84v627h201c121 0 240 -36 240 -190c0 -155 -119 -191 -240 -191zM295 317c72 0 148 14 148 120s-76 118 -148 118h-121v-238h121z" />
    <glyph glyph-name="Q" unicode="Q" horiz-adv-x="690" 
d="M345 -12c-153 0 -285 104 -285 325s132 326 285 326s285 -105 285 -326c0 -173 -80 -274 -188 -310c0 -86 29 -115 90 -115c43 0 78 19 94 35l21 -72c-28 -22 -70 -40 -119 -40c-112 0 -135 72 -137 172v8c-15 -2 -31 -3 -46 -3zM345 61c117 0 197 88 197 252
s-80 253 -197 253s-197 -89 -197 -253s80 -252 197 -252z" />
    <glyph glyph-name="R" unicode="R" horiz-adv-x="620" 
d="M174 0h-84v627h238c118 0 216 -43 216 -174c0 -78 -63 -150 -178 -155c201 -7 140 -217 209 -298h-90c-59 61 -8 269 -183 269h-128v-269zM316 338c67 0 140 28 140 114c0 85 -73 103 -140 103h-142v-217h142z" />
    <glyph glyph-name="S" unicode="S" horiz-adv-x="591" 
d="M308 -12c-152 0 -248 94 -255 205l81 10c5 -55 57 -142 174 -142c92 0 145 51 145 108c0 56 -39 83 -131 104l-95 22c-86 20 -157 66 -157 166c0 95 77 178 220 178c148 0 228 -83 236 -181l-81 -10c-9 67 -67 118 -155 118c-87 0 -135 -46 -135 -104
c0 -54 39 -78 109 -94l93 -21c121 -27 181 -75 181 -171c0 -113 -95 -188 -230 -188z" />
    <glyph glyph-name="T" unicode="T" horiz-adv-x="542" 
d="M313 0h-84v555h-199v72h482v-72h-199v-555z" />
    <glyph glyph-name="U" unicode="U" horiz-adv-x="656" 
d="M328 59c92 0 159 57 159 183v385h84v-391c0 -154 -82 -248 -243 -248s-243 94 -243 248v391h84v-385c0 -126 67 -183 159 -183z" />
    <glyph glyph-name="V" unicode="V" horiz-adv-x="606" 
d="M25 627h92l188 -534l188 534h88l-230 -627h-96z" />
    <glyph glyph-name="W" unicode="W" horiz-adv-x="915" 
d="M700 0h-96l-144 533l-146 -533h-102l-182 627h88l147 -533l146 533h98l143 -533l148 533h85z" />
    <glyph glyph-name="X" unicode="X" horiz-adv-x="607" 
d="M302 260l-172 -260h-100l220 317l-213 310h102l164 -249l165 249h100l-214 -308l223 -319h-102z" />
    <glyph glyph-name="Y" unicode="Y" horiz-adv-x="581" 
d="M331 0h-88v250l-228 377h99l175 -299l180 299h97l-235 -375v-252z" />
    <glyph glyph-name="Z" unicode="Z" horiz-adv-x="525" 
d="M480 0h-435v50l327 507h-321v70h427v-50l-324 -509h326v-68z" />
    <glyph glyph-name="asciicircum" unicode="^" horiz-adv-x="470" 
d="M361 320l-126 238l-126 -238h-74l170 307h60l170 -307h-74z" />
    <glyph glyph-name="a" unicode="a" horiz-adv-x="520" 
d="M438 -10c-57 0 -89 35 -84 101l2 28c-24 -89 -101 -129 -174 -129c-76 0 -132 43 -132 117c0 105 103 158 245 169l53 4c0 12 1 29 1 41c0 70 -36 99 -99 99c-62 0 -102 -33 -102 -94c0 -7 1 -14 2 -20l-74 -4c-3 10 -4 22 -4 32c0 87 72 152 178 152
c105 0 183 -50 183 -169c0 -59 -5 -165 -5 -220c0 -45 21 -48 35 -48c10 0 20 2 26 5l11 -48c-13 -8 -37 -16 -62 -16zM350 228l-46 -4c-105 -9 -169 -41 -169 -106c0 -40 26 -66 70 -66c55 0 108 33 143 85z" />
    <glyph glyph-name="b" unicode="b" horiz-adv-x="552" 
d="M313 -10c-65 0 -134 24 -157 125l-17 -115h-54v670h27c29 0 44 3 54 6v-302c25 85 81 112 150 112c93 0 181 -76 181 -249c0 -147 -71 -247 -184 -247zM287 56c71 0 125 60 125 180c0 129 -57 184 -130 184c-39 0 -93 -23 -116 -86v-196c27 -70 84 -82 121 -82z" />
    <glyph glyph-name="c" unicode="c" horiz-adv-x="513" 
d="M55 238c0 174 99 248 213 248c101 0 180 -53 191 -149l-75 -14c-7 55 -50 97 -116 97c-69 0 -128 -48 -128 -182s59 -182 128 -182c66 0 109 42 116 97l75 -14c-11 -96 -90 -149 -191 -149c-114 0 -213 74 -213 248z" />
    <glyph glyph-name="d" unicode="d" horiz-adv-x="552" 
d="M239 -10c-113 0 -184 100 -184 247c0 173 88 249 181 249c69 0 125 -27 150 -112v296h27c29 0 45 3 54 6v-676h-54l-17 115c-23 -101 -92 -125 -157 -125zM265 56c37 0 94 12 121 82v196c-23 63 -77 86 -116 86c-73 0 -130 -55 -130 -184c0 -120 54 -180 125 -180z" />
    <glyph glyph-name="e" unicode="e" horiz-adv-x="528" 
d="M272 -10c-125 0 -217 76 -217 248s95 248 214 248c141 0 204 -102 204 -221c0 -14 -1 -28 -3 -43h-330c5 -112 51 -166 132 -166c54 0 104 35 112 97l75 -14c-8 -87 -84 -149 -187 -149zM269 421c-61 0 -117 -40 -127 -141h248c-4 93 -52 141 -121 141z" />
    <glyph glyph-name="f" unicode="f" horiz-adv-x="324" 
d="M193 0h-81v415h-82v61h83v79c0 80 45 125 119 125c25 0 57 -6 75 -15l-14 -57c-12 6 -38 10 -51 10c-38 0 -53 -21 -53 -71v-71h103v-61h-99v-415z" />
    <glyph glyph-name="g" unicode="g" horiz-adv-x="531" 
d="M265 -183c-134 0 -237 32 -237 116c0 48 45 87 135 94c-66 13 -101 45 -101 86c0 39 31 72 79 85c-44 25 -77 67 -77 131c0 98 90 157 190 157c35 0 71 -7 102 -21c8 58 43 89 107 89c15 0 31 -2 41 -4l-6 -74c-11 2 -25 3 -36 3c-33 0 -67 -4 -85 -24
c41 -25 70 -65 70 -126c0 -111 -93 -160 -191 -160c-30 0 -62 5 -91 17c-20 -12 -31 -32 -31 -47c0 -39 48 -49 112 -49h70c122 0 185 -53 185 -133c0 -99 -111 -140 -236 -140zM263 -135c97 0 154 26 154 82c0 44 -44 71 -132 71h-47c-76 0 -130 -27 -130 -78
c0 -47 53 -75 155 -75zM256 225c60 0 107 37 107 105c0 64 -47 99 -107 99c-58 0 -107 -35 -107 -99c0 -69 49 -105 107 -105z" />
    <glyph glyph-name="h" unicode="h" horiz-adv-x="538" 
d="M166 0h-81v670h32c22 0 39 3 49 6v-301c17 65 62 111 144 111c86 0 153 -59 153 -175v-311h-81v306c0 80 -40 114 -99 114c-48 0 -95 -34 -117 -96v-324z" />
    <glyph glyph-name="i" unicode="i" horiz-adv-x="251" 
d="M166 0h-81v476h81v-476zM170 582h-89v88h89v-88z" />
    <glyph glyph-name="j" unicode="j" horiz-adv-x="251" 
d="M48 -183c-28 0 -50 6 -68 14l14 55c13 -4 24 -7 40 -7c28 0 51 13 51 66v531h81v-528c0 -86 -42 -131 -118 -131zM170 582h-89v88h89v-88z" />
    <glyph glyph-name="k" unicode="k" horiz-adv-x="503" 
d="M166 0h-81v670h30c25 0 41 3 51 6v-426l208 226h95l-184 -200l188 -276h-99l-149 223l-59 -63v-160z" />
    <glyph glyph-name="l" unicode="l" horiz-adv-x="251" 
d="M166 0h-81v670h31c23 0 40 3 50 6v-676z" />
    <glyph glyph-name="m" unicode="m" horiz-adv-x="802" 
d="M726 0h-81v302c0 78 -29 119 -87 119c-49 0 -90 -29 -112 -83v-338h-81v306c0 76 -31 115 -89 115c-44 0 -90 -30 -110 -83v-338h-81v476h54l16 -115c20 90 75 125 137 125c65 0 134 -30 144 -125c18 85 75 125 149 125c85 0 141 -58 141 -164v-322z" />
    <glyph glyph-name="n" unicode="n" horiz-adv-x="538" 
d="M463 0h-81v301c0 87 -41 119 -98 119c-43 0 -93 -18 -118 -82v-338h-81v476h54l17 -115c21 90 81 125 153 125c79 0 154 -50 154 -176v-310z" />
    <glyph glyph-name="o" unicode="o" horiz-adv-x="538" 
d="M269 -10c-120 0 -214 76 -214 248s94 248 214 248s214 -76 214 -248s-94 -248 -214 -248zM268 56c75 0 130 55 130 182s-55 182 -130 182c-73 0 -128 -55 -128 -182s55 -182 128 -182z" />
    <glyph glyph-name="p" unicode="p" horiz-adv-x="552" 
d="M166 102v-275h-81v649h54l17 -115c23 101 92 125 157 125c113 0 184 -100 184 -247c0 -173 -88 -249 -181 -249c-69 0 -125 27 -150 112zM285 420c-40 0 -91 -13 -119 -82v-196c23 -63 77 -86 116 -86c73 0 130 55 130 184c0 120 -55 180 -127 180z" />
    <glyph glyph-name="q" unicode="q" horiz-adv-x="552" 
d="M386 -173v275c-25 -85 -81 -112 -146 -112c-97 0 -185 76 -185 249c0 147 71 247 186 247c64 0 132 -24 155 -125l17 115h54v-649h-81zM267 420c-72 0 -127 -60 -127 -180c0 -129 57 -184 130 -184c39 0 93 23 116 86v196c-27 70 -82 82 -119 82z" />
    <glyph glyph-name="r" unicode="r" horiz-adv-x="348" 
d="M166 0h-81v476h54l16 -131c13 108 71 141 127 141c20 0 32 -2 49 -5l-5 -74c-10 2 -23 3 -39 3c-35 0 -95 -16 -121 -87v-323z" />
    <glyph glyph-name="s" unicode="s" horiz-adv-x="478" 
d="M249 -10c-120 0 -192 61 -201 149l75 14c10 -70 66 -100 126 -100c64 0 101 28 101 74c0 35 -23 57 -88 73l-56 14c-92 23 -139 67 -139 135c0 79 65 137 172 137c113 0 174 -65 179 -134l-74 -13c-4 42 -38 83 -105 83c-57 0 -92 -28 -92 -66c0 -37 30 -58 86 -72
l61 -15c94 -23 136 -65 136 -138c0 -79 -70 -141 -181 -141z" />
    <glyph glyph-name="t" unicode="t" horiz-adv-x="342" 
d="M224 -10c-83 0 -112 49 -112 128v297h-77v61h44c25 0 40 14 40 38v36l74 116v-190h99v-61h-99v-285c0 -60 16 -75 49 -75c18 0 34 4 49 10l16 -53c-18 -12 -52 -22 -83 -22z" />
    <glyph glyph-name="u" unicode="u" horiz-adv-x="531" 
d="M226 -10c-80 0 -151 48 -151 169v317h81v-304c0 -92 41 -116 95 -116c43 0 92 25 114 81v339h81v-476h-53l-17 115c-19 -88 -80 -125 -150 -125z" />
    <glyph glyph-name="v" unicode="v" horiz-adv-x="488" 
d="M292 0h-100l-162 476h85l131 -411l129 411h83z" />
    <glyph glyph-name="w" unicode="w" horiz-adv-x="756" 
d="M335 476h87l107 -415l111 415h81l-140 -476h-101l-102 390l-101 -390h-101l-141 476h83l110 -415z" />
    <glyph glyph-name="x" unicode="x" horiz-adv-x="476" 
d="M446 0h-90l-119 184l-119 -184h-88l162 239l-162 237h90l120 -184l118 184h88l-158 -239z" />
    <glyph glyph-name="y" unicode="y" horiz-adv-x="490" 
d="M48 -166l16 54c15 -5 29 -8 46 -8c35 0 58 17 73 58l23 62l-176 476h83l135 -382l131 382h81l-206 -555c-28 -75 -62 -104 -127 -104c-29 0 -59 6 -79 17z" />
    <glyph glyph-name="z" unicode="z" horiz-adv-x="455" 
d="M405 0h-355v48l250 362h-233v66h335v-48l-251 -362h254v-66z" />
    <glyph glyph-name="ordfeminine" unicode="&#xaa;" horiz-adv-x="422" 
d="M58 199v52h291v-52h-291zM328 302c-51 0 -73 30 -73 77v14c-16 -52 -64 -91 -115 -91c-53 0 -90 31 -90 83c0 67 79 108 184 111l15 1c0 10 1 17 1 32c0 44 -21 60 -60 60s-64 -19 -64 -57c0 -4 0 -9 1 -14h-57c-1 5 -2 13 -2 19c0 59 48 102 122 102
c73 0 127 -33 127 -113c0 -38 -4 -103 -4 -138c0 -30 11 -38 27 -38c9 0 19 2 25 5l7 -36c-7 -7 -27 -17 -44 -17zM161 353c32 0 68 26 88 63l2 43h-11c-80 -4 -119 -28 -119 -71c0 -23 19 -35 40 -35z" />
    <glyph glyph-name="ordmasculine" unicode="&#xba;" horiz-adv-x="406" 
d="M57 200v52h291v-52h-291zM203 356c47 0 85 32 85 117c0 83 -38 116 -84 116c-47 0 -86 -33 -86 -116c0 -85 40 -117 85 -117zM203 306c-79 0 -153 50 -153 166s74 167 153 167s153 -51 153 -167s-74 -166 -153 -166z" />
    <glyph glyph-name="dagger" unicode="&#x2020;" horiz-adv-x="410" 
d="M234 152h-60v309h-129v55h129v154h60v-154h131v-55h-131v-309z" />
    <glyph glyph-name="daggerdbl" unicode="&#x2021;" horiz-adv-x="410" 
d="M234 0h-60v154h-129v55h129v252h-129v55h129v154h60v-154h131v-55h-131v-252h131v-55h-131v-154z" />
    <glyph glyph-name="degree" unicode="&#xb0;" horiz-adv-x="395" 
d="M289 488c0 59 -38 97 -92 97c-53 0 -91 -38 -91 -97c0 -60 38 -98 91 -98c54 0 92 38 92 98zM45 488c0 90 70 151 152 151c83 0 153 -61 153 -151c0 -91 -70 -152 -153 -152c-82 0 -152 61 -152 152z" />
    <glyph glyph-name="ampersand" unicode="&#x26;" horiz-adv-x="689" 
d="M244 -12c-120 0 -204 66 -204 164c0 83 63 136 146 187c-42 54 -65 102 -65 151c0 81 62 149 164 149c89 0 157 -53 157 -131c0 -76 -57 -130 -139 -175l-9 -5c29 -32 62 -66 97 -102c21 -23 40 -42 57 -60c48 65 76 149 76 225h70c0 -87 -31 -191 -94 -272
c57 -48 98 -66 142 -66c5 0 9 0 14 1l2 -63c-7 -2 -21 -3 -27 -3c-70 0 -120 26 -180 78c-54 -47 -123 -78 -207 -78zM247 54c58 0 110 23 152 60c-19 18 -39 38 -61 61c-42 42 -79 80 -110 115c-66 -40 -107 -78 -107 -134c0 -60 57 -102 126 -102zM198 492
c0 -35 22 -74 55 -116l17 10c70 41 100 76 100 120s-34 73 -85 73c-55 0 -87 -40 -87 -87z" />
    <glyph glyph-name="at" unicode="@" horiz-adv-x="964" 
d="M447 87c40 0 84 23 119 66l36 175c-7 42 -43 64 -89 64c-80 0 -144 -99 -144 -212c0 -60 29 -93 78 -93zM674 22c-58 0 -107 29 -114 97c-38 -66 -95 -96 -149 -96c-80 0 -132 57 -132 150c0 153 82 282 215 282c65 0 115 -30 122 -110l36 99h54l-57 -259
c-3 -16 -5 -30 -5 -42c0 -36 12 -58 47 -58c79 0 140 93 140 212c0 191 -113 312 -325 312c-184 0 -372 -129 -372 -375c0 -221 138 -359 348 -359c92 0 158 29 203 56l25 -51c-36 -22 -118 -63 -225 -63c-248 0 -415 159 -415 417c0 280 211 432 437 432
c245 0 387 -147 387 -366c0 -175 -103 -278 -220 -278z" />
    <glyph glyph-name="asterisk" unicode="*" horiz-adv-x="436" 
d="M254 670l-18 -156l143 63l22 -65l-152 -34l103 -116l-55 -41l-79 135l-79 -134l-56 40l104 116l-152 34l21 66l143 -65l-15 157h70z" />
    <glyph glyph-name="numbersign" unicode="#" 
d="M95 385v58h103l28 184h64l-28 -184h127l28 184h64l-28 -184h89v-58h-98l-22 -143h82v-58h-91l-28 -184h-64l28 184h-127l-28 -184h-64l28 184h-101v58h110l22 143h-94zM253 385l-22 -143h127l22 143h-127z" />
    <glyph glyph-name="florin" unicode="&#x192;" 
d="M167 309v61h93v144c0 80 49 125 123 125c25 0 55 -6 75 -15l-14 -56c-13 5 -33 10 -51 10c-38 0 -53 -22 -53 -72v-136h99v-61h-99v-194c0 -80 -49 -125 -123 -125c-25 0 -55 6 -75 15l14 56c13 -5 33 -10 51 -10c38 0 53 22 53 72v186h-93z" />
    <glyph glyph-name="yen" unicode="&#xa5;" horiz-adv-x="561" 
d="M80 255v54h124l-179 318h95l159 -300l165 300h92l-187 -318h125v-54h-155v-77h155v-54h-155v-124h-84v124h-155v54h155v77h-155z" />
    <glyph glyph-name="cent" unicode="&#xa2;" horiz-adv-x="563" 
d="M263 -96v88c-102 11 -198 84 -198 246c0 158 96 234 198 246v90h55v-89c90 -8 171 -60 180 -148l-75 -14c-9 48 -46 87 -105 95v-361c60 8 97 46 105 96l75 -14c-9 -94 -92 -140 -180 -148v-87h-55zM150 238c0 -114 51 -167 113 -179v358c-60 -12 -113 -64 -113 -179z
" />
    <glyph glyph-name="dollar" unicode="$" horiz-adv-x="575" 
d="M272 -75v80c-122 9 -205 75 -217 191l76 14c5 -83 64 -130 141 -140v218l-42 9c-88 18 -152 65 -152 159c0 83 70 160 194 166v82h55v-83c118 -12 182 -82 187 -170l-76 -13c-3 59 -45 101 -111 113v-200l27 -6c108 -22 166 -73 166 -164c0 -103 -81 -169 -193 -177v-79
h-55zM443 178c0 51 -30 81 -116 99v-208c78 9 116 60 116 109zM155 457c0 -53 34 -79 111 -94l6 -1v191c-86 -6 -117 -53 -117 -96z" />
    <glyph glyph-name="sterling" unicode="&#xa3;" horiz-adv-x="620" 
d="M473 142l72 27c13 -21 18 -49 18 -69c0 -66 -40 -112 -103 -112c-69 0 -119 40 -171 78c-30 -51 -88 -78 -142 -78c-58 0 -112 34 -112 95c0 63 57 98 118 98c29 0 60 -8 88 -19c-3 37 -17 70 -35 103h-108v52h80c-21 40 -36 84 -36 139c0 111 81 183 190 183
c138 0 196 -89 196 -172c0 -20 -5 -46 -10 -57l-76 10c3 10 5 25 5 41c0 66 -50 106 -116 106c-51 0 -104 -31 -104 -112c0 -46 17 -92 38 -138h186v-52h-164c14 -35 25 -72 25 -110c0 -10 -1 -19 -2 -28c46 -29 92 -66 132 -66c23 0 40 16 40 44c0 14 -4 27 -9 37zM157 126
c-36 0 -59 -16 -59 -43c0 -25 24 -41 53 -41c38 0 69 20 83 61c-24 14 -46 23 -77 23z" />
    <glyph glyph-name="Euro" unicode="&#x20ac;" horiz-adv-x="620" 
d="M207 315c0 -16 0 -32 1 -46h202v-54h-196c18 -113 69 -160 144 -160c73 0 123 49 128 126l77 -9c0 -103 -77 -184 -204 -184c-126 0 -208 76 -232 227h-71v54h65c-1 14 -1 29 -1 45c0 15 0 29 1 43h-65v54h71c24 151 109 228 232 228c137 0 204 -101 204 -184l-77 -9
c-5 67 -49 122 -132 122c-72 0 -123 -47 -141 -157h197v-54h-202c-1 -14 -1 -27 -1 -42z" />
    <glyph glyph-name="section" unicode="&#xa7;" 
d="M544 187c0 -70 -43 -115 -101 -137c21 -25 34 -54 34 -89c0 -76 -62 -144 -176 -144c-121 0 -187 70 -191 163l74 11c2 -65 50 -109 117 -109c60 0 97 35 97 78c0 47 -39 79 -94 101l-111 52c-89 42 -138 82 -138 154c0 70 42 115 100 136c-20 25 -33 55 -33 90
c0 76 62 144 176 144c121 0 187 -70 191 -163l-74 -11c-2 65 -50 109 -117 109c-60 0 -97 -35 -97 -78c0 -47 40 -76 94 -101l111 -52c89 -42 138 -82 138 -154zM262 329c-27 12 -52 26 -74 43c-37 -17 -61 -49 -61 -90c0 -42 18 -66 89 -100l121 -57c26 -13 52 -27 74 -44
c36 17 61 50 61 91c0 42 -18 66 -89 100z" />
    <glyph glyph-name="currency" unicode="&#xa4;" 
d="M484 -8l-77 77c-33 -17 -71 -25 -111 -25c-38 0 -74 8 -105 23l-74 -75l-50 50l66 66c-32 34 -52 80 -52 139c0 57 19 103 51 137l-65 65l50 50l71 -72c32 16 69 25 108 25c41 0 80 -10 114 -28l74 75l50 -50l-69 -69c29 -33 47 -79 47 -133c0 -56 -19 -102 -49 -135
l71 -70zM296 107c79 0 134 55 134 141c0 85 -56 141 -133 141c-78 0 -134 -56 -134 -141c0 -86 57 -141 133 -141z" />
    <glyph glyph-name="percent" unicode="%" horiz-adv-x="798" 
d="M119 0l485 627h75l-484 -627h-76zM743 166c0 -124 -64 -174 -145 -174c-82 0 -146 50 -146 174s64 175 146 175c81 0 145 -51 145 -175zM672 166c0 81 -27 118 -75 118c-47 0 -74 -37 -74 -118s27 -117 74 -117c48 0 75 36 75 117zM346 460c0 -124 -64 -174 -145 -174
c-82 0 -146 50 -146 174s64 175 146 175c81 0 145 -51 145 -175zM275 460c0 81 -27 118 -75 118c-47 0 -74 -37 -74 -118s27 -117 74 -117c48 0 75 36 75 117z" />
    <glyph glyph-name="perthousand" unicode="&#x2030;" horiz-adv-x="1136" 
d="M119 0l485 627h75l-484 -627h-76zM743 166c0 -124 -64 -174 -145 -174c-82 0 -146 50 -146 174s64 175 146 175c81 0 145 -51 145 -175zM672 166c0 81 -27 118 -75 118c-47 0 -74 -37 -74 -118s27 -117 74 -117c48 0 75 36 75 117zM346 460c0 -124 -64 -174 -145 -174
c-82 0 -146 50 -146 174s64 175 146 175c81 0 145 -51 145 -175zM275 460c0 81 -27 118 -75 118c-47 0 -74 -37 -74 -118s27 -117 74 -117c48 0 75 36 75 117zM1081 166c0 -124 -64 -174 -145 -174c-82 0 -146 50 -146 174s64 175 146 175c81 0 145 -51 145 -175zM1010 166
c0 81 -27 118 -75 118c-47 0 -74 -37 -74 -118s27 -117 74 -117c48 0 75 36 75 117z" />
    <glyph glyph-name="paragraph" unicode="&#xb6;" horiz-adv-x="610" 
d="M354 -173h-69v420c-122 4 -210 61 -210 190c0 133 94 190 223 190h56v-800zM445 -173v800h70v-800h-70z" />
    <glyph glyph-name="registered" unicode="&#xae;" horiz-adv-x="595" 
d="M296 215c-136 0 -236 94 -236 232s100 233 236 233c139 0 239 -95 239 -233s-100 -232 -239 -232zM296 252c114 0 196 80 196 195s-82 196 -196 196c-112 0 -194 -81 -194 -196s82 -195 194 -195zM413 324h-54c-27 24 -6 102 -67 102h-35v-102h-50v250h104
c48 0 90 -16 90 -70c0 -30 -23 -59 -72 -61c81 -3 50 -85 84 -119zM349 500c0 34 -28 38 -54 38h-38v-76h38c26 0 54 5 54 38z" />
    <glyph glyph-name="copyright" unicode="&#xa9;" horiz-adv-x="781" 
d="M220 313c0 124 85 181 170 181c89 0 147 -53 150 -119l-67 -8c-1 29 -22 66 -83 66c-46 0 -95 -30 -95 -120c0 -88 49 -120 95 -120c57 0 85 33 86 67l67 -8c-5 -68 -64 -118 -153 -118c-85 0 -170 58 -170 179zM389 -10c-190 0 -329 131 -329 323s139 324 329 324
c193 0 332 -132 332 -324s-139 -323 -332 -323zM389 41c159 0 273 112 273 272s-114 272 -273 272c-156 0 -270 -112 -270 -272s114 -272 270 -272z" />
    <glyph glyph-name="trademark" unicode="&#x2122;" horiz-adv-x="682" 
d="M190 343h-61v233h-84v51h229v-51h-84v-233zM488 460h-53l-59 93v-210h-60v284h74l71 -112l67 112h74v-284h-61v210z" />
    <glyph glyph-name="summation" unicode="&#x2211;" horiz-adv-x="540" 
d="M361 352v-73l-200 -208h329v-71h-430v77l225 238l-214 235v77h409v-71h-307z" />
    <glyph glyph-name="product" unicode="&#x220f;" horiz-adv-x="650" 
d="M560 0h-85v556h-301v-556h-84v627h470v-627z" />
    <glyph glyph-name="pi" unicode="&#x3c0;" 
d="M469 0h-82v410h-176v-410h-81v410h-70v66h479v-66h-70v-410z" />
    <glyph glyph-name="integral" unicode="&#x222b;" horiz-adv-x="446" 
d="M263 546v-604c0 -80 -49 -125 -123 -125c-25 0 -55 6 -75 15l14 56c13 -5 33 -10 51 -10c38 0 53 22 53 72v604c0 80 49 125 123 125c25 0 55 -6 75 -15l-14 -56c-13 5 -33 10 -51 10c-38 0 -53 -22 -53 -72z" />
    <glyph glyph-name="logicalnot" unicode="&#xac;" 
d="M62 239v60h476v-269h-64v209h-412z" />
    <glyph glyph-name="radical" unicode="&#x221a;" 
d="M51 368v58h161l106 -359l174 560h74l-195 -627h-109l-112 368h-99z" />
    <glyph glyph-name="Omega" unicode="&#x2126;" horiz-adv-x="710" 
d="M60 0v68h156c-77 34 -155 116 -155 272c0 170 106 299 293 299s295 -129 295 -299c0 -156 -78 -238 -155 -272h156v-68h-240v75c108 37 151 146 151 258c0 118 -68 233 -207 233c-137 0 -205 -115 -205 -233c0 -112 43 -221 150 -258v-75h-239z" />
    <glyph glyph-name="uni03A9" unicode="&#x3a9;" horiz-adv-x="710" 
d="M60 0v68h156c-77 34 -155 116 -155 272c0 170 106 299 293 299s295 -129 295 -299c0 -156 -78 -238 -155 -272h156v-68h-240v75c108 37 151 146 151 258c0 118 -68 233 -207 233c-137 0 -205 -115 -205 -233c0 -112 43 -221 150 -258v-75h-239z" />
    <glyph glyph-name="Delta" unicode="&#x2206;" horiz-adv-x="630" 
d="M600 0h-570v71l237 556h96l237 -555v-72zM315 536l-194 -464h385z" />
    <glyph glyph-name="uni0394" unicode="&#x394;" horiz-adv-x="630" 
d="M600 0h-570v71l237 556h96l237 -555v-72zM315 536l-194 -464h385z" />
    <glyph glyph-name="mu" unicode="&#xb5;" horiz-adv-x="543" 
d="M85 476h82v-304c0 -93 39 -117 95 -117c43 0 92 26 114 82v339h82v-476h-54l-17 115c-17 -80 -70 -125 -140 -125c-25 0 -59 8 -80 27v-190h-82v649z" />
    <glyph glyph-name="uni03BC" unicode="&#x3bc;" horiz-adv-x="543" 
d="M85 476h82v-304c0 -93 39 -117 95 -117c43 0 92 26 114 82v339h82v-476h-54l-17 115c-17 -80 -70 -125 -140 -125c-25 0 -59 8 -80 27v-190h-82v649z" />
    <glyph glyph-name="partialdiff" unicode="&#x2202;" horiz-adv-x="529" 
d="M131 506l-60 41c36 61 109 92 177 92c142 0 226 -104 226 -331c0 -183 -67 -318 -222 -318c-126 0 -197 103 -197 208c0 120 75 201 188 201c52 0 106 -21 146 -60c-4 168 -64 228 -143 228c-57 0 -98 -27 -115 -61zM254 60c74 0 126 61 135 212c-30 37 -76 58 -128 58
c-72 0 -121 -50 -121 -132c0 -81 44 -138 114 -138z" />
    <glyph glyph-name="lozenge" unicode="&#x25ca;" horiz-adv-x="613" 
d="M308 67l189 244l-190 249l-191 -244zM261 0l-216 271v85l216 271h91l216 -271v-85l-216 -271h-91z" />
    <glyph glyph-name="grave" unicode="`" horiz-adv-x="281" 
d="M188 545l-140 134h112l69 -134h-41z" />
    <glyph glyph-name="acute" unicode="&#xb4;" horiz-adv-x="281" 
d="M231 679l-140 -134h-41l69 134h112z" />
    <glyph glyph-name="dieresis" unicode="&#xa8;" horiz-adv-x="362" 
d="M139 561h-89v78h89v-78zM312 561h-89v78h89v-78z" />
    <glyph glyph-name="circumflex" unicode="&#x2c6;" horiz-adv-x="384" 
d="M50 545l111 134h62l111 -134h-47l-95 67l-95 -67h-47z" />
    <glyph glyph-name="tilde" unicode="&#x2dc;" horiz-adv-x="362" 
d="M93 545h-47c0 70 28 111 78 111c47 0 82 -53 115 -53c21 0 31 15 31 50h46c0 -71 -27 -112 -77 -112c-47 0 -83 53 -115 53c-22 0 -31 -15 -31 -49z" />
    <glyph glyph-name="macron" unicode="&#xaf;" horiz-adv-x="347" 
d="M50 566v55h247v-55h-247z" />
    <glyph glyph-name="uni02C9" unicode="&#x2c9;" horiz-adv-x="347" 
d="M50 566v55h247v-55h-247z" />
    <glyph glyph-name="breve" unicode="&#x2d8;" horiz-adv-x="338" 
d="M50 659h45c0 -43 34 -65 73 -65c41 0 75 22 75 65h45c0 -78 -49 -122 -120 -122c-69 0 -118 44 -118 122z" />
    <glyph glyph-name="dotaccent" unicode="&#x2d9;" horiz-adv-x="186" 
d="M50 572v84h86v-84h-86z" />
    <glyph glyph-name="ringacute" horiz-adv-x="326" 
d="M50 617c0 24 8 43 18 58l86 125h122l-144 -88c5 1 10 1 13 1c50 0 96 -37 96 -96c0 -60 -46 -95 -96 -95c-49 0 -95 35 -95 95zM145 561c31 0 53 20 53 56s-22 56 -53 56c-30 0 -52 -20 -52 -56s22 -56 52 -56z" />
    <glyph glyph-name="ring" unicode="&#x2da;" horiz-adv-x="291" 
d="M145 561c31 0 53 20 53 56s-22 56 -53 56c-30 0 -52 -20 -52 -56s22 -56 52 -56zM50 617c0 59 46 96 95 96c50 0 96 -37 96 -96c0 -60 -46 -95 -96 -95c-49 0 -95 35 -95 95z" />
    <glyph glyph-name="cedilla" unicode="&#xb8;" horiz-adv-x="298" 
d="M50 -175l24 42c14 -14 40 -27 67 -27c29 0 50 13 50 38c0 21 -17 33 -40 33c-14 0 -29 -7 -37 -16l-33 23l58 101l25 -19l-32 -56c11 7 27 9 36 9c46 0 80 -28 80 -75c0 -52 -44 -85 -106 -85c-39 0 -72 14 -92 32z" />
    <glyph glyph-name="hungarumlaut" unicode="&#x2dd;" horiz-adv-x="398" 
d="M195 545l55 134h98l-115 -134h-38zM50 545l55 134h98l-115 -134h-38z" />
    <glyph glyph-name="ogonek" unicode="&#x2db;" horiz-adv-x="284" 
d="M215 -128l37 -29c-18 -33 -53 -50 -94 -50c-51 0 -92 31 -92 82c0 63 58 105 94 125h54c-58 -32 -89 -70 -89 -111c0 -28 21 -46 43 -46c20 0 39 15 47 29z" />
    <glyph glyph-name="caron" unicode="&#x2c7;" horiz-adv-x="384" 
d="M161 545l-111 134h47l95 -67l95 67h47l-111 -134h-62z" />
    <glyph glyph-name="commaaccent" unicode="&#xf6c3;" horiz-adv-x="196" 
d="M146 -55v-102c0 -76 -38 -98 -96 -98v38c30 0 43 12 43 51v33h-43v78h96z" />
    <glyph glyph-name="commatop" horiz-adv-x="196" 
d="M50 554v82c0 76 38 98 96 98v-38c-30 0 -43 -12 -43 -51v-13h43v-78h-96z" />
    <glyph glyph-name="caronslovak" horiz-adv-x="206" 
d="M50 450l25 177h81l-72 -177h-34z" />
    <glyph glyph-name="AE" unicode="&#xc6;" horiz-adv-x="897" 
d="M501 0l-61 164h-274l-61 -164h-88l240 627h395l27 -72h-299l77 -200h247l28 -71h-248l81 -213h305l27 -71h-396zM303 534l-111 -298h221z" />
    <glyph glyph-name="Aogonek" unicode="&#x104;" horiz-adv-x="610" 
d="M353 627l240 -627c-58 -32 -89 -70 -89 -111c0 -28 21 -46 43 -46c20 0 39 15 47 29l37 -29c-18 -33 -53 -50 -94 -50c-51 0 -92 31 -92 82c0 63 58 105 94 125h-38l-61 164h-274l-61 -164h-88l240 627h96zM303 534l-111 -298h221z" />
    <glyph glyph-name="Adieresis" unicode="&#xc4;" horiz-adv-x="610" 
d="M501 0l-61 164h-274l-61 -164h-88l240 627h96l240 -627h-92zM303 534l-111 -298h221zM262 710h-89v78h89v-78zM435 710h-89v78h89v-78z" />
    <glyph glyph-name="Aringacute" unicode="&#x1fa;" horiz-adv-x="610" 
d="M209 684c0 24 8 43 18 58l86 125h122l-144 -88c5 1 10 1 13 1c50 0 96 -37 96 -96c0 -36 -16 -62 -39 -78l232 -606h-92l-61 164h-274l-61 -164h-88l232 605c-24 16 -40 43 -40 79zM303 534l-111 -298h221zM304 628c31 0 53 20 53 56s-22 56 -53 56
c-30 0 -52 -20 -52 -56s22 -56 52 -56z" />
    <glyph glyph-name="Aring" unicode="&#xc5;" horiz-adv-x="610" 
d="M209 684c0 59 46 96 95 96c50 0 96 -37 96 -96c0 -36 -16 -62 -39 -78l232 -606h-92l-61 164h-274l-61 -164h-88l232 605c-24 16 -40 43 -40 79zM303 534l-111 -298h221zM304 628c31 0 53 20 53 56s-22 56 -53 56c-30 0 -52 -20 -52 -56s22 -56 52 -56z" />
    <glyph glyph-name="Agrave" unicode="&#xc0;" horiz-adv-x="610" 
d="M501 0l-61 164h-274l-61 -164h-88l240 627h96l240 -627h-92zM303 534l-111 -298h221zM304 694l-140 134h112l69 -134h-41z" />
    <glyph glyph-name="Atilde" unicode="&#xc3;" horiz-adv-x="610" 
d="M501 0l-61 164h-274l-61 -164h-88l240 627h96l240 -627h-92zM303 534l-111 -298h221zM218 694h-47c0 70 28 111 78 111c47 0 82 -53 115 -53c21 0 31 15 31 50h46c0 -71 -27 -112 -77 -112c-47 0 -83 53 -115 53c-22 0 -31 -15 -31 -49z" />
    <glyph glyph-name="Acircumflex" unicode="&#xc2;" horiz-adv-x="610" 
d="M501 0l-61 164h-274l-61 -164h-88l240 627h96l240 -627h-92zM303 534l-111 -298h221zM162 694l111 134h62l111 -134h-47l-95 67l-95 -67h-47z" />
    <glyph glyph-name="Aacute" unicode="&#xc1;" horiz-adv-x="610" 
d="M501 0l-61 164h-274l-61 -164h-88l240 627h96l240 -627h-92zM303 534l-111 -298h221zM444 828l-140 -134h-41l69 134h112z" />
    <glyph glyph-name="Abreve" unicode="&#x102;" horiz-adv-x="610" 
d="M501 0l-61 164h-274l-61 -164h-88l240 627h96l240 -627h-92zM303 534l-111 -298h221zM186 809h45c0 -43 34 -65 73 -65c41 0 75 22 75 65h45c0 -78 -49 -122 -120 -122c-69 0 -118 44 -118 122z" />
    <glyph glyph-name="Amacron" unicode="&#x100;" horiz-adv-x="610" 
d="M501 0l-61 164h-274l-61 -164h-88l240 627h96l240 -627h-92zM303 534l-111 -298h221zM180 715v55h247v-55h-247z" />
    <glyph glyph-name="AEacute" unicode="&#x1fc;" horiz-adv-x="897" 
d="M501 0l-61 164h-274l-61 -164h-88l240 627h395l27 -72h-299l77 -200h247l28 -71h-248l81 -213h305l27 -71h-396zM303 534l-111 -298h221zM564 829l-140 -134h-41l69 134h112z" />
    <glyph glyph-name="Ccedilla" unicode="&#xc7;" horiz-adv-x="663" 
d="M248 -175l24 42c14 -14 40 -27 67 -27c29 0 50 13 50 38c0 21 -17 33 -40 33c-14 0 -29 -7 -37 -16l-33 23l40 71c-138 10 -259 111 -259 324c0 224 135 326 282 326c150 0 253 -91 261 -215l-81 -10c-8 74 -65 152 -181 152c-98 0 -193 -73 -193 -252s95 -253 193 -253
c116 0 173 78 181 152l81 -10c-8 -121 -105 -210 -248 -215l-25 -44c11 7 27 9 36 9c46 0 80 -28 80 -75c0 -52 -44 -85 -106 -85c-39 0 -72 14 -92 32z" />
    <glyph glyph-name="Cacute" unicode="&#x106;" horiz-adv-x="663" 
d="M148 314c0 -179 95 -253 193 -253c116 0 173 78 181 152l81 -10c-8 -124 -111 -215 -261 -215c-147 0 -282 101 -282 325s135 326 282 326c150 0 253 -91 261 -215l-81 -10c-8 74 -65 152 -181 152c-98 0 -193 -73 -193 -252zM482 828l-140 -134h-41l69 134h112z" />
    <glyph glyph-name="Ccaron" unicode="&#x10c;" horiz-adv-x="663" 
d="M148 314c0 -179 95 -253 193 -253c116 0 173 78 181 152l81 -10c-8 -124 -111 -215 -261 -215c-147 0 -282 101 -282 325s135 326 282 326c150 0 253 -91 261 -215l-81 -10c-8 74 -65 152 -181 152c-98 0 -193 -73 -193 -252zM311 694l-111 134h47l95 -67l95 67h47
l-111 -134h-62z" />
    <glyph glyph-name="Ccircumflex" unicode="&#x108;" horiz-adv-x="663" 
d="M148 314c0 -179 95 -253 193 -253c116 0 173 78 181 152l81 -10c-8 -124 -111 -215 -261 -215c-147 0 -282 101 -282 325s135 326 282 326c150 0 253 -91 261 -215l-81 -10c-8 74 -65 152 -181 152c-98 0 -193 -73 -193 -252zM200 694l111 134h62l111 -134h-47l-95 67
l-95 -67h-47z" />
    <glyph glyph-name="Cdotaccent" unicode="&#x10a;" horiz-adv-x="663" 
d="M148 314c0 -179 95 -253 193 -253c116 0 173 78 181 152l81 -10c-8 -124 -111 -215 -261 -215c-147 0 -282 101 -282 325s135 326 282 326c150 0 253 -91 261 -215l-81 -10c-8 74 -65 152 -181 152c-98 0 -193 -73 -193 -252zM299 721v84h86v-84h-86z" />
    <glyph glyph-name="Dcaron" unicode="&#x10e;" horiz-adv-x="647" 
d="M174 71h123c122 0 202 69 202 244c0 174 -80 241 -202 241h-123v-485zM297 0h-207v627h207c169 0 290 -89 290 -312c0 -224 -121 -315 -290 -315zM267 694l-111 134h47l95 -67l95 67h47l-111 -134h-62z" />
    <glyph glyph-name="Dcroat" unicode="&#x110;" horiz-adv-x="667" 
d="M40 284v60h70v283h207c169 0 290 -89 290 -312c0 -224 -121 -315 -290 -315h-207v284h-70zM194 71h123c122 0 202 69 202 244c0 174 -80 241 -202 241h-123v-212h133v-60h-133v-213z" />
    <glyph glyph-name="Eth" unicode="&#xd0;" horiz-adv-x="667" 
d="M40 284v60h70v283h207c169 0 290 -89 290 -312c0 -224 -121 -315 -290 -315h-207v284h-70zM194 71h123c122 0 202 69 202 244c0 174 -80 241 -202 241h-123v-212h133v-60h-133v-213z" />
    <glyph glyph-name="Eacute" unicode="&#xc9;" horiz-adv-x="575" 
d="M515 0h-425v627h419v-72h-335v-200h284v-71h-284v-213h341v-71zM439 828l-140 -134h-41l69 134h112z" />
    <glyph glyph-name="Ecircumflex" unicode="&#xca;" horiz-adv-x="575" 
d="M515 0h-425v627h419v-72h-335v-200h284v-71h-284v-213h341v-71zM157 694l111 134h62l111 -134h-47l-95 67l-95 -67h-47z" />
    <glyph glyph-name="Edieresis" unicode="&#xcb;" horiz-adv-x="575" 
d="M515 0h-425v627h419v-72h-335v-200h284v-71h-284v-213h341v-71zM257 710h-89v78h89v-78zM430 710h-89v78h89v-78z" />
    <glyph glyph-name="Egrave" unicode="&#xc8;" horiz-adv-x="575" 
d="M515 0h-425v627h419v-72h-335v-200h284v-71h-284v-213h341v-71zM299 694l-140 134h112l69 -134h-41z" />
    <glyph glyph-name="Ebreve" unicode="&#x114;" horiz-adv-x="575" 
d="M515 0h-425v627h419v-72h-335v-200h284v-71h-284v-213h341v-71zM181 809h45c0 -43 34 -65 73 -65c41 0 75 22 75 65h45c0 -78 -49 -122 -120 -122c-69 0 -118 44 -118 122z" />
    <glyph glyph-name="Ecaron" unicode="&#x11a;" horiz-adv-x="575" 
d="M515 0h-425v627h419v-72h-335v-200h284v-71h-284v-213h341v-71zM268 694l-111 134h47l95 -67l95 67h47l-111 -134h-62z" />
    <glyph glyph-name="Edotaccent" unicode="&#x116;" horiz-adv-x="575" 
d="M515 0h-425v627h419v-72h-335v-200h284v-71h-284v-213h341v-71zM256 721v84h86v-84h-86z" />
    <glyph glyph-name="Emacron" unicode="&#x112;" horiz-adv-x="575" 
d="M515 0h-425v627h419v-72h-335v-200h284v-71h-284v-213h341v-71zM175 715v55h247v-55h-247z" />
    <glyph glyph-name="Eogonek" unicode="&#x118;" horiz-adv-x="575" 
d="M515 71v-71c-58 -32 -89 -70 -89 -111c0 -28 21 -46 43 -46c20 0 39 15 47 29l37 -29c-18 -33 -53 -50 -94 -50c-51 0 -92 31 -92 82c0 63 58 105 94 125h-371v627h419v-72h-335v-200h284v-71h-284v-213h341z" />
    <glyph glyph-name="Gbreve" unicode="&#x11e;" horiz-adv-x="683" 
d="M60 315c0 221 135 324 282 324c150 0 253 -91 261 -215l-81 -10c-8 74 -65 152 -181 152c-98 0 -193 -73 -193 -252c0 -167 81 -254 205 -254c67 0 132 28 164 75v119h-211v71h295v-325h-53l-17 114c-26 -74 -101 -126 -197 -126c-152 0 -274 108 -274 327zM215 809h45
c0 -43 34 -65 73 -65c41 0 75 22 75 65h45c0 -78 -49 -122 -120 -122c-69 0 -118 44 -118 122z" />
    <glyph glyph-name="Gcircumflex" unicode="&#x11c;" horiz-adv-x="683" 
d="M60 315c0 221 135 324 282 324c150 0 253 -91 261 -215l-81 -10c-8 74 -65 152 -181 152c-98 0 -193 -73 -193 -252c0 -167 81 -254 205 -254c67 0 132 28 164 75v119h-211v71h295v-325h-53l-17 114c-26 -74 -101 -126 -197 -126c-152 0 -274 108 -274 327zM191 694
l111 134h62l111 -134h-47l-95 67l-95 -67h-47z" />
    <glyph glyph-name="Gcommaaccent" unicode="&#x122;" horiz-adv-x="683" 
d="M60 315c0 221 135 324 282 324c150 0 253 -91 261 -215l-81 -10c-8 74 -65 152 -181 152c-98 0 -193 -73 -193 -252c0 -167 81 -254 205 -254c67 0 132 28 164 75v119h-211v71h295v-325h-53l-17 114c-26 -74 -101 -126 -197 -126c-152 0 -274 108 -274 327zM381 -55v-102
c0 -76 -38 -98 -96 -98v38c30 0 43 12 43 51v33h-43v78h96z" />
    <glyph glyph-name="Gdotaccent" unicode="&#x120;" horiz-adv-x="683" 
d="M60 315c0 221 135 324 282 324c150 0 253 -91 261 -215l-81 -10c-8 74 -65 152 -181 152c-98 0 -193 -73 -193 -252c0 -167 81 -254 205 -254c67 0 132 28 164 75v119h-211v71h295v-325h-53l-17 114c-26 -74 -101 -126 -197 -126c-152 0 -274 108 -274 327zM290 721v84
h86v-84h-86z" />
    <glyph glyph-name="Hbar" unicode="&#x126;" horiz-adv-x="690" 
d="M40 448v60h70v119h84v-121h301v121h85v-119h70v-60h-70v-448h-85v284h-301v-284h-84v448h-70zM194 355h301v95h-301v-95z" />
    <glyph glyph-name="Hcircumflex" unicode="&#x124;" horiz-adv-x="650" 
d="M560 0h-85v284h-301v-284h-84v627h84v-272h301v272h85v-627zM182 694l111 134h62l111 -134h-47l-95 67l-95 -67h-47z" />
    <glyph glyph-name="Iacute" unicode="&#xcd;" horiz-adv-x="264" 
d="M174 0h-84v627h84v-627zM272 828l-140 -134h-41l69 134h112z" />
    <glyph glyph-name="Icircumflex" unicode="&#xce;" horiz-adv-x="264" 
d="M174 0h-84v627h84v-627zM-10 694l111 134h62l111 -134h-47l-95 67l-95 -67h-47z" />
    <glyph glyph-name="Idieresis" unicode="&#xcf;" horiz-adv-x="264" 
d="M174 0h-84v627h84v-627zM90 710h-89v78h89v-78zM263 710h-89v78h89v-78z" />
    <glyph glyph-name="Igrave" unicode="&#xcc;" horiz-adv-x="264" 
d="M174 0h-84v627h84v-627zM132 694l-140 134h112l69 -134h-41z" />
    <glyph glyph-name="Ibreve" unicode="&#x12c;" horiz-adv-x="264" 
d="M174 0h-84v627h84v-627zM14 809h45c0 -43 34 -65 73 -65c41 0 75 22 75 65h45c0 -78 -49 -122 -120 -122c-69 0 -118 44 -118 122z" />
    <glyph glyph-name="Imacron" unicode="&#x12a;" horiz-adv-x="264" 
d="M174 0h-84v627h84v-627zM8 715v55h247v-55h-247z" />
    <glyph glyph-name="Itilde" unicode="&#x128;" horiz-adv-x="264" 
d="M174 0h-84v627h84v-627zM46 694h-47c0 70 28 111 78 111c47 0 82 -53 115 -53c21 0 31 15 31 50h46c0 -71 -27 -112 -77 -112c-47 0 -83 53 -115 53c-22 0 -31 -15 -31 -49z" />
    <glyph glyph-name="Iogonek" unicode="&#x12e;" horiz-adv-x="264" 
d="M175 -128l37 -29c-18 -33 -53 -50 -94 -50c-51 0 -92 31 -92 82c0 63 58 105 94 125h-30v627h84v-627c-58 -32 -89 -70 -89 -111c0 -28 21 -46 43 -46c20 0 39 15 47 29z" />
    <glyph glyph-name="Idotaccent" unicode="&#x130;" horiz-adv-x="264" 
d="M174 0h-84v627h84v-627zM89 721v84h86v-84h-86z" />
    <glyph glyph-name="Jacute" horiz-adv-x="542" 
d="M242 -12c-135 0 -207 88 -207 195c0 27 5 59 12 77l77 -14c-5 -22 -7 -35 -7 -57c0 -69 43 -128 125 -128c93 0 131 75 131 184v382h84v-395c0 -149 -73 -244 -215 -244zM555 830l-140 -134h-41l69 134h112z" />
    <glyph glyph-name="Iacute_Jacute" horiz-adv-x="614" 
d="M169 315h-84v312h84v-312zM302 -12c-143 0 -217 82 -217 188h84c0 -61 44 -115 133 -115c96 0 142 64 142 172v394h85v-402c0 -148 -74 -237 -227 -237zM267 830l-140 -134h-41l69 134h112zM625 830l-140 -134h-41l69 134h112z" />
    <glyph glyph-name="Jcircumflex" unicode="&#x134;" horiz-adv-x="542" 
d="M242 -12c-135 0 -207 88 -207 195c0 27 5 59 12 77l77 -14c-5 -22 -7 -35 -7 -57c0 -69 43 -128 125 -128c93 0 131 75 131 184v382h84v-395c0 -149 -73 -244 -215 -244zM275 694l111 134h62l111 -134h-47l-95 67l-95 -67h-47z" />
    <glyph glyph-name="Kcommaaccent" unicode="&#x136;" horiz-adv-x="602" 
d="M577 0h-104l-210 290l-89 -94v-196h-84v627h84v-325l297 325h105l-254 -276zM357 -55v-102c0 -76 -38 -98 -96 -98v38c30 0 43 12 43 51v33h-43v78h96z" />
    <glyph glyph-name="Lslash" unicode="&#x141;" horiz-adv-x="519" 
d="M40 202v73l70 47v305h84v-249l122 83v-73l-122 -83v-233h300v-72h-384v249z" />
    <glyph glyph-name="Lacute" unicode="&#x139;" horiz-adv-x="499" 
d="M474 0h-384v627h84v-555h300v-72zM272 828l-140 -134h-41l69 134h112z" />
    <glyph glyph-name="Lcaron" unicode="&#x13d;" horiz-adv-x="499" 
d="M474 0h-384v627h84v-555h300v-72zM260 450l25 177h81l-72 -177h-34z" />
    <glyph glyph-name="Lcommaaccent" unicode="&#x13b;" horiz-adv-x="499" 
d="M474 0h-384v627h84v-555h300v-72zM320 -55v-102c0 -76 -38 -98 -96 -98v38c30 0 43 12 43 51v33h-43v78h96z" />
    <glyph glyph-name="Ldot" unicode="&#x13f;" horiz-adv-x="499" 
d="M474 0h-384v627h84v-555h300v-72zM409 222h-103v105h103v-105z" />
    <glyph glyph-name="Eng" unicode="&#x14a;" horiz-adv-x="681" 
d="M477 -183c-30 0 -50 5 -70 14l14 55c11 -4 25 -7 41 -7c30 0 53 16 53 69v26l-341 538v-512h-84v627h106l311 -504v504h84v-677c0 -86 -38 -133 -114 -133z" />
    <glyph glyph-name="Ntilde" unicode="&#xd1;" horiz-adv-x="681" 
d="M591 0h-95l-322 512v-512h-84v627h106l311 -508v508h84v-627zM256 694h-47c0 70 28 111 78 111c47 0 82 -53 115 -53c21 0 31 15 31 50h46c0 -71 -27 -112 -77 -112c-47 0 -83 53 -115 53c-22 0 -31 -15 -31 -49z" />
    <glyph glyph-name="Nacute" unicode="&#x143;" horiz-adv-x="681" 
d="M591 0h-95l-322 512v-512h-84v627h106l311 -508v508h84v-627zM482 828l-140 -134h-41l69 134h112z" />
    <glyph glyph-name="Ncaron" unicode="&#x147;" horiz-adv-x="681" 
d="M591 0h-95l-322 512v-512h-84v627h106l311 -508v508h84v-627zM311 694l-111 134h47l95 -67l95 67h47l-111 -134h-62z" />
    <glyph glyph-name="Ncommaaccent" unicode="&#x145;" horiz-adv-x="681" 
d="M591 0h-95l-322 512v-512h-84v627h106l311 -508v508h84v-627zM390 -55v-102c0 -76 -38 -98 -96 -98v38c30 0 43 12 43 51v33h-43v78h96z" />
    <glyph glyph-name="OE" unicode="&#x152;" horiz-adv-x="1027" 
d="M967 0h-425v76c-48 -59 -117 -88 -197 -88c-153 0 -285 104 -285 325s132 326 285 326c80 0 149 -29 197 -89v77h419v-72h-335v-200h284v-71h-284v-213h341v-71zM345 61c114 0 193 84 197 240v12c0 164 -80 253 -197 253s-197 -89 -197 -253s80 -252 197 -252z" />
    <glyph glyph-name="Odieresis" unicode="&#xd6;" horiz-adv-x="690" 
d="M345 61c117 0 197 88 197 252s-80 253 -197 253s-197 -89 -197 -253s80 -252 197 -252zM345 -12c-153 0 -285 104 -285 325s132 326 285 326s285 -105 285 -326s-132 -325 -285 -325zM302 710h-89v78h89v-78zM475 710h-89v78h89v-78z" />
    <glyph glyph-name="Otilde" unicode="&#xd5;" horiz-adv-x="690" 
d="M345 61c117 0 197 88 197 252s-80 253 -197 253s-197 -89 -197 -253s80 -252 197 -252zM345 -12c-153 0 -285 104 -285 325s132 326 285 326s285 -105 285 -326s-132 -325 -285 -325zM258 694h-47c0 70 28 111 78 111c47 0 82 -53 115 -53c21 0 31 15 31 50h46
c0 -71 -27 -112 -77 -112c-47 0 -83 53 -115 53c-22 0 -31 -15 -31 -49z" />
    <glyph glyph-name="Oacute" unicode="&#xd3;" horiz-adv-x="690" 
d="M345 61c117 0 197 88 197 252s-80 253 -197 253s-197 -89 -197 -253s80 -252 197 -252zM345 -12c-153 0 -285 104 -285 325s132 326 285 326s285 -105 285 -326s-132 -325 -285 -325zM484 828l-140 -134h-41l69 134h112z" />
    <glyph glyph-name="Ocircumflex" unicode="&#xd4;" horiz-adv-x="690" 
d="M345 61c117 0 197 88 197 252s-80 253 -197 253s-197 -89 -197 -253s80 -252 197 -252zM345 -12c-153 0 -285 104 -285 325s132 326 285 326s285 -105 285 -326s-132 -325 -285 -325zM202 694l111 134h62l111 -134h-47l-95 67l-95 -67h-47z" />
    <glyph glyph-name="Ograve" unicode="&#xd2;" horiz-adv-x="690" 
d="M345 61c117 0 197 88 197 252s-80 253 -197 253s-197 -89 -197 -253s80 -252 197 -252zM345 -12c-153 0 -285 104 -285 325s132 326 285 326s285 -105 285 -326s-132 -325 -285 -325zM344 694l-140 134h112l69 -134h-41z" />
    <glyph glyph-name="Obreve" unicode="&#x14e;" horiz-adv-x="690" 
d="M345 61c117 0 197 88 197 252s-80 253 -197 253s-197 -89 -197 -253s80 -252 197 -252zM345 -12c-153 0 -285 104 -285 325s132 326 285 326s285 -105 285 -326s-132 -325 -285 -325zM226 809h45c0 -43 34 -65 73 -65c41 0 75 22 75 65h45c0 -78 -49 -122 -120 -122
c-69 0 -118 44 -118 122z" />
    <glyph glyph-name="Ohungarumlaut" unicode="&#x150;" horiz-adv-x="690" 
d="M345 61c117 0 197 88 197 252s-80 253 -197 253s-197 -89 -197 -253s80 -252 197 -252zM345 -12c-153 0 -285 104 -285 325s132 326 285 326s285 -105 285 -326s-132 -325 -285 -325zM395 694l55 134h98l-115 -134h-38zM250 694l55 134h98l-115 -134h-38z" />
    <glyph glyph-name="Omacron" unicode="&#x14c;" horiz-adv-x="690" 
d="M345 61c117 0 197 88 197 252s-80 253 -197 253s-197 -89 -197 -253s80 -252 197 -252zM345 -12c-153 0 -285 104 -285 325s132 326 285 326s285 -105 285 -326s-132 -325 -285 -325zM220 715v55h247v-55h-247z" />
    <glyph glyph-name="Oslash" unicode="&#xd8;" horiz-adv-x="690" 
d="M345 -12c-54 0 -105 13 -149 39l-54 -77h-82l81 121c-50 54 -81 134 -81 242c0 221 132 326 285 326c54 0 105 -13 149 -40l54 78h82l-82 -122c50 -54 82 -134 82 -242c0 -221 -132 -325 -285 -325zM148 313c0 -74 16 -132 44 -174l263 393c-31 22 -68 34 -110 34
c-117 0 -197 -89 -197 -253zM345 61c117 0 197 88 197 252c0 73 -16 131 -44 173l-263 -392c31 -22 68 -33 110 -33z" />
    <glyph glyph-name="Oslashacute" unicode="&#x1fe;" horiz-adv-x="690" 
d="M480 828l-140 -134h-41l69 134h112zM345 -12c-54 0 -105 13 -149 39l-54 -77h-82l81 121c-50 54 -81 134 -81 242c0 221 132 326 285 326c54 0 105 -13 149 -40l54 78h82l-82 -122c50 -54 82 -134 82 -242c0 -221 -132 -325 -285 -325zM148 313c0 -74 16 -132 44 -174
l263 393c-31 22 -68 34 -110 34c-117 0 -197 -89 -197 -253zM345 61c117 0 197 88 197 252c0 73 -16 131 -44 173l-263 -392c31 -22 68 -33 110 -33z" />
    <glyph glyph-name="Thorn" unicode="&#xde;" horiz-adv-x="576" 
d="M174 627v-123h122c121 0 235 -41 235 -190c0 -150 -114 -191 -235 -191h-122v-123h-84v627h84zM301 432h-127v-238h127c64 0 142 14 142 120s-78 118 -142 118z" />
    <glyph glyph-name="Racute" unicode="&#x154;" horiz-adv-x="620" 
d="M174 0h-84v627h238c118 0 216 -43 216 -174c0 -78 -63 -150 -178 -155c201 -7 140 -217 209 -298h-90c-59 61 -8 269 -183 269h-128v-269zM316 338c67 0 140 28 140 114c0 85 -73 103 -140 103h-142v-217h142zM454 828l-140 -134h-41l69 134h112z" />
    <glyph glyph-name="Rcaron" unicode="&#x158;" horiz-adv-x="620" 
d="M174 0h-84v627h238c118 0 216 -43 216 -174c0 -78 -63 -150 -178 -155c201 -7 140 -217 209 -298h-90c-59 61 -8 269 -183 269h-128v-269zM316 338c67 0 140 28 140 114c0 85 -73 103 -140 103h-142v-217h142zM283 694l-111 134h47l95 -67l95 67h47l-111 -134h-62z" />
    <glyph glyph-name="Rcommaaccent" unicode="&#x156;" horiz-adv-x="620" 
d="M174 0h-84v627h238c118 0 216 -43 216 -174c0 -78 -63 -150 -178 -155c201 -7 140 -217 209 -298h-90c-59 61 -8 269 -183 269h-128v-269zM316 338c67 0 140 28 140 114c0 85 -73 103 -140 103h-142v-217h142zM373 -55v-102c0 -76 -38 -98 -96 -98v38c30 0 43 12 43 51
v33h-43v78h96z" />
    <glyph glyph-name="Scaron" unicode="&#x160;" horiz-adv-x="591" 
d="M308 -12c-152 0 -248 94 -255 205l81 10c5 -55 57 -142 174 -142c92 0 145 51 145 108c0 56 -39 83 -131 104l-95 22c-86 20 -157 66 -157 166c0 95 77 178 220 178c148 0 228 -83 236 -181l-81 -10c-9 67 -67 118 -155 118c-87 0 -135 -46 -135 -104
c0 -54 39 -78 109 -94l93 -21c121 -27 181 -75 181 -171c0 -113 -95 -188 -230 -188zM264 694l-111 134h47l95 -67l95 67h47l-111 -134h-62z" />
    <glyph glyph-name="Sacute" unicode="&#x15a;" horiz-adv-x="591" 
d="M308 -12c-152 0 -248 94 -255 205l81 10c5 -55 57 -142 174 -142c92 0 145 51 145 108c0 56 -39 83 -131 104l-95 22c-86 20 -157 66 -157 166c0 95 77 178 220 178c148 0 228 -83 236 -181l-81 -10c-9 67 -67 118 -155 118c-87 0 -135 -46 -135 -104
c0 -54 39 -78 109 -94l93 -21c121 -27 181 -75 181 -171c0 -113 -95 -188 -230 -188zM435 828l-140 -134h-41l69 134h112z" />
    <glyph glyph-name="Scedilla" unicode="&#x15e;" horiz-adv-x="591" 
d="M208 -175l24 42c14 -14 40 -27 67 -27c29 0 50 13 50 38c0 21 -17 33 -40 33c-14 0 -29 -7 -37 -16l-33 23l41 71c-136 11 -221 100 -227 204l81 10c5 -55 57 -142 174 -142c92 0 145 51 145 108c0 56 -39 83 -131 104l-95 22c-86 20 -157 66 -157 166
c0 95 77 178 220 178c148 0 228 -83 236 -181l-81 -10c-9 67 -67 118 -155 118c-87 0 -135 -46 -135 -104c0 -54 39 -78 109 -94l93 -21c121 -27 181 -75 181 -171c0 -111 -92 -185 -223 -188l-25 -44c11 7 27 9 36 9c46 0 80 -28 80 -75c0 -52 -44 -85 -106 -85
c-39 0 -72 14 -92 32z" />
    <glyph glyph-name="Scircumflex" unicode="&#x15c;" horiz-adv-x="591" 
d="M308 -12c-152 0 -248 94 -255 205l81 10c5 -55 57 -142 174 -142c92 0 145 51 145 108c0 56 -39 83 -131 104l-95 22c-86 20 -157 66 -157 166c0 95 77 178 220 178c148 0 228 -83 236 -181l-81 -10c-9 67 -67 118 -155 118c-87 0 -135 -46 -135 -104
c0 -54 39 -78 109 -94l93 -21c121 -27 181 -75 181 -171c0 -113 -95 -188 -230 -188zM153 694l111 134h62l111 -134h-47l-95 67l-95 -67h-47z" />
    <glyph glyph-name="Scommaaccent" unicode="&#x218;" horiz-adv-x="591" 
d="M308 -12c-152 0 -248 94 -255 205l81 10c5 -55 57 -142 174 -142c92 0 145 51 145 108c0 56 -39 83 -131 104l-95 22c-86 20 -157 66 -157 166c0 95 77 178 220 178c148 0 228 -83 236 -181l-81 -10c-9 67 -67 118 -155 118c-87 0 -135 -46 -135 -104
c0 -54 39 -78 109 -94l93 -21c121 -27 181 -75 181 -171c0 -113 -95 -188 -230 -188zM360 -55v-102c0 -76 -38 -98 -96 -98v38c30 0 43 12 43 51v33h-43v78h96z" />
    <glyph glyph-name="Tbar" unicode="&#x166;" horiz-adv-x="542" 
d="M137 271v60h92v224h-199v72h482v-72h-199v-224h90v-60h-90v-271h-84v271h-92z" />
    <glyph glyph-name="Tcaron" unicode="&#x164;" horiz-adv-x="542" 
d="M313 0h-84v555h-199v72h482v-72h-199v-555zM239 694l-111 134h47l95 -67l95 67h47l-111 -134h-62z" />
    <glyph glyph-name="Tcommaaccent" unicode="&#x162;" horiz-adv-x="542" 
d="M313 0h-84v555h-199v72h482v-72h-199v-555zM319 -55v-102c0 -76 -38 -98 -96 -98v38c30 0 43 12 43 51v33h-43v78h96z" />
    <glyph glyph-name="uni021A" unicode="&#x21a;" horiz-adv-x="542" 
d="M313 0h-84v555h-199v72h482v-72h-199v-555zM319 -55v-102c0 -76 -38 -98 -96 -98v38c30 0 43 12 43 51v33h-43v78h96z" />
    <glyph glyph-name="Udieresis" unicode="&#xdc;" horiz-adv-x="656" 
d="M328 59c92 0 159 57 159 183v385h84v-391c0 -154 -82 -248 -243 -248s-243 94 -243 248v391h84v-385c0 -126 67 -183 159 -183zM286 710h-89v78h89v-78zM459 710h-89v78h89v-78z" />
    <glyph glyph-name="Uogonek" unicode="&#x172;" horiz-adv-x="656" 
d="M388 -129l38 -28c-18 -33 -53 -50 -94 -50c-51 0 -92 31 -92 82s45 91 85 113c-159 1 -240 95 -240 248v391h84v-385c0 -126 67 -183 159 -183s159 57 159 183v385h84v-391c0 -142 -58 -202 -171 -244c-69 -26 -101 -64 -101 -103c0 -28 20 -46 42 -46c23 0 40 14 47 28z
" />
    <glyph glyph-name="Uacute" unicode="&#xda;" horiz-adv-x="656" 
d="M328 59c92 0 159 57 159 183v385h84v-391c0 -154 -82 -248 -243 -248s-243 94 -243 248v391h84v-385c0 -126 67 -183 159 -183zM468 828l-140 -134h-41l69 134h112z" />
    <glyph glyph-name="Ucircumflex" unicode="&#xdb;" horiz-adv-x="656" 
d="M328 59c92 0 159 57 159 183v385h84v-391c0 -154 -82 -248 -243 -248s-243 94 -243 248v391h84v-385c0 -126 67 -183 159 -183zM186 694l111 134h62l111 -134h-47l-95 67l-95 -67h-47z" />
    <glyph glyph-name="Ugrave" unicode="&#xd9;" horiz-adv-x="656" 
d="M328 59c92 0 159 57 159 183v385h84v-391c0 -154 -82 -248 -243 -248s-243 94 -243 248v391h84v-385c0 -126 67 -183 159 -183zM328 694l-140 134h112l69 -134h-41z" />
    <glyph glyph-name="Ubreve" unicode="&#x16c;" horiz-adv-x="656" 
d="M328 59c92 0 159 57 159 183v385h84v-391c0 -154 -82 -248 -243 -248s-243 94 -243 248v391h84v-385c0 -126 67 -183 159 -183zM210 809h45c0 -43 34 -65 73 -65c41 0 75 22 75 65h45c0 -78 -49 -122 -120 -122c-69 0 -118 44 -118 122z" />
    <glyph glyph-name="Uhungarumlaut" unicode="&#x170;" horiz-adv-x="656" 
d="M328 59c92 0 159 57 159 183v385h84v-391c0 -154 -82 -248 -243 -248s-243 94 -243 248v391h84v-385c0 -126 67 -183 159 -183zM379 694l55 134h98l-115 -134h-38zM234 694l55 134h98l-115 -134h-38z" />
    <glyph glyph-name="Umacron" unicode="&#x16a;" horiz-adv-x="656" 
d="M328 59c92 0 159 57 159 183v385h84v-391c0 -154 -82 -248 -243 -248s-243 94 -243 248v391h84v-385c0 -126 67 -183 159 -183zM204 715v55h247v-55h-247z" />
    <glyph glyph-name="Uring" unicode="&#x16e;" horiz-adv-x="656" 
d="M328 59c92 0 159 57 159 183v385h84v-391c0 -154 -82 -248 -243 -248s-243 94 -243 248v391h84v-385c0 -126 67 -183 159 -183zM328 700c31 0 53 20 53 56s-22 56 -53 56c-30 0 -52 -20 -52 -56s22 -56 52 -56zM233 756c0 59 46 96 95 96c50 0 96 -37 96 -96
c0 -60 -46 -95 -96 -95c-49 0 -95 35 -95 95z" />
    <glyph glyph-name="Utilde" unicode="&#x168;" horiz-adv-x="656" 
d="M328 59c92 0 159 57 159 183v385h84v-391c0 -154 -82 -248 -243 -248s-243 94 -243 248v391h84v-385c0 -126 67 -183 159 -183zM242 694h-47c0 70 28 111 78 111c47 0 82 -53 115 -53c21 0 31 15 31 50h46c0 -71 -27 -112 -77 -112c-47 0 -83 53 -115 53
c-22 0 -31 -15 -31 -49z" />
    <glyph glyph-name="Wacute" unicode="&#x1e82;" horiz-adv-x="915" 
d="M700 0h-96l-144 533l-146 -533h-102l-182 627h88l147 -533l146 533h98l143 -533l148 533h85zM600 828l-140 -134h-41l69 134h112z" />
    <glyph glyph-name="Wcircumflex" unicode="&#x174;" horiz-adv-x="915" 
d="M700 0h-96l-144 533l-146 -533h-102l-182 627h88l147 -533l146 533h98l143 -533l148 533h85zM318 694l111 134h62l111 -134h-47l-95 67l-95 -67h-47z" />
    <glyph glyph-name="Wdieresis" unicode="&#x1e84;" horiz-adv-x="915" 
d="M700 0h-96l-144 533l-146 -533h-102l-182 627h88l147 -533l146 533h98l143 -533l148 533h85zM418 710h-89v78h89v-78zM591 710h-89v78h89v-78z" />
    <glyph glyph-name="Wgrave" unicode="&#x1e80;" horiz-adv-x="915" 
d="M700 0h-96l-144 533l-146 -533h-102l-182 627h88l147 -533l146 533h98l143 -533l148 533h85zM460 694l-140 134h112l69 -134h-41z" />
    <glyph glyph-name="uni1E8A" unicode="&#x1e8a;" horiz-adv-x="607" 
d="M302 260l-172 -260h-100l220 317l-213 310h102l164 -249l165 249h100l-214 -308l223 -319h-102zM258 721v84h86v-84h-86z" />
    <glyph glyph-name="Yacute" unicode="&#xdd;" horiz-adv-x="581" 
d="M331 0h-88v250l-228 377h99l175 -299l180 299h97l-235 -375v-252zM428 828l-140 -134h-41l69 134h112z" />
    <glyph glyph-name="Ydieresis" unicode="&#x178;" horiz-adv-x="581" 
d="M331 0h-88v250l-228 377h99l175 -299l180 299h97l-235 -375v-252zM246 710h-89v78h89v-78zM419 710h-89v78h89v-78z" />
    <glyph glyph-name="Ycircumflex" unicode="&#x176;" horiz-adv-x="581" 
d="M331 0h-88v250l-228 377h99l175 -299l180 299h97l-235 -375v-252zM146 694l111 134h62l111 -134h-47l-95 67l-95 -67h-47z" />
    <glyph glyph-name="Ygrave" unicode="&#x1ef2;" horiz-adv-x="581" 
d="M331 0h-88v250l-228 377h99l175 -299l180 299h97l-235 -375v-252zM288 694l-140 134h112l69 -134h-41z" />
    <glyph glyph-name="Zcaron" unicode="&#x17d;" horiz-adv-x="525" 
d="M480 0h-435v50l327 507h-321v70h427v-50l-324 -509h326v-68zM234 694l-111 134h47l95 -67l95 67h47l-111 -134h-62z" />
    <glyph glyph-name="Zacute" unicode="&#x179;" horiz-adv-x="525" 
d="M480 0h-435v50l327 507h-321v70h427v-50l-324 -509h326v-68zM405 828l-140 -134h-41l69 134h112z" />
    <glyph glyph-name="uni01B5" unicode="&#x1b5;" horiz-adv-x="525" 
d="M97 282v60h138l140 215h-324v70h427v-50l-152 -235h105v-60h-143l-137 -214h329v-68h-435v50l151 232h-99z" />
    <glyph glyph-name="Zdotaccent" unicode="&#x17b;" horiz-adv-x="525" 
d="M480 0h-435v50l327 507h-321v70h427v-50l-324 -509h326v-68zM222 721v84h86v-84h-86z" />
    <glyph glyph-name="ae" unicode="&#xe6;" horiz-adv-x="811" 
d="M564 -10c-86 0 -161 36 -195 132c-11 -60 -69 -132 -180 -132c-84 0 -139 42 -139 117c0 105 103 158 245 169l59 4c0 3 1 18 1 41c0 70 -41 99 -105 99c-62 0 -102 -33 -102 -94c0 -7 1 -16 2 -20l-76 -4c-2 9 -3 22 -3 32c0 87 73 152 179 152c67 0 135 -23 157 -78
c27 53 90 78 150 78c138 0 199 -102 199 -221c0 -14 -1 -28 -3 -43h-319c5 -113 49 -166 130 -166c57 0 95 38 105 97l75 -14c-7 -87 -83 -149 -180 -149zM352 228l-48 -4c-105 -10 -169 -45 -169 -108c0 -37 28 -63 71 -63c63 0 112 34 144 79zM557 421
c-59 0 -111 -39 -122 -139h238c-4 95 -42 139 -116 139z" />
    <glyph glyph-name="aeacute" unicode="&#x1fd;" horiz-adv-x="811" 
d="M564 -10c-86 0 -161 36 -195 132c-11 -60 -69 -132 -180 -132c-84 0 -139 42 -139 117c0 105 103 158 245 169l59 4c0 3 1 18 1 41c0 70 -41 99 -105 99c-62 0 -102 -33 -102 -94c0 -7 1 -16 2 -20l-76 -4c-2 9 -3 22 -3 32c0 87 73 152 179 152c67 0 135 -23 157 -78
c27 53 90 78 150 78c138 0 199 -102 199 -221c0 -14 -1 -28 -3 -43h-319c5 -113 49 -166 130 -166c57 0 95 38 105 97l75 -14c-7 -87 -83 -149 -180 -149zM352 228l-48 -4c-105 -10 -169 -45 -169 -108c0 -37 28 -63 71 -63c63 0 112 34 144 79zM557 421
c-59 0 -111 -39 -122 -139h238c-4 95 -42 139 -116 139zM520 679l-140 -134h-41l69 134h112z" />
    <glyph glyph-name="aacute" unicode="&#xe1;" horiz-adv-x="520" 
d="M438 -10c-57 0 -89 35 -84 101l2 28c-24 -89 -101 -129 -174 -129c-76 0 -132 43 -132 117c0 105 103 158 245 169l53 4c0 12 1 29 1 41c0 70 -36 99 -99 99c-62 0 -102 -33 -102 -94c0 -7 1 -14 2 -20l-74 -4c-3 10 -4 22 -4 32c0 87 72 152 178 152
c105 0 183 -50 183 -169c0 -59 -5 -165 -5 -220c0 -45 21 -48 35 -48c10 0 20 2 26 5l11 -48c-13 -8 -37 -16 -62 -16zM350 228l-46 -4c-105 -9 -169 -41 -169 -106c0 -40 26 -66 70 -66c55 0 108 33 143 85zM397 679l-140 -134h-41l69 134h112z" />
    <glyph glyph-name="aogonek" unicode="&#x105;" horiz-adv-x="520" 
d="M484 -129l38 -28c-18 -33 -53 -50 -94 -50c-51 0 -92 31 -92 82c0 53 50 98 86 116c-48 8 -72 44 -68 100l2 28c-24 -89 -101 -129 -174 -129c-76 0 -132 43 -132 117c0 105 103 158 245 169l53 4c0 12 1 29 1 41c0 70 -36 99 -99 99c-62 0 -102 -33 -102 -94
c0 -7 1 -14 2 -20l-74 -4c-3 10 -4 22 -4 32c0 87 72 152 178 152c105 0 183 -50 183 -169c0 -59 -5 -165 -5 -220c0 -45 21 -48 35 -48c10 0 20 2 26 5l11 -48c-4 -3 -13 -7 -22 -11c-55 -27 -83 -67 -83 -107c0 -28 20 -45 42 -45c23 0 40 14 47 28zM350 228l-46 -4
c-105 -9 -169 -41 -169 -106c0 -40 26 -66 70 -66c55 0 108 33 143 85z" />
    <glyph glyph-name="agrave" unicode="&#xe0;" horiz-adv-x="520" 
d="M438 -10c-57 0 -89 35 -84 101l2 28c-24 -89 -101 -129 -174 -129c-76 0 -132 43 -132 117c0 105 103 158 245 169l53 4c0 12 1 29 1 41c0 70 -36 99 -99 99c-62 0 -102 -33 -102 -94c0 -7 1 -14 2 -20l-74 -4c-3 10 -4 22 -4 32c0 87 72 152 178 152
c105 0 183 -50 183 -169c0 -59 -5 -165 -5 -220c0 -45 21 -48 35 -48c10 0 20 2 26 5l11 -48c-13 -8 -37 -16 -62 -16zM350 228l-46 -4c-105 -9 -169 -41 -169 -106c0 -40 26 -66 70 -66c55 0 108 33 143 85zM257 545l-140 134h112l69 -134h-41z" />
    <glyph glyph-name="acircumflex" unicode="&#xe2;" horiz-adv-x="520" 
d="M438 -10c-57 0 -89 35 -84 101l2 28c-24 -89 -101 -129 -174 -129c-76 0 -132 43 -132 117c0 105 103 158 245 169l53 4c0 12 1 29 1 41c0 70 -36 99 -99 99c-62 0 -102 -33 -102 -94c0 -7 1 -14 2 -20l-74 -4c-3 10 -4 22 -4 32c0 87 72 152 178 152
c105 0 183 -50 183 -169c0 -59 -5 -165 -5 -220c0 -45 21 -48 35 -48c10 0 20 2 26 5l11 -48c-13 -8 -37 -16 -62 -16zM350 228l-46 -4c-105 -9 -169 -41 -169 -106c0 -40 26 -66 70 -66c55 0 108 33 143 85zM115 545l111 134h62l111 -134h-47l-95 67l-95 -67h-47z" />
    <glyph glyph-name="adieresis" unicode="&#xe4;" horiz-adv-x="520" 
d="M438 -10c-57 0 -89 35 -84 101l2 28c-24 -89 -101 -129 -174 -129c-76 0 -132 43 -132 117c0 105 103 158 245 169l53 4c0 12 1 29 1 41c0 70 -36 99 -99 99c-62 0 -102 -33 -102 -94c0 -7 1 -14 2 -20l-74 -4c-3 10 -4 22 -4 32c0 87 72 152 178 152
c105 0 183 -50 183 -169c0 -59 -5 -165 -5 -220c0 -45 21 -48 35 -48c10 0 20 2 26 5l11 -48c-13 -8 -37 -16 -62 -16zM350 228l-46 -4c-105 -9 -169 -41 -169 -106c0 -40 26 -66 70 -66c55 0 108 33 143 85zM215 561h-89v78h89v-78zM388 561h-89v78h89v-78z" />
    <glyph glyph-name="atilde" unicode="&#xe3;" horiz-adv-x="520" 
d="M438 -10c-57 0 -89 35 -84 101l2 28c-24 -89 -101 -129 -174 -129c-76 0 -132 43 -132 117c0 105 103 158 245 169l53 4c0 12 1 29 1 41c0 70 -36 99 -99 99c-62 0 -102 -33 -102 -94c0 -7 1 -14 2 -20l-74 -4c-3 10 -4 22 -4 32c0 87 72 152 178 152
c105 0 183 -50 183 -169c0 -59 -5 -165 -5 -220c0 -45 21 -48 35 -48c10 0 20 2 26 5l11 -48c-13 -8 -37 -16 -62 -16zM350 228l-46 -4c-105 -9 -169 -41 -169 -106c0 -40 26 -66 70 -66c55 0 108 33 143 85zM171 545h-47c0 70 28 111 78 111c47 0 82 -53 115 -53
c21 0 31 15 31 50h46c0 -71 -27 -112 -77 -112c-47 0 -83 53 -115 53c-22 0 -31 -15 -31 -49z" />
    <glyph glyph-name="aring" unicode="&#xe5;" horiz-adv-x="520" 
d="M438 -10c-57 0 -89 35 -84 101l2 28c-24 -89 -101 -129 -174 -129c-76 0 -132 43 -132 117c0 105 103 158 245 169l53 4c0 12 1 29 1 41c0 70 -36 99 -99 99c-62 0 -102 -33 -102 -94c0 -7 1 -14 2 -20l-74 -4c-3 10 -4 22 -4 32c0 87 72 152 178 152
c105 0 183 -50 183 -169c0 -59 -5 -165 -5 -220c0 -45 21 -48 35 -48c10 0 20 2 26 5l11 -48c-13 -8 -37 -16 -62 -16zM350 228l-46 -4c-105 -9 -169 -41 -169 -106c0 -40 26 -66 70 -66c55 0 108 33 143 85zM257 561c31 0 53 20 53 56s-22 56 -53 56c-30 0 -52 -20 -52 -56
s22 -56 52 -56zM162 617c0 59 46 96 95 96c50 0 96 -37 96 -96c0 -60 -46 -95 -96 -95c-49 0 -95 35 -95 95z" />
    <glyph glyph-name="aringacute" unicode="&#x1fb;" horiz-adv-x="520" 
d="M438 -10c-57 0 -89 35 -84 101l2 28c-24 -89 -101 -129 -174 -129c-76 0 -132 43 -132 117c0 105 103 158 245 169l53 4c0 12 1 29 1 41c0 70 -36 99 -99 99c-62 0 -102 -33 -102 -94c0 -7 1 -14 2 -20l-74 -4c-3 10 -4 22 -4 32c0 87 72 152 178 152
c105 0 183 -50 183 -169c0 -59 -5 -165 -5 -220c0 -45 21 -48 35 -48c10 0 20 2 26 5l11 -48c-13 -8 -37 -16 -62 -16zM350 228l-46 -4c-105 -9 -169 -41 -169 -106c0 -40 26 -66 70 -66c55 0 108 33 143 85zM162 617c0 24 8 43 18 58l86 125h122l-144 -88c5 1 10 1 13 1
c50 0 96 -37 96 -96c0 -60 -46 -95 -96 -95c-49 0 -95 35 -95 95zM257 561c31 0 53 20 53 56s-22 56 -53 56c-30 0 -52 -20 -52 -56s22 -56 52 -56z" />
    <glyph glyph-name="abreve" unicode="&#x103;" horiz-adv-x="520" 
d="M438 -10c-57 0 -89 35 -84 101l2 28c-24 -89 -101 -129 -174 -129c-76 0 -132 43 -132 117c0 105 103 158 245 169l53 4c0 12 1 29 1 41c0 70 -36 99 -99 99c-62 0 -102 -33 -102 -94c0 -7 1 -14 2 -20l-74 -4c-3 10 -4 22 -4 32c0 87 72 152 178 152
c105 0 183 -50 183 -169c0 -59 -5 -165 -5 -220c0 -45 21 -48 35 -48c10 0 20 2 26 5l11 -48c-13 -8 -37 -16 -62 -16zM350 228l-46 -4c-105 -9 -169 -41 -169 -106c0 -40 26 -66 70 -66c55 0 108 33 143 85zM139 660h45c0 -43 34 -65 73 -65c41 0 75 22 75 65h45
c0 -78 -49 -122 -120 -122c-69 0 -118 44 -118 122z" />
    <glyph glyph-name="amacron" unicode="&#x101;" horiz-adv-x="520" 
d="M438 -10c-57 0 -89 35 -84 101l2 28c-24 -89 -101 -129 -174 -129c-76 0 -132 43 -132 117c0 105 103 158 245 169l53 4c0 12 1 29 1 41c0 70 -36 99 -99 99c-62 0 -102 -33 -102 -94c0 -7 1 -14 2 -20l-74 -4c-3 10 -4 22 -4 32c0 87 72 152 178 152
c105 0 183 -50 183 -169c0 -59 -5 -165 -5 -220c0 -45 21 -48 35 -48c10 0 20 2 26 5l11 -48c-13 -8 -37 -16 -62 -16zM350 228l-46 -4c-105 -9 -169 -41 -169 -106c0 -40 26 -66 70 -66c55 0 108 33 143 85zM133 566v55h247v-55h-247z" />
    <glyph glyph-name="ccedilla" unicode="&#xe7;" horiz-adv-x="513" 
d="M176 -175l24 42c14 -14 40 -27 67 -27c29 0 50 13 50 38c0 21 -17 33 -40 33c-14 0 -29 -7 -37 -16l-33 23l42 73c-106 8 -194 82 -194 247c0 174 99 248 213 248c101 0 180 -53 191 -149l-75 -14c-7 55 -50 97 -116 97c-69 0 -128 -48 -128 -182s59 -182 128 -182
c66 0 109 42 116 97l75 -14c-11 -91 -82 -143 -175 -148l-26 -47c11 7 27 9 36 9c46 0 80 -28 80 -75c0 -52 -44 -85 -106 -85c-39 0 -72 14 -92 32z" />
    <glyph glyph-name="cacute" unicode="&#x107;" horiz-adv-x="513" 
d="M55 238c0 174 99 248 213 248c101 0 180 -53 191 -149l-75 -14c-7 55 -50 97 -116 97c-69 0 -128 -48 -128 -182s59 -182 128 -182c66 0 109 42 116 97l75 -14c-11 -96 -90 -149 -191 -149c-114 0 -213 74 -213 248zM410 679l-140 -134h-41l69 134h112z" />
    <glyph glyph-name="ccaron" unicode="&#x10d;" horiz-adv-x="513" 
d="M55 238c0 174 99 248 213 248c101 0 180 -53 191 -149l-75 -14c-7 55 -50 97 -116 97c-69 0 -128 -48 -128 -182s59 -182 128 -182c66 0 109 42 116 97l75 -14c-11 -96 -90 -149 -191 -149c-114 0 -213 74 -213 248zM239 545l-111 134h47l95 -67l95 67h47l-111 -134h-62z
" />
    <glyph glyph-name="ccircumflex" unicode="&#x109;" horiz-adv-x="513" 
d="M55 238c0 174 99 248 213 248c101 0 180 -53 191 -149l-75 -14c-7 55 -50 97 -116 97c-69 0 -128 -48 -128 -182s59 -182 128 -182c66 0 109 42 116 97l75 -14c-11 -96 -90 -149 -191 -149c-114 0 -213 74 -213 248zM128 545l111 134h62l111 -134h-47l-95 67l-95 -67h-47
z" />
    <glyph glyph-name="cdotaccent" unicode="&#x10b;" horiz-adv-x="513" 
d="M55 238c0 174 99 248 213 248c101 0 180 -53 191 -149l-75 -14c-7 55 -50 97 -116 97c-69 0 -128 -48 -128 -182s59 -182 128 -182c66 0 109 42 116 97l75 -14c-11 -96 -90 -149 -191 -149c-114 0 -213 74 -213 248zM227 572v84h86v-84h-86z" />
    <glyph glyph-name="dcaron" unicode="&#x10f;" horiz-adv-x="551" 
d="M239 -10c-113 0 -184 100 -184 247c0 173 88 249 181 249c69 0 125 -27 150 -112v296h27c29 0 45 3 54 6v-676h-54l-17 115c-23 -101 -92 -125 -157 -125zM265 56c37 0 94 12 121 82v196c-23 63 -77 86 -116 86c-73 0 -130 -55 -130 -184c0 -120 54 -180 125 -180z
M523 493l25 177h81l-72 -177h-34z" />
    <glyph glyph-name="dcroat" unicode="&#x111;" horiz-adv-x="552" 
d="M273 531v50h113v89h27c29 0 44 3 54 6v-95h60v-50h-60v-531h-54l-17 115c-23 -101 -92 -125 -157 -125c-113 0 -184 100 -184 247c0 173 88 249 181 249c69 0 125 -27 150 -112v157h-113zM265 56c37 0 94 12 121 82v196c-23 63 -77 86 -116 86c-73 0 -130 -55 -130 -184
c0 -120 54 -180 125 -180z" />
    <glyph glyph-name="eogonek" unicode="&#x119;" horiz-adv-x="528" 
d="M332 -126l38 -28c-18 -33 -53 -50 -94 -50c-51 0 -92 31 -92 82c0 49 43 90 83 112c-122 2 -212 78 -212 248c0 172 95 248 214 248c143 0 204 -104 204 -221c0 -14 -1 -28 -3 -43h-330c5 -112 51 -166 132 -166c54 0 104 35 112 97l75 -14c-6 -65 -49 -112 -111 -138
c-75 -31 -105 -68 -105 -109c0 -28 20 -46 42 -46c23 0 40 14 47 28zM269 421c-61 0 -117 -40 -127 -141h248c-4 94 -52 141 -121 141z" />
    <glyph glyph-name="eacute" unicode="&#xe9;" horiz-adv-x="528" 
d="M272 -10c-125 0 -217 76 -217 248s95 248 214 248c141 0 204 -102 204 -221c0 -14 -1 -28 -3 -43h-330c5 -112 51 -166 132 -166c54 0 104 35 112 97l75 -14c-8 -87 -84 -149 -187 -149zM269 421c-61 0 -117 -40 -127 -141h248c-4 93 -52 141 -121 141zM412 679
l-140 -134h-41l69 134h112z" />
    <glyph glyph-name="egrave" unicode="&#xe8;" horiz-adv-x="528" 
d="M272 -10c-125 0 -217 76 -217 248s95 248 214 248c141 0 204 -102 204 -221c0 -14 -1 -28 -3 -43h-330c5 -112 51 -166 132 -166c54 0 104 35 112 97l75 -14c-8 -87 -84 -149 -187 -149zM269 421c-61 0 -117 -40 -127 -141h248c-4 93 -52 141 -121 141zM272 545l-140 134
h112l69 -134h-41z" />
    <glyph glyph-name="ecircumflex" unicode="&#xea;" horiz-adv-x="528" 
d="M272 -10c-125 0 -217 76 -217 248s95 248 214 248c141 0 204 -102 204 -221c0 -14 -1 -28 -3 -43h-330c5 -112 51 -166 132 -166c54 0 104 35 112 97l75 -14c-8 -87 -84 -149 -187 -149zM269 421c-61 0 -117 -40 -127 -141h248c-4 93 -52 141 -121 141zM130 545l111 134
h62l111 -134h-47l-95 67l-95 -67h-47z" />
    <glyph glyph-name="edieresis" unicode="&#xeb;" horiz-adv-x="528" 
d="M272 -10c-125 0 -217 76 -217 248s95 248 214 248c141 0 204 -102 204 -221c0 -14 -1 -28 -3 -43h-330c5 -112 51 -166 132 -166c54 0 104 35 112 97l75 -14c-8 -87 -84 -149 -187 -149zM269 421c-61 0 -117 -40 -127 -141h248c-4 93 -52 141 -121 141zM230 561h-89v78
h89v-78zM403 561h-89v78h89v-78z" />
    <glyph glyph-name="ebreve" unicode="&#x115;" horiz-adv-x="528" 
d="M272 -10c-125 0 -217 76 -217 248s95 248 214 248c141 0 204 -102 204 -221c0 -14 -1 -28 -3 -43h-330c5 -112 51 -166 132 -166c54 0 104 35 112 97l75 -14c-8 -87 -84 -149 -187 -149zM269 421c-61 0 -117 -40 -127 -141h248c-4 93 -52 141 -121 141zM154 660h45
c0 -43 34 -65 73 -65c41 0 75 22 75 65h45c0 -78 -49 -122 -120 -122c-69 0 -118 44 -118 122z" />
    <glyph glyph-name="ecaron" unicode="&#x11b;" horiz-adv-x="528" 
d="M272 -10c-125 0 -217 76 -217 248s95 248 214 248c141 0 204 -102 204 -221c0 -14 -1 -28 -3 -43h-330c5 -112 51 -166 132 -166c54 0 104 35 112 97l75 -14c-8 -87 -84 -149 -187 -149zM269 421c-61 0 -117 -40 -127 -141h248c-4 93 -52 141 -121 141zM241 545l-111 134
h47l95 -67l95 67h47l-111 -134h-62z" />
    <glyph glyph-name="edotaccent" unicode="&#x117;" horiz-adv-x="528" 
d="M272 -10c-125 0 -217 76 -217 248s95 248 214 248c141 0 204 -102 204 -221c0 -14 -1 -28 -3 -43h-330c5 -112 51 -166 132 -166c54 0 104 35 112 97l75 -14c-8 -87 -84 -149 -187 -149zM269 421c-61 0 -117 -40 -127 -141h248c-4 93 -52 141 -121 141zM229 572v84h86
v-84h-86z" />
    <glyph glyph-name="emacron" unicode="&#x113;" horiz-adv-x="528" 
d="M272 -10c-125 0 -217 76 -217 248s95 248 214 248c141 0 204 -102 204 -221c0 -14 -1 -28 -3 -43h-330c5 -112 51 -166 132 -166c54 0 104 35 112 97l75 -14c-8 -87 -84 -149 -187 -149zM269 421c-61 0 -117 -40 -127 -141h248c-4 93 -52 141 -121 141zM148 566v55h247
v-55h-247z" />
    <glyph glyph-name="gbreve" unicode="&#x11f;" horiz-adv-x="531" 
d="M265 -183c-134 0 -237 32 -237 116c0 48 45 87 135 94c-66 13 -101 45 -101 86c0 39 31 72 79 85c-44 25 -77 67 -77 131c0 98 90 157 190 157c35 0 71 -7 102 -21c8 58 43 89 107 89c15 0 31 -2 41 -4l-6 -74c-11 2 -25 3 -36 3c-33 0 -67 -4 -85 -24
c41 -25 70 -65 70 -126c0 -111 -93 -160 -191 -160c-30 0 -62 5 -91 17c-20 -12 -31 -32 -31 -47c0 -39 48 -49 112 -49h70c122 0 185 -53 185 -133c0 -99 -111 -140 -236 -140zM263 -135c97 0 154 26 154 82c0 44 -44 71 -132 71h-47c-76 0 -130 -27 -130 -78
c0 -47 53 -75 155 -75zM256 225c60 0 107 37 107 105c0 64 -47 99 -107 99c-58 0 -107 -35 -107 -99c0 -69 49 -105 107 -105zM151 658h45c0 -43 34 -65 73 -65c41 0 75 22 75 65h45c0 -78 -49 -122 -120 -122c-69 0 -118 44 -118 122z" />
    <glyph glyph-name="gcircumflex" unicode="&#x11d;" horiz-adv-x="531" 
d="M265 -183c-134 0 -237 32 -237 116c0 48 45 87 135 94c-66 13 -101 45 -101 86c0 39 31 72 79 85c-44 25 -77 67 -77 131c0 98 90 157 190 157c35 0 71 -7 102 -21c8 58 43 89 107 89c15 0 31 -2 41 -4l-6 -74c-11 2 -25 3 -36 3c-33 0 -67 -4 -85 -24
c41 -25 70 -65 70 -126c0 -111 -93 -160 -191 -160c-30 0 -62 5 -91 17c-20 -12 -31 -32 -31 -47c0 -39 48 -49 112 -49h70c122 0 185 -53 185 -133c0 -99 -111 -140 -236 -140zM263 -135c97 0 154 26 154 82c0 44 -44 71 -132 71h-47c-76 0 -130 -27 -130 -78
c0 -47 53 -75 155 -75zM256 225c60 0 107 37 107 105c0 64 -47 99 -107 99c-58 0 -107 -35 -107 -99c0 -69 49 -105 107 -105zM149 553l81 124h62l81 -124h-47l-65 57l-65 -57h-47z" />
    <glyph glyph-name="gcommaaccent" unicode="&#x123;" horiz-adv-x="531" 
d="M265 -183c-134 0 -237 32 -237 116c0 48 45 87 135 94c-66 13 -101 45 -101 86c0 39 31 72 79 85c-44 25 -77 67 -77 131c0 98 90 157 190 157c35 0 71 -7 102 -21c8 58 43 89 107 89c15 0 31 -2 41 -4l-6 -74c-11 2 -25 3 -36 3c-33 0 -67 -4 -85 -24
c41 -25 70 -65 70 -126c0 -111 -93 -160 -191 -160c-30 0 -62 5 -91 17c-20 -12 -31 -32 -31 -47c0 -39 48 -49 112 -49h70c122 0 185 -53 185 -133c0 -99 -111 -140 -236 -140zM263 -135c97 0 154 26 154 82c0 44 -44 71 -132 71h-47c-76 0 -130 -27 -130 -78
c0 -47 53 -75 155 -75zM256 225c60 0 107 37 107 105c0 64 -47 99 -107 99c-58 0 -107 -35 -107 -99c0 -69 49 -105 107 -105zM214 544v82c0 76 38 98 96 98v-38c-30 0 -43 -12 -43 -51v-13h43v-78h-96z" />
    <glyph glyph-name="gdotaccent" unicode="&#x121;" horiz-adv-x="531" 
d="M265 -183c-134 0 -237 32 -237 116c0 48 45 87 135 94c-66 13 -101 45 -101 86c0 39 31 72 79 85c-44 25 -77 67 -77 131c0 98 90 157 190 157c35 0 71 -7 102 -21c8 58 43 89 107 89c15 0 31 -2 41 -4l-6 -74c-11 2 -25 3 -36 3c-33 0 -67 -4 -85 -24
c41 -25 70 -65 70 -126c0 -111 -93 -160 -191 -160c-30 0 -62 5 -91 17c-20 -12 -31 -32 -31 -47c0 -39 48 -49 112 -49h70c122 0 185 -53 185 -133c0 -99 -111 -140 -236 -140zM263 -135c97 0 154 26 154 82c0 44 -44 71 -132 71h-47c-76 0 -130 -27 -130 -78
c0 -47 53 -75 155 -75zM256 225c60 0 107 37 107 105c0 64 -47 99 -107 99c-58 0 -107 -35 -107 -99c0 -69 49 -105 107 -105zM218 560v84h86v-84h-86z" />
    <glyph glyph-name="hbar" unicode="&#x127;" horiz-adv-x="538" 
d="M25 531v50h60v89h34c18 0 37 3 47 6v-95h113v-50h-113v-156c17 65 62 111 144 111c86 0 153 -59 153 -175v-311h-81v306c0 80 -40 114 -99 114c-48 0 -95 -34 -117 -96v-324h-81v531h-60z" />
    <glyph glyph-name="hcircumflex" unicode="&#x125;" horiz-adv-x="538" 
d="M166 0h-81v670h32c22 0 39 3 49 6v-301c17 65 62 111 144 111c86 0 153 -59 153 -175v-311h-81v306c0 80 -40 114 -99 114c-48 0 -95 -34 -117 -96v-324zM-17 696l111 134h62l111 -134h-47l-95 67l-95 -67h-47z" />
    <glyph glyph-name="i.trk" horiz-adv-x="251" 
d="M166 0h-81v476h81v-476zM170 582h-89v88h89v-88z" />
    <glyph glyph-name="iacute" unicode="&#xed;" horiz-adv-x="251" 
d="M166 0h-81v476h81v-476zM265 677l-140 -134h-41l69 134h112z" />
    <glyph glyph-name="igrave" unicode="&#xec;" horiz-adv-x="251" 
d="M166 0h-81v476h81v-476zM125 543l-140 134h112l69 -134h-41z" />
    <glyph glyph-name="icircumflex" unicode="&#xee;" horiz-adv-x="251" 
d="M166 0h-81v476h81v-476zM-17 543l111 134h62l111 -134h-47l-95 67l-95 -67h-47z" />
    <glyph glyph-name="idieresis" unicode="&#xef;" horiz-adv-x="251" 
d="M166 0h-81v476h81v-476zM83 559h-89v78h89v-78zM256 559h-89v78h89v-78z" />
    <glyph glyph-name="ibreve" unicode="&#x12d;" horiz-adv-x="251" 
d="M166 0h-81v476h81v-476zM7 658h45c0 -43 34 -65 73 -65c41 0 75 22 75 65h45c0 -78 -49 -122 -120 -122c-69 0 -118 44 -118 122z" />
    <glyph glyph-name="imacron" unicode="&#x12b;" horiz-adv-x="251" 
d="M166 0h-81v476h81v-476zM1 564v55h247v-55h-247z" />
    <glyph glyph-name="iogonek" unicode="&#x12f;" horiz-adv-x="251" 
d="M167 -128l37 -29c-18 -33 -53 -50 -94 -50c-51 0 -92 31 -92 82c0 63 58 105 94 125h-27v476h81v-476c-58 -32 -89 -70 -89 -111c0 -28 21 -46 43 -46c20 0 39 15 47 29zM170 582h-89v88h89v-88z" />
    <glyph glyph-name="itilde" unicode="&#x129;" horiz-adv-x="251" 
d="M166 0h-81v476h81v-476zM39 543h-47c0 70 28 111 78 111c47 0 82 -53 115 -53c21 0 31 15 31 50h46c0 -71 -27 -112 -77 -112c-47 0 -83 53 -115 53c-22 0 -31 -15 -31 -49z" />
    <glyph glyph-name="dotlessi" unicode="&#x131;" horiz-adv-x="251" 
d="M166 0h-81v476h81v-476z" />
    <glyph glyph-name="dotlessj" unicode="&#x237;" horiz-adv-x="251" 
d="M48 -183c-28 0 -50 6 -68 14l14 55c13 -4 24 -7 40 -7c28 0 51 13 51 66v531h81v-528c0 -86 -42 -131 -118 -131z" />
    <glyph glyph-name="jacute" horiz-adv-x="251" 
d="M48 -183c-28 0 -50 6 -68 14l14 55c13 -4 24 -7 40 -7c28 0 51 13 51 66v531h81v-528c0 -86 -42 -131 -118 -131zM266 677l-140 -134h-41l69 134h112z" />
    <glyph glyph-name="jcircumflex" unicode="&#x135;" horiz-adv-x="251" 
d="M48 -183c-28 0 -50 6 -68 14l14 55c13 -4 24 -7 40 -7c28 0 51 13 51 66v531h81v-528c0 -86 -42 -131 -118 -131zM-16 543l111 134h62l111 -134h-47l-95 67l-95 -67h-47z" />
    <glyph glyph-name="kgreenlandic" unicode="&#x138;" horiz-adv-x="503" 
d="M166 0h-81v476h81v-226l208 226h95l-184 -200l188 -276h-99l-149 223l-59 -63v-160z" />
    <glyph glyph-name="kcommaaccent" unicode="&#x137;" horiz-adv-x="503" 
d="M166 0h-81v670h30c25 0 41 3 51 6v-426l208 226h95l-184 -200l188 -276h-99l-149 223l-59 -63v-160zM307 -55v-102c0 -76 -38 -98 -96 -98v38c30 0 43 12 43 51v33h-43v78h96z" />
    <glyph glyph-name="lslash" unicode="&#x142;" horiz-adv-x="299" 
d="M35 195v66l74 50v359h34c18 0 38 3 47 6v-311l74 51v-66l-74 -51v-299h-81v245z" />
    <glyph glyph-name="lacute" unicode="&#x13a;" horiz-adv-x="251" 
d="M166 0h-81v670h31c23 0 40 3 50 6v-676zM265 861l-140 -134h-41l69 134h112z" />
    <glyph glyph-name="lcaron" unicode="&#x13e;" horiz-adv-x="251" 
d="M166 0h-81v670h31c23 0 40 3 50 6v-676zM223 493l25 177h81l-72 -177h-34z" />
    <glyph glyph-name="lcommaaccent" unicode="&#x13c;" horiz-adv-x="251" 
d="M166 0h-81v670h31c23 0 40 3 50 6v-676zM173 -55v-102c0 -76 -38 -98 -96 -98v38c30 0 43 12 43 51v33h-43v78h96z" />
    <glyph glyph-name="ldot" unicode="&#x140;" horiz-adv-x="354" 
d="M166 0h-81v670h31c23 0 40 3 50 6v-676zM354 212h-103v105h103v-105z" />
    <glyph glyph-name="ntilde" unicode="&#xf1;" horiz-adv-x="538" 
d="M463 0h-81v301c0 87 -41 119 -98 119c-43 0 -93 -18 -118 -82v-338h-81v476h54l17 -115c21 90 81 125 153 125c79 0 154 -50 154 -176v-310zM193 545h-47c0 70 28 111 78 111c47 0 82 -53 115 -53c21 0 31 15 31 50h46c0 -71 -27 -112 -77 -112c-47 0 -83 53 -115 53
c-22 0 -31 -15 -31 -49z" />
    <glyph glyph-name="nacute" unicode="&#x144;" horiz-adv-x="538" 
d="M463 0h-81v301c0 87 -41 119 -98 119c-43 0 -93 -18 -118 -82v-338h-81v476h54l17 -115c21 90 81 125 153 125c79 0 154 -50 154 -176v-310zM419 679l-140 -134h-41l69 134h112z" />
    <glyph glyph-name="napostrophe" unicode="&#x149;" horiz-adv-x="733" 
d="M658 0h-81v301c0 87 -41 119 -98 119c-43 0 -93 -18 -118 -82v-338h-81v476h54l17 -115c21 90 81 125 153 125c79 0 154 -50 154 -176v-310zM179 569c0 -93 -27 -140 -109 -140v38c37 0 60 28 60 72v26h-50v105h99v-101z" />
    <glyph glyph-name="ncaron" unicode="&#x148;" horiz-adv-x="538" 
d="M463 0h-81v301c0 87 -41 119 -98 119c-43 0 -93 -18 -118 -82v-338h-81v476h54l17 -115c21 90 81 125 153 125c79 0 154 -50 154 -176v-310zM248 545l-111 134h47l95 -67l95 67h47l-111 -134h-62z" />
    <glyph glyph-name="ncommaaccent" unicode="&#x146;" horiz-adv-x="538" 
d="M463 0h-81v301c0 87 -41 119 -98 119c-43 0 -93 -18 -118 -82v-338h-81v476h54l17 -115c21 90 81 125 153 125c79 0 154 -50 154 -176v-310zM332 -55v-102c0 -76 -38 -98 -96 -98v38c30 0 43 12 43 51v33h-43v78h96z" />
    <glyph glyph-name="eng" unicode="&#x14b;" horiz-adv-x="538" 
d="M345 -183c-28 0 -50 6 -68 14l14 55c13 -4 24 -7 40 -7c28 0 51 13 51 66v356c0 87 -41 119 -98 119c-43 0 -93 -18 -118 -82v-338h-81v476h54l17 -115c21 90 81 125 153 125c79 0 154 -50 154 -176v-362c0 -86 -42 -131 -118 -131z" />
    <glyph glyph-name="eth" unicode="&#xf0;" horiz-adv-x="542" 
d="M248 489l-24 38l81 53c-29 21 -68 32 -110 32c-31 0 -56 -5 -74 -10l-11 52c22 7 55 12 93 12c49 0 112 -17 156 -49l78 54l24 -37l-67 -48c55 -60 93 -166 93 -315c0 -183 -81 -281 -220 -281c-114 0 -212 74 -212 227c0 148 94 221 199 221c61 0 117 -30 143 -85
c-1 96 -27 156 -59 196zM402 272c0 16 -1 34 -2 48c-25 32 -64 53 -127 53c-77 0 -133 -51 -133 -155c0 -106 55 -162 127 -162c88 0 135 75 135 216z" />
    <glyph glyph-name="oe" unicode="&#x153;" horiz-adv-x="871" 
d="M615 -10c-77 0 -141 33 -175 106c-35 -73 -98 -106 -171 -106c-120 0 -214 76 -214 248s94 248 214 248c73 0 137 -34 171 -107c35 73 99 107 172 107c143 0 204 -102 204 -221c0 -14 -1 -28 -3 -43h-330c5 -112 51 -166 132 -166c54 0 104 35 112 97l75 -14
c-8 -87 -84 -149 -187 -149zM140 238c0 -127 55 -182 128 -182c75 0 130 55 130 182s-55 182 -130 182c-73 0 -128 -55 -128 -182zM612 421c-61 0 -117 -40 -127 -141h248c-4 98 -52 141 -121 141z" />
    <glyph glyph-name="oacute" unicode="&#xf3;" horiz-adv-x="538" 
d="M269 -10c-120 0 -214 76 -214 248s94 248 214 248s214 -76 214 -248s-94 -248 -214 -248zM268 56c75 0 130 55 130 182s-55 182 -130 182c-73 0 -128 -55 -128 -182s55 -182 128 -182zM409 679l-140 -134h-41l69 134h112z" />
    <glyph glyph-name="ograve" unicode="&#xf2;" horiz-adv-x="538" 
d="M269 -10c-120 0 -214 76 -214 248s94 248 214 248s214 -76 214 -248s-94 -248 -214 -248zM268 56c75 0 130 55 130 182s-55 182 -130 182c-73 0 -128 -55 -128 -182s55 -182 128 -182zM269 545l-140 134h112l69 -134h-41z" />
    <glyph glyph-name="ocircumflex" unicode="&#xf4;" horiz-adv-x="538" 
d="M269 -10c-120 0 -214 76 -214 248s94 248 214 248s214 -76 214 -248s-94 -248 -214 -248zM268 56c75 0 130 55 130 182s-55 182 -130 182c-73 0 -128 -55 -128 -182s55 -182 128 -182zM127 545l111 134h62l111 -134h-47l-95 67l-95 -67h-47z" />
    <glyph glyph-name="odieresis" unicode="&#xf6;" horiz-adv-x="538" 
d="M269 -10c-120 0 -214 76 -214 248s94 248 214 248s214 -76 214 -248s-94 -248 -214 -248zM268 56c75 0 130 55 130 182s-55 182 -130 182c-73 0 -128 -55 -128 -182s55 -182 128 -182zM227 561h-89v78h89v-78zM400 561h-89v78h89v-78z" />
    <glyph glyph-name="otilde" unicode="&#xf5;" horiz-adv-x="538" 
d="M269 -10c-120 0 -214 76 -214 248s94 248 214 248s214 -76 214 -248s-94 -248 -214 -248zM268 56c75 0 130 55 130 182s-55 182 -130 182c-73 0 -128 -55 -128 -182s55 -182 128 -182zM183 545h-47c0 70 28 111 78 111c47 0 82 -53 115 -53c21 0 31 15 31 50h46
c0 -71 -27 -112 -77 -112c-47 0 -83 53 -115 53c-22 0 -31 -15 -31 -49z" />
    <glyph glyph-name="obreve" unicode="&#x14f;" horiz-adv-x="538" 
d="M269 -10c-120 0 -214 76 -214 248s94 248 214 248s214 -76 214 -248s-94 -248 -214 -248zM268 56c75 0 130 55 130 182s-55 182 -130 182c-73 0 -128 -55 -128 -182s55 -182 128 -182zM151 660h45c0 -43 34 -65 73 -65c41 0 75 22 75 65h45c0 -78 -49 -122 -120 -122
c-69 0 -118 44 -118 122z" />
    <glyph glyph-name="ohungarumlaut" unicode="&#x151;" horiz-adv-x="538" 
d="M269 -10c-120 0 -214 76 -214 248s94 248 214 248s214 -76 214 -248s-94 -248 -214 -248zM268 56c75 0 130 55 130 182s-55 182 -130 182c-73 0 -128 -55 -128 -182s55 -182 128 -182zM320 545l55 134h98l-115 -134h-38zM175 545l55 134h98l-115 -134h-38z" />
    <glyph glyph-name="omacron" unicode="&#x14d;" horiz-adv-x="538" 
d="M269 -10c-120 0 -214 76 -214 248s94 248 214 248s214 -76 214 -248s-94 -248 -214 -248zM268 56c75 0 130 55 130 182s-55 182 -130 182c-73 0 -128 -55 -128 -182s55 -182 128 -182zM145 566v55h247v-55h-247z" />
    <glyph glyph-name="oslash" unicode="&#xf8;" horiz-adv-x="538" 
d="M484 238c0 -172 -94 -248 -214 -248c-41 0 -79 9 -112 27l-44 -67h-66l67 102c-37 41 -59 102 -59 186c0 172 94 248 214 248c40 0 78 -9 110 -27l45 68h66l-68 -103c38 -40 61 -102 61 -186zM402 238c0 51 -9 90 -24 119l-183 -280c21 -17 46 -24 74 -24
c76 0 133 55 133 185zM138 238c0 -50 8 -89 23 -118l182 279c-21 16 -46 24 -74 24c-74 0 -131 -55 -131 -185z" />
    <glyph glyph-name="oslashacute" unicode="&#x1ff;" horiz-adv-x="538" 
d="M410 679l-140 -134h-41l69 134h112zM484 238c0 -172 -94 -248 -214 -248c-41 0 -79 9 -112 27l-44 -67h-66l67 102c-37 41 -59 102 -59 186c0 172 94 248 214 248c40 0 78 -9 110 -27l45 68h66l-68 -103c38 -40 61 -102 61 -186zM402 238c0 51 -9 90 -24 119l-183 -280
c21 -17 46 -24 74 -24c76 0 133 55 133 185zM138 238c0 -50 8 -89 23 -118l182 279c-21 16 -46 24 -74 24c-74 0 -131 -55 -131 -185z" />
    <glyph glyph-name="thorn" unicode="&#xfe;" horiz-adv-x="552" 
d="M313 -10c-65 0 -124 29 -147 112v-275h-81v843h27c33 0 47 4 54 6v-302c25 85 81 112 150 112c98 0 181 -81 181 -249c0 -153 -73 -247 -184 -247zM284 56c80 0 128 70 128 180c0 124 -52 184 -130 184c-39 0 -92 -18 -116 -86v-193c27 -67 81 -85 118 -85z" />
    <glyph glyph-name="racute" unicode="&#x155;" horiz-adv-x="348" 
d="M166 0h-81v476h54l16 -131c13 108 71 141 127 141c20 0 32 -2 49 -5l-5 -74c-10 2 -23 3 -39 3c-35 0 -95 -16 -121 -87v-323zM333 679l-140 -134h-41l69 134h112z" />
    <glyph glyph-name="rcaron" unicode="&#x159;" horiz-adv-x="348" 
d="M166 0h-81v476h54l16 -131c13 108 71 141 127 141c20 0 32 -2 49 -5l-5 -74c-10 2 -23 3 -39 3c-35 0 -95 -16 -121 -87v-323zM172 545l-111 134h47l95 -67l95 67h47l-111 -134h-62z" />
    <glyph glyph-name="rcommaaccent" unicode="&#x157;" horiz-adv-x="348" 
d="M166 0h-81v476h54l16 -131c13 108 71 141 127 141c20 0 32 -2 49 -5l-5 -74c-10 2 -23 3 -39 3c-35 0 -95 -16 -121 -87v-323zM175 -55v-102c0 -76 -38 -98 -96 -98v38c30 0 43 12 43 51v33h-43v78h96z" />
    <glyph glyph-name="scaron" unicode="&#x161;" horiz-adv-x="478" 
d="M249 -10c-120 0 -192 61 -201 149l75 14c10 -70 66 -100 126 -100c64 0 101 28 101 74c0 35 -23 57 -88 73l-56 14c-92 23 -139 67 -139 135c0 79 65 137 172 137c113 0 174 -65 179 -134l-74 -13c-4 42 -38 83 -105 83c-57 0 -92 -28 -92 -66c0 -37 30 -58 86 -72
l61 -15c94 -23 136 -65 136 -138c0 -79 -70 -141 -181 -141zM213 545l-111 134h47l95 -67l95 67h47l-111 -134h-62z" />
    <glyph glyph-name="sacute" unicode="&#x15b;" horiz-adv-x="478" 
d="M249 -10c-120 0 -192 61 -201 149l75 14c10 -70 66 -100 126 -100c64 0 101 28 101 74c0 35 -23 57 -88 73l-56 14c-92 23 -139 67 -139 135c0 79 65 137 172 137c113 0 174 -65 179 -134l-74 -13c-4 42 -38 83 -105 83c-57 0 -92 -28 -92 -66c0 -37 30 -58 86 -72
l61 -15c94 -23 136 -65 136 -138c0 -79 -70 -141 -181 -141zM384 679l-140 -134h-41l69 134h112z" />
    <glyph glyph-name="scedilla" unicode="&#x15f;" horiz-adv-x="478" 
d="M146 -175l24 42c14 -14 40 -27 67 -27c29 0 50 13 50 38c0 21 -17 33 -40 33c-14 0 -29 -7 -37 -16l-33 23l42 74c-102 9 -163 66 -171 147l75 14c10 -70 66 -100 126 -100c64 0 101 28 101 74c0 35 -23 57 -88 73l-56 14c-92 23 -139 67 -139 135c0 79 65 137 172 137
c113 0 174 -65 179 -134l-74 -13c-4 42 -38 83 -105 83c-57 0 -92 -28 -92 -66c0 -37 30 -58 86 -72l61 -15c94 -23 136 -65 136 -138c0 -78 -68 -139 -176 -141l-26 -46c11 7 27 9 36 9c46 0 80 -28 80 -75c0 -52 -44 -85 -106 -85c-39 0 -72 14 -92 32z" />
    <glyph glyph-name="scircumflex" unicode="&#x15d;" horiz-adv-x="478" 
d="M249 -10c-120 0 -192 61 -201 149l75 14c10 -70 66 -100 126 -100c64 0 101 28 101 74c0 35 -23 57 -88 73l-56 14c-92 23 -139 67 -139 135c0 79 65 137 172 137c113 0 174 -65 179 -134l-74 -13c-4 42 -38 83 -105 83c-57 0 -92 -28 -92 -66c0 -37 30 -58 86 -72
l61 -15c94 -23 136 -65 136 -138c0 -79 -70 -141 -181 -141zM102 545l111 134h62l111 -134h-47l-95 67l-95 -67h-47z" />
    <glyph glyph-name="scommaaccent" unicode="&#x219;" horiz-adv-x="478" 
d="M249 -10c-120 0 -192 61 -201 149l75 14c10 -70 66 -100 126 -100c64 0 101 28 101 74c0 35 -23 57 -88 73l-56 14c-92 23 -139 67 -139 135c0 79 65 137 172 137c113 0 174 -65 179 -134l-74 -13c-4 42 -38 83 -105 83c-57 0 -92 -28 -92 -66c0 -37 30 -58 86 -72
l61 -15c94 -23 136 -65 136 -138c0 -79 -70 -141 -181 -141zM301 -55v-102c0 -76 -38 -98 -96 -98v38c30 0 43 12 43 51v33h-43v78h96z" />
    <glyph glyph-name="germandbls" unicode="&#xdf;" 
d="M30 415v61h81v18c0 130 75 186 192 186s175 -59 175 -134c0 -42 -16 -74 -62 -118c-24 -23 -35 -34 -35 -49c0 -21 34 -40 70 -63c67 -43 114 -91 114 -174c0 -74 -52 -152 -159 -152c-86 0 -154 43 -164 120l75 15c7 -48 44 -70 86 -70c48 0 79 32 79 88
c0 47 -30 83 -80 113c-56 34 -103 55 -103 95c0 32 25 51 59 88c33 36 42 68 42 96c0 49 -33 84 -96 84c-72 0 -112 -44 -112 -121v-671h-81v588h-81z" />
    <glyph glyph-name="tbar" unicode="&#x167;" horiz-adv-x="342" 
d="M43 242v54h69v119h-77v61h44c25 0 40 14 40 38v36l74 116v-190h99v-61h-99v-119h88v-54h-88v-112c0 -60 16 -75 49 -75c18 0 34 4 49 10l16 -53c-18 -12 -52 -22 -83 -22c-83 0 -112 49 -112 128v124h-69z" />
    <glyph glyph-name="tcaron" unicode="&#x165;" horiz-adv-x="342" 
d="M224 -10c-83 0 -112 49 -112 128v297h-77v61h44c25 0 40 14 40 38v36l74 116v-190h99v-61h-99v-285c0 -60 16 -75 49 -75c18 0 34 4 49 10l16 -53c-18 -12 -52 -22 -83 -22zM245 540l25 177h81l-72 -177h-34z" />
    <glyph glyph-name="tcommaaccent" unicode="&#x163;" horiz-adv-x="342" 
d="M224 -10c-83 0 -112 49 -112 128v297h-77v61h44c25 0 40 14 40 38v36l74 116v-190h99v-61h-99v-285c0 -60 16 -75 49 -75c18 0 34 4 49 10l16 -53c-18 -12 -52 -22 -83 -22zM252 -55v-102c0 -76 -38 -98 -96 -98v38c30 0 43 12 43 51v33h-43v78h96z" />
    <glyph glyph-name="uni021B" unicode="&#x21b;" horiz-adv-x="342" 
d="M224 -10c-83 0 -112 49 -112 128v297h-77v61h44c25 0 40 14 40 38v36l74 116v-190h99v-61h-99v-285c0 -60 16 -75 49 -75c18 0 34 4 49 10l16 -53c-18 -12 -52 -22 -83 -22zM252 -55v-102c0 -76 -38 -98 -96 -98v38c30 0 43 12 43 51v33h-43v78h96z" />
    <glyph glyph-name="uogonek" unicode="&#x173;" horiz-adv-x="531" 
d="M447 -129l38 -28c-18 -33 -53 -50 -94 -50c-51 0 -92 31 -92 82c0 62 58 105 94 125l-17 115c-19 -88 -80 -125 -150 -125c-80 0 -151 48 -151 169v317h81v-304c0 -92 41 -116 95 -116c43 0 92 25 114 81v339h81v-476c-57 -31 -88 -65 -88 -106c0 -28 17 -51 44 -51
c23 0 38 14 45 28z" />
    <glyph glyph-name="uacute" unicode="&#xfa;" horiz-adv-x="531" 
d="M226 -10c-80 0 -151 48 -151 169v317h81v-304c0 -92 41 -116 95 -116c43 0 92 25 114 81v339h81v-476h-53l-17 115c-19 -88 -80 -125 -150 -125zM401 679l-140 -134h-41l69 134h112z" />
    <glyph glyph-name="ugrave" unicode="&#xf9;" horiz-adv-x="531" 
d="M226 -10c-80 0 -151 48 -151 169v317h81v-304c0 -92 41 -116 95 -116c43 0 92 25 114 81v339h81v-476h-53l-17 115c-19 -88 -80 -125 -150 -125zM261 545l-140 134h112l69 -134h-41z" />
    <glyph glyph-name="ucircumflex" unicode="&#xfb;" horiz-adv-x="531" 
d="M226 -10c-80 0 -151 48 -151 169v317h81v-304c0 -92 41 -116 95 -116c43 0 92 25 114 81v339h81v-476h-53l-17 115c-19 -88 -80 -125 -150 -125zM119 545l111 134h62l111 -134h-47l-95 67l-95 -67h-47z" />
    <glyph glyph-name="udieresis" unicode="&#xfc;" horiz-adv-x="531" 
d="M226 -10c-80 0 -151 48 -151 169v317h81v-304c0 -92 41 -116 95 -116c43 0 92 25 114 81v339h81v-476h-53l-17 115c-19 -88 -80 -125 -150 -125zM219 561h-89v78h89v-78zM392 561h-89v78h89v-78z" />
    <glyph glyph-name="ubreve" unicode="&#x16d;" horiz-adv-x="531" 
d="M226 -10c-80 0 -151 48 -151 169v317h81v-304c0 -92 41 -116 95 -116c43 0 92 25 114 81v339h81v-476h-53l-17 115c-19 -88 -80 -125 -150 -125zM143 660h45c0 -43 34 -65 73 -65c41 0 75 22 75 65h45c0 -78 -49 -122 -120 -122c-69 0 -118 44 -118 122z" />
    <glyph glyph-name="uhungarumlaut" unicode="&#x171;" horiz-adv-x="531" 
d="M226 -10c-80 0 -151 48 -151 169v317h81v-304c0 -92 41 -116 95 -116c43 0 92 25 114 81v339h81v-476h-53l-17 115c-19 -88 -80 -125 -150 -125zM312 545l55 134h98l-115 -134h-38zM167 545l55 134h98l-115 -134h-38z" />
    <glyph glyph-name="umacron" unicode="&#x16b;" horiz-adv-x="531" 
d="M226 -10c-80 0 -151 48 -151 169v317h81v-304c0 -92 41 -116 95 -116c43 0 92 25 114 81v339h81v-476h-53l-17 115c-19 -88 -80 -125 -150 -125zM137 566v55h247v-55h-247z" />
    <glyph glyph-name="uring" unicode="&#x16f;" horiz-adv-x="531" 
d="M226 -10c-80 0 -151 48 -151 169v317h81v-304c0 -92 41 -116 95 -116c43 0 92 25 114 81v339h81v-476h-53l-17 115c-19 -88 -80 -125 -150 -125zM261 561c31 0 53 20 53 56s-22 56 -53 56c-30 0 -52 -20 -52 -56s22 -56 52 -56zM166 617c0 59 46 96 95 96
c50 0 96 -37 96 -96c0 -60 -46 -95 -96 -95c-49 0 -95 35 -95 95z" />
    <glyph glyph-name="utilde" unicode="&#x169;" horiz-adv-x="531" 
d="M226 -10c-80 0 -151 48 -151 169v317h81v-304c0 -92 41 -116 95 -116c43 0 92 25 114 81v339h81v-476h-53l-17 115c-19 -88 -80 -125 -150 -125zM175 545h-47c0 70 28 111 78 111c47 0 82 -53 115 -53c21 0 31 15 31 50h46c0 -71 -27 -112 -77 -112c-47 0 -83 53 -115 53
c-22 0 -31 -15 -31 -49z" />
    <glyph glyph-name="wacute" unicode="&#x1e83;" horiz-adv-x="756" 
d="M335 476h87l107 -415l111 415h81l-140 -476h-101l-102 390l-101 -390h-101l-141 476h83l110 -415zM518 679l-140 -134h-41l69 134h112z" />
    <glyph glyph-name="wcircumflex" unicode="&#x175;" horiz-adv-x="756" 
d="M335 476h87l107 -415l111 415h81l-140 -476h-101l-102 390l-101 -390h-101l-141 476h83l110 -415zM236 545l111 134h62l111 -134h-47l-95 67l-95 -67h-47z" />
    <glyph glyph-name="wdieresis" unicode="&#x1e85;" horiz-adv-x="756" 
d="M335 476h87l107 -415l111 415h81l-140 -476h-101l-102 390l-101 -390h-101l-141 476h83l110 -415zM336 561h-89v78h89v-78zM509 561h-89v78h89v-78z" />
    <glyph glyph-name="wgrave" unicode="&#x1e81;" horiz-adv-x="756" 
d="M335 476h87l107 -415l111 415h81l-140 -476h-101l-102 390l-101 -390h-101l-141 476h83l110 -415zM378 545l-140 134h112l69 -134h-41z" />
    <glyph glyph-name="uni1E8B" unicode="&#x1e8b;" horiz-adv-x="476" 
d="M446 0h-90l-119 184l-119 -184h-88l162 239l-162 237h90l120 -184l118 184h88l-158 -239zM195 572v84h86v-84h-86z" />
    <glyph glyph-name="yacute" unicode="&#xfd;" horiz-adv-x="490" 
d="M48 -166l16 54c15 -5 29 -8 46 -8c35 0 58 17 73 58l23 62l-176 476h83l135 -382l131 382h81l-206 -555c-28 -75 -62 -104 -127 -104c-29 0 -59 6 -79 17zM384 679l-140 -134h-41l69 134h112z" />
    <glyph glyph-name="ydieresis" unicode="&#xff;" horiz-adv-x="490" 
d="M48 -166l16 54c15 -5 29 -8 46 -8c35 0 58 17 73 58l23 62l-176 476h83l135 -382l131 382h81l-206 -555c-28 -75 -62 -104 -127 -104c-29 0 -59 6 -79 17zM202 561h-89v78h89v-78zM375 561h-89v78h89v-78z" />
    <glyph glyph-name="ycircumflex" unicode="&#x177;" horiz-adv-x="490" 
d="M48 -166l16 54c15 -5 29 -8 46 -8c35 0 58 17 73 58l23 62l-176 476h83l135 -382l131 382h81l-206 -555c-28 -75 -62 -104 -127 -104c-29 0 -59 6 -79 17zM102 545l111 134h62l111 -134h-47l-95 67l-95 -67h-47z" />
    <glyph glyph-name="ygrave" unicode="&#x1ef3;" horiz-adv-x="490" 
d="M48 -166l16 54c15 -5 29 -8 46 -8c35 0 58 17 73 58l23 62l-176 476h83l135 -382l131 382h81l-206 -555c-28 -75 -62 -104 -127 -104c-29 0 -59 6 -79 17zM244 545l-140 134h112l69 -134h-41z" />
    <glyph glyph-name="zcaron" unicode="&#x17e;" horiz-adv-x="455" 
d="M405 0h-355v48l250 362h-233v66h335v-48l-251 -362h254v-66zM213 545l-111 134h47l95 -67l95 67h47l-111 -134h-62z" />
    <glyph glyph-name="zacute" unicode="&#x17a;" horiz-adv-x="455" 
d="M405 0h-355v48l250 362h-233v66h335v-48l-251 -362h254v-66zM384 679l-140 -134h-41l69 134h112z" />
    <glyph glyph-name="uni01B6" unicode="&#x1b6;" horiz-adv-x="455" 
d="M85 213v50h113l102 147h-233v66h335v-48l-115 -165h82v-50h-116l-102 -147h254v-66h-355v48l114 165h-79z" />
    <glyph glyph-name="zdotaccent" unicode="&#x17c;" horiz-adv-x="455" 
d="M405 0h-355v48l250 362h-233v66h335v-48l-251 -362h254v-66zM201 572v84h86v-84h-86z" />
    <glyph glyph-name="ij" unicode="&#x133;" horiz-adv-x="502" 
d="M166 0h-81v476h81v-476zM170 582h-89v88h89v-88zM299 -183c-28 0 -50 6 -68 14l14 55c13 -4 24 -7 40 -7c28 0 51 13 51 66v531h81v-528c0 -86 -42 -131 -118 -131zM421 582h-89v88h89v-88z" />
    <glyph glyph-name="zero" unicode="0" horiz-adv-x="586" 
d="M293 58c84 0 142 67 142 255c0 189 -58 254 -142 254c-85 0 -142 -65 -142 -254c0 -188 57 -255 142 -255zM293 -12c-131 0 -228 96 -228 325c0 230 97 326 228 326c130 0 228 -96 228 -326c0 -229 -98 -325 -228 -325z" />
    <glyph glyph-name="zero.zero" horiz-adv-x="586" 
d="M293 -12c-131 0 -228 96 -228 325c0 230 97 326 228 326c130 0 228 -96 228 -326c0 -229 -98 -325 -228 -325zM293 58c84 0 142 67 142 255c0 44 -4 82 -10 113l-243 -298c25 -50 64 -70 111 -70zM151 313c0 -45 3 -82 9 -114l243 297c-25 50 -64 71 -110 71
c-85 0 -142 -65 -142 -254z" />
    <glyph glyph-name="one" unicode="1" horiz-adv-x="376" 
d="M274 0h-80v488c-32 -26 -96 -56 -154 -59v73c78 7 145 58 164 125h70v-627z" />
    <glyph glyph-name="two" unicode="2" horiz-adv-x="527" 
d="M168 374l-72 -30c-20 27 -29 61 -29 107c0 107 82 188 195 188c124 0 200 -74 200 -185c0 -122 -97 -214 -288 -381h296v-73h-413v57c221 205 320 284 320 395c0 72 -48 115 -115 115c-66 0 -113 -52 -113 -116c0 -43 13 -67 19 -77z" />
    <glyph glyph-name="three" unicode="3" horiz-adv-x="533" 
d="M263 -12c-134 0 -210 79 -213 196l80 6c1 -75 51 -130 135 -130c77 0 130 45 130 110c0 81 -59 113 -164 113h-23v72h22c73 0 145 32 145 115c0 63 -47 97 -110 97c-77 0 -125 -61 -125 -130l-80 6c1 114 85 196 203 196s197 -66 197 -164c0 -70 -42 -126 -127 -151
c87 -10 148 -66 148 -151c0 -91 -68 -185 -218 -185z" />
    <glyph glyph-name="four" unicode="4" horiz-adv-x="545" 
d="M345 210v303l-222 -303h222zM428 0h-83v138h-320v57l319 432h84v-417h82v-72h-82v-138z" />
    <glyph glyph-name="five" unicode="5" horiz-adv-x="535" 
d="M271 -12c-137 0 -215 87 -216 196l83 6c0 -67 44 -130 132 -130c86 0 129 59 129 140c0 100 -62 136 -130 136c-46 0 -90 -16 -121 -49l-64 8l34 332h321v-73h-248l-21 -188c31 27 79 39 120 39c115 0 195 -65 195 -205c0 -120 -80 -212 -214 -212z" />
    <glyph glyph-name="six" unicode="6" horiz-adv-x="561" 
d="M293 567c-81 0 -141 -59 -144 -233c42 42 102 65 156 65c124 0 195 -77 195 -195c0 -111 -74 -216 -205 -216c-161 0 -230 136 -230 320c0 228 88 331 231 331c115 0 188 -75 196 -159l-82 -14c-5 49 -41 101 -117 101zM286 330c-56 0 -104 -23 -136 -61
c10 -150 64 -211 143 -211c76 0 121 59 121 141c0 86 -52 131 -128 131z" />
    <glyph glyph-name="seven" unicode="7" horiz-adv-x="456" 
d="M229 0h-92c0 232 75 429 204 554h-325v73h419v-57c-156 -150 -215 -417 -206 -570z" />
    <glyph glyph-name="eight" unicode="8" horiz-adv-x="552" 
d="M275 -12c-144 0 -223 81 -223 180c0 88 70 144 138 158c-57 15 -118 60 -118 146c0 84 65 167 203 167c140 0 204 -83 204 -167c0 -86 -60 -131 -116 -146c67 -14 137 -70 137 -158c0 -99 -79 -180 -225 -180zM275 292c-80 0 -136 -53 -136 -118c0 -72 57 -117 136 -117
c83 0 138 44 138 117c0 65 -55 118 -138 118zM275 570c-74 0 -115 -45 -115 -104c0 -60 45 -104 115 -104c72 0 117 44 117 104c0 59 -42 104 -117 104z" />
    <glyph glyph-name="nine" unicode="9" horiz-adv-x="562" 
d="M268 60c80 0 142 58 146 233c-43 -42 -103 -65 -157 -65c-124 0 -196 77 -196 195c0 111 74 216 205 216c161 0 231 -136 231 -320c0 -228 -88 -331 -232 -331c-114 0 -187 75 -195 159l82 14c5 -49 41 -101 116 -101zM276 297c56 0 105 23 136 63
c-10 148 -65 209 -144 209c-75 0 -120 -59 -120 -141c0 -86 52 -131 128 -131z" />
    <glyph glyph-name="one.tf" 
d="M120 0v73h189v415c-32 -26 -100 -56 -187 -59v73c109 7 182 58 202 125h65v-554h156v-73h-425z" />
    <glyph glyph-name="two.tf" 
d="M210 374l-72 -30c-20 27 -29 61 -29 107c0 107 82 188 195 188c124 0 200 -74 200 -185c0 -122 -97 -214 -288 -381h296v-73h-413v57c221 205 320 284 320 395c0 72 -48 115 -115 115c-66 0 -113 -52 -113 -116c0 -43 13 -67 19 -77z" />
    <glyph glyph-name="three.tf" 
d="M297 -12c-134 0 -210 79 -213 196l80 6c1 -75 51 -130 135 -130c77 0 130 45 130 110c0 81 -59 113 -164 113h-23v72h22c73 0 145 32 145 115c0 63 -47 97 -110 97c-77 0 -125 -61 -125 -130l-80 6c1 114 85 196 203 196s197 -66 197 -164c0 -70 -42 -126 -127 -151
c87 -10 148 -66 148 -151c0 -91 -68 -185 -218 -185z" />
    <glyph glyph-name="four.tf" 
d="M382 210v303l-222 -303h222zM465 0h-83v138h-320v57l319 432h84v-417h82v-72h-82v-138z" />
    <glyph glyph-name="five.tf" 
d="M306 -12c-137 0 -215 87 -216 196l83 6c0 -67 44 -130 132 -130c86 0 129 59 129 140c0 100 -62 136 -130 136c-46 0 -90 -16 -121 -49l-64 8l34 332h321v-73h-248l-21 -188c31 27 79 39 120 39c115 0 195 -65 195 -205c0 -120 -80 -212 -214 -212z" />
    <glyph glyph-name="six.tf" 
d="M310 567c-81 0 -141 -59 -144 -233c42 42 102 65 156 65c124 0 195 -77 195 -195c0 -111 -74 -216 -205 -216c-161 0 -230 136 -230 320c0 228 88 331 231 331c115 0 188 -75 196 -159l-82 -14c-5 49 -41 101 -117 101zM303 330c-56 0 -104 -23 -136 -61
c10 -150 64 -211 143 -211c76 0 121 59 121 141c0 86 -52 131 -128 131z" />
    <glyph glyph-name="seven.tf" 
d="M311 0h-88c0 232 81 429 206 554h-333v73h423v-57c-150 -150 -216 -417 -208 -570z" />
    <glyph glyph-name="eight.tf" 
d="M299 -12c-144 0 -223 81 -223 180c0 88 70 144 138 158c-57 15 -118 60 -118 146c0 84 65 167 203 167c140 0 204 -83 204 -167c0 -86 -60 -131 -116 -146c67 -14 137 -70 137 -158c0 -99 -79 -180 -225 -180zM299 292c-80 0 -136 -53 -136 -118c0 -72 57 -117 136 -117
c83 0 138 44 138 117c0 65 -55 118 -138 118zM299 570c-74 0 -115 -45 -115 -104c0 -60 45 -104 115 -104c72 0 117 44 117 104c0 59 -42 104 -117 104z" />
    <glyph glyph-name="nine.tf" 
d="M290 60c81 0 141 59 144 233c-42 -42 -102 -65 -156 -65c-124 0 -195 77 -195 195c0 111 74 216 205 216c161 0 230 -136 230 -320c0 -228 -88 -331 -231 -331c-115 0 -188 75 -196 159l82 14c5 -49 41 -101 117 -101zM297 297c56 0 104 23 136 61
c-10 150 -64 211 -143 211c-76 0 -121 -59 -121 -141c0 -86 52 -131 128 -131z" />
    <glyph glyph-name="zero.tf" 
d="M300 58c84 0 142 67 142 255c0 189 -58 254 -142 254c-85 0 -142 -65 -142 -254c0 -188 57 -255 142 -255zM300 -12c-131 0 -228 96 -228 325c0 230 97 326 228 326c130 0 228 -96 228 -326c0 -229 -98 -325 -228 -325z" />
    <glyph glyph-name="zero.tf.zero" 
d="M300 -12c-131 0 -228 96 -228 325c0 230 97 326 228 326c130 0 228 -96 228 -326c0 -229 -98 -325 -228 -325zM300 58c83 0 140 67 140 255c0 44 -3 81 -9 112l-241 -295c25 -51 63 -72 110 -72zM160 313c0 -44 3 -81 8 -112l241 294c-24 51 -63 72 -109 72
c-84 0 -140 -65 -140 -254z" />
    <glyph glyph-name="zero.osf" horiz-adv-x="570" 
d="M507 248c0 -177 -99 -258 -222 -258s-222 81 -222 258s99 258 222 258s222 -81 222 -258zM148 248c0 -129 60 -190 136 -190c78 0 138 61 138 190s-60 190 -138 190c-76 0 -136 -61 -136 -190z" />
    <glyph glyph-name="one.osf" horiz-adv-x="486" 
d="M320 70h131v-70h-381v70h169v299c-31 -25 -100 -46 -163 -46v72c73 3 157 35 177 102h67v-427z" />
    <glyph glyph-name="two.osf" horiz-adv-x="538" 
d="M280 507c114 0 192 -63 192 -156c0 -75 -40 -122 -128 -181l-150 -100h289v-70h-423v57l238 166c61 43 89 82 89 122c0 59 -45 94 -108 94c-74 0 -123 -63 -123 -134l-82 6c1 114 83 196 206 196z" />
    <glyph glyph-name="three.osf" horiz-adv-x="546" 
d="M268 -144c-134 0 -210 79 -213 196l80 6c1 -77 51 -134 135 -134c77 0 131 47 131 114c0 79 -55 115 -165 115h-23v68h22c69 0 145 33 145 117c0 66 -50 101 -110 101c-77 0 -127 -63 -127 -134l-78 6c1 114 85 196 203 196s197 -66 197 -164c0 -70 -42 -127 -127 -152
c88 -10 148 -65 148 -150c0 -91 -68 -185 -218 -185z" />
    <glyph glyph-name="four.osf" horiz-adv-x="541" 
d="M344 86v297l-226 -297h226zM425 -134h-81v153h-320v57l319 421h82v-411h80v-67h-80v-153z" />
    <glyph glyph-name="five.osf" horiz-adv-x="525" 
d="M268 -144c-137 0 -215 87 -216 196l81 6c0 -69 45 -134 134 -134c86 0 130 61 130 144c0 99 -60 141 -134 141c-44 0 -91 -19 -122 -52l-60 8l34 332h321v-70h-250l-21 -193c29 27 79 41 122 41c120 0 195 -75 195 -207c0 -120 -80 -212 -214 -212z" />
    <glyph glyph-name="six.osf" horiz-adv-x="563" 
d="M293 571c-82 0 -142 -63 -144 -244c38 46 99 72 160 72c118 0 191 -77 191 -195c0 -111 -74 -216 -205 -216c-161 0 -230 136 -230 320c0 228 88 331 231 331c115 0 188 -75 196 -159l-82 -14c-5 51 -41 105 -117 105zM286 332c-57 0 -103 -22 -136 -60
c8 -153 63 -216 143 -216c76 0 122 60 122 143c0 87 -53 133 -129 133z" />
    <glyph glyph-name="seven.osf" horiz-adv-x="451" 
d="M229 -134h-91c0 232 76 436 206 561h-325v70h419v-57c-166 -150 -218 -421 -209 -574z" />
    <glyph glyph-name="eight.osf" horiz-adv-x="561" 
d="M279 -10c-144 0 -223 79 -223 178c0 88 80 147 148 158c-57 13 -127 60 -127 146c0 84 64 165 202 165c140 0 203 -81 203 -165c0 -86 -69 -133 -125 -146c67 -12 147 -70 147 -158c0 -99 -79 -178 -225 -178zM279 293c-80 0 -138 -54 -138 -119c0 -72 58 -118 138 -118
c84 0 140 45 140 118c0 65 -57 119 -140 119zM279 571c-75 0 -117 -46 -117 -105c0 -60 47 -105 117 -105c72 0 119 45 119 105c0 59 -43 105 -119 105z" />
    <glyph glyph-name="nine.osf" horiz-adv-x="563" 
d="M270 -76c81 0 142 63 144 243c-39 -46 -100 -71 -160 -71c-118 0 -191 77 -191 195c0 111 74 216 205 216c161 0 230 -136 230 -320c0 -228 -88 -331 -231 -331c-115 0 -188 75 -196 159l82 14c5 -51 41 -105 117 -105zM277 163c57 0 103 22 136 59
c-9 154 -64 217 -143 217c-76 0 -122 -60 -122 -143c0 -87 53 -133 129 -133z" />
    <glyph glyph-name="bar.case" horiz-adv-x="251" 
d="M95 -165v940h61v-940h-61z" />
    <glyph glyph-name="hyphen.case" horiz-adv-x="353" 
d="M55 268v70h243v-70h-243z" />
    <glyph glyph-name="endash.case" horiz-adv-x="500" 
d="M55 269v62h390v-62h-390z" />
    <glyph glyph-name="emdash.case" horiz-adv-x="1000" 
d="M55 269v62h890v-62h-890z" />
    <glyph glyph-name="slash.case" horiz-adv-x="373" 
d="M5 -164l295 939h68l-294 -939h-69z" />
    <glyph glyph-name="backslash.case" horiz-adv-x="373" 
d="M73 775l295 -939h-69l-294 939h68z" />
    <glyph glyph-name="parenleft.case" horiz-adv-x="311" 
d="M296 -125l-36 -31c-155 161 -180 338 -180 462s25 303 180 461l36 -30c-114 -154 -138 -313 -138 -431c0 -119 24 -256 138 -431z" />
    <glyph glyph-name="parenright.case" horiz-adv-x="311" 
d="M51 -156l-36 31c114 175 138 312 138 431c0 118 -24 277 -138 431l36 30c155 -158 180 -337 180 -461s-25 -301 -180 -462z" />
    <glyph glyph-name="bracketleft.case" horiz-adv-x="288" 
d="M90 -164v939h183v-54h-110v-830h110v-55h-183z" />
    <glyph glyph-name="bracketright.case" horiz-adv-x="288" 
d="M198 775v-939h-183v55h110v830h-110v54h183z" />
    <glyph glyph-name="braceleft.case" horiz-adv-x="335" 
d="M203 -28c0 -66 28 -84 73 -84c14 0 27 2 35 4l9 -50c-10 -3 -31 -6 -52 -6c-91 0 -138 44 -138 136c0 69 37 161 37 216c0 68 -37 90 -87 90v54c50 0 87 22 87 90c0 55 -37 147 -37 216c0 92 47 136 138 136c21 0 42 -3 52 -6l-9 -50c-8 2 -21 4 -35 4
c-45 0 -73 -18 -73 -84c0 -56 37 -160 37 -226c0 -50 -13 -93 -89 -107c76 -14 89 -57 89 -107c0 -66 -37 -170 -37 -226z" />
    <glyph glyph-name="braceright.case" horiz-adv-x="335" 
d="M132 -28c0 56 -37 160 -37 226c0 50 13 93 89 107c-76 14 -89 57 -89 107c0 66 37 170 37 226c0 66 -28 84 -73 84c-14 0 -27 -2 -35 -4l-9 50c10 3 31 6 52 6c91 0 138 -44 138 -136c0 -69 -37 -161 -37 -216c0 -68 37 -90 87 -90v-54c-50 0 -87 -22 -87 -90
c0 -55 37 -147 37 -216c0 -92 -47 -136 -138 -136c-21 0 -42 3 -52 6l9 50c8 -2 21 -4 35 -4c45 0 73 18 73 84z" />
    <glyph glyph-name="guilsinglleft.case" horiz-adv-x="313" 
d="M174 119l-119 180l119 179h64l-94 -179l94 -180h-64z" />
    <glyph glyph-name="guilsinglright.case" horiz-adv-x="313" 
d="M258 299l-119 -180h-64l94 180l-94 179h64z" />
    <glyph glyph-name="guillemotleft.case" horiz-adv-x="480" 
d="M174 119l-119 180l119 179h64l-94 -179l94 -180h-64zM341 119l-119 180l119 179h64l-94 -179l94 -180h-64z" />
    <glyph glyph-name="guillemotright.case" horiz-adv-x="480" 
d="M139 478l119 -180l-119 -179h-64l94 179l-94 180h64zM306 478l119 -180l-119 -179h-64l94 179l-94 180h64z" />
    <glyph glyph-name="exclamdown.case" horiz-adv-x="293" 
d="M132 412h29l31 -186v-226h-90v226zM95 627h103v-105h-103v105z" />
    <glyph glyph-name="questiondown.case" horiz-adv-x="507" 
d="M208 627h103v-105h-103v105zM376 195l78 4c1 -5 3 -19 3 -26c0 -99 -80 -185 -209 -185c-120 0 -198 68 -198 165c0 85 64 126 137 174c36 24 50 49 54 79l2 16h42l3 -14c2 -9 4 -21 4 -28c0 -39 -14 -73 -70 -108c-47 -30 -90 -68 -90 -120c0 -55 48 -92 116 -92
c79 0 130 53 130 116c0 6 -1 14 -2 19z" />
    <glyph glyph-name="uni2190" unicode="&#x2190;" 
d="M13 311l235 233h90l-200 -198h449v-70h-449l200 -198h-90z" />
    <glyph glyph-name="uni2191" unicode="&#x2191;" 
d="M300 598l233 -235v-90l-198 200v-449h-70v449l-198 -200v90z" />
    <glyph glyph-name="uni2192" unicode="&#x2192;" 
d="M352 544l235 -233l-235 -233h-90l200 198h-449v70h449l-200 198h90z" />
    <glyph glyph-name="uni2193" unicode="&#x2193;" 
d="M533 261l-233 -235l-233 235v90l198 -200v449h70v-449l198 200v-90z" />
    <glyph glyph-name="uni2196" unicode="&#x2196;" 
d="M84 514h331l64 -64h-282l318 -317l-50 -50l-317 318v-282l-64 64v331z" />
    <glyph glyph-name="uni2197" unicode="&#x2197;" 
d="M185 514h331v-331l-64 -64v282l-317 -318l-50 50l318 317h-282z" />
    <glyph glyph-name="uni2198" unicode="&#x2198;" 
d="M515 77h-331l-64 64h282l-318 317l50 50l317 -318v282l64 -64v-331z" />
    <glyph glyph-name="uni2199" unicode="&#x2199;" 
d="M416 77h-331v331l64 64v-282l317 318l50 -50l-318 -317h282z" />
    <glyph glyph-name="bar.salt" horiz-adv-x="221" 
d="M126 -195h-31v940h31v-940z" />
    <glyph glyph-name="brokenbar.salt" horiz-adv-x="221" 
d="M126 341h-31v404h31v-404zM126 -194h-31v404h31v-404z" />
    <glyph glyph-name="hyphen.salt" horiz-adv-x="364" 
d="M55 241v31h254v-31h-254z" />
    <glyph glyph-name="uni00AD.salt" horiz-adv-x="364" 
d="M55 241v31h254v-31h-254z" />
    <glyph glyph-name="endash.salt" horiz-adv-x="500" 
d="M55 241v31h390v-31h-390z" />
    <glyph glyph-name="emdash.salt" horiz-adv-x="1000" 
d="M55 241v31h890v-31h-890z" />
    <glyph glyph-name="underscore.salt" horiz-adv-x="500" 
d="M55 -89v31h390v-31h-390z" />
    <glyph glyph-name="asciitilde.salt" 
d="M400 192c49 0 73 32 79 132h31c-4 -117 -42 -163 -110 -163c-88 0 -130 132 -201 132c-48 0 -73 -30 -78 -132h-31c4 118 42 163 109 163c88 0 131 -132 201 -132z" />
    <glyph glyph-name="plus.salt" 
d="M316 50h-31v203h-200v31h200v202h31v-202h199v-31h-199v-203z" />
    <glyph glyph-name="plusminus.salt" 
d="M315 157h-31v192h-189v31h189v193h31v-193h189v-31h-189v-192zM504 31v-31h-409v31h409z" />
    <glyph glyph-name="minus.salt" 
d="M485 284v-31h-370v31h370z" />
    <glyph glyph-name="divide.salt" 
d="M308 155v-155h-31v155h31zM308 537v-155h-31v155h31zM505 284v-31h-410v31h410z" />
    <glyph glyph-name="multiply.salt" 
d="M141 68l-23 21l161 182l-161 183l23 21l158 -180l159 180l23 -21l-161 -183l161 -182l-23 -21l-159 180z" />
    <glyph glyph-name="equal.salt" 
d="M485 161v-31h-370v31h370zM485 406v-31h-370v31h370z" />
    <glyph glyph-name="notequal.salt" 
d="M222 -46l-30 9l51 167h-128v31h138l66 214h-204v31h214l50 161l30 -9l-47 -152h123v-31h-133l-66 -214h199v-31h-209z" />
    <glyph glyph-name="approxequal.salt" 
d="M400 76c49 0 73 32 79 132h31c-4 -117 -42 -163 -110 -163c-88 0 -130 132 -201 132c-48 0 -73 -30 -78 -132h-31c4 118 42 163 109 163c88 0 131 -132 201 -132zM400 330c49 0 73 32 79 132h31c-4 -117 -42 -163 -110 -163c-88 0 -130 132 -201 132
c-48 0 -73 -30 -78 -132h-31c4 118 42 163 109 163c88 0 131 -132 201 -132z" />
    <glyph glyph-name="less.salt" 
d="M103 286l380 200l14 -29l-358 -187l358 -187l-14 -29l-380 200v32z" />
    <glyph glyph-name="greater.salt" 
d="M117 486l380 -200v-32l-380 -200l-14 29l358 187l-358 187z" />
    <glyph glyph-name="lessequal.salt" 
d="M95 382l380 180l12 -29l-355 -167l355 -167l-12 -29l-380 180v32zM505 31v-31h-410v31h410z" />
    <glyph glyph-name="greaterequal.salt" 
d="M125 562l380 -180v-32l-380 -180l-12 29l355 167l-355 167zM95 0v31h410v-31h-410z" />
    <glyph glyph-name="exclam.salt" horiz-adv-x="293" 
d="M162 226h-31v401h31v-401zM198 0h-103v105h103v-105z" />
    <glyph glyph-name="exclamdown.salt" horiz-adv-x="293" 
d="M131 250h31v-401h-31v401zM95 476h103v-105h-103v105z" />
    <glyph glyph-name="question.salt" horiz-adv-x="470" 
d="M239 234h-31v28c0 68 56 93 110 127c36 23 71 48 71 104c0 70 -54 116 -150 116c-84 0 -157 -50 -157 -147v-11h-32v13c0 107 85 175 190 175c110 0 180 -56 180 -146c0 -74 -53 -109 -88 -130c-53 -33 -93 -47 -93 -102v-27zM276 0h-103v105h103v-105z" />
    <glyph glyph-name="questiondown.salt" horiz-adv-x="470" 
d="M229 242h33v-28c0 -68 -56 -93 -110 -127c-36 -23 -71 -48 -71 -104c0 -70 54 -116 150 -116c84 0 157 50 157 147v11h32v-13c0 -107 -85 -175 -190 -175c-110 0 -180 56 -180 146c0 74 53 109 88 130c53 33 91 47 91 102v27zM194 476h103v-105h-103v105z" />
    <glyph glyph-name="quotesingle.salt" horiz-adv-x="221" 
d="M95 410v260h31v-260h-31z" />
    <glyph glyph-name="quotedbl.salt" horiz-adv-x="357" 
d="M95 410v260h31v-260h-31zM231 410v260h31v-260h-31z" />
    <glyph glyph-name="comma.salt" horiz-adv-x="273" 
d="M188 2l-76 -164l-27 13l69 149h-69v105h103v-103z" />
    <glyph glyph-name="period.salt" horiz-adv-x="273" 
d="M188 0h-103v105h103v-105z" />
    <glyph glyph-name="ellipsis.salt" horiz-adv-x="892" 
d="M807 0h-103v105h103v-105zM188 0h-103v105h103v-105zM496 0h-103v105h103v-105z" />
    <glyph glyph-name="colon.salt" horiz-adv-x="283" 
d="M193 321h-103v105h103v-105zM193 0h-103v105h103v-105z" />
    <glyph glyph-name="semicolon.salt" horiz-adv-x="283" 
d="M193 321h-103v105h103v-105zM193 2l-76 -164l-27 13l69 149h-69v105h103v-103z" />
    <glyph glyph-name="periodcentered.salt" horiz-adv-x="273" 
d="M188 188h-103v105h103v-105z" />
    <glyph glyph-name="uni2219.salt" horiz-adv-x="273" 
d="M188 188h-103v105h103v-105z" />
    <glyph glyph-name="bullet.salt" horiz-adv-x="367" 
d="M90 259c0 57 39 94 94 94s93 -37 93 -94c0 -58 -38 -94 -93 -94c-56 0 -94 36 -94 94zM121 259c0 -39 25 -64 63 -64c37 0 62 25 62 64c0 38 -25 64 -62 64s-63 -26 -63 -64z" />
    <glyph glyph-name="quoteleft.salt" horiz-adv-x="273" 
d="M85 526l76 164l27 -13l-69 -149h69v-105h-103v103z" />
    <glyph glyph-name="quotedblleft.salt" horiz-adv-x="436" 
d="M248 526l76 164l27 -13l-69 -149h69v-105h-103v103zM85 526l76 164l27 -13l-69 -149h69v-105h-103v103z" />
    <glyph glyph-name="quoteright.salt" horiz-adv-x="273" 
d="M188 567l-76 -164l-27 13l69 149h-69v105h103v-103z" />
    <glyph glyph-name="quotedblright.salt" horiz-adv-x="436" 
d="M188 567l-76 -164l-27 13l69 149h-69v105h103v-103zM351 567l-76 -164l-27 13l69 149h-69v105h103v-103z" />
    <glyph glyph-name="quotesinglbase.salt" horiz-adv-x="273" 
d="M188 2l-76 -164l-27 13l69 149h-69v105h103v-103z" />
    <glyph glyph-name="quotedblbase.salt" horiz-adv-x="436" 
d="M188 2l-76 -164l-27 13l69 149h-69v105h103v-103zM351 2l-76 -164l-27 13l69 149h-69v105h103v-103z" />
    <glyph glyph-name="guilsinglleft.salt" horiz-adv-x="264" 
d="M94 238l95 -184l-27 -14l-107 198l107 198l27 -14z" />
    <glyph glyph-name="guilsinglright.salt" horiz-adv-x="264" 
d="M75 54l95 184l-95 184l27 14l107 -198l-107 -198z" />
    <glyph glyph-name="guillemotleft.salt" horiz-adv-x="427" 
d="M94 238l95 -184l-27 -14l-107 198l107 198l27 -14zM257 238l95 -184l-27 -14l-107 198l107 198l27 -14z" />
    <glyph glyph-name="guillemotright.salt" horiz-adv-x="427" 
d="M75 54l95 184l-95 184l27 14l107 -198l-107 -198zM238 54l95 184l-95 184l27 14l107 -198l-107 -198z" />
    <glyph glyph-name="slash.salt" horiz-adv-x="333" 
d="M35 -195l-30 9l293 930l30 -9z" />
    <glyph glyph-name="backslash.salt" horiz-adv-x="333" 
d="M328 -186l-30 -9l-293 930l30 9z" />
    <glyph glyph-name="uni2215.salt" horiz-adv-x="115" 
d="M-176 -10l-24 20l491 626l24 -19z" />
    <glyph glyph-name="fraction.salt" horiz-adv-x="115" 
d="M-176 -10l-24 20l491 626l24 -19z" />
    <glyph glyph-name="parenleft.salt" horiz-adv-x="288" 
d="M80 273c0 209 71 378 175 468l18 -23c-118 -101 -162 -298 -162 -445s44 -344 162 -445l-18 -23c-104 90 -175 259 -175 468z" />
    <glyph glyph-name="parenright.salt" horiz-adv-x="288" 
d="M208 273c0 -209 -71 -378 -175 -468l-18 23c118 101 162 298 162 445s-44 344 -162 445l18 23c104 -90 175 -259 175 -468z" />
    <glyph glyph-name="bracketleft.salt" horiz-adv-x="252" 
d="M90 -194v939h147v-30h-116v-879h116v-30h-147z" />
    <glyph glyph-name="bracketright.salt" horiz-adv-x="252" 
d="M162 745v-939h-147v30h116v879h-116v30h147z" />
    <glyph glyph-name="braceleft.salt" horiz-adv-x="314" 
d="M80 260v30c78 10 98 51 98 105c0 66 -74 148 -74 243c0 84 51 115 107 115c47 0 74 -15 88 -25l-13 -26c-14 9 -35 21 -72 21c-48 0 -79 -21 -79 -85c0 -93 74 -161 74 -249c0 -53 -21 -98 -76 -114c55 -16 76 -61 76 -114c0 -88 -74 -156 -74 -249c0 -64 31 -85 79 -85
c37 0 58 12 72 21l13 -26c-14 -10 -41 -25 -88 -25c-56 0 -107 31 -107 115c0 95 74 177 74 243c0 54 -20 95 -98 105z" />
    <glyph glyph-name="braceright.salt" horiz-adv-x="314" 
d="M234 290v-30c-78 -10 -98 -51 -98 -105c0 -66 74 -148 74 -243c0 -84 -51 -115 -107 -115c-47 0 -74 15 -88 25l13 26c14 -9 35 -21 72 -21c48 0 79 21 79 85c0 93 -74 161 -74 249c0 53 21 98 76 114c-55 16 -76 61 -76 114c0 88 74 156 74 249c0 64 -31 85 -79 85
c-37 0 -58 -12 -72 -21l-13 26c14 10 41 25 88 25c56 0 107 -31 107 -115c0 -95 -74 -177 -74 -243c0 -54 20 -95 98 -105z" />
    <glyph glyph-name="ordfeminine.salt" horiz-adv-x="422" 
d="M59 207v31h291v-31h-291zM328 302c-51 0 -73 30 -73 77v14c-16 -52 -64 -91 -115 -91c-53 0 -90 31 -90 83c0 67 79 108 184 111l15 1c0 10 1 17 1 32c0 44 -21 60 -60 60s-64 -19 -64 -57c0 -4 0 -9 1 -14h-57c-1 5 -2 13 -2 19c0 59 48 102 122 102
c73 0 127 -33 127 -113c0 -38 -4 -103 -4 -138c0 -30 11 -38 27 -38c9 0 19 2 25 5l7 -36c-7 -7 -27 -17 -44 -17zM161 353c32 0 68 26 88 63l2 43h-11c-80 -4 -119 -28 -119 -71c0 -23 19 -35 40 -35z" />
    <glyph glyph-name="ordmasculine.salt" horiz-adv-x="406" 
d="M58 208v31h291v-31h-291zM203 356c47 0 85 32 85 117c0 83 -38 116 -84 116c-47 0 -86 -33 -86 -116c0 -85 40 -117 85 -117zM203 306c-79 0 -153 50 -153 166s74 167 153 167s153 -51 153 -167s-74 -166 -153 -166z" />
    <glyph glyph-name="dagger.salt" horiz-adv-x="411" 
d="M221 154h-31v320h-145v31h145v165h31v-165h145v-31h-145v-320z" />
    <glyph glyph-name="daggerdbl.salt" horiz-adv-x="411" 
d="M221 0h-31v165h-145v31h145v278h-145v31h145v165h31v-165h145v-31h-145v-278h145v-31h-145v-165z" />
    <glyph glyph-name="degree.salt" horiz-adv-x="364" 
d="M45 502c0 82 60 137 137 137c79 0 137 -55 137 -137c0 -84 -58 -138 -137 -138c-77 0 -137 54 -137 138zM77 502c0 -68 47 -108 105 -108c60 0 106 40 106 108c0 66 -46 107 -106 107c-57 0 -105 -41 -105 -107z" />
    <glyph glyph-name="asterisk.salt" horiz-adv-x="497" 
d="M367 263l-116 161l-118 -163l-25 18l117 162l-190 61l9 30l190 -62v200h31v-200l187 61l10 -29l-187 -61l117 -159z" />
    <glyph glyph-name="asciicircum.salt" horiz-adv-x="463" 
d="M247 627l181 -300l-26 -18l-171 285l-170 -285l-26 18l180 300h32z" />
    <glyph glyph-name="ampersand.salt" horiz-adv-x="738" 
d="M185 -12c-85 0 -135 58 -135 126c0 105 96 164 186 221c-34 48 -73 105 -73 166c0 73 48 138 142 138c86 0 136 -55 136 -120c0 -82 -64 -128 -162 -192l112 -150c62 94 125 200 267 200h17v-30h-19c-122 0 -182 -99 -245 -196c70 -98 129 -133 180 -133
c63 0 85 38 85 83v6h30v-9c0 -59 -33 -110 -115 -110c-66 0 -127 37 -199 136c-49 -73 -121 -136 -207 -136zM186 18c74 0 137 62 187 132l-119 161c-87 -57 -173 -109 -173 -197c0 -56 41 -96 105 -96zM194 502c0 -52 35 -107 67 -151c80 51 149 97 149 167
c0 53 -44 91 -106 91c-73 0 -110 -52 -110 -107z" />
    <glyph glyph-name="at.salt" horiz-adv-x="964" 
d="M687 22c-51 0 -98 32 -100 92c-48 -72 -107 -92 -164 -92c-59 0 -146 35 -146 161c0 158 103 280 233 280c67 0 129 -38 136 -98l23 75h32l-76 -254c-6 -21 -9 -39 -9 -55c0 -53 29 -80 71 -80c79 0 176 84 176 243c0 201 -135 342 -357 342c-196 0 -405 -142 -405 -408
c0 -241 159 -381 381 -381c97 0 175 37 214 60l14 -27c-44 -27 -125 -63 -225 -63c-248 0 -415 153 -415 411c0 280 211 438 437 438c245 0 387 -160 387 -369c0 -177 -111 -275 -207 -275zM511 434c-113 0 -203 -110 -203 -251c0 -108 73 -132 121 -132
c57 0 131 36 162 133l29 92c3 10 6 34 6 44c0 72 -52 114 -115 114z" />
    <glyph glyph-name="numbersign.salt" 
d="M99 408v31h111l30 192l32 -4l-29 -188h153l30 192l31 -4l-29 -188h106v-31h-111l-29 -189h107v-31h-111l-29 -188l-31 5l28 183h-154l-29 -188l-31 5l28 183h-107v31h112l29 189h-107zM238 408l-29 -189h154l29 189h-154z" />
    <glyph glyph-name="dollar.salt" horiz-adv-x="546" 
d="M207 -125v152c-94 25 -152 98 -152 193h30c0 -77 44 -139 122 -162v255c-84 18 -135 59 -135 135c0 69 43 133 135 155v131h30v-126c13 2 27 3 42 3c16 0 31 -2 46 -4v127h30v-135c80 -26 131 -94 131 -178h-31c-2 66 -38 122 -100 146v-247c86 -17 136 -52 136 -139
c0 -81 -50 -137 -136 -156v-150h-30v145c-14 -1 -29 -2 -44 -2s-30 1 -44 3v-146h-30zM325 295c-60 7 -74 10 -88 12v-256c14 -2 28 -3 44 -3c15 0 30 1 44 3v244zM325 325v251c-15 3 -30 5 -46 5c-15 0 -29 -1 -42 -3v-241c13 -3 60 -9 88 -12zM461 181
c0 67 -40 96 -106 109v-234c69 18 106 62 106 125zM103 448c0 -55 36 -89 104 -105v229c-71 -20 -104 -70 -104 -124z" />
    <glyph glyph-name="cent.salt" horiz-adv-x="553" 
d="M267 -145v132c-118 8 -202 110 -202 250s84 242 202 250v137h29v-136c119 -7 186 -103 192 -172h-31c-8 56 -60 134 -161 141v-441c101 7 153 85 161 142h31c-6 -70 -73 -165 -192 -172v-131h-29zM96 237c0 -127 71 -213 171 -221v441c-100 -8 -171 -93 -171 -220z" />
    <glyph glyph-name="sterling.salt" horiz-adv-x="614" 
d="M505 226l27 15c11 -19 25 -56 25 -99c0 -87 -40 -152 -131 -152c-56 0 -99 38 -142 78c-27 -45 -76 -78 -140 -78c-57 0 -109 32 -109 96c0 63 51 98 105 98c53 0 95 -31 133 -65c3 11 5 23 5 35c0 52 -28 94 -59 132h-128v29h102c-37 46 -71 102 -71 164
c0 106 85 160 183 160c135 0 191 -81 191 -177c0 -20 -2 -37 -6 -56l-30 4c4 18 5 35 5 53c0 83 -48 147 -160 147c-79 0 -152 -41 -152 -130c0 -60 39 -118 78 -165h199v-29h-175c27 -38 53 -82 53 -132c0 -20 -4 -39 -10 -58c41 -39 80 -77 128 -77c65 0 100 50 100 123
c0 29 -10 64 -21 84zM140 154c-43 0 -74 -27 -74 -68c0 -44 36 -67 77 -67c55 0 97 30 119 71c-38 34 -76 64 -122 64z" />
    <glyph glyph-name="yen.salt" horiz-adv-x="518" 
d="M37 324v30h130l-142 270l28 13l206 -396l206 396l28 -14l-141 -269h127v-30h-143l-46 -88h189v-30h-204v-206h-31v206h-207v30h191l-46 88h-145z" />
    <glyph glyph-name="florin.salt" 
d="M163 322v29h121v120c0 126 45 166 120 166c34 0 66 -14 84 -31l-17 -25c-14 14 -41 26 -68 26c-48 0 -88 -22 -88 -137v-119h121v-29h-121v-166c0 -126 -45 -166 -120 -166c-34 0 -66 14 -84 31l17 25c14 -14 41 -26 68 -26c48 0 88 22 88 137v165h-121z" />
    <glyph glyph-name="Euro.salt" horiz-adv-x="639" 
d="M56 361v29h75c20 158 105 249 233 249c134 0 218 -93 218 -226h-29c0 118 -72 197 -189 197c-113 0 -184 -78 -202 -220h289v-29h-292c-1 -16 -1 -32 -1 -48c0 -20 1 -39 2 -57h291v-28h-288c20 -137 90 -211 201 -211c117 0 189 79 189 197h29
c0 -133 -84 -226 -218 -226c-126 0 -209 87 -231 240h-77v28h73c-1 18 -2 37 -2 57c0 16 0 32 1 48h-72z" />
    <glyph glyph-name="section.salt" 
d="M310 -185c-103 0 -178 69 -178 176h31c0 -91 62 -146 148 -146c74 0 126 45 126 112c0 55 -33 86 -97 111l-139 55c-77 30 -126 70 -126 147c0 66 46 116 94 134c-25 24 -39 54 -39 93c0 80 61 142 159 142c103 0 178 -69 178 -176h-31c0 91 -62 146 -148 146
c-75 0 -127 -45 -127 -112c0 -55 33 -86 98 -111l139 -55c76 -30 126 -70 126 -147c0 -67 -47 -116 -95 -134c25 -24 39 -54 39 -93c0 -80 -60 -142 -158 -142zM253 356c-23 8 -43 18 -59 29c-57 -18 -89 -63 -89 -116c0 -62 42 -92 105 -117l136 -54c22 -9 42 -18 59 -29
c57 17 89 62 89 116c0 62 -42 92 -105 117z" />
    <glyph glyph-name="currency.salt" horiz-adv-x="700" 
d="M608 14l-22 -22l-80 79c-42 -36 -97 -57 -157 -57s-116 21 -158 57l-78 -79l-22 22l78 79c-37 41 -60 96 -60 158c0 61 22 116 60 157l-78 78l22 22l78 -78c42 36 98 58 158 58s116 -22 158 -58l78 79l22 -22l-78 -78c38 -42 61 -97 61 -158c0 -62 -23 -117 -61 -159z
M349 43c117 0 210 92 210 208s-93 208 -210 208c-115 0 -209 -92 -209 -208s94 -208 209 -208z" />
    <glyph glyph-name="paragraph.salt" horiz-adv-x="592" 
d="M339 246h-30c-121 0 -234 41 -234 191c0 149 113 190 234 190h61v-800h-31v419zM309 277h28l3 319h-31c-107 0 -203 -30 -203 -159c0 -130 96 -160 203 -160zM466 -173v800h31v-800h-31z" />
    <glyph glyph-name="registered.salt" horiz-adv-x="580" 
d="M520 452c0 -130 -101 -228 -231 -228c-129 0 -229 99 -229 228s100 228 229 228c130 0 231 -98 231 -228zM91 452c0 -114 87 -198 198 -198c113 0 200 84 200 198s-87 198 -200 198c-111 0 -198 -84 -198 -198zM390 347h-34c-18 27 -4 87 -58 87h-53v-87h-31v219h79
c62 0 88 -24 88 -62c0 -36 -24 -51 -53 -56c21 -2 28 -7 35 -20c11 -21 12 -56 27 -81zM290 463c40 0 60 12 60 39c0 23 -15 35 -63 35h-42v-74h45z" />
    <glyph glyph-name="percent.salt" horiz-adv-x="798" 
d="M346 460c0 -114 -68 -174 -145 -174c-78 0 -146 60 -146 174s68 175 146 175c77 0 145 -61 145 -175zM166 -10l-24 20l491 626l24 -19zM315 460c0 92 -51 145 -114 145c-64 0 -116 -53 -116 -145s52 -144 116 -144c63 0 114 52 114 144zM743 166
c0 -114 -68 -174 -145 -174c-78 0 -146 60 -146 174s68 175 146 175c77 0 145 -61 145 -175zM712 166c0 92 -51 145 -114 145c-64 0 -116 -53 -116 -145s52 -144 116 -144c63 0 114 52 114 144z" />
    <glyph glyph-name="perthousand.salt" horiz-adv-x="1136" 
d="M346 460c0 -114 -68 -174 -145 -174c-78 0 -146 60 -146 174s68 175 146 175c77 0 145 -61 145 -175zM166 -10l-24 20l491 626l24 -19zM315 460c0 92 -51 145 -114 145c-64 0 -116 -53 -116 -145s52 -144 116 -144c63 0 114 52 114 144zM743 166
c0 -114 -68 -174 -145 -174c-78 0 -146 60 -146 174s68 175 146 175c77 0 145 -61 145 -175zM712 166c0 92 -51 145 -114 145c-64 0 -116 -53 -116 -145s52 -144 116 -144c63 0 114 52 114 144zM1081 166c0 -114 -68 -174 -145 -174c-78 0 -146 60 -146 174s68 175 146 175
c77 0 145 -61 145 -175zM1050 166c0 92 -51 145 -114 145c-64 0 -116 -53 -116 -145s52 -144 116 -144c63 0 114 52 114 144z" />
    <glyph glyph-name="copyright.salt" horiz-adv-x="778" 
d="M388 -12c-180 0 -328 143 -328 324c0 183 148 327 328 327c182 0 330 -144 330 -327c0 -181 -148 -324 -330 -324zM388 17c165 0 299 132 299 295c0 166 -134 298 -299 298c-162 0 -297 -132 -297 -298c0 -163 135 -295 297 -295zM235 315c0 117 79 166 157 166
c83 0 135 -49 145 -114l-32 -5c-5 51 -48 90 -114 90c-54 0 -125 -38 -125 -137s71 -138 125 -138c66 0 109 39 114 90l32 -5c-10 -65 -62 -114 -145 -114c-78 0 -157 50 -157 167z" />
    <glyph glyph-name="trademark.salt" horiz-adv-x="627" 
d="M328 343h-31v284h38l89 -162l91 162h37v-284h-31v236l-81 -146h-31l-81 146v-236zM154 343h-31v254h-93v30h218v-30h-94v-254z" />
    <glyph glyph-name="infinity.salt" horiz-adv-x="729" 
d="M208 392c43 0 109 -22 156 -113c46 90 113 113 157 113c75 0 153 -45 153 -149c0 -105 -78 -150 -153 -150c-44 0 -109 21 -156 112c-47 -90 -114 -112 -157 -112c-75 0 -153 45 -153 149c0 105 78 150 153 150zM643 243c0 79 -61 119 -121 119c-43 0 -104 -26 -141 -119
c37 -94 98 -120 141 -120c60 0 121 40 121 120zM86 242c0 -79 62 -119 122 -119c42 0 103 26 140 119c-37 94 -98 120 -140 120c-60 0 -122 -40 -122 -120z" />
    <glyph glyph-name="logicalnot.salt" 
d="M505 30h-31v223h-379v31h410v-254z" />
    <glyph glyph-name="radical.salt" 
d="M55 476h154l134 -433l172 594l30 -8l-182 -629h-38l-139 445h-131v31z" />
    <glyph glyph-name="integral.salt" horiz-adv-x="507" 
d="M238 -16v530c0 126 45 166 120 166c34 0 66 -14 84 -31l-17 -24c-14 14 -41 25 -68 25c-48 0 -88 -22 -88 -137v-530c0 -126 -45 -166 -120 -166c-34 0 -66 14 -84 31l17 24c14 -14 41 -25 68 -25c48 0 88 22 88 137z" />
    <glyph glyph-name="estimated" unicode="&#x212e;" horiz-adv-x="700" 
d="M593 223h-454c3 -126 101 -206 211 -206c87 0 172 51 201 150l30 -11c-33 -105 -123 -168 -231 -168c-136 0 -243 99 -243 251c0 154 107 248 243 248c134 0 243 -94 243 -248v-16zM350 458c-111 0 -206 -71 -211 -206h422c-5 131 -103 206 -211 206z" />
    <glyph glyph-name="grave.salt" horiz-adv-x="309" 
d="M70 661l184 -94l-14 -27l-185 94z" />
    <glyph glyph-name="acute.salt" horiz-adv-x="309" 
d="M254 634l-184 -94l-15 27l185 94z" />
    <glyph glyph-name="dieresis.salt" horiz-adv-x="418" 
d="M180 559h-125v30h125v-30zM363 559h-125v30h125v-30z" />
    <glyph glyph-name="circumflex.salt" horiz-adv-x="378" 
d="M55 564l134 93l134 -93l-18 -25l-116 80l-116 -80z" />
    <glyph glyph-name="tilde.salt" horiz-adv-x="372" 
d="M244 570c26 0 39 27 42 73h31c-3 -70 -30 -103 -73 -103c-55 0 -78 73 -116 73c-26 0 -39 -26 -42 -73h-31c3 70 30 103 73 103c55 0 77 -73 116 -73z" />
    <glyph glyph-name="macron.salt" horiz-adv-x="335" 
d="M280 567h-225v30h225v-30z" />
    <glyph glyph-name="uni02C9.salt" horiz-adv-x="335" 
d="M280 567h-225v30h225v-30z" />
    <glyph glyph-name="breve.salt" horiz-adv-x="343" 
d="M172 567c47 0 84 33 84 74h32c0 -67 -57 -105 -116 -105c-60 0 -117 38 -117 105h32c0 -41 37 -74 85 -74z" />
    <glyph glyph-name="dotaccent.salt" horiz-adv-x="253" 
d="M198 567h-143v30h143v-30z" />
    <glyph glyph-name="ringacute.salt" horiz-adv-x="295" 
d="M240 615c0 -50 -36 -90 -92 -90c-55 0 -93 40 -93 90c0 31 14 55 34 71l128 103l16 -20l-84 -66c56 0 91 -36 91 -88zM213 615c0 34 -24 62 -64 62c-42 0 -65 -28 -65 -62s23 -63 65 -63c40 0 64 28 64 63z" />
    <glyph glyph-name="ring.salt" horiz-adv-x="295" 
d="M240 615c0 -50 -36 -90 -92 -90c-55 0 -93 40 -93 90s38 89 93 89c56 0 92 -39 92 -89zM213 615c0 34 -24 62 -64 62c-42 0 -65 -28 -65 -62s23 -63 65 -63c40 0 64 28 64 63z" />
    <glyph glyph-name="cedilla.salt" horiz-adv-x="280" 
d="M144 -174c-45 0 -77 13 -102 34l17 24c23 -20 51 -30 85 -30c40 0 57 14 57 35c0 20 -23 33 -52 33c-18 0 -33 -4 -49 -13l-21 16l33 75h28l-27 -60c13 7 31 8 40 8c43 0 78 -21 78 -59c0 -36 -29 -63 -87 -63z" />
    <glyph glyph-name="hungarumlaut.salt" horiz-adv-x="405" 
d="M56 579l142 93l17 -25l-143 -93zM191 579l142 93l17 -25l-143 -93z" />
    <glyph glyph-name="ogonek.salt" horiz-adv-x="266" 
d="M119 0h46c-56 -25 -92 -57 -92 -95c0 -31 24 -44 51 -44s49 11 62 20l13 -23c-12 -10 -44 -25 -75 -25c-49 0 -81 27 -81 72c0 37 30 73 76 95z" />
    <glyph glyph-name="caron.salt" horiz-adv-x="378" 
d="M323 632l-134 -93l-134 93l18 25l116 -80l116 80z" />
    <glyph glyph-name="commaaccent.salt" horiz-adv-x="140" 
d="M55 -208v157h30v-157h-30z" />
    <glyph glyph-name="commatop.salt" horiz-adv-x="140" 
d="M55 554v157h30v-157h-30z" />
    <glyph glyph-name="caronslovak.salt" horiz-adv-x="140" 
d="M55 463v207h30v-207h-30z" />
    <glyph glyph-name="parenleft.subs.salt" horiz-adv-x="177" 
d="M86 177c0 -92 28 -170 86 -235l-21 -19c-41 39 -96 131 -96 254s55 215 96 254l21 -19c-58 -65 -86 -143 -86 -235z" />
    <glyph glyph-name="parenright.subs.salt" horiz-adv-x="178" 
d="M92 177c0 92 -29 169 -87 234l22 20c41 -39 96 -131 96 -254s-55 -215 -96 -254l-22 20c58 65 87 142 87 234z" />
    <glyph glyph-name="parenleft.sups.salt" horiz-adv-x="177" 
d="M86 441c0 -92 28 -170 86 -235l-21 -19c-41 39 -96 131 -96 254s55 215 96 254l21 -19c-58 -65 -86 -143 -86 -235z" />
    <glyph glyph-name="parenright.sups.salt" horiz-adv-x="178" 
d="M92 441c0 92 -29 169 -87 234l22 20c41 -39 96 -131 96 -254s-55 -215 -96 -254l-22 20c58 65 87 142 87 234z" />
    <glyph glyph-name="Adieresis.salt" horiz-adv-x="610" 
d="M501 0l-61 164h-274l-61 -164h-88l240 627h96l240 -627h-92zM303 534l-111 -298h221zM277 709h-125v30h125v-30zM460 709h-125v30h125v-30z" />
    <glyph glyph-name="Aring.salt" horiz-adv-x="610" 
d="M501 0l-61 164h-274l-61 -164h-88l235 614c-26 16 -41 44 -41 76c0 50 38 89 93 89c56 0 92 -39 92 -89c0 -32 -14 -59 -39 -75l236 -615h-92zM303 534l-111 -298h221zM369 690c0 34 -24 62 -64 62c-42 0 -65 -28 -65 -62c0 -33 21 -61 59 -63h12c36 2 58 29 58 63z" />
    <glyph glyph-name="Aringacute.salt" horiz-adv-x="610" 
d="M396 690c0 -32 -14 -59 -39 -75l236 -615h-92l-61 164h-274l-61 -164h-88l235 614c-26 16 -41 44 -41 76c0 31 14 55 34 71l128 103l16 -20l-84 -66c56 0 91 -36 91 -88zM303 534l-111 -298h221zM369 690c0 34 -24 62 -64 62c-42 0 -65 -28 -65 -62c0 -33 21 -61 59 -63
h6c40 0 64 28 64 63z" />
    <glyph glyph-name="Agrave.salt" horiz-adv-x="610" 
d="M501 0l-61 164h-274l-61 -164h-88l240 627h96l240 -627h-92zM303 534l-111 -298h221zM223 811l184 -94l-14 -27l-185 94z" />
    <glyph glyph-name="Atilde.salt" horiz-adv-x="610" 
d="M501 0l-61 164h-274l-61 -164h-88l240 627h96l240 -627h-92zM303 534l-111 -298h221zM364 720c26 0 39 27 42 73h31c-3 -70 -30 -103 -73 -103c-55 0 -78 73 -116 73c-26 0 -39 -26 -42 -73h-31c3 70 30 103 73 103c55 0 77 -73 116 -73z" />
    <glyph glyph-name="Acircumflex.salt" horiz-adv-x="610" 
d="M501 0l-61 164h-274l-61 -164h-88l240 627h96l240 -627h-92zM303 534l-111 -298h221zM172 714l134 93l134 -93l-18 -25l-116 80l-116 -80z" />
    <glyph glyph-name="Aacute.salt" horiz-adv-x="610" 
d="M501 0l-61 164h-274l-61 -164h-88l240 627h96l240 -627h-92zM303 534l-111 -298h221zM407 784l-184 -94l-15 27l185 94z" />
    <glyph glyph-name="Abreve.salt" horiz-adv-x="610" 
d="M501 0l-61 164h-274l-61 -164h-88l240 627h96l240 -627h-92zM303 534l-111 -298h221zM307 717c47 0 84 33 84 74h32c0 -67 -57 -105 -116 -105c-60 0 -117 38 -117 105h32c0 -41 37 -74 85 -74z" />
    <glyph glyph-name="Amacron.salt" horiz-adv-x="610" 
d="M501 0l-61 164h-274l-61 -164h-88l240 627h96l240 -627h-92zM303 534l-111 -298h221zM419 717h-225v30h225v-30z" />
    <glyph glyph-name="Aogonek.salt" horiz-adv-x="610" 
d="M353 627l240 -627c-56 -25 -92 -57 -92 -95c0 -31 24 -44 51 -44s49 11 62 20l13 -23c-12 -10 -44 -25 -75 -25c-49 0 -81 27 -81 72c0 37 30 73 76 95h-46l-61 164h-274l-61 -164h-88l240 627h96zM303 534l-111 -298h221z" />
    <glyph glyph-name="AEacute.salt" horiz-adv-x="897" 
d="M501 0l-61 164h-274l-61 -164h-88l240 627h395l27 -72h-299l77 -200h247l28 -71h-248l81 -213h305l27 -71h-396zM303 534l-111 -298h221zM557 784l-184 -94l-15 27l185 94z" />
    <glyph glyph-name="Ccedilla.salt" horiz-adv-x="663" 
d="M352 -174c-45 0 -77 13 -102 34l17 24c23 -20 51 -30 85 -30c40 0 57 14 57 35c0 20 -23 33 -52 33c-18 0 -33 -4 -49 -13l-21 16l28 64c-136 11 -255 113 -255 324c0 224 135 326 282 326c150 0 253 -91 261 -215l-81 -10c-8 74 -65 152 -181 152
c-98 0 -193 -73 -193 -252s95 -253 193 -253c116 0 173 78 181 152l81 -10c-8 -124 -111 -215 -261 -215l-21 -48c13 7 31 8 40 8c43 0 78 -21 78 -59c0 -36 -29 -63 -87 -63z" />
    <glyph glyph-name="Cacute.salt" horiz-adv-x="663" 
d="M148 314c0 -179 95 -253 193 -253c116 0 173 78 181 152l81 -10c-8 -124 -111 -215 -261 -215c-147 0 -282 101 -282 325s135 326 282 326c150 0 253 -91 261 -215l-81 -10c-8 74 -65 152 -181 152c-98 0 -193 -73 -193 -252zM441 784l-184 -94l-15 27l185 94z" />
    <glyph glyph-name="Ccaron.salt" horiz-adv-x="663" 
d="M148 314c0 -179 95 -253 193 -253c116 0 173 78 181 152l81 -10c-8 -124 -111 -215 -261 -215c-147 0 -282 101 -282 325s135 326 282 326c150 0 253 -91 261 -215l-81 -10c-8 74 -65 152 -181 152c-98 0 -193 -73 -193 -252zM475 782l-134 -93l-134 93l18 25l116 -80
l116 80z" />
    <glyph glyph-name="Ccircumflex.salt" horiz-adv-x="663" 
d="M148 314c0 -179 95 -253 193 -253c116 0 173 78 181 152l81 -10c-8 -124 -111 -215 -261 -215c-147 0 -282 101 -282 325s135 326 282 326c150 0 253 -91 261 -215l-81 -10c-8 74 -65 152 -181 152c-98 0 -193 -73 -193 -252zM207 714l134 93l134 -93l-18 -25l-116 80
l-116 -80z" />
    <glyph glyph-name="Cdotaccent.salt" horiz-adv-x="663" 
d="M148 314c0 -179 95 -253 193 -253c116 0 173 78 181 152l81 -10c-8 -124 -111 -215 -261 -215c-147 0 -282 101 -282 325s135 326 282 326c150 0 253 -91 261 -215l-81 -10c-8 74 -65 152 -181 152c-98 0 -193 -73 -193 -252zM413 717h-143v30h143v-30z" />
    <glyph glyph-name="Dcaron.salt" horiz-adv-x="647" 
d="M174 71h123c122 0 202 69 202 244c0 174 -80 241 -202 241h-123v-485zM297 0h-207v627h207c169 0 290 -89 290 -312c0 -224 -121 -315 -290 -315zM445 782l-134 -93l-134 93l18 25l116 -80l116 80z" />
    <glyph glyph-name="Dcroat.salt" horiz-adv-x="667" 
d="M40 298v31h70v298h207c169 0 290 -89 290 -312c0 -224 -121 -315 -290 -315h-207v298h-70zM194 71h123c122 0 202 69 202 244c0 174 -80 241 -202 241h-123v-227h139v-31h-139v-227z" />
    <glyph glyph-name="Eth.salt" horiz-adv-x="667" 
d="M40 298v31h70v298h207c169 0 290 -89 290 -312c0 -224 -121 -315 -290 -315h-207v298h-70zM194 71h123c122 0 202 69 202 244c0 174 -80 241 -202 241h-123v-227h139v-31h-139v-227z" />
    <glyph glyph-name="Eacute.salt" horiz-adv-x="575" 
d="M515 0h-425v627h419v-72h-335v-200h284v-71h-284v-213h341v-71zM405 784l-184 -94l-15 27l185 94z" />
    <glyph glyph-name="Ecircumflex.salt" horiz-adv-x="575" 
d="M515 0h-425v627h419v-72h-335v-200h284v-71h-284v-213h341v-71zM172 714l134 93l134 -93l-18 -25l-116 80l-116 -80z" />
    <glyph glyph-name="Edieresis.salt" horiz-adv-x="575" 
d="M515 0h-425v627h419v-72h-335v-200h284v-71h-284v-213h341v-71zM276 709h-125v30h125v-30zM459 709h-125v30h125v-30z" />
    <glyph glyph-name="Egrave.salt" horiz-adv-x="575" 
d="M515 0h-425v627h419v-72h-335v-200h284v-71h-284v-213h341v-71zM221 811l184 -94l-14 -27l-185 94z" />
    <glyph glyph-name="Ebreve.salt" horiz-adv-x="575" 
d="M515 0h-425v627h419v-72h-335v-200h284v-71h-284v-213h341v-71zM306 717c47 0 84 33 84 74h32c0 -67 -57 -105 -116 -105c-60 0 -117 38 -117 105h32c0 -41 37 -74 85 -74z" />
    <glyph glyph-name="Ecaron.salt" horiz-adv-x="575" 
d="M515 0h-425v627h419v-72h-335v-200h284v-71h-284v-213h341v-71zM440 782l-134 -93l-134 93l18 25l116 -80l116 80z" />
    <glyph glyph-name="Edotaccent.salt" horiz-adv-x="575" 
d="M515 0h-425v627h419v-72h-335v-200h284v-71h-284v-213h341v-71zM377 717h-143v30h143v-30z" />
    <glyph glyph-name="Emacron.salt" horiz-adv-x="575" 
d="M515 0h-425v627h419v-72h-335v-200h284v-71h-284v-213h341v-71zM418 717h-225v30h225v-30z" />
    <glyph glyph-name="Eogonek.salt" horiz-adv-x="575" 
d="M515 71v-71c-56 -25 -92 -57 -92 -95c0 -31 24 -44 51 -44s49 11 62 20l13 -23c-12 -10 -44 -25 -75 -25c-49 0 -81 27 -81 72c0 37 30 73 76 95h-379v627h419v-72h-335v-200h284v-71h-284v-213h341z" />
    <glyph glyph-name="Gbreve.salt" horiz-adv-x="683" 
d="M60 315c0 221 135 324 282 324c150 0 253 -91 261 -215l-81 -10c-8 74 -65 152 -181 152c-98 0 -193 -73 -193 -252c0 -167 81 -254 205 -254c67 0 132 28 164 75v119h-211v71h295v-325h-53l-17 114c-26 -74 -101 -126 -197 -126c-152 0 -274 108 -274 327zM342 717
c47 0 84 33 84 74h32c0 -67 -57 -105 -116 -105c-60 0 -117 38 -117 105h32c0 -41 37 -74 85 -74z" />
    <glyph glyph-name="Gcircumflex.salt" horiz-adv-x="683" 
d="M60 315c0 221 135 324 282 324c150 0 253 -91 261 -215l-81 -10c-8 74 -65 152 -181 152c-98 0 -193 -73 -193 -252c0 -167 81 -254 205 -254c67 0 132 28 164 75v119h-211v71h295v-325h-53l-17 114c-26 -74 -101 -126 -197 -126c-152 0 -274 108 -274 327zM207 714
l134 93l134 -93l-18 -25l-116 80l-116 -80z" />
    <glyph glyph-name="Gcommaaccent.salt" horiz-adv-x="683" 
d="M60 315c0 221 135 324 282 324c150 0 253 -91 261 -215l-81 -10c-8 74 -65 152 -181 152c-98 0 -193 -73 -193 -252c0 -167 81 -254 205 -254c67 0 132 28 164 75v119h-211v71h295v-325h-53l-17 114c-26 -74 -101 -126 -197 -126c-152 0 -274 108 -274 327zM326 -222v157
h30v-157h-30z" />
    <glyph glyph-name="Gdotaccent.salt" horiz-adv-x="683" 
d="M60 315c0 221 135 324 282 324c150 0 253 -91 261 -215l-81 -10c-8 74 -65 152 -181 152c-98 0 -193 -73 -193 -252c0 -167 81 -254 205 -254c67 0 132 28 164 75v119h-211v71h295v-325h-53l-17 114c-26 -74 -101 -126 -197 -126c-152 0 -274 108 -274 327zM413 717h-143
v30h143v-30z" />
    <glyph glyph-name="Hbar.salt" horiz-adv-x="692" 
d="M580 0h-85v284h-301v-284h-84v465h-70v31h70v131h84v-131h301v131h85v-131h72v-31h-72v-465zM194 355h301v110h-301v-110z" />
    <glyph glyph-name="Hcircumflex.salt" horiz-adv-x="650" 
d="M560 0h-85v284h-301v-284h-84v627h84v-272h301v272h85v-627zM190 714l134 93l134 -93l-18 -25l-116 80l-116 -80z" />
    <glyph glyph-name="I.salt" horiz-adv-x="264" 
d="M174 0h-84v627h84v-627z" />
    <glyph glyph-name="Iacute.salt" horiz-adv-x="264" 
d="M174 0h-84v627h84v-627zM232 784l-184 -94l-15 27l185 94z" />
    <glyph glyph-name="Icircumflex.salt" horiz-adv-x="264" 
d="M174 0h-84v627h84v-627zM-2 714l134 93l134 -93l-18 -25l-116 80l-116 -80z" />
    <glyph glyph-name="Idieresis.salt" horiz-adv-x="264" 
d="M103 709h-125v30h125v-30zM286 709h-125v30h125v-30zM174 0h-84v627h84v-627z" />
    <glyph glyph-name="Igrave.salt" horiz-adv-x="264" 
d="M47 811l184 -94l-14 -27l-185 94zM174 0h-84v627h84v-627z" />
    <glyph glyph-name="Ibreve.salt" horiz-adv-x="264" 
d="M132 717c47 0 84 33 84 74h32c0 -67 -57 -105 -116 -105c-60 0 -117 38 -117 105h32c0 -41 37 -74 85 -74zM174 0h-84v627h84v-627z" />
    <glyph glyph-name="Imacron.salt" horiz-adv-x="264" 
d="M245 717h-225v30h225v-30zM174 0h-84v627h84v-627z" />
    <glyph glyph-name="Iogonek.salt" horiz-adv-x="264" 
d="M174 0c-56 -25 -92 -57 -92 -95c0 -31 24 -44 51 -44s49 11 62 20l13 -23c-12 -10 -44 -25 -75 -25c-49 0 -81 27 -81 72c0 37 30 73 76 95h-38v627h84v-627z" />
    <glyph glyph-name="Itilde.salt" horiz-adv-x="264" 
d="M190 720c26 0 39 27 42 73h31c-3 -70 -30 -103 -73 -103c-55 0 -78 73 -116 73c-26 0 -39 -26 -42 -73h-31c3 70 30 103 73 103c55 0 77 -73 116 -73zM174 0h-84v627h84v-627z" />
    <glyph glyph-name="Idotaccent.salt" horiz-adv-x="264" 
d="M204 717h-143v30h143v-30zM174 0h-84v627h84v-627z" />
    <glyph glyph-name="IJ.salt" horiz-adv-x="614" 
d="M169 315h-84v312h84v-312zM302 -12c-143 0 -217 82 -217 188h84c0 -61 44 -115 133 -115c96 0 142 64 142 172v394h85v-402c0 -148 -74 -237 -227 -237z" />
    <glyph glyph-name="Iacute_Jacute.salt" horiz-adv-x="614" 
d="M169 315h-84v312h84v-312zM302 -12c-143 0 -217 82 -217 188h84c0 -61 44 -115 133 -115c96 0 142 64 142 172v394h85v-402c0 -148 -74 -237 -227 -237zM247 784l-184 -94l-15 27l185 94zM588 784l-184 -94l-15 27l185 94z" />
    <glyph glyph-name="J.salt" horiz-adv-x="542" 
d="M242 -12c-135 0 -207 88 -207 195c0 27 5 59 12 77l77 -14c-5 -22 -7 -35 -7 -57c0 -69 43 -128 125 -128c93 0 131 75 131 184v382h84v-395c0 -149 -73 -244 -215 -244z" />
    <glyph glyph-name="Jacute.salt" horiz-adv-x="542" 
d="M242 -12c-135 0 -207 88 -207 195c0 27 5 59 12 77l77 -14c-5 -22 -7 -35 -7 -57c0 -69 43 -128 125 -128c93 0 131 75 131 184v382h84v-395c0 -149 -73 -244 -215 -244zM517 784l-184 -94l-15 27l185 94z" />
    <glyph glyph-name="Jcircumflex.salt" horiz-adv-x="542" 
d="M242 -12c-135 0 -207 88 -207 195c0 27 5 59 12 77l77 -14c-5 -22 -7 -35 -7 -57c0 -69 43 -128 125 -128c93 0 131 75 131 184v382h84v-395c0 -149 -73 -244 -215 -244zM282 714l134 93l134 -93l-18 -25l-116 80l-116 -80z" />
    <glyph glyph-name="Kcommaaccent.salt" horiz-adv-x="602" 
d="M577 0h-104l-210 290l-89 -94v-196h-84v627h84v-325l297 325h105l-254 -276zM306 -208v157h30v-157h-30z" />
    <glyph glyph-name="Lslash.salt" horiz-adv-x="529" 
d="M504 0h-384v238l-63 -42l-17 26l80 54v351h84v-294l126 86l17 -27l-143 -97v-223h300v-72z" />
    <glyph glyph-name="Lacute.salt" horiz-adv-x="499" 
d="M474 0h-384v627h84v-555h300v-72zM232 784l-184 -94l-15 27l185 94z" />
    <glyph glyph-name="Lcaron.salt" horiz-adv-x="499" 
d="M474 0h-384v627h84v-555h300v-72zM323 421v207h30v-207h-30z" />
    <glyph glyph-name="Lcommaaccent.salt" horiz-adv-x="499" 
d="M474 0h-384v627h84v-555h300v-72zM261 -208v157h30v-157h-30z" />
    <glyph glyph-name="Ldot.salt" horiz-adv-x="499" 
d="M474 0h-384v627h84v-555h300v-72zM418 287h-143v30h143v-30z" />
    <glyph glyph-name="Ntilde.salt" horiz-adv-x="681" 
d="M591 0h-95l-322 512v-512h-84v627h106l311 -508v508h84v-627zM398 720c26 0 39 27 42 73h31c-3 -70 -30 -103 -73 -103c-55 0 -78 73 -116 73c-26 0 -39 -26 -42 -73h-31c3 70 30 103 73 103c55 0 77 -73 116 -73z" />
    <glyph glyph-name="Nacute.salt" horiz-adv-x="681" 
d="M591 0h-95l-322 512v-512h-84v627h106l311 -508v508h84v-627zM440 784l-184 -94l-15 27l185 94z" />
    <glyph glyph-name="Ncaron.salt" horiz-adv-x="681" 
d="M591 0h-95l-322 512v-512h-84v627h106l311 -508v508h84v-627zM474 782l-134 -93l-134 93l18 25l116 -80l116 80z" />
    <glyph glyph-name="Ncommaaccent.salt" horiz-adv-x="681" 
d="M591 0h-95l-322 512v-512h-84v627h106l311 -508v508h84v-627zM325 -208v157h30v-157h-30z" />
    <glyph glyph-name="Odieresis.salt" horiz-adv-x="690" 
d="M345 61c117 0 197 88 197 252s-80 253 -197 253s-197 -89 -197 -253s80 -252 197 -252zM345 -12c-153 0 -285 104 -285 325s132 326 285 326s285 -105 285 -326s-132 -325 -285 -325zM316 709h-125v30h125v-30zM499 709h-125v30h125v-30z" />
    <glyph glyph-name="Otilde.salt" horiz-adv-x="690" 
d="M345 61c117 0 197 88 197 252s-80 253 -197 253s-197 -89 -197 -253s80 -252 197 -252zM345 -12c-153 0 -285 104 -285 325s132 326 285 326s285 -105 285 -326s-132 -325 -285 -325zM403 720c26 0 39 27 42 73h31c-3 -70 -30 -103 -73 -103c-55 0 -78 73 -116 73
c-26 0 -39 -26 -42 -73h-31c3 70 30 103 73 103c55 0 77 -73 116 -73z" />
    <glyph glyph-name="Oacute.salt" horiz-adv-x="690" 
d="M345 61c117 0 197 88 197 252s-80 253 -197 253s-197 -89 -197 -253s80 -252 197 -252zM345 -12c-153 0 -285 104 -285 325s132 326 285 326s285 -105 285 -326s-132 -325 -285 -325zM445 784l-184 -94l-15 27l185 94z" />
    <glyph glyph-name="Ocircumflex.salt" horiz-adv-x="690" 
d="M345 61c117 0 197 88 197 252s-80 253 -197 253s-197 -89 -197 -253s80 -252 197 -252zM345 -12c-153 0 -285 104 -285 325s132 326 285 326s285 -105 285 -326s-132 -325 -285 -325zM211 714l134 93l134 -93l-18 -25l-116 80l-116 -80z" />
    <glyph glyph-name="Ograve.salt" horiz-adv-x="690" 
d="M345 61c117 0 197 88 197 252s-80 253 -197 253s-197 -89 -197 -253s80 -252 197 -252zM345 -12c-153 0 -285 104 -285 325s132 326 285 326s285 -105 285 -326s-132 -325 -285 -325zM261 811l184 -94l-14 -27l-185 94z" />
    <glyph glyph-name="Obreve.salt" horiz-adv-x="690" 
d="M345 61c117 0 197 88 197 252s-80 253 -197 253s-197 -89 -197 -253s80 -252 197 -252zM345 -12c-153 0 -285 104 -285 325s132 326 285 326s285 -105 285 -326s-132 -325 -285 -325zM346 717c47 0 84 33 84 74h32c0 -67 -57 -105 -116 -105c-60 0 -117 38 -117 105h32
c0 -41 37 -74 85 -74z" />
    <glyph glyph-name="Ohungarumlaut.salt" horiz-adv-x="690" 
d="M345 61c117 0 197 88 197 252s-80 253 -197 253s-197 -89 -197 -253s80 -252 197 -252zM345 -12c-153 0 -285 104 -285 325s132 326 285 326s285 -105 285 -326s-132 -325 -285 -325zM235 729l142 93l17 -25l-143 -93zM370 729l142 93l17 -25l-143 -93z" />
    <glyph glyph-name="Omacron.salt" horiz-adv-x="690" 
d="M345 61c117 0 197 88 197 252s-80 253 -197 253s-197 -89 -197 -253s80 -252 197 -252zM345 -12c-153 0 -285 104 -285 325s132 326 285 326s285 -105 285 -326s-132 -325 -285 -325zM458 717h-225v30h225v-30z" />
    <glyph glyph-name="Oslash.salt" horiz-adv-x="690" 
d="M119 -50l-27 16l62 92c-57 54 -94 138 -94 255c0 221 132 326 285 326c61 0 118 -17 166 -51l60 89l27 -16l-63 -93c58 -54 95 -138 95 -255c0 -221 -132 -325 -285 -325c-61 0 -119 17 -166 51zM148 313c0 -81 19 -143 53 -186l266 395c-33 29 -75 44 -122 44
c-117 0 -197 -89 -197 -253zM345 61c117 0 197 88 197 252c0 81 -20 143 -53 186l-266 -395c32 -28 74 -43 122 -43z" />
    <glyph glyph-name="Oslashacute.salt" horiz-adv-x="690" 
d="M119 -50l-27 16l62 92c-57 54 -94 138 -94 255c0 221 132 326 285 326c61 0 118 -17 166 -51l60 89l27 -16l-63 -93c58 -54 95 -138 95 -255c0 -221 -132 -325 -285 -325c-61 0 -119 17 -166 51zM148 313c0 -81 19 -143 53 -186l266 395c-33 29 -75 44 -122 44
c-117 0 -197 -89 -197 -253zM345 61c117 0 197 88 197 252c0 81 -20 143 -53 186l-266 -395c32 -28 74 -43 122 -43zM438 784l-184 -94l-15 27l185 94z" />
    <glyph glyph-name="Racute.salt" horiz-adv-x="620" 
d="M174 0h-84v627h238c118 0 216 -43 216 -174c0 -78 -63 -150 -178 -155c201 -7 140 -217 209 -298h-90c-59 61 -8 269 -183 269h-128v-269zM316 338c67 0 140 28 140 114c0 85 -73 103 -140 103h-142v-217h142zM405 784l-184 -94l-15 27l185 94z" />
    <glyph glyph-name="Rcaron.salt" horiz-adv-x="620" 
d="M174 0h-84v627h238c118 0 216 -43 216 -174c0 -78 -63 -150 -178 -155c201 -7 140 -217 209 -298h-90c-59 61 -8 269 -183 269h-128v-269zM316 338c67 0 140 28 140 114c0 85 -73 103 -140 103h-142v-217h142zM436 782l-134 -93l-134 93l18 25l116 -80l116 80z" />
    <glyph glyph-name="Rcommaaccent.salt" horiz-adv-x="620" 
d="M174 0h-84v627h238c118 0 216 -43 216 -174c0 -78 -63 -150 -178 -155c201 -7 140 -217 209 -298h-90c-59 61 -8 269 -183 269h-128v-269zM316 338c67 0 140 28 140 114c0 85 -73 103 -140 103h-142v-217h142zM307 -208v157h30v-157h-30z" />
    <glyph glyph-name="Scaron.salt" horiz-adv-x="591" 
d="M308 -12c-152 0 -248 94 -255 205l81 10c5 -55 57 -142 174 -142c92 0 145 51 145 108c0 56 -39 83 -131 104l-95 22c-86 20 -157 66 -157 166c0 95 77 178 220 178c148 0 228 -83 236 -181l-81 -10c-9 67 -67 118 -155 118c-87 0 -135 -46 -135 -104
c0 -54 39 -78 109 -94l93 -21c121 -27 181 -75 181 -171c0 -113 -95 -188 -230 -188zM435 782l-134 -93l-134 93l18 25l116 -80l116 80z" />
    <glyph glyph-name="Sacute.salt" horiz-adv-x="591" 
d="M308 -12c-152 0 -248 94 -255 205l81 10c5 -55 57 -142 174 -142c92 0 145 51 145 108c0 56 -39 83 -131 104l-95 22c-86 20 -157 66 -157 166c0 95 77 178 220 178c148 0 228 -83 236 -181l-81 -10c-9 67 -67 118 -155 118c-87 0 -135 -46 -135 -104
c0 -54 39 -78 109 -94l93 -21c121 -27 181 -75 181 -171c0 -113 -95 -188 -230 -188zM400 784l-184 -94l-15 27l185 94z" />
    <glyph glyph-name="Scedilla.salt" horiz-adv-x="591" 
d="M314 -174c-45 0 -77 13 -102 34l17 24c23 -20 51 -30 85 -30c40 0 57 14 57 35c0 20 -23 33 -52 33c-18 0 -33 -4 -49 -13l-21 16l28 65c-134 11 -218 99 -224 203l81 10c5 -55 57 -142 174 -142c92 0 145 51 145 108c0 56 -39 83 -131 104l-95 22
c-86 20 -157 66 -157 166c0 95 77 178 220 178c148 0 228 -83 236 -181l-81 -10c-9 67 -67 118 -155 118c-87 0 -135 -46 -135 -104c0 -54 39 -78 109 -94l93 -21c121 -27 181 -75 181 -171c0 -113 -95 -188 -230 -188h-4l-21 -48c13 7 31 8 40 8c43 0 78 -21 78 -59
c0 -36 -29 -63 -87 -63z" />
    <glyph glyph-name="Scircumflex.salt" horiz-adv-x="591" 
d="M308 -12c-152 0 -248 94 -255 205l81 10c5 -55 57 -142 174 -142c92 0 145 51 145 108c0 56 -39 83 -131 104l-95 22c-86 20 -157 66 -157 166c0 95 77 178 220 178c148 0 228 -83 236 -181l-81 -10c-9 67 -67 118 -155 118c-87 0 -135 -46 -135 -104
c0 -54 39 -78 109 -94l93 -21c121 -27 181 -75 181 -171c0 -113 -95 -188 -230 -188zM166 714l134 93l134 -93l-18 -25l-116 80l-116 -80z" />
    <glyph glyph-name="Scommaaccent.salt" horiz-adv-x="591" 
d="M308 -12c-152 0 -248 94 -255 205l81 10c5 -55 57 -142 174 -142c92 0 145 51 145 108c0 56 -39 83 -131 104l-95 22c-86 20 -157 66 -157 166c0 95 77 178 220 178c148 0 228 -83 236 -181l-81 -10c-9 67 -67 118 -155 118c-87 0 -135 -46 -135 -104
c0 -54 39 -78 109 -94l93 -21c121 -27 181 -75 181 -171c0 -113 -95 -188 -230 -188zM285 -208v157h30v-157h-30z" />
    <glyph glyph-name="Tbar.salt" horiz-adv-x="542" 
d="M139 286v31h90v238h-199v72h482v-72h-199v-238h90v-31h-90v-286h-84v286h-90z" />
    <glyph glyph-name="Tcaron.salt" horiz-adv-x="542" 
d="M313 0h-84v555h-199v72h482v-72h-199v-555zM405 782l-134 -93l-134 93l18 25l116 -80l116 80z" />
    <glyph glyph-name="Tcommaaccent.salt" horiz-adv-x="542" 
d="M313 0h-84v555h-199v72h482v-72h-199v-555zM256 -208v157h30v-157h-30z" />
    <glyph glyph-name="uni021A.salt" horiz-adv-x="542" 
d="M313 0h-84v555h-199v72h482v-72h-199v-555zM256 -208v157h30v-157h-30z" />
    <glyph glyph-name="Udieresis.salt" horiz-adv-x="656" 
d="M328 59c92 0 159 57 159 183v385h84v-391c0 -154 -82 -248 -243 -248s-243 94 -243 248v391h84v-385c0 -126 67 -183 159 -183zM299 709h-125v30h125v-30zM482 709h-125v30h125v-30z" />
    <glyph glyph-name="Uacute.salt" horiz-adv-x="656" 
d="M328 59c92 0 159 57 159 183v385h84v-391c0 -154 -82 -248 -243 -248s-243 94 -243 248v391h84v-385c0 -126 67 -183 159 -183zM428 784l-184 -94l-15 27l185 94z" />
    <glyph glyph-name="Ucircumflex.salt" horiz-adv-x="656" 
d="M328 59c92 0 159 57 159 183v385h84v-391c0 -154 -82 -248 -243 -248s-243 94 -243 248v391h84v-385c0 -126 67 -183 159 -183zM194 714l134 93l134 -93l-18 -25l-116 80l-116 -80z" />
    <glyph glyph-name="Ugrave.salt" horiz-adv-x="656" 
d="M328 59c92 0 159 57 159 183v385h84v-391c0 -154 -82 -248 -243 -248s-243 94 -243 248v391h84v-385c0 -126 67 -183 159 -183zM244 811l184 -94l-14 -27l-185 94z" />
    <glyph glyph-name="Ubreve.salt" horiz-adv-x="656" 
d="M328 59c92 0 159 57 159 183v385h84v-391c0 -154 -82 -248 -243 -248s-243 94 -243 248v391h84v-385c0 -126 67 -183 159 -183zM329 717c47 0 84 33 84 74h32c0 -67 -57 -105 -116 -105c-60 0 -117 38 -117 105h32c0 -41 37 -74 85 -74z" />
    <glyph glyph-name="Uhungarumlaut.salt" horiz-adv-x="656" 
d="M328 59c92 0 159 57 159 183v385h84v-391c0 -154 -82 -248 -243 -248s-243 94 -243 248v391h84v-385c0 -126 67 -183 159 -183zM223 729l142 93l17 -25l-143 -93zM358 729l142 93l17 -25l-143 -93z" />
    <glyph glyph-name="Umacron.salt" horiz-adv-x="656" 
d="M328 59c92 0 159 57 159 183v385h84v-391c0 -154 -82 -248 -243 -248s-243 94 -243 248v391h84v-385c0 -126 67 -183 159 -183zM441 717h-225v30h225v-30z" />
    <glyph glyph-name="Uogonek.salt" horiz-adv-x="656" 
d="M328 59c92 0 159 57 159 183v385h84v-391c0 -137 -59 -216 -186 -246c-47 -11 -81 -53 -81 -85c0 -31 24 -44 51 -44s49 11 62 20l13 -23c-12 -10 -44 -25 -75 -25c-49 0 -82 27 -82 72c0 34 24 62 58 83h-3c-161 0 -243 94 -243 248v391h84v-385
c0 -126 67 -183 159 -183z" />
    <glyph glyph-name="Uring.salt" horiz-adv-x="656" 
d="M328 59c92 0 159 57 159 183v385h84v-391c0 -154 -82 -248 -243 -248s-243 94 -243 248v391h84v-385c0 -126 67 -183 159 -183zM420 755c0 -50 -36 -90 -92 -90c-55 0 -93 40 -93 90s38 89 93 89c56 0 92 -39 92 -89zM393 755c0 34 -24 62 -64 62c-42 0 -65 -28 -65 -62
s23 -63 65 -63c40 0 64 28 64 63z" />
    <glyph glyph-name="Utilde.salt" horiz-adv-x="656" 
d="M328 59c92 0 159 57 159 183v385h84v-391c0 -154 -82 -248 -243 -248s-243 94 -243 248v391h84v-385c0 -126 67 -183 159 -183zM386 720c26 0 39 27 42 73h31c-3 -70 -30 -103 -73 -103c-55 0 -78 73 -116 73c-26 0 -39 -26 -42 -73h-31c3 70 30 103 73 103
c55 0 77 -73 116 -73z" />
    <glyph glyph-name="Wacute.salt" horiz-adv-x="915" 
d="M560 784l-184 -94l-15 27l185 94zM700 0h-96l-144 533l-146 -533h-102l-182 627h88l147 -533l146 533h98l143 -533l148 533h85z" />
    <glyph glyph-name="Wcircumflex.salt" horiz-adv-x="915" 
d="M327 714l134 93l134 -93l-18 -25l-116 80l-116 -80zM700 0h-96l-144 533l-146 -533h-102l-182 627h88l147 -533l146 533h98l143 -533l148 533h85z" />
    <glyph glyph-name="Wdieresis.salt" horiz-adv-x="915" 
d="M432 709h-125v30h125v-30zM615 709h-125v30h125v-30zM700 0h-96l-144 533l-146 -533h-102l-182 627h88l147 -533l146 533h98l143 -533l148 533h85z" />
    <glyph glyph-name="Wgrave.salt" horiz-adv-x="915" 
d="M377 811l184 -94l-14 -27l-185 94zM700 0h-96l-144 533l-146 -533h-102l-182 627h88l147 -533l146 533h98l143 -533l148 533h85z" />
    <glyph glyph-name="uni1E8A.salt" horiz-adv-x="607" 
d="M302 260l-172 -260h-100l220 317l-213 310h102l164 -249l165 249h100l-214 -308l223 -319h-102zM374 717h-143v30h143v-30z" />
    <glyph glyph-name="Yacute.salt" horiz-adv-x="581" 
d="M331 0h-88v250l-228 377h99l175 -299l180 299h97l-235 -375v-252zM390 784l-184 -94l-15 27l185 94z" />
    <glyph glyph-name="Ydieresis.salt" horiz-adv-x="581" 
d="M331 0h-88v250l-228 377h99l175 -299l180 299h97l-235 -375v-252zM260 709h-125v30h125v-30zM443 709h-125v30h125v-30z" />
    <glyph glyph-name="Ycircumflex.salt" horiz-adv-x="581" 
d="M331 0h-88v250l-228 377h99l175 -299l180 299h97l-235 -375v-252zM156 714l134 93l134 -93l-18 -25l-116 80l-116 -80z" />
    <glyph glyph-name="Ygrave.salt" horiz-adv-x="581" 
d="M331 0h-88v250l-228 377h99l175 -299l180 299h97l-235 -375v-252zM206 811l184 -94l-14 -27l-185 94z" />
    <glyph glyph-name="Zcaron.salt" horiz-adv-x="525" 
d="M480 0h-435v50l327 507h-321v70h427v-50l-324 -509h326v-68zM398 782l-134 -93l-134 93l18 25l116 -80l116 80z" />
    <glyph glyph-name="Zacute.salt" horiz-adv-x="525" 
d="M480 0h-435v50l327 507h-321v70h427v-50l-324 -509h326v-68zM369 784l-184 -94l-15 27l185 94z" />
    <glyph glyph-name="Zdotaccent.salt" horiz-adv-x="525" 
d="M480 0h-435v50l327 507h-321v70h427v-50l-324 -509h326v-68zM341 717h-143v30h143v-30z" />
    <glyph glyph-name="uni01B5.salt" horiz-adv-x="525" 
d="M98 297v31h126l148 229h-321v70h427v-50l-159 -249h112v-31h-131l-146 -229h326v-68h-435v50l159 247h-106z" />
    <glyph glyph-name="aacute.salt" horiz-adv-x="520" 
d="M438 -10c-57 0 -89 35 -84 101l2 28c-24 -89 -101 -129 -174 -129c-76 0 -132 43 -132 117c0 105 103 158 245 169l53 4c0 12 1 29 1 41c0 70 -36 99 -99 99c-62 0 -102 -33 -102 -94c0 -7 1 -14 2 -20l-74 -4c-3 10 -4 22 -4 32c0 87 72 152 178 152
c105 0 183 -50 183 -169c0 -59 -5 -165 -5 -220c0 -45 21 -48 35 -48c10 0 20 2 26 5l11 -48c-13 -8 -37 -16 -62 -16zM350 228l-46 -4c-105 -9 -169 -41 -169 -106c0 -40 26 -66 70 -66c55 0 108 33 143 85zM353 634l-184 -94l-15 27l185 94z" />
    <glyph glyph-name="agrave.salt" horiz-adv-x="520" 
d="M438 -10c-57 0 -89 35 -84 101l2 28c-24 -89 -101 -129 -174 -129c-76 0 -132 43 -132 117c0 105 103 158 245 169l53 4c0 12 1 29 1 41c0 70 -36 99 -99 99c-62 0 -102 -33 -102 -94c0 -7 1 -14 2 -20l-74 -4c-3 10 -4 22 -4 32c0 87 72 152 178 152
c105 0 183 -50 183 -169c0 -59 -5 -165 -5 -220c0 -45 21 -48 35 -48c10 0 20 2 26 5l11 -48c-13 -8 -37 -16 -62 -16zM350 228l-46 -4c-105 -9 -169 -41 -169 -106c0 -40 26 -66 70 -66c55 0 108 33 143 85zM169 661l184 -94l-14 -27l-185 94z" />
    <glyph glyph-name="acircumflex.salt" horiz-adv-x="520" 
d="M438 -10c-57 0 -89 35 -84 101l2 28c-24 -89 -101 -129 -174 -129c-76 0 -132 43 -132 117c0 105 103 158 245 169l53 4c0 12 1 29 1 41c0 70 -36 99 -99 99c-62 0 -102 -33 -102 -94c0 -7 1 -14 2 -20l-74 -4c-3 10 -4 22 -4 32c0 87 72 152 178 152
c105 0 183 -50 183 -169c0 -59 -5 -165 -5 -220c0 -45 21 -48 35 -48c10 0 20 2 26 5l11 -48c-13 -8 -37 -16 -62 -16zM350 228l-46 -4c-105 -9 -169 -41 -169 -106c0 -40 26 -66 70 -66c55 0 108 33 143 85zM119 564l134 93l134 -93l-18 -25l-116 80l-116 -80z" />
    <glyph glyph-name="adieresis.salt" horiz-adv-x="520" 
d="M438 -10c-57 0 -89 35 -84 101l2 28c-24 -89 -101 -129 -174 -129c-76 0 -132 43 -132 117c0 105 103 158 245 169l53 4c0 12 1 29 1 41c0 70 -36 99 -99 99c-62 0 -102 -33 -102 -94c0 -7 1 -14 2 -20l-74 -4c-3 10 -4 22 -4 32c0 87 72 152 178 152
c105 0 183 -50 183 -169c0 -59 -5 -165 -5 -220c0 -45 21 -48 35 -48c10 0 20 2 26 5l11 -48c-13 -8 -37 -16 -62 -16zM350 228l-46 -4c-105 -9 -169 -41 -169 -106c0 -40 26 -66 70 -66c55 0 108 33 143 85zM224 559h-125v30h125v-30zM407 559h-125v30h125v-30z" />
    <glyph glyph-name="atilde.salt" horiz-adv-x="520" 
d="M438 -10c-57 0 -89 35 -84 101l2 28c-24 -89 -101 -129 -174 -129c-76 0 -132 43 -132 117c0 105 103 158 245 169l53 4c0 12 1 29 1 41c0 70 -36 99 -99 99c-62 0 -102 -33 -102 -94c0 -7 1 -14 2 -20l-74 -4c-3 10 -4 22 -4 32c0 87 72 152 178 152
c105 0 183 -50 183 -169c0 -59 -5 -165 -5 -220c0 -45 21 -48 35 -48c10 0 20 2 26 5l11 -48c-13 -8 -37 -16 -62 -16zM350 228l-46 -4c-105 -9 -169 -41 -169 -106c0 -40 26 -66 70 -66c55 0 108 33 143 85zM311 570c26 0 39 27 42 73h31c-3 -70 -30 -103 -73 -103
c-55 0 -78 73 -116 73c-26 0 -39 -26 -42 -73h-31c3 70 30 103 73 103c55 0 77 -73 116 -73z" />
    <glyph glyph-name="aring.salt" horiz-adv-x="520" 
d="M438 -10c-57 0 -89 35 -84 101l2 28c-24 -89 -101 -129 -174 -129c-76 0 -132 43 -132 117c0 105 103 158 245 169l53 4c0 12 1 29 1 41c0 70 -36 99 -99 99c-62 0 -102 -33 -102 -94c0 -7 1 -14 2 -20l-74 -4c-3 10 -4 22 -4 32c0 87 72 152 178 152
c105 0 183 -50 183 -169c0 -59 -5 -165 -5 -220c0 -45 21 -48 35 -48c10 0 20 2 26 5l11 -48c-13 -8 -37 -16 -62 -16zM350 228l-46 -4c-105 -9 -169 -41 -169 -106c0 -40 26 -66 70 -66c55 0 108 33 143 85zM346 615c0 -50 -36 -90 -92 -90c-55 0 -93 40 -93 90
s38 89 93 89c56 0 92 -39 92 -89zM319 615c0 34 -24 62 -64 62c-42 0 -65 -28 -65 -62s23 -63 65 -63c40 0 64 28 64 63z" />
    <glyph glyph-name="aringacute.salt" horiz-adv-x="520" 
d="M438 -10c-57 0 -89 35 -84 101l2 28c-24 -89 -101 -129 -174 -129c-76 0 -132 43 -132 117c0 105 103 158 245 169l53 4c0 12 1 29 1 41c0 70 -36 99 -99 99c-62 0 -102 -33 -102 -94c0 -7 1 -14 2 -20l-74 -4c-3 10 -4 22 -4 32c0 87 72 152 178 152
c105 0 183 -50 183 -169c0 -59 -5 -165 -5 -220c0 -45 21 -48 35 -48c10 0 20 2 26 5l11 -48c-13 -8 -37 -16 -62 -16zM350 228l-46 -4c-105 -9 -169 -41 -169 -106c0 -40 26 -66 70 -66c55 0 108 33 143 85zM346 615c0 -50 -36 -90 -92 -90c-55 0 -93 40 -93 90
c0 31 14 55 34 71l128 103l16 -20l-84 -66c56 0 91 -36 91 -88zM319 615c0 34 -24 62 -64 62c-42 0 -65 -28 -65 -62s23 -63 65 -63c40 0 64 28 64 63z" />
    <glyph glyph-name="abreve.salt" horiz-adv-x="520" 
d="M438 -10c-57 0 -89 35 -84 101l2 28c-24 -89 -101 -129 -174 -129c-76 0 -132 43 -132 117c0 105 103 158 245 169l53 4c0 12 1 29 1 41c0 70 -36 99 -99 99c-62 0 -102 -33 -102 -94c0 -7 1 -14 2 -20l-74 -4c-3 10 -4 22 -4 32c0 87 72 152 178 152
c105 0 183 -50 183 -169c0 -59 -5 -165 -5 -220c0 -45 21 -48 35 -48c10 0 20 2 26 5l11 -48c-13 -8 -37 -16 -62 -16zM350 228l-46 -4c-105 -9 -169 -41 -169 -106c0 -40 26 -66 70 -66c55 0 108 33 143 85zM254 567c47 0 84 33 84 74h32c0 -67 -57 -105 -116 -105
c-60 0 -117 38 -117 105h32c0 -41 37 -74 85 -74z" />
    <glyph glyph-name="amacron.salt" horiz-adv-x="520" 
d="M438 -10c-57 0 -89 35 -84 101l2 28c-24 -89 -101 -129 -174 -129c-76 0 -132 43 -132 117c0 105 103 158 245 169l53 4c0 12 1 29 1 41c0 70 -36 99 -99 99c-62 0 -102 -33 -102 -94c0 -7 1 -14 2 -20l-74 -4c-3 10 -4 22 -4 32c0 87 72 152 178 152
c105 0 183 -50 183 -169c0 -59 -5 -165 -5 -220c0 -45 21 -48 35 -48c10 0 20 2 26 5l11 -48c-13 -8 -37 -16 -62 -16zM350 228l-46 -4c-105 -9 -169 -41 -169 -106c0 -40 26 -66 70 -66c55 0 108 33 143 85zM366 567h-225v30h225v-30z" />
    <glyph glyph-name="aogonek.salt" horiz-adv-x="520" 
d="M414 -7c-43 8 -64 44 -60 98l2 28c-24 -89 -101 -129 -174 -129c-76 0 -132 43 -132 117c0 105 103 158 245 169l53 4c0 12 1 29 1 41c0 70 -36 99 -99 99c-62 0 -102 -33 -102 -94c0 -7 1 -14 2 -20l-74 -4c-3 10 -4 22 -4 32c0 87 72 152 178 152
c105 0 183 -50 183 -169c0 -59 -5 -165 -5 -220c0 -45 21 -48 35 -48c10 0 20 2 26 5l11 -48c-10 -6 -27 -10 -44 -17c-55 -23 -80 -50 -80 -83c0 -31 24 -45 51 -45s49 11 62 20l13 -23c-12 -10 -44 -25 -75 -25c-49 0 -82 28 -82 73c0 37 29 70 69 87zM350 228l-46 -4
c-105 -9 -169 -41 -169 -106c0 -41 26 -66 70 -66c55 0 108 33 143 85z" />
    <glyph glyph-name="aeacute.salt" horiz-adv-x="811" 
d="M564 -10c-86 0 -161 36 -195 132c-11 -60 -69 -132 -180 -132c-84 0 -139 42 -139 117c0 105 103 158 245 169l59 4c0 3 1 18 1 41c0 70 -41 99 -105 99c-62 0 -102 -33 -102 -94c0 -7 1 -16 2 -20l-76 -4c-2 9 -3 22 -3 32c0 87 73 152 179 152c67 0 135 -23 157 -78
c27 53 90 78 150 78c138 0 199 -102 199 -221c0 -14 -1 -28 -3 -43h-319c5 -113 49 -166 130 -166c57 0 95 38 105 97l75 -14c-7 -87 -83 -149 -180 -149zM352 228l-48 -4c-105 -10 -169 -45 -169 -108c0 -37 28 -63 71 -63c63 0 112 34 144 79zM557 421
c-59 0 -111 -39 -122 -139h238c-4 95 -42 139 -116 139zM507 634l-184 -94l-15 27l185 94z" />
    <glyph glyph-name="ccedilla.salt" horiz-adv-x="513" 
d="M274 -174c-45 0 -77 13 -102 34l17 24c23 -20 51 -30 85 -30c40 0 57 14 57 35c0 20 -23 33 -52 33c-18 0 -33 -4 -49 -13l-21 16l29 67c-101 11 -183 87 -183 246c0 174 99 248 213 248c101 0 180 -53 191 -149l-75 -14c-7 55 -50 97 -116 97c-69 0 -128 -48 -128 -182
s59 -182 128 -182c66 0 109 42 116 97l75 -14c-11 -96 -90 -149 -191 -149h-3l-22 -50c13 7 31 8 40 8c43 0 78 -21 78 -59c0 -36 -29 -63 -87 -63z" />
    <glyph glyph-name="cacute.salt" horiz-adv-x="513" 
d="M55 238c0 174 99 248 213 248c101 0 180 -53 191 -149l-75 -14c-7 55 -50 97 -116 97c-69 0 -128 -48 -128 -182s59 -182 128 -182c66 0 109 42 116 97l75 -14c-11 -96 -90 -149 -191 -149c-114 0 -213 74 -213 248zM368 634l-184 -94l-15 27l185 94z" />
    <glyph glyph-name="ccaron.salt" horiz-adv-x="513" 
d="M55 238c0 174 99 248 213 248c101 0 180 -53 191 -149l-75 -14c-7 55 -50 97 -116 97c-69 0 -128 -48 -128 -182s59 -182 128 -182c66 0 109 42 116 97l75 -14c-11 -96 -90 -149 -191 -149c-114 0 -213 74 -213 248zM402 632l-134 -93l-134 93l18 25l116 -80l116 80z" />
    <glyph glyph-name="ccircumflex.salt" horiz-adv-x="513" 
d="M55 238c0 174 99 248 213 248c101 0 180 -53 191 -149l-75 -14c-7 55 -50 97 -116 97c-69 0 -128 -48 -128 -182s59 -182 128 -182c66 0 109 42 116 97l75 -14c-11 -96 -90 -149 -191 -149c-114 0 -213 74 -213 248zM134 564l134 93l134 -93l-18 -25l-116 80l-116 -80z
" />
    <glyph glyph-name="cdotaccent.salt" horiz-adv-x="513" 
d="M55 238c0 174 99 248 213 248c101 0 180 -53 191 -149l-75 -14c-7 55 -50 97 -116 97c-69 0 -128 -48 -128 -182s59 -182 128 -182c66 0 109 42 116 97l75 -14c-11 -96 -90 -149 -191 -149c-114 0 -213 74 -213 248zM340 567h-143v30h143v-30z" />
    <glyph glyph-name="dcaron.salt" horiz-adv-x="552" 
d="M239 -10c-113 0 -184 100 -184 247c0 173 88 249 181 249c69 0 125 -27 150 -112v296h27c29 0 45 3 54 6v-676h-54l-17 115c-23 -101 -92 -125 -157 -125zM265 56c37 0 94 12 121 82v196c-23 63 -77 86 -116 86c-73 0 -130 -55 -130 -184c0 -120 54 -180 125 -180z
M548 463v207h30v-207h-30z" />
    <glyph glyph-name="eth.salt" horiz-adv-x="542" 
d="M237 501l-17 25l83 55c-30 22 -76 31 -112 31c-31 0 -56 -6 -70 -10l-11 52c18 6 53 12 91 12c50 0 112 -15 157 -48l83 58l17 -24l-77 -53c61 -59 106 -161 106 -328c0 -183 -81 -281 -220 -281c-114 0 -212 74 -212 227c0 148 94 221 199 221c61 0 117 -30 143 -85
c0 101 -33 169 -70 208zM402 272c0 16 -1 34 -2 48c-25 32 -64 53 -127 53c-77 0 -133 -51 -133 -155c0 -106 55 -162 127 -162c88 0 135 75 135 216z" />
    <glyph glyph-name="dcroat.salt" horiz-adv-x="552" 
d="M239 -10c-113 0 -184 100 -184 247c0 173 88 249 181 249c69 0 125 -27 150 -112v160h-123v29h123v107h27c30 0 43 3 54 6v-113h60v-29h-60v-534h-54l-17 115c-23 -101 -92 -125 -157 -125zM265 56c37 0 94 12 121 82v196c-23 63 -77 86 -116 86
c-73 0 -130 -55 -130 -184c0 -120 54 -180 125 -180z" />
    <glyph glyph-name="eacute.salt" horiz-adv-x="528" 
d="M272 -10c-125 0 -217 76 -217 248s95 248 214 248c141 0 204 -102 204 -221c0 -14 -1 -28 -3 -43h-330c5 -112 51 -166 132 -166c54 0 104 35 112 97l75 -14c-8 -87 -84 -149 -187 -149zM269 421c-61 0 -117 -40 -127 -141h248c-4 93 -52 141 -121 141zM368 634l-184 -94
l-15 27l185 94z" />
    <glyph glyph-name="egrave.salt" horiz-adv-x="528" 
d="M272 -10c-125 0 -217 76 -217 248s95 248 214 248c141 0 204 -102 204 -221c0 -14 -1 -28 -3 -43h-330c5 -112 51 -166 132 -166c54 0 104 35 112 97l75 -14c-8 -87 -84 -149 -187 -149zM269 421c-61 0 -117 -40 -127 -141h248c-4 93 -52 141 -121 141zM184 661l184 -94
l-14 -27l-185 94z" />
    <glyph glyph-name="ecircumflex.salt" horiz-adv-x="528" 
d="M272 -10c-125 0 -217 76 -217 248s95 248 214 248c141 0 204 -102 204 -221c0 -14 -1 -28 -3 -43h-330c5 -112 51 -166 132 -166c54 0 104 35 112 97l75 -14c-8 -87 -84 -149 -187 -149zM269 421c-61 0 -117 -40 -127 -141h248c-4 93 -52 141 -121 141zM134 564l134 93
l134 -93l-18 -25l-116 80l-116 -80z" />
    <glyph glyph-name="edieresis.salt" horiz-adv-x="528" 
d="M272 -10c-125 0 -217 76 -217 248s95 248 214 248c141 0 204 -102 204 -221c0 -14 -1 -28 -3 -43h-330c5 -112 51 -166 132 -166c54 0 104 35 112 97l75 -14c-8 -87 -84 -149 -187 -149zM269 421c-61 0 -117 -40 -127 -141h248c-4 93 -52 141 -121 141zM239 559h-125v30
h125v-30zM422 559h-125v30h125v-30z" />
    <glyph glyph-name="ebreve.salt" horiz-adv-x="528" 
d="M272 -10c-125 0 -217 76 -217 248s95 248 214 248c141 0 204 -102 204 -221c0 -14 -1 -28 -3 -43h-330c5 -112 51 -166 132 -166c54 0 104 35 112 97l75 -14c-8 -87 -84 -149 -187 -149zM269 421c-61 0 -117 -40 -127 -141h248c-4 93 -52 141 -121 141zM269 567
c47 0 84 33 84 74h32c0 -67 -57 -105 -116 -105c-60 0 -117 38 -117 105h32c0 -41 37 -74 85 -74z" />
    <glyph glyph-name="ecaron.salt" horiz-adv-x="528" 
d="M272 -10c-125 0 -217 76 -217 248s95 248 214 248c141 0 204 -102 204 -221c0 -14 -1 -28 -3 -43h-330c5 -112 51 -166 132 -166c54 0 104 35 112 97l75 -14c-8 -87 -84 -149 -187 -149zM269 421c-61 0 -117 -40 -127 -141h248c-4 93 -52 141 -121 141zM402 632l-134 -93
l-134 93l18 25l116 -80l116 80z" />
    <glyph glyph-name="edotaccent.salt" horiz-adv-x="528" 
d="M272 -10c-125 0 -217 76 -217 248s95 248 214 248c141 0 204 -102 204 -221c0 -14 -1 -28 -3 -43h-330c5 -112 51 -166 132 -166c54 0 104 35 112 97l75 -14c-8 -87 -84 -149 -187 -149zM269 421c-61 0 -117 -40 -127 -141h248c-4 93 -52 141 -121 141zM340 567h-143v30
h143v-30z" />
    <glyph glyph-name="emacron.salt" horiz-adv-x="528" 
d="M272 -10c-125 0 -217 76 -217 248s95 248 214 248c141 0 204 -102 204 -221c0 -14 -1 -28 -3 -43h-330c5 -112 51 -166 132 -166c54 0 104 35 112 97l75 -14c-8 -87 -84 -149 -187 -149zM269 421c-61 0 -117 -40 -127 -141h248c-4 93 -52 141 -121 141zM381 567h-225v30
h225v-30z" />
    <glyph glyph-name="eogonek.salt" horiz-adv-x="528" 
d="M272 -10c-125 0 -217 76 -217 248s95 248 214 248c143 0 204 -104 204 -221c0 -14 -1 -28 -3 -43h-330c5 -112 51 -166 132 -166c54 0 104 35 112 97l75 -14c-6 -67 -53 -115 -118 -141c-52 -21 -80 -60 -80 -93c0 -31 23 -44 50 -44s49 11 62 20l13 -23
c-12 -10 -44 -25 -75 -25c-49 0 -81 27 -81 72c0 32 21 63 52 85h-10zM269 421c-61 0 -117 -40 -127 -141h248c-4 94 -52 141 -121 141z" />
    <glyph glyph-name="gbreve.salt" horiz-adv-x="531" 
d="M265 -183c-134 0 -237 32 -237 116c0 48 45 87 135 94c-66 13 -101 45 -101 86c0 39 31 72 79 85c-44 25 -77 67 -77 131c0 98 90 157 190 157c35 0 71 -7 102 -21c8 58 43 89 107 89c15 0 31 -2 41 -4l-6 -74c-11 2 -25 3 -36 3c-33 0 -67 -4 -85 -24
c41 -25 70 -65 70 -126c0 -111 -93 -160 -191 -160c-30 0 -62 5 -91 17c-20 -12 -31 -32 -31 -47c0 -39 48 -49 112 -49h70c122 0 185 -53 185 -133c0 -99 -111 -140 -236 -140zM263 -135c97 0 154 26 154 82c0 44 -44 71 -132 71h-47c-76 0 -130 -27 -130 -78
c0 -47 53 -75 155 -75zM256 225c60 0 107 37 107 105c0 64 -47 99 -107 99c-58 0 -107 -35 -107 -99c0 -69 49 -105 107 -105zM269 567c47 0 84 33 84 74h32c0 -67 -57 -105 -116 -105c-60 0 -117 38 -117 105h32c0 -41 37 -74 85 -74z" />
    <glyph glyph-name="gcircumflex.salt" horiz-adv-x="531" 
d="M265 -183c-134 0 -237 32 -237 116c0 48 45 87 135 94c-66 13 -101 45 -101 86c0 39 31 72 79 85c-44 25 -77 67 -77 131c0 98 90 157 190 157c35 0 71 -7 102 -21c8 58 43 89 107 89c15 0 31 -2 41 -4l-6 -74c-11 2 -25 3 -36 3c-33 0 -67 -4 -85 -24
c41 -25 70 -65 70 -126c0 -111 -93 -160 -191 -160c-30 0 -62 5 -91 17c-20 -12 -31 -32 -31 -47c0 -39 48 -49 112 -49h70c122 0 185 -53 185 -133c0 -99 -111 -140 -236 -140zM263 -135c97 0 154 26 154 82c0 44 -44 71 -132 71h-47c-76 0 -130 -27 -130 -78
c0 -47 53 -75 155 -75zM256 225c60 0 107 37 107 105c0 64 -47 99 -107 99c-58 0 -107 -35 -107 -99c0 -69 49 -105 107 -105zM154 574l114 83l114 -83l-18 -25l-96 70l-96 -70z" />
    <glyph glyph-name="gcommaaccent.salt" horiz-adv-x="531" 
d="M265 -183c-134 0 -237 32 -237 116c0 48 45 87 135 94c-66 13 -101 45 -101 86c0 39 31 72 79 85c-44 25 -77 67 -77 131c0 98 90 157 190 157c35 0 71 -7 102 -21c8 58 43 89 107 89c15 0 31 -2 41 -4l-6 -74c-11 2 -25 3 -36 3c-33 0 -67 -4 -85 -24
c41 -25 70 -65 70 -126c0 -111 -93 -160 -191 -160c-30 0 -62 5 -91 17c-20 -12 -31 -32 -31 -47c0 -39 48 -49 112 -49h70c122 0 185 -53 185 -133c0 -99 -111 -140 -236 -140zM263 -135c97 0 154 26 154 82c0 44 -44 71 -132 71h-47c-76 0 -130 -27 -130 -78
c0 -47 53 -75 155 -75zM256 225c60 0 107 37 107 105c0 64 -47 99 -107 99c-58 0 -107 -35 -107 -99c0 -69 49 -105 107 -105zM253 544v157h30v-157h-30z" />
    <glyph glyph-name="gdotaccent.salt" horiz-adv-x="531" 
d="M265 -183c-134 0 -237 32 -237 116c0 48 45 87 135 94c-66 13 -101 45 -101 86c0 39 31 72 79 85c-44 25 -77 67 -77 131c0 98 90 157 190 157c35 0 71 -7 102 -21c8 58 43 89 107 89c15 0 31 -2 41 -4l-6 -74c-11 2 -25 3 -36 3c-33 0 -67 -4 -85 -24
c41 -25 70 -65 70 -126c0 -111 -93 -160 -191 -160c-30 0 -62 5 -91 17c-20 -12 -31 -32 -31 -47c0 -39 48 -49 112 -49h70c122 0 185 -53 185 -133c0 -99 -111 -140 -236 -140zM263 -135c97 0 154 26 154 82c0 44 -44 71 -132 71h-47c-76 0 -130 -27 -130 -78
c0 -47 53 -75 155 -75zM256 225c60 0 107 37 107 105c0 64 -47 99 -107 99c-58 0 -107 -35 -107 -99c0 -69 49 -105 107 -105zM340 566h-143v30h143v-30z" />
    <glyph glyph-name="hbar.salt" horiz-adv-x="538" 
d="M166 0h-81v534h-60v29h60v107h34c21 0 36 3 47 6v-113h123v-29h-123v-159c17 65 62 111 144 111c86 0 153 -59 153 -175v-311h-81v306c0 80 -40 114 -99 114c-48 0 -95 -34 -117 -96v-324z" />
    <glyph glyph-name="hcircumflex.salt" horiz-adv-x="538" 
d="M166 0h-81v670h32c22 0 39 3 49 6v-301c17 65 62 111 144 111c86 0 153 -59 153 -175v-311h-81v306c0 80 -40 114 -99 114c-48 0 -95 -34 -117 -96v-324zM-7 694l134 93l134 -93l-18 -25l-116 80l-116 -80z" />
    <glyph glyph-name="i.salt" horiz-adv-x="251" 
d="M166 0h-81v476h81v-476zM170 547h-89v31h89v-31z" />
    <glyph glyph-name="i.trk.salt" horiz-adv-x="251" 
d="M166 0h-81v476h81v-476zM170 547h-89v31h89v-31z" />
    <glyph glyph-name="iacute.salt" horiz-adv-x="251" 
d="M166 0h-81v476h81v-476zM226 634l-184 -94l-15 27l185 94z" />
    <glyph glyph-name="igrave.salt" horiz-adv-x="251" 
d="M166 0h-81v476h81v-476zM42 661l184 -94l-14 -27l-185 94z" />
    <glyph glyph-name="icircumflex.salt" horiz-adv-x="251" 
d="M166 0h-81v476h81v-476zM-7 564l134 93l134 -93l-18 -25l-116 80l-116 -80z" />
    <glyph glyph-name="idieresis.salt" horiz-adv-x="251" 
d="M166 0h-81v476h81v-476zM97 559h-125v30h125v-30zM280 559h-125v30h125v-30z" />
    <glyph glyph-name="ibreve.salt" horiz-adv-x="251" 
d="M166 0h-81v476h81v-476zM127 567c47 0 84 33 84 74h32c0 -67 -57 -105 -116 -105c-60 0 -117 38 -117 105h32c0 -41 37 -74 85 -74z" />
    <glyph glyph-name="imacron.salt" horiz-adv-x="251" 
d="M166 0h-81v476h81v-476zM239 567h-225v30h225v-30z" />
    <glyph glyph-name="iogonek.salt" horiz-adv-x="251" 
d="M120 0h-35v476h81v-476c-56 -25 -92 -57 -92 -95c0 -31 24 -44 51 -44s49 11 62 20l13 -23c-12 -10 -44 -25 -75 -25c-49 0 -81 27 -81 72c0 37 30 73 76 95zM170 547h-89v31h89v-31z" />
    <glyph glyph-name="itilde.salt" horiz-adv-x="251" 
d="M166 0h-81v476h81v-476zM184 570c26 0 39 27 42 73h31c-3 -70 -30 -103 -73 -103c-55 0 -78 73 -116 73c-26 0 -39 -26 -42 -73h-31c3 70 30 103 73 103c55 0 77 -73 116 -73z" />
    <glyph glyph-name="jcircumflex.salt" horiz-adv-x="251" 
d="M48 -183c-28 0 -50 6 -68 14l14 55c13 -4 24 -7 40 -7c28 0 51 13 51 66v531h81v-528c0 -86 -42 -131 -118 -131zM-9 564l134 93l134 -93l-18 -25l-116 80l-116 -80z" />
    <glyph glyph-name="ij.salt" horiz-adv-x="502" 
d="M166 0h-81v476h81v-476zM170 547h-89v31h89v-31zM421 547h-89v31h89v-31zM299 -183c-28 0 -50 6 -68 14l14 55c13 -4 24 -7 40 -7c28 0 51 13 51 66v531h81v-528c0 -86 -42 -131 -118 -131z" />
    <glyph glyph-name="jacute.salt" horiz-adv-x="251" 
d="M48 -183c-28 0 -50 6 -68 14l14 55c13 -4 24 -7 40 -7c28 0 51 13 51 66v531h81v-528c0 -86 -42 -131 -118 -131zM227 634l-184 -94l-15 27l185 94z" />
    <glyph glyph-name="j.salt" horiz-adv-x="251" 
d="M170 547h-89v31h89v-31zM48 -183c-28 0 -50 6 -68 14l14 55c13 -4 24 -7 40 -7c28 0 51 13 51 66v531h81v-528c0 -86 -42 -131 -118 -131z" />
    <glyph glyph-name="kcommaaccent.salt" horiz-adv-x="503" 
d="M166 0h-81v670h30c25 0 41 3 51 6v-426l208 226h95l-184 -200l188 -276h-99l-149 223l-59 -63v-160zM256 -208v157h30v-157h-30z" />
    <glyph glyph-name="lslash.salt" horiz-adv-x="309" 
d="M41 215l-16 24l90 60v371h28c29 0 42 3 53 6v-322l74 51l14 -24l-88 -60v-321h-81v265z" />
    <glyph glyph-name="lacute.salt" horiz-adv-x="251" 
d="M166 0h-81v670h31c23 0 40 3 50 6v-676zM232 784l-184 -94l-15 27l185 94z" />
    <glyph glyph-name="lcaron.salt" horiz-adv-x="277" 
d="M166 0h-81v670h31c23 0 40 3 50 6v-676zM247 463v207h30v-207h-30z" />
    <glyph glyph-name="lcommaaccent.salt" horiz-adv-x="251" 
d="M166 0h-81v670h31c23 0 40 3 50 6v-676zM111 -218v157h30v-157h-30z" />
    <glyph glyph-name="ldot.salt" horiz-adv-x="349" 
d="M166 0h-81v670h31c23 0 40 3 50 6v-676zM349 188h-103v105h103v-105z" />
    <glyph glyph-name="ntilde.salt" horiz-adv-x="538" 
d="M463 0h-81v301c0 87 -41 119 -98 119c-43 0 -93 -18 -118 -82v-338h-81v476h54l17 -115c21 90 81 125 153 125c79 0 154 -50 154 -176v-310zM334 570c26 0 39 27 42 73h31c-3 -70 -30 -103 -73 -103c-55 0 -78 73 -116 73c-26 0 -39 -26 -42 -73h-31c3 70 30 103 73 103
c55 0 77 -73 116 -73z" />
    <glyph glyph-name="nacute.salt" horiz-adv-x="538" 
d="M463 0h-81v301c0 87 -41 119 -98 119c-43 0 -93 -18 -118 -82v-338h-81v476h54l17 -115c21 90 81 125 153 125c79 0 154 -50 154 -176v-310zM376 634l-184 -94l-15 27l185 94z" />
    <glyph glyph-name="napostrophe.salt" horiz-adv-x="735" 
d="M660 0h-81v301c0 87 -41 119 -98 119c-43 0 -93 -18 -118 -82v-338h-81v476h54l17 -115c21 90 81 125 153 125c79 0 154 -50 154 -176v-310zM173 567l-76 -164l-27 13l69 149h-69v105h103v-103z" />
    <glyph glyph-name="ncaron.salt" horiz-adv-x="538" 
d="M463 0h-81v301c0 87 -41 119 -98 119c-43 0 -93 -18 -118 -82v-338h-81v476h54l17 -115c21 90 81 125 153 125c79 0 154 -50 154 -176v-310zM410 632l-134 -93l-134 93l18 25l116 -80l116 80z" />
    <glyph glyph-name="ncommaaccent.salt" horiz-adv-x="538" 
d="M463 0h-81v301c0 87 -41 119 -98 119c-43 0 -93 -18 -118 -82v-338h-81v476h54l17 -115c21 90 81 125 153 125c79 0 154 -50 154 -176v-310zM261 -208v157h30v-157h-30z" />
    <glyph glyph-name="oacute.salt" horiz-adv-x="871" 
d="M615 -10c-77 0 -141 33 -175 106c-35 -73 -98 -106 -171 -106c-120 0 -214 76 -214 248s94 248 214 248c73 0 137 -34 171 -107c35 73 99 107 172 107c143 0 204 -102 204 -221c0 -14 -1 -28 -3 -43h-330c5 -112 51 -166 132 -166c54 0 104 35 112 97l75 -14
c-8 -87 -84 -149 -187 -149zM140 238c0 -127 55 -182 128 -182c75 0 130 55 130 182s-55 182 -130 182c-73 0 -128 -55 -128 -182zM612 421c-61 0 -117 -40 -127 -141h248c-4 98 -52 141 -121 141zM547 634l-184 -94l-15 27l185 94z" />
    <glyph glyph-name="ograve.salt" horiz-adv-x="538" 
d="M269 -10c-120 0 -214 76 -214 248s94 248 214 248s214 -76 214 -248s-94 -248 -214 -248zM268 56c75 0 130 55 130 182s-55 182 -130 182c-73 0 -128 -55 -128 -182s55 -182 128 -182zM185 661l184 -94l-14 -27l-185 94z" />
    <glyph glyph-name="ocircumflex.salt" horiz-adv-x="538" 
d="M269 -10c-120 0 -214 76 -214 248s94 248 214 248s214 -76 214 -248s-94 -248 -214 -248zM268 56c75 0 130 55 130 182s-55 182 -130 182c-73 0 -128 -55 -128 -182s55 -182 128 -182zM135 564l134 93l134 -93l-18 -25l-116 80l-116 -80z" />
    <glyph glyph-name="odieresis.salt" horiz-adv-x="538" 
d="M269 -10c-120 0 -214 76 -214 248s94 248 214 248s214 -76 214 -248s-94 -248 -214 -248zM268 56c75 0 130 55 130 182s-55 182 -130 182c-73 0 -128 -55 -128 -182s55 -182 128 -182zM240 559h-125v30h125v-30zM423 559h-125v30h125v-30z" />
    <glyph glyph-name="otilde.salt" horiz-adv-x="538" 
d="M269 -10c-120 0 -214 76 -214 248s94 248 214 248s214 -76 214 -248s-94 -248 -214 -248zM268 56c75 0 130 55 130 182s-55 182 -130 182c-73 0 -128 -55 -128 -182s55 -182 128 -182zM327 570c26 0 39 27 42 73h31c-3 -70 -30 -103 -73 -103c-55 0 -78 73 -116 73
c-26 0 -39 -26 -42 -73h-31c3 70 30 103 73 103c55 0 77 -73 116 -73z" />
    <glyph glyph-name="obreve.salt" horiz-adv-x="538" 
d="M269 -10c-120 0 -214 76 -214 248s94 248 214 248s214 -76 214 -248s-94 -248 -214 -248zM268 56c75 0 130 55 130 182s-55 182 -130 182c-73 0 -128 -55 -128 -182s55 -182 128 -182zM270 567c47 0 84 33 84 74h32c0 -67 -57 -105 -116 -105c-60 0 -117 38 -117 105h32
c0 -41 37 -74 85 -74z" />
    <glyph glyph-name="ohungarumlaut.salt" horiz-adv-x="538" 
d="M269 -10c-120 0 -214 76 -214 248s94 248 214 248s214 -76 214 -248s-94 -248 -214 -248zM268 56c75 0 130 55 130 182s-55 182 -130 182c-73 0 -128 -55 -128 -182s55 -182 128 -182zM156 579l142 93l17 -25l-143 -93zM291 579l142 93l17 -25l-143 -93z" />
    <glyph glyph-name="oslash.salt" horiz-adv-x="538" 
d="M95 -51l-27 16l53 80c-41 40 -66 104 -66 193c0 172 94 248 214 248c46 0 88 -12 123 -35l51 77l26 -16l-53 -81c41 -40 67 -104 67 -193c0 -172 -94 -248 -214 -248c-47 0 -89 11 -124 35zM398 238c0 54 -10 96 -28 125l-183 -276c22 -21 49 -31 81 -31
c75 0 130 55 130 182zM140 238c0 -54 10 -95 27 -125l183 275c-22 22 -50 32 -82 32c-73 0 -128 -55 -128 -182z" />
    <glyph glyph-name="omacron.salt" horiz-adv-x="538" 
d="M269 -10c-120 0 -214 76 -214 248s94 248 214 248s214 -76 214 -248s-94 -248 -214 -248zM268 56c75 0 130 55 130 182s-55 182 -130 182c-73 0 -128 -55 -128 -182s55 -182 128 -182zM382 567h-225v30h225v-30z" />
    <glyph glyph-name="oslashacute.salt" horiz-adv-x="538" 
d="M95 -51l-27 16l53 80c-41 40 -66 104 -66 193c0 172 94 248 214 248c46 0 88 -12 123 -35l51 77l26 -16l-53 -81c41 -40 67 -104 67 -193c0 -172 -94 -248 -214 -248c-47 0 -89 11 -124 35zM398 238c0 54 -10 96 -28 125l-183 -276c22 -21 49 -31 81 -31
c75 0 130 55 130 182zM140 238c0 -54 10 -95 27 -125l183 275c-22 22 -50 32 -82 32c-73 0 -128 -55 -128 -182zM361 634l-184 -94l-15 27l185 94z" />
    <glyph glyph-name="racute.salt" horiz-adv-x="348" 
d="M166 0h-81v476h54l16 -131c13 108 71 141 127 141c20 0 32 -2 49 -5l-5 -74c-10 2 -23 3 -39 3c-35 0 -95 -16 -121 -87v-323zM308 634l-184 -94l-15 27l185 94z" />
    <glyph glyph-name="rcaron.salt" horiz-adv-x="348" 
d="M166 0h-81v476h54l16 -131c13 108 71 141 127 141c20 0 32 -2 49 -5l-5 -74c-10 2 -23 3 -39 3c-35 0 -95 -16 -121 -87v-323zM330 632l-134 -93l-134 93l18 25l116 -80l116 80z" />
    <glyph glyph-name="rcommaaccent.salt" horiz-adv-x="348" 
d="M166 0h-81v476h54l16 -131c13 108 71 141 127 141c20 0 32 -2 49 -5l-5 -74c-10 2 -23 3 -39 3c-35 0 -95 -16 -121 -87v-323zM112 -208v157h30v-157h-30z" />
    <glyph glyph-name="scaron.salt" horiz-adv-x="478" 
d="M249 -10c-120 0 -192 61 -201 149l75 14c10 -70 66 -100 126 -100c64 0 101 28 101 74c0 35 -23 57 -88 73l-56 14c-92 23 -139 67 -139 135c0 79 65 137 172 137c113 0 174 -65 179 -134l-74 -13c-4 42 -38 83 -105 83c-57 0 -92 -28 -92 -66c0 -37 30 -58 86 -72
l61 -15c94 -23 136 -65 136 -138c0 -79 -70 -141 -181 -141zM374 632l-134 -93l-134 93l18 25l116 -80l116 80z" />
    <glyph glyph-name="sacute.salt" horiz-adv-x="478" 
d="M249 -10c-120 0 -192 61 -201 149l75 14c10 -70 66 -100 126 -100c64 0 101 28 101 74c0 35 -23 57 -88 73l-56 14c-92 23 -139 67 -139 135c0 79 65 137 172 137c113 0 174 -65 179 -134l-74 -13c-4 42 -38 83 -105 83c-57 0 -92 -28 -92 -66c0 -37 30 -58 86 -72
l61 -15c94 -23 136 -65 136 -138c0 -79 -70 -141 -181 -141zM340 634l-184 -94l-15 27l185 94z" />
    <glyph glyph-name="scedilla.salt" horiz-adv-x="478" 
d="M252 -174c-45 0 -77 13 -102 34l17 24c23 -20 51 -30 85 -30c40 0 57 14 57 35c0 20 -23 33 -52 33c-18 0 -33 -4 -49 -13l-21 16l29 67c-100 10 -160 67 -168 147l75 14c10 -70 66 -100 126 -100c64 0 101 28 101 74c0 35 -23 57 -88 73l-56 14c-92 23 -139 67 -139 135
c0 79 65 137 172 137c113 0 174 -65 179 -134l-74 -13c-4 42 -38 83 -105 83c-57 0 -92 -28 -92 -66c0 -37 30 -58 86 -72l61 -15c94 -23 136 -65 136 -138c0 -79 -70 -141 -181 -141h-6l-22 -50c13 7 31 8 40 8c43 0 78 -21 78 -59c0 -36 -29 -63 -87 -63z" />
    <glyph glyph-name="scircumflex.salt" horiz-adv-x="478" 
d="M249 -10c-120 0 -192 61 -201 149l75 14c10 -70 66 -100 126 -100c64 0 101 28 101 74c0 35 -23 57 -88 73l-56 14c-92 23 -139 67 -139 135c0 79 65 137 172 137c113 0 174 -65 179 -134l-74 -13c-4 42 -38 83 -105 83c-57 0 -92 -28 -92 -66c0 -37 30 -58 86 -72
l61 -15c94 -23 136 -65 136 -138c0 -79 -70 -141 -181 -141zM107 564l134 93l134 -93l-18 -25l-116 80l-116 -80z" />
    <glyph glyph-name="scommaaccent.salt" horiz-adv-x="478" 
d="M249 -10c-120 0 -192 61 -201 149l75 14c10 -70 66 -100 126 -100c64 0 101 28 101 74c0 35 -23 57 -88 73l-56 14c-92 23 -139 67 -139 135c0 79 65 137 172 137c113 0 174 -65 179 -134l-74 -13c-4 42 -38 83 -105 83c-57 0 -92 -28 -92 -66c0 -37 30 -58 86 -72
l61 -15c94 -23 136 -65 136 -138c0 -79 -70 -141 -181 -141zM225 -208v157h30v-157h-30z" />
    <glyph glyph-name="tbar.salt" horiz-adv-x="342" 
d="M42 253v31h70v132h-77v60h44c25 0 40 14 40 38v36l74 116v-190h99v-60h-99v-132h87v-31h-87v-123c0 -60 16 -75 49 -75c18 0 34 4 49 10l16 -53c-18 -12 -52 -22 -83 -22c-83 0 -112 49 -112 128v135h-70z" />
    <glyph glyph-name="tcaron.salt" horiz-adv-x="342" 
d="M224 -10c-83 0 -112 49 -112 128v297h-77v61h44c25 0 40 14 40 38v36l74 116v-190h99v-61h-99v-285c0 -60 16 -75 49 -75c18 0 34 4 49 10l16 -53c-18 -12 -52 -22 -83 -22zM260 600v207h30v-207h-30z" />
    <glyph glyph-name="tcommaaccent.salt" horiz-adv-x="342" 
d="M224 -10c-83 0 -112 49 -112 128v297h-77v61h44c25 0 40 14 40 38v36l74 116v-190h99v-61h-99v-285c0 -60 16 -75 49 -75c18 0 34 4 49 10l16 -53c-18 -12 -52 -22 -83 -22zM183 -208v157h30v-157h-30z" />
    <glyph glyph-name="uni021B.salt" horiz-adv-x="342" 
d="M224 -10c-83 0 -112 49 -112 128v297h-77v61h44c25 0 40 14 40 38v36l74 116v-190h99v-61h-99v-285c0 -60 16 -75 49 -75c18 0 34 4 49 10l16 -53c-18 -12 -52 -22 -83 -22zM183 -208v157h30v-157h-30z" />
    <glyph glyph-name="uacute.salt" horiz-adv-x="531" 
d="M226 -10c-80 0 -151 48 -151 169v317h81v-304c0 -92 41 -116 95 -116c43 0 92 25 114 81v339h81v-476h-53l-17 115c-19 -88 -80 -125 -150 -125zM361 634l-184 -94l-15 27l185 94z" />
    <glyph glyph-name="ugrave.salt" horiz-adv-x="531" 
d="M226 -10c-80 0 -151 48 -151 169v317h81v-304c0 -92 41 -116 95 -116c43 0 92 25 114 81v339h81v-476h-53l-17 115c-19 -88 -80 -125 -150 -125zM177 661l184 -94l-14 -27l-185 94z" />
    <glyph glyph-name="ucircumflex.salt" horiz-adv-x="531" 
d="M226 -10c-80 0 -151 48 -151 169v317h81v-304c0 -92 41 -116 95 -116c43 0 92 25 114 81v339h81v-476h-53l-17 115c-19 -88 -80 -125 -150 -125zM127 564l134 93l134 -93l-18 -25l-116 80l-116 -80z" />
    <glyph glyph-name="udieresis.salt" horiz-adv-x="531" 
d="M226 -10c-80 0 -151 48 -151 169v317h81v-304c0 -92 41 -116 95 -116c43 0 92 25 114 81v339h81v-476h-53l-17 115c-19 -88 -80 -125 -150 -125zM232 559h-125v30h125v-30zM415 559h-125v30h125v-30z" />
    <glyph glyph-name="ubreve.salt" horiz-adv-x="531" 
d="M226 -10c-80 0 -151 48 -151 169v317h81v-304c0 -92 41 -116 95 -116c43 0 92 25 114 81v339h81v-476h-53l-17 115c-19 -88 -80 -125 -150 -125zM262 567c47 0 84 33 84 74h32c0 -67 -57 -105 -116 -105c-60 0 -117 38 -117 105h32c0 -41 37 -74 85 -74z" />
    <glyph glyph-name="uhungarumlaut.salt" horiz-adv-x="531" 
d="M226 -10c-80 0 -151 48 -151 169v317h81v-304c0 -92 41 -116 95 -116c43 0 92 25 114 81v339h81v-476h-53l-17 115c-19 -88 -80 -125 -150 -125zM161 579l142 93l17 -25l-143 -93zM296 579l142 93l17 -25l-143 -93z" />
    <glyph glyph-name="umacron.salt" horiz-adv-x="531" 
d="M226 -10c-80 0 -151 48 -151 169v317h81v-304c0 -92 41 -116 95 -116c43 0 92 25 114 81v339h81v-476h-53l-17 115c-19 -88 -80 -125 -150 -125zM374 567h-225v30h225v-30z" />
    <glyph glyph-name="uogonek.salt" horiz-adv-x="531" 
d="M226 -10c-80 0 -151 48 -151 169v317h81v-304c0 -92 41 -116 95 -116c43 0 92 25 114 81v339h81v-476c-50 -25 -80 -62 -80 -95c0 -31 24 -44 51 -44s49 11 62 20l13 -23c-12 -10 -44 -25 -75 -25c-49 0 -81 27 -81 72c0 34 23 68 58 90l-18 120
c-19 -88 -80 -125 -150 -125z" />
    <glyph glyph-name="uring.salt" horiz-adv-x="531" 
d="M226 -10c-80 0 -151 48 -151 169v317h81v-304c0 -92 41 -116 95 -116c43 0 92 25 114 81v339h81v-476h-53l-17 115c-19 -88 -80 -125 -150 -125zM354 615c0 -50 -36 -90 -92 -90c-55 0 -93 40 -93 90s38 89 93 89c56 0 92 -39 92 -89zM327 615c0 34 -24 62 -64 62
c-42 0 -65 -28 -65 -62s23 -63 65 -63c40 0 64 28 64 63z" />
    <glyph glyph-name="utilde.salt" horiz-adv-x="531" 
d="M226 -10c-80 0 -151 48 -151 169v317h81v-304c0 -92 41 -116 95 -116c43 0 92 25 114 81v339h81v-476h-53l-17 115c-19 -88 -80 -125 -150 -125zM319 570c26 0 39 27 42 73h31c-3 -70 -30 -103 -73 -103c-55 0 -78 73 -116 73c-26 0 -39 -26 -42 -73h-31
c3 70 30 103 73 103c55 0 77 -73 116 -73z" />
    <glyph glyph-name="wacute.salt" horiz-adv-x="756" 
d="M335 476h87l107 -415l111 415h81l-140 -476h-101l-102 390l-101 -390h-101l-141 476h83l110 -415zM478 634l-184 -94l-15 27l185 94z" />
    <glyph glyph-name="wcircumflex.salt" horiz-adv-x="756" 
d="M335 476h87l107 -415l111 415h81l-140 -476h-101l-102 390l-101 -390h-101l-141 476h83l110 -415zM244 564l134 93l134 -93l-18 -25l-116 80l-116 -80z" />
    <glyph glyph-name="wdieresis.salt" horiz-adv-x="756" 
d="M335 476h87l107 -415l111 415h81l-140 -476h-101l-102 390l-101 -390h-101l-141 476h83l110 -415zM349 559h-125v30h125v-30zM532 559h-125v30h125v-30z" />
    <glyph glyph-name="wgrave.salt" horiz-adv-x="756" 
d="M335 476h87l107 -415l111 415h81l-140 -476h-101l-102 390l-101 -390h-101l-141 476h83l110 -415zM294 661l184 -94l-14 -27l-185 94z" />
    <glyph glyph-name="uni1E8B.salt" horiz-adv-x="476" 
d="M446 0h-90l-119 184l-119 -184h-88l162 239l-162 237h90l120 -184l118 184h88l-158 -239zM312 567h-143v30h143v-30z" />
    <glyph glyph-name="yacute.salt" horiz-adv-x="490" 
d="M48 -166l16 54c15 -5 29 -8 46 -8c35 0 58 17 73 58l23 62l-176 476h83l135 -382l131 382h81l-206 -555c-28 -75 -62 -104 -127 -104c-29 0 -59 6 -79 17zM348 634l-184 -94l-15 27l185 94z" />
    <glyph glyph-name="ydieresis.salt" horiz-adv-x="490" 
d="M48 -166l16 54c15 -5 29 -8 46 -8c35 0 58 17 73 58l23 62l-176 476h83l135 -382l131 382h81l-206 -555c-28 -75 -62 -104 -127 -104c-29 0 -59 6 -79 17zM219 559h-125v30h125v-30zM402 559h-125v30h125v-30z" />
    <glyph glyph-name="ycircumflex.salt" horiz-adv-x="490" 
d="M48 -166l16 54c15 -5 29 -8 46 -8c35 0 58 17 73 58l23 62l-176 476h83l135 -382l131 382h81l-206 -555c-28 -75 -62 -104 -127 -104c-29 0 -59 6 -79 17zM114 564l134 93l134 -93l-18 -25l-116 80l-116 -80z" />
    <glyph glyph-name="ygrave.salt" horiz-adv-x="490" 
d="M48 -166l16 54c15 -5 29 -8 46 -8c35 0 58 17 73 58l23 62l-176 476h83l135 -382l131 382h81l-206 -555c-28 -75 -62 -104 -127 -104c-29 0 -59 6 -79 17zM164 661l184 -94l-14 -27l-185 94z" />
    <glyph glyph-name="zcaron.salt" horiz-adv-x="455" 
d="M405 0h-355v48l250 362h-233v66h335v-48l-251 -362h254v-66zM378 632l-134 -93l-134 93l18 25l116 -80l116 80z" />
    <glyph glyph-name="zacute.salt" horiz-adv-x="455" 
d="M405 0h-355v48l250 362h-233v66h335v-48l-251 -362h254v-66zM340 634l-184 -94l-15 27l185 94z" />
    <glyph glyph-name="zdotaccent.salt" horiz-adv-x="455" 
d="M405 0h-355v48l250 362h-233v66h335v-48l-251 -362h254v-66zM312 567h-143v30h143v-30z" />
    <glyph glyph-name="uni01B6.salt" horiz-adv-x="455" 
d="M85 223v31h107l108 156h-233v66h335v-48l-121 -174h88v-31h-109l-109 -157h254v-66h-355v48l121 175h-86z" />
    <glyph glyph-name="onehalf.salt" horiz-adv-x="900" 
d="M636 217l-55 -21c-10 14 -16 30 -16 52c0 61 45 114 124 114c84 0 123 -50 123 -105c0 -64 -60 -118 -176 -205h179v-52h-258v45c88 81 192 141 192 209c0 37 -25 57 -61 57c-35 0 -61 -26 -61 -59c0 -13 3 -26 9 -35zM70 273v51h107v213c-18 -16 -57 -29 -100 -29v52
c49 4 97 24 108 67h54v-303h82v-51h-251zM228 -10l-24 20l491 626l24 -19z" />
    <glyph glyph-name="onequarter.salt" horiz-adv-x="900" 
d="M70 273v51h107v213c-18 -16 -57 -29 -100 -29v52c49 4 97 24 108 67h54v-303h82v-51h-251zM705 126v153l-121 -153h121zM767 0h-62v77h-186v43l186 234h62v-228h46v-49h-46v-77zM228 -10l-24 20l491 626l24 -19z" />
    <glyph glyph-name="threequarters.salt" horiz-adv-x="900" 
d="M205 317c45 0 73 23 73 60c0 45 -34 57 -102 57h-7v48h7c54 0 82 16 82 53c0 32 -25 49 -59 49c-40 0 -67 -23 -70 -64l-57 5c0 58 43 110 127 110c68 0 123 -32 123 -94c0 -49 -33 -69 -70 -79c44 -3 89 -31 89 -86c0 -66 -49 -111 -135 -111c-88 0 -139 50 -139 109
l60 8c0 -37 29 -65 78 -65zM705 126v153l-121 -153h121zM767 0h-62v77h-186v43l186 234h62v-228h46v-49h-46v-77zM228 -10l-24 20l491 626l24 -19z" />
    </font>
</defs>
</svg>
