<?xml version="1.0" standalone="no"?>
<!DOCTYPE svg PUBLIC "-//W3C//DTD SVG 20010904//EN"
 "http://www.w3.org/TR/2001/REC-SVG-20010904/DTD/svg10.dtd">
<svg version="1.0" xmlns="http://www.w3.org/2000/svg"
 width="700.000000pt" height="700.000000pt" viewBox="0 0 700.000000 700.000000"
 preserveAspectRatio="xMidYMid meet">
<metadata>
Created by potrace 1.11, written by Peter Selinger 2001-2013
</metadata>
<g transform="translate(0.000000,700.000000) scale(0.100000,-0.100000)"
fill="#000000" stroke="none">
<path d="M4917 5414 c-1 -1 -38 -5 -83 -8 -44 -4 -89 -8 -100 -10 -10 -2 -41
-7 -68 -10 -96 -13 -326 -78 -601 -170 -309 -103 -346 -114 -488 -151 -102
-26 -290 -59 -392 -69 -120 -12 -161 -16 -230 -21 -38 -3 -86 -8 -105 -10 -19
-3 -66 -8 -103 -11 -37 -3 -76 -7 -86 -9 -10 -2 -42 -6 -72 -10 -161 -19 -389
-68 -591 -126 -654 -188 -1209 -508 -1452 -838 -82 -112 -144 -238 -160 -324
-3 -15 -7 -36 -11 -46 -26 -81 -39 -530 -22 -741 11 -146 16 -174 52 -330 50
-216 277 -481 585 -682 244 -160 679 -366 992 -469 435 -144 772 -176 1158
-108 106 18 115 20 132 25 9 3 27 7 40 9 56 11 125 27 148 36 14 5 34 11 45
14 142 30 483 155 755 277 168 75 503 241 597 296 39 23 74 42 76 42 3 0 45
23 94 51 48 28 103 60 122 71 157 89 485 315 638 439 193 156 423 374 518 490
28 34 55 67 61 73 34 36 129 185 173 271 107 209 125 317 125 755 -1 268 -10
484 -23 525 -28 90 -98 207 -168 280 -235 247 -583 403 -1028 460 -22 3 -53 8
-70 10 -74 11 -449 27 -458 19z m303 -178 c68 -4 127 -9 130 -11 3 -1 34 -6
70 -9 143 -15 372 -71 493 -122 234 -98 424 -242 512 -389 42 -70 52 -105 59
-201 5 -65 3 -78 -24 -135 -45 -98 -95 -184 -156 -270 l-55 -79 -227 116
c-125 64 -294 151 -377 194 -82 42 -267 137 -410 210 -143 73 -332 170 -420
215 -88 45 -263 135 -390 200 -126 65 -231 119 -233 120 -8 7 262 90 373 115
99 22 211 40 295 46 47 4 86 7 87 8 4 3 143 -1 273 -8z m-986 -370 c143 -73
365 -186 491 -251 127 -65 307 -157 400 -205 156 -80 540 -276 878 -448 l138
-71 -83 -83 c-46 -46 -103 -101 -128 -124 -124 -111 -376 -297 -558 -412 l-82
-52 -138 71 c-167 87 -402 209 -577 299 -71 37 -224 116 -340 175 -115 59
-232 120 -260 135 -27 15 -153 80 -280 145 -126 65 -275 141 -330 170 -55 29
-181 94 -280 145 -99 51 -225 116 -280 145 -55 29 -174 90 -264 136 -159 81
-163 84 -130 91 70 16 149 28 264 42 28 4 64 8 80 10 17 3 68 7 115 10 47 4
96 9 110 11 14 2 59 7 100 10 85 7 163 14 200 20 14 2 72 11 130 21 113 17
310 66 455 113 50 16 94 30 99 30 4 1 126 -59 270 -133z m-1885 -312 c124 -64
287 -148 361 -187 74 -38 209 -108 300 -155 91 -46 219 -113 285 -147 66 -34
197 -102 290 -150 94 -48 229 -118 300 -155 72 -37 211 -109 310 -160 99 -51
230 -118 290 -150 61 -32 209 -108 330 -170 320 -165 306 -157 292 -168 -7 -5
-32 -20 -57 -33 -25 -13 -47 -26 -50 -29 -16 -16 -467 -245 -610 -310 -74 -34
-148 -68 -165 -75 -60 -28 -204 -85 -213 -85 -5 0 -137 67 -293 148 -156 82
-351 184 -434 227 -82 42 -181 94 -220 115 -38 20 -137 72 -220 115 -82 43
-181 95 -220 115 -38 20 -151 79 -250 130 -99 51 -202 105 -230 120 -27 15
-117 63 -200 105 -82 43 -181 94 -220 115 -38 20 -142 74 -230 120 -88 45
-187 97 -220 115 -33 18 -111 59 -172 90 -62 32 -113 61 -113 65 0 18 248 165
410 243 162 78 502 208 607 232 10 2 38 11 63 19 25 8 47 15 49 15 2 1 106
-51 230 -115z m4142 -611 c-4 -266 -39 -397 -153 -585 -120 -197 -286 -375
-598 -642 -90 -77 -403 -304 -497 -361 -18 -11 -82 -50 -141 -87 -163 -101
-435 -249 -650 -354 -106 -52 -195 -94 -197 -94 -3 0 -40 -16 -82 -36 -370
-171 -872 -326 -1168 -359 -33 -4 -63 -9 -67 -12 -9 -5 -293 -5 -333 1 -16 2
-57 7 -90 11 -276 32 -615 146 -1035 348 -226 109 -489 269 -581 355 -21 19
-48 41 -59 49 -56 39 -182 202 -224 288 -67 136 -87 245 -101 540 l-5 110 27
-35 c15 -19 61 -69 102 -110 256 -254 648 -475 1156 -650 114 -40 401 -129
465 -145 8 -2 68 -18 133 -34 65 -16 140 -32 165 -36 26 -3 63 -8 82 -10 43
-6 291 -6 344 0 56 6 179 26 251 40 30 6 138 34 230 59 73 20 258 85 425 149
934 357 1775 842 2240 1291 146 141 313 338 343 403 6 13 12 21 15 19 2 -3 3
-54 3 -113z m-5537 43 c184 -97 289 -152 441 -231 83 -43 186 -97 230 -120 86
-45 177 -93 545 -285 129 -67 276 -144 325 -170 50 -26 144 -76 210 -110 157
-82 302 -157 870 -455 55 -29 129 -67 163 -85 l64 -33 -59 -24 c-100 -41 -469
-155 -543 -167 -14 -3 -50 -10 -80 -15 -100 -20 -124 -22 -285 -26 -194 -5
-254 4 -526 78 -306 84 -620 189 -789 264 -337 152 -548 285 -738 468 -155
148 -238 274 -249 376 -10 103 40 259 124 386 41 63 169 203 185 203 6 0 56
-24 112 -54z"/>
</g>
</svg>
