<?xml version="1.0" encoding="UTF-8" standalone="no"?>
<!DOCTYPE svg  PUBLIC '-//W3C//DTD SVG 1.1//EN'  'http://www.w3.org/Graphics/SVG/1.1/DTD/svg11.dtd'>
<svg xmlns="http://www.w3.org/2000/svg" version="1.1">
<defs>
<font id="IdealSans-Semibold" horiz-adv-x="560">
<font-face font-weight="375" stemv="151" underline-thickness="50" cap-height="708" descent="-200" units-per-em="1000" panose-1="0 0 0 0 0 0 0 0 0 0" x-height="482" font-family="Ideal Sans Semibold" stemh="83" ascent="800" bbox="-171 -280 1286 1134" underline-position="-100" unicode-range="U+0020-FB04"/>
<missing-glyph d="M0 -200v1000h500v-1000h-500zM71 750l179 -390l179 390h-358zM50 -76l172 376l-172 376v-752zM450 676l-172 -376l172 -376v752zM250 240l-179 -390h358z" horiz-adv-x="500"/>
<glyph d="M1283 256c0 -154 -107 -274 -247 -274c-54 0 -97 19 -129 38l-97 -36l-28 10c5 50 7 115 7 173v382c0 58 -2 119 -6 162c35 2 131 12 161 17c-3 -26 -4 -114 -4 -133v-160c38 33 83 57 141 57c121 0 202 -105 202 -236zM1132 242c0 88 -37 139 -104 139 c-34 0 -65 -17 -88 -41v-226c22 -14 46 -21 80 -21c68 0 112 69 112 149zM359 721l9 -120c-14 5 -29 7 -45 7c-54 0 -80 -32 -80 -95v-32h118c-3 -22 -4 -72 -4 -108h-114v-276c0 -35 1 -72 4 -97h-160c5 43 7 105 7 163v210h-83l23 108h60v25c0 138 70 223 202 223 c26 0 46 -4 63 -8zM723 721l9 -120c-14 5 -29 7 -45 7c-54 0 -80 -32 -80 -95v-32h118c-3 -22 -4 -72 -4 -108h-114v-276c0 -35 1 -72 4 -97h-160c5 43 7 105 7 163v210h-83l23 108h60v25c0 138 70 223 202 223c26 0 46 -4 63 -8z" unicode="ffb" horiz-adv-x="1314" glyph-name="f_f_b"/>
<glyph d="M1262 0h-162c5 43 7 112 7 170v111c0 58 -15 92 -63 92c-55 0 -101 -47 -104 -100v-173c0 -35 1 -74 4 -100h-161c4 43 6 108 6 167v382c0 58 -2 118 -6 161c35 2 131 12 161 18c-3 -26 -4 -115 -4 -133v-209c40 67 111 106 173 106c99 0 145 -64 145 -170v-219 c0 -35 2 -77 4 -103zM359 721l9 -120c-14 5 -29 7 -45 7c-54 0 -80 -32 -80 -95v-32h118c-3 -22 -4 -72 -4 -108h-114v-276c0 -35 1 -72 4 -97h-160c5 43 7 105 7 163v210h-83l23 108h60v25c0 138 70 223 202 223c26 0 46 -4 63 -8zM723 721l9 -120c-14 5 -29 7 -45 7 c-54 0 -80 -32 -80 -95v-32h118c-3 -22 -4 -72 -4 -108h-114v-276c0 -35 1 -72 4 -97h-160c5 43 7 105 7 163v210h-83l23 108h60v25c0 138 70 223 202 223c26 0 46 -4 63 -8z" unicode="ffh" horiz-adv-x="1317" glyph-name="f_f_h"/>
<glyph d="M944 0h-162c5 43 7 105 7 164v143c0 58 -2 127 -7 170c36 0 132 6 162 9c-3 -26 -4 -72 -4 -107v-282c0 -35 1 -71 4 -97zM957 649c0 -49 -40 -83 -89 -83s-87 33 -87 78c0 49 40 84 90 84c47 0 86 -34 86 -79zM359 721l9 -120c-14 5 -29 7 -45 7c-54 0 -80 -32 -80 -95 v-32h118c-3 -22 -4 -72 -4 -108h-114v-276c0 -35 1 -72 4 -97h-160c5 43 7 105 7 163v210h-83l23 108h60v25c0 138 70 223 202 223c26 0 46 -4 63 -8zM723 721l9 -120c-14 5 -29 7 -45 7c-54 0 -80 -32 -80 -95v-32h118c-3 -22 -4 -72 -4 -108h-114v-276c0 -35 1 -72 4 -97 h-160c5 43 7 105 7 163v210h-83l23 108h60v25c0 138 70 223 202 223c26 0 46 -4 63 -8z" unicode="ffi" horiz-adv-x="1001" glyph-name="f_f_i"/>
<glyph d="M947 486c-3 -26 -4 -72 -4 -107v-378c0 -164 -74 -229 -181 -229c-27 0 -47 5 -62 9l-17 123c13 -3 25 -5 39 -5c47 0 71 22 71 87v321c0 58 -2 127 -7 170c36 0 131 6 161 9zM959 649c0 -49 -39 -83 -89 -83c-49 0 -86 33 -86 78c0 49 39 84 89 84c48 0 86 -34 86 -79z M359 721l9 -120c-14 5 -29 7 -45 7c-54 0 -80 -32 -80 -95v-32h118c-3 -22 -4 -72 -4 -108h-114v-276c0 -35 1 -72 4 -97h-160c5 43 7 105 7 163v210h-83l23 108h60v25c0 138 70 223 202 223c26 0 46 -4 63 -8zM723 721l9 -120c-14 5 -29 7 -45 7c-54 0 -80 -32 -80 -95v-32 h118c-3 -22 -4 -72 -4 -108h-114v-276c0 -35 1 -72 4 -97h-160c5 43 7 105 7 163v210h-83l23 108h60v25c0 138 70 223 202 223c26 0 46 -4 63 -8z" unicode="ffj" horiz-adv-x="1004" glyph-name="f_f_j"/>
<glyph d="M1100 -12l-160 228v-116c0 -35 1 -75 4 -100h-161c4 43 6 108 6 166v383c0 58 -2 118 -6 161c35 2 131 12 161 18c-3 -26 -4 -115 -4 -134v-317c39 55 127 184 142 204c52 0 122 2 168 6l-178 -229l43 -59c32 -36 123 -165 149 -192zM723 721l9 -120c-14 5 -29 7 -45 7 c-54 0 -80 -32 -80 -95v-32h118c-3 -22 -4 -72 -4 -108h-114v-276c0 -35 1 -72 4 -97h-160c5 43 7 105 7 163v210h-83l23 108h60v25c0 138 70 223 202 223c26 0 46 -4 63 -8zM359 721l9 -120c-14 5 -29 7 -45 7c-54 0 -80 -32 -80 -95v-32h118c-3 -22 -4 -72 -4 -108h-114 v-276c0 -35 1 -72 4 -97h-160c5 43 7 105 7 163v210h-83l23 108h60v25c0 138 70 223 202 223c26 0 46 -4 63 -8z" unicode="ffk" horiz-adv-x="1261" glyph-name="f_f_k"/>
<glyph d="M944 0h-161c4 43 6 108 6 167v382c0 58 -2 118 -6 161c35 2 131 12 161 18c-3 -26 -4 -115 -4 -133v-495c0 -35 1 -74 4 -100zM359 721l9 -120c-14 5 -29 7 -45 7c-54 0 -80 -32 -80 -95v-32h118c-3 -22 -4 -72 -4 -108h-114v-276c0 -35 1 -72 4 -97h-160 c5 43 7 105 7 163v210h-83l23 108h60v25c0 138 70 223 202 223c26 0 46 -4 63 -8zM723 721l9 -120c-14 5 -29 7 -45 7c-54 0 -80 -32 -80 -95v-32h118c-3 -22 -4 -72 -4 -108h-114v-276c0 -35 1 -72 4 -97h-160c5 43 7 105 7 163v210h-83l23 108h60v25c0 138 70 223 202 223 c26 0 46 -4 63 -8z" unicode="ffl" horiz-adv-x="1001" glyph-name="f_f_l"/>
<glyph d="M918 256c0 -154 -107 -274 -247 -274c-54 0 -97 19 -129 38l-97 -36l-28 10c5 50 7 115 7 173v382c0 58 -2 119 -6 162c35 2 131 12 161 17c-3 -26 -4 -114 -4 -133v-160c38 33 83 57 141 57c121 0 202 -105 202 -236zM767 242c0 88 -37 139 -104 139 c-34 0 -65 -17 -88 -41v-226c22 -14 46 -21 80 -21c68 0 112 69 112 149zM359 721l9 -120c-14 5 -29 7 -45 7c-54 0 -80 -32 -80 -95v-32h118c-3 -22 -4 -72 -4 -108h-114v-276c0 -35 1 -72 4 -97h-160c5 43 7 105 7 163v210h-83l23 108h60v25c0 138 70 223 202 223 c26 0 46 -4 63 -8z" unicode="fb" horiz-adv-x="949" glyph-name="f_b"/>
<glyph d="M359 721l9 -120c-14 5 -29 7 -45 7c-54 0 -80 -32 -80 -95v-32h118c-3 -22 -4 -72 -4 -108h-114v-276c0 -35 1 -72 4 -97h-160c5 43 7 105 7 163v210h-83l23 108h60v25c0 138 70 223 202 223c26 0 46 -4 63 -8zM723 721l9 -120c-14 5 -29 7 -45 7c-54 0 -80 -32 -80 -95 v-32h118c-3 -22 -4 -72 -4 -108h-114v-276c0 -35 1 -72 4 -97h-160c5 43 7 105 7 163v210h-83l23 108h60v25c0 138 70 223 202 223c26 0 46 -4 63 -8z" unicode="ff" horiz-adv-x="729" glyph-name="f_f"/>
<glyph d="M897 0h-162c5 43 7 112 7 170v111c0 58 -15 92 -63 92c-55 0 -101 -47 -104 -100v-173c0 -35 1 -74 4 -100h-161c4 43 6 108 6 167v382c0 58 -2 118 -6 161c35 2 131 12 161 18c-3 -26 -4 -115 -4 -133v-209c40 67 111 106 173 106c99 0 145 -64 145 -170v-219 c0 -35 2 -77 4 -103zM359 721l9 -120c-14 5 -29 7 -45 7c-54 0 -80 -32 -80 -95v-32h118c-3 -22 -4 -72 -4 -108h-114v-276c0 -35 1 -72 4 -97h-160c5 43 7 105 7 163v210h-83l23 108h60v25c0 138 70 223 202 223c26 0 46 -4 63 -8z" unicode="fh" horiz-adv-x="952" glyph-name="f_h"/>
<glyph d="M579 0h-162c5 43 7 105 7 164v143c0 58 -2 127 -7 170c36 0 132 6 162 9c-3 -26 -4 -72 -4 -107v-282c0 -35 1 -71 4 -97zM592 649c0 -49 -40 -83 -89 -83s-87 33 -87 78c0 49 40 84 90 84c47 0 86 -34 86 -79zM359 721l9 -120c-14 5 -29 7 -45 7c-54 0 -80 -32 -80 -95 v-32h118c-3 -22 -4 -72 -4 -108h-114v-276c0 -35 1 -72 4 -97h-160c5 43 7 105 7 163v210h-83l23 108h60v25c0 138 70 223 202 223c26 0 46 -4 63 -8z" unicode="fi" horiz-adv-x="636" glyph-name="fi"/>
<glyph d="M582 486c-3 -26 -4 -72 -4 -107v-378c0 -164 -74 -229 -181 -229c-27 0 -47 5 -62 9l-17 123c13 -3 25 -5 39 -5c47 0 71 22 71 87v321c0 58 -2 127 -7 170c36 0 131 6 161 9zM594 649c0 -49 -39 -83 -89 -83c-49 0 -86 33 -86 78c0 49 39 84 89 84c48 0 86 -34 86 -79z M359 721l9 -120c-14 5 -29 7 -45 7c-54 0 -80 -32 -80 -95v-32h118c-3 -22 -4 -72 -4 -108h-114v-276c0 -35 1 -72 4 -97h-160c5 43 7 105 7 163v210h-83l23 108h60v25c0 138 70 223 202 223c26 0 46 -4 63 -8z" unicode="fj" horiz-adv-x="639" glyph-name="f_j"/>
<glyph d="M735 -12l-160 228v-116c0 -35 1 -75 4 -100h-161c4 43 6 108 6 166v383c0 58 -2 118 -6 161c35 2 131 12 161 18c-3 -26 -4 -115 -4 -134v-317c39 55 127 184 142 204c52 0 122 2 168 6l-178 -229l43 -59c32 -36 123 -165 149 -192zM359 721l9 -120c-14 5 -29 7 -45 7 c-54 0 -80 -32 -80 -95v-32h118c-3 -22 -4 -72 -4 -108h-114v-276c0 -35 1 -72 4 -97h-160c5 43 7 105 7 163v210h-83l23 108h60v25c0 138 70 223 202 223c26 0 46 -4 63 -8z" unicode="fk" horiz-adv-x="896" glyph-name="f_k"/>
<glyph d="M579 0h-161c4 43 6 108 6 167v382c0 58 -2 118 -6 161c35 2 131 12 161 18c-3 -26 -4 -115 -4 -133v-495c0 -35 1 -74 4 -100zM359 721l9 -120c-14 5 -29 7 -45 7c-54 0 -80 -32 -80 -95v-32h118c-3 -22 -4 -72 -4 -108h-114v-276c0 -35 1 -72 4 -97h-160 c5 43 7 105 7 163v210h-83l23 108h60v25c0 138 70 223 202 223c26 0 46 -4 63 -8z" unicode="fl" horiz-adv-x="636" glyph-name="fl"/>
<glyph d="M0 -200v1000h500v-1000h-500zM71 750l179 -390l179 390h-358zM50 -76l172 376l-172 376v-752zM450 676l-172 -376l172 -376v752zM250 240l-179 -390h358z" horiz-adv-x="500" glyph-name=".notdef"/>
<glyph d="M3 0l226 512c37 84 61 138 81 195l108 9l227 -512c27 -62 65 -143 95 -204l-172 -8l-69 163h-267c-16 -38 -48 -123 -60 -155h-169zM364 495l-91 -233h184z" unicode="A" horiz-adv-x="743" glyph-name="A"/>
<glyph d="M340 0h-259c5 48 7 176 7 241v221c0 64 -2 192 -7 240c32 0 150 6 240 6c189 0 257 -95 257 -181c0 -76 -49 -129 -113 -153c97 -26 145 -89 145 -169c0 -113 -89 -205 -270 -205zM240 123c25 -2 57 -4 82 -4c79 0 130 30 130 96c0 56 -45 95 -146 95c-26 0 -48 0 -66 -3 v-184zM240 416c13 0 49 -1 64 -1c77 0 121 33 121 88c0 56 -42 86 -119 86c-30 0 -50 -2 -66 -3v-170z" unicode="B" horiz-adv-x="647" glyph-name="B"/>
<glyph d="M637 202l-7 -152c-65 -45 -140 -68 -225 -68c-217 0 -364 159 -364 351c0 220 157 387 383 387c79 0 157 -23 211 -59l-29 -135c-45 37 -108 62 -176 62c-135 0 -228 -99 -228 -234c0 -154 98 -239 224 -239c89 0 153 36 211 87z" unicode="C" horiz-adv-x="678" glyph-name="C"/>
<glyph d="M700 369c0 -223 -149 -369 -377 -369h-242c5 48 7 176 7 241v221c0 64 -2 192 -7 240c36 0 115 6 219 6c259 0 400 -137 400 -339zM541 359c0 138 -83 224 -227 224c-25 0 -45 -1 -65 -3c-1 -15 -1 -39 -1 -52v-351c0 -14 0 -31 1 -47c22 -3 38 -5 67 -5 c160 0 225 104 225 234z" unicode="D" horiz-adv-x="741" glyph-name="D"/>
<glyph d="M542 128c-5 -42 -7 -83 -7 -132c-64 4 -143 5 -218 5c-81 0 -168 -1 -236 -5c5 48 7 180 7 245v221c0 64 -2 199 -7 247c67 -3 142 -5 225 -5c78 0 151 2 216 5c-5 -42 -8 -81 -8 -131c-54 1 -110 2 -174 2c-30 0 -63 0 -92 -1c-2 -15 -2 -39 -2 -51v-106l229 1 c-2 -34 -3 -75 -3 -119l-226 2v-128c0 -13 0 -37 2 -52c29 0 62 -1 92 -1c74 0 139 1 202 3z" unicode="E" horiz-adv-x="572" glyph-name="E"/>
<glyph d="M521 709c-4 -43 -7 -82 -7 -133c-54 1 -110 2 -174 2c-30 0 -61 0 -90 -1c-2 -17 -2 -42 -2 -55v-111h219c-2 -36 -3 -76 -3 -120l-216 1v-148c0 -39 1 -116 4 -144h-171c5 48 7 176 7 241v221c0 64 -2 199 -7 247c67 -3 142 -5 225 -5c78 0 151 2 215 5z" unicode="F" horiz-adv-x="552" glyph-name="F"/>
<glyph d="M677 55c-59 -36 -138 -72 -266 -72c-222 0 -370 154 -370 356c0 217 164 381 389 381c97 0 186 -34 237 -68l-40 -130c-44 34 -122 63 -198 63c-142 0 -230 -99 -230 -235c0 -153 104 -236 226 -236c42 0 77 6 110 19v87c0 12 0 40 -2 57c-32 1 -22 1 -55 1 c-37 0 -65 -1 -106 -3c2 47 3 86 1 121c61 -2 91 -3 136 -3c77 0 109 1 175 4c-5 -40 -7 -180 -7 -245v-97z" unicode="G" horiz-adv-x="741" glyph-name="G"/>
<glyph d="M677 151v-96c-59 -36 -138 -72 -266 -72c-222 0 -370 154 -370 356c0 217 164 381 389 381c97 0 186 -34 237 -68l-40 -130c-44 34 -122 63 -196 63c-141 0 -227 -99 -227 -235c0 -150 104 -232 221 -232c40 0 73 6 104 19v97c0 29 -2 115 -4 130h158 c-2 -14 -6 -153 -6 -213z" horiz-adv-x="741" glyph-name="G.alt"/>
<glyph d="M708 0h-172c5 48 7 167 7 232v68h-294v-156c0 -38 1 -116 3 -144h-171c5 48 7 176 7 241v221c0 64 -2 193 -7 241c39 0 139 1 171 5c-2 -29 -3 -109 -3 -148v-137h294v39c0 64 -2 193 -7 241c39 0 139 1 172 5c-3 -29 -4 -109 -4 -148v-416c0 -38 1 -116 4 -144z" unicode="H" horiz-adv-x="791" glyph-name="H"/>
<glyph d="M255 0h-172c5 48 7 176 7 241v221c0 64 -2 193 -7 241c39 0 139 1 172 5c-3 -29 -4 -109 -4 -148v-416c0 -38 1 -116 4 -144z" unicode="I" horiz-adv-x="340" glyph-name="I"/>
<glyph d="M226 462c0 64 -2 193 -7 241c40 0 140 1 172 5c-2 -29 -3 -109 -3 -148v-330c0 -170 -57 -248 -215 -248c-45 0 -112 11 -157 29l8 137c39 -15 80 -27 120 -27c60 0 82 35 82 95v246z" unicode="J" horiz-adv-x="468" glyph-name="J"/>
<glyph d="M103 23v439c0 64 -2 193 -7 241c39 0 139 1 172 5c-3 -29 -4 -109 -4 -148v-532c0 -172 -62 -253 -209 -253c-26 0 -55 3 -79 9l-17 135c17 -3 41 -5 57 -5c64 0 87 22 87 109z" horiz-adv-x="344" glyph-name="J.alt"/>
<glyph d="M516 -9l-268 330v-177c0 -38 1 -116 4 -144h-171c5 48 7 176 7 241v221c0 64 -2 193 -7 241c39 0 138 1 171 5c-3 -29 -4 -109 -4 -148v-167l105 130c41 48 101 125 147 182h189l-295 -337l161 -193c39 -45 108 -126 149 -172z" unicode="K" horiz-adv-x="703" glyph-name="K"/>
<glyph d="M538 131c-5 -43 -7 -86 -9 -135c-65 4 -141 5 -219 5c-80 0 -162 -1 -229 -5c5 48 7 181 7 246v220c0 64 -2 193 -7 241c39 0 138 1 171 5c-3 -29 -4 -109 -4 -148v-375c0 -14 0 -38 2 -56c26 0 54 -1 81 -1c77 0 143 1 207 3z" unicode="L" horiz-adv-x="555" glyph-name="L"/>
<glyph d="M43 0c12 53 31 175 40 241l30 222c9 64 25 192 29 245l102 7c18 -41 45 -102 65 -144l155 -339l152 341c18 42 46 104 61 141h100c6 -57 23 -187 31 -251l31 -222c9 -65 30 -189 41 -241l-160 -8c-2 29 -11 112 -17 152l-34 258c-50 -115 -161 -374 -175 -410l-73 -6 l-175 410l-31 -252c-5 -39 -12 -116 -13 -144h-159z" unicode="M" horiz-adv-x="921" glyph-name="M"/>
<glyph d="M75 0c5 48 9 176 10 241l2 232c1 64 0 186 -5 234l99 9l378 -453v199c0 64 -2 193 -8 241c39 0 132 1 166 5c-4 -29 -6 -109 -6 -148l-3 -419c0 -39 -1 -119 2 -147l-96 -9l-378 451v-292c0 -39 1 -116 4 -144h-165z" unicode="N" horiz-adv-x="794" glyph-name="N"/>
<glyph d="M396 109c120 0 200 110 200 240c0 151 -84 244 -198 244c-120 0 -200 -110 -200 -240c0 -151 84 -244 198 -244zM387 -18c-208 0 -346 158 -346 351c0 220 148 387 366 387c208 0 346 -158 346 -351c0 -220 -148 -387 -366 -387z" unicode="O" horiz-adv-x="794" glyph-name="O"/>
<glyph d="M248 229v-85c0 -38 1 -116 4 -144h-172c5 48 7 176 7 241v221c0 64 -2 193 -7 241c36 0 163 5 222 5c194 0 293 -95 293 -224c0 -143 -94 -256 -310 -256c-12 0 -25 0 -37 1zM438 466c0 75 -43 116 -134 116c-20 0 -33 0 -58 -2v-231c15 -2 28 -2 42 -2 c93 0 150 42 150 119z" unicode="P" horiz-adv-x="612" glyph-name="P"/>
<glyph d="M838 -51l-94 -111l-389 145c-190 16 -314 167 -314 350c0 220 148 387 366 387c208 0 346 -158 346 -351c0 -154 -73 -282 -191 -345l118 -34c48 -14 116 -31 158 -41zM396 109c120 0 200 110 200 240c0 151 -84 244 -198 244c-120 0 -200 -110 -200 -240 c0 -151 84 -244 198 -244z" unicode="Q" horiz-adv-x="796" glyph-name="Q"/>
<glyph d="M662 6l-181 -15l-154 256l-15 -1h-65v-102c0 -38 1 -116 3 -144h-170c5 48 7 176 7 241v221c0 64 -2 193 -7 241c36 0 171 4 216 5c201 2 307 -90 306 -213c-2 -98 -50 -161 -138 -207l113 -165c23 -33 63 -88 85 -117zM246 359h74c78 0 125 48 125 113 c0 67 -35 111 -134 111c-23 0 -45 -1 -65 -3v-221z" unicode="R" horiz-adv-x="673" glyph-name="R"/>
<glyph d="M511 204c0 -136 -100 -222 -250 -222c-75 0 -165 26 -219 58l6 148c45 -36 135 -76 217 -76c57 0 93 28 93 79c0 108 -296 122 -296 314c0 132 99 215 238 215c73 0 146 -24 190 -52l-33 -126c-42 26 -102 48 -152 48c-54 0 -88 -30 -88 -74c0 -103 294 -112 294 -312z " unicode="S" horiz-adv-x="551" glyph-name="S"/>
<glyph d="M637 709c-5 -44 -8 -85 -8 -138c-72 1 -135 2 -218 2c-1 -22 -1 -48 -1 -64v-365c0 -38 1 -116 4 -144h-172c5 48 7 176 7 241v176c0 39 0 103 -2 156c-83 0 -151 -1 -222 -2c3 40 4 92 4 138c95 -3 188 -5 301 -5c114 0 211 2 307 5z" unicode="T" horiz-adv-x="662" glyph-name="T"/>
<glyph d="M699 708c-4 -29 -5 -109 -5 -148v-256c0 -115 -29 -184 -84 -237c-56 -55 -133 -85 -235 -85c-175 0 -297 97 -297 271v209c0 64 -2 193 -7 241c40 0 139 1 172 5c-3 -29 -4 -109 -4 -148v-274c0 -123 57 -171 152 -171c93 0 143 56 143 154v193c0 64 -2 193 -8 241 c40 0 139 1 173 5z" unicode="U" horiz-adv-x="772" glyph-name="U"/>
<glyph d="M3 701l174 8l182 -487l115 315c20 56 41 115 58 165h171l-215 -513c-36 -84 -57 -137 -76 -195l-106 -8l-215 511c-26 63 -60 143 -88 204z" unicode="V" horiz-adv-x="706" glyph-name="V"/>
<glyph d="M1028 702l-181 -512c-31 -85 -49 -138 -67 -196l-103 -9l-161 461l-95 -278c-19 -57 -41 -114 -63 -180h-104l-178 509c-21 62 -49 143 -73 203l172 8l142 -472l99 305c13 40 43 126 55 165l98 9l159 -476l86 299l47 164h167z" unicode="W" horiz-adv-x="1031" glyph-name="W"/>
<glyph d="M199 0h-180l249 356l-99 143c-39 55 -104 152 -141 203l179 8l164 -250l53 86l103 158h179l-240 -347l96 -138c42 -60 106 -156 150 -219l-180 -8l-169 262l-53 -84c-29 -46 -78 -121 -111 -170z" unicode="X" horiz-adv-x="733" glyph-name="X"/>
<glyph d="M-3 702l175 8l167 -283l48 80c36 58 85 144 117 197h175l-264 -408v-152c0 -38 1 -116 4 -144h-172c5 48 7 176 7 241v52l-104 167c-42 68 -114 182 -153 242z" unicode="Y" horiz-adv-x="672" glyph-name="Y"/>
<glyph d="M617 709l13 -71l-378 -512h120c86 0 185 1 242 3c-4 -40 -7 -85 -8 -133c-60 4 -175 5 -272 5c-115 0 -220 -1 -294 -5l-12 74l376 509h-110c-89 0 -168 -1 -237 -2c5 37 10 89 12 132c99 -3 142 -5 274 -5c126 0 205 2 274 5z" unicode="Z" horiz-adv-x="657" glyph-name="Z"/>
<glyph d="M171 -13c-89 0 -146 51 -146 134c0 96 82 160 246 160c11 0 24 -1 37 -2l1 14c2 53 -21 80 -82 80c-53 0 -109 -21 -145 -44l-21 111c52 30 124 52 196 52c138 0 200 -67 197 -192l-5 -175c-1 -28 8 -37 29 -37c9 0 20 2 30 6l-7 -90c-26 -9 -50 -16 -81 -16 c-50 0 -91 22 -103 78c-27 -47 -85 -79 -146 -79zM225 80c45 0 79 32 81 86l1 45c-11 1 -21 2 -32 2c-80 0 -111 -32 -111 -74c0 -34 21 -59 61 -59z" unicode="a" horiz-adv-x="522" glyph-name="a"/>
<glyph d="M554 256c0 -154 -107 -274 -247 -274c-54 0 -97 19 -129 38l-97 -36l-28 10c5 50 7 115 7 173v382c0 58 -2 119 -6 162c35 2 131 12 161 17c-3 -26 -4 -114 -4 -133v-160c38 33 83 57 141 57c121 0 202 -105 202 -236zM403 242c0 88 -37 139 -104 139 c-34 0 -65 -17 -88 -41v-226c22 -14 46 -21 80 -21c68 0 112 69 112 149z" unicode="b" horiz-adv-x="584" glyph-name="b"/>
<glyph d="M449 449l-27 -115c-33 27 -72 41 -112 41c-77 0 -129 -59 -129 -134c0 -92 65 -140 136 -140c49 0 84 14 128 54l-5 -132c-47 -28 -89 -41 -151 -41c-158 0 -258 110 -258 242c0 150 108 268 267 268c54 0 110 -15 151 -43z" unicode="c" horiz-adv-x="483" glyph-name="c"/>
<glyph d="M268 492c43 0 78 -12 105 -30l-1 88c0 58 -1 117 -5 160c36 3 131 12 161 18c-3 -26 -4 -75 -4 -109v-453c0 -58 2 -120 7 -166h-144l-7 50c-27 -37 -78 -68 -138 -68c-133 0 -212 111 -212 237c0 155 100 273 238 273zM292 382c-71 0 -111 -67 -111 -148 c0 -95 48 -142 108 -142c37 0 68 20 84 49v211c-20 19 -45 30 -81 30z" unicode="d" horiz-adv-x="584" glyph-name="d"/>
<glyph d="M502 256l-46 -39l-279 -8c5 -73 47 -112 127 -112c75 0 131 26 179 57l-3 -115c-57 -35 -119 -56 -193 -56c-172 0 -256 111 -256 245c0 153 104 264 256 264c150 0 215 -105 215 -236zM178 284l190 5c-6 63 -31 98 -86 98c-59 0 -96 -44 -104 -103z" unicode="e" horiz-adv-x="529" glyph-name="e"/>
<glyph d="M359 721l9 -120c-14 5 -29 7 -45 7c-54 0 -80 -32 -80 -95v-32h118c-3 -22 -4 -72 -4 -108h-114v-276c0 -35 1 -72 4 -97h-160c5 43 7 105 7 163v210h-83l23 108h60v25c0 138 70 223 202 223c26 0 46 -4 63 -8z" unicode="f" horiz-adv-x="365" glyph-name="f"/>
<glyph d="M472 317c0 -110 -93 -184 -220 -184c-27 0 -52 3 -75 9c-18 -11 -27 -22 -27 -32c0 -20 21 -30 114 -30h22c136 0 220 -33 220 -123c0 -101 -114 -190 -286 -190c-143 0 -216 54 -216 121c0 50 39 86 98 110c-35 15 -59 42 -59 76c0 37 27 70 72 96 c-45 30 -71 76 -71 131c0 108 92 191 221 191c31 0 59 -5 83 -13c11 78 59 115 152 105l-5 -112c-50 11 -75 1 -86 -28c41 -34 63 -82 63 -127zM251 -31l-65 2c-45 -18 -63 -42 -63 -62c0 -29 34 -54 109 -54c85 0 140 34 140 72c0 28 -30 41 -102 42h-19zM336 307 c0 58 -32 88 -76 88c-47 0 -79 -35 -79 -84c0 -60 32 -89 76 -89c48 0 79 34 79 85z" unicode="g" horiz-adv-x="513" glyph-name="g"/>
<glyph d="M533 0h-162c5 43 7 112 7 170v111c0 58 -15 92 -63 92c-55 0 -101 -47 -104 -100v-173c0 -35 1 -74 4 -100h-161c4 43 6 108 6 167v382c0 58 -2 118 -6 161c35 2 131 12 161 18c-3 -26 -4 -115 -4 -133v-209c40 67 111 106 173 106c99 0 145 -64 145 -170v-219 c0 -35 2 -77 4 -103z" unicode="h" horiz-adv-x="587" glyph-name="h"/>
<glyph d="M215 0h-162c5 43 7 105 7 164v143c0 58 -2 127 -7 170c36 0 132 6 162 9c-3 -26 -4 -72 -4 -107v-282c0 -35 1 -71 4 -97zM228 649c0 -49 -40 -83 -89 -83s-87 33 -87 78c0 49 40 84 90 84c47 0 86 -34 86 -79z" unicode="i" horiz-adv-x="272" glyph-name="i"/>
<glyph d="M218 486c-3 -26 -4 -72 -4 -107v-378c0 -164 -74 -229 -181 -229c-27 0 -47 5 -62 9l-17 123c13 -3 25 -5 39 -5c47 0 71 22 71 87v321c0 58 -2 127 -7 170c36 0 131 6 161 9zM230 649c0 -49 -39 -83 -89 -83c-49 0 -86 33 -86 78c0 49 39 84 89 84c48 0 86 -34 86 -79z " unicode="j" horiz-adv-x="274" glyph-name="j"/>
<glyph d="M371 -12l-160 228v-116c0 -35 1 -75 4 -100h-161c4 43 6 108 6 166v383c0 58 -2 118 -6 161c35 2 131 12 161 18c-3 -26 -4 -115 -4 -134v-317c39 55 127 184 142 204c52 0 122 2 168 6l-178 -229l43 -59c32 -36 123 -165 149 -192z" unicode="k" horiz-adv-x="532" glyph-name="k"/>
<glyph d="M215 0h-161c4 43 6 108 6 167v382c0 58 -2 118 -6 161c35 2 131 12 161 18c-3 -26 -4 -115 -4 -133v-495c0 -35 1 -74 4 -100z" unicode="l" horiz-adv-x="272" glyph-name="l"/>
<glyph d="M822 0h-162c5 43 6 112 6 170v111c0 58 -12 92 -59 92c-53 0 -93 -43 -93 -93v-177c0 -35 1 -77 4 -103h-162c5 43 6 112 6 170v111c0 58 -10 92 -57 92c-53 0 -94 -43 -94 -93v-177c0 -35 1 -77 4 -103h-161c4 43 6 112 6 170v138c0 58 -2 122 -6 165 c35 0 119 10 149 13l7 -90c40 60 102 96 160 96c77 0 121 -39 136 -100c36 60 99 100 166 100c100 0 146 -64 146 -170v-219c0 -35 1 -77 4 -103z" unicode="m" horiz-adv-x="876" glyph-name="m"/>
<glyph d="M533 0h-162c5 43 7 112 7 170v111c0 58 -15 92 -63 92c-55 0 -104 -51 -104 -100v-170c0 -35 1 -77 4 -103h-161c4 43 6 112 6 170v138c0 58 -2 122 -6 165c35 0 119 10 149 13l7 -101c40 67 111 107 174 107c99 0 145 -64 145 -170v-219c0 -35 2 -77 4 -103z" unicode="n" horiz-adv-x="587" glyph-name="n"/>
<glyph d="M529 249c0 -153 -101 -267 -256 -267c-147 0 -242 109 -242 243c0 153 102 267 255 267c149 0 243 -109 243 -243zM382 234c0 104 -44 146 -100 146c-63 0 -104 -53 -104 -139c0 -103 41 -147 100 -147c65 0 104 52 104 140z" unicode="o" glyph-name="o"/>
<glyph d="M554 256c0 -164 -112 -274 -232 -274c-46 0 -82 12 -110 31v-125c0 -34 1 -68 4 -93c-17 -1 -148 -12 -162 -15c5 42 7 109 7 166v359c0 58 -2 124 -7 168c35 0 115 8 145 12l7 -63c35 40 84 70 146 70c128 0 202 -111 202 -236zM404 242c0 97 -47 140 -105 140 c-36 0 -66 -20 -87 -48v-210c20 -20 45 -32 86 -32c66 0 106 69 106 150z" unicode="p" horiz-adv-x="585" glyph-name="p"/>
<glyph d="M373 135v222c-21 16 -46 25 -79 25c-71 0 -113 -67 -113 -149c0 -90 43 -140 105 -140c36 0 68 17 87 42zM505 491l26 -10c-5 -50 -7 -115 -7 -173v-408c0 -38 1 -77 5 -105c-16 0 -148 -13 -162 -15c5 35 6 130 6 161v99c-33 -34 -79 -58 -134 -58 c-128 0 -209 110 -209 238c0 154 103 272 243 272c54 0 99 -19 133 -38z" unicode="q" horiz-adv-x="584" glyph-name="q"/>
<glyph d="M381 492l-12 -147c-77 10 -158 -16 -158 -100v-142c0 -35 1 -77 4 -103h-161c5 43 6 112 6 170v149c0 58 -2 109 -8 151c33 0 120 12 150 17l8 -111c32 68 87 108 171 116z" unicode="r" horiz-adv-x="391" glyph-name="r"/>
<glyph d="M238 492c63 0 124 -15 161 -33l-33 -107c-34 21 -76 35 -117 35c-40 0 -65 -14 -65 -43c0 -61 236 -48 236 -200c0 -104 -87 -162 -206 -162c-54 0 -137 16 -179 40l5 120c44 -27 113 -54 172 -54c43 0 68 16 68 42c0 70 -234 51 -234 208c0 86 73 154 192 154z" unicode="s" horiz-adv-x="447" glyph-name="s"/>
<glyph d="M365 124l-4 -112c-28 -17 -72 -28 -112 -28c-101 0 -158 43 -158 165v224h-82l24 108h60l9 98l140 46v-144h123c-2 -22 -3 -72 -3 -108h-120v-209c0 -50 19 -62 51 -62c25 0 52 9 72 22z" unicode="t" horiz-adv-x="389" glyph-name="t"/>
<glyph d="M534 0h-140l-16 84c-35 -62 -99 -102 -162 -102c-105 0 -158 63 -158 182v146c0 57 -2 120 -5 165c56 0 114 3 161 7c-4 -26 -5 -76 -5 -111v-170c0 -68 18 -100 74 -100c42 0 93 41 93 93v116c0 57 -2 120 -6 165c56 0 116 3 163 7c-4 -26 -6 -76 -6 -111v-205 c0 -58 2 -121 7 -166z" unicode="u" horiz-adv-x="587" glyph-name="u"/>
<glyph d="M207 -8c-17 47 -42 107 -68 167l-56 129c-25 59 -60 141 -83 184c16 0 143 10 156 12l112 -303l45 135c14 42 42 121 55 162c56 0 106 0 152 4l-198 -484z" unicode="v" horiz-adv-x="522" glyph-name="v"/>
<glyph d="M178 -7c-13 47 -34 106 -56 166l-48 129c-22 59 -52 141 -72 185c16 0 134 9 151 10l90 -283l39 110l57 168l101 5l98 -282l36 110c6 20 44 140 51 167c56 0 98 0 144 3l-181 -483l-105 -6c-15 51 -37 114 -62 181l-36 100l-101 -275z" unicode="w" horiz-adv-x="772" glyph-name="w"/>
<glyph d="M184 484l88 -156c31 53 78 134 88 150c58 0 116 0 164 4l-169 -240l37 -53c20 -33 110 -160 129 -186l-162 -12l-99 162c-34 -52 -88 -139 -97 -153h-163l176 236l-29 45c-22 36 -107 165 -125 191c17 0 148 10 162 12z" unicode="x" horiz-adv-x="525" glyph-name="x"/>
<glyph d="M79 -216l111 258c-16 41 -27 70 -47 117l-57 129c-26 59 -61 141 -84 184c16 0 144 10 157 12l106 -293l43 125c20 56 41 118 56 162c55 0 106 0 151 4l-208 -506c-14 -37 -54 -135 -70 -185c-53 0 -113 -2 -158 -7z" unicode="y" horiz-adv-x="515" glyph-name="y"/>
<glyph d="M462 482l11 -64l-245 -301c90 0 188 1 238 3c-5 -41 -7 -75 -8 -125c-55 4 -131 5 -208 5c-83 0 -152 -1 -214 -5l-12 65l244 301c-104 0 -164 -1 -222 -2c2 39 4 80 4 123c74 -2 103 -4 198 -4c91 0 150 2 214 4z" unicode="z" horiz-adv-x="497" glyph-name="z"/>
<glyph d="M9 0l165 383c26 62 44 101 58 143l113 8l163 -380c20 -47 48 -108 70 -154l-157 -6l-42 103h-184c-11 -27 -28 -74 -38 -97h-148zM286 354l-59 -163h119z" horiz-adv-x="588" glyph-name="a.sc"/>
<glyph d="M287 0h-225c4 36 5 132 5 181v165c0 48 -1 143 -5 179c24 0 123 5 211 5c146 0 199 -68 199 -136c0 -58 -38 -97 -88 -115c76 -19 112 -66 112 -125c0 -88 -67 -154 -209 -154zM209 106c16 -1 39 -2 56 -2c55 0 86 19 86 62c0 37 -28 63 -97 63c-17 0 -34 -1 -46 -3v-93 c0 -9 0 -16 1 -27zM208 310c8 -1 39 -1 47 -1c52 0 80 22 80 59c0 39 -27 57 -80 57c-20 0 -36 -1 -46 -2c-1 -10 -1 -22 -1 -30v-83z" horiz-adv-x="529" glyph-name="b.sc"/>
<glyph d="M489 167l-6 -134c-49 -32 -105 -48 -169 -48c-166 0 -279 119 -279 264c0 166 121 291 294 291c60 0 118 -16 160 -43l-23 -119c-30 25 -75 44 -122 44c-92 0 -156 -67 -156 -157c0 -102 67 -159 154 -159c62 0 107 27 147 61z" horiz-adv-x="526" glyph-name="c.sc"/>
<glyph d="M545 275c0 -168 -111 -275 -285 -275h-198c4 36 5 132 5 181v165c0 48 -1 143 -5 179c27 0 96 5 179 5c196 0 304 -98 304 -255zM398 268c0 93 -53 150 -143 150c-15 0 -24 0 -39 -1c-1 -10 -1 -28 -1 -36v-235c0 -9 0 -21 1 -32c16 -2 24 -3 40 -3c100 0 142 70 142 157 z" horiz-adv-x="581" glyph-name="d.sc"/>
<glyph d="M438 117c-4 -38 -5 -74 -6 -120c-52 3 -121 4 -181 4c-65 0 -134 -1 -189 -4c4 36 5 134 5 182v168c0 48 -1 147 -5 183c54 -2 112 -3 179 -3c64 0 129 1 182 3c-4 -37 -6 -73 -6 -119c-40 1 -85 2 -132 2c-22 0 -48 0 -70 -1c-1 -10 -1 -26 -1 -33v-61l176 1 c-2 -32 -2 -60 -2 -99h-174v-70c0 -9 0 -24 1 -35c22 0 48 -1 70 -1c54 0 107 1 153 3z" horiz-adv-x="470" glyph-name="e.sc"/>
<glyph d="M419 530c-3 -39 -5 -74 -5 -121c-40 1 -82 1 -129 1h-67c-1 -13 -1 -33 -1 -42v-61h161c-2 -33 -3 -61 -3 -102h-158v-97c0 -29 0 -88 3 -108h-158c4 36 5 132 5 181v166c0 48 -1 147 -5 183c54 -2 114 -3 181 -3c64 0 123 1 176 3z" horiz-adv-x="451" glyph-name="f.sc"/>
<glyph d="M520 490l-36 -116c-39 26 -88 44 -138 44c-101 0 -164 -68 -164 -155c0 -105 67 -162 152 -162c23 0 44 4 63 11v53c0 7 0 26 -1 37h-37c-23 0 -39 0 -68 -2c2 39 2 70 1 99c43 -2 66 -3 98 -3c62 0 88 1 141 3c-4 -27 -5 -126 -5 -173v-85c-58 -35 -127 -56 -214 -56 c-167 0 -277 119 -277 265c0 167 122 290 302 290c78 0 141 -22 183 -50z" horiz-adv-x="579" glyph-name="g.sc"/>
<glyph d="M519 488l-36 -117c-32 22 -82 47 -139 47c-100 0 -160 -69 -160 -156c0 -103 70 -158 150 -158c22 0 41 3 59 8v68c0 27 -1 79 -4 96h142c-3 -16 -5 -112 -5 -153v-79c-58 -37 -127 -59 -214 -59c-167 0 -277 119 -277 265c0 167 124 290 298 290c82 0 149 -27 186 -52z " horiz-adv-x="579" glyph-name="g.sc_alt"/>
<glyph d="M553 0h-157c4 36 6 121 6 170v42h-187v-104c0 -29 0 -88 3 -108h-156c4 36 5 132 5 181v165c0 48 -1 144 -5 180c30 0 132 1 156 4c-3 -22 -3 -82 -3 -111v-95h187v23c0 48 -2 143 -6 179c29 0 131 1 157 4c-3 -22 -4 -82 -4 -111v-311c0 -29 1 -88 4 -108z" horiz-adv-x="616" glyph-name="h.sc"/>
<glyph d="M221 0h-158c4 36 5 132 5 181v165c0 48 -1 144 -5 180c30 0 133 1 158 4c-3 -22 -3 -82 -3 -111v-311c0 -29 0 -88 3 -108z" horiz-adv-x="285" glyph-name="i.sc"/>
<glyph d="M179 346c0 48 -1 144 -5 180c30 0 132 1 158 4c-4 -22 -4 -82 -4 -111v-231c0 -139 -46 -201 -174 -201c-38 0 -93 9 -130 22l7 126c29 -11 59 -18 88 -18c44 0 60 24 60 65v164z" horiz-adv-x="391" glyph-name="j.sc"/>
<glyph d="M562 3l-168 -10l-178 242v-127c0 -29 0 -88 3 -108h-157c4 36 5 132 5 181v165c0 48 -1 144 -5 180c30 0 132 1 157 4c-3 -22 -3 -82 -3 -111v-123l71 99c25 34 70 98 95 133h167l-198 -252l119 -159c21 -27 66 -84 92 -114z" horiz-adv-x="568" glyph-name="k.sc"/>
<glyph d="M62 -3c4 36 5 134 5 183v166c0 48 -1 144 -5 180c30 0 132 1 157 4c-3 -22 -3 -82 -3 -111v-260c0 -9 0 -27 1 -39c19 0 38 -1 57 -1c57 0 103 1 151 2c-6 -39 -7 -80 -8 -124c-52 3 -111 4 -174 4s-127 -1 -181 -4z" horiz-adv-x="446" glyph-name="l.sc"/>
<glyph d="M688 0l-144 -6c-1 21 -8 85 -12 114l-23 175l-114 -288l-74 -4c-11 25 -78 192 -116 287l-19 -171c-3 -29 -10 -108 -9 -107h-145c9 39 24 133 31 181l23 166c7 48 19 144 22 183l107 6l48 -108l101 -227l98 228l43 105h105c6 -43 17 -139 24 -187l23 -166 c7 -49 20 -125 31 -181z" horiz-adv-x="720" glyph-name="m.sc"/>
<glyph d="M59 0c4 36 7 132 7 181l1 169c0 48 0 140 -4 176l101 8l255 -303v115c0 48 -1 144 -6 180c30 0 126 1 151 4c-3 -22 -4 -82 -5 -111l-2 -314c0 -29 1 -87 4 -107l-99 -8l-255 302v-184c0 -29 0 -88 3 -108h-151z" horiz-adv-x="625" glyph-name="n.sc"/>
<glyph d="M314 540c160 0 264 -115 264 -264c0 -171 -112 -291 -279 -291c-161 0 -264 115 -264 264c0 171 111 291 279 291zM305 101c75 0 124 65 124 159c0 109 -51 165 -121 165c-76 0 -125 -67 -125 -160c0 -107 52 -164 122 -164z" horiz-adv-x="613" glyph-name="o.sc"/>
<glyph d="M62 526c26 0 144 4 183 4c162 0 244 -73 244 -177c0 -115 -75 -199 -246 -199h-27v-46c0 -29 1 -88 3 -108h-157c4 36 5 132 5 181v165c0 48 -1 144 -5 180zM347 338c0 54 -30 80 -92 80c-13 0 -24 0 -41 -1v-158c10 -1 20 -1 29 -1c64 0 104 26 104 80z" horiz-adv-x="508" glyph-name="p.sc"/>
<glyph d="M314 540c160 0 264 -115 264 -264c0 -116 -51 -208 -136 -256l79 -22l116 -32l-86 -99l-288 120c-140 15 -228 124 -228 262c0 171 111 291 279 291zM308 425c-76 0 -125 -67 -125 -160c0 -107 52 -164 122 -164c75 0 124 65 124 159c0 109 -51 165 -121 165z" horiz-adv-x="614" glyph-name="q.sc"/>
<glyph d="M532 4l-163 -11l-104 180h-11c-3 -1 -41 -1 -41 -1v-64c0 -29 1 -88 3 -108h-154c4 36 5 132 5 181v165c0 48 -1 144 -5 180c27 0 144 3 178 4c166 0 251 -65 250 -164c0 -73 -36 -120 -99 -155l85 -127zM212 267h47c52 0 87 32 87 77c0 48 -28 74 -92 74 c-14 0 -27 0 -41 -1c-1 -17 -1 -31 -1 -43v-107z" horiz-adv-x="546" glyph-name="r.sc"/>
<glyph d="M418 156c0 -109 -85 -171 -204 -171c-62 0 -134 20 -175 43l4 124c39 -24 106 -54 169 -54c41 0 64 17 64 46c0 72 -226 75 -226 228c0 108 82 168 197 168c57 0 119 -18 154 -39l-26 -112c-34 20 -78 37 -119 37c-43 0 -63 -20 -63 -44c0 -68 225 -70 225 -226z" horiz-adv-x="451" glyph-name="s.sc"/>
<glyph d="M491 530c-3 -40 -5 -79 -5 -129c-52 1 -92 2 -151 2c-1 -16 -1 -35 -1 -47v-248c0 -29 0 -88 3 -108h-158c4 36 6 132 6 181v112c0 27 -1 72 -2 110c-59 0 -105 -1 -156 -2c2 38 2 88 2 129c73 -2 143 -3 229 -3c88 0 161 1 233 3z" horiz-adv-x="518" glyph-name="t.sc"/>
<glyph d="M544 530c-3 -22 -4 -82 -4 -111v-187c0 -85 -23 -140 -65 -181c-44 -43 -104 -66 -181 -66c-139 0 -232 72 -232 209v152c0 48 -2 144 -6 180c30 0 132 1 157 4c-2 -22 -3 -82 -3 -111v-201c0 -79 34 -111 94 -111c58 0 88 34 88 101v138c0 48 -2 144 -6 180 c30 0 133 1 158 4z" horiz-adv-x="601" glyph-name="u.sc"/>
<glyph d="M9 524l156 6l120 -339l78 223c16 46 28 79 38 112h151l-159 -384c-26 -65 -40 -101 -55 -144l-106 -7l-158 379c-20 48 -44 108 -65 154z" horiz-adv-x="561" glyph-name="v.sc"/>
<glyph d="M791 526l-131 -381c-21 -64 -34 -103 -47 -147l-104 -8l-106 317l-59 -180c-13 -43 -28 -85 -43 -133l-106 -1l-128 378c-16 47 -36 107 -54 152l155 6l93 -331l61 208c5 14 31 106 37 120l94 7l106 -332l51 204c9 24 25 96 32 121h149z" horiz-adv-x="804" glyph-name="w.sc"/>
<glyph d="M177 0h-158l181 268l-71 105c-20 29 -82 123 -102 151l159 6l107 -170l38 64c19 31 48 77 65 102h158l-175 -258l66 -98c19 -27 92 -140 113 -170l-160 -6l-111 181l-36 -59c-16 -25 -56 -89 -74 -116z" horiz-adv-x="578" glyph-name="x.sc"/>
<glyph d="M6 524l157 6l112 -198l32 58c17 28 60 107 78 136h155l-198 -311v-107c0 -29 1 -88 4 -108h-154c4 36 5 132 5 181v33l-76 126c-21 34 -93 151 -115 184z" horiz-adv-x="544" glyph-name="y.sc"/>
<glyph d="M481 530l13 -72l-265 -343c13 -1 72 -1 86 -1c58 0 127 1 166 3c-3 -36 -6 -77 -6 -120c-46 3 -134 4 -210 4c-87 0 -164 -1 -222 -4l-13 73l266 343c-13 1 -64 1 -79 1c-64 0 -115 -1 -164 -2c3 33 6 81 6 118c78 -2 110 -3 213 -3c97 0 155 1 209 3z" horiz-adv-x="523" glyph-name="z.sc"/>
<glyph d="M3 0l226 512c37 84 61 138 81 195l108 9l227 -512c27 -62 65 -143 95 -204l-172 -8l-69 163h-267c-16 -38 -48 -123 -60 -155h-169zM383 927l188 9l-165 -160l-108 -5zM364 495l-91 -233h184z" unicode="Á" horiz-adv-x="743" glyph-name="Aacute"/>
<glyph d="M171 -13c-89 0 -146 51 -146 134c0 96 82 160 246 160c11 0 24 -1 37 -2l1 14c2 53 -21 80 -82 80c-53 0 -109 -21 -145 -44l-21 111c52 30 124 52 196 52c138 0 200 -67 197 -192l-5 -175c-1 -28 8 -37 29 -37c9 0 20 2 30 6l-7 -90c-26 -9 -50 -16 -81 -16 c-50 0 -91 22 -103 78c-27 -47 -85 -79 -146 -79zM275 701l188 9l-165 -160l-108 -5zM225 80c45 0 79 32 81 86l1 45c-11 1 -21 2 -32 2c-80 0 -111 -32 -111 -74c0 -34 21 -59 61 -59z" unicode="á" horiz-adv-x="522" glyph-name="aacute"/>
<glyph d="M9 0l165 383c26 62 44 101 58 143l113 8l163 -380c20 -47 48 -108 70 -154l-157 -6l-42 103h-184c-11 -27 -28 -74 -38 -97h-148zM307 747l188 9l-165 -160l-108 -5zM286 354l-59 -163h119z" horiz-adv-x="588" glyph-name="aacute.sc"/>
<glyph d="M3 0l226 512c37 84 61 138 81 195l108 9l227 -512c27 -62 65 -143 95 -204l-172 -8l-69 163h-267c-16 -38 -48 -123 -60 -155h-169zM437 939l100 4c2 -108 -64 -175 -169 -175c-99 0 -168 68 -168 168l102 9c0 -58 27 -86 69 -86c47 0 66 37 66 80zM364 495l-91 -233h184 z" unicode="Ă" horiz-adv-x="743" glyph-name="Abreve"/>
<glyph d="M171 -13c-89 0 -146 51 -146 134c0 96 82 160 246 160c11 0 24 -1 37 -2l1 14c2 53 -21 80 -82 80c-53 0 -109 -21 -145 -44l-21 111c52 30 124 52 196 52c138 0 200 -67 197 -192l-5 -175c-1 -28 8 -37 29 -37c9 0 20 2 30 6l-7 -90c-26 -9 -50 -16 -81 -16 c-50 0 -91 22 -103 78c-27 -47 -85 -79 -146 -79zM328 713l100 4c2 -108 -64 -175 -169 -175c-99 0 -168 68 -168 168l102 9c0 -58 27 -86 69 -86c47 0 66 37 66 80zM225 80c45 0 79 32 81 86l1 45c-11 1 -21 2 -32 2c-80 0 -111 -32 -111 -74c0 -34 21 -59 61 -59z" unicode="ă" horiz-adv-x="522" glyph-name="abreve"/>
<glyph d="M9 0l165 383c26 62 44 101 58 143l113 8l163 -380c20 -47 48 -108 70 -154l-157 -6l-42 103h-184c-11 -27 -28 -74 -38 -97h-148zM360 759l100 4c2 -108 -64 -175 -169 -175c-99 0 -168 68 -168 168l102 9c0 -58 27 -86 69 -86c47 0 66 37 66 80zM286 354l-59 -163h119z " horiz-adv-x="588" glyph-name="abreve.sc"/>
<glyph d="M3 0l226 512c37 84 61 138 81 195l108 9l227 -512c27 -62 65 -143 95 -204l-172 -8l-69 163h-267c-16 -38 -48 -123 -60 -155h-169zM302 935h138l111 -162l-94 -6l-87 82l-80 -75h-102zM364 495l-91 -233h184z" unicode="Â" horiz-adv-x="743" glyph-name="Acircumflex"/>
<glyph d="M171 -13c-89 0 -146 51 -146 134c0 96 82 160 246 160c11 0 24 -1 37 -2l1 14c2 53 -21 80 -82 80c-53 0 -109 -21 -145 -44l-21 111c52 30 124 52 196 52c138 0 200 -67 197 -192l-5 -175c-1 -28 8 -37 29 -37c9 0 20 2 30 6l-7 -90c-26 -9 -50 -16 -81 -16 c-50 0 -91 22 -103 78c-27 -47 -85 -79 -146 -79zM193 709h138l111 -162l-94 -6l-87 82l-80 -75h-102zM225 80c45 0 79 32 81 86l1 45c-11 1 -21 2 -32 2c-80 0 -111 -32 -111 -74c0 -34 21 -59 61 -59z" unicode="â" horiz-adv-x="522" glyph-name="acircumflex"/>
<glyph d="M9 0l165 383c26 62 44 101 58 143l113 8l163 -380c20 -47 48 -108 70 -154l-157 -6l-42 103h-184c-11 -27 -28 -74 -38 -97h-148zM225 751h138l111 -162l-94 -6l-87 82l-80 -75h-102zM286 354l-59 -163h119z" horiz-adv-x="588" glyph-name="acircumflex.sc"/>
<glyph d="M3 0l226 512c37 84 61 138 81 195l108 9l227 -512c27 -62 65 -143 95 -204l-172 -8l-69 163h-267c-16 -38 -48 -123 -60 -155h-169zM364 495l-91 -233h184zM342 861c0 -47 -33 -79 -78 -79c-43 0 -75 31 -75 73c0 47 34 80 78 80c43 0 75 -32 75 -74zM550 861 c0 -47 -34 -79 -78 -79c-43 0 -75 31 -75 73c0 47 34 80 78 80c42 0 75 -32 75 -74z" unicode="Ä" horiz-adv-x="743" glyph-name="Adieresis"/>
<glyph d="M171 -13c-89 0 -146 51 -146 134c0 96 82 160 246 160c11 0 24 -1 37 -2l1 14c2 53 -21 80 -82 80c-53 0 -109 -21 -145 -44l-21 111c52 30 124 52 196 52c138 0 200 -67 197 -192l-5 -175c-1 -28 8 -37 29 -37c9 0 20 2 30 6l-7 -90c-26 -9 -50 -16 -81 -16 c-50 0 -91 22 -103 78c-27 -47 -85 -79 -146 -79zM233 635c0 -47 -33 -79 -78 -79c-43 0 -75 31 -75 73c0 47 34 80 78 80c43 0 75 -32 75 -74zM441 635c0 -47 -34 -79 -78 -79c-43 0 -75 31 -75 73c0 47 34 80 78 80c42 0 75 -32 75 -74zM225 80c45 0 79 32 81 86l1 45 c-11 1 -21 2 -32 2c-80 0 -111 -32 -111 -74c0 -34 21 -59 61 -59z" unicode="ä" horiz-adv-x="522" glyph-name="adieresis"/>
<glyph d="M9 0l165 383c26 62 44 101 58 143l113 8l163 -380c20 -47 48 -108 70 -154l-157 -6l-42 103h-184c-11 -27 -28 -74 -38 -97h-148zM265 681c0 -47 -33 -79 -78 -79c-43 0 -75 31 -75 73c0 47 34 80 78 80c43 0 75 -32 75 -74zM473 681c0 -47 -34 -79 -78 -79 c-43 0 -75 31 -75 73c0 47 34 80 78 80c42 0 75 -32 75 -74zM286 354l-59 -163h119z" horiz-adv-x="588" glyph-name="adieresis.sc"/>
<glyph d="M3 0l226 512c37 84 61 138 81 195l108 9l227 -512c27 -62 65 -143 95 -204l-172 -8l-69 163h-267c-16 -38 -48 -123 -60 -155h-169zM174 927l177 9l83 -160l-106 -5zM364 495l-91 -233h184z" unicode="À" horiz-adv-x="743" glyph-name="Agrave"/>
<glyph d="M171 -13c-89 0 -146 51 -146 134c0 96 82 160 246 160c11 0 24 -1 37 -2l1 14c2 53 -21 80 -82 80c-53 0 -109 -21 -145 -44l-21 111c52 30 124 52 196 52c138 0 200 -67 197 -192l-5 -175c-1 -28 8 -37 29 -37c9 0 20 2 30 6l-7 -90c-26 -9 -50 -16 -81 -16 c-50 0 -91 22 -103 78c-27 -47 -85 -79 -146 -79zM65 701l177 9l83 -160l-106 -5zM225 80c45 0 79 32 81 86l1 45c-11 1 -21 2 -32 2c-80 0 -111 -32 -111 -74c0 -34 21 -59 61 -59z" unicode="à" horiz-adv-x="522" glyph-name="agrave"/>
<glyph d="M9 0l165 383c26 62 44 101 58 143l113 8l163 -380c20 -47 48 -108 70 -154l-157 -6l-42 103h-184c-11 -27 -28 -74 -38 -97h-148zM97 747l177 9l83 -160l-106 -5zM286 354l-59 -163h119z" horiz-adv-x="588" glyph-name="agrave.sc"/>
<glyph d="M3 0l226 512c37 84 61 138 81 195l108 9l227 -512c27 -62 65 -143 95 -204l-172 -8l-69 163h-267c-16 -38 -48 -123 -60 -155h-169zM544 907c-3 -29 -5 -69 -5 -102c-44 1 -80 2 -119 2h-106c-48 0 -82 -1 -119 -2c2 25 3 71 3 102c57 -2 98 -3 175 -3c53 0 115 1 171 3z M364 495l-91 -233h184z" unicode="Ā" horiz-adv-x="743" glyph-name="Amacron"/>
<glyph d="M171 -13c-89 0 -146 51 -146 134c0 96 82 160 246 160c11 0 24 -1 37 -2l1 14c2 53 -21 80 -82 80c-53 0 -109 -21 -145 -44l-21 111c52 30 124 52 196 52c138 0 200 -67 197 -192l-5 -175c-1 -28 8 -37 29 -37c9 0 20 2 30 6l-7 -90c-26 -9 -50 -16 -81 -16 c-50 0 -91 22 -103 78c-27 -47 -85 -79 -146 -79zM435 681c-3 -29 -5 -69 -5 -102c-44 1 -80 2 -119 2h-106c-48 0 -82 -1 -119 -2c2 25 3 71 3 102c57 -2 98 -3 175 -3c53 0 115 1 171 3zM225 80c45 0 79 32 81 86l1 45c-11 1 -21 2 -32 2c-80 0 -111 -32 -111 -74 c0 -34 21 -59 61 -59z" unicode="ā" horiz-adv-x="522" glyph-name="amacron"/>
<glyph d="M9 0l165 383c26 62 44 101 58 143l113 8l163 -380c20 -47 48 -108 70 -154l-157 -6l-42 103h-184c-11 -27 -28 -74 -38 -97h-148zM468 727c-3 -29 -5 -69 -5 -102c-44 1 -80 2 -119 2h-106c-48 0 -82 -1 -119 -2c2 25 3 71 3 102c57 -2 98 -3 175 -3c53 0 115 1 171 3z M286 354l-59 -163h119z" horiz-adv-x="588" glyph-name="amacron.sc"/>
<glyph d="M3 0l226 512c37 84 61 138 81 195l108 9l227 -512c27 -62 65 -143 95 -204c-78 -36 -111 -69 -111 -101c0 -23 17 -39 46 -39c20 0 38 6 58 18l-4 -79c-26 -14 -61 -22 -93 -22c-70 0 -117 37 -117 94c0 44 29 85 90 123l-41 -2l-69 163h-267c-16 -38 -48 -123 -60 -155 h-169zM364 495l-91 -233h184z" unicode="Ą" horiz-adv-x="743" glyph-name="Aogonek"/>
<glyph d="M171 -13c-89 0 -146 51 -146 134c0 96 82 160 246 160c11 0 24 -1 37 -2l1 13c2 54 -21 81 -82 81c-53 0 -109 -20 -145 -44l-21 111c52 30 124 52 196 52c138 0 200 -67 197 -193l-5 -174c-1 -28 8 -37 29 -37c9 0 20 2 30 6l-7 -88c-78 -46 -105 -77 -105 -107 c0 -23 17 -39 45 -39c21 0 39 6 59 18l-4 -79c-26 -14 -61 -22 -93 -22c-70 0 -117 37 -117 94c0 44 31 84 94 123c-31 9 -55 32 -63 72c-27 -47 -85 -79 -146 -79zM225 80c45 0 79 32 81 86l1 45c-11 1 -21 2 -32 2c-80 0 -111 -32 -111 -74c0 -34 21 -59 61 -59z" unicode="ą" horiz-adv-x="522" glyph-name="aogonek"/>
<glyph d="M9 0l165 383c26 62 44 101 58 143l113 8l163 -380c20 -47 48 -108 70 -154c-78 -36 -111 -69 -111 -101c0 -23 17 -39 46 -39c20 0 38 6 58 18l-4 -79c-26 -14 -61 -22 -93 -22c-70 0 -117 37 -117 94c0 44 31 85 95 124l-31 -1l-42 103h-184c-11 -27 -28 -74 -38 -97 h-148zM286 354l-59 -163h119z" horiz-adv-x="588" glyph-name="aogonek.sc"/>
<glyph d="M505 798c0 -51 -27 -95 -72 -117l212 -477c27 -62 65 -143 95 -204l-172 -8l-69 163h-267c-16 -38 -48 -123 -60 -155h-169l226 512c30 70 52 118 70 166c-44 20 -71 61 -71 107c0 74 57 132 142 132c83 0 135 -55 135 -119zM364 495l-91 -233h184zM422 793 c0 30 -19 53 -55 53c-35 0 -55 -25 -55 -55c0 -31 21 -55 54 -55c35 0 56 26 56 57z" unicode="Å" horiz-adv-x="743" glyph-name="Aring"/>
<glyph d="M171 -13c-89 0 -146 51 -146 134c0 96 82 160 246 160c11 0 24 -1 37 -2l1 14c2 53 -21 80 -82 80c-53 0 -109 -21 -145 -44l-21 111c52 30 124 52 196 52c138 0 200 -67 197 -192l-5 -175c-1 -28 8 -37 29 -37c9 0 20 2 30 6l-7 -90c-26 -9 -50 -16 -81 -16 c-50 0 -91 22 -103 78c-27 -47 -85 -79 -146 -79zM399 674c0 -73 -56 -133 -142 -133c-82 0 -135 56 -135 120c0 74 57 132 142 132c83 0 135 -55 135 -119zM225 80c45 0 79 32 81 86l1 45c-11 1 -21 2 -32 2c-80 0 -111 -32 -111 -74c0 -34 21 -59 61 -59zM316 669 c0 30 -19 53 -55 53c-35 0 -55 -25 -55 -55c0 -31 21 -55 54 -55c35 0 56 26 56 57z" unicode="å" horiz-adv-x="522" glyph-name="aring"/>
<glyph d="M9 0l165 383c20 48 35 82 47 114c-44 21 -70 62 -70 107c0 74 57 132 142 132c83 0 135 -55 135 -119c0 -50 -26 -93 -69 -116l149 -347c20 -47 48 -108 70 -154l-157 -6l-42 103h-184c-11 -27 -28 -74 -38 -97h-148zM345 612c0 30 -19 53 -55 53c-35 0 -55 -25 -55 -55 c0 -31 21 -55 54 -55c35 0 56 26 56 57zM286 354l-59 -163h119z" horiz-adv-x="588" glyph-name="aring.sc"/>
<glyph d="M505 798c0 -51 -27 -95 -72 -117l212 -477c27 -62 65 -143 95 -204l-172 -8l-69 163h-267c-16 -38 -48 -123 -60 -155h-169l226 512c30 70 52 118 70 166c-44 20 -71 61 -71 107c0 74 57 132 142 132c83 0 135 -55 135 -119zM377 1125l188 9l-165 -160l-108 -5zM364 495 l-91 -233h184zM422 793c0 30 -19 53 -55 53c-35 0 -55 -25 -55 -55c0 -31 21 -55 54 -55c35 0 56 26 56 57z" unicode="Ǻ" horiz-adv-x="743" glyph-name="Aringacute"/>
<glyph d="M171 -13c-89 0 -146 51 -146 134c0 96 82 160 246 160c11 0 24 -1 37 -2l1 14c2 53 -21 80 -82 80c-53 0 -109 -21 -145 -44l-21 111c52 30 124 52 196 52c138 0 200 -67 197 -192l-5 -175c-1 -28 8 -37 29 -37c9 0 20 2 30 6l-7 -90c-26 -9 -50 -16 -81 -16 c-50 0 -91 22 -103 78c-27 -47 -85 -79 -146 -79zM398 674c0 -73 -56 -133 -142 -133c-82 0 -135 56 -135 120c0 74 57 132 142 132c83 0 135 -55 135 -119zM270 1001l188 9l-165 -160l-108 -5zM225 80c45 0 79 32 81 86l1 45c-11 1 -21 2 -32 2c-80 0 -111 -32 -111 -74 c0 -34 21 -59 61 -59zM315 669c0 30 -19 53 -55 53c-35 0 -55 -25 -55 -55c0 -31 21 -55 54 -55c35 0 56 26 56 57z" unicode="ǻ" horiz-adv-x="522" glyph-name="aringacute"/>
<glyph d="M9 0l165 383c20 48 35 82 47 114c-44 21 -70 62 -70 107c0 74 57 132 142 132c83 0 135 -55 135 -119c0 -50 -26 -93 -69 -116l149 -347c20 -47 48 -108 70 -154l-157 -6l-42 103h-184c-11 -27 -28 -74 -38 -97h-148zM305 943l188 9l-165 -160l-108 -5zM345 612 c0 30 -19 53 -55 53c-35 0 -55 -25 -55 -55c0 -31 21 -55 54 -55c35 0 56 26 56 57zM286 354l-59 -163h119z" horiz-adv-x="588" glyph-name="aringacute.sc"/>
<glyph d="M3 0l226 512c37 84 61 138 81 195l108 9l227 -512c27 -62 65 -143 95 -204l-172 -8l-69 163h-267c-16 -38 -48 -123 -60 -155h-169zM173 785c20 121 64 157 119 157c64 0 121 -64 161 -64c19 0 30 19 39 67l87 -13c-20 -123 -62 -162 -119 -162c-63 0 -124 67 -162 67 c-19 0 -29 -18 -37 -65zM364 495l-91 -233h184z" unicode="Ã" horiz-adv-x="743" glyph-name="Atilde"/>
<glyph d="M171 -13c-89 0 -146 51 -146 134c0 96 82 160 246 160c11 0 24 -1 37 -2l1 14c2 53 -21 80 -82 80c-53 0 -109 -21 -145 -44l-21 111c52 30 124 52 196 52c138 0 200 -67 197 -192l-5 -175c-1 -28 8 -37 29 -37c9 0 20 2 30 6l-7 -90c-26 -9 -50 -16 -81 -16 c-50 0 -91 22 -103 78c-27 -47 -85 -79 -146 -79zM64 559c20 121 64 157 119 157c64 0 121 -64 161 -64c19 0 30 19 39 67l87 -13c-20 -123 -62 -162 -119 -162c-63 0 -124 67 -162 67c-19 0 -29 -18 -37 -65zM225 80c45 0 79 32 81 86l1 45c-11 1 -21 2 -32 2 c-80 0 -111 -32 -111 -74c0 -34 21 -59 61 -59z" unicode="ã" horiz-adv-x="522" glyph-name="atilde"/>
<glyph d="M9 0l165 383c26 62 44 101 58 143l113 8l163 -380c20 -47 48 -108 70 -154l-157 -6l-42 103h-184c-11 -27 -28 -74 -38 -97h-148zM96 605c20 121 64 157 119 157c64 0 121 -64 161 -64c19 0 30 19 39 67l87 -13c-20 -123 -62 -162 -119 -162c-63 0 -124 67 -162 67 c-19 0 -29 -18 -37 -65zM286 354l-59 -163h119z" horiz-adv-x="588" glyph-name="atilde.sc"/>
<glyph d="M405 927l188 9l-165 -160l-108 -5zM637 202l-7 -152c-65 -45 -140 -68 -225 -68c-217 0 -364 159 -364 351c0 220 157 387 383 387c79 0 157 -23 211 -59l-29 -135c-45 37 -108 62 -176 62c-135 0 -228 -99 -228 -234c0 -154 98 -239 224 -239c89 0 153 36 211 87z" unicode="Ć" horiz-adv-x="678" glyph-name="Cacute"/>
<glyph d="M289 701l188 9l-165 -160l-108 -5zM449 449l-27 -115c-33 27 -72 41 -112 41c-77 0 -129 -59 -129 -134c0 -92 65 -140 136 -140c49 0 84 14 128 54l-5 -132c-47 -28 -89 -41 -151 -41c-158 0 -258 110 -258 242c0 150 108 268 267 268c54 0 110 -15 151 -43z" unicode="ć" horiz-adv-x="483" glyph-name="cacute"/>
<glyph d="M319 747l188 9l-165 -160l-108 -5zM489 167l-6 -134c-49 -32 -105 -48 -169 -48c-166 0 -279 119 -279 264c0 166 121 291 294 291c60 0 118 -16 160 -43l-23 -119c-30 25 -75 44 -122 44c-92 0 -156 -67 -156 -157c0 -102 67 -159 154 -159c62 0 107 27 147 61z" horiz-adv-x="526" glyph-name="cacute.sc"/>
<glyph d="M458 774h-138l-111 161l95 6l86 -80l81 75h101zM637 202l-7 -152c-65 -45 -140 -68 -225 -68c-217 0 -364 159 -364 351c0 220 157 387 383 387c79 0 157 -23 211 -59l-29 -135c-45 37 -108 62 -176 62c-135 0 -228 -99 -228 -234c0 -154 98 -239 224 -239 c89 0 153 36 211 87z" unicode="Č" horiz-adv-x="678" glyph-name="Ccaron"/>
<glyph d="M342 548h-138l-111 161l95 6l86 -80l81 75h101zM449 449l-27 -115c-33 27 -72 41 -112 41c-77 0 -129 -59 -129 -134c0 -92 65 -140 136 -140c49 0 84 14 128 54l-5 -132c-47 -28 -89 -41 -151 -41c-158 0 -258 110 -258 242c0 150 108 268 267 268c54 0 110 -15 151 -43 z" unicode="č" horiz-adv-x="483" glyph-name="ccaron"/>
<glyph d="M373 594h-138l-111 161l95 6l86 -80l81 75h101zM489 167l-6 -134c-49 -32 -105 -48 -169 -48c-166 0 -279 119 -279 264c0 166 121 291 294 291c60 0 118 -16 160 -43l-23 -119c-30 25 -75 44 -122 44c-92 0 -156 -67 -156 -157c0 -102 67 -159 154 -159 c62 0 107 27 147 61z" horiz-adv-x="526" glyph-name="ccaron.sc"/>
<glyph d="M637 202l-7 -152c-65 -45 -140 -68 -225 -68h-6l-10 -40c69 -17 105 -52 105 -97c0 -54 -44 -96 -124 -96c-30 0 -64 6 -98 16l17 70c26 -8 58 -14 81 -14c22 0 35 6 35 23c0 19 -33 35 -93 47l-5 4c6 18 17 59 26 93c-177 31 -292 175 -292 345c0 220 157 387 383 387 c79 0 157 -23 211 -59l-29 -135c-45 37 -108 62 -176 62c-135 0 -228 -99 -228 -234c0 -154 98 -239 224 -239c89 0 153 36 211 87z" unicode="Ç" horiz-adv-x="678" glyph-name="Ccedilla"/>
<glyph d="M449 449l-27 -115c-33 27 -72 41 -112 41c-77 0 -129 -59 -129 -134c0 -92 65 -140 136 -140c49 0 84 14 128 54l-5 -132c-46 -27 -87 -40 -146 -41l-10 -40c69 -17 105 -52 105 -97c0 -54 -44 -96 -124 -96c-30 0 -64 6 -98 16l17 70c26 -8 58 -14 81 -14 c22 0 35 6 35 23c0 19 -33 35 -93 47l-5 4c6 18 17 59 26 93c-123 24 -197 122 -197 236c0 150 108 268 267 268c54 0 110 -15 151 -43z" unicode="ç" horiz-adv-x="483" glyph-name="ccedilla"/>
<glyph d="M489 167l-6 -134c-48 -31 -102 -47 -164 -48l-11 -41c69 -17 105 -52 105 -97c0 -54 -44 -96 -124 -96c-30 0 -64 6 -98 16l17 70c26 -8 58 -14 81 -14c22 0 35 6 35 23c0 19 -33 35 -93 47l-5 4c6 18 17 60 26 94c-131 25 -217 132 -217 258c0 166 121 291 294 291 c60 0 118 -16 160 -43l-23 -119c-30 25 -75 44 -122 44c-92 0 -156 -67 -156 -157c0 -102 67 -159 154 -159c62 0 107 27 147 61z" horiz-adv-x="526" glyph-name="ccedilla.sc"/>
<glyph d="M637 202l-7 -152c-65 -45 -140 -68 -225 -68c-217 0 -364 159 -364 351c0 220 157 387 383 387c79 0 157 -23 211 -59l-29 -135c-45 37 -108 62 -176 62c-135 0 -228 -99 -228 -234c0 -154 98 -239 224 -239c89 0 153 36 211 87zM471 865c0 -46 -36 -79 -82 -79 c-45 0 -80 32 -80 74c0 46 36 79 83 79c44 0 79 -32 79 -74z" unicode="Ċ" horiz-adv-x="678" glyph-name="Cdotaccent"/>
<glyph d="M449 449l-27 -115c-33 27 -72 41 -112 41c-77 0 -129 -59 -129 -134c0 -92 65 -140 136 -140c49 0 84 14 128 54l-5 -132c-47 -28 -89 -41 -151 -41c-158 0 -258 110 -258 242c0 150 108 268 267 268c54 0 110 -15 151 -43zM355 639c0 -46 -36 -79 -82 -79 c-45 0 -80 32 -80 74c0 46 36 79 83 79c44 0 79 -32 79 -74z" unicode="ċ" horiz-adv-x="483" glyph-name="cdotaccent"/>
<glyph d="M489 167l-6 -134c-49 -32 -105 -48 -169 -48c-166 0 -279 119 -279 264c0 166 121 291 294 291c60 0 118 -16 160 -43l-23 -119c-30 25 -75 44 -122 44c-92 0 -156 -67 -156 -157c0 -102 67 -159 154 -159c62 0 107 27 147 61zM386 685c0 -46 -36 -79 -82 -79 c-45 0 -80 32 -80 74c0 46 36 79 83 79c44 0 79 -32 79 -74z" horiz-adv-x="526" glyph-name="cdotaccent.sc"/>
<glyph d="M431 768h-138l-111 161l95 6l86 -80l81 75h101zM700 369c0 -223 -149 -369 -377 -369h-242c5 48 7 176 7 241v221c0 64 -2 192 -7 240c36 0 115 6 219 6c259 0 400 -137 400 -339zM541 359c0 138 -83 224 -227 224c-25 0 -45 -1 -65 -3c-1 -15 -1 -39 -1 -52v-351 c0 -14 0 -31 1 -47c22 -3 38 -5 67 -5c160 0 225 104 225 234z" unicode="Ď" horiz-adv-x="741" glyph-name="Dcaron"/>
<glyph d="M634 541l-61 -9c4 63 6 121 6 186c30 4 74 7 100 10c-13 -59 -32 -140 -45 -187zM268 492c43 0 78 -12 105 -30l-1 88c0 58 -1 117 -5 160c36 3 131 12 161 18c-3 -26 -4 -75 -4 -109v-453c0 -58 2 -120 7 -166h-144l-7 50c-27 -37 -78 -68 -138 -68 c-133 0 -212 111 -212 237c0 155 100 273 238 273zM292 382c-71 0 -111 -67 -111 -148c0 -95 48 -142 108 -142c37 0 68 20 84 49v211c-20 19 -45 30 -81 30z" unicode="ď" horiz-adv-x="584" glyph-name="dcaron"/>
<glyph d="M545 275c0 -168 -111 -275 -285 -275h-198c4 36 5 132 5 181v165c0 48 -1 143 -5 179c27 0 96 5 179 5c196 0 304 -98 304 -255zM398 268c0 93 -53 150 -143 150c-15 0 -24 0 -39 -1c-1 -10 -1 -28 -1 -36v-235c0 -9 0 -21 1 -32c16 -2 24 -3 40 -3c100 0 142 70 142 157 zM358 594h-138l-111 161l95 6l86 -80l81 75h101z" horiz-adv-x="581" glyph-name="dcaron.sc"/>
<glyph d="M700 369c0 -223 -149 -369 -377 -369h-242c5 48 7 176 7 241v62c-28 -1 -52 -2 -76 -2c2 26 3 74 3 108c25 -1 48 -2 73 -2v55c0 64 -2 192 -7 240c36 0 115 6 219 6c259 0 400 -137 400 -339zM541 359c0 138 -83 224 -227 224c-25 0 -45 -1 -65 -3c-1 -15 -1 -39 -1 -52 v-122c43 0 89 1 129 3c-3 -32 -5 -74 -5 -108c-45 1 -85 2 -124 2v-126c0 -14 0 -31 1 -47c22 -3 38 -5 67 -5c160 0 225 104 225 234z" unicode="Đ" horiz-adv-x="740" glyph-name="Dcroat"/>
<glyph d="M268 492c43 0 78 -12 105 -30l-1 79h-9c-46 0 -81 -1 -117 -2c2 22 3 65 3 93c41 -2 77 -3 122 -3c0 30 -2 58 -4 81c36 3 131 12 161 18c-3 -24 -4 -65 -4 -98c24 0 48 1 70 2c-3 -26 -5 -65 -5 -93c-23 0 -44 1 -65 1v-374c0 -58 2 -120 7 -166h-144l-7 50 c-27 -37 -78 -68 -138 -68c-133 0 -212 111 -212 237c0 155 100 273 238 273zM292 382c-71 0 -111 -67 -111 -148c0 -95 48 -142 108 -142c37 0 68 20 84 49v211c-20 19 -45 30 -81 30z" unicode="đ" horiz-adv-x="584" glyph-name="dcroat"/>
<glyph d="M545 275c0 -168 -111 -275 -285 -275h-198c4 36 5 132 5 181v41c-23 -1 -43 -2 -62 -2c2 22 3 64 3 91c20 -1 39 -2 59 -2v37c0 48 -1 143 -5 179c27 0 96 5 179 5c196 0 304 -98 304 -255zM398 268c0 93 -53 150 -143 150c-15 0 -24 0 -39 -1c-1 -10 -1 -28 -1 -36v-73 l84 3c-3 -25 -5 -63 -5 -91c-28 0 -54 1 -79 2v-76c0 -9 0 -21 1 -32c16 -2 24 -3 40 -3c100 0 142 70 142 157z" horiz-adv-x="581" glyph-name="dcroat.sc"/>
<glyph d="M321 921l188 9l-165 -160l-108 -5zM542 128c-5 -42 -7 -83 -7 -132c-64 4 -143 5 -218 5c-81 0 -168 -1 -236 -5c5 48 7 180 7 245v221c0 64 -2 199 -7 247c67 -3 142 -5 225 -5c78 0 151 2 216 5c-5 -42 -8 -81 -8 -131c-54 1 -110 2 -174 2c-30 0 -63 0 -92 -1 c-2 -15 -2 -39 -2 -51v-106l229 1c-2 -34 -3 -75 -3 -119l-226 2v-128c0 -13 0 -37 2 -52c29 0 62 -1 92 -1c74 0 139 1 202 3z" unicode="É" horiz-adv-x="572" glyph-name="Eacute"/>
<glyph d="M295 701l188 9l-165 -160l-108 -5zM502 256l-46 -39l-279 -8c5 -73 47 -112 127 -112c75 0 131 26 179 57l-3 -115c-57 -35 -119 -56 -193 -56c-172 0 -256 111 -256 245c0 153 104 264 256 264c150 0 215 -105 215 -236zM178 284l190 5c-6 63 -31 98 -86 98 c-59 0 -96 -44 -104 -103z" unicode="é" horiz-adv-x="529" glyph-name="eacute"/>
<glyph d="M263 747l188 9l-165 -160l-108 -5zM438 117c-4 -38 -5 -74 -6 -120c-52 3 -121 4 -181 4c-65 0 -134 -1 -189 -4c4 36 5 134 5 182v168c0 48 -1 147 -5 183c54 -2 112 -3 179 -3c64 0 129 1 182 3c-4 -37 -6 -73 -6 -119c-40 1 -85 2 -132 2c-22 0 -48 0 -70 -1 c-1 -10 -1 -26 -1 -33v-61l176 1c-2 -32 -2 -60 -2 -99h-174v-70c0 -9 0 -24 1 -35c22 0 48 -1 70 -1c54 0 107 1 153 3z" horiz-adv-x="470" glyph-name="eacute.sc"/>
<glyph d="M542 128c-5 -42 -7 -83 -7 -132c-64 4 -143 5 -218 5c-81 0 -168 -1 -236 -5c5 48 7 180 7 245v221c0 64 -2 199 -7 247c67 -3 142 -5 225 -5c78 0 151 2 216 5c-5 -42 -8 -81 -8 -131c-54 1 -110 2 -174 2c-30 0 -63 0 -92 -1c-2 -15 -2 -39 -2 -51v-106l229 1 c-2 -34 -3 -75 -3 -119l-226 2v-128c0 -13 0 -37 2 -52c29 0 62 -1 92 -1c74 0 139 1 202 3zM374 933l100 4c2 -108 -64 -175 -169 -175c-99 0 -168 68 -168 168l102 9c0 -58 27 -86 69 -86c47 0 66 37 66 80z" unicode="Ĕ" horiz-adv-x="572" glyph-name="Ebreve"/>
<glyph d="M502 256l-46 -39l-279 -8c5 -73 47 -112 127 -112c75 0 131 26 179 57l-3 -115c-57 -35 -119 -56 -193 -56c-172 0 -256 111 -256 245c0 153 104 264 256 264c150 0 215 -105 215 -236zM178 284l190 5c-6 63 -31 98 -86 98c-59 0 -96 -44 -104 -103zM349 713l100 4 c2 -108 -64 -175 -169 -175c-99 0 -168 68 -168 168l102 9c0 -58 27 -86 69 -86c47 0 66 37 66 80z" unicode="ĕ" horiz-adv-x="529" glyph-name="ebreve"/>
<glyph d="M438 117c-4 -38 -5 -74 -6 -120c-52 3 -121 4 -181 4c-65 0 -134 -1 -189 -4c4 36 5 134 5 182v168c0 48 -1 147 -5 183c54 -2 112 -3 179 -3c64 0 129 1 182 3c-4 -37 -6 -73 -6 -119c-40 1 -85 2 -132 2c-22 0 -48 0 -70 -1c-1 -10 -1 -26 -1 -33v-61l176 1 c-2 -32 -2 -60 -2 -99h-174v-70c0 -9 0 -24 1 -35c22 0 48 -1 70 -1c54 0 107 1 153 3zM316 759l100 4c2 -108 -64 -175 -169 -175c-99 0 -168 68 -168 168l102 9c0 -58 27 -86 69 -86c47 0 66 37 66 80z" horiz-adv-x="470" glyph-name="ebreve.sc"/>
<glyph d="M375 768h-138l-111 161l95 6l86 -80l81 75h101zM542 128c-5 -42 -7 -83 -7 -132c-64 4 -143 5 -218 5c-81 0 -168 -1 -236 -5c5 48 7 180 7 245v221c0 64 -2 199 -7 247c67 -3 142 -5 225 -5c78 0 151 2 216 5c-5 -42 -8 -81 -8 -131c-54 1 -110 2 -174 2 c-30 0 -63 0 -92 -1c-2 -15 -2 -39 -2 -51v-106l229 1c-2 -34 -3 -75 -3 -119l-226 2v-128c0 -13 0 -37 2 -52c29 0 62 -1 92 -1c74 0 139 1 202 3z" unicode="Ě" horiz-adv-x="572" glyph-name="Ecaron"/>
<glyph d="M349 548h-138l-111 161l95 6l86 -80l81 75h101zM502 256l-46 -39l-279 -8c5 -73 47 -112 127 -112c75 0 131 26 179 57l-3 -115c-57 -35 -119 -56 -193 -56c-172 0 -256 111 -256 245c0 153 104 264 256 264c150 0 215 -105 215 -236zM178 284l190 5c-6 63 -31 98 -86 98 c-59 0 -96 -44 -104 -103z" unicode="ě" horiz-adv-x="529" glyph-name="ecaron"/>
<glyph d="M316 594h-138l-111 161l95 6l86 -80l81 75h101zM438 117c-4 -38 -5 -74 -6 -120c-52 3 -121 4 -181 4c-65 0 -134 -1 -189 -4c4 36 5 134 5 182v168c0 48 -1 147 -5 183c54 -2 112 -3 179 -3c64 0 129 1 182 3c-4 -37 -6 -73 -6 -119c-40 1 -85 2 -132 2 c-22 0 -48 0 -70 -1c-1 -10 -1 -26 -1 -33v-61l176 1c-2 -32 -2 -60 -2 -99h-174v-70c0 -9 0 -24 1 -35c22 0 48 -1 70 -1c54 0 107 1 153 3z" horiz-adv-x="470" glyph-name="ecaron.sc"/>
<glyph d="M240 929h138l111 -162l-94 -6l-87 82l-80 -75h-102zM542 128c-5 -42 -7 -83 -7 -132c-64 4 -143 5 -218 5c-81 0 -168 -1 -236 -5c5 48 7 180 7 245v221c0 64 -2 199 -7 247c67 -3 142 -5 225 -5c78 0 151 2 216 5c-5 -42 -8 -81 -8 -131c-54 1 -110 2 -174 2 c-30 0 -63 0 -92 -1c-2 -15 -2 -39 -2 -51v-106l229 1c-2 -34 -3 -75 -3 -119l-226 2v-128c0 -13 0 -37 2 -52c29 0 62 -1 92 -1c74 0 139 1 202 3z" unicode="Ê" horiz-adv-x="572" glyph-name="Ecircumflex"/>
<glyph d="M214 709h138l111 -162l-94 -6l-87 82l-80 -75h-102zM502 256l-46 -39l-279 -8c5 -73 47 -112 127 -112c75 0 131 26 179 57l-3 -115c-57 -35 -119 -56 -193 -56c-172 0 -256 111 -256 245c0 153 104 264 256 264c150 0 215 -105 215 -236zM178 284l190 5 c-6 63 -31 98 -86 98c-59 0 -96 -44 -104 -103z" unicode="ê" horiz-adv-x="529" glyph-name="ecircumflex"/>
<glyph d="M181 755h138l111 -162l-94 -6l-87 82l-80 -75h-102zM438 117c-4 -38 -5 -74 -6 -120c-52 3 -121 4 -181 4c-65 0 -134 -1 -189 -4c4 36 5 134 5 182v168c0 48 -1 147 -5 183c54 -2 112 -3 179 -3c64 0 129 1 182 3c-4 -37 -6 -73 -6 -119c-40 1 -85 2 -132 2 c-22 0 -48 0 -70 -1c-1 -10 -1 -26 -1 -33v-61l176 1c-2 -32 -2 -60 -2 -99h-174v-70c0 -9 0 -24 1 -35c22 0 48 -1 70 -1c54 0 107 1 153 3z" horiz-adv-x="470" glyph-name="ecircumflex.sc"/>
<glyph d="M279 855c0 -47 -33 -79 -78 -79c-43 0 -75 31 -75 73c0 47 34 80 78 80c43 0 75 -32 75 -74zM487 855c0 -47 -34 -79 -78 -79c-43 0 -75 31 -75 73c0 47 34 80 78 80c42 0 75 -32 75 -74zM542 128c-5 -42 -7 -83 -7 -132c-64 4 -143 5 -218 5c-81 0 -168 -1 -236 -5 c5 48 7 180 7 245v221c0 64 -2 199 -7 247c67 -3 142 -5 225 -5c78 0 151 2 216 5c-5 -42 -8 -81 -8 -131c-54 1 -110 2 -174 2c-30 0 -63 0 -92 -1c-2 -15 -2 -39 -2 -51v-106l229 1c-2 -34 -3 -75 -3 -119l-226 2v-128c0 -13 0 -37 2 -52c29 0 62 -1 92 -1 c74 0 139 1 202 3z" unicode="Ë" horiz-adv-x="572" glyph-name="Edieresis"/>
<glyph d="M254 635c0 -47 -33 -79 -78 -79c-43 0 -75 31 -75 73c0 47 34 80 78 80c43 0 75 -32 75 -74zM462 635c0 -47 -34 -79 -78 -79c-43 0 -75 31 -75 73c0 47 34 80 78 80c42 0 75 -32 75 -74zM502 256l-46 -39l-279 -8c5 -73 47 -112 127 -112c75 0 131 26 179 57l-3 -115 c-57 -35 -119 -56 -193 -56c-172 0 -256 111 -256 245c0 153 104 264 256 264c150 0 215 -105 215 -236zM178 284l190 5c-6 63 -31 98 -86 98c-59 0 -96 -44 -104 -103z" unicode="ë" horiz-adv-x="529" glyph-name="edieresis"/>
<glyph d="M221 681c0 -47 -33 -79 -78 -79c-43 0 -75 31 -75 73c0 47 34 80 78 80c43 0 75 -32 75 -74zM429 681c0 -47 -34 -79 -78 -79c-43 0 -75 31 -75 73c0 47 34 80 78 80c42 0 75 -32 75 -74zM438 117c-4 -38 -5 -74 -6 -120c-52 3 -121 4 -181 4c-65 0 -134 -1 -189 -4 c4 36 5 134 5 182v168c0 48 -1 147 -5 183c54 -2 112 -3 179 -3c64 0 129 1 182 3c-4 -37 -6 -73 -6 -119c-40 1 -85 2 -132 2c-22 0 -48 0 -70 -1c-1 -10 -1 -26 -1 -33v-61l176 1c-2 -32 -2 -60 -2 -99h-174v-70c0 -9 0 -24 1 -35c22 0 48 -1 70 -1c54 0 107 1 153 3z" horiz-adv-x="470" glyph-name="edieresis.sc"/>
<glyph d="M542 128c-5 -42 -7 -83 -7 -132c-64 4 -143 5 -218 5c-81 0 -168 -1 -236 -5c5 48 7 180 7 245v221c0 64 -2 199 -7 247c67 -3 142 -5 225 -5c78 0 151 2 216 5c-5 -42 -8 -81 -8 -131c-54 1 -110 2 -174 2c-30 0 -63 0 -92 -1c-2 -15 -2 -39 -2 -51v-106l229 1 c-2 -34 -3 -75 -3 -119l-226 2v-128c0 -13 0 -37 2 -52c29 0 62 -1 92 -1c74 0 139 1 202 3zM388 859c0 -46 -36 -79 -82 -79c-45 0 -80 32 -80 74c0 46 36 79 83 79c44 0 79 -32 79 -74z" unicode="Ė" horiz-adv-x="572" glyph-name="Edotaccent"/>
<glyph d="M502 256l-46 -39l-279 -8c5 -73 47 -112 127 -112c75 0 131 26 179 57l-3 -115c-57 -35 -119 -56 -193 -56c-172 0 -256 111 -256 245c0 153 104 264 256 264c150 0 215 -105 215 -236zM178 284l190 5c-6 63 -31 98 -86 98c-59 0 -96 -44 -104 -103zM362 639 c0 -46 -36 -79 -82 -79c-45 0 -80 32 -80 74c0 46 36 79 83 79c44 0 79 -32 79 -74z" unicode="ė" horiz-adv-x="529" glyph-name="edotaccent"/>
<glyph d="M329 685c0 -46 -36 -79 -82 -79c-45 0 -80 32 -80 74c0 46 36 79 83 79c44 0 79 -32 79 -74zM438 117c-4 -38 -5 -74 -6 -120c-52 3 -121 4 -181 4c-65 0 -134 -1 -189 -4c4 36 5 134 5 182v168c0 48 -1 147 -5 183c54 -2 112 -3 179 -3c64 0 129 1 182 3 c-4 -37 -6 -73 -6 -119c-40 1 -85 2 -132 2c-22 0 -48 0 -70 -1c-1 -10 -1 -26 -1 -33v-61l176 1c-2 -32 -2 -60 -2 -99h-174v-70c0 -9 0 -24 1 -35c22 0 48 -1 70 -1c54 0 107 1 153 3z" horiz-adv-x="470" glyph-name="edotaccent.sc"/>
<glyph d="M542 128c-5 -42 -7 -83 -7 -132c-64 4 -143 5 -218 5c-81 0 -168 -1 -236 -5c5 48 7 180 7 245v221c0 64 -2 199 -7 247c67 -3 142 -5 225 -5c78 0 151 2 216 5c-5 -42 -8 -81 -8 -131c-54 1 -110 2 -174 2c-30 0 -63 0 -92 -1c-2 -15 -2 -39 -2 -51v-106l229 1 c-2 -34 -3 -75 -3 -119l-226 2v-128c0 -13 0 -37 2 -52c29 0 62 -1 92 -1c74 0 139 1 202 3zM112 921l177 9l83 -160l-106 -5z" unicode="È" horiz-adv-x="572" glyph-name="Egrave"/>
<glyph d="M502 256l-46 -39l-279 -8c5 -73 47 -112 127 -112c75 0 131 26 179 57l-3 -115c-57 -35 -119 -56 -193 -56c-172 0 -256 111 -256 245c0 153 104 264 256 264c150 0 215 -105 215 -236zM178 284l190 5c-6 63 -31 98 -86 98c-59 0 -96 -44 -104 -103zM86 701l177 9 l83 -160l-106 -5z" unicode="è" horiz-adv-x="529" glyph-name="egrave"/>
<glyph d="M53 747l177 9l83 -160l-106 -5zM438 117c-4 -38 -5 -74 -6 -120c-52 3 -121 4 -181 4c-65 0 -134 -1 -189 -4c4 36 5 134 5 182v168c0 48 -1 147 -5 183c54 -2 112 -3 179 -3c64 0 129 1 182 3c-4 -37 -6 -73 -6 -119c-40 1 -85 2 -132 2c-22 0 -48 0 -70 -1 c-1 -10 -1 -26 -1 -33v-61l176 1c-2 -32 -2 -60 -2 -99h-174v-70c0 -9 0 -24 1 -35c22 0 48 -1 70 -1c54 0 107 1 153 3z" horiz-adv-x="470" glyph-name="egrave.sc"/>
<glyph d="M542 128c-5 -42 -7 -83 -7 -132c-64 4 -143 5 -218 5c-81 0 -168 -1 -236 -5c5 48 7 180 7 245v221c0 64 -2 199 -7 247c67 -3 142 -5 225 -5c78 0 151 2 216 5c-5 -42 -8 -81 -8 -131c-54 1 -110 2 -174 2c-30 0 -63 0 -92 -1c-2 -15 -2 -39 -2 -51v-106l229 1 c-2 -34 -3 -75 -3 -119l-226 2v-128c0 -13 0 -37 2 -52c29 0 62 -1 92 -1c74 0 139 1 202 3zM482 901c-3 -29 -5 -69 -5 -102c-44 1 -80 2 -119 2h-106c-48 0 -82 -1 -119 -2c2 25 3 71 3 102c57 -2 98 -3 175 -3c53 0 115 1 171 3z" unicode="Ē" horiz-adv-x="572" glyph-name="Emacron"/>
<glyph d="M502 256l-46 -39l-279 -8c5 -73 47 -112 127 -112c75 0 131 26 179 57l-3 -115c-57 -35 -119 -56 -193 -56c-172 0 -256 111 -256 245c0 153 104 264 256 264c150 0 215 -105 215 -236zM178 284l190 5c-6 63 -31 98 -86 98c-59 0 -96 -44 -104 -103zM456 681 c-3 -29 -5 -69 -5 -102c-44 1 -80 2 -119 2h-106c-48 0 -82 -1 -119 -2c2 25 3 71 3 102c57 -2 98 -3 175 -3c53 0 115 1 171 3z" unicode="ē" horiz-adv-x="529" glyph-name="emacron"/>
<glyph d="M423 727c-3 -29 -5 -69 -5 -102c-44 1 -80 2 -119 2h-106c-48 0 -82 -1 -119 -2c2 25 3 71 3 102c57 -2 98 -3 175 -3c53 0 115 1 171 3zM438 117c-4 -38 -5 -74 -6 -120c-52 3 -121 4 -181 4c-65 0 -134 -1 -189 -4c4 36 5 134 5 182v168c0 48 -1 147 -5 183 c54 -2 112 -3 179 -3c64 0 129 1 182 3c-4 -37 -6 -73 -6 -119c-40 1 -85 2 -132 2c-22 0 -48 0 -70 -1c-1 -10 -1 -26 -1 -33v-61l176 1c-2 -32 -2 -60 -2 -99h-174v-70c0 -9 0 -24 1 -35c22 0 48 -1 70 -1c54 0 107 1 153 3z" horiz-adv-x="470" glyph-name="emacron.sc"/>
<glyph d="M542 128c-5 -42 -7 -83 -7 -132c-78 -35 -111 -66 -111 -97c0 -23 17 -39 45 -39c20 0 39 6 59 18l-4 -79c-27 -14 -62 -22 -93 -22c-71 0 -118 37 -117 94c0 48 36 89 112 129c-36 1 -73 1 -109 1c-81 0 -168 -1 -236 -5c5 48 7 180 7 245v221c0 64 -2 199 -7 247 c67 -3 142 -5 225 -5c78 0 151 2 216 5c-5 -42 -8 -81 -8 -131c-54 1 -110 2 -174 2c-30 0 -63 0 -92 -1c-2 -15 -2 -39 -2 -51v-106l229 1c-2 -34 -3 -75 -3 -119l-226 2v-128c0 -13 0 -37 2 -52c29 0 62 -1 92 -1c74 0 139 1 202 3z" unicode="Ę" horiz-adv-x="572" glyph-name="Eogonek"/>
<glyph d="M483 154l-3 -115c-102 -58 -144 -104 -144 -140c0 -23 17 -39 45 -39c20 0 39 6 59 18l-4 -79c-27 -14 -62 -22 -94 -22c-70 0 -117 37 -116 94c0 40 23 77 69 112h-8c-172 0 -256 111 -256 245c0 153 104 264 256 264c150 0 215 -105 215 -236l-46 -39l-279 -8 c5 -73 47 -112 127 -112c75 0 131 26 179 57zM178 284l190 5c-6 63 -31 98 -86 98c-59 0 -96 -44 -104 -103z" unicode="ę" horiz-adv-x="529" glyph-name="eogonek"/>
<glyph d="M438 117c-4 -38 -5 -74 -6 -120h-3c-78 -34 -111 -66 -111 -98c0 -23 17 -39 45 -39c21 0 39 6 59 18l-4 -79c-26 -14 -61 -22 -93 -22c-70 0 -117 37 -117 94c0 48 36 89 111 129c-23 1 -46 1 -68 1c-65 0 -134 -1 -189 -4c4 36 5 134 5 182v168c0 48 -1 147 -5 183 c54 -2 112 -3 179 -3c64 0 129 1 182 3c-4 -37 -6 -73 -6 -119c-40 1 -85 2 -132 2c-22 0 -48 0 -70 -1c-1 -10 -1 -26 -1 -33v-61l176 1c-2 -32 -2 -60 -2 -99h-174v-70c0 -9 0 -24 1 -35c22 0 48 -1 70 -1c54 0 107 1 153 3z" horiz-adv-x="470" glyph-name="eogonek.sc"/>
<glyph d="M677 55c-59 -36 -138 -72 -266 -72c-222 0 -370 154 -370 356c0 217 164 381 389 381c97 0 186 -34 237 -68l-40 -130c-44 34 -122 63 -198 63c-142 0 -230 -99 -230 -235c0 -153 104 -236 226 -236c42 0 77 6 110 19v87c0 12 0 40 -2 57c-32 1 -22 1 -55 1 c-37 0 -65 -1 -106 -3c2 47 3 86 1 121c61 -2 91 -3 136 -3c77 0 109 1 175 4c-5 -40 -7 -180 -7 -245v-97zM475 939l100 4c2 -108 -64 -175 -169 -175c-99 0 -168 68 -168 168l102 9c0 -58 27 -86 69 -86c47 0 66 37 66 80z" unicode="Ğ" horiz-adv-x="741" glyph-name="Gbreve"/>
<glyph d="M472 317c0 -110 -93 -184 -220 -184c-27 0 -52 3 -75 9c-18 -11 -27 -22 -27 -32c0 -20 21 -30 114 -30h22c136 0 220 -33 220 -123c0 -101 -114 -190 -286 -190c-143 0 -216 54 -216 121c0 50 39 86 98 110c-35 15 -59 42 -59 76c0 37 27 70 72 96 c-45 30 -71 76 -71 131c0 108 92 191 221 191c32 0 62 -5 87 -15c20 61 67 90 148 81l-5 -107c-32 4 -62 1 -83 -9c39 -34 60 -80 60 -125zM326 713l100 4c2 -108 -64 -175 -170 -175c-98 0 -167 68 -167 168l102 9c0 -58 27 -86 69 -86c47 0 66 37 66 80zM251 -31l-65 2 c-45 -18 -63 -42 -63 -62c0 -29 34 -54 109 -54c85 0 140 34 140 72c0 28 -30 41 -102 42h-19zM336 307c0 58 -32 88 -76 88c-47 0 -79 -35 -79 -84c0 -60 32 -89 76 -89c48 0 79 34 79 85z" unicode="ğ" horiz-adv-x="513" glyph-name="gbreve"/>
<glyph d="M520 490l-36 -116c-39 26 -88 44 -138 44c-101 0 -164 -68 -164 -155c0 -105 67 -162 152 -162c23 0 44 4 63 11v53c0 7 0 26 -1 37h-37c-23 0 -39 0 -68 -2c2 39 2 70 1 99c43 -2 66 -3 98 -3c62 0 88 1 141 3c-4 -27 -5 -126 -5 -173v-85c-58 -35 -127 -56 -214 -56 c-167 0 -277 119 -277 265c0 167 122 290 302 290c78 0 141 -22 183 -50zM383 759l100 4c2 -108 -64 -175 -169 -175c-99 0 -168 68 -168 168l102 9c0 -58 27 -86 69 -86c47 0 66 37 66 80z" horiz-adv-x="579" glyph-name="gbreve.sc"/>
<glyph d="M677 151v-96c-59 -36 -138 -72 -266 -72c-222 0 -370 154 -370 356c0 217 164 381 389 381c97 0 186 -34 237 -68l-40 -130c-44 34 -122 63 -196 63c-141 0 -227 -99 -227 -235c0 -150 104 -232 221 -232c40 0 73 6 104 19v97c0 29 -2 115 -4 130h158 c-2 -14 -6 -153 -6 -213zM480 939l100 4c2 -108 -64 -175 -169 -175c-99 0 -168 68 -168 168l102 9c0 -58 27 -86 69 -86c47 0 66 37 66 80z" horiz-adv-x="741" glyph-name="Gbreve.alt"/>
<glyph d="M519 488l-36 -117c-32 22 -82 47 -139 47c-100 0 -160 -69 -160 -156c0 -103 70 -158 150 -158c22 0 41 3 59 8v68c0 27 -1 79 -4 96h142c-3 -16 -5 -112 -5 -153v-79c-58 -37 -127 -59 -214 -59c-167 0 -277 119 -277 265c0 167 124 290 298 290c82 0 149 -27 186 -52z M386 764l100 4c2 -108 -64 -175 -169 -175c-99 0 -168 68 -168 168l102 9c0 -58 27 -86 69 -86c47 0 66 37 66 80z" horiz-adv-x="579" glyph-name="gbreve.sc_alt"/>
<glyph d="M677 55c-59 -36 -138 -72 -266 -72c-222 0 -370 154 -370 356c0 217 164 381 389 381c97 0 186 -34 237 -68l-40 -130c-44 34 -122 63 -198 63c-142 0 -230 -99 -230 -235c0 -153 104 -236 226 -236c42 0 77 6 110 19v87c0 12 0 40 -2 57c-32 1 -22 1 -55 1 c-37 0 -65 -1 -106 -3c2 47 3 86 1 121c61 -2 91 -3 136 -3c77 0 109 1 175 4c-5 -40 -7 -180 -7 -245v-97zM316 -243l19 13c27 20 37 41 37 58c0 15 -8 29 -32 42l-15 9c10 45 43 67 79 67c41 0 72 -28 72 -73c0 -48 -38 -101 -132 -150z" unicode="Ģ" horiz-adv-x="741" glyph-name="Gcommaaccent"/>
<glyph d="M472 317c0 -110 -93 -184 -220 -184c-27 0 -52 3 -75 9c-18 -11 -27 -22 -27 -32c0 -20 21 -30 114 -30h22c136 0 220 -33 220 -123c0 -101 -114 -190 -286 -190c-143 0 -216 54 -216 121c0 50 39 86 98 110c-35 15 -59 42 -59 76c0 37 27 70 72 96 c-45 30 -71 76 -71 131c0 108 92 191 221 191c31 0 60 -5 84 -14c19 66 67 96 151 87l-5 -107c-35 5 -68 1 -89 -11c44 -34 66 -83 66 -130zM251 -31l-65 2c-45 -18 -63 -42 -63 -62c0 -29 34 -54 109 -54c85 0 140 34 140 72c0 28 -30 41 -102 42h-19zM336 307 c0 58 -32 88 -76 88c-47 0 -79 -35 -79 -84c0 -60 32 -89 76 -89c48 0 79 34 79 85zM350 749l-19 -12c-28 -21 -37 -42 -37 -59c0 -14 8 -29 32 -42l15 -9c-10 -45 -43 -67 -80 -67c-41 0 -72 28 -72 73c0 48 38 101 132 150z" unicode="ģ" horiz-adv-x="513" glyph-name="gcommaaccent"/>
<glyph d="M520 490l-36 -116c-39 26 -88 44 -138 44c-101 0 -164 -68 -164 -155c0 -105 67 -162 152 -162c23 0 44 4 63 11v53c0 7 0 26 -1 37h-37c-23 0 -39 0 -68 -2c2 39 2 70 1 99c43 -2 66 -3 98 -3c62 0 88 1 141 3c-4 -27 -5 -126 -5 -173v-85c-58 -35 -127 -56 -214 -56 c-167 0 -277 119 -277 265c0 167 122 290 302 290c78 0 141 -22 183 -50zM223 -243l19 13c27 20 37 41 37 58c0 15 -8 29 -32 42l-15 9c10 45 43 67 79 67c41 0 72 -28 72 -73c0 -48 -38 -101 -132 -150z" horiz-adv-x="579" glyph-name="gcommaaccent.sc"/>
<glyph d="M677 151v-96c-59 -36 -138 -72 -266 -72c-222 0 -370 154 -370 356c0 217 164 381 389 381c97 0 186 -34 237 -68l-40 -130c-44 34 -122 63 -196 63c-141 0 -227 -99 -227 -235c0 -150 104 -232 221 -232c40 0 73 6 104 19v97c0 29 -2 115 -4 130h158 c-2 -14 -6 -153 -6 -213zM314 -243l19 13c27 20 37 41 37 58c0 15 -8 29 -32 42l-15 9c10 45 43 67 79 67c41 0 72 -28 72 -73c0 -48 -38 -101 -132 -150z" horiz-adv-x="741" glyph-name="Gcommaaccent.alt"/>
<glyph d="M519 488l-36 -117c-32 22 -82 47 -139 47c-100 0 -160 -69 -160 -156c0 -103 70 -158 150 -158c22 0 41 3 59 8v68c0 27 -1 79 -4 96h142c-3 -16 -5 -112 -5 -153v-79c-58 -37 -127 -59 -214 -59c-167 0 -277 119 -277 265c0 167 124 290 298 290c82 0 149 -27 186 -52z M219 -246l19 13c27 20 37 41 37 58c0 15 -8 29 -32 42l-15 9c10 45 43 67 79 67c41 0 72 -28 72 -73c0 -48 -38 -101 -132 -150z" horiz-adv-x="579" glyph-name="gcommaaccent.sc_alt"/>
<glyph d="M677 55c-59 -36 -138 -72 -266 -72c-222 0 -370 154 -370 356c0 217 164 381 389 381c97 0 186 -34 237 -68l-40 -130c-44 34 -122 63 -198 63c-142 0 -230 -99 -230 -235c0 -153 104 -236 226 -236c42 0 77 6 110 19v87c0 12 0 40 -2 57c-32 1 -22 1 -55 1 c-37 0 -65 -1 -106 -3c2 47 3 86 1 121c61 -2 91 -3 136 -3c77 0 109 1 175 4c-5 -40 -7 -180 -7 -245v-97zM489 865c0 -46 -36 -79 -82 -79c-45 0 -80 32 -80 74c0 46 36 79 83 79c44 0 79 -32 79 -74z" unicode="Ġ" horiz-adv-x="741" glyph-name="Gdotaccent"/>
<glyph d="M472 317c0 -110 -93 -184 -220 -184c-27 0 -52 3 -75 9c-18 -11 -27 -22 -27 -32c0 -20 21 -30 114 -30h22c136 0 220 -33 220 -123c0 -101 -114 -190 -286 -190c-143 0 -216 54 -216 121c0 50 39 86 98 110c-35 15 -59 42 -59 76c0 37 27 70 72 96 c-45 30 -71 76 -71 131c0 108 92 191 221 191c31 0 60 -5 84 -14c19 66 67 96 151 87l-5 -107c-35 5 -68 1 -89 -11c44 -34 66 -83 66 -130zM251 -31l-65 2c-45 -18 -63 -42 -63 -62c0 -29 34 -54 109 -54c85 0 140 34 140 72c0 28 -30 41 -102 42h-19zM336 307 c0 58 -32 88 -76 88c-47 0 -79 -35 -79 -84c0 -60 32 -89 76 -89c48 0 79 34 79 85zM347 639c0 -46 -36 -79 -82 -79s-80 32 -80 74c0 46 36 79 83 79c44 0 79 -32 79 -74z" unicode="ġ" horiz-adv-x="513" glyph-name="gdotaccent"/>
<glyph d="M520 490l-36 -116c-39 26 -88 44 -138 44c-101 0 -164 -68 -164 -155c0 -105 67 -162 152 -162c23 0 44 4 63 11v53c0 7 0 26 -1 37h-37c-23 0 -39 0 -68 -2c2 39 2 70 1 99c43 -2 66 -3 98 -3c62 0 88 1 141 3c-4 -27 -5 -126 -5 -173v-85c-58 -35 -127 -56 -214 -56 c-167 0 -277 119 -277 265c0 167 122 290 302 290c78 0 141 -22 183 -50zM397 685c0 -46 -36 -79 -82 -79c-45 0 -80 32 -80 74c0 46 36 79 83 79c44 0 79 -32 79 -74z" horiz-adv-x="579" glyph-name="gdotaccent.sc"/>
<glyph d="M677 151v-96c-59 -36 -138 -72 -266 -72c-222 0 -370 154 -370 356c0 217 164 381 389 381c97 0 186 -34 237 -68l-40 -130c-44 34 -122 63 -196 63c-141 0 -227 -99 -227 -235c0 -150 104 -232 221 -232c40 0 73 6 104 19v97c0 29 -2 115 -4 130h158 c-2 -14 -6 -153 -6 -213zM493 865c0 -46 -36 -79 -82 -79c-45 0 -80 32 -80 74c0 46 36 79 83 79c44 0 79 -32 79 -74z" horiz-adv-x="741" glyph-name="Gdotaccent.alt"/>
<glyph d="M519 488l-36 -117c-32 22 -82 47 -139 47c-100 0 -160 -69 -160 -156c0 -103 70 -158 150 -158c22 0 41 3 59 8v68c0 27 -1 79 -4 96h142c-3 -16 -5 -112 -5 -153v-79c-58 -37 -127 -59 -214 -59c-167 0 -277 119 -277 265c0 167 124 290 298 290c82 0 149 -27 186 -52z M399 690c0 -46 -36 -79 -82 -79c-45 0 -80 32 -80 74c0 46 36 79 83 79c44 0 79 -32 79 -74z" horiz-adv-x="579" glyph-name="gdotaccent.sc_alt"/>
<glyph d="M710 0h-175c6 43 8 153 8 212v74h-294v-155c0 -35 1 -106 4 -131h-173c5 48 7 176 7 241v223v26c-27 0 -53 -1 -79 -1c2 26 3 69 3 103l74 -2c-1 46 -3 89 -5 113c40 0 140 1 173 5c-3 -24 -4 -79 -4 -120h150h142c-1 46 -3 90 -6 115c40 0 141 1 175 5 c-3 -23 -6 -77 -6 -118l79 2c-3 -32 -5 -69 -5 -103c-26 0 -50 1 -74 1l1 -346c0 -38 1 -116 5 -144zM490 501h-241v-103h294v72v30c-19 0 -38 1 -53 1z" unicode="Ħ" horiz-adv-x="792" glyph-name="Hbar"/>
<glyph d="M533 0h-162c5 43 7 112 7 170v111c0 58 -15 92 -63 92c-55 0 -101 -47 -104 -100v-173c0 -35 1 -74 4 -100h-161c4 43 6 108 6 167v374c-25 -1 -48 -2 -70 -2c2 22 3 65 3 93c22 -1 44 -2 66 -2c-1 29 -3 57 -5 80c35 2 131 12 161 18c-2 -18 -4 -65 -4 -99 c42 0 88 1 128 3c-3 -26 -5 -65 -5 -93c-45 1 -84 2 -123 2v-155c40 67 111 106 173 106c99 0 145 -64 145 -170v-219c0 -35 2 -77 4 -103z" unicode="ħ" horiz-adv-x="587" glyph-name="hbar"/>
<glyph d="M613 448c-3 -27 -5 -55 -5 -86c-21 0 -40 1 -59 1v-255c0 -29 1 -88 4 -108h-157c4 32 6 104 6 146v52h-187v-103c0 -25 0 -77 3 -95h-156c4 36 5 138 5 187v165v11c-21 0 -42 -1 -62 -1c2 24 3 57 3 86l58 -2c-1 32 -2 62 -4 80c30 0 132 1 156 4c-2 -18 -3 -54 -3 -85 h96h89c-1 32 -2 63 -4 81c29 0 131 1 157 4c-3 -18 -4 -54 -4 -84zM402 332v39h-187v-63h187v24z" horiz-adv-x="616" glyph-name="hbar.sc"/>
<glyph d="M255 0h-172c5 48 7 176 7 241v221c0 64 -2 193 -7 241c39 0 139 1 172 5c-3 -29 -4 -109 -4 -148v-416c0 -38 1 -116 4 -144zM182 921l188 9l-165 -160l-108 -5z" unicode="Í" horiz-adv-x="340" glyph-name="Iacute"/>
<glyph d="M148 701l188 9l-165 -160l-108 -5zM215 0h-162c5 43 7 105 7 164v143c0 58 -2 127 -7 170c36 0 132 6 162 9c-3 -26 -4 -72 -4 -107v-282c0 -35 1 -71 4 -97z" unicode="í" horiz-adv-x="272" glyph-name="iacute"/>
<glyph d="M157 747l188 9l-165 -160l-108 -5zM221 0h-158c4 36 5 132 5 181v165c0 48 -1 144 -5 180c30 0 133 1 158 4c-3 -22 -3 -82 -3 -111v-311c0 -29 0 -88 3 -108z" horiz-adv-x="285" glyph-name="iacute.sc"/>
<glyph d="M255 0h-172c5 48 7 176 7 241v221c0 64 -2 193 -7 241c39 0 139 1 172 5c-3 -29 -4 -109 -4 -148v-416c0 -38 1 -116 4 -144zM236 933l100 4c2 -108 -64 -175 -169 -175c-99 0 -168 68 -168 168l102 9c0 -58 27 -86 69 -86c47 0 66 37 66 80z" unicode="Ĭ" horiz-adv-x="340" glyph-name="Ibreve"/>
<glyph d="M215 0h-162c5 43 7 105 7 164v143c0 58 -2 127 -7 170c36 0 132 6 162 9c-3 -26 -4 -72 -4 -107v-282c0 -35 1 -71 4 -97zM202 713l100 4c2 -108 -64 -175 -169 -175c-99 0 -168 68 -168 168l102 9c0 -58 27 -86 69 -86c47 0 66 37 66 80z" unicode="ĭ" horiz-adv-x="272" glyph-name="ibreve"/>
<glyph d="M221 0h-158c4 36 5 132 5 181v165c0 48 -1 144 -5 180c30 0 133 1 158 4c-3 -22 -3 -82 -3 -111v-311c0 -29 0 -88 3 -108zM211 759l100 4c2 -108 -64 -175 -169 -175c-99 0 -168 68 -168 168l102 9c0 -58 27 -86 69 -86c47 0 66 37 66 80z" horiz-adv-x="285" glyph-name="ibreve.sc"/>
<glyph d="M255 0h-172c5 48 7 176 7 241v221c0 64 -2 193 -7 241c39 0 139 1 172 5c-3 -29 -4 -109 -4 -148v-416c0 -38 1 -116 4 -144zM102 929h138l111 -162l-94 -6l-87 82l-80 -75h-102z" unicode="Î" horiz-adv-x="340" glyph-name="Icircumflex"/>
<glyph d="M67 709h138l111 -162l-94 -6l-87 82l-80 -75h-102zM215 0h-162c5 43 7 105 7 164v143c0 58 -2 127 -7 170c36 0 132 6 162 9c-3 -26 -4 -72 -4 -107v-282c0 -35 1 -71 4 -97z" unicode="î" horiz-adv-x="272" glyph-name="icircumflex"/>
<glyph d="M76 755h138l111 -162l-94 -6l-87 82l-80 -75h-102zM221 0h-158c4 36 5 132 5 181v165c0 48 -1 144 -5 180c30 0 133 1 158 4c-3 -22 -3 -82 -3 -111v-311c0 -29 0 -88 3 -108z" horiz-adv-x="285" glyph-name="icircumflex.sc"/>
<glyph d="M255 0h-172c5 48 7 176 7 241v221c0 64 -2 193 -7 241c39 0 139 1 172 5c-3 -29 -4 -109 -4 -148v-416c0 -38 1 -116 4 -144zM141 855c0 -47 -33 -79 -78 -79c-43 0 -75 31 -75 73c0 47 34 80 78 80c43 0 75 -32 75 -74zM349 855c0 -47 -34 -79 -78 -79 c-43 0 -75 31 -75 73c0 47 34 80 78 80c42 0 75 -32 75 -74z" unicode="Ï" horiz-adv-x="340" glyph-name="Idieresis"/>
<glyph d="M107 635c0 -47 -33 -79 -78 -79c-43 0 -75 31 -75 73c0 47 34 80 78 80c43 0 75 -32 75 -74zM315 635c0 -47 -34 -79 -78 -79c-43 0 -75 31 -75 73c0 47 34 80 78 80c42 0 75 -32 75 -74zM215 0h-162c5 43 7 105 7 164v143c0 58 -2 127 -7 170c36 0 132 6 162 9 c-3 -26 -4 -72 -4 -107v-282c0 -35 1 -71 4 -97z" unicode="ï" horiz-adv-x="272" glyph-name="idieresis"/>
<glyph d="M116 681c0 -47 -33 -79 -78 -79c-43 0 -75 31 -75 73c0 47 34 80 78 80c43 0 75 -32 75 -74zM324 681c0 -47 -34 -79 -78 -79c-43 0 -75 31 -75 73c0 47 34 80 78 80c42 0 75 -32 75 -74zM221 0h-158c4 36 5 132 5 181v165c0 48 -1 144 -5 180c30 0 133 1 158 4 c-3 -22 -3 -82 -3 -111v-311c0 -29 0 -88 3 -108z" horiz-adv-x="285" glyph-name="idieresis.sc"/>
<glyph d="M255 0h-172c5 48 7 176 7 241v221c0 64 -2 193 -7 241c39 0 139 1 172 5c-3 -29 -4 -109 -4 -148v-416c0 -38 1 -116 4 -144zM249 859c0 -46 -36 -79 -82 -79c-45 0 -80 32 -80 74c0 46 36 79 83 79c44 0 79 -32 79 -74z" unicode="İ" horiz-adv-x="340" glyph-name="Idotaccent"/>
<glyph d="M221 0h-158c4 36 5 132 5 181v165c0 48 -1 144 -5 180c30 0 133 1 158 4c-3 -22 -3 -82 -3 -111v-311c0 -29 0 -88 3 -108zM223 685c0 -46 -36 -79 -82 -79c-45 0 -80 32 -80 74c0 46 36 79 83 79c44 0 79 -32 79 -74z" horiz-adv-x="285" glyph-name="idotaccent.sc"/>
<glyph d="M215 0h-162c5 43 7 105 7 164v143c0 58 -2 127 -7 170c36 0 132 6 162 9c-3 -26 -4 -72 -4 -107v-282c0 -35 1 -71 4 -97z" unicode="ı" horiz-adv-x="272" glyph-name="dotlessi"/>
<glyph d="M221 0h-158c4 36 5 132 5 181v165c0 48 -1 144 -5 180c30 0 133 1 158 4c-3 -22 -3 -82 -3 -111v-311c0 -29 0 -88 3 -108z" horiz-adv-x="285" glyph-name="dotlessi.sc"/>
<glyph d="M255 0h-172c5 48 7 176 7 241v221c0 64 -2 193 -7 241c39 0 139 1 172 5c-3 -29 -4 -109 -4 -148v-416c0 -38 1 -116 4 -144zM-26 921l177 9l83 -160l-106 -5z" unicode="Ì" horiz-adv-x="340" glyph-name="Igrave"/>
<glyph d="M215 0h-162c5 43 7 105 7 164v143c0 58 -2 127 -7 170c36 0 132 6 162 9c-3 -26 -4 -72 -4 -107v-282c0 -35 1 -71 4 -97zM-61 701l177 9l83 -160l-106 -5z" unicode="ì" horiz-adv-x="272" glyph-name="igrave"/>
<glyph d="M221 0h-158c4 36 5 132 5 181v165c0 48 -1 144 -5 180c30 0 133 1 158 4c-3 -22 -3 -82 -3 -111v-311c0 -29 0 -88 3 -108zM-52 747l177 9l83 -160l-106 -5z" horiz-adv-x="285" glyph-name="igrave.sc"/>
<glyph d="M255 0h-172c5 48 7 176 7 241v221c0 64 -2 193 -7 241c39 0 139 1 172 5c-3 -29 -4 -109 -4 -148v-416c0 -38 1 -116 4 -144zM344 901c-3 -29 -5 -69 -5 -102c-44 1 -80 2 -119 2h-106c-48 0 -82 -1 -119 -2c2 25 3 71 3 102c57 -2 98 -3 175 -3c53 0 115 1 171 3z" unicode="Ī" horiz-adv-x="340" glyph-name="Imacron"/>
<glyph d="M215 0h-162c5 43 7 105 7 164v143c0 58 -2 127 -7 170c36 0 132 6 162 9c-3 -26 -4 -72 -4 -107v-282c0 -35 1 -71 4 -97zM309 681c-3 -29 -5 -69 -5 -102c-44 1 -80 2 -119 2h-106c-48 0 -82 -1 -119 -2c2 25 3 71 3 102c57 -2 98 -3 175 -3c53 0 115 1 171 3z" unicode="ī" horiz-adv-x="272" glyph-name="imacron"/>
<glyph d="M221 0h-158c4 36 5 132 5 181v165c0 48 -1 144 -5 180c30 0 133 1 158 4c-3 -22 -3 -82 -3 -111v-311c0 -29 0 -88 3 -108zM318 727c-3 -29 -5 -69 -5 -102c-44 1 -80 2 -119 2h-106c-48 0 -82 -1 -119 -2c2 25 3 71 3 102c57 -2 98 -3 175 -3c53 0 115 1 171 3z" horiz-adv-x="285" glyph-name="imacron.sc"/>
<glyph d="M46 -129c0 47 32 89 101 129h-64c5 48 7 176 7 241v221c0 64 -2 193 -7 241c39 0 139 1 172 5c-3 -29 -4 -109 -4 -148v-416c0 -38 1 -114 4 -143l1 -1c-71 -36 -100 -69 -100 -101c0 -23 17 -39 45 -39c20 0 39 6 59 18l-4 -79c-27 -14 -61 -22 -93 -22 c-71 0 -118 37 -117 94z" unicode="Į" horiz-adv-x="340" glyph-name="Iogonek"/>
<glyph d="M215 0c-65 -36 -94 -70 -94 -101c0 -23 17 -39 46 -39c20 0 38 6 58 18l-4 -79c-26 -14 -61 -22 -93 -22c-70 0 -117 37 -117 94c0 46 31 88 96 129h-54c5 43 7 105 7 164v143c0 58 -2 127 -7 170c36 0 132 6 162 9c-3 -26 -4 -72 -4 -107v-282c0 -35 1 -71 4 -97z M228 649c0 -49 -40 -83 -89 -83s-87 33 -87 78c0 49 40 84 90 84c47 0 86 -34 86 -79z" unicode="į" horiz-adv-x="272" glyph-name="iogonek"/>
<glyph d="M221 0c-65 -36 -93 -69 -93 -101c0 -23 17 -39 45 -39c20 0 39 6 59 18l-4 -79c-27 -14 -62 -22 -93 -22c-71 0 -118 37 -117 94c0 46 30 88 94 129h-49c4 36 5 132 5 181v165c0 48 -1 144 -5 180c30 0 133 1 158 4c-3 -22 -3 -82 -3 -111v-311c0 -29 0 -88 3 -108z" horiz-adv-x="285" glyph-name="iogonek.sc"/>
<glyph d="M516 -9l-268 330v-177c0 -38 1 -116 4 -144h-171c5 48 7 176 7 241v221c0 64 -2 193 -7 241c39 0 138 1 171 5c-3 -29 -4 -109 -4 -148v-167l105 130c41 48 101 125 147 182h189l-295 -337l161 -193c39 -45 108 -126 149 -172zM297 -237l19 13c27 20 37 41 37 58 c0 15 -8 29 -32 42l-15 9c10 45 43 67 79 67c41 0 72 -28 72 -73c0 -48 -38 -101 -132 -150z" unicode="Ķ" horiz-adv-x="703" glyph-name="Kcommaaccent"/>
<glyph d="M371 -12l-160 228v-116c0 -35 1 -75 4 -100h-161c4 43 6 108 6 166v383c0 58 -2 118 -6 161c35 2 131 12 161 18c-3 -26 -4 -115 -4 -134v-317c39 55 127 184 142 204c52 0 122 2 168 6l-178 -229l43 -59c32 -36 123 -165 149 -192zM190 -237l19 13c27 20 37 41 37 58 c0 15 -8 29 -32 42l-15 9c10 45 43 67 79 67c41 0 72 -28 72 -73c0 -48 -38 -101 -132 -150z" unicode="ķ" horiz-adv-x="532" glyph-name="kcommaaccent"/>
<glyph d="M562 3l-168 -10l-178 242v-127c0 -29 0 -88 3 -108h-157c4 36 5 132 5 181v165c0 48 -1 144 -5 180c30 0 132 1 157 4c-3 -22 -3 -82 -3 -111v-123l71 99c25 34 70 98 95 133h167l-198 -252l119 -159c21 -27 66 -84 92 -114zM217 -243l19 13c27 20 37 41 37 58 c0 15 -8 29 -32 42l-15 9c10 45 43 67 79 67c41 0 72 -28 72 -73c0 -48 -38 -101 -132 -150z" horiz-adv-x="568" glyph-name="kcommaaccent.sc"/>
<glyph d="M210 916l188 9l-165 -160l-108 -5zM538 131c-5 -43 -7 -86 -9 -135c-65 4 -141 5 -219 5c-80 0 -162 -1 -229 -5c5 48 7 181 7 246v220c0 64 -2 193 -7 241c39 0 138 1 171 5c-3 -29 -4 -109 -4 -148v-375c0 -14 0 -38 2 -56c26 0 54 -1 81 -1c77 0 143 1 207 3z" unicode="Ĺ" horiz-adv-x="555" glyph-name="Lacute"/>
<glyph d="M147 931l188 9l-165 -160l-108 -5zM215 0h-161c4 43 6 108 6 167v382c0 58 -2 118 -6 161c35 2 131 12 161 18c-3 -26 -4 -115 -4 -133v-495c0 -35 1 -74 4 -100z" unicode="ĺ" horiz-adv-x="272" glyph-name="lacute"/>
<glyph d="M62 -3c4 36 5 134 5 183v166c0 48 -1 144 -5 180c30 0 132 1 157 4c-3 -22 -3 -82 -3 -111v-260c0 -9 0 -27 1 -39c19 0 38 -1 57 -1c57 0 103 1 151 2c-6 -39 -7 -80 -8 -124c-52 3 -111 4 -174 4s-127 -1 -181 -4zM183 752l188 9l-165 -160l-108 -5z" horiz-adv-x="446" glyph-name="lacute.sc"/>
<glyph d="M398 520l-61 -9c4 63 6 121 6 186c30 4 74 7 100 10c-13 -59 -32 -140 -45 -187zM538 131c-5 -43 -7 -86 -9 -135c-65 4 -141 5 -219 5c-80 0 -162 -1 -229 -5c5 48 7 181 7 246v220c0 64 -2 193 -7 241c39 0 138 1 171 5c-3 -29 -4 -109 -4 -148v-375c0 -14 0 -38 2 -56 c26 0 54 -1 81 -1c77 0 143 1 207 3z" unicode="Ľ" horiz-adv-x="555" glyph-name="Lcaron"/>
<glyph d="M322 541l-61 -9c4 63 6 121 6 186c30 4 74 7 100 10c-13 -59 -32 -140 -45 -187zM215 0h-161c4 43 6 108 6 167v382c0 58 -2 118 -6 161c35 2 131 12 161 18c-3 -26 -4 -115 -4 -133v-495c0 -35 1 -74 4 -100z" unicode="ľ" horiz-adv-x="272" glyph-name="lcaron"/>
<glyph d="M62 -3c4 36 5 134 5 183v166c0 48 -1 144 -5 180c30 0 132 1 157 4c-3 -22 -3 -82 -3 -111v-260c0 -9 0 -27 1 -39c19 0 38 -1 57 -1c57 0 103 1 151 2c-6 -39 -7 -80 -8 -124c-52 3 -111 4 -174 4s-127 -1 -181 -4zM347 349l-61 -9c4 63 6 121 6 186c30 4 74 7 100 10 c-13 -59 -32 -140 -45 -187z" horiz-adv-x="446" glyph-name="lcaron.sc"/>
<glyph d="M216 -237l19 13c27 20 37 41 37 58c0 15 -8 29 -32 42l-15 9c10 45 43 67 79 67c41 0 72 -28 72 -73c0 -48 -38 -101 -132 -150zM538 131c-5 -43 -7 -86 -9 -135c-65 4 -141 5 -219 5c-80 0 -162 -1 -229 -5c5 48 7 181 7 246v220c0 64 -2 193 -7 241c39 0 138 1 171 5 c-3 -29 -4 -109 -4 -148v-375c0 -14 0 -38 2 -56c26 0 54 -1 81 -1c77 0 143 1 207 3z" unicode="Ļ" horiz-adv-x="555" glyph-name="Lcommaaccent"/>
<glyph d="M41 -237l19 13c27 20 37 41 37 58c0 15 -8 29 -32 42l-15 9c10 45 43 67 79 67c41 0 72 -28 72 -73c0 -48 -38 -101 -132 -150zM215 0h-161c4 43 6 108 6 167v382c0 58 -2 118 -6 161c35 2 131 12 161 18c-3 -26 -4 -115 -4 -133v-495c0 -35 1 -74 4 -100z" unicode="ļ" horiz-adv-x="272" glyph-name="lcommaaccent"/>
<glyph d="M62 -3c4 36 5 134 5 183v166c0 48 -1 144 -5 180c30 0 132 1 157 4c-3 -22 -3 -82 -3 -111v-260c0 -9 0 -27 1 -39c19 0 38 -1 57 -1c57 0 103 1 151 2c-6 -39 -7 -80 -8 -124c-52 3 -111 4 -174 4s-127 -1 -181 -4zM146 -243l19 13c27 20 37 41 37 58c0 15 -8 29 -32 42 l-15 9c10 45 43 67 79 67c41 0 72 -28 72 -73c0 -48 -38 -101 -132 -150z" horiz-adv-x="446" glyph-name="lcommaaccent.sc"/>
<glyph d="M538 131c-5 -43 -7 -86 -9 -135c-65 4 -141 5 -219 5c-80 0 -162 -1 -229 -5c5 48 7 181 7 246v220c0 64 -2 193 -7 241c39 0 138 1 171 5c-3 -29 -4 -109 -4 -148v-375c0 -14 0 -38 2 -56c26 0 54 -1 81 -1c77 0 143 1 207 3zM523 389c0 -46 -36 -79 -82 -79 c-45 0 -80 32 -80 74c0 46 36 79 83 79c44 0 79 -32 79 -74z" unicode="Ŀ" horiz-adv-x="555" glyph-name="Ldot"/>
<glyph d="M215 0h-161c4 43 6 108 6 167v382c0 58 -2 118 -6 161c35 2 131 12 161 18c-3 -26 -4 -115 -4 -133v-495c0 -35 1 -74 4 -100zM424 353c0 -46 -36 -79 -82 -79c-45 0 -80 32 -80 74c0 46 36 79 83 79c44 0 79 -32 79 -74z" unicode="ŀ" horiz-adv-x="421" glyph-name="ldot"/>
<glyph d="M62 -3c4 36 5 134 5 183v166c0 48 -1 144 -5 180c30 0 132 1 157 4c-3 -22 -3 -82 -3 -111v-260c0 -9 0 -27 1 -39c19 0 38 -1 57 -1c57 0 103 1 151 2c-6 -39 -7 -80 -8 -124c-52 3 -111 4 -174 4s-127 -1 -181 -4zM446 308c0 -46 -36 -79 -82 -79c-45 0 -80 32 -80 74 c0 46 36 79 83 79c44 0 79 -32 79 -74z" horiz-adv-x="455" glyph-name="ldot.sc"/>
<glyph d="M538 131c-5 -43 -7 -86 -9 -135c-65 4 -141 5 -219 5c-80 0 -162 -1 -229 -5c5 48 7 181 7 246v24l-53 -32c-9 23 -31 68 -45 95c32 17 65 35 98 54v79c0 64 -2 193 -7 241c39 0 138 1 171 5c-3 -29 -4 -109 -4 -148v-100l97 59c11 -27 29 -69 44 -96 c-43 -23 -85 -47 -141 -78v-160c0 -14 0 -38 2 -56c26 0 54 -1 81 -1c77 0 143 1 207 3z" unicode="Ł" horiz-adv-x="555" glyph-name="Lslash"/>
<glyph d="M224 0h-161c4 43 6 108 6 167v116c-21 -10 -38 -19 -56 -29c-7 24 -23 68 -35 96l91 41v158c0 58 -2 118 -6 161c35 2 131 12 161 18c-3 -26 -4 -115 -4 -133v-144c21 11 41 23 59 33c9 -28 23 -68 35 -97c-27 -12 -57 -28 -94 -46v-241c0 -35 1 -74 4 -100z" unicode="ł" horiz-adv-x="291" glyph-name="lslash"/>
<glyph d="M62 -3c4 36 5 134 5 183v11l-44 -23c-7 22 -22 63 -32 88l76 36v54c0 48 -1 144 -5 180c30 0 132 1 157 4c-3 -22 -3 -82 -3 -111v-66c21 11 42 22 60 33c8 -26 22 -63 32 -90c-26 -12 -56 -27 -92 -45v-92c0 -9 0 -27 1 -39c19 0 38 -1 57 -1c57 0 103 1 151 2 c-6 -39 -7 -80 -8 -124c-52 3 -111 4 -174 4s-127 -1 -181 -4z" horiz-adv-x="446" glyph-name="lslash.sc"/>
<glyph d="M75 0c5 48 9 176 10 241l2 232c1 64 0 186 -5 234l99 9l378 -453v199c0 64 -2 193 -8 241c39 0 132 1 166 5c-4 -29 -6 -109 -6 -148l-3 -419c0 -39 -1 -119 2 -147l-96 -9l-378 451v-292c0 -39 1 -116 4 -144h-165zM413 921l188 9l-165 -160l-108 -5z" unicode="Ń" horiz-adv-x="794" glyph-name="Nacute"/>
<glyph d="M314 701l188 9l-165 -160l-108 -5zM533 0h-162c5 43 7 112 7 170v111c0 58 -15 92 -63 92c-55 0 -104 -51 -104 -100v-170c0 -35 1 -77 4 -103h-161c4 43 6 112 6 170v138c0 58 -2 122 -6 165c35 0 119 10 149 13l7 -101c40 67 111 107 174 107c99 0 145 -64 145 -170 v-219c0 -35 2 -77 4 -103z" unicode="ń" horiz-adv-x="587" glyph-name="nacute"/>
<glyph d="M59 0c4 36 7 132 7 181l1 169c0 48 0 140 -4 176l101 8l255 -303v115c0 48 -1 144 -6 180c30 0 126 1 151 4c-3 -22 -4 -82 -5 -111l-2 -314c0 -29 1 -87 4 -107l-99 -8l-255 302v-184c0 -29 0 -88 3 -108h-151zM327 747l188 9l-165 -160l-108 -5z" horiz-adv-x="625" glyph-name="nacute.sc"/>
<glyph d="M75 0c5 48 9 176 10 241l2 232c1 64 0 186 -5 234l99 9l378 -453v199c0 64 -2 193 -8 241c39 0 132 1 166 5c-4 -29 -6 -109 -6 -148l-3 -419c0 -39 -1 -119 2 -147l-96 -9l-378 451v-292c0 -39 1 -116 4 -144h-165zM466 768h-138l-111 161l95 6l86 -80l81 75h101z" unicode="Ň" horiz-adv-x="794" glyph-name="Ncaron"/>
<glyph d="M368 548h-138l-111 161l95 6l86 -80l81 75h101zM533 0h-162c5 43 7 112 7 170v111c0 58 -15 92 -63 92c-55 0 -104 -51 -104 -100v-170c0 -35 1 -77 4 -103h-161c4 43 6 112 6 170v138c0 58 -2 122 -6 165c35 0 119 10 149 13l7 -101c40 67 111 107 174 107 c99 0 145 -64 145 -170v-219c0 -35 2 -77 4 -103z" unicode="ň" horiz-adv-x="587" glyph-name="ncaron"/>
<glyph d="M59 0c4 36 7 132 7 181l1 169c0 48 0 140 -4 176l101 8l255 -303v115c0 48 -1 144 -6 180c30 0 126 1 151 4c-3 -22 -4 -82 -5 -111l-2 -314c0 -29 1 -87 4 -107l-99 -8l-255 302v-184c0 -29 0 -88 3 -108h-151zM381 594h-138l-111 161l95 6l86 -80l81 75h101z" horiz-adv-x="625" glyph-name="ncaron.sc"/>
<glyph d="M75 0c5 48 9 176 10 241l2 232c1 64 0 186 -5 234l99 9l378 -453v199c0 64 -2 193 -8 241c39 0 132 1 166 5c-4 -29 -6 -109 -6 -148l-3 -419c0 -39 -1 -119 2 -147l-96 -9l-378 451v-292c0 -39 1 -116 4 -144h-165zM303 -237l19 13c27 20 37 41 37 58c0 15 -8 29 -32 42 l-15 9c10 45 43 67 79 67c41 0 72 -28 72 -73c0 -48 -38 -101 -132 -150z" unicode="Ņ" horiz-adv-x="794" glyph-name="Ncommaaccent"/>
<glyph d="M205 -237l19 13c27 20 37 41 37 58c0 15 -8 29 -32 42l-15 9c10 45 43 67 79 67c41 0 72 -28 72 -73c0 -48 -38 -101 -132 -150zM533 0h-162c5 43 7 112 7 170v111c0 58 -15 92 -63 92c-55 0 -104 -51 -104 -100v-170c0 -35 1 -77 4 -103h-161c4 43 6 112 6 170v138 c0 58 -2 122 -6 165c35 0 119 10 149 13l7 -101c40 67 111 107 174 107c99 0 145 -64 145 -170v-219c0 -35 2 -77 4 -103z" unicode="ņ" horiz-adv-x="587" glyph-name="ncommaaccent"/>
<glyph d="M59 0c4 36 7 132 7 181l1 169c0 48 0 140 -4 176l101 8l255 -303v115c0 48 -1 144 -6 180c30 0 126 1 151 4c-3 -22 -4 -82 -5 -111l-2 -314c0 -29 1 -87 4 -107l-99 -8l-255 302v-184c0 -29 0 -88 3 -108h-151zM218 -243l19 13c27 20 37 41 37 58c0 15 -8 29 -32 42 l-15 9c10 45 43 67 79 67c41 0 72 -28 72 -73c0 -48 -38 -101 -132 -150z" horiz-adv-x="625" glyph-name="ncommaaccent.sc"/>
<glyph d="M75 0c5 48 9 176 10 241l2 232c1 64 0 186 -5 234l99 9l378 -453v199c0 64 -2 193 -8 241c39 0 132 1 166 5c-4 -29 -6 -109 -6 -148l-3 -419c0 -39 -1 -119 2 -147l-96 -9l-378 451v-292c0 -39 1 -116 4 -144h-165zM202 779c20 121 64 157 119 157c64 0 121 -64 161 -64 c19 0 30 19 39 67l87 -13c-20 -123 -62 -162 -119 -162c-63 0 -124 67 -162 67c-19 0 -29 -18 -37 -65z" unicode="Ñ" horiz-adv-x="794" glyph-name="Ntilde"/>
<glyph d="M533 0h-162c5 43 7 112 7 170v111c0 58 -15 92 -63 92c-55 0 -104 -51 -104 -100v-170c0 -35 1 -77 4 -103h-161c4 43 6 112 6 170v138c0 58 -2 122 -6 165c35 0 119 10 149 13l7 -101c40 67 111 107 174 107c99 0 145 -64 145 -170v-219c0 -35 2 -77 4 -103zM103 559 c20 121 64 157 119 157c64 0 121 -64 161 -64c19 0 30 19 39 67l87 -13c-20 -123 -62 -162 -119 -162c-63 0 -124 67 -162 67c-19 0 -29 -18 -37 -65z" unicode="ñ" horiz-adv-x="587" glyph-name="ntilde"/>
<glyph d="M59 0c4 36 7 132 7 181l1 169c0 48 0 140 -4 176l101 8l255 -303v115c0 48 -1 144 -6 180c30 0 126 1 151 4c-3 -22 -4 -82 -5 -111l-2 -314c0 -29 1 -87 4 -107l-99 -8l-255 302v-184c0 -29 0 -88 3 -108h-151zM116 605c20 121 64 157 119 157c64 0 121 -64 161 -64 c19 0 30 19 39 67l87 -13c-20 -123 -62 -162 -119 -162c-63 0 -124 67 -162 67c-19 0 -29 -18 -37 -65z" horiz-adv-x="625" glyph-name="ntilde.sc"/>
<glyph d="M411 927l188 9l-165 -160l-108 -5zM396 109c120 0 200 110 200 240c0 151 -84 244 -198 244c-120 0 -200 -110 -200 -240c0 -151 84 -244 198 -244zM387 -18c-208 0 -346 158 -346 351c0 220 148 387 366 387c208 0 346 -158 346 -351c0 -220 -148 -387 -366 -387z" unicode="Ó" horiz-adv-x="794" glyph-name="Oacute"/>
<glyph d="M294 701l188 9l-165 -160l-108 -5zM529 249c0 -153 -101 -267 -256 -267c-147 0 -242 109 -242 243c0 153 102 267 255 267c149 0 243 -109 243 -243zM382 234c0 104 -44 146 -100 146c-63 0 -104 -53 -104 -139c0 -103 41 -147 100 -147c65 0 104 52 104 140z" unicode="ó" glyph-name="oacute"/>
<glyph d="M314 540c160 0 264 -115 264 -264c0 -171 -112 -291 -279 -291c-161 0 -264 115 -264 264c0 171 111 291 279 291zM305 101c75 0 124 65 124 159c0 109 -51 165 -121 165c-76 0 -125 -67 -125 -160c0 -107 52 -164 122 -164zM321 747l188 9l-165 -160l-108 -5z" horiz-adv-x="613" glyph-name="oacute.sc"/>
<glyph d="M396 109c120 0 200 110 200 240c0 151 -84 244 -198 244c-120 0 -200 -110 -200 -240c0 -151 84 -244 198 -244zM387 -18c-208 0 -346 158 -346 351c0 220 148 387 366 387c208 0 346 -158 346 -351c0 -220 -148 -387 -366 -387zM464 939l100 4 c2 -108 -64 -175 -169 -175c-99 0 -168 68 -168 168l102 9c0 -58 27 -86 69 -86c47 0 66 37 66 80z" unicode="Ŏ" horiz-adv-x="794" glyph-name="Obreve"/>
<glyph d="M529 249c0 -153 -101 -267 -256 -267c-147 0 -242 109 -242 243c0 153 102 267 255 267c149 0 243 -109 243 -243zM382 234c0 104 -44 146 -100 146c-63 0 -104 -53 -104 -139c0 -103 41 -147 100 -147c65 0 104 52 104 140zM347 713l100 4c2 -108 -64 -175 -169 -175 c-99 0 -168 68 -168 168l102 9c0 -58 27 -86 69 -86c47 0 66 37 66 80z" unicode="ŏ" glyph-name="obreve"/>
<glyph d="M314 540c160 0 264 -115 264 -264c0 -171 -112 -291 -279 -291c-161 0 -264 115 -264 264c0 171 111 291 279 291zM305 101c75 0 124 65 124 159c0 109 -51 165 -121 165c-76 0 -125 -67 -125 -160c0 -107 52 -164 122 -164zM374 759l100 4c2 -108 -64 -175 -169 -175 c-99 0 -168 68 -168 168l102 9c0 -58 27 -86 69 -86c47 0 66 37 66 80z" horiz-adv-x="613" glyph-name="obreve.sc"/>
<glyph d="M330 935h138l111 -162l-94 -6l-87 82l-80 -75h-102zM396 109c120 0 200 110 200 240c0 151 -84 244 -198 244c-120 0 -200 -110 -200 -240c0 -151 84 -244 198 -244zM387 -18c-208 0 -346 158 -346 351c0 220 148 387 366 387c208 0 346 -158 346 -351 c0 -220 -148 -387 -366 -387z" unicode="Ô" horiz-adv-x="794" glyph-name="Ocircumflex"/>
<glyph d="M213 709h138l111 -162l-94 -6l-87 82l-80 -75h-102zM529 249c0 -153 -101 -267 -256 -267c-147 0 -242 109 -242 243c0 153 102 267 255 267c149 0 243 -109 243 -243zM382 234c0 104 -44 146 -100 146c-63 0 -104 -53 -104 -139c0 -103 41 -147 100 -147 c65 0 104 52 104 140z" unicode="ô" glyph-name="ocircumflex"/>
<glyph d="M239 755h138l111 -162l-94 -6l-87 82l-80 -75h-102zM314 540c160 0 264 -115 264 -264c0 -171 -112 -291 -279 -291c-161 0 -264 115 -264 264c0 171 111 291 279 291zM305 101c75 0 124 65 124 159c0 109 -51 165 -121 165c-76 0 -125 -67 -125 -160 c0 -107 52 -164 122 -164z" horiz-adv-x="613" glyph-name="ocircumflex.sc"/>
<glyph d="M369 861c0 -47 -33 -79 -78 -79c-43 0 -75 31 -75 73c0 47 34 80 78 80c43 0 75 -32 75 -74zM577 861c0 -47 -34 -79 -78 -79c-43 0 -75 31 -75 73c0 47 34 80 78 80c42 0 75 -32 75 -74zM396 109c120 0 200 110 200 240c0 151 -84 244 -198 244 c-120 0 -200 -110 -200 -240c0 -151 84 -244 198 -244zM387 -18c-208 0 -346 158 -346 351c0 220 148 387 366 387c208 0 346 -158 346 -351c0 -220 -148 -387 -366 -387z" unicode="Ö" horiz-adv-x="794" glyph-name="Odieresis"/>
<glyph d="M252 635c0 -47 -33 -79 -78 -79c-43 0 -75 31 -75 73c0 47 34 80 78 80c43 0 75 -32 75 -74zM460 635c0 -47 -34 -79 -78 -79c-43 0 -75 31 -75 73c0 47 34 80 78 80c42 0 75 -32 75 -74zM529 249c0 -153 -101 -267 -256 -267c-147 0 -242 109 -242 243 c0 153 102 267 255 267c149 0 243 -109 243 -243zM382 234c0 104 -44 146 -100 146c-63 0 -104 -53 -104 -139c0 -103 41 -147 100 -147c65 0 104 52 104 140z" unicode="ö" glyph-name="odieresis"/>
<glyph d="M279 681c0 -47 -33 -79 -78 -79c-43 0 -75 31 -75 73c0 47 34 80 78 80c43 0 75 -32 75 -74zM487 681c0 -47 -34 -79 -78 -79c-43 0 -75 31 -75 73c0 47 34 80 78 80c42 0 75 -32 75 -74zM314 540c160 0 264 -115 264 -264c0 -171 -112 -291 -279 -291 c-161 0 -264 115 -264 264c0 171 111 291 279 291zM305 101c75 0 124 65 124 159c0 109 -51 165 -121 165c-76 0 -125 -67 -125 -160c0 -107 52 -164 122 -164z" horiz-adv-x="613" glyph-name="odieresis.sc"/>
<glyph d="M396 109c120 0 200 110 200 240c0 151 -84 244 -198 244c-120 0 -200 -110 -200 -240c0 -151 84 -244 198 -244zM387 -18c-208 0 -346 158 -346 351c0 220 148 387 366 387c208 0 346 -158 346 -351c0 -220 -148 -387 -366 -387zM201 927l177 9l83 -160l-106 -5z" unicode="Ò" horiz-adv-x="794" glyph-name="Ograve"/>
<glyph d="M529 249c0 -153 -101 -267 -256 -267c-147 0 -242 109 -242 243c0 153 102 267 255 267c149 0 243 -109 243 -243zM382 234c0 104 -44 146 -100 146c-63 0 -104 -53 -104 -139c0 -103 41 -147 100 -147c65 0 104 52 104 140zM85 701l177 9l83 -160l-106 -5z" unicode="ò" glyph-name="ograve"/>
<glyph d="M314 540c160 0 264 -115 264 -264c0 -171 -112 -291 -279 -291c-161 0 -264 115 -264 264c0 171 111 291 279 291zM305 101c75 0 124 65 124 159c0 109 -51 165 -121 165c-76 0 -125 -67 -125 -160c0 -107 52 -164 122 -164zM111 747l177 9l83 -160l-106 -5z" horiz-adv-x="613" glyph-name="ograve.sc"/>
<glyph d="M297 931l157 7l-95 -163l-100 -3zM492 934l159 7l-111 -164l-100 -2zM396 109c120 0 200 110 200 240c0 151 -84 244 -198 244c-120 0 -200 -110 -200 -240c0 -151 84 -244 198 -244zM387 -18c-208 0 -346 158 -346 351c0 220 148 387 366 387c208 0 346 -158 346 -351 c0 -220 -148 -387 -366 -387z" unicode="Ő" horiz-adv-x="794" glyph-name="Ohungarumlaut"/>
<glyph d="M180 705l157 7l-95 -163l-100 -3zM375 708l159 7l-111 -164l-100 -2zM529 249c0 -153 -101 -267 -256 -267c-147 0 -242 109 -242 243c0 153 102 267 255 267c149 0 243 -109 243 -243zM382 234c0 104 -44 146 -100 146c-63 0 -104 -53 -104 -139 c0 -103 41 -147 100 -147c65 0 104 52 104 140z" unicode="ő" glyph-name="ohungarumlaut"/>
<glyph d="M314 540c160 0 264 -115 264 -264c0 -171 -112 -291 -279 -291c-161 0 -264 115 -264 264c0 171 111 291 279 291zM305 101c75 0 124 65 124 159c0 109 -51 165 -121 165c-76 0 -125 -67 -125 -160c0 -107 52 -164 122 -164zM207 751l157 7l-95 -163l-100 -3zM402 754 l159 7l-111 -164l-100 -2z" horiz-adv-x="613" glyph-name="ohungarumlaut.sc"/>
<glyph d="M572 907c-3 -29 -5 -69 -5 -102c-44 1 -80 2 -119 2h-106c-48 0 -82 -1 -119 -2c2 25 3 71 3 102c57 -2 98 -3 175 -3c53 0 115 1 171 3zM396 109c120 0 200 110 200 240c0 151 -84 244 -198 244c-120 0 -200 -110 -200 -240c0 -151 84 -244 198 -244zM387 -18 c-208 0 -346 158 -346 351c0 220 148 387 366 387c208 0 346 -158 346 -351c0 -220 -148 -387 -366 -387z" unicode="Ō" horiz-adv-x="794" glyph-name="Omacron"/>
<glyph d="M455 681c-3 -29 -5 -69 -5 -102c-44 1 -80 2 -119 2h-106c-48 0 -82 -1 -119 -2c2 25 3 71 3 102c57 -2 98 -3 175 -3c53 0 115 1 171 3zM529 249c0 -153 -101 -267 -256 -267c-147 0 -242 109 -242 243c0 153 102 267 255 267c149 0 243 -109 243 -243zM382 234 c0 104 -44 146 -100 146c-63 0 -104 -53 -104 -139c0 -103 41 -147 100 -147c65 0 104 52 104 140z" unicode="ō" glyph-name="omacron"/>
<glyph d="M314 540c160 0 264 -115 264 -264c0 -171 -112 -291 -279 -291c-161 0 -264 115 -264 264c0 171 111 291 279 291zM305 101c75 0 124 65 124 159c0 109 -51 165 -121 165c-76 0 -125 -67 -125 -160c0 -107 52 -164 122 -164zM481 727c-3 -29 -5 -69 -5 -102 c-44 1 -80 2 -119 2h-106c-48 0 -82 -1 -119 -2c2 25 3 71 3 102c57 -2 98 -3 175 -3c53 0 115 1 171 3z" horiz-adv-x="613" glyph-name="omacron.sc"/>
<glyph d="M752 692c-20 -21 -47 -52 -80 -91c52 -62 81 -143 81 -232c0 -220 -148 -387 -366 -387c-75 0 -142 21 -195 56c-25 -28 -44 -50 -67 -78l-82 51c31 34 56 60 80 88c-53 62 -82 144 -82 234c0 220 148 387 366 387c75 0 142 -21 196 -57c34 40 52 62 68 84 c20 -13 61 -45 81 -55zM199 353c0 -54 10 -100 29 -137l284 336c-31 26 -71 40 -114 40c-119 0 -199 -109 -199 -239zM396 110c119 0 198 108 198 239c0 51 -10 96 -27 133l-285 -335c32 -24 71 -37 114 -37z" unicode="Ø" horiz-adv-x="793" glyph-name="Oslash"/>
<glyph d="M536 458c-14 -15 -35 -39 -54 -59c30 -42 47 -94 47 -150c0 -153 -101 -267 -256 -267c-51 0 -95 13 -132 35c-16 -17 -33 -36 -50 -56l-67 54l55 58c-31 42 -48 95 -48 152c0 153 102 267 255 267c51 0 96 -14 133 -36c24 26 40 45 51 58c10 -10 54 -48 66 -56zM173 241 c0 -25 2 -46 6 -64l165 185c-18 15 -39 23 -62 23c-66 0 -109 -54 -109 -144zM387 234c0 24 -3 44 -7 62l-164 -186c17 -14 38 -20 62 -20c68 0 109 52 109 144z" unicode="ø" glyph-name="oslash"/>
<glyph d="M101 -37l-64 46l59 64c-39 46 -61 107 -61 176c0 171 111 291 279 291c56 0 106 -15 146 -40c25 29 40 48 52 63c13 -10 50 -41 63 -49c-14 -15 -33 -38 -56 -65c37 -46 59 -106 59 -173c0 -171 -112 -291 -279 -291c-56 0 -106 14 -146 38c-20 -22 -35 -40 -52 -60z M183 265c0 -31 4 -58 12 -80l183 215c-19 17 -43 25 -70 25c-76 0 -125 -67 -125 -160zM305 101c75 0 124 65 124 159c0 29 -4 55 -11 76l-182 -212c19 -15 43 -23 69 -23z" horiz-adv-x="613" glyph-name="oslash.sc"/>
<glyph d="M752 692c-20 -21 -47 -52 -80 -91c52 -62 81 -143 81 -232c0 -220 -148 -387 -366 -387c-75 0 -142 21 -195 56c-25 -28 -44 -50 -67 -78l-82 51c31 34 56 60 80 88c-53 62 -82 144 -82 234c0 220 148 387 366 387c75 0 142 -21 196 -57c34 40 52 62 68 84 c20 -13 61 -45 81 -55zM199 353c0 -54 10 -100 29 -137l284 336c-31 26 -71 40 -114 40c-119 0 -199 -109 -199 -239zM396 110c119 0 198 108 198 239c0 51 -10 96 -27 133l-285 -335c32 -24 71 -37 114 -37zM411 927l188 9l-165 -160l-108 -5z" unicode="Ǿ" horiz-adv-x="793" glyph-name="Oslashacute"/>
<glyph d="M536 458c-14 -15 -35 -39 -54 -59c30 -42 47 -94 47 -150c0 -153 -101 -267 -256 -267c-51 0 -95 13 -132 35c-16 -17 -33 -36 -50 -56l-67 54l55 58c-31 42 -48 95 -48 152c0 153 102 267 255 267c51 0 96 -14 133 -36c24 26 40 45 51 58c10 -10 54 -48 66 -56zM293 701 l188 9l-165 -160l-108 -5zM173 241c0 -25 2 -46 6 -64l165 185c-18 15 -39 23 -62 23c-66 0 -109 -54 -109 -144zM387 234c0 24 -3 44 -7 62l-164 -186c17 -14 38 -20 62 -20c68 0 109 52 109 144z" unicode="ǿ" glyph-name="oslashacute"/>
<glyph d="M101 -37l-64 46l59 64c-39 46 -61 107 -61 176c0 171 111 291 279 291c56 0 106 -15 146 -40c25 29 40 48 52 63c13 -10 50 -41 63 -49c-14 -15 -33 -38 -56 -65c37 -46 59 -106 59 -173c0 -171 -112 -291 -279 -291c-56 0 -106 14 -146 38c-20 -22 -35 -40 -52 -60z M320 747l188 9l-165 -160l-108 -5zM183 265c0 -31 4 -58 12 -80l183 215c-19 17 -43 25 -70 25c-76 0 -125 -67 -125 -160zM305 101c75 0 124 65 124 159c0 29 -4 55 -11 76l-182 -212c19 -15 43 -23 69 -23z" horiz-adv-x="613" glyph-name="oslashacute.sc"/>
<glyph d="M396 109c120 0 200 110 200 240c0 151 -84 244 -198 244c-120 0 -200 -110 -200 -240c0 -151 84 -244 198 -244zM387 -18c-208 0 -346 158 -346 351c0 220 148 387 366 387c208 0 346 -158 346 -351c0 -220 -148 -387 -366 -387zM200 785c20 121 64 157 119 157 c64 0 121 -64 161 -64c19 0 30 19 39 67l87 -13c-20 -123 -62 -162 -119 -162c-63 0 -124 67 -162 67c-19 0 -29 -18 -37 -65z" unicode="Õ" horiz-adv-x="794" glyph-name="Otilde"/>
<glyph d="M529 249c0 -153 -101 -267 -256 -267c-147 0 -242 109 -242 243c0 153 102 267 255 267c149 0 243 -109 243 -243zM382 234c0 104 -44 146 -100 146c-63 0 -104 -53 -104 -139c0 -103 41 -147 100 -147c65 0 104 52 104 140zM83 559c20 121 64 157 119 157 c64 0 121 -64 161 -64c19 0 30 19 39 67l87 -13c-20 -123 -62 -162 -119 -162c-63 0 -124 67 -162 67c-19 0 -29 -18 -37 -65z" unicode="õ" glyph-name="otilde"/>
<glyph d="M314 540c160 0 264 -115 264 -264c0 -171 -112 -291 -279 -291c-161 0 -264 115 -264 264c0 171 111 291 279 291zM305 101c75 0 124 65 124 159c0 109 -51 165 -121 165c-76 0 -125 -67 -125 -160c0 -107 52 -164 122 -164zM110 605c20 121 64 157 119 157 c64 0 121 -64 161 -64c19 0 30 19 39 67l87 -13c-20 -123 -62 -162 -119 -162c-63 0 -124 67 -162 67c-19 0 -29 -18 -37 -65z" horiz-adv-x="613" glyph-name="otilde.sc"/>
<glyph d="M662 6l-181 -15l-154 256l-15 -1h-65v-102c0 -38 1 -116 3 -144h-170c5 48 7 176 7 241v221c0 64 -2 193 -7 241c36 0 171 4 216 5c201 2 307 -90 306 -213c-2 -98 -50 -161 -138 -207l113 -165c23 -33 63 -88 85 -117zM246 359h74c78 0 125 48 125 113 c0 67 -35 111 -134 111c-23 0 -45 -1 -65 -3v-221zM336 921l188 9l-165 -160l-108 -5z" unicode="Ŕ" horiz-adv-x="673" glyph-name="Racute"/>
<glyph d="M230 701l188 9l-165 -160l-108 -5zM381 492l-12 -147c-77 10 -158 -16 -158 -100v-142c0 -35 1 -77 4 -103h-161c5 43 6 112 6 170v149c0 58 -2 109 -8 151c33 0 120 12 150 17l8 -111c32 68 87 108 171 116z" unicode="ŕ" horiz-adv-x="391" glyph-name="racute"/>
<glyph d="M532 4l-163 -11l-104 180h-11c-3 -1 -41 -1 -41 -1v-64c0 -29 1 -88 3 -108h-154c4 36 5 132 5 181v165c0 48 -1 144 -5 180c27 0 144 3 178 4c166 0 251 -65 250 -164c0 -73 -36 -120 -99 -155l85 -127zM278 747l188 9l-165 -160l-108 -5zM212 267h47c52 0 87 32 87 77 c0 48 -28 74 -92 74c-14 0 -27 0 -41 -1c-1 -17 -1 -31 -1 -43v-107z" horiz-adv-x="546" glyph-name="racute.sc"/>
<glyph d="M662 6l-181 -15l-154 256l-15 -1h-65v-102c0 -38 1 -116 3 -144h-170c5 48 7 176 7 241v221c0 64 -2 193 -7 241c36 0 171 4 216 5c201 2 307 -90 306 -213c-2 -98 -50 -161 -138 -207l113 -165c23 -33 63 -88 85 -117zM246 359h74c78 0 125 48 125 113 c0 67 -35 111 -134 111c-23 0 -45 -1 -65 -3v-221zM390 768h-138l-111 161l95 6l86 -80l81 75h101z" unicode="Ř" horiz-adv-x="673" glyph-name="Rcaron"/>
<glyph d="M284 548h-138l-111 161l95 6l86 -80l81 75h101zM381 492l-12 -147c-77 10 -158 -16 -158 -100v-142c0 -35 1 -77 4 -103h-161c5 43 6 112 6 170v149c0 58 -2 109 -8 151c33 0 120 12 150 17l8 -111c32 68 87 108 171 116z" unicode="ř" horiz-adv-x="391" glyph-name="rcaron"/>
<glyph d="M532 4l-163 -11l-104 180h-11c-3 -1 -41 -1 -41 -1v-64c0 -29 1 -88 3 -108h-154c4 36 5 132 5 181v165c0 48 -1 144 -5 180c27 0 144 3 178 4c166 0 251 -65 250 -164c0 -73 -36 -120 -99 -155l85 -127zM331 594h-138l-111 161l95 6l86 -80l81 75h101zM212 267h47 c52 0 87 32 87 77c0 48 -28 74 -92 74c-14 0 -27 0 -41 -1c-1 -17 -1 -31 -1 -43v-107z" horiz-adv-x="546" glyph-name="rcaron.sc"/>
<glyph d="M662 6l-181 -15l-154 256l-15 -1h-65v-102c0 -38 1 -116 3 -144h-170c5 48 7 176 7 241v221c0 64 -2 193 -7 241c36 0 171 4 216 5c201 2 307 -90 306 -213c-2 -98 -50 -161 -138 -207l113 -165c23 -33 63 -88 85 -117zM246 359h74c78 0 125 48 125 113 c0 67 -35 111 -134 111c-23 0 -45 -1 -65 -3v-221zM257 -237l19 13c27 20 37 41 37 58c0 15 -8 29 -32 42l-15 9c10 45 43 67 79 67c41 0 72 -28 72 -73c0 -48 -38 -101 -132 -150z" unicode="Ŗ" horiz-adv-x="673" glyph-name="Rcommaaccent"/>
<glyph d="M45 -237l19 13c27 20 37 41 37 58c0 15 -8 29 -32 42l-15 9c10 45 43 67 79 67c41 0 72 -28 72 -73c0 -48 -38 -101 -132 -150zM381 492l-12 -147c-77 10 -158 -16 -158 -100v-142c0 -35 1 -77 4 -103h-161c5 43 6 112 6 170v149c0 58 -2 109 -8 151c33 0 120 12 150 17 l8 -111c32 68 87 108 171 116z" unicode="ŗ" horiz-adv-x="391" glyph-name="rcommaaccent"/>
<glyph d="M532 4l-163 -11l-104 180h-11c-3 -1 -41 -1 -41 -1v-64c0 -29 1 -88 3 -108h-154c4 36 5 132 5 181v165c0 48 -1 144 -5 180c27 0 144 3 178 4c166 0 251 -65 250 -164c0 -73 -36 -120 -99 -155l85 -127zM192 -243l19 13c27 20 37 41 37 58c0 15 -8 29 -32 42l-15 9 c10 45 43 67 79 67c41 0 72 -28 72 -73c0 -48 -38 -101 -132 -150zM212 267h47c52 0 87 32 87 77c0 48 -28 74 -92 74c-14 0 -27 0 -41 -1c-1 -17 -1 -31 -1 -43v-107z" horiz-adv-x="546" glyph-name="rcommaaccent.sc"/>
<glyph d="M315 927l188 9l-165 -160l-108 -5zM511 204c0 -136 -100 -222 -250 -222c-75 0 -165 26 -219 58l6 148c45 -36 135 -76 217 -76c57 0 93 28 93 79c0 108 -296 122 -296 314c0 132 99 215 238 215c73 0 146 -24 190 -52l-33 -126c-42 26 -102 48 -152 48 c-54 0 -88 -30 -88 -74c0 -103 294 -112 294 -312z" unicode="Ś" horiz-adv-x="551" glyph-name="Sacute"/>
<glyph d="M258 701l188 9l-165 -160l-108 -5zM238 492c63 0 124 -15 161 -33l-33 -107c-34 21 -76 35 -117 35c-40 0 -65 -14 -65 -43c0 -61 236 -48 236 -200c0 -104 -87 -162 -206 -162c-54 0 -137 16 -179 40l5 120c44 -27 113 -54 172 -54c43 0 68 16 68 42 c0 70 -234 51 -234 208c0 86 73 154 192 154z" unicode="ś" horiz-adv-x="447" glyph-name="sacute"/>
<glyph d="M251 747l188 9l-165 -160l-108 -5zM418 156c0 -109 -85 -171 -204 -171c-62 0 -134 20 -175 43l4 124c39 -24 106 -54 169 -54c41 0 64 17 64 46c0 72 -226 75 -226 228c0 108 82 168 197 168c57 0 119 -18 154 -39l-26 -112c-34 20 -78 37 -119 37 c-43 0 -63 -20 -63 -44c0 -68 225 -70 225 -226z" horiz-adv-x="451" glyph-name="sacute.sc"/>
<glyph d="M368 774h-138l-111 161l95 6l86 -80l81 75h101zM511 204c0 -136 -100 -222 -250 -222c-75 0 -165 26 -219 58l6 148c45 -36 135 -76 217 -76c57 0 93 28 93 79c0 108 -296 122 -296 314c0 132 99 215 238 215c73 0 146 -24 190 -52l-33 -126c-42 26 -102 48 -152 48 c-54 0 -88 -30 -88 -74c0 -103 294 -112 294 -312z" unicode="Š" horiz-adv-x="551" glyph-name="Scaron"/>
<glyph d="M311 548h-138l-111 161l95 6l86 -80l81 75h101zM238 492c63 0 124 -15 161 -33l-33 -107c-34 21 -76 35 -117 35c-40 0 -65 -14 -65 -43c0 -61 236 -48 236 -200c0 -104 -87 -162 -206 -162c-54 0 -137 16 -179 40l5 120c44 -27 113 -54 172 -54c43 0 68 16 68 42 c0 70 -234 51 -234 208c0 86 73 154 192 154z" unicode="š" horiz-adv-x="447" glyph-name="scaron"/>
<glyph d="M305 594h-138l-111 161l95 6l86 -80l81 75h101zM418 156c0 -109 -85 -171 -204 -171c-62 0 -134 20 -175 43l4 124c39 -24 106 -54 169 -54c41 0 64 17 64 46c0 72 -226 75 -226 228c0 108 82 168 197 168c57 0 119 -18 154 -39l-26 -112c-34 20 -78 37 -119 37 c-43 0 -63 -20 -63 -44c0 -68 225 -70 225 -226z" horiz-adv-x="451" glyph-name="scaron.sc"/>
<glyph d="M511 204c0 -126 -86 -209 -217 -220l-11 -42c69 -17 105 -52 105 -97c0 -54 -44 -96 -124 -96c-30 0 -64 6 -98 16l17 70c26 -8 58 -14 81 -14c22 0 35 6 35 23c0 19 -33 35 -93 47l-5 4c6 17 16 56 25 89c-67 6 -138 29 -184 56l6 148c45 -36 135 -76 217 -76 c57 0 93 28 93 79c0 108 -296 122 -296 314c0 132 99 215 238 215c73 0 146 -24 190 -52l-33 -126c-42 26 -102 48 -152 48c-54 0 -88 -30 -88 -74c0 -103 294 -112 294 -312z" unicode="Ş" horiz-adv-x="551" glyph-name="Scedilla"/>
<glyph d="M238 492c63 0 124 -15 161 -33l-33 -107c-34 21 -76 35 -117 35c-40 0 -65 -14 -65 -43c0 -61 236 -48 236 -200c0 -93 -70 -150 -170 -160l-11 -42c69 -17 105 -52 105 -97c0 -54 -44 -96 -124 -96c-30 0 -64 6 -98 16l17 70c26 -8 58 -14 81 -14c22 0 35 6 35 23 c0 19 -33 35 -93 47l-5 4c6 17 16 56 25 89c-51 4 -113 18 -147 38l5 120c44 -27 113 -54 172 -54c43 0 68 16 68 42c0 70 -234 51 -234 208c0 86 73 154 192 154z" unicode="ş" horiz-adv-x="447" glyph-name="scedilla"/>
<glyph d="M418 156c0 -98 -68 -157 -168 -169l-11 -43c69 -17 105 -52 105 -97c0 -54 -44 -96 -124 -96c-30 0 -64 6 -98 16l17 70c26 -8 58 -14 81 -14c22 0 35 6 35 23c0 19 -33 35 -93 47l-5 4c6 18 17 56 25 90c-53 5 -109 22 -143 41l4 124c39 -24 106 -54 169 -54 c41 0 64 17 64 46c0 72 -226 75 -226 228c0 108 82 168 197 168c57 0 119 -18 154 -39l-26 -112c-34 20 -78 37 -119 37c-43 0 -63 -20 -63 -44c0 -68 225 -70 225 -226z" horiz-adv-x="451" glyph-name="scedilla.sc"/>
<glyph d="M189 -243l19 13c27 20 37 41 37 58c0 15 -8 29 -32 42l-15 9c10 45 43 67 79 67c41 0 72 -28 72 -73c0 -48 -38 -101 -132 -150zM511 204c0 -136 -100 -222 -250 -222c-75 0 -165 26 -219 58l6 148c45 -36 135 -76 217 -76c57 0 93 28 93 79c0 108 -296 122 -296 314 c0 132 99 215 238 215c73 0 146 -24 190 -52l-33 -126c-42 26 -102 48 -152 48c-54 0 -88 -30 -88 -74c0 -103 294 -112 294 -312z" unicode="Ș" horiz-adv-x="551" glyph-name="Scommaaccent"/>
<glyph d="M134 -237l19 13c27 20 37 41 37 58c0 15 -8 29 -32 42l-15 9c10 45 43 67 79 67c41 0 72 -28 72 -73c0 -48 -38 -101 -132 -150zM238 492c63 0 124 -15 161 -33l-33 -107c-34 21 -76 35 -117 35c-40 0 -65 -14 -65 -43c0 -61 236 -48 236 -200c0 -104 -87 -162 -206 -162 c-54 0 -137 16 -179 40l5 120c44 -27 113 -54 172 -54c43 0 68 16 68 42c0 70 -234 51 -234 208c0 86 73 154 192 154z" unicode="ș" horiz-adv-x="447" glyph-name="scommaaccent"/>
<glyph d="M128 -243l19 13c27 20 37 41 37 58c0 15 -8 29 -32 42l-15 9c10 45 43 67 79 67c41 0 72 -28 72 -73c0 -48 -38 -101 -132 -150zM418 156c0 -109 -85 -171 -204 -171c-62 0 -134 20 -175 43l4 124c39 -24 106 -54 169 -54c41 0 64 17 64 46c0 72 -226 75 -226 228 c0 108 82 168 197 168c57 0 119 -18 154 -39l-26 -112c-34 20 -78 37 -119 37c-43 0 -63 -20 -63 -44c0 -68 225 -70 225 -226z" horiz-adv-x="451" glyph-name="scommaaccent.sc"/>
<glyph d="M399 768h-138l-111 161l95 6l86 -80l81 75h101zM637 709c-5 -44 -8 -85 -8 -138c-72 1 -135 2 -218 2c-1 -22 -1 -48 -1 -64v-365c0 -38 1 -116 4 -144h-172c5 48 7 176 7 241v176c0 39 0 103 -2 156c-83 0 -151 -1 -222 -2c3 40 4 92 4 138c95 -3 188 -5 301 -5 c114 0 211 2 307 5z" unicode="Ť" horiz-adv-x="662" glyph-name="Tcaron"/>
<glyph d="M360 554l-61 -9c4 63 6 121 6 186c30 4 74 7 100 10c-13 -59 -32 -140 -45 -187zM367 124l-4 -112c-28 -17 -72 -28 -112 -28c-101 0 -158 43 -158 165v224h-82l24 108h60l9 98l140 46v-144h123c-2 -22 -3 -72 -3 -108h-120v-209c0 -50 19 -62 51 -62c25 0 52 9 72 22z " unicode="ť" horiz-adv-x="389" glyph-name="tcaron"/>
<glyph d="M491 530c-3 -40 -5 -79 -5 -129c-52 1 -92 2 -151 2c-1 -16 -1 -35 -1 -47v-248c0 -29 0 -88 3 -108h-158c4 36 6 132 6 181v112c0 27 -1 72 -2 110c-59 0 -105 -1 -156 -2c2 38 2 88 2 129c73 -2 143 -3 229 -3c88 0 161 1 233 3zM329 594h-138l-111 161l95 6l86 -80 l81 75h101z" horiz-adv-x="518" glyph-name="tcaron.sc"/>
<glyph d="M236 -237l19 13c27 20 37 41 37 58c0 15 -8 29 -32 42l-15 9c10 45 43 67 79 67c41 0 72 -28 72 -73c0 -48 -38 -101 -132 -150zM637 709c-5 -44 -8 -85 -8 -138c-72 1 -135 2 -218 2c-1 -22 -1 -48 -1 -64v-365c0 -38 1 -116 4 -144h-172c5 48 7 176 7 241v176 c0 39 0 103 -2 156c-83 0 -151 -1 -222 -2c3 40 4 92 4 138c95 -3 188 -5 301 -5c114 0 211 2 307 5z" unicode="Ţ" horiz-adv-x="662" glyph-name="Tcommaaccent"/>
<glyph d="M236 -237l19 13c27 20 37 41 37 58c0 15 -8 29 -32 42l-15 9c10 45 43 67 79 67c41 0 72 -28 72 -73c0 -48 -38 -101 -132 -150zM637 709c-5 -44 -8 -85 -8 -138c-72 1 -135 2 -218 2c-1 -22 -1 -48 -1 -64v-365c0 -38 1 -116 4 -144h-172c5 48 7 176 7 241v176 c0 39 0 103 -2 156c-83 0 -151 -1 -222 -2c3 40 4 92 4 138c95 -3 188 -5 301 -5c114 0 211 2 307 5z" unicode="Ț" horiz-adv-x="662" glyph-name="Tcommaaccent"/>
<glyph d="M149 -237l19 13c27 20 37 41 37 58c0 15 -8 29 -32 42l-15 9c10 45 43 67 79 67c41 0 72 -28 72 -73c0 -48 -38 -101 -132 -150zM365 124l-4 -112c-28 -17 -72 -28 -112 -28c-101 0 -158 43 -158 165v224h-82l24 108h60l9 98l140 46v-144h123c-2 -22 -3 -72 -3 -108h-120 v-209c0 -50 19 -62 51 -62c25 0 52 9 72 22z" unicode="ţ" horiz-adv-x="389" glyph-name="tcommaaccent"/>
<glyph d="M149 -237l19 13c27 20 37 41 37 58c0 15 -8 29 -32 42l-15 9c10 45 43 67 79 67c41 0 72 -28 72 -73c0 -48 -38 -101 -132 -150zM365 124l-4 -112c-28 -17 -72 -28 -112 -28c-101 0 -158 43 -158 165v224h-82l24 108h60l9 98l140 46v-144h123c-2 -22 -3 -72 -3 -108h-120 v-209c0 -50 19 -62 51 -62c25 0 52 9 72 22z" unicode="ț" horiz-adv-x="389" glyph-name="tcommaaccent"/>
<glyph d="M491 530c-3 -40 -5 -79 -5 -129c-52 1 -92 2 -151 2c-1 -16 -1 -35 -1 -47v-248c0 -29 0 -88 3 -108h-158c4 36 6 132 6 181v112c0 27 -1 72 -2 110c-59 0 -105 -1 -156 -2c2 38 2 88 2 129c73 -2 143 -3 229 -3c88 0 161 1 233 3zM166 -243l19 13c27 20 37 41 37 58 c0 15 -8 29 -32 42l-15 9c10 45 43 67 79 67c41 0 72 -28 72 -73c0 -48 -38 -101 -132 -150z" horiz-adv-x="518" glyph-name="tcommaaccent.sc"/>
<glyph d="M399 921l188 9l-165 -160l-108 -5zM699 708c-4 -29 -5 -109 -5 -148v-256c0 -115 -29 -184 -84 -237c-56 -55 -133 -85 -235 -85c-175 0 -297 97 -297 271v209c0 64 -2 193 -7 241c40 0 139 1 172 5c-3 -29 -4 -109 -4 -148v-274c0 -123 57 -171 152 -171 c93 0 143 56 143 154v193c0 64 -2 193 -8 241c40 0 139 1 173 5z" unicode="Ú" horiz-adv-x="772" glyph-name="Uacute"/>
<glyph d="M308 701l188 9l-165 -160l-108 -5zM534 0h-140l-16 84c-35 -62 -99 -102 -162 -102c-105 0 -158 63 -158 182v146c0 57 -2 120 -5 165c56 0 114 3 161 7c-4 -26 -5 -76 -5 -111v-170c0 -68 18 -100 74 -100c42 0 93 41 93 93v116c0 57 -2 120 -6 165c56 0 116 3 163 7 c-4 -26 -6 -76 -6 -111v-205c0 -58 2 -121 7 -166z" unicode="ú" horiz-adv-x="587" glyph-name="uacute"/>
<glyph d="M314 747l188 9l-165 -160l-108 -5zM544 530c-3 -22 -4 -82 -4 -111v-187c0 -85 -23 -140 -65 -181c-44 -43 -104 -66 -181 -66c-139 0 -232 72 -232 209v152c0 48 -2 144 -6 180c30 0 132 1 157 4c-2 -22 -3 -82 -3 -111v-201c0 -79 34 -111 94 -111c58 0 88 34 88 101 v138c0 48 -2 144 -6 180c30 0 133 1 158 4z" horiz-adv-x="601" glyph-name="uacute.sc"/>
<glyph d="M699 708c-4 -29 -5 -109 -5 -148v-256c0 -115 -29 -184 -84 -237c-56 -55 -133 -85 -235 -85c-175 0 -297 97 -297 271v209c0 64 -2 193 -7 241c40 0 139 1 172 5c-3 -29 -4 -109 -4 -148v-274c0 -123 57 -171 152 -171c93 0 143 56 143 154v193c0 64 -2 193 -8 241 c40 0 139 1 173 5zM453 933l100 4c2 -108 -64 -175 -169 -175c-99 0 -168 68 -168 168l102 9c0 -58 27 -86 69 -86c47 0 66 37 66 80z" unicode="Ŭ" horiz-adv-x="772" glyph-name="Ubreve"/>
<glyph d="M534 0h-140l-16 84c-35 -62 -99 -102 -162 -102c-105 0 -158 63 -158 182v146c0 57 -2 120 -5 165c56 0 114 3 161 7c-4 -26 -5 -76 -5 -111v-170c0 -68 18 -100 74 -100c42 0 93 41 93 93v116c0 57 -2 120 -6 165c56 0 116 3 163 7c-4 -26 -6 -76 -6 -111v-205 c0 -58 2 -121 7 -166zM361 713l100 4c2 -108 -64 -175 -169 -175c-99 0 -168 68 -168 168l102 9c0 -58 27 -86 69 -86c47 0 66 37 66 80z" unicode="ŭ" horiz-adv-x="587" glyph-name="ubreve"/>
<glyph d="M544 530c-3 -22 -4 -82 -4 -111v-187c0 -85 -23 -140 -65 -181c-44 -43 -104 -66 -181 -66c-139 0 -232 72 -232 209v152c0 48 -2 144 -6 180c30 0 132 1 157 4c-2 -22 -3 -82 -3 -111v-201c0 -79 34 -111 94 -111c58 0 88 34 88 101v138c0 48 -2 144 -6 180 c30 0 133 1 158 4zM367 759l100 4c2 -108 -64 -175 -169 -175c-99 0 -168 68 -168 168l102 9c0 -58 27 -86 69 -86c47 0 66 37 66 80z" horiz-adv-x="601" glyph-name="ubreve.sc"/>
<glyph d="M318 929h138l111 -162l-94 -6l-87 82l-80 -75h-102zM699 708c-4 -29 -5 -109 -5 -148v-256c0 -115 -29 -184 -84 -237c-56 -55 -133 -85 -235 -85c-175 0 -297 97 -297 271v209c0 64 -2 193 -7 241c40 0 139 1 172 5c-3 -29 -4 -109 -4 -148v-274 c0 -123 57 -171 152 -171c93 0 143 56 143 154v193c0 64 -2 193 -8 241c40 0 139 1 173 5z" unicode="Û" horiz-adv-x="772" glyph-name="Ucircumflex"/>
<glyph d="M226 709h138l111 -162l-94 -6l-87 82l-80 -75h-102zM534 0h-140l-16 84c-35 -62 -99 -102 -162 -102c-105 0 -158 63 -158 182v146c0 57 -2 120 -5 165c56 0 114 3 161 7c-4 -26 -5 -76 -5 -111v-170c0 -68 18 -100 74 -100c42 0 93 41 93 93v116c0 57 -2 120 -6 165 c56 0 116 3 163 7c-4 -26 -6 -76 -6 -111v-205c0 -58 2 -121 7 -166z" unicode="û" horiz-adv-x="587" glyph-name="ucircumflex"/>
<glyph d="M232 755h138l111 -162l-94 -6l-87 82l-80 -75h-102zM544 530c-3 -22 -4 -82 -4 -111v-187c0 -85 -23 -140 -65 -181c-44 -43 -104 -66 -181 -66c-139 0 -232 72 -232 209v152c0 48 -2 144 -6 180c30 0 132 1 157 4c-2 -22 -3 -82 -3 -111v-201c0 -79 34 -111 94 -111 c58 0 88 34 88 101v138c0 48 -2 144 -6 180c30 0 133 1 158 4z" horiz-adv-x="601" glyph-name="ucircumflex.sc"/>
<glyph d="M358 855c0 -47 -33 -79 -78 -79c-43 0 -75 31 -75 73c0 47 34 80 78 80c43 0 75 -32 75 -74zM566 855c0 -47 -34 -79 -78 -79c-43 0 -75 31 -75 73c0 47 34 80 78 80c42 0 75 -32 75 -74zM699 708c-4 -29 -5 -109 -5 -148v-256c0 -115 -29 -184 -84 -237 c-56 -55 -133 -85 -235 -85c-175 0 -297 97 -297 271v209c0 64 -2 193 -7 241c40 0 139 1 172 5c-3 -29 -4 -109 -4 -148v-274c0 -123 57 -171 152 -171c93 0 143 56 143 154v193c0 64 -2 193 -8 241c40 0 139 1 173 5z" unicode="Ü" horiz-adv-x="772" glyph-name="Udieresis"/>
<glyph d="M266 635c0 -47 -33 -79 -78 -79c-43 0 -75 31 -75 73c0 47 34 80 78 80c43 0 75 -32 75 -74zM474 635c0 -47 -34 -79 -78 -79c-43 0 -75 31 -75 73c0 47 34 80 78 80c42 0 75 -32 75 -74zM534 0h-140l-16 84c-35 -62 -99 -102 -162 -102c-105 0 -158 63 -158 182v146 c0 57 -2 120 -5 165c56 0 114 3 161 7c-4 -26 -5 -76 -5 -111v-170c0 -68 18 -100 74 -100c42 0 93 41 93 93v116c0 57 -2 120 -6 165c56 0 116 3 163 7c-4 -26 -6 -76 -6 -111v-205c0 -58 2 -121 7 -166z" unicode="ü" horiz-adv-x="587" glyph-name="udieresis"/>
<glyph d="M272 681c0 -47 -33 -79 -78 -79c-43 0 -75 31 -75 73c0 47 34 80 78 80c43 0 75 -32 75 -74zM480 681c0 -47 -34 -79 -78 -79c-43 0 -75 31 -75 73c0 47 34 80 78 80c42 0 75 -32 75 -74zM544 530c-3 -22 -4 -82 -4 -111v-187c0 -85 -23 -140 -65 -181 c-44 -43 -104 -66 -181 -66c-139 0 -232 72 -232 209v152c0 48 -2 144 -6 180c30 0 132 1 157 4c-2 -22 -3 -82 -3 -111v-201c0 -79 34 -111 94 -111c58 0 88 34 88 101v138c0 48 -2 144 -6 180c30 0 133 1 158 4z" horiz-adv-x="601" glyph-name="udieresis.sc"/>
<glyph d="M699 708c-4 -29 -5 -109 -5 -148v-256c0 -115 -29 -184 -84 -237c-56 -55 -133 -85 -235 -85c-175 0 -297 97 -297 271v209c0 64 -2 193 -7 241c40 0 139 1 172 5c-3 -29 -4 -109 -4 -148v-274c0 -123 57 -171 152 -171c93 0 143 56 143 154v193c0 64 -2 193 -8 241 c40 0 139 1 173 5zM190 921l177 9l83 -160l-106 -5z" unicode="Ù" horiz-adv-x="772" glyph-name="Ugrave"/>
<glyph d="M534 0h-140l-16 84c-35 -62 -99 -102 -162 -102c-105 0 -158 63 -158 182v146c0 57 -2 120 -5 165c56 0 114 3 161 7c-4 -26 -5 -76 -5 -111v-170c0 -68 18 -100 74 -100c42 0 93 41 93 93v116c0 57 -2 120 -6 165c56 0 116 3 163 7c-4 -26 -6 -76 -6 -111v-205 c0 -58 2 -121 7 -166zM98 701l177 9l83 -160l-106 -5z" unicode="ù" horiz-adv-x="587" glyph-name="ugrave"/>
<glyph d="M104 747l177 9l83 -160l-106 -5zM544 530c-3 -22 -4 -82 -4 -111v-187c0 -85 -23 -140 -65 -181c-44 -43 -104 -66 -181 -66c-139 0 -232 72 -232 209v152c0 48 -2 144 -6 180c30 0 132 1 157 4c-2 -22 -3 -82 -3 -111v-201c0 -79 34 -111 94 -111c58 0 88 34 88 101v138 c0 48 -2 144 -6 180c30 0 133 1 158 4z" horiz-adv-x="601" glyph-name="ugrave.sc"/>
<glyph d="M699 708c-4 -29 -5 -109 -5 -148v-256c0 -115 -29 -184 -84 -237c-56 -55 -133 -85 -235 -85c-175 0 -297 97 -297 271v209c0 64 -2 193 -7 241c40 0 139 1 172 5c-3 -29 -4 -109 -4 -148v-274c0 -123 57 -171 152 -171c93 0 143 56 143 154v193c0 64 -2 193 -8 241 c40 0 139 1 173 5zM285 925l157 7l-95 -163l-100 -3zM480 928l159 7l-111 -164l-100 -2z" unicode="Ű" horiz-adv-x="772" glyph-name="Uhungarumlaut"/>
<glyph d="M534 0h-140l-16 84c-35 -62 -99 -102 -162 -102c-105 0 -158 63 -158 182v146c0 57 -2 120 -5 165c56 0 114 3 161 7c-4 -26 -5 -76 -5 -111v-170c0 -68 18 -100 74 -100c42 0 93 41 93 93v116c0 57 -2 120 -6 165c56 0 116 3 163 7c-4 -26 -6 -76 -6 -111v-205 c0 -58 2 -121 7 -166zM194 705l157 7l-95 -163l-100 -3zM389 708l159 7l-111 -164l-100 -2z" unicode="ű" horiz-adv-x="587" glyph-name="uhungarumlaut"/>
<glyph d="M200 751l157 7l-95 -163l-100 -3zM395 754l159 7l-111 -164l-100 -2zM544 530c-3 -22 -4 -82 -4 -111v-187c0 -85 -23 -140 -65 -181c-44 -43 -104 -66 -181 -66c-139 0 -232 72 -232 209v152c0 48 -2 144 -6 180c30 0 132 1 157 4c-2 -22 -3 -82 -3 -111v-201 c0 -79 34 -111 94 -111c58 0 88 34 88 101v138c0 48 -2 144 -6 180c30 0 133 1 158 4z" horiz-adv-x="601" glyph-name="uhungarumlaut.sc"/>
<glyph d="M699 708c-4 -29 -5 -109 -5 -148v-256c0 -115 -29 -184 -84 -237c-56 -55 -133 -85 -235 -85c-175 0 -297 97 -297 271v209c0 64 -2 193 -7 241c40 0 139 1 172 5c-3 -29 -4 -109 -4 -148v-274c0 -123 57 -171 152 -171c93 0 143 56 143 154v193c0 64 -2 193 -8 241 c40 0 139 1 173 5zM560 901c-3 -29 -5 -69 -5 -102c-44 1 -80 2 -119 2h-106c-48 0 -82 -1 -119 -2c2 25 3 71 3 102c57 -2 98 -3 175 -3c53 0 115 1 171 3z" unicode="Ū" horiz-adv-x="772" glyph-name="Umacron"/>
<glyph d="M534 0h-140l-16 84c-35 -62 -99 -102 -162 -102c-105 0 -158 63 -158 182v146c0 57 -2 120 -5 165c56 0 114 3 161 7c-4 -26 -5 -76 -5 -111v-170c0 -68 18 -100 74 -100c42 0 93 41 93 93v116c0 57 -2 120 -6 165c56 0 116 3 163 7c-4 -26 -6 -76 -6 -111v-205 c0 -58 2 -121 7 -166zM469 681c-3 -29 -5 -69 -5 -102c-44 1 -80 2 -119 2h-106c-48 0 -82 -1 -119 -2c2 25 3 71 3 102c57 -2 98 -3 175 -3c53 0 115 1 171 3z" unicode="ū" horiz-adv-x="587" glyph-name="umacron"/>
<glyph d="M474 727c-3 -29 -5 -69 -5 -102c-44 1 -80 2 -119 2h-106c-48 0 -82 -1 -119 -2c2 25 3 71 3 102c57 -2 98 -3 175 -3c53 0 115 1 171 3zM544 530c-3 -22 -4 -82 -4 -111v-187c0 -85 -23 -140 -65 -181c-44 -43 -104 -66 -181 -66c-139 0 -232 72 -232 209v152 c0 48 -2 144 -6 180c30 0 132 1 157 4c-2 -22 -3 -82 -3 -111v-201c0 -79 34 -111 94 -111c58 0 88 34 88 101v138c0 48 -2 144 -6 180c30 0 133 1 158 4z" horiz-adv-x="601" glyph-name="umacron.sc"/>
<glyph d="M399 -223c-70 0 -117 37 -117 94c0 40 26 77 81 111c-169 5 -285 101 -285 271v209c0 64 -2 193 -7 241c40 0 140 1 173 5c-3 -29 -4 -109 -4 -148v-273c0 -123 56 -170 151 -170c93 0 142 55 142 152v193c0 64 -2 193 -8 241c40 0 141 1 175 5c-4 -29 -5 -109 -5 -148 v-255c0 -115 -30 -184 -85 -238c-28 -26 -66 -51 -108 -66c-80 -31 -110 -67 -110 -102c0 -24 17 -39 46 -39c20 0 38 6 58 18l-4 -79c-26 -14 -61 -22 -93 -22z" unicode="Ų" horiz-adv-x="772" glyph-name="Uogonek"/>
<glyph d="M534 0c-78 -36 -111 -69 -111 -101c0 -23 17 -39 45 -39c20 0 39 6 59 18l-4 -79c-27 -14 -62 -22 -93 -22c-71 0 -118 37 -117 94c0 47 34 89 105 129h-24l-16 84c-35 -62 -99 -102 -162 -102c-105 0 -158 63 -158 182v146c0 57 -2 120 -5 165c56 0 114 3 161 7 c-4 -26 -5 -76 -5 -111v-170c0 -68 18 -100 74 -100c42 0 93 41 93 93v116c0 57 -2 120 -6 165c56 0 116 3 163 7c-4 -26 -6 -76 -6 -111v-205c0 -58 2 -121 7 -166z" unicode="ų" horiz-adv-x="587" glyph-name="uogonek"/>
<glyph d="M197 -129c0 41 26 78 82 114c-131 5 -217 77 -217 209v152c0 48 -2 144 -6 180c30 0 132 1 157 4c-2 -22 -3 -82 -3 -111v-201c0 -79 34 -111 94 -111c58 0 88 34 88 101v138c0 48 -2 144 -6 180c30 0 133 1 158 4c-3 -22 -4 -82 -4 -111v-187c0 -86 -23 -139 -65 -180 c-25 -25 -52 -40 -91 -59c-41 -21 -78 -55 -78 -92c0 -25 17 -41 46 -41c20 0 39 6 59 18l-4 -79c-27 -14 -62 -22 -93 -22c-71 0 -118 37 -117 94z" horiz-adv-x="601" glyph-name="uogonek.sc"/>
<glyph d="M524 894c0 -73 -56 -133 -142 -133c-82 0 -135 56 -135 120c0 74 57 132 142 132c83 0 135 -55 135 -119zM441 889c0 30 -19 53 -55 53c-35 0 -55 -25 -55 -55c0 -31 21 -55 54 -55c35 0 56 26 56 57zM699 708c-4 -29 -5 -109 -5 -148v-256c0 -115 -29 -184 -84 -237 c-56 -55 -133 -85 -235 -85c-175 0 -297 97 -297 271v209c0 64 -2 193 -7 241c40 0 139 1 172 5c-3 -29 -4 -109 -4 -148v-274c0 -123 57 -171 152 -171c93 0 143 56 143 154v193c0 64 -2 193 -8 241c40 0 139 1 173 5z" unicode="Ů" horiz-adv-x="772" glyph-name="Uring"/>
<glyph d="M432 674c0 -73 -56 -133 -142 -133c-82 0 -135 56 -135 120c0 74 57 132 142 132c83 0 135 -55 135 -119zM349 669c0 30 -19 53 -55 53c-35 0 -55 -25 -55 -55c0 -31 21 -55 54 -55c35 0 56 26 56 57zM534 0h-140l-16 84c-35 -62 -99 -102 -162 -102 c-105 0 -158 63 -158 182v146c0 57 -2 120 -5 165c56 0 114 3 161 7c-4 -26 -5 -76 -5 -111v-170c0 -68 18 -100 74 -100c42 0 93 41 93 93v116c0 57 -2 120 -6 165c56 0 116 3 163 7c-4 -26 -6 -76 -6 -111v-205c0 -58 2 -121 7 -166z" unicode="ů" horiz-adv-x="587" glyph-name="uring"/>
<glyph d="M438 720c0 -73 -56 -133 -142 -133c-82 0 -135 56 -135 120c0 74 57 132 142 132c83 0 135 -55 135 -119zM355 715c0 30 -19 53 -55 53c-35 0 -55 -25 -55 -55c0 -31 21 -55 54 -55c35 0 56 26 56 57zM544 530c-3 -22 -4 -82 -4 -111v-187c0 -85 -23 -140 -65 -181 c-44 -43 -104 -66 -181 -66c-139 0 -232 72 -232 209v152c0 48 -2 144 -6 180c30 0 132 1 157 4c-2 -22 -3 -82 -3 -111v-201c0 -79 34 -111 94 -111c58 0 88 34 88 101v138c0 48 -2 144 -6 180c30 0 133 1 158 4z" horiz-adv-x="601" glyph-name="uring.sc"/>
<glyph d="M1028 702l-181 -512c-31 -85 -49 -138 -67 -196l-103 -9l-161 461l-95 -278c-19 -57 -41 -114 -63 -180h-104l-178 509c-21 62 -49 143 -73 203l172 8l142 -472l99 305c13 40 43 126 55 165l98 9l159 -476l86 299l47 164h167zM536 921l188 9l-165 -160l-108 -5z" unicode="Ẃ" horiz-adv-x="1031" glyph-name="Wacute"/>
<glyph d="M178 -7c-13 47 -34 106 -56 166l-48 129c-22 59 -52 141 -72 185c16 0 134 9 151 10l90 -283l39 110l57 168l101 5l98 -282l36 110c6 20 44 140 51 167c56 0 98 0 144 3l-181 -483l-105 -6c-15 51 -37 114 -62 181l-36 100l-101 -275zM404 701l188 9l-165 -160l-108 -5z " unicode="ẃ" horiz-adv-x="772" glyph-name="wacute"/>
<glyph d="M791 526l-131 -381c-21 -64 -34 -103 -47 -147l-104 -8l-106 317l-59 -180c-13 -43 -28 -85 -43 -133l-106 -1l-128 378c-16 47 -36 107 -54 152l155 6l93 -331l61 208c5 14 31 106 37 120l94 7l106 -332l51 204c9 24 25 96 32 121h149zM419 747l188 9l-165 -160l-108 -5 z" horiz-adv-x="804" glyph-name="wacute.sc"/>
<glyph d="M1028 702l-181 -512c-31 -85 -49 -138 -67 -196l-103 -9l-161 461l-95 -278c-19 -57 -41 -114 -63 -180h-104l-178 509c-21 62 -49 143 -73 203l172 8l142 -472l99 305c13 40 43 126 55 165l98 9l159 -476l86 299l47 164h167zM455 929h138l111 -162l-94 -6l-87 82 l-80 -75h-102z" unicode="Ŵ" horiz-adv-x="1031" glyph-name="Wcircumflex"/>
<glyph d="M178 -7c-13 47 -34 106 -56 166l-48 129c-22 59 -52 141 -72 185c16 0 134 9 151 10l90 -283l39 110l57 168l101 5l98 -282l36 110c6 20 44 140 51 167c56 0 98 0 144 3l-181 -483l-105 -6c-15 51 -37 114 -62 181l-36 100l-101 -275zM322 709h138l111 -162l-94 -6 l-87 82l-80 -75h-102z" unicode="ŵ" horiz-adv-x="772" glyph-name="wcircumflex"/>
<glyph d="M791 526l-131 -381c-21 -64 -34 -103 -47 -147l-104 -8l-106 317l-59 -180c-13 -43 -28 -85 -43 -133l-106 -1l-128 378c-16 47 -36 107 -54 152l155 6l93 -331l61 208c5 14 31 106 37 120l94 7l106 -332l51 204c9 24 25 96 32 121h149zM337 755h138l111 -162l-94 -6 l-87 82l-80 -75h-102z" horiz-adv-x="804" glyph-name="wcircumflex.sc"/>
<glyph d="M1028 702l-181 -512c-31 -85 -49 -138 -67 -196l-103 -9l-161 461l-95 -278c-19 -57 -41 -114 -63 -180h-104l-178 509c-21 62 -49 143 -73 203l172 8l142 -472l99 305c13 40 43 126 55 165l98 9l159 -476l86 299l47 164h167zM495 855c0 -47 -33 -79 -78 -79 c-43 0 -75 31 -75 73c0 47 34 80 78 80c43 0 75 -32 75 -74zM703 855c0 -47 -34 -79 -78 -79c-43 0 -75 31 -75 73c0 47 34 80 78 80c42 0 75 -32 75 -74z" unicode="Ẅ" horiz-adv-x="1031" glyph-name="Wdieresis"/>
<glyph d="M178 -7c-13 47 -34 106 -56 166l-48 129c-22 59 -52 141 -72 185c16 0 134 9 151 10l90 -283l39 110l57 168l101 5l98 -282l36 110c6 20 44 140 51 167c56 0 98 0 144 3l-181 -483l-105 -6c-15 51 -37 114 -62 181l-36 100l-101 -275zM362 635c0 -47 -33 -79 -78 -79 c-43 0 -75 31 -75 73c0 47 34 80 78 80c43 0 75 -32 75 -74zM570 635c0 -47 -34 -79 -78 -79c-43 0 -75 31 -75 73c0 47 34 80 78 80c42 0 75 -32 75 -74z" unicode="ẅ" horiz-adv-x="772" glyph-name="wdieresis"/>
<glyph d="M791 526l-131 -381c-21 -64 -34 -103 -47 -147l-104 -8l-106 317l-59 -180c-13 -43 -28 -85 -43 -133l-106 -1l-128 378c-16 47 -36 107 -54 152l155 6l93 -331l61 208c5 14 31 106 37 120l94 7l106 -332l51 204c9 24 25 96 32 121h149zM377 681c0 -47 -33 -79 -78 -79 c-43 0 -75 31 -75 73c0 47 34 80 78 80c43 0 75 -32 75 -74zM585 681c0 -47 -34 -79 -78 -79c-43 0 -75 31 -75 73c0 47 34 80 78 80c42 0 75 -32 75 -74z" horiz-adv-x="804" glyph-name="wdieresis.sc"/>
<glyph d="M1028 702l-181 -512c-31 -85 -49 -138 -67 -196l-103 -9l-161 461l-95 -278c-19 -57 -41 -114 -63 -180h-104l-178 509c-21 62 -49 143 -73 203l172 8l142 -472l99 305c13 40 43 126 55 165l98 9l159 -476l86 299l47 164h167zM327 921l177 9l83 -160l-106 -5z" unicode="Ẁ" horiz-adv-x="1031" glyph-name="Wgrave"/>
<glyph d="M178 -7c-13 47 -34 106 -56 166l-48 129c-22 59 -52 141 -72 185c16 0 134 9 151 10l90 -283l39 110l57 168l101 5l98 -282l36 110c6 20 44 140 51 167c56 0 98 0 144 3l-181 -483l-105 -6c-15 51 -37 114 -62 181l-36 100l-101 -275zM194 701l177 9l83 -160l-106 -5z " unicode="ẁ" horiz-adv-x="772" glyph-name="wgrave"/>
<glyph d="M791 526l-131 -381c-21 -64 -34 -103 -47 -147l-104 -8l-106 317l-59 -180c-13 -43 -28 -85 -43 -133l-106 -1l-128 378c-16 47 -36 107 -54 152l155 6l93 -331l61 208c5 14 31 106 37 120l94 7l106 -332l51 204c9 24 25 96 32 121h149zM209 747l177 9l83 -160l-106 -5z " horiz-adv-x="804" glyph-name="wgrave.sc"/>
<glyph d="M-3 702l175 8l167 -283l48 80c36 58 85 144 117 197h175l-264 -408v-152c0 -38 1 -116 4 -144h-172c5 48 7 176 7 241v52l-104 167c-42 68 -114 182 -153 242zM352 921l188 9l-165 -160l-108 -5z" unicode="Ý" horiz-adv-x="672" glyph-name="Yacute"/>
<glyph d="M79 -216l111 258c-16 41 -27 70 -47 117l-57 129c-26 59 -61 141 -84 184c16 0 144 10 157 12l106 -293l43 125c20 56 41 118 56 162c55 0 106 0 151 4l-208 -506c-14 -37 -54 -135 -70 -185c-53 0 -113 -2 -158 -7zM279 701l188 9l-165 -160l-108 -5z" unicode="ý" horiz-adv-x="515" glyph-name="yacute"/>
<glyph d="M6 524l157 6l112 -198l32 58c17 28 60 107 78 136h155l-198 -311v-107c0 -29 1 -88 4 -108h-154c4 36 5 132 5 181v33l-76 126c-21 34 -93 151 -115 184zM287 747l188 9l-165 -160l-108 -5z" horiz-adv-x="544" glyph-name="yacute.sc"/>
<glyph d="M-3 702l175 8l167 -283l48 80c36 58 85 144 117 197h175l-264 -408v-152c0 -38 1 -116 4 -144h-172c5 48 7 176 7 241v52l-104 167c-42 68 -114 182 -153 242zM270 929h138l111 -162l-94 -6l-87 82l-80 -75h-102z" unicode="Ŷ" horiz-adv-x="672" glyph-name="Ycircumflex"/>
<glyph d="M79 -216l111 258c-16 41 -27 70 -47 117l-57 129c-26 59 -61 141 -84 184c16 0 144 10 157 12l106 -293l43 125c20 56 41 118 56 162c55 0 106 0 151 4l-208 -506c-14 -37 -54 -135 -70 -185c-53 0 -113 -2 -158 -7zM197 709h138l111 -162l-94 -6l-87 82l-80 -75h-102z " unicode="ŷ" horiz-adv-x="515" glyph-name="ycircumflex"/>
<glyph d="M6 524l157 6l112 -198l32 58c17 28 60 107 78 136h155l-198 -311v-107c0 -29 1 -88 4 -108h-154c4 36 5 132 5 181v33l-76 126c-21 34 -93 151 -115 184zM206 755h138l111 -162l-94 -6l-87 82l-80 -75h-102z" horiz-adv-x="544" glyph-name="ycircumflex.sc"/>
<glyph d="M-3 702l175 8l167 -283l48 80c36 58 85 144 117 197h175l-264 -408v-152c0 -38 1 -116 4 -144h-172c5 48 7 176 7 241v52l-104 167c-42 68 -114 182 -153 242zM310 855c0 -47 -33 -79 -78 -79c-43 0 -75 31 -75 73c0 47 34 80 78 80c43 0 75 -32 75 -74zM518 855 c0 -47 -34 -79 -78 -79c-43 0 -75 31 -75 73c0 47 34 80 78 80c42 0 75 -32 75 -74z" unicode="Ÿ" horiz-adv-x="672" glyph-name="Ydieresis"/>
<glyph d="M79 -216l111 258c-16 41 -27 70 -47 117l-57 129c-26 59 -61 141 -84 184c16 0 144 10 157 12l106 -293l43 125c20 56 41 118 56 162c55 0 106 0 151 4l-208 -506c-14 -37 -54 -135 -70 -185c-53 0 -113 -2 -158 -7zM237 635c0 -47 -33 -79 -78 -79c-43 0 -75 31 -75 73 c0 47 34 80 78 80c43 0 75 -32 75 -74zM445 635c0 -47 -34 -79 -78 -79c-43 0 -75 31 -75 73c0 47 34 80 78 80c42 0 75 -32 75 -74z" unicode="ÿ" horiz-adv-x="515" glyph-name="ydieresis"/>
<glyph d="M6 524l157 6l112 -198l32 58c17 28 60 107 78 136h155l-198 -311v-107c0 -29 1 -88 4 -108h-154c4 36 5 132 5 181v33l-76 126c-21 34 -93 151 -115 184zM245 681c0 -47 -33 -79 -78 -79c-43 0 -75 31 -75 73c0 47 34 80 78 80c43 0 75 -32 75 -74zM453 681 c0 -47 -34 -79 -78 -79c-43 0 -75 31 -75 73c0 47 34 80 78 80c42 0 75 -32 75 -74z" horiz-adv-x="544" glyph-name="ydieresis.sc"/>
<glyph d="M-3 702l175 8l167 -283l48 80c36 58 85 144 117 197h175l-264 -408v-152c0 -38 1 -116 4 -144h-172c5 48 7 176 7 241v52l-104 167c-42 68 -114 182 -153 242zM142 921l177 9l83 -160l-106 -5z" unicode="Ỳ" horiz-adv-x="672" glyph-name="Ygrave"/>
<glyph d="M79 -216l111 258c-16 41 -27 70 -47 117l-57 129c-26 59 -61 141 -84 184c16 0 144 10 157 12l106 -293l43 125c20 56 41 118 56 162c55 0 106 0 151 4l-208 -506c-14 -37 -54 -135 -70 -185c-53 0 -113 -2 -158 -7zM69 701l177 9l83 -160l-106 -5z" unicode="ỳ" horiz-adv-x="515" glyph-name="ygrave"/>
<glyph d="M6 524l157 6l112 -198l32 58c17 28 60 107 78 136h155l-198 -311v-107c0 -29 1 -88 4 -108h-154c4 36 5 132 5 181v33l-76 126c-21 34 -93 151 -115 184zM77 747l177 9l83 -160l-106 -5z" horiz-adv-x="544" glyph-name="ygrave.sc"/>
<glyph d="M617 709l13 -71l-378 -512h120c86 0 185 1 242 3c-4 -40 -7 -85 -8 -133c-60 4 -175 5 -272 5c-115 0 -220 -1 -294 -5l-12 74l376 509h-110c-89 0 -168 -1 -237 -2c5 37 10 89 12 132c99 -3 142 -5 274 -5c126 0 205 2 274 5zM366 921l188 9l-165 -160l-108 -5z" unicode="Ź" horiz-adv-x="657" glyph-name="Zacute"/>
<glyph d="M277 701l188 9l-165 -160l-108 -5zM462 482l11 -64l-245 -301c90 0 188 1 238 3c-5 -41 -7 -75 -8 -125c-55 4 -131 5 -208 5c-83 0 -152 -1 -214 -5l-12 65l244 301c-104 0 -164 -1 -222 -2c2 39 4 80 4 123c74 -2 103 -4 198 -4c91 0 150 2 214 4z" unicode="ź" horiz-adv-x="497" glyph-name="zacute"/>
<glyph d="M284 747l188 9l-165 -160l-108 -5zM481 530l13 -72l-265 -343c13 -1 72 -1 86 -1c58 0 127 1 166 3c-3 -36 -6 -77 -6 -120c-46 3 -134 4 -210 4c-87 0 -164 -1 -222 -4l-13 73l266 343c-13 1 -64 1 -79 1c-64 0 -115 -1 -164 -2c3 33 6 81 6 118c78 -2 110 -3 213 -3 c97 0 155 1 209 3z" horiz-adv-x="523" glyph-name="zacute.sc"/>
<glyph d="M617 709l13 -71l-378 -512h120c86 0 185 1 242 3c-4 -40 -7 -85 -8 -133c-60 4 -175 5 -272 5c-115 0 -220 -1 -294 -5l-12 74l376 509h-110c-89 0 -168 -1 -237 -2c5 37 10 89 12 132c99 -3 142 -5 274 -5c126 0 205 2 274 5zM419 768h-138l-111 161l95 6l86 -80l81 75 h101z" unicode="Ž" horiz-adv-x="657" glyph-name="Zcaron"/>
<glyph d="M330 548h-138l-111 161l95 6l86 -80l81 75h101zM462 482l11 -64l-245 -301c90 0 188 1 238 3c-5 -41 -7 -75 -8 -125c-55 4 -131 5 -208 5c-83 0 -152 -1 -214 -5l-12 65l244 301c-104 0 -164 -1 -222 -2c2 39 4 80 4 123c74 -2 103 -4 198 -4c91 0 150 2 214 4z" unicode="ž" horiz-adv-x="497" glyph-name="zcaron"/>
<glyph d="M338 594h-138l-111 161l95 6l86 -80l81 75h101zM481 530l13 -72l-265 -343c13 -1 72 -1 86 -1c58 0 127 1 166 3c-3 -36 -6 -77 -6 -120c-46 3 -134 4 -210 4c-87 0 -164 -1 -222 -4l-13 73l266 343c-13 1 -64 1 -79 1c-64 0 -115 -1 -164 -2c3 33 6 81 6 118 c78 -2 110 -3 213 -3c97 0 155 1 209 3z" horiz-adv-x="523" glyph-name="zcaron.sc"/>
<glyph d="M617 709l13 -71l-378 -512h120c86 0 185 1 242 3c-4 -40 -7 -85 -8 -133c-60 4 -175 5 -272 5c-115 0 -220 -1 -294 -5l-12 74l376 509h-110c-89 0 -168 -1 -237 -2c5 37 10 89 12 132c99 -3 142 -5 274 -5c126 0 205 2 274 5zM432 859c0 -46 -36 -79 -82 -79 c-45 0 -80 32 -80 74c0 46 36 79 83 79c44 0 79 -32 79 -74z" unicode="Ż" horiz-adv-x="657" glyph-name="Zdotaccent"/>
<glyph d="M462 482l11 -64l-245 -301c90 0 188 1 238 3c-5 -41 -7 -75 -8 -125c-55 4 -131 5 -208 5c-83 0 -152 -1 -214 -5l-12 65l244 301c-104 0 -164 -1 -222 -2c2 39 4 80 4 123c74 -2 103 -4 198 -4c91 0 150 2 214 4zM343 639c0 -46 -36 -79 -82 -79c-45 0 -80 32 -80 74 c0 46 36 79 83 79c44 0 79 -32 79 -74z" unicode="ż" horiz-adv-x="497" glyph-name="zdotaccent"/>
<glyph d="M481 530l13 -72l-265 -343c13 -1 72 -1 86 -1c58 0 127 1 166 3c-3 -36 -6 -77 -6 -120c-46 3 -134 4 -210 4c-87 0 -164 -1 -222 -4l-13 73l266 343c-13 1 -64 1 -79 1c-64 0 -115 -1 -164 -2c3 33 6 81 6 118c78 -2 110 -3 213 -3c97 0 155 1 209 3zM351 685 c0 -46 -36 -79 -82 -79c-45 0 -80 32 -80 74c0 46 36 79 83 79c44 0 79 -32 79 -74z" horiz-adv-x="523" glyph-name="zdotaccent.sc"/>
<glyph d="M-22 0l310 517c51 83 83 135 112 192c73 -3 165 -5 254 -5c82 0 160 2 228 5c-5 -42 -8 -82 -8 -132c-54 1 -110 2 -174 2c-30 0 -62 0 -91 -1c-2 -15 -2 -38 -2 -50v-106l228 1c-2 -35 -3 -75 -3 -119l-225 2v-128c0 -13 0 -36 2 -51c29 0 61 -1 91 -1c74 0 139 1 202 3 c-5 -42 -7 -83 -7 -133c-64 4 -143 5 -218 5c-81 0 -168 -1 -237 -5c3 31 5 97 6 157h-210l-83 -153h-175zM447 438c0 20 0 55 -1 89l-153 -268h154v179z" unicode="Æ" horiz-adv-x="932" glyph-name="AE"/>
<glyph d="M774 256l-47 -39l-276 -8c6 -73 46 -112 126 -112c75 0 130 26 178 57l-3 -115c-59 -35 -121 -56 -197 -56c-93 0 -151 34 -185 88c-39 -53 -99 -85 -181 -85c-95 0 -164 53 -164 139c0 91 78 155 240 155c13 0 29 -1 45 -1l1 13c2 53 -22 81 -83 81 c-53 0 -110 -21 -146 -44l-21 111c52 30 116 51 186 51c76 0 125 -24 150 -72c40 46 97 73 165 73c148 0 212 -105 212 -236zM224 80c49 0 81 40 84 99l1 32c-13 0 -26 1 -39 1c-76 0 -106 -30 -106 -71c0 -35 22 -61 60 -61zM453 284l187 5c-6 63 -32 98 -87 98 c-53 0 -93 -46 -100 -103z" unicode="æ" horiz-adv-x="801" glyph-name="ae"/>
<glyph d="M135 0h-150l238 398c39 65 54 89 77 132c61 -2 119 -3 194 -3c72 0 140 1 199 3c-3 -37 -6 -73 -6 -119c-39 1 -82 2 -129 2c-22 0 -47 0 -69 -1c-1 -10 -1 -26 -1 -33v-61l170 1c-2 -31 -2 -60 -2 -99l-168 1v-71c0 -9 0 -24 1 -35c22 0 47 -1 69 -1c55 0 104 1 150 3 c-4 -38 -5 -74 -5 -120c-52 3 -118 4 -178 4c-65 0 -134 -1 -190 -4c2 20 4 60 4 100h-150c-18 -31 -44 -79 -54 -97zM340 187v160v23l-103 -183h103z" horiz-adv-x="740" glyph-name="ae.sc"/>
<glyph d="M-22 0l310 517c51 83 83 135 112 192c73 -3 165 -5 254 -5c82 0 160 2 228 5c-5 -42 -8 -82 -8 -132c-54 1 -110 2 -174 2c-30 0 -62 0 -91 -1c-2 -15 -2 -38 -2 -50v-106l228 1c-2 -35 -3 -75 -3 -119l-225 2v-128c0 -13 0 -36 2 -51c29 0 61 -1 91 -1c74 0 139 1 202 3 c-5 -42 -7 -83 -7 -133c-64 4 -143 5 -218 5c-81 0 -168 -1 -237 -5c3 31 5 97 6 157h-210l-83 -153h-175zM527 921l188 9l-165 -160l-108 -5zM447 438c0 20 0 55 -1 89l-153 -268h154v179z" unicode="Ǽ" horiz-adv-x="932" glyph-name="AEacute"/>
<glyph d="M774 256l-47 -39l-276 -8c6 -73 46 -112 126 -112c75 0 130 26 178 57l-3 -115c-59 -35 -121 -56 -197 -56c-93 0 -151 34 -185 88c-39 -53 -99 -85 -181 -85c-95 0 -164 53 -164 139c0 91 78 155 240 155c13 0 29 -1 45 -1l1 13c2 53 -22 81 -83 81 c-53 0 -110 -21 -146 -44l-21 111c52 30 116 51 186 51c76 0 125 -24 150 -72c40 46 97 73 165 73c148 0 212 -105 212 -236zM413 701l188 9l-165 -160l-108 -5zM224 80c49 0 81 40 84 99l1 32c-13 0 -26 1 -39 1c-76 0 -106 -30 -106 -71c0 -35 22 -61 60 -61zM453 284 l187 5c-6 63 -32 98 -87 98c-53 0 -93 -46 -100 -103z" unicode="ǽ" horiz-adv-x="801" glyph-name="aeacute"/>
<glyph d="M135 0h-150l238 398c39 65 54 89 77 132c61 -2 119 -3 194 -3c72 0 140 1 199 3c-3 -37 -6 -73 -6 -119c-39 1 -82 2 -129 2c-22 0 -47 0 -69 -1c-1 -10 -1 -26 -1 -33v-61l170 1c-2 -31 -2 -60 -2 -99l-168 1v-71c0 -9 0 -24 1 -35c22 0 47 -1 69 -1c55 0 104 1 150 3 c-4 -38 -5 -74 -5 -120c-52 3 -118 4 -178 4c-65 0 -134 -1 -190 -4c2 20 4 60 4 100h-150c-18 -31 -44 -79 -54 -97zM458 747l188 9l-165 -160l-108 -5zM340 187v160v23l-103 -183h103z" horiz-adv-x="740" glyph-name="aeacute.sc"/>
<glyph d="M424 -1c-226 0 -383 137 -383 344c0 223 162 364 380 364c62 0 201 -3 275 -3c78 0 151 2 216 5c-4 -42 -7 -82 -8 -132c-54 1 -109 2 -174 2c-30 0 -62 0 -91 -1c-2 -15 -2 -38 -2 -50v-106l228 1c-2 -35 -3 -75 -3 -119l-225 2v-128c0 -13 0 -36 2 -51 c29 0 61 -1 91 -1c75 0 139 1 202 3c-4 -42 -6 -83 -7 -133c-64 4 -143 5 -218 5c-72 0 -223 -2 -283 -2zM415 127c25 0 43 0 61 2c1 33 2 76 2 98v253c0 25 0 62 -2 96c-19 2 -30 3 -53 3c-141 0 -223 -93 -223 -220c0 -146 90 -232 215 -232z" unicode="Œ" horiz-adv-x="962" glyph-name="OE"/>
<glyph d="M851 256l-46 -39l-279 -8c6 -73 48 -112 127 -112c76 0 131 26 180 57l-3 -115c-57 -35 -119 -56 -194 -56c-85 0 -147 29 -187 75c-42 -48 -102 -76 -178 -76c-147 0 -240 109 -240 243c0 153 100 267 253 267c75 0 134 -30 173 -77c43 48 105 77 180 77 c149 0 214 -105 214 -236zM379 234c0 104 -43 146 -99 146c-63 0 -103 -53 -103 -139c0 -103 40 -147 99 -147c65 0 103 52 103 140zM528 284l190 5c-6 63 -32 98 -87 98c-58 0 -96 -44 -103 -103z" unicode="œ" horiz-adv-x="879" glyph-name="oe"/>
<glyph d="M182 262c0 -93 53 -151 143 -151c15 0 24 1 39 2c1 10 1 28 1 36v235c0 9 0 21 -1 32c-16 1 -24 2 -40 2c-100 0 -142 -69 -142 -156zM320 530c54 0 147 -3 214 -3s129 1 184 3c-4 -37 -6 -73 -6 -119c-40 1 -82 2 -129 2c-22 0 -47 0 -69 -1c-1 -10 -1 -26 -1 -33v-61 l170 1c-2 -31 -2 -60 -2 -99l-168 1v-71c0 -9 0 -24 1 -35c22 0 47 -1 69 -1c55 0 104 1 150 3c-4 -38 -5 -74 -6 -120c-51 3 -117 4 -178 4s-157 -1 -210 -1c-196 0 -304 98 -304 255c0 168 111 275 285 275z" horiz-adv-x="765" glyph-name="oe.sc"/>
<glyph d="M700 369c0 -223 -149 -369 -377 -369h-242c5 48 7 176 7 241v62c-28 -1 -52 -2 -76 -2c2 26 3 74 3 108c25 -1 48 -2 73 -2v55c0 64 -2 192 -7 240c36 0 115 6 219 6c259 0 400 -137 400 -339zM541 359c0 138 -83 224 -227 224c-25 0 -45 -1 -65 -3c-1 -15 -1 -39 -1 -52 v-122c43 0 89 1 129 3c-3 -32 -5 -74 -5 -108c-45 1 -85 2 -124 2v-126c0 -14 0 -31 1 -47c22 -3 38 -5 67 -5c160 0 225 104 225 234z" unicode="Ð" horiz-adv-x="740" glyph-name="Eth"/>
<glyph d="M273 -18c-147 0 -242 107 -242 239c0 147 100 253 240 253c35 0 67 -8 94 -22c-19 37 -43 72 -71 102c-34 -18 -78 -40 -119 -61c-18 20 -50 49 -71 65c42 20 79 37 122 58c-36 28 -76 51 -115 67l126 51c35 -16 69 -37 101 -62c36 19 62 34 106 59c18 -21 48 -52 67 -70 c-34 -15 -68 -32 -106 -50c75 -83 126 -194 126 -329c1 -186 -99 -300 -258 -300zM385 234c0 94 -47 137 -102 137c-64 0 -106 -54 -106 -136c0 -90 44 -141 102 -141c63 0 106 53 106 140z" unicode="ð" horiz-adv-x="561" glyph-name="eth"/>
<glyph d="M545 275c0 -168 -111 -275 -285 -275h-198c4 36 5 132 5 181v41c-23 -1 -43 -2 -62 -2c2 22 3 64 3 91c20 -1 39 -2 59 -2v37c0 48 -1 143 -5 179c27 0 96 5 179 5c196 0 304 -98 304 -255zM398 268c0 93 -53 150 -143 150c-15 0 -24 0 -39 -1c-1 -10 -1 -28 -1 -36v-73 l84 3c-3 -25 -5 -63 -5 -91c-28 0 -54 1 -79 2v-76c0 -9 0 -21 1 -32c16 -2 24 -3 40 -3c100 0 142 70 142 157z" horiz-adv-x="581" glyph-name="eth.sc"/>
<glyph d="M87 462c0 64 -2 193 -7 241c40 0 140 1 174 5c-3 -25 -4 -102 -5 -121c19 1 38 2 50 2c195 0 299 -92 299 -218c0 -142 -95 -254 -313 -254c-11 0 -23 1 -35 1c0 -18 1 -93 4 -118h-174c5 48 7 176 7 241v221zM249 235c15 -2 26 -3 39 -3c92 0 152 40 152 118 c0 72 -45 115 -131 115c-22 0 -37 -1 -60 -2v-228z" unicode="Þ" horiz-adv-x="625" glyph-name="Thorn"/>
<glyph d="M212 340v-216c20 -20 45 -32 86 -32c66 0 106 69 106 150c0 88 -38 139 -104 139c-35 0 -66 -17 -88 -41zM61 -54v603c0 58 -2 119 -7 162c36 2 132 12 162 17c-3 -26 -4 -114 -4 -133v-160c37 33 83 57 141 57c124 0 201 -107 201 -236c0 -164 -112 -274 -232 -274 c-46 0 -82 12 -110 31v-125c0 -34 1 -68 4 -93c-17 -1 -148 -12 -162 -15c5 42 7 109 7 166z" unicode="þ" horiz-adv-x="585" glyph-name="thorn"/>
<glyph d="M215 451c16 1 33 1 49 1c150 0 230 -77 230 -179c0 -112 -79 -197 -247 -197c-8 0 -25 0 -32 1c0 -21 0 -53 3 -77h-156c4 36 5 132 5 181v165c0 48 -1 144 -5 180c28 0 129 2 156 4c-3 -21 -3 -55 -3 -79zM214 340v-158c10 -2 23 -2 33 -2c62 0 105 26 105 81 c0 52 -32 80 -95 80c-15 0 -26 0 -43 -1z" horiz-adv-x="520" glyph-name="thorn.sc"/>
<glyph d="M27 218l46 40l279 7c-5 74 -47 112 -127 112c-75 0 -131 -26 -180 -57l4 115c57 35 119 56 193 56c172 0 256 -111 256 -245c0 -153 -104 -264 -256 -264c-150 0 -215 106 -215 236zM351 191l-190 -5c6 -63 31 -99 86 -99c59 0 96 44 104 104z" unicode="ə" horiz-adv-x="529" glyph-name="schwa"/>
<glyph d="M54 0c5 43 7 105 7 163v314c0 170 91 255 233 255c116 0 200 -75 200 -165c0 -100 -80 -136 -80 -173c0 -17 5 -25 40 -59c44 -42 91 -94 91 -170c0 -95 -69 -169 -184 -169c-28 0 -60 3 -88 10l-9 110c21 -5 43 -8 63 -8c48 0 72 24 72 52c0 74 -136 125 -136 217 c0 58 84 97 84 171c0 37 -25 62 -62 62c-40 0 -71 -33 -73 -99v-414c0 -35 1 -72 4 -97h-162z" unicode="ß" horiz-adv-x="563" glyph-name="germandbls"/>
<glyph d="M557 267c0 -160 -101 -286 -266 -286c-158 0 -252 121 -252 260c0 159 102 285 266 285c159 0 252 -121 252 -259zM409 250c0 111 -43 162 -108 162c-73 0 -113 -64 -113 -155c0 -109 44 -163 109 -163c72 0 112 63 112 156z" unicode="0" horiz-adv-x="594" glyph-name="zero"/>
<glyph d="M288 0h-159c4 38 6 117 6 169v206l-99 -22l-16 115c31 8 139 33 158 39l64 16l46 -11c-3 -27 -3 -73 -3 -108v-303c0 -31 1 -78 3 -101z" unicode="1" horiz-adv-x="365" glyph-name="one"/>
<glyph d="M239 0h-163c5 44 7 107 7 167v169c0 58 -2 128 -7 172c37 0 132 5 163 8c-3 -26 -4 -73 -4 -108v-309c0 -36 1 -72 4 -99z" horiz-adv-x="316" glyph-name="one.alt"/>
<glyph d="M460 122c-4 -41 -6 -78 -7 -126c-66 3 -123 4 -202 4c-77 0 -141 -1 -206 -4l-15 100c198 137 262 190 262 246c0 40 -29 64 -79 64c-41 0 -89 -17 -136 -49l-27 111c56 36 128 58 199 58c107 0 191 -61 191 -160c0 -58 -30 -109 -81 -156c-34 -31 -83 -69 -125 -95 c74 0 164 4 226 7z" unicode="2" horiz-adv-x="497" glyph-name="two"/>
<glyph d="M439 40c0 -122 -109 -197 -265 -197c-53 0 -95 6 -140 19l-14 115c51 -14 97 -19 137 -19c79 0 133 27 133 85c0 56 -67 93 -179 88l-13 86c129 35 183 71 183 124c0 36 -27 67 -83 67c-44 0 -96 -18 -136 -46l-29 106c56 35 125 58 193 58c120 0 201 -66 201 -157 c0 -90 -56 -137 -141 -173c93 -17 153 -73 153 -156z" unicode="3" horiz-adv-x="482" glyph-name="three"/>
<glyph d="M295 -152c4 30 5 94 5 135v45h-57c-73 0 -162 -1 -219 -5l-14 101l239 313l63 88l135 -12c-3 -27 -4 -75 -4 -112v-262c51 0 82 1 108 3c-5 -42 -8 -69 -8 -119l-100 3v-72c0 -31 1 -83 4 -106h-152zM154 134h150l4 207z" unicode="4" glyph-name="four"/>
<glyph d="M44 -146l-14 117c34 -6 68 -10 104 -10c101 0 176 35 176 101c0 52 -40 82 -119 82c-45 0 -82 -4 -119 -10l-19 11c3 30 5 75 6 112l3 130c1 35 3 80 0 112l14 13c84 -2 98 -3 194 -3c87 0 98 1 177 3c-5 -29 -9 -93 -11 -129c-55 1 -77 2 -151 2h-88l-4 -131 c11 1 22 1 32 1c153 0 236 -63 236 -185c0 -146 -127 -227 -310 -227c-44 0 -80 4 -107 11z" unicode="5" horiz-adv-x="496" glyph-name="five"/>
<glyph d="M486 556c-164 -19 -253 -87 -286 -185c35 27 76 47 136 47c125 0 193 -97 193 -200c0 -132 -97 -236 -245 -236c-151 0 -244 109 -244 270c0 211 145 396 424 422zM281 322c-31 0 -65 -13 -90 -28c-2 -15 -3 -29 -3 -44c0 -112 41 -158 102 -158c58 0 93 47 93 116 c0 77 -38 114 -102 114z" unicode="6" horiz-adv-x="565" glyph-name="six"/>
<glyph d="M466 512l16 -75c-13 -23 -38 -80 -53 -113l-170 -365c-12 -25 -46 -102 -55 -126l-137 48c20 36 60 115 80 160l158 340h-106c-68 0 -114 0 -172 -1c2 28 7 106 7 132c84 -2 117 -3 215 -3c86 0 145 1 217 3z" unicode="7" horiz-adv-x="506" glyph-name="seven"/>
<glyph d="M34 167c0 83 52 139 124 167c-55 29 -101 83 -101 155c0 104 94 184 220 184c130 0 216 -81 216 -177c0 -75 -41 -123 -103 -156c68 -34 117 -87 117 -157c0 -118 -99 -201 -240 -201c-140 0 -233 79 -233 185zM363 172c0 53 -39 88 -98 114c-54 -24 -87 -61 -87 -114 c0 -52 42 -88 96 -88c55 0 89 40 89 88zM194 490c0 -48 37 -80 90 -101c46 20 74 58 74 101c0 49 -33 82 -82 82c-51 0 -82 -35 -82 -82z" unicode="8" horiz-adv-x="541" glyph-name="eight"/>
<glyph d="M84 -53c152 27 242 82 278 176c-37 -23 -82 -37 -131 -37c-117 0 -194 94 -194 204c0 132 98 236 247 236c150 0 241 -105 241 -274c0 -223 -147 -377 -407 -419zM289 186c28 0 57 6 84 16c2 18 3 34 3 53c0 112 -35 161 -98 161c-57 0 -94 -46 -94 -115 c0 -78 40 -115 105 -115z" unicode="9" horiz-adv-x="567" glyph-name="nine"/>
<glyph d="M321 703c174 0 266 -157 266 -349c0 -215 -102 -372 -279 -372c-174 0 -266 157 -266 349c0 215 102 372 279 372zM314 105c75 0 120 95 120 233c0 168 -50 242 -119 242c-74 0 -119 -95 -119 -233c0 -168 50 -242 118 -242z" horiz-adv-x="629" glyph-name="zero.lin"/>
<glyph d="M276 702l49 -11c-4 -28 -4 -89 -4 -126v-444c0 -32 1 -97 4 -121h-163c4 40 6 147 6 202v336l-132 -38l-20 121c71 20 141 43 185 57z" horiz-adv-x="417" glyph-name="one.lin"/>
<glyph d="M242 125c90 1 199 5 276 8c-4 -44 -6 -86 -7 -137c-74 3 -138 4 -228 4s-165 -1 -240 -4l-13 107c214 191 318 277 318 372c0 58 -41 92 -106 92c-47 0 -104 -18 -159 -59l-32 122c67 43 148 70 230 70c129 0 220 -73 220 -195c0 -91 -51 -164 -118 -241 c-38 -43 -91 -97 -141 -139z" horiz-adv-x="563" glyph-name="two.lin"/>
<glyph d="M44 13l-16 129c56 -18 110 -31 166 -31c86 0 138 31 138 79c0 63 -76 98 -210 101l-13 88c145 27 214 75 214 128c0 34 -33 67 -101 67c-48 0 -105 -19 -148 -49l-31 114c61 37 134 61 209 61c134 0 225 -71 225 -165c0 -92 -65 -144 -160 -179c120 -26 172 -88 172 -166 c0 -128 -112 -206 -273 -206c-55 0 -115 7 -172 29z" horiz-adv-x="528" glyph-name="three.lin"/>
<glyph d="M327 0c4 31 5 98 5 140v31h-55c-79 0 -179 -1 -243 -5l-16 109l263 334l69 91l135 -10c-3 -29 -4 -80 -4 -117v-285c52 0 84 1 110 3c-5 -44 -8 -73 -8 -125l-102 3v-59c0 -31 1 -86 4 -110h-158zM166 282c6 0 119 1 171 1l3 222z" horiz-adv-x="607" glyph-name="four.lin"/>
<glyph d="M502 206c0 -132 -99 -222 -263 -222c-65 0 -126 8 -186 30l-11 128c59 -18 116 -30 170 -30c86 0 134 43 134 95c0 65 -60 99 -174 99c-30 0 -59 -2 -90 -4l-13 7c2 32 4 71 5 111l3 134c1 38 3 84 0 118l16 14c90 -2 92 -3 197 -3c99 0 106 1 193 3 c-5 -31 -10 -98 -12 -135c-60 1 -84 2 -164 2h-88l-4 -134c11 0 24 0 34 -1c170 -9 253 -92 253 -212z" horiz-adv-x="541" glyph-name="five.lin"/>
<glyph d="M487 582c-163 -19 -259 -89 -294 -197c38 36 93 57 148 57c122 0 208 -95 208 -214c0 -138 -103 -246 -256 -246c-157 0 -255 107 -255 287c0 233 143 410 424 439zM399 220c0 82 -45 120 -104 120c-56 0 -102 -47 -102 -118c0 -77 45 -124 104 -124c61 0 102 48 102 122 z" horiz-adv-x="581" glyph-name="six.lin"/>
<glyph d="M37 686c89 -2 130 -3 234 -3c92 0 156 1 232 3l17 -80c-14 -25 -40 -85 -56 -120l-173 -363c-16 -31 -50 -107 -60 -133l-163 17c22 40 61 119 86 170l178 372h-115c-71 0 -126 0 -187 -1c2 29 7 111 7 138z" horiz-adv-x="545" glyph-name="seven.lin"/>
<glyph d="M38 174c0 88 56 146 139 177c-64 29 -117 87 -117 161c0 108 101 191 238 191c141 0 233 -84 233 -184c0 -77 -46 -129 -118 -163c78 -36 131 -93 131 -171c0 -118 -105 -203 -257 -203s-249 84 -249 192zM392 180c0 56 -41 92 -106 118c-60 -25 -98 -62 -98 -116 c0 -53 45 -90 107 -90c59 0 97 40 97 88zM205 513c0 -50 43 -84 100 -106c51 20 83 60 83 103c0 50 -37 84 -92 84s-91 -36 -91 -81z" horiz-adv-x="582" glyph-name="eight.lin"/>
<glyph d="M94 103c162 18 259 88 293 197c-38 -36 -92 -57 -147 -57c-122 0 -208 95 -208 214c0 138 103 245 256 245c157 0 255 -106 255 -286c0 -233 -142 -410 -424 -439zM182 465c0 -82 45 -121 104 -121c57 0 102 48 102 119c0 77 -45 124 -104 124c-61 0 -102 -48 -102 -122z " horiz-adv-x="581" glyph-name="nine.lin"/>
<glyph d="M216 70c0 -52 -38 -88 -88 -88s-85 35 -85 83c0 53 37 88 88 88c48 0 85 -34 85 -83z" unicode="." horiz-adv-x="259" glyph-name="period"/>
<glyph d="M40 -207l-35 50l17 13c61 41 89 77 89 115c0 25 -13 48 -56 71l-24 14c15 66 53 98 97 98c55 0 98 -42 98 -114c0 -85 -60 -167 -186 -247z" unicode="," horiz-adv-x="260" glyph-name="comma"/>
<glyph d="M221 70c0 -52 -38 -88 -89 -88c-49 0 -84 35 -84 83c0 53 37 88 87 88c49 0 86 -34 86 -83zM221 364c0 -52 -38 -88 -89 -88c-49 0 -84 35 -84 83c0 53 37 88 87 88c49 0 86 -34 86 -83z" unicode=":" horiz-adv-x="268" glyph-name="colon"/>
<glyph d="M222 364c0 -52 -38 -88 -89 -88c-49 0 -84 35 -84 83c0 53 37 88 87 88c49 0 86 -34 86 -83zM45 -207l-35 50l17 13c60 41 88 77 88 115c0 25 -13 48 -56 71l-23 14c14 66 53 98 97 98c54 0 98 -42 98 -114c0 -85 -60 -167 -186 -247z" unicode=";" horiz-adv-x="269" glyph-name="semicolon"/>
<glyph d="M221 70c0 -53 -38 -88 -89 -88c-49 0 -84 34 -84 82c0 53 37 88 87 88c49 0 86 -34 86 -82zM498 70c0 -53 -38 -88 -89 -88c-49 0 -84 34 -84 82c0 53 37 88 87 88c49 0 86 -34 86 -82zM775 70c0 -53 -38 -88 -89 -88c-49 0 -84 34 -84 82c0 53 37 88 87 88 c49 0 86 -34 86 -82z" unicode="…" horiz-adv-x="822" glyph-name="ellipsis"/>
<glyph d="M223 353c0 -52 -38 -87 -88 -87c-49 0 -85 34 -85 82c0 53 38 87 88 87c48 0 85 -33 85 -82z" unicode="·" horiz-adv-x="269" glyph-name="periodcentered"/>
<glyph d="M261 -18c-122 0 -223 71 -223 195c0 87 55 157 164 205c-34 47 -51 89 -51 134c0 109 96 178 202 178c129 0 187 -87 187 -162c0 -70 -36 -128 -145 -182c29 -32 73 -78 110 -112c34 35 67 74 104 119l88 -80c-37 -42 -71 -81 -104 -114c37 -32 93 -81 115 -97l-92 -96 c-21 19 -79 74 -118 109c-81 -67 -155 -97 -237 -97zM285 106c45 0 86 19 125 51c-43 38 -105 98 -141 141c-51 -24 -85 -59 -85 -104c0 -49 36 -88 101 -88zM287 515c0 -29 12 -56 38 -87c61 28 86 63 86 100c0 38 -24 61 -58 61c-35 0 -66 -28 -66 -74z" unicode="&amp;" horiz-adv-x="727" glyph-name="ampersand"/>
<glyph d="M226 718c-4 -24 -8 -72 -9 -98l-18 -298c-2 -38 -5 -68 -5 -94l-112 -4c0 40 -4 92 -7 156l-10 196c-2 41 -7 99 -11 134c30 3 142 5 172 8zM226 68c0 -51 -38 -86 -88 -86s-85 34 -85 80c0 52 37 86 88 86c48 0 85 -33 85 -80z" unicode="!" horiz-adv-x="277" glyph-name="exclam"/>
<glyph d="M52 -10c3 24 7 72 9 98l18 298c2 38 4 68 4 94l112 4c1 -40 4 -92 7 -156l10 -196c2 -41 7 -99 12 -134c-31 -3 -142 -5 -172 -8zM51 640c0 51 38 86 89 86c49 0 84 -34 84 -80c0 -52 -37 -86 -87 -86c-49 0 -86 33 -86 80z" unicode="¡" horiz-adv-x="277" glyph-name="exclamdown"/>
<glyph d="M451 564c0 -155 -241 -156 -241 -225c0 -26 20 -40 56 -40c22 0 46 4 68 11l15 -90c-30 -8 -69 -14 -111 -14c-100 0 -163 52 -163 133c0 138 227 142 227 217c0 33 -29 51 -80 51c-49 0 -113 -17 -167 -53l-12 118c45 29 127 52 195 52c134 0 213 -63 213 -160zM293 69 c0 -52 -38 -87 -90 -87c-50 0 -86 34 -86 81c0 53 38 87 89 87c50 0 87 -33 87 -81z" unicode="?" horiz-adv-x="475" glyph-name="question"/>
<glyph d="M24 144c0 155 241 156 241 225c0 26 -20 40 -55 40c-23 0 -47 -4 -69 -11l-15 90c30 8 69 14 111 14c100 0 163 -52 163 -133c0 -138 -227 -142 -227 -217c0 -33 29 -51 80 -51c49 0 113 17 167 53l12 -118c-45 -29 -127 -52 -195 -52c-133 0 -213 63 -213 160zM182 639 c0 52 38 87 90 87c50 0 86 -34 86 -81c0 -53 -38 -87 -89 -87c-50 0 -87 33 -87 81z" unicode="¿" horiz-adv-x="475" glyph-name="questiondown"/>
<glyph d="M447 734l34 -51l-15 -13c-58 -41 -85 -76 -85 -114c0 -25 13 -49 56 -72l24 -13c-15 -67 -53 -99 -97 -99c-55 0 -98 43 -98 114c0 86 58 168 181 248zM204 734l34 -51l-14 -13c-59 -41 -85 -76 -85 -114c0 -25 13 -49 56 -72l23 -13c-14 -67 -53 -99 -97 -99 c-54 0 -98 43 -98 114c0 86 58 168 181 248z" unicode="“" horiz-adv-x="503" glyph-name="quotedblleft"/>
<glyph d="M56 365l-34 50l14 13c59 41 85 77 85 115c0 25 -13 48 -56 71l-23 14c14 66 53 98 97 98c54 0 98 -42 98 -114c0 -85 -58 -167 -181 -247zM299 365l-35 50l15 13c58 41 85 77 85 115c0 25 -13 48 -56 71l-23 14c14 66 53 98 96 98c55 0 99 -42 99 -114 c0 -85 -59 -167 -181 -247z" unicode="”" horiz-adv-x="503" glyph-name="quotedblright"/>
<glyph d="M204 734l34 -51l-14 -13c-59 -41 -85 -76 -85 -114c0 -25 13 -49 56 -72l23 -13c-14 -67 -53 -99 -97 -99c-54 0 -98 43 -98 114c0 86 58 168 181 248z" unicode="‘" horiz-adv-x="260" glyph-name="quoteleft"/>
<glyph d="M56 365l-34 50l14 13c59 41 85 77 85 115c0 25 -13 48 -56 71l-23 14c14 66 53 98 97 98c54 0 98 -42 98 -114c0 -85 -58 -167 -181 -247z" unicode="’" horiz-adv-x="260" glyph-name="quoteright"/>
<glyph d="M50 -207l-35 50l15 13c59 41 85 77 85 115c0 25 -13 48 -56 71l-23 14c14 66 53 98 97 98c54 0 98 -42 98 -114c0 -85 -58 -167 -181 -247zM293 -207l-35 50l15 13c58 41 85 77 85 115c0 25 -13 48 -56 71l-23 14c14 66 53 98 96 98c55 0 99 -42 99 -114 c0 -85 -59 -167 -181 -247z" unicode="„" horiz-adv-x="502" glyph-name="quotedblbase"/>
<glyph d="M50 -207l-35 50l15 13c59 41 85 77 85 115c0 25 -13 48 -56 71l-23 14c14 66 53 98 97 98c54 0 98 -42 98 -114c0 -85 -58 -167 -181 -247z" unicode="‚" horiz-adv-x="259" glyph-name="quotesinglbase"/>
<glyph d="M237 472c49 1 88 5 123 9c-55 -84 -106 -159 -165 -244c42 -67 84 -128 154 -230l-100 -24c-81 90 -145 165 -204 242l3 15c69 81 147 177 189 232zM483 472c49 1 90 5 126 9c-56 -84 -107 -159 -166 -244c42 -68 84 -135 155 -240l-101 -24c-81 91 -144 173 -203 252 l3 15c68 81 144 177 186 232z" unicode="«" horiz-adv-x="647" glyph-name="guillemotleft"/>
<glyph d="M410 -8c-49 -1 -87 -5 -123 -9c55 83 106 158 165 243c-41 67 -83 128 -154 231l101 24c80 -90 144 -165 203 -243l-3 -15c-68 -80 -146 -176 -189 -231zM164 -8c-49 -1 -90 -5 -125 -9c55 83 106 158 165 243c-42 69 -84 130 -154 235l100 24c81 -91 145 -168 204 -247 l-3 -15c-69 -80 -145 -176 -187 -231z" unicode="»" horiz-adv-x="647" glyph-name="guillemotright"/>
<glyph d="M237 472c49 1 88 5 123 9c-55 -84 -106 -159 -165 -244c42 -67 84 -128 154 -230l-100 -24c-81 90 -145 165 -204 242l3 15c69 81 147 177 189 232z" unicode="‹" horiz-adv-x="399" glyph-name="guilsinglleft"/>
<glyph d="M162 -8c-49 -1 -88 -5 -123 -9c55 83 106 158 165 243c-42 67 -84 128 -154 231l100 24c81 -90 145 -165 204 -243l-3 -15c-69 -80 -147 -176 -189 -231z" unicode="›" horiz-adv-x="399" glyph-name="guilsinglright"/>
<glyph d="M351 337c-3 -30 -5 -75 -5 -107c-38 1 -73 2 -108 2h-77c-42 0 -75 -1 -108 -2c2 25 3 75 3 107c48 -2 86 -3 150 -3c43 0 99 1 145 3z" unicode="-" horiz-adv-x="402" glyph-name="hyphen"/>
<glyph d="M461 337c-3 -30 -5 -75 -5 -107c-56 1 -99 2 -156 2h-88c-63 0 -107 -1 -159 -2c2 25 3 75 3 107c68 -2 125 -3 210 -3c68 0 133 1 195 3z" unicode="–" horiz-adv-x="511" glyph-name="endash"/>
<glyph d="M950 337c-3 -30 -5 -75 -5 -107c-85 1 -168 2 -247 2h-394c-93 0 -177 -1 -251 -2c2 25 3 75 3 107c103 -2 317 -3 447 -3c107 0 346 1 447 3z" unicode="—" horiz-adv-x="1004" glyph-name="emdash"/>
<glyph d="M351 402c-3 -29 -5 -75 -5 -107c-38 1 -73 2 -108 2h-77c-42 0 -75 -1 -108 -2c2 25 3 76 3 107c48 -2 86 -3 150 -3c43 0 99 1 145 3z" horiz-adv-x="402" glyph-name="hyphen.lin"/>
<glyph d="M461 402c-3 -29 -5 -75 -5 -107c-56 1 -99 2 -156 2h-88c-63 0 -107 -1 -159 -2c2 25 3 76 3 107c68 -2 125 -3 210 -3c68 0 133 1 195 3z" horiz-adv-x="511" glyph-name="endash.lin"/>
<glyph d="M950 402c-3 -29 -5 -75 -5 -107c-85 1 -168 2 -247 2h-394c-93 0 -177 -1 -251 -2c2 25 3 76 3 107c103 -2 317 -3 447 -3c107 0 346 1 447 3z" horiz-adv-x="1004" glyph-name="emdash.lin"/>
<glyph d="M637 105c-3 -30 -5 -74 -5 -107c-68 1 -139 2 -205 2h-187c-76 0 -148 -1 -209 -2c2 25 3 75 3 107c80 -2 201 -3 302 -3c85 0 223 1 301 3z" unicode="_" horiz-adv-x="667" glyph-name="underscore"/>
<glyph d="M359 739c-10 -31 -42 -136 -48 -159l-187 -664c-15 -50 -30 -107 -42 -155l-115 -7c23 75 41 136 70 237l155 550c22 78 39 142 49 191c25 0 91 4 118 7z" unicode="/" horiz-adv-x="355" glyph-name="slash"/>
<glyph d="M261 -246c-14 59 -33 131 -52 193l-178 629c-15 54 -34 117 -47 156c26 0 90 4 114 7c8 -40 34 -135 51 -194l166 -585c26 -92 44 -156 58 -199z" unicode="\" horiz-adv-x="341" glyph-name="backslash"/>
<glyph d="M202 -240h-115c4 55 5 169 5 241v528c0 62 -1 157 -5 203c22 0 91 4 115 7c-2 -27 -3 -132 -3 -153v-669c0 -46 0 -124 3 -157z" unicode="|" horiz-adv-x="291" glyph-name="bar"/>
<glyph d="M353 -243c-163 88 -301 266 -301 482c0 218 135 400 301 491l57 -71c-110 -78 -214 -213 -214 -415c0 -205 105 -337 215 -415z" unicode="(" horiz-adv-x="409" glyph-name="parenleft"/>
<glyph d="M56 -243l-58 70c110 78 215 213 215 416c0 204 -106 336 -216 414l59 73c163 -89 300 -266 300 -483s-134 -399 -300 -490z" unicode=")" horiz-adv-x="409" glyph-name="parenright"/>
<glyph d="M383 -127c-5 -41 -8 -65 -8 -110c-49 4 -76 4 -133 4c-62 0 -120 -1 -165 -4l-12 7c4 39 6 146 6 200v555c0 54 -2 156 -6 195l13 14c45 -3 99 -5 160 -5c57 0 91 1 140 4c-3 -42 -4 -76 -5 -110c-38 1 -61 2 -108 2c-20 0 -37 0 -57 -1v-624c0 -32 1 -104 4 -128 c20 0 36 -1 57 -1c47 0 74 1 114 2z" unicode="[" horiz-adv-x="388" glyph-name="bracketleft"/>
<glyph d="M6 623c4 41 7 66 8 111c48 -4 75 -4 132 -4c63 0 120 1 165 4l12 -7c-4 -39 -6 -146 -6 -200v-556c0 -54 2 -156 6 -195l-13 -14c-45 3 -98 5 -160 5c-57 0 -91 -1 -139 -4c3 42 4 77 5 110c38 -1 60 -2 107 -2c20 0 38 0 57 1v623c0 32 -1 105 -4 129c-19 0 -36 1 -57 1 c-47 0 -74 -1 -113 -2z" unicode="]" horiz-adv-x="388" glyph-name="bracketright"/>
<glyph d="M46 218v60c106 27 130 49 130 70c0 36 -64 103 -64 177c0 82 52 164 234 202l23 -84c-89 -26 -121 -64 -121 -104c0 -55 62 -120 62 -176c0 -43 -26 -84 -110 -115c88 -30 110 -72 110 -115c0 -56 -62 -120 -62 -176c0 -39 32 -78 121 -104l-23 -83 c-182 38 -234 120 -234 202c0 74 64 140 64 176c0 21 -24 43 -130 70z" unicode="{" horiz-adv-x="404" glyph-name="braceleft"/>
<glyph d="M358 278v-59c-106 -28 -129 -49 -129 -71c0 -36 63 -102 63 -176c0 -82 -52 -164 -234 -202l-22 83c88 26 121 65 121 104c0 56 -63 120 -63 177c0 43 26 84 110 115c-88 30 -110 72 -110 115c0 56 63 120 63 175c0 40 -33 78 -121 104l22 84c182 -38 234 -120 234 -202 c0 -74 -63 -140 -63 -176c0 -22 23 -43 129 -71z" unicode="}" horiz-adv-x="404" glyph-name="braceright"/>
<glyph d="M353 -144c-163 89 -301 266 -301 483s135 399 301 490l57 -71c-110 -77 -214 -212 -214 -415c0 -205 105 -337 215 -414z" horiz-adv-x="409" glyph-name="parenleft.lin"/>
<glyph d="M56 -144l-58 71c110 77 215 212 215 415c0 205 -106 337 -216 414l59 73c163 -88 300 -266 300 -483s-134 -399 -300 -490z" horiz-adv-x="409" glyph-name="parenright.lin"/>
<glyph d="M383 -28c-5 -40 -8 -65 -8 -110c-49 4 -76 4 -133 4c-62 0 -120 -1 -165 -4l-12 7c4 39 6 146 6 200v556c0 54 -2 156 -6 195l13 14c45 -3 99 -5 160 -5c57 0 91 1 140 4c-3 -42 -4 -77 -5 -111c-38 1 -61 2 -108 2c-20 0 -37 0 -57 -1v-624c0 -32 1 -104 4 -128 c20 0 36 -1 57 -1c47 0 74 1 114 2z" horiz-adv-x="388" glyph-name="bracketleft.lin"/>
<glyph d="M6 723c4 41 7 65 8 110c48 -4 75 -4 132 -4c63 0 120 1 165 4l12 -7c-4 -39 -6 -146 -6 -200v-555c0 -54 2 -156 6 -195l-13 -14c-45 3 -98 5 -160 5c-57 0 -91 -1 -139 -4c3 42 4 76 5 110c38 -1 60 -2 107 -2c20 0 38 0 57 1v622c0 33 -1 106 -4 130c-19 0 -36 1 -57 1 c-47 0 -74 -1 -113 -2z" horiz-adv-x="388" glyph-name="bracketright.lin"/>
<glyph d="M46 318v59c106 28 130 49 130 71c0 36 -64 102 -64 176c0 82 52 164 234 202l23 -83c-89 -26 -121 -65 -121 -104c0 -56 62 -120 62 -177c0 -43 -26 -84 -110 -115c88 -30 110 -72 110 -115c0 -56 -62 -120 -62 -175c0 -40 32 -78 121 -104l-23 -84 c-182 38 -234 120 -234 202c0 74 64 140 64 176c0 22 -24 43 -130 71z" horiz-adv-x="404" glyph-name="braceleft.lin"/>
<glyph d="M358 378v-60c-106 -27 -129 -49 -129 -70c0 -36 63 -103 63 -177c0 -82 -52 -164 -234 -202l-22 84c88 26 121 64 121 104c0 55 -63 120 -63 176c0 43 26 84 110 115c-88 30 -110 72 -110 115c0 56 63 120 63 176c0 39 -33 78 -121 104l22 83c182 -38 234 -120 234 -202 c0 -74 -63 -140 -63 -176c0 -21 23 -43 129 -70z" horiz-adv-x="404" glyph-name="braceright.lin"/>
<glyph d="M756 330c0 126 -75 261 -282 261c-193 0 -349 -169 -349 -363c0 -201 132 -309 308 -309c86 0 190 26 257 69l21 -58c-80 -48 -184 -78 -290 -78c-219 0 -368 167 -368 360c0 275 220 446 438 446c222 0 337 -155 337 -312c0 -161 -103 -298 -248 -298 c-78 0 -108 56 -94 123c-38 -81 -100 -123 -147 -123c-71 0 -105 60 -105 142c0 126 97 271 221 271c37 0 73 -14 89 -31l74 36l21 -8l-44 -269c-6 -38 -7 -65 27 -65c61 0 134 74 134 206zM507 357c-11 10 -27 15 -47 15c-56 0 -106 -81 -106 -161c0 -47 13 -67 39 -67 c37 0 90 63 105 156z" unicode="@" horiz-adv-x="873" glyph-name="at"/>
<glyph d="M545 163c-70 0 -97 51 -83 112c-34 -74 -92 -112 -135 -112c-63 0 -95 54 -95 129c0 115 89 248 201 248c34 0 67 -12 81 -28l66 32l19 -7l-40 -245c-6 -35 -8 -60 22 -60c56 0 123 67 123 187c0 114 -68 238 -255 238c-175 0 -316 -154 -316 -331 c0 -183 120 -281 279 -281c77 0 171 24 232 62l19 -54c-72 -43 -166 -71 -263 -71c-198 0 -333 152 -333 329c0 252 199 409 397 409c202 0 307 -143 307 -285c0 -148 -95 -272 -226 -272zM480 446c-10 9 -24 14 -42 14c-52 0 -99 -75 -99 -149c0 -44 13 -62 37 -62 c34 0 83 59 96 145z" horiz-adv-x="814" glyph-name="at.cap"/>
<glyph d="M805 351c0 -207 -167 -374 -373 -374c-207 0 -374 167 -374 374s167 374 374 374c206 0 373 -167 373 -374zM740 351c0 172 -135 312 -308 312s-308 -140 -308 -312s135 -312 308 -312s308 140 308 312zM563 193c-33 -20 -70 -32 -115 -32c-122 0 -197 85 -197 184 c0 115 84 204 207 204c39 0 81 -11 110 -31l-18 -86c-22 17 -52 29 -87 29c-64 0 -106 -42 -106 -105c0 -67 46 -105 105 -105c45 0 77 18 105 42z" unicode="©" horiz-adv-x="863" glyph-name="copyright"/>
<glyph d="M805 351c0 -207 -167 -374 -373 -374c-207 0 -374 167 -374 374s167 374 374 374c206 0 373 -167 373 -374zM740 351c0 172 -135 312 -308 312s-308 -140 -308 -312s135 -312 308 -312s308 140 308 312zM412 245c0 -20 0 -61 2 -75h-110c3 25 3 92 3 126v116 c0 34 0 102 -3 127c19 0 98 3 127 3c114 0 175 -52 175 -124c0 -88 -69 -138 -174 -140h-20v-33zM412 462v-110c7 -1 13 -1 19 -1c42 0 70 19 70 56c0 38 -24 57 -63 57c-9 0 -14 -1 -26 -2z" unicode="℗" horiz-adv-x="863" glyph-name="published"/>
<glyph d="M805 351c0 -207 -167 -374 -373 -374c-207 0 -374 167 -374 374s167 374 374 374c206 0 373 -167 373 -374zM740 351c0 172 -135 312 -308 312s-308 -140 -308 -312s135 -312 308 -312s308 140 308 312zM287 539c20 0 106 3 131 3c116 1 176 -48 175 -116 c-1 -52 -25 -87 -71 -113l60 -87c14 -21 34 -48 39 -54l-115 -7l-75 120h-36v-59c0 -23 1 -41 2 -56h-110c2 25 3 92 3 127v116c0 33 -1 101 -3 126zM395 359h30c40 0 64 21 64 53c0 28 -15 52 -62 52c-11 0 -22 -1 -32 -2v-103z" horiz-adv-x="863" glyph-name="registered.alt"/>
<glyph d="M445 521c0 -114 -90 -206 -206 -206c-115 0 -205 92 -205 206s90 206 205 206c116 0 206 -92 206 -206zM401 521c0 92 -69 165 -162 165c-92 0 -161 -73 -161 -165c0 -91 69 -165 161 -165c93 0 162 74 162 165zM163 621c10 0 58 1 71 1c64 0 93 -27 93 -62 c-1 -28 -11 -46 -41 -59c7 -9 32 -42 35 -47c11 -13 17 -21 19 -24l-61 -4l-41 61h-19v-29c0 -12 0 -22 1 -29h-57c1 12 2 47 2 66v61c0 17 -1 52 -2 65zM219 527h17c23 0 37 11 37 27c0 15 -8 27 -35 27c-6 0 -14 -1 -19 -1v-53z" unicode="®" horiz-adv-x="479" glyph-name="registered"/>
<glyph d="M817 343l-104 -4c0 14 -5 54 -7 72l-13 116s-81 -175 -87 -188l-46 -3c-6 13 -86 184 -86 184l-13 -110c-2 -18 -7 -54 -7 -67h-101c7 31 15 89 20 122l17 112c6 34 14 99 17 126l73 3l33 -70l73 -143l72 145c6 9 27 59 32 67h71l18 -128l17 -112c5 -33 14 -91 21 -122z M310 452c0 -72 -56 -119 -136 -119c-42 0 -92 14 -121 29l3 90c23 -19 73 -40 113 -40c28 0 42 11 42 31c0 45 -150 47 -150 152c0 72 55 114 130 114c40 0 75 -11 105 -27l-15 -76c-26 15 -59 25 -84 25c-27 0 -41 -13 -41 -30c0 -45 154 -46 154 -149z" unicode="℠" horiz-adv-x="861" glyph-name="servicemark"/>
<glyph d="M862 343l-103 -4l-7 72l-13 116s-81 -175 -87 -188l-47 -3c-5 13 -86 184 -86 184l-13 -110c-2 -18 -6 -54 -6 -67h-102c7 31 16 89 20 122l18 112c5 34 13 99 16 126l73 3c5 -9 28 -60 33 -70l74 -143l72 145c5 9 27 59 31 67h71c2 -15 16 -110 18 -128l18 -112 c5 -33 14 -91 20 -122zM374 703c-2 -25 -3 -60 -4 -92c-37 1 -64 1 -106 1c-1 -11 -1 -25 -1 -32v-164c0 -20 1 -59 3 -73h-115c3 23 4 89 4 122v68c0 19 0 53 -1 79c-44 0 -73 0 -110 -1c1 24 1 65 1 92c52 -2 102 -2 164 -2s114 0 165 2z" unicode="™" horiz-adv-x="906" glyph-name="trademark"/>
<glyph d="M367 626c2 -33 4 -73 8 -104c-25 2 -78 4 -126 5c17 -33 49 -90 61 -111c-32 -12 -67 -26 -96 -39c-7 35 -20 88 -30 130c-29 -29 -74 -73 -93 -94c-20 25 -43 54 -66 79c33 19 77 43 114 65c-31 18 -86 45 -112 57c19 28 40 60 57 88c25 -24 64 -60 94 -86 c6 34 17 99 19 126c32 -9 73 -19 102 -26c-12 -22 -35 -77 -52 -117c37 7 96 20 120 27z" unicode="*" horiz-adv-x="387" glyph-name="asterisk"/>
<glyph d="M512 545l-3 -125c-18 2 -36 3 -64 4l-54 3c-20 1 -40 1 -65 1l3 -294c0 -78 2 -129 5 -163h-137c4 50 6 130 8 241l3 216c-17 0 -37 0 -68 -1l-48 -2c-26 -1 -46 -3 -68 -5l3 125c12 -2 26 -4 44 -5l87 -6c18 -1 39 -1 50 -1c0 67 -6 159 -11 203c61 0 89 2 143 5 c-3 -34 -6 -77 -10 -161l-2 -47c16 0 33 1 51 2l87 5c20 1 34 3 46 5z" unicode="†" horiz-adv-x="535" glyph-name="dagger"/>
<glyph d="M330 597l-2 -56c7 0 84 3 127 6c24 1 45 3 57 5c-1 -22 -3 -92 -3 -115c-20 3 -42 4 -75 5c-29 2 -96 4 -108 4l1 -189c7 0 85 2 128 6c24 1 45 3 57 5c-1 -22 -3 -92 -3 -115c-20 3 -42 4 -75 5c-29 1 -94 4 -106 4l1 -54c2 -71 1 -107 5 -137h-137c4 42 7 114 8 191 c-7 0 -63 -2 -97 -3c-33 -1 -59 -2 -84 -5c0 23 2 91 3 114c14 -2 33 -4 54 -5c44 -3 121 -6 126 -6l1 189c-7 0 -66 -1 -100 -3c-33 -1 -59 -2 -84 -5c0 23 2 91 3 114c14 -2 33 -4 54 -5c44 -2 122 -6 127 -6c0 6 0 41 -1 47c-1 45 -6 113 -10 148c61 0 89 2 143 5 c-3 -30 -6 -69 -10 -144z" unicode="‡" horiz-adv-x="535" glyph-name="daggerdbl"/>
<glyph d="M389 358c0 -92 -68 -165 -161 -165s-162 75 -162 165c0 92 69 165 161 165c94 0 162 -75 162 -165z" unicode="•" horiz-adv-x="455" glyph-name="bullet"/>
<glyph d="M342 509l-56 68l-56 -71c-18 -23 -63 -83 -88 -119l-86 66c34 44 181 231 207 266l42 3c26 -34 197 -243 218 -269l-86 -65c-22 30 -50 65 -95 121z" unicode="^" horiz-adv-x="573" glyph-name="asciicircum"/>
<glyph d="M37 219c20 110 67 146 122 146c63 0 138 -47 179 -47c19 0 34 16 42 55l90 -13c-20 -113 -66 -151 -122 -151c-63 0 -141 50 -180 50c-19 0 -34 -14 -41 -53z" unicode="~" horiz-adv-x="505" glyph-name="asciitilde"/>
<glyph d="M283 -118h-95c4 28 8 67 13 106c-61 9 -122 29 -170 55l6 136c49 -35 116 -63 181 -75l19 178c-90 32 -188 74 -188 188c0 112 87 191 221 199l6 94c27 0 64 0 92 3l-12 -102c50 -8 98 -26 132 -47l-32 -117c-32 20 -74 37 -116 46l-17 -165c88 -32 184 -75 184 -189 c0 -118 -85 -202 -218 -209c-2 -36 -5 -75 -6 -101zM379 183c0 33 -29 54 -70 71l-14 -154c57 5 84 37 84 83zM177 481c0 -34 30 -55 72 -73l15 146c-57 -4 -87 -34 -87 -73z" unicode="$" horiz-adv-x="542" glyph-name="dollar"/>
<glyph d="M301 -124h-100c4 29 8 69 12 111c-68 10 -136 31 -181 56l6 140c40 -29 114 -62 191 -74c0 5 1 8 1 11c3 19 13 115 19 175c-95 36 -198 79 -198 197s96 201 234 209l7 97c28 0 68 1 97 4c-4 -30 -8 -69 -12 -106c55 -9 106 -28 140 -48l-35 -121c-35 20 -79 37 -122 45 l-19 -174c94 -34 196 -79 196 -201c0 -119 -92 -207 -230 -215c-3 -38 -5 -78 -6 -106zM186 504c0 -37 33 -58 79 -77c4 47 12 123 14 144v7c-58 -4 -93 -32 -93 -74zM402 184c0 37 -31 61 -75 81l-14 -159c57 6 89 32 89 78z" horiz-adv-x="573" glyph-name="dollar.lin"/>
<glyph d="M42 280c2 22 3 69 3 96h73c-11 28 -19 59 -19 95c0 110 92 201 227 201c52 0 113 -11 159 -32l-28 -116c-37 19 -80 28 -116 28c-56 0 -101 -30 -101 -89c0 -30 10 -56 23 -83c66 1 103 2 174 7c-3 -27 -4 -69 -5 -98c-43 1 -81 1 -134 0c2 -10 3 -20 3 -30 c0 -53 -19 -98 -64 -139c90 1 192 4 268 6c-4 -42 -6 -81 -7 -130c-72 4 -129 4 -216 4c-79 0 -165 -1 -231 -5l-14 97c83 38 129 79 129 143c0 16 -3 32 -8 47c-43 -1 -80 -2 -116 -2z" unicode="£" horiz-adv-x="536" glyph-name="sterling"/>
<glyph d="M43 292c2 23 3 72 3 100h76c-11 29 -20 61 -20 101c0 115 98 209 243 209c56 0 121 -12 170 -37l-29 -122c-42 24 -89 34 -129 34c-60 0 -108 -30 -108 -92c0 -34 11 -62 24 -89c73 1 113 2 192 8c-3 -28 -4 -73 -5 -103c-49 0 -92 0 -151 -1c2 -9 3 -19 3 -29 c0 -56 -20 -105 -68 -149c97 1 209 5 291 8c-5 -45 -7 -83 -7 -134c-77 4 -140 4 -232 4c-82 0 -175 -1 -244 -5l-15 101c86 40 135 83 135 149c0 17 -3 34 -8 49c-45 -1 -84 -2 -121 -2z" horiz-adv-x="566" glyph-name="sterling.lin"/>
<glyph d="M630 167l-6 -134c-63 -39 -128 -51 -197 -51c-142 0 -257 84 -300 211c-39 0 -77 -1 -109 -1c2 20 3 76 3 101c26 -2 56 -3 87 -3v20c0 18 1 36 3 53c-30 0 -60 -1 -88 -1c2 20 4 75 4 99c31 -1 69 -3 107 -3c48 128 160 213 310 213c69 0 138 -20 185 -55l-28 -112 c-38 28 -97 48 -154 48c-78 0 -142 -40 -176 -107h53c71 0 163 1 223 3c-3 -23 -7 -60 -8 -85c-63 1 -143 1 -215 1h-77c-2 -12 -2 -23 -2 -35c0 -14 1 -27 2 -39h77c71 0 146 1 206 4c-2 -24 -6 -61 -7 -87c-62 1 -127 1 -199 1h-52c36 -69 104 -106 179 -106 c67 0 127 21 179 65z" unicode="€" horiz-adv-x="663" glyph-name="Euro"/>
<glyph d="M656 175l-6 -140c-66 -41 -135 -53 -206 -53c-147 0 -267 87 -313 220c-40 0 -80 -1 -113 -1c2 21 3 80 3 106c28 -2 58 -3 90 -3v21c0 18 1 37 3 55c-31 0 -62 -1 -91 -1c2 21 5 80 5 105c32 -2 71 -3 110 -3c51 133 168 221 324 221c71 0 143 -20 193 -56l-30 -118 c-40 28 -100 47 -159 47c-80 0 -146 -41 -182 -108h52c75 0 171 1 233 3c-3 -24 -7 -65 -8 -90c-66 1 -149 1 -225 1h-79c-2 -12 -2 -25 -2 -38c0 -14 1 -27 2 -39h79c75 0 153 1 216 4c-2 -25 -7 -64 -9 -91c-64 1 -131 1 -207 1h-53c37 -72 108 -109 186 -109 c70 0 133 21 187 66z" horiz-adv-x="689" glyph-name="Euro.lin"/>
<glyph d="M245 0c3 26 5 89 6 138c-70 0 -148 0 -208 -2c2 20 3 71 3 96c56 -2 139 -3 205 -3l1 39l-21 35c-65 0 -132 0 -186 -1c2 20 3 69 3 93l129 -3l-28 48c-22 37 -108 183 -131 217l168 8l142 -262l38 69c21 34 77 153 98 188h176l-168 -268c49 0 99 1 137 3 c-4 -22 -5 -67 -7 -93c-55 1 -121 1 -186 1l-20 -33v-41c70 0 152 1 211 3c-4 -22 -5 -70 -7 -96c-61 2 -134 2 -204 2c0 -38 1 -111 5 -138h-156z" unicode="¥" horiz-adv-x="656" glyph-name="yen"/>
<glyph d="M255 0c3 27 5 93 6 144c-73 0 -155 0 -217 -2c2 21 3 75 3 101c59 -2 146 -3 215 -3v42l-19 32c-67 0 -138 0 -195 -1c2 21 3 74 3 99c39 -2 89 -3 138 -4l-32 55c-24 37 -113 185 -136 222l175 8l146 -273l38 70c22 35 80 161 101 198h182l-173 -280c50 0 102 2 142 4 c-5 -23 -5 -72 -7 -99c-58 1 -127 1 -194 1l-18 -30v-44c72 0 158 1 220 3c-5 -23 -6 -73 -8 -101c-62 2 -139 2 -212 2c0 -39 1 -116 4 -144h-162z" horiz-adv-x="683" glyph-name="yen.lin"/>
<glyph d="M338 372l-15 -228l-3 -46c48 3 91 21 133 56l-4 -130c-41 -23 -83 -37 -134 -41c-2 -39 -2 -66 -2 -87h-89c2 14 4 45 7 91c-125 22 -200 121 -200 237c0 139 92 250 232 266c2 38 2 72 2 86c31 0 64 2 92 5c-4 -26 -6 -59 -9 -94c40 -7 79 -21 109 -41l-28 -111 c-26 20 -58 34 -91 40v-3zM170 239c0 -67 29 -112 76 -131l3 41l13 223c-58 -16 -92 -67 -92 -133z" unicode="¢" horiz-adv-x="491" glyph-name="cent"/>
<glyph d="M469 555l-28 -115c-26 20 -59 33 -92 39l-14 -229l-3 -44c48 4 92 22 133 56l-5 -134c-40 -22 -83 -36 -133 -41c-2 -40 -2 -66 -2 -87h-96c2 13 4 45 7 90c-126 23 -202 123 -202 240c0 140 94 252 235 269c1 38 2 70 2 85c30 0 70 2 98 5c-4 -26 -6 -59 -9 -94 c40 -7 80 -21 109 -40zM177 346c0 -68 28 -111 74 -130l2 39l13 222c-56 -17 -89 -66 -89 -131z" horiz-adv-x="509" glyph-name="cent.lin"/>
<glyph d="M337 -1h-154c-25 -47 -51 -95 -74 -134c-21 12 -56 31 -90 45c22 41 43 77 63 110c3 57 5 160 5 216v215c0 62 -2 189 -7 235c32 0 149 6 239 6c52 0 95 -8 130 -20c23 40 50 88 76 136c20 -11 58 -37 87 -49l-82 -141c28 -31 40 -68 40 -103c0 -74 -46 -126 -111 -150 c96 -26 144 -86 144 -165c0 -110 -87 -201 -266 -201zM238 119c25 -2 57 -4 82 -4c77 0 129 31 129 95c0 54 -46 95 -146 95c-25 0 -47 -1 -65 -5v-181zM238 406c13 -1 48 -1 63 -1c76 0 120 34 120 87c0 56 -42 83 -118 83c-29 0 -49 -1 -65 -2v-167z" unicode="฿" horiz-adv-x="654" glyph-name="baht"/>
<glyph d="M223 -104c-26 15 -65 34 -94 45c19 51 33 83 45 113c-84 63 -133 161 -133 270c0 215 156 377 381 378l42 116c20 -11 66 -34 96 -43l-35 -85c27 -7 53 -17 76 -28l41 114c22 -11 67 -28 95 -38c-53 -139 -109 -281 -168 -435c-22 -57 -46 -120 -70 -185 c53 15 96 46 137 83l-7 -152c-55 -37 -115 -59 -182 -66c-16 -43 -32 -86 -46 -126c-22 13 -64 33 -93 43l33 86c-27 4 -53 11 -77 19c-15 -37 -28 -74 -41 -109zM314 137c27 -14 56 -22 88 -26l22 51l132 350l10 24c-27 15 -57 26 -89 32c-28 -72 -56 -146 -85 -226 c-24 -63 -50 -133 -78 -205zM202 335c0 -55 16 -102 42 -138l2 5l131 345l9 22c-110 -18 -184 -109 -184 -234z" unicode="₡" horiz-adv-x="744" glyph-name="colonmonetary"/>
<glyph d="M413 345h-125l-36 -272c-5 -41 -8 -66 -9 -81h-149l25 146l27 207h-103l42 110h75l4 29c23 156 109 216 222 216c35 0 62 -3 90 -15l-26 -111c-16 5 -34 10 -56 10c-53 0 -76 -25 -88 -101l-4 -28h129c-5 -22 -13 -74 -18 -110z" unicode="ƒ" horiz-adv-x="505" glyph-name="florin"/>
<glyph d="M853 488c-3 -22 -4 -78 -3 -100c-31 0 -63 1 -95 2l-1 -99c37 0 71 0 99 1c-3 -21 -5 -77 -5 -101l-95 3v-57c0 -37 -1 -116 2 -143l-103 -8l-167 208h-166h-26v-54c0 -37 1 -114 4 -141h-162c5 39 8 128 9 195l-95 -3c2 22 2 79 1 101c25 -1 58 -2 95 -2l2 101 c-33 -1 -64 -2 -99 -2c4 19 5 77 5 99c24 -1 57 -1 95 -1c1 65 -1 162 -5 204l105 8l170 -214h129h60c-1 67 -3 161 -9 201c40 0 131 1 164 5c-3 -28 -5 -106 -6 -144l-1 -62zM293 271h121h10l-131 163v-163zM479 409l128 -161v161h-128z" unicode="₦" horiz-adv-x="902" glyph-name="naira"/>
<glyph d="M37 480l97 -3c-1 70 -3 168 -7 209c35 0 160 5 218 5c178 0 273 -89 286 -213c32 1 62 2 92 2c-2 -21 -3 -79 -2 -101c-36 0 -64 0 -95 1c-24 -123 -116 -211 -298 -211c-12 0 -24 0 -35 1v-44c0 -33 1 -102 3 -126h-169c5 46 7 168 7 230v150c-32 -1 -61 -2 -100 -2 c2 20 3 79 3 102zM291 465h83h103c-10 67 -52 105 -129 105c-22 0 -33 0 -57 -2v-103zM331 286c78 0 132 37 145 107h-185v-105c13 -2 26 -2 40 -2z" unicode="₱" horiz-adv-x="763" glyph-name="peso"/>
<glyph d="M648 6l-177 -15l-151 249h-13l-63 -1v-99c0 -37 0 -114 3 -141h-167c5 47 7 172 7 236v216c0 62 -2 188 -7 235c35 0 167 3 211 4c197 2 300 -86 299 -207c-2 -95 -48 -158 -134 -203l110 -160c22 -33 61 -86 82 -114zM1168 256c0 -164 -112 -274 -231 -274 c-46 0 -82 12 -110 31v-125c0 -34 1 -68 4 -93c-16 -1 -147 -12 -161 -15c4 42 6 109 6 166v359c0 58 -2 124 -7 168c35 0 116 8 146 12l6 -63c36 40 84 70 146 70c127 0 201 -113 201 -236zM1022 242c0 97 -49 140 -108 140c-36 0 -66 -20 -87 -48v-210 c20 -20 45 -32 86 -32c66 0 109 69 109 150zM243 350h72c76 0 123 47 123 111c0 65 -34 107 -131 107c-23 0 -44 -1 -64 -1v-217z" horiz-adv-x="1223" glyph-name="R_p"/>
<glyph d="M648 6l-177 -15l-151 249h-13l-63 -1v-99c0 -37 0 -114 3 -141h-167c5 47 7 172 7 236v216c0 62 -2 188 -7 235c35 0 167 3 211 4c197 2 300 -86 299 -207c-2 -95 -48 -158 -134 -203l110 -160c22 -33 61 -86 82 -114zM865 492c63 0 124 -15 160 -33l-32 -107 c-34 21 -77 35 -118 35c-39 0 -64 -14 -64 -43c0 -61 236 -48 236 -200c0 -104 -87 -162 -206 -162c-55 0 -138 16 -179 40l5 120c44 -27 112 -54 172 -54c43 0 68 16 68 42c0 70 -234 51 -234 208c0 86 73 154 192 154zM243 350h72c76 0 123 47 123 111 c0 65 -34 107 -131 107c-23 0 -44 -1 -64 -1v-217z" unicode="₨" horiz-adv-x="1100" glyph-name="rupee"/>
<glyph d="M1110 488c-1 -30 -3 -72 -3 -100c-39 1 -82 1 -128 1l-36 -100c63 0 129 1 167 2c-2 -20 -5 -77 -5 -99c-54 0 -129 1 -195 2l-3 -9c-29 -83 -47 -134 -65 -191l-99 -9l-71 209h-171l-10 -30c-19 -55 -40 -112 -62 -176h-100l-72 206c-67 -1 -139 -1 -198 -1 c1 21 1 78 0 100c37 -1 102 -1 164 -2l-34 99c-44 -1 -88 -1 -129 -1c2 28 3 70 3 100c25 -1 57 -2 92 -2c-22 60 -48 138 -70 196l165 8l60 -205h166l13 41c11 39 41 125 53 163l94 8l69 -212h161l11 38c15 53 31 112 46 162h161l-71 -200c37 0 69 1 97 2zM451 408h-117 l57 -193zM730 408l62 -190l52 190h-114zM585 448l-59 -177h120z" unicode="₩" horiz-adv-x="1168" glyph-name="won"/>
<glyph d="M272 122c-22 77 -39 138 -52 188l83 -6l47 -134c11 -35 32 -47 68 -47h128l-1 243c0 35 -2 134 -3 160h104c-7 -43 -7 -169 -7 -224v-302h-224c-92 0 -121 42 -143 122zM389 218v120c0 43 -25 64 -65 64h-149v-289c0 -35 0 -87 2 -113h-104c5 43 8 122 8 180v346h241 c99 0 154 -48 157 -121c1 -16 1 -59 1 -84c1 -36 2 -73 5 -101z" unicode="₪" horiz-adv-x="718" glyph-name="sheqel"/>
<glyph d="M652 152c-20 0 -78 1 -139 1c-5 -45 -15 -125 -15 -153h-120c7 31 18 92 26 153h-131c-5 -44 -14 -125 -15 -153h-119c8 31 18 92 27 154c-58 0 -121 -1 -141 -2c5 26 14 77 18 109c21 -1 74 -2 136 -2l18 137c-58 0 -121 -2 -142 -3c5 27 14 77 18 110 c21 -1 75 -2 138 -2c7 61 11 125 12 157c54 0 73 1 119 5c-7 -32 -20 -118 -25 -162h132c7 61 12 125 13 157c54 0 74 1 120 5c-7 -32 -19 -118 -25 -162c65 0 123 1 144 2c-8 -31 -15 -75 -19 -110c-19 0 -77 1 -139 1l-17 -135c64 0 124 1 145 2c-8 -30 -15 -75 -19 -109z M304 395l-18 -136h132l18 135z" unicode="#" horiz-adv-x="726" glyph-name="numbersign"/>
<glyph d="M678 157c-20 0 -82 1 -145 1c-5 -47 -15 -129 -16 -158h-125c8 32 19 95 28 158l-136 1c-5 -46 -15 -130 -15 -159h-125c8 32 19 96 28 160c-61 0 -126 -2 -146 -3c5 28 14 81 18 115c22 -1 78 -2 142 -2l18 142c-61 0 -125 -2 -147 -3c5 27 14 80 19 114 c21 -1 78 -2 142 -2c7 63 12 131 13 164c57 0 77 1 124 6c-6 -34 -20 -124 -25 -170h137c7 63 12 131 13 164c56 0 76 1 124 6c-6 -34 -19 -124 -26 -170c67 0 128 1 151 2c-8 -31 -16 -78 -20 -114c-20 0 -80 1 -145 1l-17 -140c67 0 128 1 151 2c-8 -32 -17 -79 -20 -115z M316 411l-18 -141h136l19 140z" horiz-adv-x="755" glyph-name="numbersign.lin"/>
<glyph d="M73 0c6 45 9 165 10 225l2 216c0 61 0 175 -5 219l99 9l349 -406v168c0 61 -2 181 -8 225c38 0 133 2 165 5c-4 -26 -5 -101 -5 -138l-4 -392c-1 -35 0 -109 3 -136l-96 -8l-349 403v-255c0 -36 1 -108 4 -135h-165zM1180 485c0 -120 -83 -208 -208 -208 c-119 0 -197 85 -197 190c0 119 83 208 208 208c120 0 197 -85 197 -190zM1182 214c-2 -27 -4 -73 -4 -102c-66 1 -129 1 -206 1c-76 0 -133 0 -200 -1c3 21 3 72 3 102c81 -2 132 -3 198 -3c64 0 131 1 209 3zM980 581c-46 0 -75 -39 -75 -102c0 -75 30 -109 71 -109 c46 0 75 39 75 102c0 77 -32 109 -71 109z" unicode="№" horiz-adv-x="1232" glyph-name="numero"/>
<glyph d="M559 0h-97c5 45 6 164 6 224v208c0 59 -1 181 -7 226c55 0 50 1 98 4c-3 -27 -5 -101 -5 -137v-391c0 -36 2 -108 5 -134zM277 662c61 0 78 -2 126 -2c-3 -27 -4 -99 -4 -135v-391c0 -36 1 -108 3 -134h-99c5 41 8 151 8 206v21c-201 0 -276 96 -276 226 c0 106 82 209 242 209z" unicode="¶" horiz-adv-x="638" glyph-name="paragraph"/>
<glyph d="M287 690c66 0 88 -2 140 -2c-3 -29 -5 -103 -5 -141v-408c0 -37 2 -112 4 -139h-111c4 43 7 157 7 214v23c-209 0 -288 99 -288 235c0 110 86 218 253 218zM602 0h-110c5 47 6 170 6 234v216c0 62 0 189 -7 236c59 0 59 1 111 4c-3 -28 -5 -105 -5 -143v-408 c0 -37 2 -112 5 -139z" horiz-adv-x="681" glyph-name="paragraph.lin"/>
<glyph d="M40 248c0 58 33 105 90 131c-44 29 -71 70 -71 122c0 94 78 169 206 169c66 0 130 -18 170 -40l-29 -112c-41 22 -92 39 -138 39c-43 0 -69 -22 -69 -53c0 -80 265 -79 265 -237c0 -60 -32 -106 -86 -133c45 -27 73 -67 73 -118c0 -103 -81 -174 -221 -174 c-62 0 -137 19 -183 45l4 127c46 -29 118 -58 184 -58c49 0 77 22 77 56c0 78 -272 75 -272 236zM172 267c0 -35 41 -56 106 -83c33 12 54 36 54 63c0 37 -47 58 -102 82c-41 -13 -58 -37 -58 -62z" unicode="§" horiz-adv-x="500" glyph-name="section"/>
<glyph d="M40 264c0 61 35 110 94 137c-46 29 -74 70 -74 124c0 98 80 178 213 178c69 0 139 -19 181 -42l-31 -116c-44 23 -97 40 -146 40c-45 0 -72 -22 -72 -55c0 -82 278 -81 278 -245c0 -63 -34 -110 -91 -138c48 -28 78 -67 78 -121c0 -108 -84 -182 -229 -182 c-66 0 -145 20 -194 47l5 131c48 -30 124 -60 195 -60c50 0 79 23 79 58c0 80 -286 78 -286 244zM176 282c0 -34 43 -55 111 -82c37 11 60 36 60 65c0 38 -50 60 -109 83c-43 -12 -62 -38 -62 -66z" horiz-adv-x="520" glyph-name="section.lin"/>
<glyph d="M163 632c-37 0 -75 -14 -101 -30l-13 82c36 20 87 36 137 36c93 0 135 -41 133 -128l-3 -111c-1 -17 7 -22 17 -22c8 0 14 1 19 4l-5 -66c-18 -8 -36 -13 -58 -13c-37 0 -63 14 -73 51c-19 -32 -59 -51 -95 -51c-56 0 -93 35 -93 89c0 62 54 107 157 107c7 0 17 -1 26 -1 l1 10c1 29 -15 43 -49 43zM164 455c25 0 45 18 46 48v24c-6 0 -11 1 -17 1c-42 0 -62 -17 -62 -40c0 -18 11 -33 33 -33z" unicode="ª" horiz-adv-x="365" glyph-name="ordfeminine"/>
<glyph d="M163 661c-37 0 -76 -13 -101 -28l-13 82c36 20 87 36 137 36c93 0 135 -42 133 -128l-3 -105c0 -19 7 -28 18 -28c5 0 10 2 14 3l8 -61c-20 -11 -44 -17 -67 -17c-37 0 -63 14 -73 51c-19 -33 -59 -51 -95 -51c-56 0 -93 35 -93 89c0 61 56 105 158 105c8 0 16 -1 25 -2 l1 12c1 28 -15 42 -49 42zM165 485c23 0 44 15 45 45v27c-6 0 -13 1 -19 1c-41 0 -60 -17 -60 -39c0 -18 11 -34 34 -34z" horiz-adv-x="360" glyph-name="ordfeminine.lin"/>
<glyph d="M364 560c0 -101 -69 -176 -171 -176c-99 0 -163 72 -163 161c0 100 69 175 171 175c99 0 163 -72 163 -160zM254 550c0 64 -25 89 -56 89c-34 0 -58 -31 -58 -84c0 -62 24 -89 56 -89c35 0 58 30 58 84z" unicode="º" horiz-adv-x="394" glyph-name="ordmasculine"/>
<glyph d="M364 590c0 -100 -69 -176 -171 -176c-99 0 -163 73 -163 161c0 101 69 176 171 176c99 0 163 -72 163 -161zM254 580c0 65 -25 90 -56 90c-34 0 -58 -31 -58 -84c0 -63 24 -90 56 -90c35 0 58 31 58 84z" horiz-adv-x="389" glyph-name="ordmasculine.lin"/>
<glyph d="M358 569c0 -96 -67 -172 -170 -172c-98 0 -161 74 -161 157c0 96 68 171 169 171c100 0 162 -73 162 -156zM266 562c0 48 -27 81 -73 81s-73 -36 -73 -81c0 -48 27 -82 72 -82c46 0 74 36 74 82z" unicode="°" horiz-adv-x="386" glyph-name="degree"/>
<glyph d="M358 600c0 -97 -67 -172 -170 -172c-98 0 -161 73 -161 157c0 95 68 170 169 170c100 0 162 -72 162 -155zM266 593c0 48 -27 81 -73 81s-73 -36 -73 -81c0 -49 27 -83 72 -83c46 0 74 37 74 83z" horiz-adv-x="381" glyph-name="degree.lin"/>
<glyph d="M350 539c0 -117 -90 -239 -198 -239c-79 0 -124 57 -124 136c0 116 91 238 199 238c78 0 123 -56 123 -135zM718 224c0 -116 -90 -238 -198 -238c-79 0 -123 57 -123 136c0 115 91 238 198 238c79 0 123 -56 123 -136zM145 -33l-72 44c68 82 90 112 126 160l279 364 c69 89 99 128 118 158c9 -6 62 -41 72 -46c-26 -31 -66 -83 -91 -116l-357 -466zM252 545c0 31 -11 48 -33 48c-46 0 -93 -92 -93 -163c0 -31 11 -47 33 -47c46 0 93 91 93 162zM621 231c0 30 -11 47 -33 47c-46 0 -93 -92 -93 -162c0 -31 10 -48 33 -48c46 0 93 92 93 163z " unicode="%" horiz-adv-x="746" glyph-name="percent"/>
<glyph d="M234 700c81 0 129 -59 129 -141c0 -120 -94 -247 -207 -247c-81 0 -128 59 -128 141c0 120 94 247 206 247zM164 396c49 0 97 97 97 170c0 32 -11 50 -34 50c-48 0 -96 -97 -96 -170c0 -32 10 -50 33 -50zM150 -34l-75 45c70 85 94 117 131 166l290 379 c71 93 102 133 122 163c10 -5 66 -42 76 -47c-26 -32 -68 -86 -94 -120l-371 -485c-26 -33 -46 -60 -79 -101zM617 373c81 0 128 -59 128 -141c0 -120 -94 -247 -206 -247c-81 0 -129 58 -129 141c0 119 94 247 207 247zM546 69c49 0 97 96 97 169c0 33 -11 50 -34 50 c-48 0 -96 -96 -96 -169c0 -32 10 -50 33 -50z" horiz-adv-x="774" glyph-name="percent.lin"/>
<glyph d="M104 432l-66 -11c4 86 7 195 7 285l140 14c-20 -87 -58 -223 -81 -288zM295 437l-66 -12c4 86 7 196 7 286l139 14c-20 -88 -58 -224 -80 -288z" unicode='&quot;' horiz-adv-x="400" glyph-name="quotedbl"/>
<glyph d="M109 465l-66 -11c4 85 7 195 7 285l141 14c-21 -87 -59 -223 -82 -288zM300 469l-66 -11c4 86 7 195 7 286l140 13c-21 -87 -59 -223 -81 -288z" horiz-adv-x="404" glyph-name="quotedbl.lin"/>
<glyph d="M104 432l-66 -11c4 86 7 195 7 285l140 14c-20 -87 -58 -223 -81 -288z" unicode="&apos;" horiz-adv-x="209" glyph-name="quotesingle"/>
<glyph d="M109 465l-66 -11c4 85 7 195 7 285l141 14c-21 -87 -59 -223 -82 -288z" horiz-adv-x="214" glyph-name="quotesingle.lin"/>
<glyph d="M497 331c-3 -31 -5 -74 -6 -108l-141 2h-14v-26c0 -36 1 -120 4 -147h-117c4 38 6 117 7 173h-23l-139 -2c2 25 3 75 3 108c46 -2 104 -3 159 -4c-1 56 -3 133 -7 170c34 0 80 3 117 5c-3 -28 -4 -114 -4 -150v-25c51 1 117 2 161 4z" unicode="+" horiz-adv-x="565" glyph-name="plus"/>
<glyph d="M498 389c-3 -31 -5 -76 -6 -110l-141 2h-14v-26c0 -36 1 -120 4 -146h-119c4 37 6 116 7 172h-23l-138 -2c2 26 3 77 3 110c45 -2 103 -3 158 -4c-1 56 -3 133 -7 169c34 0 82 3 119 5c-3 -27 -4 -114 -4 -150v-24c51 1 117 2 161 4z" horiz-adv-x="565" glyph-name="plus.lin"/>
<glyph d="M477 331c-3 -31 -5 -74 -5 -108c-59 1 -101 2 -170 2h-41c-69 0 -115 -1 -173 -2c2 26 3 75 3 108c70 -2 110 -3 193 -3c84 0 123 1 193 3z" unicode="−" horiz-adv-x="565" glyph-name="minus"/>
<glyph d="M478 390c-3 -31 -5 -77 -5 -111c-60 1 -102 2 -171 2h-41c-69 0 -115 -1 -173 -2c2 26 3 78 3 111c69 -2 110 -3 193 -3c84 0 124 1 194 3z" horiz-adv-x="565" glyph-name="minus.lin"/>
<glyph d="M500 329c-3 -31 -5 -70 -5 -104c-59 1 -112 2 -181 2h-71c-68 0 -124 -1 -182 -2c2 27 3 71 3 104c69 -2 135 -3 217 -3c84 0 150 1 219 3zM353 459c0 -39 -31 -74 -77 -74c-44 0 -73 34 -73 68c0 40 31 74 76 74c44 0 74 -33 74 -68zM353 100c0 -39 -31 -74 -77 -74 c-44 0 -73 34 -73 68c0 40 31 74 76 74c44 0 74 -33 74 -68z" unicode="÷" horiz-adv-x="561" glyph-name="divide"/>
<glyph d="M505 388c-3 -31 -5 -73 -5 -107c-59 1 -111 2 -180 2h-71c-69 0 -124 -1 -183 -2c2 26 3 74 3 107c70 -2 135 -3 218 -3c84 0 149 1 218 3zM359 517c0 -39 -30 -75 -77 -75c-46 0 -74 35 -74 69c0 40 30 75 77 75c45 0 74 -34 74 -69zM359 156c0 -39 -30 -75 -77 -75 c-46 0 -74 35 -74 69c0 40 30 76 77 76c45 0 74 -35 74 -70z" horiz-adv-x="561" glyph-name="divide.lin"/>
<glyph d="M488 235c-3 -30 -5 -72 -6 -104l-143 2h-118l-143 -2c2 24 3 72 3 104c60 -2 127 -4 203 -4c64 0 144 2 204 4zM488 419c-3 -29 -5 -71 -6 -104l-143 2h-118l-143 -2c2 25 3 73 3 104c60 -2 127 -4 203 -4c64 0 144 2 204 4z" unicode="=" horiz-adv-x="565" glyph-name="equal"/>
<glyph d="M488 293c-3 -30 -5 -75 -6 -108l-143 2h-118l-143 -2c2 25 3 76 3 108c60 -2 127 -4 203 -4c64 0 144 2 204 4zM488 479c-3 -29 -5 -74 -6 -107l-143 2h-118l-143 -2c2 25 3 76 3 107c60 -2 127 -4 203 -4c64 0 144 2 204 4z" horiz-adv-x="565" glyph-name="equal.lin"/>
<glyph d="M503 129l-82 -75c-36 40 -82 91 -137 150c-76 -76 -108 -111 -145 -149c-17 19 -52 54 -76 78l148 143c-60 60 -108 106 -148 144c25 20 59 49 83 73c38 -39 67 -72 138 -144c58 59 104 110 139 149c22 -25 51 -55 74 -80c-39 -38 -69 -71 -140 -143 c76 -76 106 -108 146 -146z" unicode="×" horiz-adv-x="565" glyph-name="multiply"/>
<glyph d="M504 186c-20 -18 -59 -54 -83 -77c-36 41 -82 92 -137 151c-76 -77 -108 -111 -145 -149c-17 18 -53 56 -77 80c39 37 88 84 148 143c-60 59 -108 106 -148 143c25 21 60 50 84 75c38 -40 67 -72 138 -145c58 60 104 111 139 150c22 -25 52 -57 75 -82 c-39 -38 -69 -70 -140 -143c76 -76 106 -108 146 -146z" horiz-adv-x="565" glyph-name="multiply.lin"/>
<glyph d="M391 23c-50 40 -246 196 -285 226l-2 44c39 30 258 213 286 237l67 -84c-30 -22 -70 -53 -128 -101l-88 -71l92 -72c46 -36 99 -76 125 -93z" unicode="&lt;" horiz-adv-x="570" glyph-name="less"/>
<glyph d="M390 79c-50 40 -245 196 -285 226l-2 47c39 30 258 213 287 236l68 -85c-30 -22 -70 -53 -128 -101l-88 -71l92 -72c46 -36 99 -75 125 -93z" horiz-adv-x="570" glyph-name="less.lin"/>
<glyph d="M179 530c50 -40 246 -196 285 -226l2 -44c-39 -30 -258 -213 -286 -237l-67 84c30 22 70 53 128 101l87 71l-91 72c-46 36 -99 76 -125 93z" unicode="&gt;" horiz-adv-x="570" glyph-name="greater"/>
<glyph d="M180 588c50 -39 245 -196 285 -225l2 -47c-39 -30 -258 -213 -287 -237l-68 86c30 22 70 52 128 100l87 72l-91 71c-46 37 -99 76 -125 93z" horiz-adv-x="570" glyph-name="greater.lin"/>
<glyph d="M492 423c-3 -31 -5 -75 -6 -109l-141 2h-9v-14c0 -34 1 -110 4 -133h-117c4 34 6 96 7 147h-17l-140 -2c2 26 3 76 3 109c46 -2 99 -3 154 -4c-1 53 -3 115 -7 149c34 0 80 3 117 5c-3 -25 -4 -106 -4 -141v-13c51 1 112 2 156 4zM492 106c-3 -31 -5 -74 -5 -108 c-62 1 -107 2 -180 2h-52c-72 0 -120 -1 -182 -2c2 26 3 75 3 108c74 -2 121 -3 208 -3s134 1 208 3z" unicode="±" horiz-adv-x="565" glyph-name="plusminus"/>
<glyph d="M492 481c-3 -31 -5 -77 -6 -111l-140 2h-9v-14c0 -34 1 -109 4 -133h-120c5 35 7 95 7 147h-17l-138 -2c2 26 3 78 3 111c46 -2 97 -3 152 -4c-1 54 -3 114 -7 149c34 0 83 3 120 5c-3 -25 -4 -106 -4 -140v-14c51 1 112 2 155 4zM492 164c-3 -31 -5 -76 -5 -110 c-62 1 -107 2 -180 2h-52c-72 0 -121 -1 -182 -2c2 26 3 77 3 110c74 -2 121 -3 208 -3s135 1 208 3z" horiz-adv-x="565" glyph-name="plusminus.lin"/>
<glyph d="M184 -22l-72 30c60 85 109 156 167 246l135 208c89 139 138 221 154 250c10 -5 62 -27 72 -32c-23 -32 -69 -99 -147 -220l-176 -269c-72 -115 -106 -173 -133 -213zM132 589l-81 -22l-13 82c23 6 102 30 116 35l49 15l36 -7c-2 -17 -2 -58 -2 -81v-255 c0 -20 0 -62 2 -77h-111c3 26 4 95 4 130v180zM522 281l-33 84c40 31 95 55 153 55c85 0 144 -45 144 -120c0 -60 -34 -99 -76 -139c-31 -28 -64 -55 -89 -73c55 1 124 4 171 5c-1 -30 -3 -59 -4 -95c-49 1 -85 2 -144 2c-58 0 -104 -1 -152 -2l-8 75c65 51 114 89 145 120 c35 34 52 59 52 85c0 29 -20 46 -54 46c-32 0 -68 -14 -105 -43z" unicode="½" horiz-adv-x="840" glyph-name="onehalf"/>
<glyph d="M616 281l-33 84c40 31 95 55 153 55c85 0 144 -45 144 -120c0 -60 -34 -99 -76 -139c-31 -28 -64 -55 -89 -73c55 1 124 4 171 5c-1 -30 -3 -59 -4 -95c-49 1 -85 2 -144 2c-58 0 -104 -1 -152 -2l-8 75c65 51 114 89 145 120c35 34 52 59 52 85c0 29 -20 46 -54 46 c-32 0 -68 -14 -105 -43zM348 368c-1 -14 -2 -75 -1 -90c-25 1 -81 1 -85 1h-114c-27 0 -60 0 -91 -1c0 11 0 80 -1 90c20 -2 59 -3 76 -3h23v44v180l-86 -23l-12 82c24 6 103 31 117 36l49 15l36 -7c-2 -17 -2 -58 -2 -81v-246h19c17 0 55 1 72 3zM286 -22l-72 30 c60 85 109 156 167 246l135 208c89 139 138 221 154 250c10 -5 62 -27 72 -32c-23 -32 -69 -99 -147 -220l-176 -269c-72 -115 -106 -173 -133 -213z" horiz-adv-x="934" glyph-name="onehalf.alt"/>
<glyph d="M507 7l-11 87c37 -9 69 -16 105 -16c61 0 93 16 93 42c0 33 -45 49 -128 50l-8 61c97 16 132 37 132 65c0 19 -21 37 -68 37c-34 0 -72 -10 -104 -28l-19 78c41 21 90 37 144 37c90 0 150 -43 150 -101c0 -55 -42 -86 -106 -106c80 -15 114 -52 114 -98 c0 -79 -74 -124 -184 -124c-36 0 -73 4 -110 16zM132 589l-81 -22l-13 82c23 6 102 30 116 35l49 15l36 -7c-2 -17 -2 -58 -2 -81v-255c0 -20 0 -62 2 -77h-111c3 26 4 95 4 130v180zM183 -22l-72 30c60 85 109 156 167 246l135 208c89 139 138 221 154 250 c10 -5 62 -27 72 -32c-23 -32 -69 -99 -147 -220l-176 -269c-72 -115 -106 -173 -133 -213z" unicode="⅓" horiz-adv-x="840" glyph-name="onethird"/>
<glyph d="M601 7l-11 87c37 -9 69 -16 105 -16c61 0 93 16 93 42c0 33 -45 49 -128 50l-8 61c97 16 132 37 132 65c0 19 -21 37 -68 37c-34 0 -72 -10 -104 -28l-19 78c41 21 90 37 144 37c90 0 150 -43 150 -101c0 -55 -42 -86 -106 -106c80 -15 114 -52 114 -98 c0 -79 -74 -124 -184 -124c-36 0 -73 4 -110 16zM348 368c-1 -14 -2 -75 -1 -90c-25 1 -81 1 -85 1h-114c-27 0 -60 0 -91 -1c0 11 0 80 -1 90c20 -2 59 -3 76 -3h23v44v180l-86 -23l-12 82c24 6 103 31 117 36l49 15l36 -7c-2 -17 -2 -58 -2 -81v-246h19c17 0 55 1 72 3z M289 -22l-72 30c60 85 109 156 167 246l135 208c89 139 138 221 154 250c10 -5 62 -27 72 -32c-23 -32 -69 -99 -147 -220l-176 -269c-72 -115 -106 -173 -133 -213z" horiz-adv-x="934" glyph-name="onethird.alt"/>
<glyph d="M601 7l-11 87c37 -9 69 -16 105 -16c61 0 93 16 93 42c0 33 -45 49 -128 50l-8 61c97 16 132 37 132 65c0 19 -21 37 -68 37c-34 0 -72 -10 -104 -28l-19 78c41 21 90 37 144 37c90 0 150 -43 150 -101c0 -55 -42 -86 -106 -106c80 -15 114 -52 114 -98 c0 -79 -74 -124 -184 -124c-36 0 -73 4 -110 16zM93 560l-33 84c40 31 95 55 153 55c85 0 144 -46 144 -121c0 -60 -34 -99 -76 -138c-31 -29 -64 -55 -89 -73c55 1 124 4 171 5c-1 -30 -3 -59 -4 -95c-49 1 -85 2 -144 2c-58 0 -104 -1 -152 -2l-8 75c65 51 114 88 145 120 c35 34 52 59 52 85c0 29 -20 46 -54 46c-32 0 -68 -15 -105 -43zM293 -22l-72 30c60 85 109 156 167 246l135 208c89 139 138 221 154 250c10 -5 62 -27 72 -32c-23 -32 -69 -99 -147 -220l-176 -269c-72 -115 -106 -173 -133 -213z" unicode="⅔" horiz-adv-x="934" glyph-name="twothirds"/>
<glyph d="M658 0c3 17 3 52 3 76v14h-34c-49 0 -117 -1 -155 -3l-9 84l149 196l44 55l104 -7c-2 -17 -2 -48 -2 -71v-175c22 0 35 0 53 2c-3 -30 -5 -48 -5 -84l-48 2v-25c0 -20 0 -49 2 -64h-102zM217 -22l-72 30c60 85 109 156 167 246l135 208c89 139 138 221 154 250 c10 -5 62 -27 72 -32c-23 -32 -69 -99 -147 -220l-176 -269c-72 -115 -106 -173 -133 -213zM132 589l-81 -22l-13 82c23 6 102 30 116 35l49 15l36 -7c-2 -17 -2 -58 -2 -81v-255c0 -20 0 -62 2 -77h-111c3 26 4 95 4 130v180zM668 323l-118 -160c6 0 83 1 115 1z" unicode="¼" horiz-adv-x="840" glyph-name="onequarter"/>
<glyph d="M752 0c3 17 3 52 3 76v14h-34c-49 0 -117 -1 -155 -3l-9 84l149 196l44 55l104 -7c-2 -17 -2 -48 -2 -71v-175c22 0 35 0 53 2c-3 -30 -5 -48 -5 -84l-48 2v-25c0 -20 0 -49 2 -64h-102zM348 368c-1 -14 -2 -75 -1 -90c-25 1 -81 1 -85 1h-114c-27 0 -60 0 -91 -1 c0 11 0 80 -1 90c20 -2 59 -3 76 -3h23v44v180l-86 -23l-12 82c24 6 103 31 117 36l49 15l36 -7c-2 -17 -2 -58 -2 -81v-246h19c17 0 55 1 72 3zM313 -22l-72 30c60 85 109 156 167 246l135 208c89 139 138 221 154 250c10 -5 62 -27 72 -32c-23 -32 -69 -99 -147 -220 l-176 -269c-72 -115 -106 -173 -133 -213zM762 323l-118 -160c6 0 83 1 115 1z" horiz-adv-x="934" glyph-name="onequarter.alt"/>
<glyph d="M752 0c3 17 3 52 3 76v14h-34c-49 0 -117 -1 -155 -3l-9 84l149 196l44 55l104 -7c-2 -17 -2 -48 -2 -71v-175c22 0 35 0 53 2c-3 -30 -5 -48 -5 -84l-48 2v-25c0 -20 0 -49 2 -64h-102zM68 286l-11 87c37 -10 69 -16 105 -16c61 0 93 16 93 42c0 33 -45 49 -128 50 l-8 60c97 17 132 37 132 65c0 20 -21 37 -68 37c-34 0 -72 -10 -104 -27l-19 78c41 21 90 36 144 36c90 0 150 -42 150 -100c0 -55 -42 -86 -106 -107c80 -14 114 -52 114 -97c0 -79 -74 -124 -184 -124c-36 0 -73 4 -110 16zM301 -22l-72 30c60 85 109 156 167 246l135 208 c89 139 138 221 154 250c10 -5 62 -27 72 -32c-23 -32 -69 -99 -147 -220l-176 -269c-72 -115 -106 -173 -133 -213zM762 323l-118 -160c6 0 83 1 115 1z" unicode="¾" horiz-adv-x="934" glyph-name="threequarters"/>
<glyph d="M507 9l-6 88c40 -10 74 -17 110 -17c59 0 86 20 86 48c0 35 -36 51 -113 51c-21 0 -38 -1 -60 -3l-9 5c1 18 3 41 3 65l3 81v76l9 8c53 -1 64 -2 130 -2c51 0 80 1 126 2c-2 -21 -8 -65 -8 -92c-40 1 -53 2 -105 2h-62l-2 -68h13c94 0 176 -36 176 -128 c0 -81 -62 -134 -171 -134c-44 0 -82 6 -120 18zM192 -22l-72 30c60 85 109 156 167 246l135 208c89 139 138 221 154 250c10 -5 62 -27 72 -32c-23 -32 -69 -99 -147 -220l-176 -269c-72 -115 -106 -173 -133 -213zM132 589l-81 -22l-13 82c23 6 102 30 116 35l49 15l36 -7 c-2 -17 -2 -58 -2 -81v-255c0 -20 0 -62 2 -77h-111c3 26 4 95 4 130v180z" unicode="⅕" horiz-adv-x="840" glyph-name="onefifth"/>
<glyph d="M601 9l-6 88c40 -10 74 -17 110 -17c59 0 86 20 86 48c0 35 -36 51 -113 51c-21 0 -38 -1 -60 -3l-9 5c1 18 3 41 3 65l3 81v76l9 8c53 -1 64 -2 130 -2c51 0 80 1 126 2c-2 -21 -8 -65 -8 -92c-40 1 -53 2 -105 2h-62l-2 -68h13c94 0 176 -36 176 -128 c0 -81 -62 -134 -171 -134c-44 0 -82 6 -120 18zM348 368c-1 -14 -2 -75 -1 -90c-25 1 -81 1 -85 1h-114c-27 0 -60 0 -91 -1c0 11 0 80 -1 90c20 -2 59 -3 76 -3h23v44v180l-86 -23l-12 82c24 6 103 31 117 36l49 15l36 -7c-2 -17 -2 -58 -2 -81v-246h19c17 0 55 1 72 3z M294 -22l-72 30c60 85 109 156 167 246l135 208c89 139 138 221 154 250c10 -5 62 -27 72 -32c-23 -32 -69 -99 -147 -220l-176 -269c-72 -115 -106 -173 -133 -213z" horiz-adv-x="934" glyph-name="onefifth.alt"/>
<glyph d="M601 9l-6 88c40 -10 74 -17 110 -17c59 0 86 20 86 48c0 35 -36 51 -113 51c-21 0 -38 -1 -60 -3l-9 5c1 18 3 41 3 65l3 81v76l9 8c53 -1 64 -2 130 -2c51 0 80 1 126 2c-2 -21 -8 -65 -8 -92c-40 1 -53 2 -105 2h-62l-2 -68h13c94 0 176 -36 176 -128 c0 -81 -62 -134 -171 -134c-44 0 -82 6 -120 18zM93 560l-33 84c40 31 95 55 153 55c85 0 144 -46 144 -121c0 -60 -34 -99 -76 -138c-31 -29 -64 -55 -89 -73c55 1 124 4 171 5c-1 -30 -3 -59 -4 -95c-49 1 -85 2 -144 2c-58 0 -104 -1 -152 -2l-8 75c65 51 114 88 145 120 c35 34 52 59 52 85c0 29 -20 46 -54 46c-32 0 -68 -15 -105 -43zM298 -22l-72 30c60 85 109 156 167 246l135 208c89 139 138 221 154 250c10 -5 62 -27 72 -32c-23 -32 -69 -99 -147 -220l-176 -269c-72 -115 -106 -173 -133 -213z" unicode="⅖" horiz-adv-x="934" glyph-name="twofifths"/>
<glyph d="M601 9l-6 88c40 -10 74 -17 110 -17c59 0 86 20 86 48c0 35 -36 51 -113 51c-21 0 -38 -1 -60 -3l-9 5c1 18 3 41 3 65l3 81v76l9 8c53 -1 64 -2 130 -2c51 0 80 1 126 2c-2 -21 -8 -65 -8 -92c-40 1 -53 2 -105 2h-62l-2 -68h13c94 0 176 -36 176 -128 c0 -81 -62 -134 -171 -134c-44 0 -82 6 -120 18zM68 286l-11 87c37 -10 69 -16 105 -16c61 0 93 16 93 42c0 33 -45 49 -128 50l-8 60c97 17 132 37 132 65c0 20 -21 37 -68 37c-34 0 -72 -10 -104 -27l-19 78c41 21 90 36 144 36c90 0 150 -42 150 -100 c0 -55 -42 -86 -106 -107c80 -14 114 -52 114 -97c0 -79 -74 -124 -184 -124c-36 0 -73 4 -110 16zM279 -22l-72 30c60 85 109 156 167 246l135 208c89 139 138 221 154 250c10 -5 62 -27 72 -32c-23 -32 -69 -99 -147 -220l-176 -269c-72 -115 -106 -173 -133 -213z" unicode="⅗" horiz-adv-x="934" glyph-name="threefifths"/>
<glyph d="M227 279c3 17 3 52 3 76v13h-34c-49 0 -117 0 -155 -2l-9 83l149 197l44 55l104 -7c-2 -17 -2 -49 -2 -71v-175c19 0 36 0 53 1c-3 -30 -5 -47 -5 -83c-13 0 -30 1 -48 1v-24c0 -20 0 -49 2 -64h-102zM601 9l-6 88c40 -10 74 -17 110 -17c59 0 86 20 86 48 c0 35 -36 51 -113 51c-21 0 -38 -1 -60 -3l-9 5c1 18 3 41 3 65l3 81v76l9 8c53 -1 64 -2 130 -2c51 0 80 1 126 2c-2 -21 -8 -65 -8 -92c-40 1 -53 2 -105 2h-62l-2 -68h13c94 0 176 -36 176 -128c0 -81 -62 -134 -171 -134c-44 0 -82 6 -120 18zM289 -22l-72 30 c60 85 109 156 167 246l135 208c89 139 138 221 154 250c10 -5 62 -27 72 -32c-23 -32 -69 -99 -147 -220l-176 -269c-72 -115 -106 -173 -133 -213zM237 601l-118 -159h115z" unicode="⅘" horiz-adv-x="934" glyph-name="fourfifths"/>
<glyph d="M766 337c-108 -9 -173 -49 -192 -114c24 25 62 40 102 40c76 0 129 -54 129 -126c0 -83 -66 -147 -163 -147c-101 0 -162 64 -162 178c0 137 89 242 270 255zM206 -22l-72 30c60 85 109 156 167 246l135 208c89 139 138 221 154 250c10 -5 62 -27 72 -32 c-23 -32 -69 -99 -147 -220l-176 -269c-72 -115 -106 -173 -133 -213zM132 589l-81 -22l-13 82c23 6 102 30 116 35l49 15l36 -7c-2 -17 -2 -58 -2 -81v-255c0 -20 0 -62 2 -77h-111c3 26 4 95 4 130v180zM708 134c0 48 -28 67 -63 67c-37 0 -66 -25 -66 -64 c0 -44 29 -69 64 -69c38 0 65 25 65 66z" unicode="⅙" horiz-adv-x="840" glyph-name="onesixth"/>
<glyph d="M860 337c-108 -9 -173 -49 -192 -114c24 25 62 40 102 40c76 0 129 -54 129 -126c0 -83 -66 -147 -163 -147c-101 0 -162 64 -162 178c0 137 89 242 270 255zM348 368c-1 -14 -2 -75 -1 -90c-25 1 -81 1 -85 1h-114c-27 0 -60 0 -91 -1c0 11 0 80 -1 90 c20 -2 59 -3 76 -3h23v44v180l-86 -23l-12 82c24 6 103 31 117 36l49 15l36 -7c-2 -17 -2 -58 -2 -81v-246h19c17 0 55 1 72 3zM301 -22l-72 30c60 85 109 156 167 246l135 208c89 139 138 221 154 250c10 -5 62 -27 72 -32c-23 -32 -69 -99 -147 -220l-176 -269 c-72 -115 -106 -173 -133 -213zM802 134c0 48 -28 67 -63 67c-37 0 -66 -25 -66 -64c0 -44 29 -69 64 -69c38 0 65 25 65 66z" horiz-adv-x="934" glyph-name="onesixth.alt"/>
<glyph d="M860 337c-108 -9 -173 -49 -192 -114c24 25 62 40 102 40c76 0 129 -54 129 -126c0 -83 -66 -147 -163 -147c-101 0 -162 64 -162 178c0 137 89 242 270 255zM60 288l-6 88c40 -11 74 -17 110 -17c59 0 86 19 86 48c0 34 -36 50 -113 50c-21 0 -38 -1 -60 -2l-9 5 c1 18 3 40 3 64l3 82v76l9 8c53 -1 64 -2 130 -2c51 0 80 1 126 2c-2 -21 -8 -66 -8 -92c-40 1 -53 1 -105 1h-62l-2 -68h13c94 0 176 -35 176 -127c0 -81 -62 -134 -171 -134c-44 0 -82 5 -120 18zM287 -22l-72 30c60 85 109 156 167 246l135 208c89 139 138 221 154 250 c10 -5 62 -27 72 -32c-23 -32 -69 -99 -147 -220l-176 -269c-72 -115 -106 -173 -133 -213zM802 134c0 48 -28 67 -63 67c-37 0 -66 -25 -66 -64c0 -44 29 -69 64 -69c38 0 65 25 65 66z" unicode="⅚" horiz-adv-x="934" glyph-name="fivesixths"/>
<glyph d="M637 -10c-97 0 -160 46 -160 116c0 48 29 82 91 105c-47 19 -77 51 -77 95c0 69 66 115 153 115c90 0 150 -47 151 -111c0 -46 -25 -76 -81 -99c55 -22 89 -52 89 -100c0 -74 -69 -121 -166 -121zM194 -22l-72 30c60 85 109 156 167 246l135 208c89 139 138 221 154 250 c10 -5 62 -27 72 -32c-23 -32 -69 -99 -147 -220l-176 -269c-72 -115 -106 -173 -133 -213zM132 589l-81 -22l-13 82c23 6 102 30 116 35l49 15l36 -7c-2 -17 -2 -58 -2 -81v-255c0 -20 0 -62 2 -77h-111c3 26 4 95 4 130v180zM707 114c0 32 -29 50 -72 65 c-44 -16 -63 -38 -63 -64c0 -29 29 -50 70 -50c40 0 65 22 65 49zM581 302c0 -24 19 -44 69 -60c39 15 55 35 55 58c0 27 -24 47 -62 47s-62 -20 -62 -45z" unicode="⅛" horiz-adv-x="840" glyph-name="oneeighth"/>
<glyph d="M731 -10c-97 0 -160 46 -160 116c0 48 29 82 91 105c-47 19 -77 51 -77 95c0 69 66 115 153 115c90 0 150 -47 151 -111c0 -46 -25 -76 -81 -99c55 -22 89 -52 89 -100c0 -74 -69 -121 -166 -121zM348 368c-1 -14 -2 -75 -1 -90c-25 1 -81 1 -85 1h-114 c-27 0 -60 0 -91 -1c0 11 0 80 -1 90c20 -2 59 -3 76 -3h23v44v180l-86 -23l-12 82c24 6 103 31 117 36l49 15l36 -7c-2 -17 -2 -58 -2 -81v-246h19c17 0 55 1 72 3zM291 -22l-72 30c60 85 109 156 167 246l135 208c89 139 138 221 154 250c10 -5 62 -27 72 -32 c-23 -32 -69 -99 -147 -220l-176 -269c-72 -115 -106 -173 -133 -213zM801 114c0 32 -29 50 -72 65c-44 -16 -63 -38 -63 -64c0 -29 29 -50 70 -50c40 0 65 22 65 49zM675 302c0 -24 19 -44 69 -60c39 15 55 35 55 58c0 27 -24 47 -62 47s-62 -20 -62 -45z" horiz-adv-x="934" glyph-name="oneeighth.alt"/>
<glyph d="M731 -10c-97 0 -160 46 -160 116c0 48 29 82 91 105c-47 19 -77 51 -77 95c0 69 66 115 153 115c90 0 150 -47 151 -111c0 -46 -25 -76 -81 -99c55 -22 89 -52 89 -100c0 -74 -69 -121 -166 -121zM68 286l-11 87c37 -10 69 -16 105 -16c61 0 93 16 93 42 c0 33 -45 49 -128 50l-8 60c97 17 132 37 132 65c0 20 -21 37 -68 37c-34 0 -72 -10 -104 -27l-19 78c41 21 90 36 144 36c90 0 150 -42 150 -100c0 -55 -42 -86 -106 -107c80 -14 114 -52 114 -97c0 -79 -74 -124 -184 -124c-36 0 -73 4 -110 16zM278 -22l-72 30 c60 85 109 156 167 246l135 208c89 139 138 221 154 250c10 -5 62 -27 72 -32c-23 -32 -69 -99 -147 -220l-176 -269c-72 -115 -106 -173 -133 -213zM801 114c0 32 -29 50 -72 65c-44 -16 -63 -38 -63 -64c0 -29 29 -50 70 -50c40 0 65 22 65 49zM675 302 c0 -24 19 -44 69 -60c39 15 55 35 55 58c0 27 -24 47 -62 47s-62 -20 -62 -45z" unicode="⅜" horiz-adv-x="934" glyph-name="threeeighths"/>
<glyph d="M731 -10c-97 0 -160 46 -160 116c0 48 29 82 91 105c-47 19 -77 51 -77 95c0 69 66 115 153 115c90 0 150 -47 151 -111c0 -46 -25 -76 -81 -99c55 -22 89 -52 89 -100c0 -74 -69 -121 -166 -121zM62 288l-6 88c40 -11 74 -17 110 -17c59 0 86 19 86 48 c0 34 -36 50 -113 50c-21 0 -38 -1 -60 -2l-9 5c1 18 3 40 3 64l3 82v76l9 8c53 -1 64 -2 130 -2c51 0 80 1 126 2c-2 -21 -8 -66 -8 -92c-40 1 -53 1 -105 1h-62l-2 -68h13c94 0 176 -35 176 -127c0 -81 -62 -134 -171 -134c-44 0 -82 5 -120 18zM276 -22l-72 30 c60 85 109 156 167 246l135 208c89 139 138 221 154 250c10 -5 62 -27 72 -32c-23 -32 -69 -99 -147 -220l-176 -269c-72 -115 -106 -173 -133 -213zM801 114c0 32 -29 50 -72 65c-44 -16 -63 -38 -63 -64c0 -29 29 -50 70 -50c40 0 65 22 65 49zM675 302 c0 -24 19 -44 69 -60c39 15 55 35 55 58c0 27 -24 47 -62 47s-62 -20 -62 -45z" unicode="⅝" horiz-adv-x="934" glyph-name="fiveeighths"/>
</font>
</defs>
</svg>
