<?xml version="1.0" encoding="utf-8"?>
<!-- Generator: Adobe Illustrator 21.1.0, SVG Export Plug-In . SVG Version: 6.00 Build 0)  -->
<svg version="1.1" id="Layer_1" xmlns="http://www.w3.org/2000/svg" xmlns:xlink="http://www.w3.org/1999/xlink" x="0px" y="0px"
	 viewBox="0 0 314.9 36.4" style="enable-background:new 0 0 314.9 36.4;" xml:space="preserve">
<style type="text/css">
	.st0{fill:#999999;}
</style>
<g>
	<path class="st0" d="M20.1,11.6c2,1.4,3,3.6,3,6.3h-7.9c0-2.2-1.1-3.2-3.4-3.2c-0.9,0-1.7,0.2-2.2,0.5c-0.5,0.4-0.8,0.8-0.8,1.5
		c0,0.5,0.2,0.9,0.5,1.2c0.3,0.3,0.8,0.6,1.5,0.9s1.8,0.6,3.2,0.9c2.1,0.6,3.9,1.1,5.2,1.7c1.3,0.5,2.4,1.4,3.4,2.5
		c0.9,1.1,1.4,2.6,1.4,4.4c0,2.5-1,4.4-3.1,5.9c-2.1,1.5-5,2.2-8.6,2.2c-3.9,0-6.9-0.8-9-2.2C1,32.7,0,30.4,0,27.4h8.4
		c0,2.4,1.3,3.6,3.9,3.6c1,0,1.8-0.2,2.4-0.6c0.6-0.4,0.8-0.9,0.8-1.5c0-0.6-0.2-1.1-0.6-1.5c-0.4-0.4-0.9-0.7-1.7-1s-1.9-0.6-3.6-1
		c-2-0.5-3.5-1-4.7-1.5c-1.2-0.5-2.2-1.2-3-2.3c-0.8-1-1.3-2.5-1.3-4.3c0-2.4,1-4.3,3-5.8c2-1.5,4.7-2.2,8.2-2.2
		C15.4,9.4,18.1,10.1,20.1,11.6z"/>
	<path class="st0" d="M43.2,29.2v6.2c-0.6,0.2-1.2,0.3-2,0.4S39.6,36,39,36c-3.2,0-5.5-0.7-7-2c-1.5-1.3-2.2-3.5-2.2-6.5V16.2h-4
		v-6.1h4V3.3h8.3v6.8h4.8v6.1h-4.8v9.4c0,1.4,0.2,2.3,0.8,2.9c0.5,0.6,1.3,0.9,2.5,0.9C42,29.5,42.6,29.4,43.2,29.2z"/>
	<path class="st0" d="M61.3,30c0.8-0.6,1.2-1.3,1.3-2.2h8.4c-0.4,1.6-1.1,3.1-2.2,4.4c-1.1,1.3-2.6,2.3-4.4,3.1s-3.8,1.1-6,1.1
		c-2.8,0-5.1-0.6-7.1-1.8c-2-1.2-3.5-2.8-4.5-4.9c-1-2.1-1.5-4.4-1.5-7.1c0-2.5,0.5-4.8,1.5-6.8c1-2,2.5-3.6,4.5-4.8
		c2-1.1,4.3-1.7,7-1.7c3,0,5.5,0.7,7.6,2.2c2.1,1.4,3.6,3.4,4.5,6c0.4,1,0.6,2,0.8,3.1s0.2,2.4,0.2,4h-18c0.1,2.2,0.6,3.8,1.5,4.8
		s2,1.5,3.5,1.5C59.6,30.9,60.6,30.6,61.3,30z M55.2,16.1c-0.8,0.8-1.4,2.1-1.6,3.8h9.6c-0.2-1.7-0.7-3-1.6-3.8
		c-0.9-0.8-1.9-1.2-3.2-1.2C57.1,14.9,56.1,15.3,55.2,16.1z"/>
	<path class="st0" d="M95.5,12c1.9,1.8,2.9,4.3,2.9,7.7v8.8c0,3,0.2,5.4,0.8,7.2h-7.5c-0.2-0.9-0.3-2-0.3-3.3h-0.1
		c-1.9,2.6-4.7,4-8.2,4c-2.7,0-4.8-0.7-6.4-2.2c-1.6-1.5-2.4-3.3-2.4-5.6c0-2.2,0.8-4,2.3-5.4c1.6-1.3,4.1-2.3,7.8-2.9
		c2.1-0.3,4.1-0.6,6.1-0.7v-0.9c0-1.4-0.3-2.4-0.9-3c-0.6-0.6-1.5-1-2.6-1c-1.1,0-2,0.3-2.6,0.9c-0.6,0.6-0.9,1.5-1,2.6h-8
		c0.1-2.6,1.2-4.7,3.1-6.3s4.8-2.5,8.5-2.5C90.7,9.4,93.6,10.3,95.5,12z M85.8,24.6c-1.2,0.2-2.1,0.6-2.7,1.1
		c-0.5,0.5-0.8,1.2-0.8,2.1s0.3,1.6,0.8,2.1c0.6,0.5,1.4,0.8,2.4,0.8c0.7,0,1.3-0.1,1.9-0.3c0.6-0.2,1.1-0.5,1.6-1
		c0.5-0.5,0.8-1.1,1-1.8c0.2-0.6,0.2-1.5,0.2-2.7v-0.9C88.8,24.2,87.2,24.3,85.8,24.6z"/>
	<path class="st0" d="M119.7,35.6l-7.2-11.5h-0.1v11.5h-8.3V0h8.3v20.2h0.1l6.8-10h9.6l-9.1,11.9l10,13.6
		C129.9,35.6,119.7,35.6,119.7,35.6z"/>
	<path class="st0" d="M149.8,11.6c2,1.4,2.9,3.6,2.9,6.3h-7.9c0-2.2-1.1-3.2-3.4-3.2c-0.9,0-1.7,0.2-2.2,0.5
		c-0.5,0.4-0.8,0.8-0.8,1.5c0,0.5,0.2,0.9,0.5,1.2c0.3,0.3,0.8,0.6,1.5,0.9s1.8,0.6,3.2,0.9c2.1,0.6,3.9,1.1,5.2,1.7
		c1.3,0.5,2.4,1.4,3.4,2.5c0.9,1.1,1.4,2.6,1.4,4.4c0,2.5-1,4.4-3.1,5.9c-2.1,1.5-5,2.2-8.6,2.2c-3.9,0-6.9-0.8-9-2.2
		c-2.1-1.5-3.1-3.8-3.1-6.8h8.4c0,2.4,1.3,3.6,3.9,3.6c1,0,1.8-0.2,2.4-0.6c0.6-0.4,0.8-0.9,0.8-1.5c0-0.6-0.2-1.1-0.6-1.5
		c-0.4-0.4-0.9-0.7-1.7-1s-1.9-0.6-3.6-1c-2-0.5-3.5-1-4.7-1.5c-1.2-0.5-2.2-1.2-3-2.3c-0.8-1-1.2-2.5-1.2-4.3c0-2.4,1-4.3,2.9-5.8
		c2-1.5,4.7-2.2,8.2-2.2C145.1,9.4,147.8,10.1,149.8,11.6z"/>
	<path class="st0" d="M176.5,10.7c1.9,0.9,3.3,2.1,4.4,3.7c1.1,1.6,1.8,3.4,1.9,5.5h-8.6c-0.1-1.3-0.6-2.4-1.3-3.1s-1.6-1.1-2.8-1.1
		c-1.4,0-2.6,0.6-3.4,1.9c-0.8,1.3-1.2,3-1.2,5.3c0,2.3,0.4,4.1,1.2,5.4c0.8,1.3,2,1.9,3.4,1.9c1.1,0,2.1-0.4,2.8-1.2
		c0.7-0.8,1.1-2,1.2-3.5h8.6c-0.3,3.4-1.5,6-3.8,8c-2.3,2-5.2,3-8.8,3c-2.7,0-5-0.6-7-1.7s-3.6-2.7-4.6-4.7c-1.1-2-1.6-4.4-1.6-7.1
		c0-2.7,0.5-5.1,1.6-7.1c1.1-2,2.6-3.6,4.6-4.7s4.3-1.6,7-1.6C172.5,9.4,174.6,9.8,176.5,10.7z"/>
	<path class="st0" d="M187.2,6.6V0h8.3v6.6H187.2z M187.2,35.6V10.2h8.3v25.4H187.2z"/>
	<path class="st0" d="M216,30c0.8-0.6,1.2-1.3,1.4-2.2h8.4c-0.4,1.6-1.1,3.1-2.2,4.4c-1.1,1.3-2.6,2.3-4.4,3.1s-3.8,1.1-6,1.1
		c-2.8,0-5.1-0.6-7.1-1.8c-2-1.2-3.5-2.8-4.5-4.9c-1-2.1-1.6-4.4-1.6-7.1c0-2.5,0.5-4.8,1.6-6.8c1-2,2.5-3.6,4.5-4.8
		c2-1.1,4.3-1.7,7-1.7c3,0,5.5,0.7,7.6,2.2s3.6,3.4,4.5,6c0.4,1,0.6,2,0.8,3.1c0.1,1.1,0.2,2.4,0.2,4h-18.1c0.1,2.2,0.6,3.8,1.5,4.8
		c0.9,1,2.1,1.5,3.5,1.5C214.3,30.9,215.3,30.6,216,30z M209.9,16.1c-0.8,0.8-1.4,2.1-1.6,3.8h9.6c-0.2-1.7-0.7-3-1.6-3.8
		c-0.9-0.8-1.9-1.2-3.2-1.2C211.8,14.9,210.8,15.3,209.9,16.1z"/>
	<path class="st0" d="M252.9,12.2c1.6,1.8,2.5,4.4,2.5,7.8v15.6H247V20.9c0-1.6-0.3-2.9-0.9-3.7c-0.6-0.8-1.6-1.2-2.8-1.2
		c-1.3,0-2.4,0.5-3.1,1.6s-1.1,2.7-1.1,4.8v13.1h-8.3V10.2h7.8v3.1h0.1c0.9-1.2,1.9-2.1,3.2-2.7c1.2-0.6,2.7-1,4.2-1
		C248.9,9.6,251.2,10.4,252.9,12.2z"/>
	<path class="st0" d="M279.2,10.7c1.9,0.9,3.3,2.1,4.4,3.7s1.8,3.4,1.9,5.5H277c-0.1-1.3-0.6-2.4-1.3-3.1s-1.6-1.1-2.8-1.1
		c-1.4,0-2.6,0.6-3.4,1.9c-0.8,1.3-1.2,3-1.2,5.3c0,2.3,0.4,4.1,1.2,5.4c0.8,1.3,2,1.9,3.4,1.9c1.1,0,2.1-0.4,2.8-1.2
		c0.7-0.8,1.1-2,1.2-3.5h8.6c-0.3,3.4-1.5,6-3.8,8c-2.3,2-5.2,3-8.8,3c-2.7,0-5-0.6-7-1.7s-3.6-2.7-4.6-4.7c-1.1-2-1.6-4.4-1.6-7.1
		c0-2.7,0.5-5.1,1.6-7.1c1.1-2,2.6-3.6,4.6-4.7s4.3-1.6,7-1.6C275.3,9.4,277.4,9.8,279.2,10.7z"/>
	<path class="st0" d="M304.7,30c0.8-0.6,1.2-1.3,1.4-2.2h8.5c-0.4,1.6-1.1,3.1-2.2,4.4c-1.1,1.3-2.6,2.3-4.4,3.1s-3.8,1.1-6,1.1
		c-2.8,0-5.1-0.6-7.1-1.8c-2-1.2-3.5-2.8-4.5-4.9c-1-2.1-1.5-4.4-1.5-7.1c0-2.5,0.5-4.8,1.5-6.8c1-2,2.5-3.6,4.5-4.8
		c2-1.1,4.3-1.7,7-1.7c3,0,5.5,0.7,7.6,2.2c2.1,1.4,3.6,3.4,4.5,6c0.4,1,0.6,2,0.8,3.1c0.1,1.1,0.2,2.4,0.2,4h-18
		c0.1,2.2,0.6,3.8,1.5,4.8c0.9,1,2,1.5,3.4,1.5C303,30.9,303.9,30.6,304.7,30z M298.6,16.1c-0.8,0.8-1.4,2.1-1.6,3.8h9.5
		c-0.2-1.7-0.7-3-1.5-3.8c-0.9-0.8-1.9-1.2-3.2-1.2C300.5,14.9,299.4,15.3,298.6,16.1z"/>
</g>
</svg>
