<?xml version="1.0" encoding="UTF-8"?>
<svg width="611px" height="610px" viewBox="0 0 611 610" version="1.1" xmlns="http://www.w3.org/2000/svg" xmlns:xlink="http://www.w3.org/1999/xlink">
    <!-- Generator: Sketch 47.1 (45422) - http://www.bohemiancoding.com/sketch -->
    <title>logo_ss</title>
    <desc>Created with Sketch.</desc>
    <defs></defs>
    <g id="Page-1" stroke="none" stroke-width="1" fill="none" fill-rule="evenodd">
        <g id="logo_ss" transform="translate(-152.000000, -120.000000)">
            <g id="Layer_1" fill-rule="nonzero" fill="#333333">
                <path d="M457.5,129.629863 C620.732402,129.722661 752.970135,262.145991 752.784539,425.378393 C752.69174,543.974761 681.700957,651.064125 572.477229,697.277733 C422.143806,760.844643 248.796377,690.410651 185.322265,540.077227 C121.848153,389.743804 192.189348,216.303577 342.522771,152.829465 C342.522771,152.829465 342.522771,152.829465 342.522771,152.829465 C378.899747,137.424929 418.060676,129.537064 457.5,129.629863 L457.5,129.629863 Z M457.5,120.350022 C289.163685,120.350022 152.750024,256.763684 152.750024,425.099998 C152.750024,593.436313 289.163685,729.849975 457.5,729.849975 C625.836315,729.849975 762.249976,593.436313 762.249976,425.099998 C762.249976,256.763684 625.836315,120.257223 457.5,120.350022 L457.5,120.350022 Z" id="Shape"></path>
                <path d="M662,361.2 L661.9,360.7 C656.6,339.5 633.7,327 624,322.6 C606.4,314.6 585,310.5 558.5,310.1 C534.5,309.7 514.3,316.2 492.3,324.1 C479.5,328.8 466.4,332.6 453.1,335.4 C443.5,337.3 433.5,338.1 423.8,338.9 C418,339.4 412.1,339.8 406.2,340.5 C377.6,343.9 351.1,350.8 327.6,360.9 C271.1,385.1 256.3,411.8 253.9,430 C251.8,446.6 251.7,463.4 253.4,480.1 C254,486.3 254.8,492.7 256.8,498.4 C265.7,524.5 294.1,541.4 314.6,551.9 C339,564.3 374.1,579.9 409.3,579.9 C414,579.9 418.7,579.6 423.3,579 C444,576.4 478.1,569.5 535.4,539.9 C567.7,523.3 594.3,505.7 616.7,486.2 C630.2,474.4 646.9,458.4 656.5,438.1 C662.6,425.3 662.7,413.5 662.8,401 C663,389.1 663,375 662,361.2 Z M330,366.5 C353.1,356.6 379,349.9 407,346.6 C412.8,345.9 418.7,345.4 424.4,345 C434.2,344.2 444.4,343.4 454.4,341.4 C468,338.6 481.4,334.7 494.5,329.9 C515.4,322.4 534.6,316.2 556.9,316.2 L558.6,316.2 C584.2,316.6 604.9,320.5 621.7,328.1 C628.5,331.2 651.2,342.8 656.1,361.9 C656.4,365.6 656.6,369.3 656.7,373 C639.7,414.9 596.7,443.5 556.8,465.9 C534.2,478.5 510.9,489.5 486.8,498.9 C451.8,512.7 420.2,523.3 387.6,514.8 C348.4,504.5 304.1,491 274.7,461.7 C268,455.1 260.2,445.4 259.2,435.9 C259.4,434.2 259.6,432.5 259.8,430.9 C263.8,400.7 300.1,379.2 330,366.5 L330,366.5 Z M656.9,401 C656.8,412.8 656.6,424 651.1,435.6 C642,454.9 625.8,470.4 612.8,481.8 C590.7,501 564.5,518.3 532.7,534.7 C476.2,563.8 442.7,570.6 422.5,573.2 C393.5,576.9 360.1,568.5 317.3,546.7 C297.7,536.7 270.7,520.7 262.4,496.6 C260.7,491.5 259.9,485.4 259.3,479.6 C258.3,469.7 258,459.8 258.3,449.8 C261.5,455.7 265.6,461.2 270.4,465.9 C299.4,494.8 343.1,509.3 386,520.6 C394.4,522.8 403.1,523.9 411.8,523.9 C437,523.9 462,515.1 488.9,504.5 C513.2,495 536.9,483.9 559.7,471.2 C596.9,450.3 636.8,424.1 657,386.5 C657,391.5 656.9,396.4 656.9,401 Z" id="Shape" stroke="#333333" stroke-width="3"></path>
            </g>
            <g id="Layer_2" transform="translate(270.000000, 319.000000)" stroke="#333333" stroke-width="7">
                <path d="M0.5,78.6 L176.5,197.1" id="Shape"></path>
                <path d="M64.6,43 L248.1,166.5" id="Shape"></path>
                <path d="M154.3,25.2 L313.1,131.7" id="Shape"></path>
                <path d="M240.2,0.9 L368.6,87.3" id="Shape"></path>
            </g>
        </g>
    </g>
</svg>