<?xml version="1.0" encoding="utf-8"?>
<!-- Generator: Adobe Illustrator 21.1.0, SVG Export Plug-In . SVG Version: 6.00 Build 0)  -->
<svg version="1.1" id="Layer_1" xmlns="http://www.w3.org/2000/svg" xmlns:xlink="http://www.w3.org/1999/xlink" x="0px" y="0px"
	 viewBox="0 0 586 586" style="enable-background:new 0 0 586 586;" xml:space="preserve">
<style type="text/css">
	.st0{fill:none;stroke:#FFFFFF;stroke-width:3;stroke-miterlimit:10;}
	.st1{fill:none;stroke:#FFFFFF;stroke-width:5;stroke-miterlimit:10;}
	.st2{fill:#FFFFFF;}
</style>
<title>Artboard 2 copy 4</title>
<path class="st0" d="M100.4,288.5c0,0,26.7-62,170-53.3c0,0,75.3,2.7,133.3-19.3c0,0,70.7-20.7,92,26c0,0,6,15.3-12,28.7
	c0,0-68.7,60.7-198,110c0,0-97.3,30.7-167.3-27.3C118.4,353.2,82.4,328.5,100.4,288.5z"/>
<path class="st0" d="M496.7,246.6v32.7c0,0,2.4,12.9-9,20.8c0,0-66.7,55.9-156.7,97.2c0,0-65.3,37.3-144,20c0,0-82.1-18-91.7-64.7
	v-39.3"/>
<path class="st1" d="M241,285.1c16.5,5,28,15.8,28.6,28.8c0.8,18.9-21.8,35.2-50.8,36.7c-11,0.6-21.9-1.2-32.1-5.5l0,0
	c-12.8-5.6-21.3-15.1-21.9-26.2c-0.8-18.9,21.8-35.2,50.8-36.7C224.3,281.7,232.9,282.7,241,285.1"/>
<path class="st1" d="M257.1,336.4c-3.1-4-11.3-8.9-29.8-7.9c-15.3,0.7-34.6,5.6-41.3,16.1"/>
<path class="st2" d="M438,211.3c21.2,0,46.4,5.8,57.7,30.6c0.9,1.9,1.3,3.9,1.2,6l0.4,31.2c0,0,1.8,13-9.6,20.9
	c0,0-66.7,55.9-156.7,97.2c0,0-43,24.6-101.3,24.6c-14.4,0-28.7-1.5-42.7-4.6c0,0-82.1-18-91.7-64.7v-39.3c-0.1-8.5,1.6-16.9,5-24.7
	c0,0,23.3-54.2,143.4-54.2c8.4,0,17.2,0.3,26.6,0.8c0,0,2.9,0.1,7.9,0.1c20.8,0,78.7-1.7,125.4-19.4
	C414.8,212.9,426.4,211.4,438,211.3 M438,204.3L438,204.3c-12.3,0-24.5,1.7-36.3,4.8l-0.3,0.1l-0.3,0.1c-15,5.7-57.1,19-122.9,19
	c-4.4,0-7.1-0.1-7.6-0.1c-9.2-0.6-18.3-0.8-26.9-0.8c-122.2,0-148.4,55.1-149.8,58.3c-3.9,8.7-5.8,18.1-5.6,27.6v40l0.1,0.7
	c10.4,50.5,93.5,69.3,97.1,70.1c14.5,3.2,29.3,4.8,44.2,4.8c57.6,0,100.2-23,104.5-25.4c87-40,153.2-94.2,157.7-97.9
	c13.1-9.3,12.6-23.8,12.3-26.9l-0.4-30.5c0.2-3.2-0.4-6.5-1.9-9.4C491.6,216.3,469.5,204.4,438,204.3L438,204.3z"/>
<g>
	<path class="st2" d="M438.1,212.3c12.1,0,22.6,1.9,31.3,5.7c10.8,4.8,18.7,12.5,23.5,23c0.4,1.2,4.4,13.7-11,25.1l-0.1,0.1
		l-0.1,0.1c-0.2,0.2-17.5,15.3-50.3,36.3c-30.3,19.4-80.3,47.7-146.7,73.1c-1.6,0.5-26.5,8-59.3,8c-18.5,0-36.1-2.4-52.2-7
		c-19.9-5.8-37.7-15.1-53-27.7l0,0c-0.1-0.1-0.2-0.2-0.3-0.2c-5.5-4.2-32.4-26.6-16.9-61.1c0.1-0.1,6-13.2,26-26.1
		c11.8-7.6,26.2-13.7,42.7-18c20.7-5.5,44.9-8.2,71.8-8.2c8.5,0,17.4,0.3,26.5,0.8l0,0l0,0c0.1,0,3,0.1,8.2,0.1
		c22.4,0,79.6-1.9,126.2-19.6C406,216.4,420.7,212.3,438.1,212.3 M438.1,209.3c-18.8,0-34.4,4.6-34.4,4.6
		c-46.6,17.7-104.3,19.4-125.2,19.4c-5.1,0-8.1-0.1-8.1-0.1c-9.4-0.6-18.3-0.8-26.7-0.8c-120,0-143.3,54.1-143.3,54.1
		c-18,40,18,64.7,18,64.8c34,28.2,74.4,35.4,107.1,35.4c34.5,0,60.2-8.1,60.2-8.1c129.3-49.3,198-110,198-110
		c18-13.4,12-28.7,12-28.7C484.4,215.1,459.2,209.3,438.1,209.3L438.1,209.3z"/>
</g>
<path class="st2" d="M293,16.6c152.7,0.1,276.4,124,276.3,276.6c-0.1,111-66.5,211.2-168.7,254.4C260,607,97.7,541.1,38.3,400.5
	S44.8,97.6,185.4,38.2l0,0C219.5,23.9,256,16.5,293,16.6 M293,6C134.5,6,6,134.5,6,293s128.5,287,287,287s287-128.6,287-287
	S451.4,6,293,6z"/>
<path class="st2" d="M441.2,208.9c21.7,0,47.4,5.9,59,31.3c0.9,1.9,1.3,4,1.2,6.1l0.4,31.9c0,0,1.8,13.3-9.8,21.4
	c0,0-68.2,57.2-160.2,99.4c0,0-44,25.2-103.6,25.2c-14.7,0-29.3-1.5-43.7-4.7c0,0-84-18.4-93.8-66.2v-40.2
	c-0.1-8.7,1.6-17.3,5.1-25.3c0,0,23.8-55.4,146.6-55.4c8.6,0,17.6,0.3,27.2,0.8c0,0,3,0.1,8.1,0.1c21.3,0,80.5-1.7,128.2-19.8
	C417.5,210.6,429.3,209,441.2,208.9 M441.2,201.8L441.2,201.8c-12.6,0-25.1,1.7-37.1,4.9l-0.3,0.1l-0.3,0.1
	c-15.3,5.8-58.4,19.4-125.7,19.4c-4.5,0-7.3-0.1-7.8-0.1c-9.4-0.6-18.7-0.8-27.5-0.8c-125,0-151.8,56.3-153.2,59.6
	c-4,8.9-5.9,18.5-5.7,28.2v40.9l0.1,0.7c10.6,51.6,95.6,70.9,99.3,71.7c14.8,3.3,30,4.9,45.2,4.9c58.9,0,102.5-23.5,106.9-26
	c89-40.9,156.7-96.3,161.3-100.1c13.4-9.5,12.9-24.3,12.6-27.5l-0.4-31.2c0.2-3.3-0.4-6.6-1.9-9.6C496,214,473.4,201.9,441.2,201.8
	L441.2,201.8z"/>
<path class="st2" d="M293,10.8c155.9,0.1,282.2,126.6,282.1,282.4c-0.1,113.3-67.9,215.6-172.2,259.7
	C259.3,613.6,93.6,546.3,33,402.7S39.6,93.5,183.2,32.9l0,0C218,18.3,255.3,10.7,293,10.8 M293,0C131.1,0,0,131.1,0,293
	s131.1,293,293,293s293-131.3,293-293S454.7,0,293,0z"/>
</svg>
