<?xml version="1.0" encoding="utf-8"?>
<!-- Generator: Adobe Illustrator 16.0.4, SVG Export Plug-In . SVG Version: 6.00 Build 0)  -->
<!DOCTYPE svg PUBLIC "-//W3C//DTD SVG 1.1//EN" "http://www.w3.org/Graphics/SVG/1.1/DTD/svg11.dtd">
<svg version="1.1" id="Layer_1" xmlns="http://www.w3.org/2000/svg" xmlns:xlink="http://www.w3.org/1999/xlink" x="0px" y="0px"
	 width="611.435px" height="287.047px" viewBox="0 0 611.435 287.047" enable-background="new 0 0 611.435 287.047"
	 xml:space="preserve">
<rect x="0.385" fill="#333333" width="611.05" height="287.047"/>
<g>
	<rect x="0.385" y="209.119" fill="none" width="611.05" height="89.367"/>
	<path fill="#FFFFFF" d="M102.348,247.963c0-0.562-0.115-1.078-0.344-1.547c-0.229-0.469-0.641-0.896-1.234-1.281
		c-0.594-0.385-1.406-0.745-2.438-1.078c-1.031-0.333-2.349-0.656-3.953-0.969c-2-0.417-3.808-0.917-5.422-1.5
		c-1.615-0.583-3-1.281-4.156-2.094s-2.047-1.755-2.672-2.828c-0.625-1.073-0.938-2.317-0.938-3.734
		c0-1.375,0.323-2.682,0.969-3.922c0.646-1.239,1.567-2.328,2.766-3.266c1.198-0.938,2.656-1.682,4.375-2.234
		c1.719-0.552,3.641-0.828,5.766-0.828c2.25,0,4.266,0.281,6.047,0.844s3.286,1.328,4.516,2.297
		c1.229,0.969,2.172,2.109,2.828,3.422s0.984,2.719,0.984,4.219h-7.469c0-0.667-0.146-1.307-0.438-1.922
		c-0.292-0.614-0.729-1.161-1.312-1.641c-0.583-0.479-1.308-0.859-2.172-1.141c-0.865-0.281-1.859-0.422-2.984-0.422
		s-2.099,0.12-2.922,0.359c-0.823,0.24-1.505,0.552-2.047,0.938c-0.542,0.386-0.943,0.839-1.203,1.359
		c-0.261,0.521-0.391,1.062-0.391,1.625s0.099,1.073,0.297,1.531c0.198,0.458,0.567,0.875,1.109,1.25
		c0.542,0.375,1.292,0.714,2.25,1.016c0.958,0.302,2.198,0.589,3.719,0.859c2.125,0.375,4.036,0.844,5.734,1.406
		c1.698,0.562,3.146,1.25,4.344,2.062c1.198,0.812,2.12,1.776,2.766,2.891c0.646,1.115,0.969,2.422,0.969,3.922
		s-0.344,2.875-1.031,4.125s-1.667,2.328-2.938,3.234c-1.271,0.906-2.797,1.609-4.578,2.109s-3.776,0.75-5.984,0.75
		c-2.458,0-4.625-0.328-6.5-0.984s-3.448-1.516-4.719-2.578c-1.271-1.062-2.234-2.271-2.891-3.625
		c-0.656-1.354-0.984-2.729-0.984-4.125h7.25c0.062,1.042,0.333,1.927,0.812,2.656c0.479,0.729,1.094,1.318,1.844,1.766
		c0.75,0.448,1.583,0.771,2.5,0.969c0.917,0.198,1.844,0.297,2.781,0.297c2.312,0,4.073-0.391,5.281-1.172
		C101.743,250.197,102.348,249.192,102.348,247.963z"/>
	<path fill="#FFFFFF" d="M133.691,215.119v8.188h12.781v5.562h-12.781v16.219c0,1.271,0.151,2.323,0.453,3.156
		c0.302,0.833,0.724,1.5,1.266,2c0.542,0.5,1.177,0.849,1.906,1.047c0.729,0.198,1.531,0.297,2.406,0.297
		c0.646,0,1.317-0.036,2.016-0.109c0.698-0.073,1.375-0.156,2.031-0.25s1.26-0.198,1.812-0.312c0.552-0.114,1.016-0.224,1.391-0.328
		l0.844,5.156c-0.542,0.312-1.193,0.599-1.953,0.859c-0.761,0.261-1.589,0.474-2.484,0.641c-0.896,0.167-1.828,0.297-2.797,0.391
		s-1.922,0.141-2.859,0.141c-1.688,0-3.234-0.234-4.641-0.703s-2.615-1.198-3.625-2.188c-1.011-0.989-1.802-2.26-2.375-3.812
		c-0.573-1.552-0.859-3.411-0.859-5.578v-16.625h-8.25v-5.562h8.25v-8.188H133.691z"/>
	<path fill="#FFFFFF" d="M172.879,257.744c-2.5,0-4.781-0.417-6.844-1.25s-3.828-1.979-5.297-3.438
		c-1.469-1.458-2.609-3.182-3.422-5.172c-0.812-1.989-1.219-4.141-1.219-6.453v-1.281c0-2.688,0.432-5.104,1.297-7.25
		c0.864-2.146,2.021-3.979,3.469-5.5c1.448-1.521,3.135-2.688,5.062-3.5c1.927-0.812,3.953-1.219,6.078-1.219
		c2.458,0,4.625,0.412,6.5,1.234c1.875,0.823,3.442,1.979,4.703,3.469c1.26,1.49,2.213,3.255,2.859,5.297
		c0.646,2.042,0.969,4.281,0.969,6.719v3.156h-23.438c0.125,1.312,0.448,2.531,0.969,3.656c0.521,1.125,1.203,2.099,2.047,2.922
		c0.844,0.823,1.833,1.469,2.969,1.938c1.135,0.469,2.38,0.703,3.734,0.703c1.896,0,3.641-0.375,5.234-1.125
		s2.891-1.781,3.891-3.094l4.062,3.812c-0.542,0.812-1.24,1.599-2.094,2.359c-0.854,0.761-1.854,1.438-3,2.031
		c-1.146,0.594-2.433,1.073-3.859,1.438C176.124,257.562,174.566,257.744,172.879,257.744z M171.973,228.713
		c-1.042,0-2.011,0.188-2.906,0.562c-0.896,0.375-1.698,0.922-2.406,1.641c-0.708,0.719-1.308,1.594-1.797,2.625
		c-0.49,1.031-0.839,2.203-1.047,3.516h15.844v-0.562c-0.062-1-0.255-1.963-0.578-2.891c-0.323-0.927-0.797-1.755-1.422-2.484
		c-0.625-0.729-1.412-1.312-2.359-1.75C174.353,228.932,173.243,228.713,171.973,228.713z"/>
	<path fill="#FFFFFF" d="M217.098,257.119c-0.208-0.417-0.38-0.906-0.516-1.469c-0.136-0.562-0.255-1.167-0.359-1.812
		c-0.521,0.542-1.109,1.047-1.766,1.516s-1.386,0.88-2.188,1.234c-0.802,0.354-1.667,0.635-2.594,0.844
		c-0.927,0.208-1.922,0.312-2.984,0.312c-1.792,0-3.412-0.255-4.859-0.766c-1.448-0.51-2.688-1.219-3.719-2.125
		s-1.828-1.974-2.391-3.203c-0.562-1.229-0.844-2.562-0.844-4c0-3.625,1.349-6.396,4.047-8.312
		c2.698-1.917,6.567-2.875,11.609-2.875h5.469v-2.219c0-1.792-0.604-3.213-1.812-4.266c-1.208-1.052-2.917-1.578-5.125-1.578
		c-1,0-1.875,0.12-2.625,0.359c-0.75,0.24-1.375,0.568-1.875,0.984c-0.5,0.417-0.875,0.906-1.125,1.469s-0.375,1.167-0.375,1.812
		h-7.469c0-1.312,0.307-2.588,0.922-3.828c0.614-1.239,1.516-2.344,2.703-3.312s2.641-1.745,4.359-2.328
		c1.719-0.583,3.682-0.875,5.891-0.875c2,0,3.854,0.245,5.562,0.734c1.708,0.49,3.188,1.219,4.438,2.188s2.229,2.177,2.938,3.625
		c0.708,1.448,1.062,3.141,1.062,5.078v15.062c0,1.479,0.109,2.828,0.328,4.047s0.536,2.276,0.953,3.172v0.531H217.098z
		 M208.098,251.713c0.958,0,1.859-0.12,2.703-0.359c0.844-0.239,1.604-0.552,2.281-0.938c0.677-0.385,1.26-0.828,1.75-1.328
		c0.489-0.5,0.88-1.01,1.172-1.531v-6.344h-4.75c-3.042,0-5.287,0.49-6.734,1.469c-1.448,0.979-2.172,2.375-2.172,4.188
		c0,0.688,0.114,1.328,0.344,1.922c0.229,0.594,0.578,1.104,1.047,1.531c0.469,0.427,1.062,0.766,1.781,1.016
		S207.098,251.713,208.098,251.713z"/>
	<path fill="#FFFFFF" d="M245.504,242.338l-4.062,3.875v10.906h-7.469v-48h7.469V237.4l3.156-3.531l9.938-10.562h9l-13.062,14.062
		l15.062,19.75h-9.312L245.504,242.338z"/>
	<path fill="#FFFFFF" d="M294.379,247.963c0-0.562-0.115-1.078-0.344-1.547c-0.229-0.469-0.641-0.896-1.234-1.281
		c-0.594-0.385-1.406-0.745-2.438-1.078c-1.031-0.333-2.349-0.656-3.953-0.969c-2-0.417-3.808-0.917-5.422-1.5
		c-1.615-0.583-3-1.281-4.156-2.094s-2.047-1.755-2.672-2.828c-0.625-1.073-0.938-2.317-0.938-3.734
		c0-1.375,0.323-2.682,0.969-3.922c0.646-1.239,1.567-2.328,2.766-3.266c1.198-0.938,2.656-1.682,4.375-2.234
		c1.719-0.552,3.641-0.828,5.766-0.828c2.25,0,4.266,0.281,6.047,0.844s3.286,1.328,4.516,2.297
		c1.229,0.969,2.172,2.109,2.828,3.422s0.984,2.719,0.984,4.219h-7.469c0-0.667-0.146-1.307-0.438-1.922
		c-0.292-0.614-0.729-1.161-1.312-1.641c-0.583-0.479-1.308-0.859-2.172-1.141c-0.865-0.281-1.859-0.422-2.984-0.422
		s-2.099,0.12-2.922,0.359c-0.823,0.24-1.505,0.552-2.047,0.938c-0.542,0.386-0.943,0.839-1.203,1.359
		c-0.261,0.521-0.391,1.062-0.391,1.625s0.099,1.073,0.297,1.531c0.198,0.458,0.567,0.875,1.109,1.25
		c0.542,0.375,1.292,0.714,2.25,1.016c0.958,0.302,2.198,0.589,3.719,0.859c2.125,0.375,4.036,0.844,5.734,1.406
		c1.698,0.562,3.146,1.25,4.344,2.062c1.198,0.812,2.12,1.776,2.766,2.891c0.646,1.115,0.969,2.422,0.969,3.922
		s-0.344,2.875-1.031,4.125s-1.667,2.328-2.938,3.234c-1.271,0.906-2.797,1.609-4.578,2.109s-3.776,0.75-5.984,0.75
		c-2.458,0-4.625-0.328-6.5-0.984s-3.448-1.516-4.719-2.578c-1.271-1.062-2.234-2.271-2.891-3.625
		c-0.656-1.354-0.984-2.729-0.984-4.125h7.25c0.062,1.042,0.333,1.927,0.812,2.656c0.479,0.729,1.094,1.318,1.844,1.766
		c0.75,0.448,1.583,0.771,2.5,0.969c0.917,0.198,1.844,0.297,2.781,0.297c2.312,0,4.073-0.391,5.281-1.172
		C293.774,250.197,294.379,249.192,294.379,247.963z"/>
	<path fill="#FFFFFF" d="M325.536,251.807c0.916,0,1.807-0.146,2.672-0.438c0.863-0.292,1.629-0.698,2.297-1.219
		c0.666-0.521,1.191-1.135,1.578-1.844c0.385-0.708,0.566-1.479,0.547-2.312h7.062c0.02,1.625-0.35,3.151-1.109,4.578
		c-0.762,1.427-1.793,2.672-3.094,3.734c-1.303,1.062-2.809,1.906-4.516,2.531c-1.709,0.625-3.5,0.938-5.375,0.938
		c-2.605,0-4.886-0.448-6.844-1.344c-1.958-0.896-3.594-2.12-4.906-3.672c-1.312-1.552-2.297-3.354-2.953-5.406
		c-0.656-2.052-0.984-4.234-0.984-6.547v-1.125c0-2.312,0.328-4.5,0.984-6.562s1.641-3.864,2.953-5.406
		c1.312-1.542,2.948-2.766,4.906-3.672c1.958-0.906,4.229-1.359,6.813-1.359c2.041,0,3.932,0.312,5.672,0.938
		c1.738,0.625,3.238,1.5,4.5,2.625c1.26,1.125,2.238,2.469,2.938,4.031c0.697,1.562,1.035,3.271,1.016,5.125h-7.062
		c0.02-0.917-0.141-1.781-0.484-2.594s-0.84-1.521-1.484-2.125c-0.646-0.604-1.406-1.083-2.281-1.438
		c-0.875-0.354-1.834-0.531-2.875-0.531c-1.562,0-2.865,0.318-3.907,0.953c-1.042,0.636-1.875,1.469-2.5,2.5
		s-1.068,2.203-1.328,3.516c-0.261,1.312-0.391,2.646-0.391,4v1.125c0,1.375,0.13,2.719,0.391,4.031
		c0.26,1.312,0.703,2.484,1.328,3.516s1.458,1.865,2.5,2.5C322.639,251.489,323.952,251.807,325.536,251.807z"/>
	<path fill="#FFFFFF" d="M350.786,223.307h18.031v27.625h10.031v6.188h-28.062v-6.188h10.5v-21.406h-10.5V223.307z M360.661,214.557
		c0-1.167,0.375-2.13,1.125-2.891c0.75-0.76,1.801-1.141,3.156-1.141c1.375,0,2.441,0.38,3.203,1.141
		c0.76,0.761,1.141,1.724,1.141,2.891c0,1.167-0.381,2.13-1.141,2.891c-0.762,0.761-1.828,1.141-3.203,1.141
		c-1.355,0-2.406-0.38-3.156-1.141C361.036,216.687,360.661,215.724,360.661,214.557z"/>
	<path fill="#FFFFFF" d="M403.317,257.744c-2.5,0-4.781-0.417-6.844-1.25s-3.828-1.979-5.297-3.438
		c-1.469-1.458-2.609-3.182-3.422-5.172c-0.812-1.989-1.219-4.141-1.219-6.453v-1.281c0-2.688,0.432-5.104,1.297-7.25
		c0.863-2.146,2.02-3.979,3.469-5.5c1.447-1.521,3.135-2.688,5.062-3.5c1.926-0.812,3.953-1.219,6.078-1.219
		c2.457,0,4.625,0.412,6.5,1.234c1.875,0.823,3.441,1.979,4.703,3.469c1.26,1.49,2.213,3.255,2.859,5.297
		c0.645,2.042,0.969,4.281,0.969,6.719v3.156h-23.438c0.125,1.312,0.447,2.531,0.969,3.656c0.52,1.125,1.203,2.099,2.047,2.922
		c0.844,0.823,1.832,1.469,2.969,1.938c1.135,0.469,2.379,0.703,3.734,0.703c1.895,0,3.641-0.375,5.234-1.125
		s2.891-1.781,3.891-3.094l4.062,3.812c-0.543,0.812-1.24,1.599-2.094,2.359c-0.855,0.761-1.855,1.438-3,2.031
		c-1.146,0.594-2.434,1.073-3.859,1.438C406.561,257.562,405.004,257.744,403.317,257.744z M402.411,228.713
		c-1.043,0-2.012,0.188-2.906,0.562c-0.896,0.375-1.699,0.922-2.406,1.641c-0.709,0.719-1.309,1.594-1.797,2.625
		c-0.49,1.031-0.84,2.203-1.047,3.516h15.844v-0.562c-0.062-1-0.256-1.963-0.578-2.891c-0.324-0.927-0.797-1.755-1.422-2.484
		c-0.625-0.729-1.412-1.312-2.359-1.75C404.79,228.932,403.68,228.713,402.411,228.713z"/>
	<path fill="#FFFFFF" d="M432.723,223.307l0.469,4.688c1.229-1.688,2.713-2.995,4.453-3.922c1.738-0.927,3.672-1.391,5.797-1.391
		c1.729,0,3.307,0.25,4.734,0.75c1.426,0.5,2.656,1.281,3.688,2.344s1.832,2.438,2.406,4.125c0.572,1.688,0.859,3.719,0.859,6.094
		v21.125h-7.469v-21c0-1.396-0.162-2.562-0.484-3.5c-0.324-0.938-0.781-1.688-1.375-2.25s-1.318-0.963-2.172-1.203
		c-0.855-0.239-1.824-0.359-2.906-0.359c-1.646,0-3.078,0.365-4.297,1.094c-1.219,0.729-2.203,1.719-2.953,2.969v24.25h-7.5v-33.812
		H432.723z"/>
	<path fill="#FFFFFF" d="M479.161,251.807c0.916,0,1.807-0.146,2.672-0.438c0.863-0.292,1.629-0.698,2.297-1.219
		c0.666-0.521,1.191-1.135,1.578-1.844c0.385-0.708,0.566-1.479,0.547-2.312h7.062c0.02,1.625-0.35,3.151-1.109,4.578
		c-0.762,1.427-1.793,2.672-3.094,3.734c-1.303,1.062-2.809,1.906-4.516,2.531c-1.709,0.625-3.5,0.938-5.375,0.938
		c-2.605,0-4.887-0.448-6.844-1.344c-1.959-0.896-3.594-2.12-4.906-3.672c-1.312-1.552-2.297-3.354-2.953-5.406
		c-0.656-2.052-0.984-4.234-0.984-6.547v-1.125c0-2.312,0.328-4.5,0.984-6.562s1.641-3.864,2.953-5.406
		c1.312-1.542,2.947-2.766,4.906-3.672c1.957-0.906,4.229-1.359,6.812-1.359c2.041,0,3.932,0.312,5.672,0.938
		c1.738,0.625,3.238,1.5,4.5,2.625c1.26,1.125,2.238,2.469,2.938,4.031c0.697,1.562,1.035,3.271,1.016,5.125h-7.062
		c0.02-0.917-0.141-1.781-0.484-2.594s-0.84-1.521-1.484-2.125c-0.646-0.604-1.406-1.083-2.281-1.438
		c-0.875-0.354-1.834-0.531-2.875-0.531c-1.562,0-2.865,0.318-3.906,0.953c-1.043,0.636-1.875,1.469-2.5,2.5
		s-1.068,2.203-1.328,3.516c-0.262,1.312-0.391,2.646-0.391,4v1.125c0,1.375,0.129,2.719,0.391,4.031
		c0.26,1.312,0.703,2.484,1.328,3.516s1.457,1.865,2.5,2.5C476.264,251.489,477.577,251.807,479.161,251.807z"/>
	<path fill="#FFFFFF" d="M518.536,257.744c-2.5,0-4.781-0.417-6.844-1.25s-3.828-1.979-5.297-3.438
		c-1.469-1.458-2.609-3.182-3.422-5.172c-0.812-1.989-1.219-4.141-1.219-6.453v-1.281c0-2.688,0.432-5.104,1.297-7.25
		c0.863-2.146,2.02-3.979,3.469-5.5c1.447-1.521,3.135-2.688,5.062-3.5c1.926-0.812,3.953-1.219,6.078-1.219
		c2.457,0,4.625,0.412,6.5,1.234c1.875,0.823,3.441,1.979,4.703,3.469c1.26,1.49,2.213,3.255,2.859,5.297
		c0.645,2.042,0.969,4.281,0.969,6.719v3.156h-23.438c0.125,1.312,0.447,2.531,0.969,3.656c0.52,1.125,1.203,2.099,2.047,2.922
		c0.844,0.823,1.832,1.469,2.969,1.938c1.135,0.469,2.379,0.703,3.734,0.703c1.895,0,3.641-0.375,5.234-1.125
		s2.891-1.781,3.891-3.094l4.062,3.812c-0.543,0.812-1.24,1.599-2.094,2.359c-0.855,0.761-1.855,1.438-3,2.031
		c-1.146,0.594-2.434,1.073-3.859,1.438C521.78,257.562,520.223,257.744,518.536,257.744z M517.629,228.713
		c-1.043,0-2.012,0.188-2.906,0.562c-0.896,0.375-1.699,0.922-2.406,1.641c-0.709,0.719-1.309,1.594-1.797,2.625
		c-0.49,1.031-0.84,2.203-1.047,3.516h15.844v-0.562c-0.062-1-0.256-1.963-0.578-2.891c-0.324-0.927-0.797-1.755-1.422-2.484
		c-0.625-0.729-1.412-1.312-2.359-1.75C520.008,228.932,518.899,228.713,517.629,228.713z"/>
</g>
</svg>
