<?xml version="1.0" encoding="utf-8"?>
<!-- Generator: Adobe Illustrator 16.0.4, SVG Export Plug-In . SVG Version: 6.00 Build 0)  -->
<!DOCTYPE svg PUBLIC "-//W3C//DTD SVG 1.1//EN" "http://www.w3.org/Graphics/SVG/1.1/DTD/svg11.dtd">
<svg version="1.1" id="Layer_1" xmlns="http://www.w3.org/2000/svg" xmlns:xlink="http://www.w3.org/1999/xlink" x="0px" y="0px"
	 width="314.897px" height="36.4px" viewBox="0 0 314.897 36.4" enable-background="new 0 0 314.897 36.4" xml:space="preserve">
<g>
	<path fill="#999999" d="M20.1,11.55c1.967,1.434,2.95,3.55,2.95,6.35H15.15c0-2.166-1.135-3.25-3.4-3.25
		c-0.934,0-1.658,0.175-2.176,0.525C9.058,15.525,8.8,16.017,8.8,16.65c0,0.5,0.157,0.909,0.476,1.225
		c0.316,0.317,0.824,0.6,1.524,0.85s1.767,0.559,3.2,0.925c2.133,0.567,3.857,1.125,5.175,1.675c1.316,0.55,2.441,1.383,3.375,2.5
		c0.933,1.117,1.399,2.592,1.399,4.425c0,2.467-1.049,4.442-3.149,5.925c-2.101,1.482-4.983,2.225-8.649,2.225
		c-3.934,0-6.943-0.75-9.025-2.25C1.041,32.65,0,30.384,0,27.35h8.35c0,2.4,1.301,3.6,3.9,3.6c1.033,0,1.824-0.191,2.375-0.575
		c0.55-0.383,0.824-0.891,0.824-1.525c0-0.6-0.191-1.083-0.574-1.45c-0.384-0.366-0.95-0.683-1.7-0.95
		c-0.75-0.267-1.942-0.617-3.575-1.05c-1.967-0.5-3.542-0.991-4.725-1.475c-1.184-0.483-2.192-1.25-3.025-2.3
		C1.016,20.575,0.6,19.15,0.6,17.35c0-2.366,0.982-4.283,2.95-5.75c1.966-1.466,4.716-2.2,8.25-2.2
		C15.366,9.4,18.133,10.117,20.1,11.55z"/>
	<path fill="#999999" d="M43.199,29.2v6.25c-0.566,0.167-1.25,0.3-2.05,0.4S39.633,36,39,36c-3.201,0-5.525-0.667-6.976-2
		c-1.45-1.333-2.175-3.483-2.175-6.45v-11.3h-3.95V10.2h3.95V3.35h8.3v6.85h4.8v6.05h-4.8v9.4c0,1.367,0.25,2.342,0.75,2.925
		c0.5,0.583,1.316,0.875,2.45,0.875C42.016,29.45,42.633,29.367,43.199,29.2z"/>
	<path fill="#999999" d="M61.35,30c0.766-0.566,1.216-1.3,1.35-2.2h8.449c-0.367,1.6-1.117,3.059-2.25,4.375
		c-1.133,1.317-2.592,2.35-4.375,3.1S60.749,36.4,58.549,36.4c-2.768,0-5.143-0.583-7.125-1.75c-1.983-1.166-3.492-2.783-4.525-4.85
		c-1.033-2.066-1.549-4.433-1.549-7.1c0-2.533,0.516-4.808,1.549-6.825c1.033-2.016,2.542-3.6,4.525-4.75
		c1.982-1.15,4.325-1.725,7.025-1.725c2.967,0,5.5,0.725,7.6,2.175c2.1,1.45,3.6,3.442,4.5,5.975c0.367,0.967,0.625,2,0.775,3.1
		c0.15,1.1,0.225,2.417,0.225,3.95h-18.05c0.101,2.233,0.601,3.833,1.5,4.8c0.899,0.967,2.05,1.45,3.45,1.45
		C59.615,30.85,60.582,30.567,61.35,30z M55.249,16.075c-0.833,0.817-1.367,2.092-1.601,3.825h9.551
		c-0.168-1.7-0.684-2.966-1.551-3.8c-0.867-0.833-1.934-1.25-3.199-1.25C57.148,14.85,56.082,15.259,55.249,16.075z"/>
	<path fill="#999999" d="M95.475,12.025c1.916,1.75,2.875,4.309,2.875,7.675v8.75c0,3,0.25,5.383,0.75,7.15h-7.5
		c-0.234-0.933-0.35-2.033-0.35-3.3h-0.101c-1.934,2.633-4.684,3.95-8.25,3.95c-2.7,0-4.833-0.733-6.399-2.2
		c-1.568-1.467-2.351-3.333-2.351-5.6c0-2.233,0.774-4.017,2.325-5.35c1.55-1.333,4.141-2.283,7.775-2.85
		c2.1-0.333,4.133-0.566,6.1-0.7v-0.9c0-1.366-0.317-2.375-0.95-3.025c-0.634-0.65-1.5-0.975-2.601-0.975
		c-1.133,0-2.008,0.309-2.625,0.925c-0.617,0.617-0.941,1.492-0.975,2.625h-8c0.133-2.566,1.166-4.675,3.1-6.325
		s4.768-2.475,8.5-2.475C90.666,9.4,93.557,10.275,95.475,12.025z M85.85,24.6c-1.234,0.233-2.125,0.608-2.676,1.125
		c-0.549,0.517-0.824,1.225-0.824,2.125s0.283,1.608,0.85,2.125c0.566,0.517,1.367,0.775,2.4,0.775c0.666,0,1.308-0.108,1.925-0.325
		c0.616-0.217,1.142-0.542,1.575-0.975c0.5-0.533,0.832-1.125,1-1.775c0.166-0.65,0.25-1.542,0.25-2.675v-0.9
		C88.75,24.167,87.25,24.333,85.85,24.6z"/>
	<path fill="#999999" d="M119.699,35.6l-7.15-11.5h-0.1v11.5h-8.301V0h8.301v20.2h0.1l6.8-10h9.601l-9.051,11.85l10,13.55H119.699z"
		/>
	<path fill="#999999" d="M149.799,11.55c1.967,1.434,2.95,3.55,2.95,6.35h-7.899c0-2.166-1.135-3.25-3.4-3.25
		c-0.934,0-1.658,0.175-2.176,0.525c-0.517,0.35-0.774,0.842-0.774,1.475c0,0.5,0.157,0.909,0.476,1.225
		c0.316,0.317,0.824,0.6,1.524,0.85s1.767,0.559,3.2,0.925c2.133,0.567,3.857,1.125,5.175,1.675c1.316,0.55,2.441,1.383,3.375,2.5
		c0.933,1.117,1.399,2.592,1.399,4.425c0,2.467-1.049,4.442-3.149,5.925c-2.101,1.482-4.983,2.225-8.649,2.225
		c-3.934,0-6.943-0.75-9.025-2.25c-2.084-1.5-3.125-3.766-3.125-6.8h8.35c0,2.4,1.301,3.6,3.9,3.6c1.033,0,1.824-0.191,2.375-0.575
		c0.55-0.383,0.824-0.891,0.824-1.525c0-0.6-0.191-1.083-0.574-1.45c-0.384-0.366-0.95-0.683-1.7-0.95
		c-0.75-0.267-1.942-0.617-3.575-1.05c-1.967-0.5-3.542-0.991-4.725-1.475c-1.184-0.483-2.192-1.25-3.025-2.3
		c-0.834-1.05-1.25-2.475-1.25-4.275c0-2.366,0.982-4.283,2.95-5.75c1.966-1.466,4.716-2.2,8.25-2.2
		C145.065,9.4,147.832,10.117,149.799,11.55z"/>
	<path fill="#999999" d="M176.473,10.725c1.85,0.884,3.333,2.117,4.45,3.7c1.116,1.583,1.758,3.408,1.925,5.475h-8.6
		c-0.134-1.333-0.559-2.375-1.275-3.125s-1.643-1.125-2.775-1.125c-1.434,0-2.559,0.634-3.375,1.9
		c-0.816,1.267-1.225,3.033-1.225,5.3c0,2.3,0.408,4.083,1.225,5.35c0.816,1.267,1.959,1.9,3.426,1.9
		c1.133,0,2.058-0.417,2.775-1.25c0.716-0.833,1.107-1.983,1.174-3.45h8.65c-0.268,3.367-1.542,6.042-3.824,8.025
		c-2.284,1.983-5.226,2.975-8.826,2.975c-2.666,0-5.008-0.559-7.024-1.675s-3.567-2.691-4.649-4.725
		c-1.084-2.033-1.625-4.417-1.625-7.15c0-2.7,0.541-5.066,1.625-7.1c1.082-2.033,2.625-3.6,4.625-4.7c2-1.1,4.332-1.65,7-1.65
		C172.514,9.4,174.623,9.842,176.473,10.725z"/>
	<path fill="#999999" d="M187.197,6.55V0h8.301v6.55H187.197z M187.197,35.6V10.2h8.301v25.4H187.197z"/>
	<path fill="#999999" d="M216.048,30c0.767-0.566,1.216-1.3,1.351-2.2h8.449c-0.367,1.6-1.117,3.059-2.25,4.375
		c-1.133,1.317-2.592,2.35-4.375,3.1s-3.775,1.125-5.975,1.125c-2.768,0-5.143-0.583-7.125-1.75
		c-1.984-1.166-3.492-2.783-4.525-4.85c-1.033-2.066-1.55-4.433-1.55-7.1c0-2.533,0.517-4.808,1.55-6.825
		c1.033-2.016,2.541-3.6,4.525-4.75c1.982-1.15,4.324-1.725,7.025-1.725c2.966,0,5.5,0.725,7.6,2.175c2.1,1.45,3.6,3.442,4.5,5.975
		c0.366,0.967,0.625,2,0.775,3.1c0.149,1.1,0.225,2.417,0.225,3.95h-18.051c0.101,2.233,0.601,3.833,1.5,4.8
		c0.9,0.967,2.051,1.45,3.451,1.45C214.314,30.85,215.281,30.567,216.048,30z M209.947,16.075c-0.833,0.817-1.367,2.092-1.6,3.825
		h9.551c-0.168-1.7-0.684-2.966-1.551-3.8c-0.867-0.833-1.934-1.25-3.199-1.25C211.848,14.85,210.781,15.259,209.947,16.075z"/>
	<path fill="#999999" d="M252.873,12.225c1.65,1.784,2.475,4.375,2.475,7.775v15.6h-8.3V20.9c0-1.633-0.317-2.857-0.95-3.675
		c-0.633-0.816-1.55-1.225-2.75-1.225c-1.333,0-2.375,0.542-3.125,1.625c-0.75,1.083-1.125,2.692-1.125,4.825V35.6h-8.3V10.2h7.75
		v3.05h0.101c0.866-1.167,1.925-2.075,3.175-2.725c1.25-0.65,2.657-0.975,4.225-0.975C248.948,9.55,251.223,10.442,252.873,12.225z"
		/>
	<path fill="#999999" d="M279.223,10.725c1.85,0.884,3.332,2.117,4.449,3.7c1.117,1.583,1.758,3.408,1.926,5.475h-8.6
		c-0.135-1.333-0.559-2.375-1.275-3.125s-1.643-1.125-2.775-1.125c-1.434,0-2.559,0.634-3.375,1.9
		c-0.816,1.267-1.225,3.033-1.225,5.3c0,2.3,0.408,4.083,1.225,5.35c0.816,1.267,1.958,1.9,3.426,1.9
		c1.133,0,2.057-0.417,2.774-1.25c0.716-0.833,1.108-1.983,1.175-3.45h8.65c-0.268,3.367-1.543,6.042-3.825,8.025
		c-2.284,1.983-5.226,2.975-8.825,2.975c-2.667,0-5.008-0.559-7.025-1.675c-2.017-1.116-3.566-2.691-4.649-4.725
		c-1.083-2.033-1.625-4.417-1.625-7.15c0-2.7,0.542-5.066,1.625-7.1c1.083-2.033,2.625-3.6,4.625-4.7c2-1.1,4.333-1.65,7-1.65
		C275.264,9.4,277.373,9.842,279.223,10.725z"/>
	<path fill="#999999" d="M304.697,30c0.767-0.566,1.217-1.3,1.35-2.2h8.45c-0.367,1.6-1.117,3.059-2.25,4.375
		c-1.134,1.317-2.592,2.35-4.375,3.1s-3.774,1.125-5.975,1.125c-2.768,0-5.143-0.583-7.125-1.75
		c-1.983-1.166-3.492-2.783-4.525-4.85c-1.033-2.066-1.55-4.433-1.55-7.1c0-2.533,0.517-4.808,1.55-6.825
		c1.033-2.016,2.542-3.6,4.525-4.75c1.982-1.15,4.325-1.725,7.024-1.725c2.967,0,5.5,0.725,7.601,2.175
		c2.1,1.45,3.6,3.442,4.5,5.975c0.366,0.967,0.625,2,0.774,3.1c0.15,1.1,0.226,2.417,0.226,3.95h-18.05c0.1,2.233,0.6,3.833,1.5,4.8
		c0.899,0.967,2.05,1.45,3.449,1.45C302.964,30.85,303.93,30.567,304.697,30z M298.598,16.075c-0.834,0.817-1.367,2.092-1.601,3.825
		h9.55c-0.167-1.7-0.684-2.966-1.55-3.8c-0.867-0.833-1.934-1.25-3.2-1.25C300.497,14.85,299.43,15.259,298.598,16.075z"/>
</g>
<g>
</g>
<g>
</g>
<g>
</g>
<g>
</g>
<g>
</g>
<g>
</g>
</svg>
