<?xml version="1.0" encoding="utf-8"?>
<!-- Generator: Adobe Illustrator 21.1.0, SVG Export Plug-In . SVG Version: 6.00 Build 0)  -->
<svg version="1.1" id="Layer_1" xmlns="http://www.w3.org/2000/svg" xmlns:xlink="http://www.w3.org/1999/xlink" x="0px" y="0px"
	 viewBox="0 0 586 586" style="enable-background:new 0 0 586 586;" xml:space="preserve">
<style type="text/css">
	.st0{fill:none;stroke:#FFFFFF;stroke-width:2.8611;stroke-miterlimit:10;}
	.st1{fill:none;stroke:#FFFFFF;stroke-width:5.1799;stroke-miterlimit:10;}
	.st2{fill:#FFFFFF;}
</style>
<title>Artboard 2 copy 4</title>
<path class="st0" d="M118.9,288.5c0,0,24.3-62,154.6-53.3c0,0,68.5,2.7,121.2-19.3c0,0,64.3-20.7,83.7,26c0,0,5.5,15.3-10.9,28.7
	c0,0-62.5,60.7-180.1,110c0,0-88.5,30.7-152.2-27.3C135.3,353.2,102.5,328.5,118.9,288.5z"/>
<path class="st0" d="M479.3,246.6v32.7c0,0,2.2,12.9-8.2,20.8c0,0-60.7,55.9-142.5,97.2c0,0-59.4,37.3-131,20c0,0-74.7-18-83.4-64.7
	v-39.3"/>
<path class="st1" d="M269.6,291.5c18.8,5.8,31.4,16.6,31.4,28.7c-0.1,17.6-27.1,31.1-60.7,30.5c-12.7-0.2-25.2-2.6-36.7-7.3l0,0
	c-14.5-6.1-23.7-15.5-23.8-25.8c0.1-17.6,27.1-31.1,60.7-30.5C250.5,287.2,260.4,288.7,269.6,291.5"/>
<path class="st2" d="M425.9,211.3c19.3,0,42.2,5.8,52.5,30.6c0.8,1.9,1.2,3.9,1.1,6l0.4,31.2c0,0,1.6,13-8.7,20.9
	c0,0-60.7,55.9-142.5,97.2c0,0-39.1,24.6-92.1,24.6c-13.1,0-26.1-1.5-38.8-4.6c0,0-74.7-18-83.4-64.7v-39.3
	c-0.1-8.5,1.5-16.9,4.5-24.7c0,0,21.2-54.2,130.4-54.2c7.6,0,15.6,0.3,24.2,0.8c0,0,2.6,0.1,7.2,0.1c18.9,0,71.6-1.7,114.1-19.4
	C404.8,212.9,415.4,211.4,425.9,211.3 M425.9,204.3L425.9,204.3c-11.2,0-22.3,1.7-33,4.8l-0.3,0.1l-0.3,0.1
	c-13.6,5.7-51.9,19-111.8,19c-4,0-6.5-0.1-6.9-0.1c-8.4-0.6-16.6-0.8-24.5-0.8c-111.1,0-135,55.1-136.2,58.3
	c-3.5,8.7-5.3,18.1-5.1,27.6v40l0.1,0.7c9.5,50.5,85,69.3,88.3,70.1c13.2,3.2,26.6,4.8,40.2,4.8c52.4,0,91.1-23,95-25.4
	c79.1-40,139.3-94.2,143.4-97.9c11.9-9.3,11.5-23.8,11.2-26.9l-0.4-30.5c0.2-3.2-0.4-6.5-1.7-9.4
	C474.7,216.3,454.6,204.4,425.9,204.3L425.9,204.3z"/>
<g>
	<path class="st2" d="M426,212.3c11,0,20.6,1.9,28.5,5.7c9.8,4.8,17,12.5,21.4,23c0.4,1.2,4,13.7-10,25.1l-0.1,0.1l-0.1,0.1
		c-0.2,0.2-15.9,15.3-45.7,36.3c-27.6,19.4-73,47.7-133.4,73.1c-1.5,0.5-24.1,8-53.9,8c-16.8,0-32.8-2.4-47.5-7
		c-18.1-5.8-34.3-15.1-48.2-27.7l0,0c-0.1-0.1-0.2-0.2-0.3-0.2c-5-4.2-29.5-26.6-15.4-61.1c0.1-0.1,5.5-13.2,23.6-26.1
		c10.7-7.6,23.8-13.7,38.8-18c18.8-5.5,40.8-8.2,65.3-8.2c7.7,0,15.8,0.3,24.1,0.8l0,0l0,0c0.1,0,2.7,0.1,7.5,0.1
		c20.4,0,72.4-1.9,114.8-19.6C396.8,216.4,410.2,212.3,426,212.3 M426,209.3c-17.1,0-31.3,4.6-31.3,4.6
		c-42.4,17.7-94.9,19.4-113.9,19.4c-4.6,0-7.4-0.1-7.4-0.1c-8.5-0.6-16.6-0.8-24.3-0.8c-109.1,0-130.3,54.1-130.3,54.1
		c-16.4,40,16.4,64.7,16.4,64.8c30.9,28.2,67.7,35.4,97.4,35.4c31.4,0,54.8-8.1,54.8-8.1c117.6-49.3,180.1-110,180.1-110
		c16.4-13.4,10.9-28.7,10.9-28.7C468.1,215.1,445.2,209.3,426,209.3L426,209.3z"/>
</g>
<path class="st2" d="M293,16.6c152.7,0.1,276.4,124,276.3,276.6c-0.1,111-66.5,211.2-168.7,254.4C260,607,97.7,541.1,38.3,400.5
	S44.8,97.6,185.4,38.2l0,0C219.5,23.9,256,16.5,293,16.6 M293,6C134.5,6,6,134.5,6,293s128.5,287,287,287s287-128.6,287-287
	S451.4,6,293,6z"/>
<path class="st2" d="M428.8,208.9c19.7,0,43.1,5.9,53.7,31.3c0.8,1.9,1.2,4,1.1,6.1l0.4,31.9c0,0,1.6,13.3-8.9,21.4
	c0,0-62,57.2-145.7,99.4c0,0-40,25.2-94.2,25.2c-13.4,0-26.6-1.5-39.7-4.7c0,0-76.4-18.4-85.3-66.2v-40.2
	c-0.1-8.7,1.5-17.3,4.6-25.3c0,0,21.6-55.4,133.3-55.4c7.8,0,16,0.3,24.7,0.8c0,0,2.7,0.1,7.4,0.1c19.4,0,73.2-1.7,116.6-19.8
	C407.3,210.6,418,209,428.8,208.9 M428.8,201.8L428.8,201.8c-11.5,0-22.8,1.7-33.7,4.9l-0.3,0.1l-0.3,0.1
	c-13.9,5.8-53.1,19.4-114.3,19.4c-4.1,0-6.6-0.1-7.1-0.1c-8.5-0.6-17-0.8-25-0.8c-113.7,0-138.1,56.3-139.3,59.6
	c-3.6,8.9-5.4,18.5-5.2,28.2v40.9l0.1,0.7c9.6,51.6,87,70.9,90.3,71.7c13.5,3.3,27.3,4.9,41.1,4.9c53.6,0,93.2-23.5,97.2-26
	c80.9-40.9,142.5-96.3,146.7-100.1c12.2-9.5,11.7-24.3,11.5-27.5l-0.4-31.2c0.2-3.3-0.4-6.6-1.7-9.6
	C478.7,214,458.1,201.9,428.8,201.8L428.8,201.8z"/>
<path class="st2" d="M293,10.8c155.9,0.1,282.2,126.6,282.1,282.4c-0.1,113.3-67.9,215.6-172.2,259.7
	C259.3,613.6,93.6,546.3,33,402.7S39.6,93.5,183.2,32.9l0,0C218,18.3,255.3,10.7,293,10.8 M293,0C131.1,0,0,131.1,0,293
	s131.1,293,293,293s293-131.3,293-293S454.7,0,293,0z"/>
</svg>
