<svg enable-background="new 0 0 705.1 702.1" viewBox="0 0 705.1 702.1" xmlns="http://www.w3.org/2000/svg"><g fill="#fff"><path d="m352.5 32.7c175.9.1 318.4 142.8 318.2 318.7-.1 127.8-76.6 243.2-194.3 293-162 68.5-348.8-7.4-417.2-169.4s7.4-348.9 169.4-417.3c39.2-16.6 81.4-25.1 123.9-25m0-10c-181.4 0-328.4 147-328.4 328.4s147 328.4 328.4 328.4 328.4-147 328.4-328.4-147-328.5-328.4-328.4z"/><path d="m557 287.2-.1-.5c-5.3-21.2-28.2-33.7-37.9-38.1-17.6-8-39-12.1-65.5-12.5-24-.4-44.2 6.1-66.2 14-12.8 4.7-25.9 8.5-39.2 11.3-9.6 1.9-19.6 2.7-29.3 3.5-5.8.5-11.7.9-17.6 1.6-28.6 3.4-55.1 10.3-78.6 20.4-56.5 24.2-71.3 50.9-73.7 69.1-2.1 16.6-2.2 33.4-.5 50.1.6 6.2 1.4 12.6 3.4 18.3 8.9 26.1 37.3 43 57.8 53.5 24.4 12.4 59.5 28 94.7 28 4.7 0 9.4-.3 14-.9 20.7-2.6 54.8-9.5 112.1-39.1 32.3-16.6 58.9-34.2 81.3-53.7 13.5-11.8 30.2-27.8 39.8-48.1 6.1-12.8 6.2-24.6 6.3-37.1.2-11.9.2-26-.8-39.8zm-332 5.3c23.1-9.9 49-16.6 77-19.9 5.8-.7 11.7-1.2 17.4-1.6 9.8-.8 20-1.6 30-3.6 13.6-2.8 27-6.7 40.1-11.5 20.9-7.5 40.1-13.7 62.4-13.7h1.7c25.6.4 46.3 4.3 63.1 11.9 6.8 3.1 29.5 14.7 34.4 33.8.3 3.7.5 7.4.6 11.1-17 41.9-60 70.5-99.9 92.9-22.6 12.6-45.9 23.6-70 33-35 13.8-66.6 24.4-99.2 15.9-39.2-10.3-83.5-23.8-112.9-53.1-6.7-6.6-14.5-16.3-15.5-25.8.2-1.7.4-3.4.6-5 4-30.2 40.3-51.7 70.2-64.4zm326.9 34.5c-.1 11.8-.3 23-5.8 34.6-9.1 19.3-25.3 34.8-38.3 46.2-22.1 19.2-48.3 36.5-80.1 52.9-56.5 29.1-90 35.9-110.2 38.5-29 3.7-62.4-4.7-105.2-26.5-19.6-10-46.6-26-54.9-50.1-1.7-5.1-2.5-11.2-3.1-17-1-9.9-1.3-19.8-1-29.8 3.2 5.9 7.3 11.4 12.1 16.1 29 28.9 72.7 43.4 115.6 54.7 8.4 2.2 17.1 3.3 25.8 3.3 25.2 0 50.2-8.8 77.1-19.4 24.3-9.5 48-20.6 70.8-33.3 37.2-20.9 77.1-47.1 97.3-84.7 0 5-.1 9.9-.1 14.5z" stroke="#fff" stroke-miterlimit="10" stroke-width="5"/><path d="m551.9 327.6c-.1 11.8-.3 23-5.8 34.6-9.1 19.3-25.3 34.8-38.3 46.2-22.1 19.2-48.3 36.5-80.1 52.9-56.6 29.1-90 35.9-110.2 38.5-29 3.7-62.4-4.7-105.2-26.5-19.6-10-46.6-26-54.9-50.1-1.7-5.1-2.5-11.2-3.1-17-.8-8.2-1.2-25.2-1.1-33.2 3.8 6.1 8.3 11.8 13.3 17 29 28.9 72.9 42.9 115.8 54.2 7.7 2.1 15.6 3.2 23.6 3.1 25.2 0 49.1-6.3 76-16.9 24.2-9.4 47.7-20.4 70.3-33 37.4-21 79.7-47 99.8-84.9-.1 3.7-.1 11.7-.1 15.1z" opacity=".3"/><path d="m224.9 291.7c23.1-9.9 49-16.6 77-19.9 5.8-.7 11.7-1.2 17.4-1.6 9.8-.8 20-1.6 30-3.6 13.6-2.8 27-6.7 40.1-11.5 20.9-7.5 40.1-13.7 62.4-13.7h1.7c25.6.4 46.3 4.3 63.1 11.9 6.8 3.1 29.5 14.7 34.4 33.8.4 4.9.6 9.8.7 14.6h-.1c-16.8 42.3-60.1 71.1-100.2 93.6-22.6 12.6-45.9 23.6-70 33-35 13.8-66.6 24.4-99.2 15.9-39.3-10.4-83.6-23.8-113-53.2-6.7-6.7-14.8-16.7-15.4-26.4.2-2.9.5-5.8.9-8.6 4.1-30.1 40.4-51.6 70.2-64.3z" opacity=".15"/></g><path d="m165.5 323.6 176 118.5" fill="none" opacity=".5" stroke="#fff" stroke-miterlimit="10" stroke-width="8"/><path d="m229.6 288 183.5 123.5" fill="none" opacity=".5" stroke="#fff" stroke-miterlimit="10" stroke-width="8"/><path d="m319.3 270.2 158.8 106.5" fill="none" opacity=".5" stroke="#fff" stroke-miterlimit="10" stroke-width="8"/><path d="m405.2 245.9 128.4 86.4" fill="none" opacity=".5" stroke="#fff" stroke-miterlimit="10" stroke-width="8"/></svg>