<?xml version="1.0" encoding="UTF-8"?>
<svg width="611px" height="610px" viewBox="0 0 611 610" version="1.1" xmlns="http://www.w3.org/2000/svg" xmlns:xlink="http://www.w3.org/1999/xlink">
    <!-- Generator: Sketch 47.1 (45422) - http://www.bohemiancoding.com/sketch -->
    <title>logo_ss_black</title>
    <desc>Created with Sketch.</desc>
    <defs></defs>
    <g id="Page-1" stroke="none" stroke-width="1" fill="none" fill-rule="evenodd">
        <g id="logo_ss_black">
            <g id="Layer_1" fill-rule="nonzero" fill="#777777">
                <path d="M305.5,9.629863 C468.732402,9.722661 600.970135,142.145991 600.784539,305.378393 C600.69174,423.974761 529.700957,531.064125 420.477229,577.277733 C270.143806,640.844643 96.796377,570.410651 33.322265,420.077227 C-30.151847,269.743804 40.189348,96.303577 190.522771,32.829465 C190.522771,32.829465 190.522771,32.829465 190.522771,32.829465 C226.899747,17.424929 266.060676,9.537064 305.5,9.629863 L305.5,9.629863 Z M305.5,0.350022 C137.163685,0.350022 0.750024,136.763684 0.750024,305.099998 C0.750024,473.436313 137.163685,609.849975 305.5,609.849975 C473.836315,609.849975 610.249976,473.436313 610.249976,305.099998 C610.249976,136.763684 473.836315,0.257223 305.5,0.350022 L305.5,0.350022 Z" id="Shape"></path>
            </g>
            <g id="Layer_2" transform="translate(116.000000, 201.000000)" stroke="#777777">
                <g id="Group" transform="translate(17.000000, 9.000000)" stroke-width="7">
                    <path d="M0,72 L162,181" id="Shape"></path>
                    <path d="M59,39 L228,153" id="Shape"></path>
                    <path d="M142,23 L288,121" id="Shape"></path>
                    <path d="M221,0 L339,80" id="Shape"></path>
                </g>
                <path d="M378.165283,47.1736009 L378.072999,46.712178 C373.181943,27.1478448 352.048889,15.6122711 343.097334,11.5517491 C326.855336,4.16898186 307.106544,0.385313653 282.651263,0.0161752913 C260.503085,-0.35296307 241.861702,5.6455353 221.559205,12.9360179 C209.746843,17.2733937 197.657629,20.7802081 185.383847,23.3641766 C176.524575,25.1175839 167.296168,25.8558606 158.344612,26.5941373 C152.992136,27.0555603 147.547375,27.4246986 142.102615,28.0706908 C115.709369,31.2083668 91.2540884,37.5760036 69.5673304,46.8967472 C17.4268271,69.229618 3.76878379,93.8696037 1.55396595,110.665399 C-0.383999655,125.984641 -0.476283731,141.488452 1.09254557,156.899979 C1.64625003,162.621623 2.38452264,168.527837 4.23020418,173.788059 C12.443487,197.874337 38.6521648,213.470433 57.5704005,223.160315 C80.0877152,234.603604 112.479426,249 144.963421,249 C149.300773,249 153.638124,248.723146 157.883192,248.169439 C176.985996,245.770039 208.454866,239.402403 261.333642,212.086164 C291.141398,196.766922 315.688963,180.524834 336.360596,162.529339 C348.818946,151.639757 364.230387,136.874223 373.089658,118.140451 C378.718987,106.328023 378.811271,95.4384417 378.903555,83.9028679 C379.088123,72.9210017 379.088123,59.9088744 378.165283,47.1736009 Z M71.7821483,52.0646842 C93.09977,42.9285098 117.001346,36.7454422 142.840887,33.7000508 C148.193364,33.0540586 153.638124,32.5926357 158.898317,32.2234973 C167.942156,31.4852206 177.355132,30.7469439 186.58354,28.9012521 C199.134174,26.3172835 211.50024,22.7181845 223.589454,18.2885242 C242.876826,11.3671799 260.595369,5.6455353 281.174718,5.6455353 L282.743547,5.6455353 C306.368271,6.01467366 325.471075,9.61377269 340.9748,16.6274016 C347.250117,19.4882239 368.198602,30.1932363 372.720522,47.8195931 C372.997374,51.2341229 373.181943,54.6486528 373.274227,58.0631826 C357.585934,96.730426 317.903781,123.123819 281.082434,143.795567 C260.226233,155.423425 238.724043,165.57473 216.48358,174.249482 C184.184154,186.984755 155.022385,196.766922 124.937776,188.922732 C88.7624184,179.417419 47.8805724,166.958999 20.7490539,139.919614 C14.5660208,133.828831 7.36786278,124.877226 6.44502202,116.11019 C6.62959017,114.541352 6.81415832,112.972514 6.99872648,111.49596 C10.6900895,83.6260141 44.1892094,63.7848272 71.7821483,52.0646842 L71.7821483,52.0646842 Z M373.458795,83.9028679 C373.366511,94.7924496 373.181943,105.128324 368.106318,115.833336 C359.708467,133.644262 344.758447,147.948374 332.761517,158.468817 C312.366736,176.187458 288.188308,192.152692 258.841972,207.287365 C206.701468,234.142181 175.786303,240.417533 157.144919,242.816932 C130.382537,246.231462 99.5596553,238.479557 60.0620705,218.361516 C41.9743915,209.133057 17.0576908,194.367523 9.39811247,172.126936 C7.82928317,167.420422 7.09101055,161.791062 6.53730609,156.438556 C5.61446533,147.302381 5.3376131,138.166207 5.61446533,128.937748 C8.56755578,134.382539 12.3512029,139.458191 16.7808386,143.795567 C43.5432208,170.465814 83.8713623,183.847079 123.461231,194.275238 C131.213094,196.305499 139.241808,197.320629 147.270523,197.320629 C170.52611,197.320629 193.597129,189.199585 218.421546,179.417419 C240.846577,170.650383 262.717903,160.406793 283.758672,148.68665 C318.088349,129.399171 354.909695,105.220608 373.551079,70.5216023 C373.551079,75.1358318 373.458795,79.6577767 373.458795,83.9028679 Z" id="Shape" stroke-width="3" fill="#777777" fill-rule="nonzero"></path>
            </g>
        </g>
    </g>
</svg>