<?xml version="1.0" encoding="utf-8"?>
<!-- Generator: Adobe Illustrator 21.1.0, SVG Export Plug-In . SVG Version: 6.00 Build 0)  -->
<svg version="1.1" xmlns="http://www.w3.org/2000/svg" xmlns:xlink="http://www.w3.org/1999/xlink" x="0px" y="0px"
	 viewBox="0 0 705.1 702.1" style="enable-background:new 0 0 705.1 702.1;" xml:space="preserve">
<style type="text/css">
	.st0{display:none;fill:#868686;}
	.st1{fill:#FFFFFF;}
	.st2{fill:#FFFFFF;stroke:#FFFFFF;stroke-width:5;stroke-miterlimit:10;}
	.st3{opacity:0.3;fill:#FFFFFF;enable-background:new    ;}
	.st4{opacity:0.15;fill:#FFFFFF;enable-background:new    ;}
	.st5{opacity:0.5;fill:none;stroke:#FFFFFF;stroke-width:8;stroke-miterlimit:10;}
</style>
<g id="Layer_1">
	<title>Artboard 2 copy 7</title>
	<rect x="-105" y="-74" class="st0" width="944" height="860"/>
	<path class="st1" d="M352.5,32.7c175.9,0.1,318.4,142.8,318.2,318.7c-0.1,127.8-76.6,243.2-194.3,293
		C314.4,712.9,127.6,637,59.2,475s7.4-348.9,169.4-417.3c0,0,0,0,0,0C267.8,41.1,310,32.6,352.5,32.7 M352.5,22.7
		c-181.4,0-328.4,147-328.4,328.4s147,328.4,328.4,328.4s328.4-147,328.4-328.4S533.9,22.6,352.5,22.7L352.5,22.7z"/>
	<path class="st2" d="M557,287.2l-0.1-0.5c-5.3-21.2-28.2-33.7-37.9-38.1c-17.6-8-39-12.1-65.5-12.5c-24-0.4-44.2,6.1-66.2,14
		c-12.8,4.7-25.9,8.5-39.2,11.3c-9.6,1.9-19.6,2.7-29.3,3.5c-5.8,0.5-11.7,0.9-17.6,1.6c-28.6,3.4-55.1,10.3-78.6,20.4
		c-56.5,24.2-71.3,50.9-73.7,69.1c-2.1,16.6-2.2,33.4-0.5,50.1c0.6,6.2,1.4,12.6,3.4,18.3c8.9,26.1,37.3,43,57.8,53.5
		c24.4,12.4,59.5,28,94.7,28c4.7,0,9.4-0.3,14-0.9c20.7-2.6,54.8-9.5,112.1-39.1c32.3-16.6,58.9-34.2,81.3-53.7
		c13.5-11.8,30.2-27.8,39.8-48.1c6.1-12.8,6.2-24.6,6.3-37.1C558,315.1,558,301,557,287.2z M225,292.5c23.1-9.9,49-16.6,77-19.9
		c5.8-0.7,11.7-1.2,17.4-1.6c9.8-0.8,20-1.6,30-3.6c13.6-2.8,27-6.7,40.1-11.5c20.9-7.5,40.1-13.7,62.4-13.7h1.7
		c25.6,0.4,46.3,4.3,63.1,11.9c6.8,3.1,29.5,14.7,34.4,33.8c0.3,3.7,0.5,7.4,0.6,11.1c-17,41.9-60,70.5-99.9,92.9
		c-22.6,12.6-45.9,23.6-70,33c-35,13.8-66.6,24.4-99.2,15.9c-39.2-10.3-83.5-23.8-112.9-53.1c-6.7-6.6-14.5-16.3-15.5-25.8
		c0.2-1.7,0.4-3.4,0.6-5C158.8,326.7,195.1,305.2,225,292.5L225,292.5z M551.9,327c-0.1,11.8-0.3,23-5.8,34.6
		c-9.1,19.3-25.3,34.8-38.3,46.2c-22.1,19.2-48.3,36.5-80.1,52.9c-56.5,29.1-90,35.9-110.2,38.5c-29,3.7-62.4-4.7-105.2-26.5
		c-19.6-10-46.6-26-54.9-50.1c-1.7-5.1-2.5-11.2-3.1-17c-1-9.9-1.3-19.8-1-29.8c3.2,5.9,7.3,11.4,12.1,16.1
		c29,28.9,72.7,43.4,115.6,54.7c8.4,2.2,17.1,3.3,25.8,3.3c25.2,0,50.2-8.8,77.1-19.4c24.3-9.5,48-20.6,70.8-33.3
		c37.2-20.9,77.1-47.1,97.3-84.7C552,317.5,551.9,322.4,551.9,327z"/>
	<path class="st3" d="M551.9,327.6c-0.1,11.8-0.3,23-5.8,34.6c-9.1,19.3-25.3,34.8-38.3,46.2c-22.1,19.2-48.3,36.5-80.1,52.9
		c-56.6,29.1-90,35.9-110.2,38.5c-29,3.7-62.4-4.7-105.2-26.5c-19.6-10-46.6-26-54.9-50.1c-1.7-5.1-2.5-11.2-3.1-17
		c-0.8-8.2-1.2-25.2-1.1-33.2c3.8,6.1,8.3,11.8,13.3,17c29,28.9,72.9,42.9,115.8,54.2c7.7,2.1,15.6,3.2,23.6,3.1
		c25.2,0,49.1-6.3,76-16.9c24.2-9.4,47.7-20.4,70.3-33c37.4-21,79.7-47,99.8-84.9C551.9,316.2,551.9,324.2,551.9,327.6z"/>
	<path class="st4" d="M224.9,291.7c23.1-9.9,49-16.6,77-19.9c5.8-0.7,11.7-1.2,17.4-1.6c9.8-0.8,20-1.6,30-3.6
		c13.6-2.8,27-6.7,40.1-11.5c20.9-7.5,40.1-13.7,62.4-13.7h1.7c25.6,0.4,46.3,4.3,63.1,11.9c6.8,3.1,29.5,14.7,34.4,33.8
		c0.4,4.9,0.6,9.8,0.7,14.6h-0.1c-16.8,42.3-60.1,71.1-100.2,93.6c-22.6,12.6-45.9,23.6-70,33c-35,13.8-66.6,24.4-99.2,15.9
		c-39.3-10.4-83.6-23.8-113-53.2c-6.7-6.7-14.8-16.7-15.4-26.4c0.2-2.9,0.5-5.8,0.9-8.6C158.8,325.9,195.1,304.4,224.9,291.7z"/>
</g>
<g id="Layer_2">
	<line class="st5" x1="165.5" y1="323.6" x2="341.5" y2="442.1"/>
	<line class="st5" x1="229.6" y1="288" x2="413.1" y2="411.5"/>
	<line class="st5" x1="319.3" y1="270.2" x2="478.1" y2="376.7"/>
	<line class="st5" x1="405.2" y1="245.9" x2="533.6" y2="332.3"/>
</g>
</svg>
