<?xml version="1.0" encoding="UTF-8" standalone="no"?>
<!DOCTYPE svg  PUBLIC '-//W3C//DTD SVG 1.1//EN'  'http://www.w3.org/Graphics/SVG/1.1/DTD/svg11.dtd'>
<svg xmlns="http://www.w3.org/2000/svg" version="1.1">
<defs>
<font id="IdealSans-Book" horiz-adv-x="374">
<font-face panose-1="0 0 0 0 0 0 0 0 0 0" descent="-200" underline-position="-100" font-family="Ideal Sans Book" bbox="-165 -260 1195 1107" underline-thickness="50" font-weight="325" units-per-em="1000" stemh="81" x-height="465" ascent="800" cap-height="708" stemv="92" unicode-range="U+0020-FB04"/>
<missing-glyph horiz-adv-x="500" d="M0 -200v1000h500v-1000h-500zM71 750l179 -390l179 390h-358zM50 -76l172 376l-172 376v-752zM450 676l-172 -376l172 -376v752zM250 240l-179 -390h358z"/>
<glyph horiz-adv-x="1216" unicode="ffb" d="M326 715l7 -86c-13 5 -28 8 -44 8c-58 0 -87 -41 -87 -122v-51h125c-3 -22 -4 -44 -4 -80h-121v-287c0 -35 1 -72 4 -97h-102c5 43 7 105 7 163v221h-91l25 80h66v41c0 130 58 218 165 218c23 0 38 -4 50 -8zM659 715l7 -86c-13 5 -28 8 -44 8c-58 0 -87 -41 -87 -122 v-51h125c-3 -22 -4 -44 -4 -80h-121v-287c0 -35 1 -72 4 -97h-102c5 43 7 105 7 163v221h-91l25 80h66v41c0 130 58 218 165 218c23 0 38 -4 50 -8zM1177 247c0 -144 -109 -265 -251 -265c-45 0 -85 15 -111 34l-66 -31l-17 6c5 57 7 116 7 174v381c0 58 -2 122 -7 165 c36 3 73 8 103 13c-3 -26 -4 -74 -4 -109v-197c38 33 89 56 145 56c117 0 201 -91 201 -227zM1085 236c0 96 -46 157 -133 157c-44 0 -91 -23 -121 -57v-246c27 -18 61 -27 103 -27c88 0 151 82 151 173z" glyph-name="f_f_b"/>
<glyph horiz-adv-x="1211" unicode="ffh" d="M326 715l7 -86c-13 5 -28 8 -44 8c-58 0 -87 -41 -87 -122v-51h125c-3 -22 -4 -44 -4 -80h-121v-287c0 -35 1 -72 4 -97h-102c5 43 7 105 7 163v221h-91l25 80h66v41c0 130 58 218 165 218c23 0 38 -4 50 -8zM659 715l7 -86c-13 5 -28 8 -44 8c-58 0 -87 -41 -87 -122 v-51h125c-3 -22 -4 -44 -4 -80h-121v-287c0 -35 1 -72 4 -97h-102c5 43 7 105 7 163v221h-91l25 80h66v41c0 130 58 218 165 218c23 0 38 -4 50 -8zM1144 0h-103c5 43 7 112 7 170v120c0 58 -19 103 -80 103c-66 0 -137 -65 -137 -125v-171c0 -35 1 -71 4 -97h-102 c4 43 6 105 6 164v381c0 58 -2 122 -6 165c35 3 72 7 102 13c-3 -26 -4 -75 -4 -109v-237c38 62 106 97 161 97c100 0 148 -62 148 -166v-205c0 -35 2 -77 4 -103z" glyph-name="f_f_h"/>
<glyph horiz-adv-x="904" unicode="ffi" d="M326 715l7 -86c-13 5 -28 8 -44 8c-58 0 -87 -41 -87 -122v-51h125c-3 -22 -4 -44 -4 -80h-121v-287c0 -35 1 -72 4 -97h-102c5 43 7 105 7 163v221h-91l25 80h66v41c0 130 58 218 165 218c23 0 38 -4 50 -8zM659 715l7 -86c-13 5 -28 8 -44 8c-58 0 -87 -41 -87 -122 v-51h125c-3 -22 -4 -44 -4 -80h-121v-287c0 -35 1 -72 4 -97h-102c5 43 7 105 7 163v221h-91l25 80h66v41c0 130 58 218 165 218c23 0 38 -4 50 -8zM835 0h-103c5 43 7 105 7 164v126c0 58 -2 127 -7 170c36 0 73 2 103 5c-3 -26 -4 -72 -4 -107v-261c0 -35 1 -71 4 -97z M850 632c0 -35 -25 -65 -62 -65c-36 0 -59 29 -59 59c0 35 25 65 62 65c35 0 59 -29 59 -59z" glyph-name="f_f_i"/>
<glyph horiz-adv-x="904" unicode="ffj" d="M326 715l7 -86c-13 5 -28 8 -44 8c-58 0 -87 -41 -87 -122v-51h125c-3 -22 -4 -44 -4 -80h-121v-287c0 -35 1 -72 4 -97h-102c5 43 7 105 7 163v221h-91l25 80h66v41c0 130 58 218 165 218c23 0 38 -4 50 -8zM659 715l7 -86c-13 5 -28 8 -44 8c-58 0 -87 -41 -87 -122 v-51h125c-3 -22 -4 -44 -4 -80h-121v-287c0 -35 1 -72 4 -97h-102c5 43 7 105 7 163v221h-91l25 80h66v41c0 130 58 218 165 218c23 0 38 -4 50 -8zM835 465c-3 -26 -4 -72 -4 -107v-397c0 -129 -66 -175 -137 -175c-17 0 -36 4 -45 7l-11 81c13 -2 24 -3 34 -3 c45 0 67 23 67 86l1 333c0 58 -2 127 -7 170c36 0 72 2 102 5zM850 632c0 -35 -25 -65 -62 -65c-36 0 -59 29 -59 59c0 35 25 65 62 65c35 0 59 -29 59 -59z" glyph-name="f_f_j"/>
<glyph horiz-adv-x="1136" unicode="ffk" d="M1040 -12l-209 240v-131c0 -35 1 -72 4 -97h-103c5 43 7 105 7 163v382c0 58 -2 122 -7 165c36 3 73 7 103 13c-3 -26 -4 -75 -4 -110v-355c45 55 143 168 174 209c37 0 84 1 117 4l-199 -219l43 -48c60 -68 124 -146 172 -196zM659 715l7 -86c-13 5 -28 8 -44 8 c-58 0 -87 -41 -87 -122v-51h125c-3 -22 -4 -44 -4 -80h-121v-287c0 -35 1 -72 4 -97h-102c5 43 7 105 7 163v221h-91l25 80h66v41c0 130 58 218 165 218c23 0 38 -4 50 -8zM326 715l7 -86c-13 5 -28 8 -44 8c-58 0 -87 -41 -87 -122v-51h125c-3 -22 -4 -44 -4 -80h-121 v-287c0 -35 1 -72 4 -97h-102c5 43 7 105 7 163v221h-91l25 80h66v41c0 130 58 218 165 218c23 0 38 -4 50 -8z" glyph-name="f_f_k"/>
<glyph horiz-adv-x="904" unicode="ffl" d="M326 715l7 -86c-13 5 -28 8 -44 8c-58 0 -87 -41 -87 -122v-51h125c-3 -22 -4 -44 -4 -80h-121v-287c0 -35 1 -72 4 -97h-102c5 43 7 105 7 163v221h-91l25 80h66v41c0 130 58 218 165 218c23 0 38 -4 50 -8zM659 715l7 -86c-13 5 -28 8 -44 8c-58 0 -87 -41 -87 -122 v-51h125c-3 -22 -4 -44 -4 -80h-121v-287c0 -35 1 -72 4 -97h-102c5 43 7 105 7 163v221h-91l25 80h66v41c0 130 58 218 165 218c23 0 38 -4 50 -8zM835 0h-103c5 43 7 105 7 164v381c0 58 -2 122 -7 165c36 3 73 7 103 13c-3 -26 -4 -75 -4 -109v-517c0 -35 1 -71 4 -97z " glyph-name="f_f_l"/>
<glyph horiz-adv-x="883" unicode="fb" d="M326 715l7 -86c-13 5 -28 8 -44 8c-58 0 -87 -41 -87 -122v-51h125c-3 -22 -4 -44 -4 -80h-121v-287c0 -35 1 -72 4 -97h-102c5 43 7 105 7 163v221h-91l25 80h66v41c0 130 58 218 165 218c23 0 38 -4 50 -8zM844 247c0 -144 -109 -265 -251 -265c-45 0 -85 15 -111 34 l-66 -31l-17 6c5 57 7 116 7 174v381c0 58 -2 122 -7 165c36 3 73 8 103 13c-3 -26 -4 -74 -4 -109v-197c38 33 89 56 145 56c117 0 201 -91 201 -227zM752 236c0 96 -46 157 -133 157c-44 0 -91 -23 -121 -57v-246c27 -18 61 -27 103 -27c88 0 151 82 151 173z" glyph-name="f_b"/>
<glyph horiz-adv-x="666" unicode="ff" d="M326 715l7 -86c-13 5 -28 8 -44 8c-58 0 -87 -41 -87 -122v-51h125c-3 -22 -4 -44 -4 -80h-121v-287c0 -35 1 -72 4 -97h-102c5 43 7 105 7 163v221h-91l25 80h66v41c0 130 58 218 165 218c23 0 38 -4 50 -8zM659 715l7 -86c-13 5 -28 8 -44 8c-58 0 -87 -41 -87 -122 v-51h125c-3 -22 -4 -44 -4 -80h-121v-287c0 -35 1 -72 4 -97h-102c5 43 7 105 7 163v221h-91l25 80h66v41c0 130 58 218 165 218c23 0 38 -4 50 -8z" glyph-name="f_f"/>
<glyph horiz-adv-x="878" unicode="fh" d="M326 715l7 -86c-13 5 -28 8 -44 8c-58 0 -87 -41 -87 -122v-51h125c-3 -22 -4 -44 -4 -80h-121v-287c0 -35 1 -72 4 -97h-102c5 43 7 105 7 163v221h-91l25 80h66v41c0 130 58 218 165 218c23 0 38 -4 50 -8zM811 0h-103c5 43 7 112 7 170v120c0 58 -19 103 -80 103 c-66 0 -137 -65 -137 -125v-171c0 -35 1 -71 4 -97h-102c4 43 6 105 6 164v381c0 58 -2 122 -6 165c35 3 72 7 102 13c-3 -26 -4 -75 -4 -109v-237c38 62 106 97 161 97c100 0 148 -62 148 -166v-205c0 -35 2 -77 4 -103z" glyph-name="f_h"/>
<glyph horiz-adv-x="571" unicode="fi" d="M326 715l7 -86c-13 5 -28 8 -44 8c-58 0 -87 -41 -87 -122v-51h125c-3 -22 -4 -44 -4 -80h-121v-287c0 -35 1 -72 4 -97h-102c5 43 7 105 7 163v221h-91l25 80h66v41c0 130 58 218 165 218c23 0 38 -4 50 -8zM502 0h-103c5 43 7 105 7 164v126c0 58 -2 127 -7 170 c36 0 73 2 103 5c-3 -26 -4 -72 -4 -107v-261c0 -35 1 -71 4 -97zM517 632c0 -35 -25 -65 -62 -65c-36 0 -59 29 -59 59c0 35 25 65 62 65c35 0 59 -29 59 -59z" glyph-name="fi"/>
<glyph horiz-adv-x="571" unicode="fj" d="M326 715l7 -86c-13 5 -28 8 -44 8c-58 0 -87 -41 -87 -122v-51h125c-3 -22 -4 -44 -4 -80h-121v-287c0 -35 1 -72 4 -97h-102c5 43 7 105 7 163v221h-91l25 80h66v41c0 130 58 218 165 218c23 0 38 -4 50 -8zM502 465c-3 -26 -4 -72 -4 -107v-397 c0 -129 -66 -175 -137 -175c-17 0 -36 4 -45 7l-11 81c13 -2 24 -3 34 -3c45 0 67 23 67 86l1 333c0 58 -2 127 -7 170c36 0 72 2 102 5zM517 632c0 -35 -25 -65 -62 -65c-36 0 -59 29 -59 59c0 35 25 65 62 65c35 0 59 -29 59 -59z" glyph-name="f_j"/>
<glyph horiz-adv-x="803" unicode="fk" d="M707 -12l-209 240v-131c0 -35 1 -72 4 -97h-103c5 43 7 105 7 163v382c0 58 -2 122 -7 165c36 3 73 7 103 13c-3 -26 -4 -75 -4 -110v-355c45 55 143 168 174 209c37 0 84 1 117 4l-199 -219l43 -48c60 -68 124 -146 172 -196zM326 715l7 -86c-13 5 -28 8 -44 8 c-58 0 -87 -41 -87 -122v-51h125c-3 -22 -4 -44 -4 -80h-121v-287c0 -35 1 -72 4 -97h-102c5 43 7 105 7 163v221h-91l25 80h66v41c0 130 58 218 165 218c23 0 38 -4 50 -8z" glyph-name="f_k"/>
<glyph horiz-adv-x="571" unicode="fl" d="M326 715l7 -86c-13 5 -28 8 -44 8c-58 0 -87 -41 -87 -122v-51h125c-3 -22 -4 -44 -4 -80h-121v-287c0 -35 1 -72 4 -97h-102c5 43 7 105 7 163v221h-91l25 80h66v41c0 130 58 218 165 218c23 0 38 -4 50 -8zM502 0h-103c5 43 7 105 7 164v381c0 58 -2 122 -7 165 c36 3 73 7 103 13c-3 -26 -4 -75 -4 -109v-517c0 -35 1 -71 4 -97z" glyph-name="fl"/>
<glyph horiz-adv-x="500" d="M0 -200v1000h500v-1000h-500zM71 750l179 -390l179 390h-358zM50 -76l172 376l-172 376v-752zM450 676l-172 -376l172 -376v752zM250 240l-179 -390h358z" glyph-name=".notdef"/>
<glyph horiz-adv-x="701" unicode="A" d="M6 0l237 512c39 84 65 143 87 201l26 7l240 -516c29 -63 67 -144 98 -204l-108 -8l-94 209h-296l-4 -10c-26 -61 -54 -131 -78 -191h-108zM344 533l-112 -252h224z" glyph-name="A"/>
<glyph horiz-adv-x="622" unicode="B" d="M311 0h-212c5 48 7 176 7 241v221c0 64 -2 193 -7 241c35 0 148 5 193 5c179 0 248 -99 248 -181c0 -72 -47 -124 -109 -149c94 -30 141 -93 141 -173c0 -109 -91 -205 -261 -205zM203 90c30 -3 70 -5 101 -5c102 0 167 38 167 123c0 70 -57 119 -186 119 c-31 0 -58 0 -83 -3v-180c0 -17 0 -34 1 -54zM203 408c22 -1 48 -2 74 -2c105 0 163 42 163 111c0 68 -55 106 -155 106c-38 0 -62 -2 -82 -3c-1 -17 -1 -44 -1 -59v-97c0 -21 0 -42 1 -56z" glyph-name="B"/>
<glyph horiz-adv-x="679" unicode="C" d="M640 171l-7 -109c-67 -52 -144 -80 -229 -80c-205 0 -350 163 -350 351c0 216 156 387 369 387c75 0 155 -25 208 -63l-28 -90c-50 39 -118 64 -186 64c-153 0 -262 -120 -262 -277c0 -183 113 -284 255 -284c94 0 163 38 230 101z" glyph-name="C"/>
<glyph horiz-adv-x="729" unicode="D" d="M674 373c0 -218 -146 -373 -363 -373h-212c5 48 7 176 7 241v221c0 64 -2 193 -7 241c36 0 100 5 195 5c249 0 380 -154 380 -335zM573 360c0 158 -99 263 -281 263c-32 0 -60 -1 -87 -3c-1 -18 -1 -46 -1 -62v-412c0 -17 0 -36 1 -56c30 -3 53 -5 90 -5 c201 0 278 127 278 275z" glyph-name="D"/>
<glyph horiz-adv-x="545" unicode="E" d="M515 84c-4 -28 -6 -56 -7 -88c-60 4 -134 5 -205 5s-146 -1 -204 -5c5 48 7 180 7 245v221c0 64 -2 199 -7 247c58 -3 126 -5 197 -5s139 2 199 5c-5 -29 -7 -55 -8 -87c-59 1 -120 2 -191 2c-30 0 -62 0 -91 -1c-1 -19 -1 -46 -1 -61v-151l244 2c-2 -24 -3 -57 -3 -86 l-241 2v-185c0 -15 0 -43 1 -62c30 0 61 -1 91 -1c81 0 151 1 219 3z" glyph-name="E"/>
<glyph horiz-adv-x="526" unicode="F" d="M494 709c-4 -29 -6 -55 -7 -87c-59 1 -120 2 -191 2c-30 0 -62 0 -91 -1c-1 -19 -1 -46 -1 -61v-160l237 1c-2 -24 -3 -56 -3 -85l-234 2v-176c0 -39 0 -116 3 -144h-108c5 48 7 176 7 241v221c0 64 -2 199 -7 247c58 -3 126 -5 197 -5s139 2 198 5z" glyph-name="F"/>
<glyph horiz-adv-x="737" unicode="G" d="M665 56c-56 -37 -128 -74 -249 -74c-205 0 -362 159 -362 360c0 210 163 378 381 378c75 0 167 -27 222 -63l-28 -90c-50 40 -136 64 -204 64c-162 0 -270 -119 -270 -281c0 -178 124 -280 272 -280c56 0 100 10 142 32v125c0 15 0 42 -2 60c-30 1 -22 1 -53 1 c-50 0 -79 -1 -136 -3c2 34 2 66 0 90c61 -2 91 -3 136 -3c70 0 99 1 158 4c-5 -39 -7 -178 -7 -242v-78z" glyph-name="G"/>
<glyph horiz-adv-x="737" d="M665 133v-77c-56 -37 -128 -74 -249 -74c-205 0 -362 159 -362 360c0 210 163 378 381 378c75 0 167 -27 222 -63l-28 -90c-50 40 -136 64 -204 64c-162 0 -270 -119 -270 -281c0 -178 124 -280 272 -280c56 0 100 10 142 32v124c0 15 -3 130 -3 130h105s-6 -158 -6 -223 z" glyph-name="G.alt"/>
<glyph horiz-adv-x="777" unicode="H" d="M674 0h-108c5 48 7 176 7 241v84h-369v-181c0 -38 1 -116 3 -144h-108c5 48 7 176 7 241v221c0 64 -2 193 -7 241c39 0 76 1 108 5c-2 -29 -3 -109 -3 -148v-153h369v55c0 64 -2 193 -7 241c39 0 76 1 108 5c-2 -29 -3 -109 -3 -148v-416c0 -38 1 -116 3 -144z" glyph-name="H"/>
<glyph horiz-adv-x="318" unicode="I" d="M211 0h-108c5 48 7 176 7 241v221c0 64 -2 193 -7 241c39 0 76 1 108 5c-2 -29 -3 -109 -3 -148v-416c0 -38 1 -116 3 -144z" glyph-name="I"/>
<glyph horiz-adv-x="426" unicode="J" d="M232 462c0 64 -2 193 -7 241c39 0 76 1 108 5c-2 -29 -3 -109 -3 -148v-363c0 -146 -50 -215 -186 -215c-34 0 -90 10 -127 27l6 92c38 -19 79 -32 120 -32c65 0 89 41 89 110v283z" glyph-name="J"/>
<glyph horiz-adv-x="315" d="M120 15v447c0 64 -2 193 -7 241c39 0 76 1 108 5c-2 -29 -3 -109 -3 -148v-551c0 -146 -50 -215 -186 -215c-15 0 -33 2 -53 7l-13 91c16 -3 37 -6 52 -6c79 0 102 26 102 129z" glyph-name="J.alt"/>
<glyph horiz-adv-x="648" unicode="K" d="M523 -8l-319 357v-205c0 -38 1 -116 3 -144h-108c5 48 7 176 7 241v221c0 64 -2 193 -7 241c39 0 76 1 108 5c-2 -29 -3 -109 -3 -148v-187l129 141c54 59 116 129 171 191h127l-321 -338l147 -162c55 -62 129 -143 186 -205z" glyph-name="K"/>
<glyph horiz-adv-x="532" unicode="L" d="M515 86c-4 -28 -6 -58 -7 -90c-60 4 -134 5 -205 5s-145 -1 -204 -5c5 48 7 180 7 245v221c0 64 -2 193 -7 241c39 0 76 1 108 5c-2 -29 -3 -109 -3 -148v-414c0 -16 0 -42 2 -62c28 0 60 -1 90 -1c81 0 151 1 219 3z" glyph-name="L"/>
<glyph horiz-adv-x="881" unicode="M" d="M56 0c12 53 31 175 40 241l31 222c9 65 24 197 28 250l26 7c19 -45 49 -109 68 -149l191 -412l191 412c18 39 53 115 67 149h24c6 -57 24 -193 32 -256l31 -223c9 -65 30 -189 41 -241l-103 -8c-2 29 -10 112 -17 152l-40 307c-35 -74 -199 -419 -216 -461l-25 -7 c-17 41 -173 379 -213 467l-41 -306c-5 -39 -14 -116 -15 -144h-100z" glyph-name="M"/>
<glyph horiz-adv-x="785" unicode="N" d="M90 0c6 48 11 176 12 241l4 240c1 64 0 184 -4 232l26 7l462 -535v277c0 64 -2 193 -8 241c39 0 77 1 111 5c-4 -29 -7 -109 -8 -148l-7 -422c-1 -39 -1 -120 2 -148l-26 -7l-458 527v-366c0 -39 1 -116 4 -144h-110z" glyph-name="N"/>
<glyph horiz-adv-x="811" unicode="O" d="M404 65c150 0 252 132 252 286c0 177 -107 286 -249 286c-150 0 -252 -132 -252 -286c0 -177 107 -286 249 -286zM396 -18c-204 0 -342 162 -342 351c0 216 147 387 361 387c204 0 342 -162 342 -351c0 -216 -147 -387 -361 -387z" glyph-name="O"/>
<glyph horiz-adv-x="573" unicode="P" d="M203 264v-120c0 -38 1 -116 3 -144h-108c5 48 7 176 7 241v221c0 64 -2 193 -7 241c36 0 126 5 196 5c170 0 256 -97 256 -207c0 -131 -85 -239 -292 -239c-17 0 -37 1 -55 2zM449 486c0 87 -53 137 -171 137c-28 0 -46 -1 -75 -3v-275c18 -2 38 -3 56 -3 c119 0 190 53 190 144z" glyph-name="P"/>
<glyph horiz-adv-x="815" unicode="Q" d="M843 -58l-64 -80l-395 121c-198 6 -330 165 -330 350c0 216 147 387 361 387c204 0 342 -162 342 -351c0 -159 -79 -293 -206 -353l124 -35c53 -15 134 -33 168 -39zM404 65c150 0 252 132 252 286c0 177 -107 286 -249 286c-150 0 -252 -132 -252 -286 c0 -177 107 -286 249 -286z" glyph-name="Q"/>
<glyph horiz-adv-x="633" unicode="R" d="M611 6l-116 -13l-181 284h-111v-133c0 -38 1 -116 3 -144h-108c5 48 7 176 7 241v221c0 64 -2 193 -7 241c36 0 138 4 184 5c175 3 272 -94 269 -204c-3 -97 -53 -162 -148 -204l103 -151c27 -38 82 -115 105 -143zM203 359h105c90 0 142 61 142 132 c0 86 -53 132 -158 132c-33 0 -62 -1 -89 -3v-261z" glyph-name="R"/>
<glyph horiz-adv-x="528" unicode="S" d="M478 197c0 -120 -88 -215 -233 -215c-65 0 -145 25 -197 59l6 104c40 -36 122 -75 197 -75c76 0 129 39 129 114c0 138 -304 149 -304 333c0 113 91 203 221 203c66 0 124 -23 163 -52l-32 -86c-34 28 -90 50 -135 50c-71 0 -119 -41 -119 -103c0 -128 304 -132 304 -332 z" glyph-name="S"/>
<glyph horiz-adv-x="642" unicode="T" d="M611 709c-5 -29 -7 -57 -8 -89c-77 1 -144 2 -234 2c-1 -22 -1 -48 -1 -65v-413c0 -38 1 -116 3 -144h-108c5 48 7 176 7 241v217c0 42 0 108 -2 164c-90 0 -161 -1 -237 -2c3 25 4 58 4 89c90 -3 176 -5 284 -5c109 0 200 2 292 5z" glyph-name="T"/>
<glyph horiz-adv-x="756" unicode="U" d="M666 708c-4 -29 -5 -109 -5 -148v-268c0 -117 -25 -178 -77 -229c-53 -53 -123 -81 -221 -81c-157 0 -268 99 -268 258v222c0 64 -2 193 -7 241c40 0 76 1 109 5c-3 -29 -4 -109 -4 -148v-288c0 -149 74 -203 189 -203c114 0 181 70 181 182v211c0 64 -2 193 -8 241 c40 0 77 1 111 5z" glyph-name="U"/>
<glyph horiz-adv-x="659" unicode="V" d="M6 701l108 8l221 -529l135 331c24 60 51 130 73 191h110l-223 -512c-38 -85 -62 -143 -81 -201l-26 -7l-224 515c-27 64 -64 145 -93 204z" glyph-name="V"/>
<glyph horiz-adv-x="990" unicode="W" d="M984 702l-194 -512c-32 -86 -54 -143 -73 -201l-24 -7l-195 519l-123 -316c-19 -51 -50 -122 -80 -203h-24l-187 515c-23 64 -53 145 -78 204l106 8l178 -516l125 327l71 192l25 7l193 -524l110 316c20 60 43 130 62 191h108z" glyph-name="W"/>
<glyph horiz-adv-x="709" unicode="X" d="M156 0h-119l259 351l-105 148c-44 61 -103 145 -147 205l114 8l195 -287l59 89c39 58 91 130 132 191h118l-253 -342l112 -158c43 -60 102 -145 147 -205l-114 -8l-201 296l-65 -96c-40 -60 -91 -132 -132 -192z" glyph-name="X"/>
<glyph horiz-adv-x="624" unicode="Y" d="M6 704l110 8l199 -321l60 93c42 63 95 154 136 221h114l-262 -396v-165c0 -38 1 -116 3 -144h-108c5 48 7 176 7 241v63l-106 164c-41 67 -108 170 -153 236z" glyph-name="Y"/>
<glyph horiz-adv-x="634" unicode="Z" d="M591 709l19 -18l-430 -609c38 0 95 -1 134 -1c102 0 207 1 274 3c-5 -28 -7 -56 -8 -88c-57 4 -169 5 -258 5c-109 0 -209 -1 -278 -5l-20 19l430 608c-43 1 -79 1 -128 1c-98 0 -182 -1 -257 -2c3 25 4 56 4 87c89 -3 135 -5 254 -5s201 2 264 5z" glyph-name="Z"/>
<glyph horiz-adv-x="485" unicode="a" d="M180 -14c-88 0 -145 54 -145 136c0 93 83 155 243 155c13 0 26 -1 39 -2l1 15c2 69 -27 103 -97 103c-46 0 -95 -20 -127 -44l-21 80c50 29 104 45 163 45c119 0 175 -72 172 -178l-6 -198c-1 -28 7 -40 29 -40c12 0 25 3 40 8l-9 -64c-17 -7 -36 -14 -60 -14 c-38 0 -73 26 -78 78c-27 -47 -80 -80 -144 -80zM200 60c64 0 111 47 114 111l2 45c-14 1 -27 2 -41 2c-112 0 -151 -41 -151 -91c0 -38 21 -67 76 -67z" glyph-name="a"/>
<glyph horiz-adv-x="550" unicode="b" d="M511 247c0 -144 -109 -265 -251 -265c-45 0 -85 15 -111 34l-66 -31l-17 6c5 57 7 116 7 174v381c0 58 -2 122 -7 165c36 3 73 8 103 13c-3 -26 -4 -74 -4 -109v-197c38 33 89 56 145 56c117 0 201 -91 201 -227zM419 236c0 96 -46 157 -133 157c-44 0 -91 -23 -121 -57 v-246c27 -18 61 -27 103 -27c88 0 151 82 151 173z" glyph-name="b"/>
<glyph horiz-adv-x="478" unicode="c" d="M436 429l-26 -81c-38 30 -83 44 -129 44c-88 0 -150 -70 -150 -160c0 -111 75 -169 157 -169c57 0 96 15 146 59l-4 -95c-52 -32 -89 -45 -153 -45c-136 0 -237 103 -237 234c0 144 103 258 245 258c55 0 110 -16 151 -45z" glyph-name="c"/>
<glyph horiz-adv-x="550" unicode="d" d="M278 474c40 0 81 -13 107 -33l-1 104c0 58 -1 122 -6 165c36 3 73 7 103 13c-3 -26 -4 -75 -4 -109v-448c0 -58 2 -120 7 -166h-85l-7 50c-31 -40 -87 -68 -141 -68c-130 0 -212 101 -212 229c0 147 102 263 239 263zM280 394c-94 0 -149 -78 -149 -172 c0 -107 64 -160 137 -160c49 0 95 27 117 70v220c-24 25 -60 42 -105 42z" glyph-name="d"/>
<glyph horiz-adv-x="500" unicode="e" d="M465 247l-60 -36l-273 -8c7 -93 55 -140 144 -140c70 0 122 31 167 68l-4 -94c-51 -34 -106 -55 -172 -55c-154 0 -227 109 -227 234c0 144 91 258 233 258c136 0 192 -102 192 -227zM134 272l245 7c-10 77 -42 118 -111 118c-74 0 -121 -54 -134 -125z" glyph-name="e"/>
<glyph horiz-adv-x="333" unicode="f" d="M326 715l7 -86c-13 5 -28 8 -44 8c-58 0 -87 -41 -87 -122v-51h125c-3 -22 -4 -44 -4 -80h-121v-287c0 -35 1 -72 4 -97h-102c5 43 7 105 7 163v221h-91l25 80h66v41c0 130 58 218 165 218c23 0 38 -4 50 -8z" glyph-name="f"/>
<glyph horiz-adv-x="476" unicode="g" d="M430 312c0 -106 -85 -180 -197 -180c-21 0 -40 3 -58 8c-21 -13 -33 -27 -33 -39c0 -24 21 -34 102 -34h20c125 0 203 -33 203 -119c0 -93 -106 -172 -252 -172c-129 0 -198 53 -198 119c0 52 37 90 99 119c-33 15 -55 36 -55 67c0 35 23 60 63 84c-43 30 -68 78 -68 130 c0 99 83 179 194 179c28 0 52 -5 73 -13c19 67 66 93 138 84l-5 -81c-46 5 -69 -6 -82 -34c38 -35 56 -83 56 -118zM247 -9c-24 0 -43 1 -60 3c-59 -25 -84 -57 -84 -85c0 -32 38 -62 117 -62c98 0 161 40 161 88c0 38 -40 56 -120 56h-14zM344 302c0 61 -37 101 -98 101 c-62 0 -103 -48 -103 -99c0 -66 40 -101 98 -101c63 0 103 45 103 99z" glyph-name="g"/>
<glyph horiz-adv-x="545" unicode="h" d="M478 0h-103c5 43 7 112 7 170v120c0 58 -19 103 -80 103c-66 0 -137 -65 -137 -125v-171c0 -35 1 -71 4 -97h-102c4 43 6 105 6 164v381c0 58 -2 122 -6 165c35 3 72 7 102 13c-3 -26 -4 -75 -4 -109v-237c38 62 106 97 161 97c100 0 148 -62 148 -166v-205 c0 -35 2 -77 4 -103z" glyph-name="h"/>
<glyph horiz-adv-x="238" unicode="i" d="M169 0h-103c5 43 7 105 7 164v126c0 58 -2 127 -7 170c36 0 73 2 103 5c-3 -26 -4 -72 -4 -107v-261c0 -35 1 -71 4 -97zM184 632c0 -35 -25 -65 -62 -65c-36 0 -59 29 -59 59c0 35 25 65 62 65c35 0 59 -29 59 -59z" glyph-name="i"/>
<glyph horiz-adv-x="238" unicode="j" d="M169 465c-3 -26 -4 -72 -4 -107v-397c0 -129 -66 -175 -137 -175c-17 0 -36 4 -45 7l-11 81c13 -2 24 -3 34 -3c45 0 67 23 67 86l1 333c0 58 -2 127 -7 170c36 0 72 2 102 5zM184 632c0 -35 -25 -65 -62 -65c-36 0 -59 29 -59 59c0 35 25 65 62 65c35 0 59 -29 59 -59z " glyph-name="j"/>
<glyph horiz-adv-x="470" unicode="k" d="M374 -12l-209 240v-131c0 -35 1 -72 4 -97h-103c5 43 7 105 7 163v382c0 58 -2 122 -7 165c36 3 73 7 103 13c-3 -26 -4 -75 -4 -110v-355c45 55 143 168 174 209c37 0 84 1 117 4l-199 -219l43 -48c60 -68 124 -146 172 -196z" glyph-name="k"/>
<glyph horiz-adv-x="238" unicode="l" d="M169 0h-103c5 43 7 105 7 164v381c0 58 -2 122 -7 165c36 3 73 7 103 13c-3 -26 -4 -75 -4 -109v-517c0 -35 1 -71 4 -97z" glyph-name="l"/>
<glyph horiz-adv-x="817" unicode="m" d="M750 0h-103c5 43 7 112 7 170v120c0 58 -16 103 -77 103c-66 0 -123 -51 -123 -112v-178c0 -35 1 -77 4 -103h-102c4 43 6 112 6 170v120c0 58 -13 103 -74 103c-65 0 -123 -51 -123 -112v-178c0 -35 1 -77 4 -103h-103c5 43 7 112 7 170v120c0 58 -2 127 -7 170 c36 0 60 2 90 5l7 -76c41 55 96 85 149 85c74 0 117 -38 133 -89c31 51 87 89 155 89c100 0 146 -62 146 -166v-205c0 -35 1 -77 4 -103z" glyph-name="m"/>
<glyph horiz-adv-x="545" unicode="n" d="M478 0h-103c5 43 7 112 7 170v120c0 58 -19 103 -80 103c-66 0 -137 -65 -137 -125v-165c0 -35 1 -77 4 -103h-102c4 43 6 112 6 170v120c0 58 -2 127 -6 170c35 0 60 2 90 5l7 -89c38 62 106 98 162 98c100 0 148 -62 148 -166v-205c0 -35 2 -77 4 -103z" glyph-name="n"/>
<glyph horiz-adv-x="538" unicode="o" d="M498 240c0 -144 -93 -258 -236 -258c-136 0 -222 109 -222 234c0 144 93 258 235 258c137 0 223 -109 223 -234zM407 227c0 107 -60 166 -136 166c-85 0 -140 -72 -140 -162c0 -111 54 -168 136 -168c88 0 140 73 140 164z" glyph-name="o"/>
<glyph horiz-adv-x="550" unicode="p" d="M511 246c0 -164 -122 -264 -228 -264c-46 0 -92 16 -118 38v-132c0 -34 1 -68 4 -93l-103 -9c5 43 7 111 7 169v335c0 58 -2 127 -7 170c36 0 60 1 90 4l4 -62c34 41 88 72 148 72c127 0 203 -102 203 -228zM419 237c0 111 -62 157 -135 157c-46 0 -91 -28 -119 -69v-217 c24 -28 60 -47 116 -47c83 0 138 83 138 176z" glyph-name="p"/>
<glyph horiz-adv-x="550" unicode="q" d="M385 122v239c-26 20 -61 33 -102 33c-94 0 -152 -79 -152 -174c0 -98 56 -157 136 -157c45 0 95 23 118 59zM468 472l16 -6c-5 -56 -7 -115 -7 -174v-403c0 -35 1 -68 4 -94l-102 -9c5 44 6 112 6 170v82c-30 -33 -79 -56 -132 -56c-126 0 -214 97 -214 230 c0 146 106 262 245 262c43 0 92 -18 118 -35z" glyph-name="q"/>
<glyph horiz-adv-x="340" unicode="r" d="M326 474l-12 -106c-66 12 -149 -23 -149 -93v-172c0 -35 1 -77 4 -103h-102c5 43 6 112 6 170v140c0 58 -3 103 -10 144c32 1 62 6 91 13l10 -91c38 62 87 89 162 98z" glyph-name="r"/>
<glyph horiz-adv-x="415" unicode="s" d="M220 474c58 0 112 -18 144 -38l-31 -80c-31 23 -72 37 -113 37c-40 0 -78 -14 -78 -56c0 -74 237 -58 237 -202c0 -95 -83 -153 -181 -153c-50 0 -121 16 -158 41l5 95c40 -32 102 -55 155 -55c51 0 89 20 89 57c0 91 -236 64 -236 213c0 78 69 141 167 141z" glyph-name="s"/>
<glyph horiz-adv-x="349" unicode="t" d="M318 92l-4 -80c-21 -17 -61 -26 -91 -26c-87 0 -123 49 -123 136v262h-83l24 80h60l9 98l82 22v-120h123c-2 -22 -3 -44 -3 -80h-120v-256c0 -47 17 -60 51 -60c25 0 55 11 75 24z" glyph-name="t"/>
<glyph horiz-adv-x="545" unicode="u" d="M479 0h-85l-11 72c-38 -62 -108 -90 -150 -90c-105 0 -162 57 -162 179v129c0 58 -2 127 -6 170c36 0 72 2 102 5c-3 -26 -4 -72 -4 -107v-179c0 -75 24 -116 94 -116c48 0 123 51 123 111v116c0 58 -2 127 -7 170c36 0 74 2 104 5c-3 -26 -5 -72 -5 -107v-192 c0 -58 2 -120 7 -166z" glyph-name="u"/>
<glyph horiz-adv-x="482" unicode="v" d="M210 -11c-15 47 -43 110 -68 169l-56 128c-26 59 -54 126 -77 169l100 13l135 -337l58 155c14 38 49 128 64 176c36 0 73 1 102 4l-195 -470z" glyph-name="v"/>
<glyph horiz-adv-x="706" unicode="w" d="M182 -11c-12 47 -34 110 -55 169l-48 128c-22 59 -47 126 -67 169l101 13l103 -317l45 130c24 68 45 131 60 181l67 6l113 -315l41 129c12 37 40 130 53 180c36 0 68 1 98 4l-164 -470l-59 -7c-15 53 -37 120 -63 191l-53 142l-112 -326z" glyph-name="w"/>
<glyph horiz-adv-x="462" unicode="x" d="M130 468l108 -172c37 57 88 134 108 166c31 0 79 1 106 4l-163 -230l26 -39c38 -61 96 -145 131 -194l-98 -14l-115 183c-44 -59 -101 -144 -121 -172h-104l173 230l-18 26c-42 67 -98 150 -132 199z" glyph-name="x"/>
<glyph horiz-adv-x="468" unicode="y" d="M77 -212l115 262c-14 35 -28 72 -43 108l-58 128c-26 59 -56 126 -79 169l103 13l124 -313l54 132c25 62 46 120 65 175c36 0 73 1 102 4l-224 -529c-14 -36 -41 -96 -57 -145c-35 0 -72 -1 -102 -4z" glyph-name="y"/>
<glyph horiz-adv-x="459" unicode="z" d="M422 466l13 -23l-267 -366c60 0 190 0 258 2c-5 -29 -7 -51 -8 -84c-59 3 -121 5 -191 5c-71 0 -126 -2 -186 -5l-13 23l266 368c-89 0 -165 -1 -241 -2c2 26 4 51 4 82c64 -2 87 -3 164 -3c78 0 136 1 201 3z" glyph-name="z"/>
<glyph horiz-adv-x="544" d="M15 0l172 369c28 60 48 101 63 142l35 7l171 -370c20 -44 49 -103 72 -148l-101 -6l-59 132h-201c-16 -35 -37 -91 -52 -126h-100zM267 363l-70 -166h141z" glyph-name="a.sc"/>
<glyph horiz-adv-x="491" d="M252 0h-176c4 35 5 127 5 174v159c0 46 -1 138 -5 173c25 0 114 4 162 4c132 0 186 -65 186 -131c0 -53 -34 -90 -79 -108c69 -21 102 -66 102 -123c0 -83 -66 -148 -195 -148zM172 82c20 -2 50 -3 71 -3c71 0 111 23 111 75c0 45 -35 75 -124 75c-21 0 -43 -1 -59 -3 v-112c0 -10 0 -20 1 -32zM171 297c14 -1 40 -1 55 -1c71 0 107 24 107 69s-34 66 -103 66c-25 0 -45 -1 -58 -2c-1 -12 -1 -27 -1 -37v-95z" glyph-name="b.sc"/>
<glyph horiz-adv-x="513" d="M474 141l-7 -100c-48 -35 -103 -54 -164 -54c-150 0 -257 117 -257 253c0 155 115 278 271 278c54 0 111 -16 151 -43l-21 -85c-34 25 -82 45 -127 45c-104 0 -179 -80 -179 -180c0 -117 77 -184 174 -184c65 0 113 29 159 70z" glyph-name="c.sc"/>
<glyph horiz-adv-x="553" d="M506 267c0 -158 -106 -267 -265 -267h-165c4 35 5 127 5 174v159c0 46 -1 138 -5 173c26 0 78 4 150 4c182 0 280 -105 280 -243zM413 259c0 101 -66 171 -183 171c-20 0 -35 -1 -54 -2c-1 -12 -1 -32 -1 -42v-265c0 -11 0 -24 1 -37c20 -2 32 -4 56 -4 c130 0 181 84 181 179z" glyph-name="d.sc"/>
<glyph horiz-adv-x="436" d="M400 81c-3 -26 -4 -54 -5 -84c-45 3 -108 4 -160 4c-55 0 -113 -1 -159 -4c4 35 5 128 5 174v165c0 47 -1 140 -5 174c46 -2 97 -3 152 -3c54 0 113 1 158 3c-4 -25 -6 -53 -6 -82c-41 1 -91 1 -140 1h-65c-1 -13 -1 -26 -1 -36v-90l182 1c-2 -22 -2 -53 -2 -79l-180 1 v-111c0 -10 0 -24 1 -36c21 0 44 -1 65 -1c56 0 113 1 160 3z" glyph-name="e.sc"/>
<glyph horiz-adv-x="416" d="M381 510c-3 -25 -5 -53 -5 -83c-41 1 -84 1 -133 1h-67c-1 -13 -1 -32 -1 -42v-90l167 1c-1 -22 -2 -52 -2 -79l-165 1v-115c0 -28 0 -84 3 -104h-102c4 35 5 127 5 174v162c0 47 -1 140 -5 174c46 -2 100 -3 155 -3c54 0 106 1 150 3z" glyph-name="f.sc"/>
<glyph horiz-adv-x="556" d="M489 471l-27 -81c-36 25 -83 45 -133 45c-109 0 -188 -80 -188 -180c0 -117 77 -184 174 -184c35 0 66 7 94 20v68c0 10 0 29 -1 42h-38c-32 0 -51 0 -88 -2c2 29 2 59 0 81c44 -2 66 -3 99 -3c52 0 74 1 119 3c-4 -28 -5 -130 -5 -177v-62c-56 -35 -120 -54 -192 -54 c-150 0 -257 117 -257 253c0 155 119 278 281 278c63 0 123 -19 162 -47z" glyph-name="g.sc"/>
<glyph horiz-adv-x="556" d="M489 471l-27 -81c-36 25 -83 45 -133 45c-109 0 -188 -80 -188 -180c0 -117 77 -184 174 -184c34 0 64 6 91 19v75c0 16 -2 89 -3 94h97c-1 -5 -5 -112 -5 -157v-61c-56 -35 -120 -54 -192 -54c-150 0 -257 117 -257 253c0 155 119 278 281 278c63 0 123 -19 162 -47z " glyph-name="g.sc_alt"/>
<glyph horiz-adv-x="588" d="M511 0h-103c5 35 6 124 6 171v52h-239v-119c0 -28 0 -84 3 -104h-102c4 35 5 127 5 174v159c0 46 -1 139 -5 173c29 0 78 1 102 4c-3 -21 -3 -79 -3 -107v-102h239v34c0 46 -1 137 -6 171c29 0 78 1 103 4c-3 -21 -4 -79 -4 -107v-299c0 -28 1 -84 4 -104z" glyph-name="h.sc"/>
<glyph horiz-adv-x="261" d="M181 0h-102c4 35 5 127 5 174v159c0 46 -1 139 -5 173c29 0 78 1 102 4c-3 -21 -3 -79 -3 -107v-299c0 -28 0 -84 3 -104z" glyph-name="i.sc"/>
<glyph horiz-adv-x="346" d="M177 333c0 46 -1 139 -5 173c29 0 78 1 102 4c-3 -21 -3 -79 -3 -107v-249c0 -114 -39 -167 -145 -167c-28 0 -72 8 -102 20l5 87c28 -13 57 -21 87 -21c45 0 61 27 61 73v187z" glyph-name="j.sc"/>
<glyph horiz-adv-x="511" d="M498 1l-110 -7l-213 252v-142c0 -28 1 -84 3 -104h-102c4 35 6 127 6 174v159c0 46 -2 139 -6 173c29 0 78 1 102 4c-2 -21 -3 -79 -3 -107v-132l86 102c30 35 82 97 112 135h115l-218 -244l109 -127c30 -35 86 -101 119 -136z" glyph-name="k.sc"/>
<glyph horiz-adv-x="415" d="M76 -3c4 35 5 128 5 175v161c0 46 -1 139 -5 173c29 0 78 1 102 4c-3 -21 -3 -79 -3 -107v-282c0 -10 0 -28 1 -41c20 0 41 -1 61 -1c57 0 106 1 154 2c-3 -26 -5 -55 -6 -84c-45 3 -99 4 -153 4s-110 -1 -156 -4z" glyph-name="l.sc"/>
<glyph horiz-adv-x="672" d="M625 0l-96 -6c-1 21 -9 82 -13 110l-27 196c-34 -74 -125 -277 -137 -305l-35 -7c-11 27 -101 227 -137 309l-27 -194c-4 -28 -12 -123 -11 -103h-95c9 37 24 128 31 174l23 161c6 46 18 144 21 182l36 7l50 -107l129 -276l128 274l47 107h35c6 -42 18 -141 24 -187 l23 -160c7 -48 17 -106 31 -175z" glyph-name="m.sc"/>
<glyph horiz-adv-x="593" d="M71 0c4 35 8 127 8 174l2 170c1 46 1 133 -3 167l35 7l313 -351v166c0 46 -1 139 -6 173c29 0 76 1 100 4c-3 -21 -4 -79 -5 -107l-4 -305c0 -28 0 -84 2 -104l-35 -7l-310 348v-231c0 -28 1 -84 3 -104h-100z" glyph-name="n.sc"/>
<glyph horiz-adv-x="602" d="M308 518c149 0 248 -115 248 -253c0 -157 -107 -278 -262 -278c-149 0 -248 115 -248 253c0 157 107 278 262 278zM300 67c97 0 161 85 161 185c0 115 -67 186 -159 186c-97 0 -161 -85 -161 -185c0 -115 67 -186 159 -186z" glyph-name="o.sc"/>
<glyph horiz-adv-x="461" d="M76 506c26 0 109 4 156 4c134 0 202 -71 202 -157c0 -104 -66 -178 -221 -178c-11 0 -27 0 -38 1v-72c0 -28 1 -84 3 -104h-102c4 35 5 127 5 174v159c0 46 -1 139 -5 173zM342 341c0 59 -37 88 -115 88c-18 0 -33 0 -52 -1c-1 -15 -1 -29 -1 -39v-137c12 -2 28 -2 40 -2 c79 0 128 30 128 91z" glyph-name="p.sc"/>
<glyph horiz-adv-x="604" d="M308 518c149 0 248 -115 248 -253c0 -112 -54 -205 -141 -250l87 -23c31 -9 91 -23 118 -29l-59 -72l-287 97c-138 10 -228 120 -228 252c0 157 107 278 262 278zM302 438c-97 0 -161 -85 -161 -185c0 -115 67 -186 159 -186c97 0 161 85 161 185c0 115 -67 186 -159 186 z" glyph-name="q.sc"/>
<glyph horiz-adv-x="496" d="M476 4l-107 -10l-122 192h-73v-82c0 -28 1 -84 3 -104h-101c4 35 5 127 5 174v159c0 46 -1 139 -5 173c26 0 114 3 147 4c135 1 211 -63 210 -151c-1 -70 -37 -116 -103 -148l77 -112c18 -26 53 -74 69 -95zM174 260h70c60 0 96 39 96 85c0 54 -33 85 -109 85 c-20 0 -39 -1 -56 -2c-1 -15 -1 -27 -1 -38v-130z" glyph-name="r.sc"/>
<glyph horiz-adv-x="418" d="M373 145c0 -92 -69 -158 -176 -158c-51 0 -113 18 -152 42l4 94c31 -26 94 -54 152 -54c48 0 81 22 81 65c0 89 -220 99 -220 234c0 88 69 150 168 150c51 0 99 -16 129 -37l-25 -80c-27 20 -69 36 -104 36c-47 0 -76 -25 -76 -60c0 -83 219 -88 219 -232z" glyph-name="s.sc"/>
<glyph horiz-adv-x="494" d="M461 510c-3 -26 -5 -55 -5 -86c-54 1 -100 2 -162 2c-1 -15 -1 -34 -1 -45v-277c0 -28 0 -84 3 -104h-102c4 35 6 127 6 174v142c0 28 -1 71 -3 110c-61 0 -111 -1 -164 -2c2 24 2 59 2 86c67 -2 131 -3 211 -3s148 1 215 3z" glyph-name="t.sc"/>
<glyph horiz-adv-x="575" d="M504 510c-3 -21 -4 -79 -4 -107v-188c0 -84 -19 -130 -58 -168c-39 -39 -93 -60 -164 -60c-120 0 -203 71 -203 190v156c0 46 -1 139 -5 173c29 0 77 1 101 4c-2 -21 -3 -79 -3 -107v-198c0 -98 47 -134 122 -134s117 45 117 120v142c0 46 -2 139 -6 173c29 0 78 1 103 4 z" glyph-name="u.sc"/>
<glyph horiz-adv-x="515" d="M15 505l101 5l146 -357l89 225c17 42 35 91 48 128h101l-161 -369c-28 -64 -43 -101 -59 -142l-37 -7l-161 368c-20 45 -46 105 -67 149z" glyph-name="v.sc"/>
<glyph horiz-adv-x="751" d="M736 506l-140 -367c-23 -61 -38 -102 -52 -144l-34 -7l-133 350l-79 -202c-14 -36 -35 -87 -57 -146l-34 -2l-134 369c-16 45 -39 103 -58 147l99 6l121 -341l76 204l50 137l34 6l132 -342l66 194c15 44 30 93 44 138h99z" glyph-name="w.sc"/>
<glyph horiz-adv-x="544" d="M140 0h-107l183 254l-74 105l-103 147l105 6l129 -194l40 62c22 35 61 91 85 127h107l-178 -248l75 -107c25 -36 81 -116 107 -152l-106 -6l-133 201l-42 -65z" glyph-name="x.sc"/>
<glyph horiz-adv-x="490" d="M13 506l103 6l131 -218l39 62c25 38 67 112 91 151h104l-190 -289v-114c0 -28 1 -84 4 -104h-102c4 35 6 127 6 174v41l-75 119c-25 40 -84 133 -111 172z" glyph-name="y.sc"/>
<glyph horiz-adv-x="489" d="M446 510l19 -18l-294 -414c22 -1 69 -1 92 -1c68 0 137 1 182 2c-3 -25 -5 -53 -6 -82c-42 3 -124 4 -191 4c-80 0 -152 -1 -204 -4l-20 19l295 414c-24 1 -58 1 -86 1c-68 0 -122 -1 -174 -2c2 23 3 55 3 81c68 -2 100 -3 191 -3c88 0 145 1 193 3z" glyph-name="z.sc"/>
<glyph horiz-adv-x="701" unicode="Á" d="M6 0l237 512c39 84 65 143 87 201l26 7l240 -516c29 -63 67 -144 98 -204l-108 -8l-94 209h-296l-4 -10c-26 -61 -54 -131 -78 -191h-108zM344 533l-112 -252h224zM389 921l131 9l-161 -149l-63 -5z" glyph-name="Aacute"/>
<glyph horiz-adv-x="485" unicode="á" d="M180 -14c-88 0 -145 54 -145 136c0 93 83 155 243 155c13 0 26 -1 39 -2l1 15c2 69 -27 103 -97 103c-46 0 -95 -20 -127 -44l-21 80c50 29 104 45 163 45c119 0 175 -72 172 -178l-6 -198c-1 -28 7 -40 29 -40c12 0 25 3 40 8l-9 -64c-17 -7 -36 -14 -60 -14 c-38 0 -73 26 -78 78c-27 -47 -80 -80 -144 -80zM200 60c64 0 111 47 114 111l2 45c-14 1 -27 2 -41 2c-112 0 -151 -41 -151 -91c0 -38 21 -67 76 -67zM285 681l131 9l-161 -149l-63 -5z" glyph-name="aacute"/>
<glyph horiz-adv-x="544" d="M15 0l172 369c28 60 48 101 63 142l35 7l171 -370c20 -44 49 -103 72 -148l-101 -6l-59 132h-201c-16 -35 -37 -91 -52 -126h-100zM312 725l131 9l-161 -149l-63 -5zM267 363l-70 -166h141z" glyph-name="aacute.sc"/>
<glyph horiz-adv-x="701" unicode="Ă" d="M6 0l237 512c39 84 65 143 87 201l26 7l240 -516c29 -63 67 -144 98 -204l-108 -8l-94 209h-296l-4 -10c-26 -61 -54 -131 -78 -191h-108zM425 932l77 5c2 -100 -57 -162 -157 -162c-88 0 -152 65 -152 152l79 14c0 -64 30 -98 78 -98c53 0 75 41 75 89zM344 533 l-112 -252h224z" glyph-name="Abreve"/>
<glyph horiz-adv-x="485" unicode="ă" d="M180 -14c-88 0 -145 54 -145 136c0 93 83 155 243 155c13 0 26 -1 39 -2l1 15c2 69 -27 103 -97 103c-46 0 -95 -20 -127 -44l-21 80c50 29 104 45 163 45c119 0 175 -72 172 -178l-6 -198c-1 -28 7 -40 29 -40c12 0 25 3 40 8l-9 -64c-17 -7 -36 -14 -60 -14 c-38 0 -73 26 -78 78c-27 -47 -80 -80 -144 -80zM321 692l77 5c2 -100 -57 -162 -157 -162c-88 0 -152 65 -152 152l79 14c0 -64 30 -98 78 -98c53 0 75 41 75 89zM200 60c64 0 111 47 114 111l2 45c-14 1 -27 2 -41 2c-112 0 -151 -41 -151 -91c0 -38 21 -67 76 -67z" glyph-name="abreve"/>
<glyph horiz-adv-x="544" d="M15 0l172 369c28 60 48 101 63 142l35 7l171 -370c20 -44 49 -103 72 -148l-101 -6l-59 132h-201c-16 -35 -37 -91 -52 -126h-100zM348 736l77 5c2 -100 -57 -162 -157 -162c-88 0 -152 65 -152 152l79 14c0 -64 30 -98 78 -98c53 0 75 41 75 89zM267 363l-70 -166h141z " glyph-name="abreve.sc"/>
<glyph horiz-adv-x="701" unicode="Â" d="M6 0l237 512c39 84 65 143 87 201l26 7l240 -516c29 -63 67 -144 98 -204l-108 -8l-94 209h-296l-4 -10c-26 -61 -54 -131 -78 -191h-108zM344 533l-112 -252h224zM296 931h115l96 -152l-68 -6l-87 97l-82 -89h-80z" glyph-name="Acircumflex"/>
<glyph horiz-adv-x="485" unicode="â" d="M180 -14c-88 0 -145 54 -145 136c0 93 83 155 243 155c13 0 26 -1 39 -2l1 15c2 69 -27 103 -97 103c-46 0 -95 -20 -127 -44l-21 80c50 29 104 45 163 45c119 0 175 -72 172 -178l-6 -198c-1 -28 7 -40 29 -40c12 0 25 3 40 8l-9 -64c-17 -7 -36 -14 -60 -14 c-38 0 -73 26 -78 78c-27 -47 -80 -80 -144 -80zM192 691h115l96 -152l-68 -6l-87 97l-82 -89h-80zM200 60c64 0 111 47 114 111l2 45c-14 1 -27 2 -41 2c-112 0 -151 -41 -151 -91c0 -38 21 -67 76 -67z" glyph-name="acircumflex"/>
<glyph horiz-adv-x="544" d="M15 0l172 369c28 60 48 101 63 142l35 7l171 -370c20 -44 49 -103 72 -148l-101 -6l-59 132h-201c-16 -35 -37 -91 -52 -126h-100zM218 727h115l96 -152l-68 -6l-87 97l-82 -89h-80zM267 363l-70 -166h141z" glyph-name="acircumflex.sc"/>
<glyph horiz-adv-x="701" unicode="Ä" d="M6 0l237 512c39 84 65 143 87 201l26 7l240 -516c29 -63 67 -144 98 -204l-108 -8l-94 209h-296l-4 -10c-26 -61 -54 -131 -78 -191h-108zM344 533l-112 -252h224zM317 862c0 -35 -24 -65 -60 -65c-35 0 -57 29 -57 59c0 35 24 65 60 65c34 0 57 -29 57 -59zM497 862 c0 -35 -24 -65 -60 -65c-35 0 -57 29 -57 59c0 35 24 65 60 65c34 0 57 -29 57 -59z" glyph-name="Adieresis"/>
<glyph horiz-adv-x="485" unicode="ä" d="M180 -14c-88 0 -145 54 -145 136c0 93 83 155 243 155c13 0 26 -1 39 -2l1 15c2 69 -27 103 -97 103c-46 0 -95 -20 -127 -44l-21 80c50 29 104 45 163 45c119 0 175 -72 172 -178l-6 -198c-1 -28 7 -40 29 -40c12 0 25 3 40 8l-9 -64c-17 -7 -36 -14 -60 -14 c-38 0 -73 26 -78 78c-27 -47 -80 -80 -144 -80zM200 60c64 0 111 47 114 111l2 45c-14 1 -27 2 -41 2c-112 0 -151 -41 -151 -91c0 -38 21 -67 76 -67zM213 622c0 -35 -24 -65 -60 -65c-35 0 -57 29 -57 59c0 35 24 65 60 65c34 0 57 -29 57 -59zM393 622 c0 -35 -24 -65 -60 -65c-35 0 -57 29 -57 59c0 35 24 65 60 65c34 0 57 -29 57 -59z" glyph-name="adieresis"/>
<glyph horiz-adv-x="544" d="M15 0l172 369c28 60 48 101 63 142l35 7l171 -370c20 -44 49 -103 72 -148l-101 -6l-59 132h-201c-16 -35 -37 -91 -52 -126h-100zM267 363l-70 -166h141zM240 666c0 -35 -24 -65 -60 -65c-35 0 -57 29 -57 59c0 35 24 65 60 65c34 0 57 -29 57 -59zM420 666 c0 -35 -24 -65 -60 -65c-35 0 -57 29 -57 59c0 35 24 65 60 65c34 0 57 -29 57 -59z" glyph-name="adieresis.sc"/>
<glyph horiz-adv-x="701" unicode="À" d="M6 0l237 512c39 84 65 143 87 201l26 7l240 -516c29 -63 67 -144 98 -204l-108 -8l-94 209h-296l-4 -10c-26 -61 -54 -131 -78 -191h-108zM344 533l-112 -252h224zM188 921l113 9l91 -149l-59 -5z" glyph-name="Agrave"/>
<glyph horiz-adv-x="485" unicode="à" d="M180 -14c-88 0 -145 54 -145 136c0 93 83 155 243 155c13 0 26 -1 39 -2l1 15c2 69 -27 103 -97 103c-46 0 -95 -20 -127 -44l-21 80c50 29 104 45 163 45c119 0 175 -72 172 -178l-6 -198c-1 -28 7 -40 29 -40c12 0 25 3 40 8l-9 -64c-17 -7 -36 -14 -60 -14 c-38 0 -73 26 -78 78c-27 -47 -80 -80 -144 -80zM200 60c64 0 111 47 114 111l2 45c-14 1 -27 2 -41 2c-112 0 -151 -41 -151 -91c0 -38 21 -67 76 -67zM84 681l113 9l91 -149l-59 -5z" glyph-name="agrave"/>
<glyph horiz-adv-x="544" d="M15 0l172 369c28 60 48 101 63 142l35 7l171 -370c20 -44 49 -103 72 -148l-101 -6l-59 132h-201c-16 -35 -37 -91 -52 -126h-100zM111 725l113 9l91 -149l-59 -5zM267 363l-70 -166h141z" glyph-name="agrave.sc"/>
<glyph horiz-adv-x="701" unicode="Ā" d="M6 0l237 512c39 84 65 143 87 201l26 7l240 -516c29 -63 67 -144 98 -204l-108 -8l-94 209h-296l-4 -10c-26 -61 -54 -131 -78 -191h-108zM344 533l-112 -252h224zM500 895c-3 -20 -5 -53 -5 -76c-40 1 -76 2 -113 2h-76c-43 0 -75 -1 -109 -2c2 18 4 54 4 76 c49 -2 83 -3 149 -3c46 0 101 1 150 3z" glyph-name="Amacron"/>
<glyph horiz-adv-x="485" unicode="ā" d="M180 -14c-88 0 -145 54 -145 136c0 93 83 155 243 155c13 0 26 -1 39 -2l1 15c2 69 -27 103 -97 103c-46 0 -95 -20 -127 -44l-21 80c50 29 104 45 163 45c119 0 175 -72 172 -178l-6 -198c-1 -28 7 -40 29 -40c12 0 25 3 40 8l-9 -64c-17 -7 -36 -14 -60 -14 c-38 0 -73 26 -78 78c-27 -47 -80 -80 -144 -80zM200 60c64 0 111 47 114 111l2 45c-14 1 -27 2 -41 2c-112 0 -151 -41 -151 -91c0 -38 21 -67 76 -67zM396 655c-3 -20 -5 -53 -5 -76c-40 1 -76 2 -113 2h-76c-43 0 -75 -1 -109 -2c2 18 4 54 4 76c49 -2 83 -3 149 -3 c46 0 101 1 150 3z" glyph-name="amacron"/>
<glyph horiz-adv-x="544" d="M15 0l172 369c28 60 48 101 63 142l35 7l171 -370c20 -44 49 -103 72 -148l-101 -6l-59 132h-201c-16 -35 -37 -91 -52 -126h-100zM423 699c-3 -20 -5 -53 -5 -76c-40 1 -76 2 -113 2h-76c-43 0 -75 -1 -109 -2c2 18 4 54 4 76c49 -2 83 -3 149 -3c46 0 101 1 150 3z M267 363l-70 -166h141z" glyph-name="amacron.sc"/>
<glyph horiz-adv-x="701" unicode="Ą" d="M6 0l237 512c39 84 65 143 87 201l26 7l240 -516c29 -63 66 -143 97 -203l2 -1c-82 -46 -113 -83 -113 -118c0 -24 16 -42 47 -42c21 0 40 7 62 21l-5 -62c-21 -14 -49 -20 -73 -20c-64 0 -105 35 -105 90c0 44 27 85 77 124l-93 208h-296l-4 -10 c-26 -61 -54 -131 -78 -191h-108zM344 533l-112 -252h224z" glyph-name="Aogonek"/>
<glyph horiz-adv-x="485" unicode="ą" d="M180 -14c-88 0 -145 54 -145 136c0 93 83 155 243 155c13 0 26 -1 39 -2l1 15c2 69 -27 103 -97 103c-46 0 -95 -20 -127 -44l-21 80c50 29 104 45 163 45c119 0 175 -72 172 -178l-6 -198c-1 -28 7 -40 29 -40c12 0 25 3 40 8l-9 -61c-83 -54 -108 -92 -108 -123 c0 -24 16 -42 47 -42c21 0 40 7 62 21l-5 -62c-21 -14 -49 -20 -73 -20c-64 0 -105 35 -105 90c0 47 31 87 90 126c-24 10 -43 34 -46 71c-27 -47 -80 -80 -144 -80zM200 60c64 0 111 47 114 111l2 45c-14 1 -27 2 -41 2c-112 0 -151 -41 -151 -91c0 -38 21 -67 76 -67z" glyph-name="aogonek"/>
<glyph horiz-adv-x="544" d="M15 0l172 369c28 60 48 101 63 142l35 7l171 -370c20 -44 49 -103 72 -148c-82 -46 -113 -83 -113 -118c0 -24 16 -42 47 -42c21 0 40 7 62 21l-5 -62c-21 -14 -49 -20 -73 -20c-64 0 -105 35 -105 90c0 45 30 86 85 126l-58 131h-201c-16 -35 -37 -91 -52 -126h-100z M267 363l-70 -166h141z" glyph-name="aogonek.sc"/>
<glyph horiz-adv-x="701" unicode="Å" d="M6 0l237 512c30 65 52 115 71 161c-53 12 -85 55 -85 103c0 65 48 115 121 115c72 0 116 -48 116 -104c0 -54 -34 -100 -89 -113l219 -470c29 -63 67 -144 98 -204l-108 -8l-94 209h-296l-4 -10c-26 -61 -54 -131 -78 -191h-108zM344 533l-112 -252h224zM402 780 c0 35 -19 59 -54 59c-36 0 -55 -26 -55 -56c0 -35 22 -60 54 -60c36 0 55 27 55 57z" glyph-name="Aring"/>
<glyph horiz-adv-x="485" unicode="å" d="M180 -14c-88 0 -145 54 -145 136c0 93 83 155 243 155c13 0 26 -1 39 -2l1 15c2 69 -27 103 -97 103c-46 0 -95 -20 -127 -44l-21 80c50 29 104 45 163 45c119 0 175 -72 172 -178l-6 -198c-1 -28 7 -40 29 -40c12 0 25 3 40 8l-9 -64c-17 -7 -36 -14 -60 -14 c-38 0 -73 26 -78 78c-27 -47 -80 -80 -144 -80zM363 653c0 -64 -48 -117 -121 -117c-71 0 -116 50 -116 106c0 65 48 115 121 115c72 0 116 -48 116 -104zM200 60c64 0 111 47 114 111l2 45c-14 1 -27 2 -41 2c-112 0 -151 -41 -151 -91c0 -38 21 -67 76 -67zM299 646 c0 35 -19 59 -54 59c-36 0 -55 -26 -55 -56c0 -35 22 -60 54 -60c36 0 55 27 55 57z" glyph-name="aring"/>
<glyph horiz-adv-x="544" d="M389 584c0 -52 -32 -97 -83 -112l150 -324c20 -44 49 -103 72 -148l-101 -6l-59 132h-201c-16 -35 -37 -91 -52 -126h-100l172 369l47 102c-51 13 -82 55 -82 102c0 65 48 115 121 115c72 0 116 -48 116 -104zM267 363l-70 -166h141zM325 577c0 35 -19 59 -54 59 c-36 0 -55 -26 -55 -56c0 -35 22 -60 54 -60c36 0 55 27 55 57z" glyph-name="aring.sc"/>
<glyph horiz-adv-x="701" unicode="Ǻ" d="M6 0l237 512c30 65 52 115 71 161c-53 12 -85 55 -85 103c0 65 48 115 121 115c72 0 116 -48 116 -104c0 -54 -34 -100 -89 -113l219 -470c29 -63 67 -144 98 -204l-108 -8l-94 209h-296l-4 -10c-26 -61 -54 -131 -78 -191h-108zM344 533l-112 -252h224zM384 1098l131 9 l-161 -149l-63 -5zM402 780c0 35 -19 59 -54 59c-36 0 -55 -26 -55 -56c0 -35 22 -60 54 -60c36 0 55 27 55 57z" glyph-name="Aringacute"/>
<glyph horiz-adv-x="485" unicode="ǻ" d="M180 -14c-88 0 -145 54 -145 136c0 93 83 155 243 155c13 0 26 -1 39 -2l1 15c2 69 -27 103 -97 103c-46 0 -95 -20 -127 -44l-21 80c50 29 104 45 163 45c119 0 175 -72 172 -178l-6 -198c-1 -28 7 -40 29 -40c12 0 25 3 40 8l-9 -64c-17 -7 -36 -14 -60 -14 c-38 0 -73 26 -78 78c-27 -47 -80 -80 -144 -80zM361 653c0 -64 -48 -117 -121 -117c-71 0 -116 50 -116 106c0 65 48 115 121 115c72 0 116 -48 116 -104zM200 60c64 0 111 47 114 111l2 45c-14 1 -27 2 -41 2c-112 0 -151 -41 -151 -91c0 -38 21 -67 76 -67zM279 964 l131 9l-161 -149l-63 -5zM297 646c0 35 -19 59 -54 59c-36 0 -55 -26 -55 -56c0 -35 22 -60 54 -60c36 0 55 27 55 57z" glyph-name="aringacute"/>
<glyph horiz-adv-x="544" d="M389 584c0 -52 -32 -97 -83 -112l150 -324c20 -44 49 -103 72 -148l-101 -6l-59 132h-201c-16 -35 -37 -91 -52 -126h-100l172 369l47 102c-51 13 -82 55 -82 102c0 65 48 115 121 115c72 0 116 -48 116 -104zM316 895l131 9l-161 -149l-63 -5zM267 363l-70 -166h141z M325 577c0 35 -19 59 -54 59c-36 0 -55 -26 -55 -56c0 -35 22 -60 54 -60c36 0 55 27 55 57z" glyph-name="aringacute.sc"/>
<glyph horiz-adv-x="701" unicode="Ã" d="M6 0l237 512c39 84 65 143 87 201l26 7l240 -516c29 -63 67 -144 98 -204l-108 -8l-94 209h-296l-4 -10c-26 -61 -54 -131 -78 -191h-108zM175 790c17 107 55 141 107 141c59 0 108 -73 144 -73c16 0 29 17 38 77l69 -10c-16 -105 -56 -146 -108 -146 c-58 0 -110 73 -145 73c-17 0 -27 -13 -35 -72zM344 533l-112 -252h224z" glyph-name="Atilde"/>
<glyph horiz-adv-x="485" unicode="ã" d="M180 -14c-88 0 -145 54 -145 136c0 93 83 155 243 155c13 0 26 -1 39 -2l1 15c2 69 -27 103 -97 103c-46 0 -95 -20 -127 -44l-21 80c50 29 104 45 163 45c119 0 175 -72 172 -178l-6 -198c-1 -28 7 -40 29 -40c12 0 25 3 40 8l-9 -64c-17 -7 -36 -14 -60 -14 c-38 0 -73 26 -78 78c-27 -47 -80 -80 -144 -80zM71 550c17 107 55 141 107 141c59 0 108 -73 144 -73c16 0 29 17 38 77l69 -10c-16 -105 -56 -146 -108 -146c-58 0 -110 73 -145 73c-17 0 -27 -13 -35 -72zM200 60c64 0 111 47 114 111l2 45c-14 1 -27 2 -41 2 c-112 0 -151 -41 -151 -91c0 -38 21 -67 76 -67z" glyph-name="atilde"/>
<glyph horiz-adv-x="544" d="M15 0l172 369c28 60 48 101 63 142l35 7l171 -370c20 -44 49 -103 72 -148l-101 -6l-59 132h-201c-16 -35 -37 -91 -52 -126h-100zM98 594c17 107 55 141 107 141c59 0 108 -73 144 -73c16 0 29 17 38 77l69 -10c-16 -105 -56 -146 -108 -146c-58 0 -110 73 -145 73 c-17 0 -27 -13 -35 -72zM267 363l-70 -166h141z" glyph-name="atilde.sc"/>
<glyph horiz-adv-x="679" unicode="Ć" d="M640 171l-7 -109c-67 -52 -144 -80 -229 -80c-205 0 -350 163 -350 351c0 216 156 387 369 387c75 0 155 -25 208 -63l-28 -90c-50 39 -118 64 -186 64c-153 0 -262 -120 -262 -277c0 -183 113 -284 255 -284c94 0 163 38 230 101zM437 921l131 9l-161 -149l-63 -5z" glyph-name="Cacute"/>
<glyph horiz-adv-x="478" unicode="ć" d="M436 429l-26 -81c-38 30 -83 44 -129 44c-88 0 -150 -70 -150 -160c0 -111 75 -169 157 -169c57 0 96 15 146 59l-4 -95c-52 -32 -89 -45 -153 -45c-136 0 -237 103 -237 234c0 144 103 258 245 258c55 0 110 -16 151 -45zM316 681l131 9l-161 -149l-63 -5z" glyph-name="cacute"/>
<glyph horiz-adv-x="513" d="M474 141l-7 -100c-48 -35 -103 -54 -164 -54c-150 0 -257 117 -257 253c0 155 115 278 271 278c54 0 111 -16 151 -43l-21 -85c-34 25 -82 45 -127 45c-104 0 -179 -80 -179 -180c0 -117 77 -184 174 -184c65 0 113 29 159 70zM340 725l131 9l-161 -149l-63 -5z" glyph-name="cacute.sc"/>
<glyph horiz-adv-x="679" unicode="Č" d="M640 171l-7 -109c-67 -52 -144 -80 -229 -80c-205 0 -350 163 -350 351c0 216 156 387 369 387c75 0 155 -25 208 -63l-28 -90c-50 39 -118 64 -186 64c-153 0 -262 -120 -262 -277c0 -183 113 -284 255 -284c94 0 163 38 230 101zM451 782h-115l-98 149l71 6l86 -94 l83 89h77z" glyph-name="Ccaron"/>
<glyph horiz-adv-x="478" unicode="č" d="M436 429l-26 -81c-38 30 -83 44 -129 44c-88 0 -150 -70 -150 -160c0 -111 75 -169 157 -169c57 0 96 15 146 59l-4 -95c-52 -32 -89 -45 -153 -45c-136 0 -237 103 -237 234c0 144 103 258 245 258c55 0 110 -16 151 -45zM330 542h-115l-98 149l71 6l86 -94l83 89h77z " glyph-name="ccaron"/>
<glyph horiz-adv-x="513" d="M474 141l-7 -100c-48 -35 -103 -54 -164 -54c-150 0 -257 117 -257 253c0 155 115 278 271 278c54 0 111 -16 151 -43l-21 -85c-34 25 -82 45 -127 45c-104 0 -179 -80 -179 -180c0 -117 77 -184 174 -184c65 0 113 29 159 70zM354 586h-115l-98 149l71 6l86 -94l83 89 h77z" glyph-name="ccaron.sc"/>
<glyph horiz-adv-x="679" unicode="Ç" d="M640 171l-7 -109c-67 -52 -144 -80 -229 -80h-6l-14 -51c71 -20 103 -55 103 -93c0 -43 -39 -84 -111 -84c-26 0 -55 5 -85 14l13 58c25 -9 56 -15 79 -15c24 0 38 7 38 25c0 21 -37 37 -91 50l-5 4c6 19 17 61 26 96c-177 25 -297 175 -297 347c0 216 156 387 369 387 c75 0 155 -25 208 -63l-28 -90c-50 39 -118 64 -186 64c-153 0 -262 -120 -262 -277c0 -183 113 -284 255 -284c94 0 163 38 230 101z" glyph-name="Ccedilla"/>
<glyph horiz-adv-x="478" unicode="ç" d="M436 429l-26 -81c-38 30 -83 44 -129 44c-88 0 -150 -70 -150 -160c0 -111 75 -169 157 -169c57 0 96 15 146 59l-4 -95c-49 -30 -85 -43 -143 -45l-14 -51c71 -20 103 -55 103 -93c0 -43 -39 -84 -111 -84c-26 0 -55 5 -85 14l13 58c25 -9 56 -15 79 -15 c24 0 38 7 38 25c0 21 -37 37 -91 50l-5 4c6 18 17 60 25 95c-116 16 -199 112 -199 231c0 144 103 258 245 258c55 0 110 -16 151 -45z" glyph-name="ccedilla"/>
<glyph horiz-adv-x="513" d="M474 141l-7 -100c-46 -34 -99 -52 -157 -54l-14 -51c71 -20 103 -55 103 -93c0 -43 -39 -84 -111 -84c-26 0 -55 5 -85 14l13 58c25 -9 56 -15 79 -15c24 0 38 7 38 25c0 21 -37 37 -91 50l-5 4c6 19 17 60 26 95c-129 18 -217 126 -217 250c0 155 115 278 271 278 c54 0 111 -16 151 -43l-21 -85c-34 25 -82 45 -127 45c-104 0 -179 -80 -179 -180c0 -117 77 -184 174 -184c65 0 113 29 159 70z" glyph-name="ccedilla.sc"/>
<glyph horiz-adv-x="679" unicode="Ċ" d="M640 171l-7 -109c-67 -52 -144 -80 -229 -80c-205 0 -350 163 -350 351c0 216 156 387 369 387c75 0 155 -25 208 -63l-28 -90c-50 39 -118 64 -186 64c-153 0 -262 -120 -262 -277c0 -183 113 -284 255 -284c94 0 163 38 230 101zM455 862c0 -35 -24 -65 -60 -65 c-35 0 -57 29 -57 59c0 35 24 65 60 65c34 0 57 -29 57 -59z" glyph-name="Cdotaccent"/>
<glyph horiz-adv-x="478" unicode="ċ" d="M436 429l-26 -81c-38 30 -83 44 -129 44c-88 0 -150 -70 -150 -160c0 -111 75 -169 157 -169c57 0 96 15 146 59l-4 -95c-52 -32 -89 -45 -153 -45c-136 0 -237 103 -237 234c0 144 103 258 245 258c55 0 110 -16 151 -45zM334 622c0 -35 -24 -65 -60 -65 c-35 0 -57 29 -57 59c0 35 24 65 60 65c34 0 57 -29 57 -59z" glyph-name="cdotaccent"/>
<glyph horiz-adv-x="513" d="M474 141l-7 -100c-48 -35 -103 -54 -164 -54c-150 0 -257 117 -257 253c0 155 115 278 271 278c54 0 111 -16 151 -43l-21 -85c-34 25 -82 45 -127 45c-104 0 -179 -80 -179 -180c0 -117 77 -184 174 -184c65 0 113 29 159 70zM358 666c0 -35 -24 -65 -60 -65 c-35 0 -57 29 -57 59c0 35 24 65 60 65c34 0 57 -29 57 -59z" glyph-name="cdotaccent.sc"/>
<glyph horiz-adv-x="729" unicode="Ď" d="M674 373c0 -218 -146 -373 -363 -373h-212c5 48 7 176 7 241v221c0 64 -2 193 -7 241c36 0 100 5 195 5c249 0 380 -154 380 -335zM573 360c0 158 -99 263 -281 263c-32 0 -60 -1 -87 -3c-1 -18 -1 -46 -1 -62v-412c0 -17 0 -36 1 -56c30 -3 53 -5 90 -5 c201 0 278 127 278 275zM416 772h-115l-98 149l71 6l86 -94l83 89h77z" glyph-name="Dcaron"/>
<glyph horiz-adv-x="550" unicode="ď" d="M278 474c40 0 81 -13 107 -33l-1 104c0 58 -1 122 -6 165c36 3 73 7 103 13c-3 -26 -4 -75 -4 -109v-448c0 -58 2 -120 7 -166h-85l-7 50c-31 -40 -87 -68 -141 -68c-130 0 -212 101 -212 229c0 147 102 263 239 263zM280 394c-94 0 -149 -78 -149 -172 c0 -107 64 -160 137 -160c49 0 95 27 117 70v220c-24 25 -60 42 -105 42zM569 553l-40 -9c5 61 8 102 8 166c23 4 54 8 76 11c-13 -55 -30 -124 -44 -168z" glyph-name="dcaron"/>
<glyph horiz-adv-x="553" d="M506 267c0 -158 -106 -267 -265 -267h-165c4 35 5 127 5 174v159c0 46 -1 138 -5 173c26 0 78 4 150 4c182 0 280 -105 280 -243zM413 259c0 101 -66 171 -183 171c-20 0 -35 -1 -54 -2c-1 -12 -1 -32 -1 -42v-265c0 -11 0 -24 1 -37c20 -2 32 -4 56 -4 c130 0 181 84 181 179zM328 586h-115l-98 149l71 6l86 -94l83 89h77z" glyph-name="dcaron.sc"/>
<glyph horiz-adv-x="728" unicode="Đ" d="M674 373c0 -218 -146 -373 -363 -373h-212c5 48 7 176 7 241v74l-81 -2c2 21 3 60 3 85l78 -3v67c0 64 -2 193 -7 241c36 0 100 5 195 5c249 0 380 -154 380 -335zM573 360c0 158 -99 263 -281 263c-32 0 -60 -1 -87 -3c-1 -18 -1 -46 -1 -62v-163c46 0 104 1 150 3 c-3 -23 -5 -59 -5 -85c-42 1 -83 2 -123 2h-22v-169c0 -17 0 -36 1 -56c30 -3 53 -5 90 -5c201 0 278 127 278 275z" glyph-name="Dcroat"/>
<glyph horiz-adv-x="550" unicode="đ" d="M278 474c40 0 81 -13 107 -33l-1 96h-44c-42 0 -75 -1 -108 -2c2 19 3 54 3 76c47 -2 87 -3 148 -3c0 38 -2 74 -5 102c36 3 73 7 103 13c-3 -26 -4 -75 -4 -109v-5c24 0 49 1 71 2c-3 -20 -5 -53 -5 -76c-23 0 -45 1 -66 2v-371c0 -58 2 -120 7 -166h-85l-7 50 c-31 -40 -87 -68 -141 -68c-130 0 -212 101 -212 229c0 147 102 263 239 263zM280 394c-94 0 -149 -78 -149 -172c0 -107 64 -160 137 -160c49 0 95 27 117 70v220c-24 25 -60 42 -105 42z" glyph-name="dcroat"/>
<glyph horiz-adv-x="553" d="M506 267c0 -158 -106 -267 -265 -267h-165c4 35 5 127 5 174v45l-69 -2c2 20 3 55 3 79l66 -3v40c0 46 -1 138 -5 173c26 0 78 4 150 4c182 0 280 -105 280 -243zM413 259c0 101 -66 171 -183 171c-20 0 -35 -1 -54 -2c-1 -12 -1 -32 -1 -42v-93c34 0 74 1 107 3 c-3 -22 -5 -54 -5 -79c-33 1 -65 2 -97 2h-5v-98c0 -11 0 -24 1 -37c20 -2 32 -4 56 -4c130 0 181 84 181 179z" glyph-name="dcroat.sc"/>
<glyph horiz-adv-x="545" unicode="É" d="M515 84c-4 -28 -6 -56 -7 -88c-60 4 -134 5 -205 5s-146 -1 -204 -5c5 48 7 180 7 245v221c0 64 -2 199 -7 247c58 -3 126 -5 197 -5s139 2 199 5c-5 -29 -7 -55 -8 -87c-59 1 -120 2 -191 2c-30 0 -62 0 -91 -1c-1 -19 -1 -46 -1 -61v-151l244 2c-2 -24 -3 -57 -3 -86 l-241 2v-185c0 -15 0 -43 1 -62c30 0 61 -1 91 -1c81 0 151 1 219 3zM348 911l131 9l-161 -149l-63 -5z" glyph-name="Eacute"/>
<glyph horiz-adv-x="500" unicode="é" d="M465 247l-60 -36l-273 -8c7 -93 55 -140 144 -140c70 0 122 31 167 68l-4 -94c-51 -34 -106 -55 -172 -55c-154 0 -227 109 -227 234c0 144 91 258 233 258c136 0 192 -102 192 -227zM134 272l245 7c-10 77 -42 118 -111 118c-74 0 -121 -54 -134 -125zM307 681l131 9 l-161 -149l-63 -5z" glyph-name="eacute"/>
<glyph horiz-adv-x="436" d="M400 81c-3 -26 -4 -54 -5 -84c-45 3 -108 4 -160 4c-55 0 -113 -1 -159 -4c4 35 5 128 5 174v165c0 47 -1 140 -5 174c46 -2 97 -3 152 -3c54 0 113 1 158 3c-4 -25 -6 -53 -6 -82c-41 1 -91 1 -140 1h-65c-1 -13 -1 -26 -1 -36v-90l182 1c-2 -22 -2 -53 -2 -79l-180 1 v-111c0 -10 0 -24 1 -36c21 0 44 -1 65 -1c56 0 113 1 160 3zM277 725l131 9l-161 -149l-63 -5z" glyph-name="eacute.sc"/>
<glyph horiz-adv-x="545" unicode="Ĕ" d="M515 84c-4 -28 -6 -56 -7 -88c-60 4 -134 5 -205 5s-146 -1 -204 -5c5 48 7 180 7 245v221c0 64 -2 199 -7 247c58 -3 126 -5 197 -5s139 2 199 5c-5 -29 -7 -55 -8 -87c-59 1 -120 2 -191 2c-30 0 -62 0 -91 -1c-1 -19 -1 -46 -1 -61v-151l244 2c-2 -24 -3 -57 -3 -86 l-241 2v-185c0 -15 0 -43 1 -62c30 0 61 -1 91 -1c81 0 151 1 219 3zM384 922l77 5c2 -100 -57 -162 -157 -162c-88 0 -152 65 -152 152l79 14c0 -64 30 -98 78 -98c53 0 75 41 75 89z" glyph-name="Ebreve"/>
<glyph horiz-adv-x="500" unicode="ĕ" d="M465 247l-60 -36l-273 -8c7 -93 55 -140 144 -140c70 0 122 31 167 68l-4 -94c-51 -34 -106 -55 -172 -55c-154 0 -227 109 -227 234c0 144 91 258 233 258c136 0 192 -102 192 -227zM134 272l245 7c-10 77 -42 118 -111 118c-74 0 -121 -54 -134 -125zM343 692l77 5 c2 -100 -57 -162 -157 -162c-88 0 -152 65 -152 152l79 14c0 -64 30 -98 78 -98c53 0 75 41 75 89z" glyph-name="ebreve"/>
<glyph horiz-adv-x="436" d="M400 81c-3 -26 -4 -54 -5 -84c-45 3 -108 4 -160 4c-55 0 -113 -1 -159 -4c4 35 5 128 5 174v165c0 47 -1 140 -5 174c46 -2 97 -3 152 -3c54 0 113 1 158 3c-4 -25 -6 -53 -6 -82c-41 1 -91 1 -140 1h-65c-1 -13 -1 -26 -1 -36v-90l182 1c-2 -22 -2 -53 -2 -79l-180 1 v-111c0 -10 0 -24 1 -36c21 0 44 -1 65 -1c56 0 113 1 160 3zM313 736l77 5c2 -100 -57 -162 -157 -162c-88 0 -152 65 -152 152l79 14c0 -64 30 -98 78 -98c53 0 75 41 75 89z" glyph-name="ebreve.sc"/>
<glyph horiz-adv-x="545" unicode="Ě" d="M515 84c-4 -28 -6 -56 -7 -88c-60 4 -134 5 -205 5s-146 -1 -204 -5c5 48 7 180 7 245v221c0 64 -2 199 -7 247c58 -3 126 -5 197 -5s139 2 199 5c-5 -29 -7 -55 -8 -87c-59 1 -120 2 -191 2c-30 0 -62 0 -91 -1c-1 -19 -1 -46 -1 -61v-151l244 2c-2 -24 -3 -57 -3 -86 l-241 2v-185c0 -15 0 -43 1 -62c30 0 61 -1 91 -1c81 0 151 1 219 3zM362 772h-115l-98 149l71 6l86 -94l83 89h77z" glyph-name="Ecaron"/>
<glyph horiz-adv-x="500" unicode="ě" d="M465 247l-60 -36l-273 -8c7 -93 55 -140 144 -140c70 0 122 31 167 68l-4 -94c-51 -34 -106 -55 -172 -55c-154 0 -227 109 -227 234c0 144 91 258 233 258c136 0 192 -102 192 -227zM134 272l245 7c-10 77 -42 118 -111 118c-74 0 -121 -54 -134 -125zM321 542h-115 l-98 149l71 6l86 -94l83 89h77z" glyph-name="ecaron"/>
<glyph horiz-adv-x="436" d="M400 81c-3 -26 -4 -54 -5 -84c-45 3 -108 4 -160 4c-55 0 -113 -1 -159 -4c4 35 5 128 5 174v165c0 47 -1 140 -5 174c46 -2 97 -3 152 -3c54 0 113 1 158 3c-4 -25 -6 -53 -6 -82c-41 1 -91 1 -140 1h-65c-1 -13 -1 -26 -1 -36v-90l182 1c-2 -22 -2 -53 -2 -79l-180 1 v-111c0 -10 0 -24 1 -36c21 0 44 -1 65 -1c56 0 113 1 160 3zM291 586h-115l-98 149l71 6l86 -94l83 89h77z" glyph-name="ecaron.sc"/>
<glyph horiz-adv-x="545" unicode="Ê" d="M515 84c-4 -28 -6 -56 -7 -88c-60 4 -134 5 -205 5s-146 -1 -204 -5c5 48 7 180 7 245v221c0 64 -2 199 -7 247c58 -3 126 -5 197 -5s139 2 199 5c-5 -29 -7 -55 -8 -87c-59 1 -120 2 -191 2c-30 0 -62 0 -91 -1c-1 -19 -1 -46 -1 -61v-151l244 2c-2 -24 -3 -57 -3 -86 l-241 2v-185c0 -15 0 -43 1 -62c30 0 61 -1 91 -1c81 0 151 1 219 3zM255 921h115l96 -152l-68 -6l-87 97l-82 -89h-80z" glyph-name="Ecircumflex"/>
<glyph horiz-adv-x="500" unicode="ê" d="M465 247l-60 -36l-273 -8c7 -93 55 -140 144 -140c70 0 122 31 167 68l-4 -94c-51 -34 -106 -55 -172 -55c-154 0 -227 109 -227 234c0 144 91 258 233 258c136 0 192 -102 192 -227zM134 272l245 7c-10 77 -42 118 -111 118c-74 0 -121 -54 -134 -125zM214 691h115 l96 -152l-68 -6l-87 97l-82 -89h-80z" glyph-name="ecircumflex"/>
<glyph horiz-adv-x="436" d="M400 81c-3 -26 -4 -54 -5 -84c-45 3 -108 4 -160 4c-55 0 -113 -1 -159 -4c4 35 5 128 5 174v165c0 47 -1 140 -5 174c46 -2 97 -3 152 -3c54 0 113 1 158 3c-4 -25 -6 -53 -6 -82c-41 1 -91 1 -140 1h-65c-1 -13 -1 -26 -1 -36v-90l182 1c-2 -22 -2 -53 -2 -79l-180 1 v-111c0 -10 0 -24 1 -36c21 0 44 -1 65 -1c56 0 113 1 160 3zM184 735h115l96 -152l-68 -6l-87 97l-82 -89h-80z" glyph-name="ecircumflex.sc"/>
<glyph horiz-adv-x="545" unicode="Ë" d="M515 84c-4 -28 -6 -56 -7 -88c-60 4 -134 5 -205 5s-146 -1 -204 -5c5 48 7 180 7 245v221c0 64 -2 199 -7 247c58 -3 126 -5 197 -5s139 2 199 5c-5 -29 -7 -55 -8 -87c-59 1 -120 2 -191 2c-30 0 -62 0 -91 -1c-1 -19 -1 -46 -1 -61v-151l244 2c-2 -24 -3 -57 -3 -86 l-241 2v-185c0 -15 0 -43 1 -62c30 0 61 -1 91 -1c81 0 151 1 219 3zM276 852c0 -35 -24 -65 -60 -65c-35 0 -57 29 -57 59c0 35 24 65 60 65c34 0 57 -29 57 -59zM456 852c0 -35 -24 -65 -60 -65c-35 0 -57 29 -57 59c0 35 24 65 60 65c34 0 57 -29 57 -59z" glyph-name="Edieresis"/>
<glyph horiz-adv-x="500" unicode="ë" d="M465 247l-60 -36l-273 -8c7 -93 55 -140 144 -140c70 0 122 31 167 68l-4 -94c-51 -34 -106 -55 -172 -55c-154 0 -227 109 -227 234c0 144 91 258 233 258c136 0 192 -102 192 -227zM134 272l245 7c-10 77 -42 118 -111 118c-74 0 -121 -54 -134 -125zM235 622 c0 -35 -24 -65 -60 -65c-35 0 -57 29 -57 59c0 35 24 65 60 65c34 0 57 -29 57 -59zM415 622c0 -35 -24 -65 -60 -65c-35 0 -57 29 -57 59c0 35 24 65 60 65c34 0 57 -29 57 -59z" glyph-name="edieresis"/>
<glyph horiz-adv-x="436" d="M400 81c-3 -26 -4 -54 -5 -84c-45 3 -108 4 -160 4c-55 0 -113 -1 -159 -4c4 35 5 128 5 174v165c0 47 -1 140 -5 174c46 -2 97 -3 152 -3c54 0 113 1 158 3c-4 -25 -6 -53 -6 -82c-41 1 -91 1 -140 1h-65c-1 -13 -1 -26 -1 -36v-90l182 1c-2 -22 -2 -53 -2 -79l-180 1 v-111c0 -10 0 -24 1 -36c21 0 44 -1 65 -1c56 0 113 1 160 3zM385 666c0 -35 -24 -65 -60 -65c-35 0 -57 29 -57 59c0 35 24 65 60 65c34 0 57 -29 57 -59zM205 666c0 -35 -24 -65 -60 -65c-35 0 -57 29 -57 59c0 35 24 65 60 65c34 0 57 -29 57 -59z" glyph-name="edieresis.sc"/>
<glyph horiz-adv-x="545" unicode="Ė" d="M515 84c-4 -28 -6 -56 -7 -88c-60 4 -134 5 -205 5s-146 -1 -204 -5c5 48 7 180 7 245v221c0 64 -2 199 -7 247c58 -3 126 -5 197 -5s139 2 199 5c-5 -29 -7 -55 -8 -87c-59 1 -120 2 -191 2c-30 0 -62 0 -91 -1c-1 -19 -1 -46 -1 -61v-151l244 2c-2 -24 -3 -57 -3 -86 l-241 2v-185c0 -15 0 -43 1 -62c30 0 61 -1 91 -1c81 0 151 1 219 3zM366 852c0 -35 -24 -65 -60 -65c-35 0 -57 29 -57 59c0 35 24 65 60 65c34 0 57 -29 57 -59z" glyph-name="Edotaccent"/>
<glyph horiz-adv-x="500" unicode="ė" d="M465 247l-60 -36l-273 -8c7 -93 55 -140 144 -140c70 0 122 31 167 68l-4 -94c-51 -34 -106 -55 -172 -55c-154 0 -227 109 -227 234c0 144 91 258 233 258c136 0 192 -102 192 -227zM134 272l245 7c-10 77 -42 118 -111 118c-74 0 -121 -54 -134 -125zM325 622 c0 -35 -24 -65 -60 -65c-35 0 -57 29 -57 59c0 35 24 65 60 65c34 0 57 -29 57 -59z" glyph-name="edotaccent"/>
<glyph horiz-adv-x="436" d="M400 81c-3 -26 -4 -54 -5 -84c-45 3 -108 4 -160 4c-55 0 -113 -1 -159 -4c4 35 5 128 5 174v165c0 47 -1 140 -5 174c46 -2 97 -3 152 -3c54 0 113 1 158 3c-4 -25 -6 -53 -6 -82c-41 1 -91 1 -140 1h-65c-1 -13 -1 -26 -1 -36v-90l182 1c-2 -22 -2 -53 -2 -79l-180 1 v-111c0 -10 0 -24 1 -36c21 0 44 -1 65 -1c56 0 113 1 160 3zM295 666c0 -35 -24 -65 -60 -65c-35 0 -57 29 -57 59c0 35 24 65 60 65c34 0 57 -29 57 -59z" glyph-name="edotaccent.sc"/>
<glyph horiz-adv-x="545" unicode="È" d="M515 84c-4 -28 -6 -56 -7 -88c-60 4 -134 5 -205 5s-146 -1 -204 -5c5 48 7 180 7 245v221c0 64 -2 199 -7 247c58 -3 126 -5 197 -5s139 2 199 5c-5 -29 -7 -55 -8 -87c-59 1 -120 2 -191 2c-30 0 -62 0 -91 -1c-1 -19 -1 -46 -1 -61v-151l244 2c-2 -24 -3 -57 -3 -86 l-241 2v-185c0 -15 0 -43 1 -62c30 0 61 -1 91 -1c81 0 151 1 219 3zM147 911l113 9l91 -149l-59 -5z" glyph-name="Egrave"/>
<glyph horiz-adv-x="500" unicode="è" d="M465 247l-60 -36l-273 -8c7 -93 55 -140 144 -140c70 0 122 31 167 68l-4 -94c-51 -34 -106 -55 -172 -55c-154 0 -227 109 -227 234c0 144 91 258 233 258c136 0 192 -102 192 -227zM134 272l245 7c-10 77 -42 118 -111 118c-74 0 -121 -54 -134 -125zM106 681l113 9 l91 -149l-59 -5z" glyph-name="egrave"/>
<glyph horiz-adv-x="436" d="M400 81c-3 -26 -4 -54 -5 -84c-45 3 -108 4 -160 4c-55 0 -113 -1 -159 -4c4 35 5 128 5 174v165c0 47 -1 140 -5 174c46 -2 97 -3 152 -3c54 0 113 1 158 3c-4 -25 -6 -53 -6 -82c-41 1 -91 1 -140 1h-65c-1 -13 -1 -26 -1 -36v-90l182 1c-2 -22 -2 -53 -2 -79l-180 1 v-111c0 -10 0 -24 1 -36c21 0 44 -1 65 -1c56 0 113 1 160 3zM76 725l113 9l91 -149l-59 -5z" glyph-name="egrave.sc"/>
<glyph horiz-adv-x="545" unicode="Ē" d="M515 84c-4 -28 -6 -56 -7 -88c-60 4 -134 5 -205 5s-146 -1 -204 -5c5 48 7 180 7 245v221c0 64 -2 199 -7 247c58 -3 126 -5 197 -5s139 2 199 5c-5 -29 -7 -55 -8 -87c-59 1 -120 2 -191 2c-30 0 -62 0 -91 -1c-1 -19 -1 -46 -1 -61v-151l244 2c-2 -24 -3 -57 -3 -86 l-241 2v-185c0 -15 0 -43 1 -62c30 0 61 -1 91 -1c81 0 151 1 219 3zM459 885c-3 -20 -5 -53 -5 -76c-40 1 -76 2 -113 2h-76c-43 0 -75 -1 -109 -2c2 18 4 54 4 76c49 -2 83 -3 149 -3c46 0 101 1 150 3z" glyph-name="Emacron"/>
<glyph horiz-adv-x="500" unicode="ē" d="M465 247l-60 -36l-273 -8c7 -93 55 -140 144 -140c70 0 122 31 167 68l-4 -94c-51 -34 -106 -55 -172 -55c-154 0 -227 109 -227 234c0 144 91 258 233 258c136 0 192 -102 192 -227zM134 272l245 7c-10 77 -42 118 -111 118c-74 0 -121 -54 -134 -125zM418 655 c-3 -20 -5 -53 -5 -76c-40 1 -76 2 -113 2h-76c-43 0 -75 -1 -109 -2c2 18 4 54 4 76c49 -2 83 -3 149 -3c46 0 101 1 150 3z" glyph-name="emacron"/>
<glyph horiz-adv-x="436" d="M400 81c-3 -26 -4 -54 -5 -84c-45 3 -108 4 -160 4c-55 0 -113 -1 -159 -4c4 35 5 128 5 174v165c0 47 -1 140 -5 174c46 -2 97 -3 152 -3c54 0 113 1 158 3c-4 -25 -6 -53 -6 -82c-41 1 -91 1 -140 1h-65c-1 -13 -1 -26 -1 -36v-90l182 1c-2 -22 -2 -53 -2 -79l-180 1 v-111c0 -10 0 -24 1 -36c21 0 44 -1 65 -1c56 0 113 1 160 3zM388 699c-3 -20 -5 -53 -5 -76c-40 1 -76 2 -113 2h-76c-43 0 -75 -1 -109 -2c2 18 4 54 4 76c49 -2 83 -3 149 -3c46 0 101 1 150 3z" glyph-name="emacron.sc"/>
<glyph horiz-adv-x="545" unicode="Ę" d="M515 84c-4 -28 -6 -56 -7 -88c-82 -44 -113 -79 -113 -114c0 -24 16 -42 47 -42c21 0 40 7 62 21l-5 -62c-21 -14 -49 -20 -73 -20c-64 0 -105 35 -105 90c0 50 36 90 105 131c-40 1 -82 1 -123 1c-71 0 -146 -1 -204 -5c5 48 7 180 7 245v221c0 64 -2 199 -7 247 c58 -3 126 -5 197 -5s139 2 199 5c-5 -29 -7 -55 -8 -87c-59 1 -120 2 -191 2c-30 0 -62 0 -91 -1c-1 -19 -1 -46 -1 -61v-151l244 2c-2 -24 -3 -57 -3 -86l-241 2v-185c0 -15 0 -43 1 -62c30 0 61 -1 91 -1c81 0 151 1 219 3z" glyph-name="Eogonek"/>
<glyph horiz-adv-x="500" unicode="ę" d="M443 131l-4 -94c-107 -64 -151 -114 -151 -155c0 -24 16 -42 47 -42c21 0 40 7 62 21l-5 -62c-21 -14 -49 -20 -73 -20c-64 0 -105 35 -105 90c0 41 24 78 69 114c-5 -1 -11 -1 -16 -1c-154 0 -227 109 -227 234c0 144 91 258 233 258c136 0 192 -102 192 -227l-60 -36 l-273 -8c7 -93 55 -140 144 -140c70 0 122 31 167 68zM134 272l245 7c-10 77 -42 118 -111 118c-74 0 -121 -54 -134 -125z" glyph-name="eogonek"/>
<glyph horiz-adv-x="436" d="M400 81c-3 -26 -4 -54 -5 -84c-2 0 -4 1 -6 1v-1c-82 -44 -113 -80 -113 -115c0 -24 16 -42 47 -42c21 0 40 7 62 21l-5 -62c-21 -14 -49 -20 -73 -20c-64 0 -105 35 -105 90c0 50 36 90 105 131c-25 1 -49 1 -72 1c-55 0 -113 -1 -159 -4c4 35 5 128 5 174v165 c0 47 -1 140 -5 174c46 -2 97 -3 152 -3c54 0 113 1 158 3c-4 -25 -6 -53 -6 -82c-41 1 -91 1 -140 1h-65c-1 -13 -1 -26 -1 -36v-90l182 1c-2 -22 -2 -53 -2 -79l-180 1v-111c0 -10 0 -24 1 -36c21 0 44 -1 65 -1c56 0 113 1 160 3z" glyph-name="eogonek.sc"/>
<glyph horiz-adv-x="737" unicode="Ğ" d="M665 56c-56 -37 -128 -74 -249 -74c-205 0 -362 159 -362 360c0 210 163 378 381 378c75 0 167 -27 222 -63l-28 -90c-50 40 -136 64 -204 64c-162 0 -270 -119 -270 -281c0 -178 124 -280 272 -280c56 0 100 10 142 32v125c0 15 0 42 -2 60c-30 1 -22 1 -53 1 c-50 0 -79 -1 -136 -3c2 34 2 66 0 90c61 -2 91 -3 136 -3c70 0 99 1 158 4c-5 -39 -7 -178 -7 -242v-78zM486 932l77 5c2 -100 -57 -162 -157 -162c-88 0 -152 65 -152 152l79 14c0 -64 30 -98 78 -98c53 0 75 41 75 89z" glyph-name="Gbreve"/>
<glyph horiz-adv-x="476" unicode="ğ" d="M430 312c0 -106 -85 -180 -197 -180c-21 0 -40 3 -58 8c-21 -13 -33 -27 -33 -39c0 -24 21 -34 102 -34h20c125 0 203 -33 203 -119c0 -93 -106 -172 -252 -172c-129 0 -198 53 -198 119c0 52 37 90 99 119c-33 15 -55 36 -55 67c0 35 23 60 63 84c-43 30 -68 78 -68 130 c0 99 83 179 194 179c29 0 55 -6 77 -15c21 59 66 82 134 73l-5 -81c-41 5 -64 -4 -78 -25c36 -34 52 -80 52 -114zM247 -9c-24 0 -43 1 -60 3c-59 -25 -84 -57 -84 -85c0 -32 38 -62 117 -62c98 0 161 40 161 88c0 38 -40 56 -120 56h-14zM344 302c0 61 -37 101 -98 101 c-62 0 -103 -48 -103 -99c0 -66 40 -101 98 -101c63 0 103 45 103 99zM318 692l77 5c2 -100 -57 -162 -157 -162c-88 0 -152 65 -152 152l79 14c0 -64 30 -98 78 -98c53 0 75 41 75 89z" glyph-name="gbreve"/>
<glyph horiz-adv-x="556" d="M489 471l-27 -81c-36 25 -83 45 -133 45c-109 0 -188 -80 -188 -180c0 -117 77 -184 174 -184c35 0 66 7 94 20v68c0 10 0 29 -1 42h-38c-32 0 -51 0 -88 -2c2 29 2 59 0 81c44 -2 66 -3 99 -3c52 0 74 1 119 3c-4 -28 -5 -130 -5 -177v-62c-56 -35 -120 -54 -192 -54 c-150 0 -257 117 -257 253c0 155 119 278 281 278c63 0 123 -19 162 -47zM380 736l77 5c2 -100 -57 -162 -157 -162c-88 0 -152 65 -152 152l79 14c0 -64 30 -98 78 -98c53 0 75 41 75 89z" glyph-name="gbreve.sc"/>
<glyph horiz-adv-x="737" d="M665 133v-77c-56 -37 -128 -74 -249 -74c-205 0 -362 159 -362 360c0 210 163 378 381 378c75 0 167 -27 222 -63l-28 -90c-50 40 -136 64 -204 64c-162 0 -270 -119 -270 -281c0 -178 124 -280 272 -280c56 0 100 10 142 32v124c0 15 -3 130 -3 130h105s-6 -158 -6 -223 zM486 932l77 5c2 -100 -57 -162 -157 -162c-88 0 -152 65 -152 152l79 14c0 -64 30 -98 78 -98c53 0 75 41 75 89z" glyph-name="Gbreve.alt"/>
<glyph horiz-adv-x="556" d="M489 471l-27 -81c-36 25 -83 45 -133 45c-109 0 -188 -80 -188 -180c0 -117 77 -184 174 -184c34 0 64 6 91 19v75c0 16 -2 89 -3 94h97c-1 -5 -5 -112 -5 -157v-61c-56 -35 -120 -54 -192 -54c-150 0 -257 117 -257 253c0 155 119 278 281 278c63 0 123 -19 162 -47z M385 736l77 5c2 -100 -57 -162 -157 -162c-88 0 -152 65 -152 152l79 14c0 -64 30 -98 78 -98c53 0 75 41 75 89z" glyph-name="gbreve.sc_alt"/>
<glyph horiz-adv-x="737" unicode="Ģ" d="M665 56c-56 -37 -128 -74 -249 -74c-205 0 -362 159 -362 360c0 210 163 378 381 378c75 0 167 -27 222 -63l-28 -90c-50 40 -136 64 -204 64c-162 0 -270 -119 -270 -281c0 -178 124 -280 272 -280c56 0 100 10 142 32v125c0 15 0 42 -2 60c-30 1 -22 1 -53 1 c-50 0 -79 -1 -136 -3c2 34 2 66 0 90c61 -2 91 -3 136 -3c70 0 99 1 158 4c-5 -39 -7 -178 -7 -242v-78zM328 -231l30 20c25 17 37 39 37 57c0 15 -8 29 -32 42l-13 7c10 33 36 49 62 49c31 0 58 -25 58 -64c0 -44 -33 -93 -118 -140z" glyph-name="Gcommaaccent"/>
<glyph horiz-adv-x="476" unicode="ģ" d="M430 312c0 -106 -85 -180 -197 -180c-21 0 -40 3 -58 8c-21 -13 -33 -27 -33 -39c0 -24 21 -34 102 -34h20c125 0 203 -33 203 -119c0 -93 -106 -172 -252 -172c-129 0 -198 53 -198 119c0 52 37 90 99 119c-33 15 -55 36 -55 67c0 35 23 60 63 84c-43 30 -68 78 -68 130 c0 99 83 179 194 179c28 0 52 -5 73 -13c19 67 66 93 138 84l-5 -81c-46 5 -69 -6 -82 -34c38 -35 56 -83 56 -118zM247 -9c-24 0 -43 1 -60 3c-59 -25 -84 -57 -84 -85c0 -32 38 -62 117 -62c98 0 161 40 161 88c0 38 -40 56 -120 56h-14zM344 302c0 61 -37 101 -98 101 c-62 0 -103 -48 -103 -99c0 -66 40 -101 98 -101c63 0 103 45 103 99zM328 734l-30 -20c-25 -17 -37 -39 -37 -57c0 -15 8 -29 32 -42l13 -7c-10 -33 -36 -49 -62 -49c-31 0 -58 25 -58 64c0 44 33 93 118 140z" glyph-name="gcommaaccent"/>
<glyph horiz-adv-x="556" d="M489 471l-27 -81c-36 25 -83 45 -133 45c-109 0 -188 -80 -188 -180c0 -117 77 -184 174 -184c35 0 66 7 94 20v68c0 10 0 29 -1 42h-38c-32 0 -51 0 -88 -2c2 29 2 59 0 81c44 -2 66 -3 99 -3c52 0 74 1 119 3c-4 -28 -5 -130 -5 -177v-62c-56 -35 -120 -54 -192 -54 c-150 0 -257 117 -257 253c0 155 119 278 281 278c63 0 123 -19 162 -47zM222 -231l30 20c25 17 37 39 37 57c0 15 -8 29 -32 42l-13 7c10 33 36 49 62 49c31 0 58 -25 58 -64c0 -44 -33 -93 -118 -140z" glyph-name="gcommaaccent.sc"/>
<glyph horiz-adv-x="737" d="M665 133v-77c-56 -37 -128 -74 -249 -74c-205 0 -362 159 -362 360c0 210 163 378 381 378c75 0 167 -27 222 -63l-28 -90c-50 40 -136 64 -204 64c-162 0 -270 -119 -270 -281c0 -178 124 -280 272 -280c56 0 100 10 142 32v124c0 15 -3 130 -3 130h105s-6 -158 -6 -223 zM326 -231l30 20c25 17 37 39 37 57c0 15 -8 29 -32 42l-13 7c10 33 36 49 62 49c31 0 58 -25 58 -64c0 -44 -33 -93 -118 -140z" glyph-name="Gcommaaccent.alt"/>
<glyph horiz-adv-x="556" d="M489 471l-27 -81c-36 25 -83 45 -133 45c-109 0 -188 -80 -188 -180c0 -117 77 -184 174 -184c34 0 64 6 91 19v75c0 16 -2 89 -3 94h97c-1 -5 -5 -112 -5 -157v-61c-56 -35 -120 -54 -192 -54c-150 0 -257 117 -257 253c0 155 119 278 281 278c63 0 123 -19 162 -47z M222 -231l30 20c25 17 37 39 37 57c0 15 -8 29 -32 42l-13 7c10 33 36 49 62 49c31 0 58 -25 58 -64c0 -44 -33 -93 -118 -140z" glyph-name="gcommaaccent.sc_alt"/>
<glyph horiz-adv-x="737" unicode="Ġ" d="M665 56c-56 -37 -128 -74 -249 -74c-205 0 -362 159 -362 360c0 210 163 378 381 378c75 0 167 -27 222 -63l-28 -90c-50 40 -136 64 -204 64c-162 0 -270 -119 -270 -281c0 -178 124 -280 272 -280c56 0 100 10 142 32v125c0 15 0 42 -2 60c-30 1 -22 1 -53 1 c-50 0 -79 -1 -136 -3c2 34 2 66 0 90c61 -2 91 -3 136 -3c70 0 99 1 158 4c-5 -39 -7 -178 -7 -242v-78zM468 862c0 -35 -24 -65 -60 -65c-35 0 -57 29 -57 59c0 35 24 65 60 65c34 0 57 -29 57 -59z" glyph-name="Gdotaccent"/>
<glyph horiz-adv-x="476" unicode="ġ" d="M430 312c0 -106 -85 -180 -197 -180c-21 0 -40 3 -58 8c-21 -13 -33 -27 -33 -39c0 -24 21 -34 102 -34h20c125 0 203 -33 203 -119c0 -93 -106 -172 -252 -172c-129 0 -198 53 -198 119c0 52 37 90 99 119c-33 15 -55 36 -55 67c0 35 23 60 63 84c-43 30 -68 78 -68 130 c0 99 83 179 194 179c28 0 52 -5 73 -13c19 67 66 93 138 84l-5 -81c-46 5 -69 -6 -82 -34c38 -35 56 -83 56 -118zM247 -9c-24 0 -43 1 -60 3c-59 -25 -84 -57 -84 -85c0 -32 38 -62 117 -62c98 0 161 40 161 88c0 38 -40 56 -120 56h-14zM344 302c0 61 -37 101 -98 101 c-62 0 -103 -48 -103 -99c0 -66 40 -101 98 -101c63 0 103 45 103 99zM308 622c0 -35 -24 -65 -60 -65c-35 0 -57 29 -57 59c0 35 24 65 60 65c34 0 57 -29 57 -59z" glyph-name="gdotaccent"/>
<glyph horiz-adv-x="556" d="M489 471l-27 -81c-36 25 -83 45 -133 45c-109 0 -188 -80 -188 -180c0 -117 77 -184 174 -184c35 0 66 7 94 20v68c0 10 0 29 -1 42h-38c-32 0 -51 0 -88 -2c2 29 2 59 0 81c44 -2 66 -3 99 -3c52 0 74 1 119 3c-4 -28 -5 -130 -5 -177v-62c-56 -35 -120 -54 -192 -54 c-150 0 -257 117 -257 253c0 155 119 278 281 278c63 0 123 -19 162 -47zM362 666c0 -35 -24 -65 -60 -65c-35 0 -57 29 -57 59c0 35 24 65 60 65c34 0 57 -29 57 -59z" glyph-name="gdotaccent.sc"/>
<glyph horiz-adv-x="737" d="M665 133v-77c-56 -37 -128 -74 -249 -74c-205 0 -362 159 -362 360c0 210 163 378 381 378c75 0 167 -27 222 -63l-28 -90c-50 40 -136 64 -204 64c-162 0 -270 -119 -270 -281c0 -178 124 -280 272 -280c56 0 100 10 142 32v124c0 15 -3 130 -3 130h105s-6 -158 -6 -223 zM468 862c0 -35 -24 -65 -60 -65c-35 0 -57 29 -57 59c0 35 24 65 60 65c34 0 57 -29 57 -59z" glyph-name="Gdotaccent.alt"/>
<glyph horiz-adv-x="556" d="M489 471l-27 -81c-36 25 -83 45 -133 45c-109 0 -188 -80 -188 -180c0 -117 77 -184 174 -184c34 0 64 6 91 19v75c0 16 -2 89 -3 94h97c-1 -5 -5 -112 -5 -157v-61c-56 -35 -120 -54 -192 -54c-150 0 -257 117 -257 253c0 155 119 278 281 278c63 0 123 -19 162 -47z M367 666c0 -35 -24 -65 -60 -65c-35 0 -57 29 -57 59c0 35 24 65 60 65c34 0 57 -29 57 -59z" glyph-name="gdotaccent.sc_alt"/>
<glyph horiz-adv-x="777" unicode="Ħ" d="M677 0h-113c6 48 8 176 8 241v74h-367v-171c0 -38 1 -116 4 -144h-111c5 48 7 176 7 241v221v44c-27 -1 -54 -2 -80 -2c2 21 3 47 3 72l76 -2c-1 51 -3 102 -6 129c40 0 78 1 111 5c-3 -27 -4 -94 -4 -135c54 -1 113 -1 182 -1c55 0 119 0 184 1c-1 51 -4 103 -7 130 c40 0 79 1 113 5c-4 -26 -5 -92 -5 -134l82 2c-3 -23 -5 -46 -5 -72c-25 0 -51 1 -77 1v-361c0 -38 1 -116 5 -144zM466 507h-261v-110h367v65v44c-37 0 -73 1 -106 1z" glyph-name="Hbar"/>
<glyph horiz-adv-x="545" unicode="ħ" d="M478 0h-103c5 43 7 112 7 170v120c0 58 -19 103 -80 103c-66 0 -137 -65 -137 -125v-171c0 -35 1 -71 4 -97h-102c4 43 6 105 6 164v373c-26 -1 -49 -2 -71 -2c2 19 3 54 3 76l67 -3c-1 38 -3 74 -5 102c35 3 72 7 102 13c-3 -26 -4 -75 -4 -109v-6c45 0 105 1 153 3 c-3 -20 -5 -53 -5 -76c-39 1 -76 2 -113 2h-35v-160c38 62 106 97 161 97c100 0 148 -62 148 -166v-205c0 -35 2 -77 4 -103z" glyph-name="hbar"/>
<glyph horiz-adv-x="588" d="M578 425c-3 -23 -5 -43 -5 -69c-22 0 -44 1 -66 2v-254c0 -28 1 -84 4 -104h-103c5 35 6 116 6 163v53h-239v-112c0 -28 0 -84 3 -104h-102c4 35 5 127 5 174v159v25c-23 0 -46 -2 -68 -2c2 21 3 44 3 69l64 -2c-1 34 -2 66 -4 83c29 0 78 1 102 4c-3 -18 -3 -59 -3 -89 h119c36 0 77 0 119 1c-1 34 -3 67 -5 84c29 0 78 1 103 4c-3 -17 -4 -57 -4 -87zM414 292v35v31c-21 1 -41 1 -60 1h-179v-67h239z" glyph-name="hbar.sc"/>
<glyph horiz-adv-x="318" unicode="Í" d="M211 0h-108c5 48 7 176 7 241v221c0 64 -2 193 -7 241c39 0 76 1 108 5c-2 -29 -3 -109 -3 -148v-416c0 -38 1 -116 3 -144zM198 911l131 9l-161 -149l-63 -5z" glyph-name="Iacute"/>
<glyph horiz-adv-x="238" unicode="í" d="M169 0h-103c5 43 7 105 7 164v126c0 58 -2 127 -7 170c36 0 73 2 103 5c-3 -26 -4 -72 -4 -107v-261c0 -35 1 -71 4 -97zM158 681l131 9l-161 -149l-63 -5z" glyph-name="iacute"/>
<glyph horiz-adv-x="261" d="M181 0h-102c4 35 5 127 5 174v159c0 46 -1 139 -5 173c29 0 78 1 102 4c-3 -21 -3 -79 -3 -107v-299c0 -28 0 -84 3 -104zM171 725l131 9l-161 -149l-63 -5z" glyph-name="iacute.sc"/>
<glyph horiz-adv-x="318" unicode="Ĭ" d="M211 0h-108c5 48 7 176 7 241v221c0 64 -2 193 -7 241c39 0 76 1 108 5c-2 -29 -3 -109 -3 -148v-416c0 -38 1 -116 3 -144zM234 922l77 5c2 -100 -57 -162 -157 -162c-88 0 -152 65 -152 152l79 14c0 -64 30 -98 78 -98c53 0 75 41 75 89z" glyph-name="Ibreve"/>
<glyph horiz-adv-x="238" unicode="ĭ" d="M169 0h-103c5 43 7 105 7 164v126c0 58 -2 127 -7 170c36 0 73 2 103 5c-3 -26 -4 -72 -4 -107v-261c0 -35 1 -71 4 -97zM194 692l77 5c2 -100 -57 -162 -157 -162c-88 0 -152 65 -152 152l79 14c0 -64 30 -98 78 -98c53 0 75 41 75 89z" glyph-name="ibreve"/>
<glyph horiz-adv-x="261" d="M181 0h-102c4 35 5 127 5 174v159c0 46 -1 139 -5 173c29 0 78 1 102 4c-3 -21 -3 -79 -3 -107v-299c0 -28 0 -84 3 -104zM207 736l77 5c2 -100 -57 -162 -157 -162c-88 0 -152 65 -152 152l79 14c0 -64 30 -98 78 -98c53 0 75 41 75 89z" glyph-name="ibreve.sc"/>
<glyph horiz-adv-x="318" unicode="Î" d="M211 0h-108c5 48 7 176 7 241v221c0 64 -2 193 -7 241c39 0 76 1 108 5c-2 -29 -3 -109 -3 -148v-416c0 -38 1 -116 3 -144zM105 921h115l96 -152l-68 -6l-87 97l-82 -89h-80z" glyph-name="Icircumflex"/>
<glyph horiz-adv-x="238" unicode="î" d="M169 0h-103c5 43 7 105 7 164v126c0 58 -2 127 -7 170c36 0 73 2 103 5c-3 -26 -4 -72 -4 -107v-261c0 -35 1 -71 4 -97zM65 691h115l96 -152l-68 -6l-87 97l-82 -89h-80z" glyph-name="icircumflex"/>
<glyph horiz-adv-x="261" d="M181 0h-102c4 35 5 127 5 174v159c0 46 -1 139 -5 173c29 0 78 1 102 4c-3 -21 -3 -79 -3 -107v-299c0 -28 0 -84 3 -104zM78 735h115l96 -152l-68 -6l-87 97l-82 -89h-80z" glyph-name="icircumflex.sc"/>
<glyph horiz-adv-x="318" unicode="Ï" d="M211 0h-108c5 48 7 176 7 241v221c0 64 -2 193 -7 241c39 0 76 1 108 5c-2 -29 -3 -109 -3 -148v-416c0 -38 1 -116 3 -144zM126 852c0 -35 -24 -65 -60 -65c-35 0 -57 29 -57 59c0 35 24 65 60 65c34 0 57 -29 57 -59zM306 852c0 -35 -24 -65 -60 -65 c-35 0 -57 29 -57 59c0 35 24 65 60 65c34 0 57 -29 57 -59z" glyph-name="Idieresis"/>
<glyph horiz-adv-x="238" unicode="ï" d="M169 0h-103c5 43 7 105 7 164v126c0 58 -2 127 -7 170c36 0 73 2 103 5c-3 -26 -4 -72 -4 -107v-261c0 -35 1 -71 4 -97zM86 622c0 -35 -24 -65 -60 -65c-35 0 -57 29 -57 59c0 35 24 65 60 65c34 0 57 -29 57 -59zM266 622c0 -35 -24 -65 -60 -65c-35 0 -57 29 -57 59 c0 35 24 65 60 65c34 0 57 -29 57 -59z" glyph-name="idieresis"/>
<glyph horiz-adv-x="261" d="M181 0h-102c4 35 5 127 5 174v159c0 46 -1 139 -5 173c29 0 78 1 102 4c-3 -21 -3 -79 -3 -107v-299c0 -28 0 -84 3 -104zM99 666c0 -35 -24 -65 -60 -65c-35 0 -57 29 -57 59c0 35 24 65 60 65c34 0 57 -29 57 -59zM279 666c0 -35 -24 -65 -60 -65c-35 0 -57 29 -57 59 c0 35 24 65 60 65c34 0 57 -29 57 -59z" glyph-name="idieresis.sc"/>
<glyph horiz-adv-x="318" unicode="İ" d="M211 0h-108c5 48 7 176 7 241v221c0 64 -2 193 -7 241c39 0 76 1 108 5c-2 -29 -3 -109 -3 -148v-416c0 -38 1 -116 3 -144zM216 852c0 -35 -24 -65 -60 -65c-35 0 -57 29 -57 59c0 35 24 65 60 65c34 0 57 -29 57 -59z" glyph-name="Idotaccent"/>
<glyph horiz-adv-x="261" d="M181 0h-102c4 35 5 127 5 174v159c0 46 -1 139 -5 173c29 0 78 1 102 4c-3 -21 -3 -79 -3 -107v-299c0 -28 0 -84 3 -104zM189 666c0 -35 -24 -65 -60 -65c-35 0 -57 29 -57 59c0 35 24 65 60 65c34 0 57 -29 57 -59z" glyph-name="idotaccent.sc"/>
<glyph horiz-adv-x="238" unicode="ı" d="M169 0h-103c5 43 7 105 7 164v126c0 58 -2 127 -7 170c36 0 73 2 103 5c-3 -26 -4 -72 -4 -107v-261c0 -35 1 -71 4 -97z" glyph-name="dotlessi"/>
<glyph horiz-adv-x="261" d="M181 0h-102c4 35 5 127 5 174v159c0 46 -1 139 -5 173c29 0 78 1 102 4c-3 -21 -3 -79 -3 -107v-299c0 -28 0 -84 3 -104z" glyph-name="dotlessi.sc"/>
<glyph horiz-adv-x="318" unicode="Ì" d="M211 0h-108c5 48 7 176 7 241v221c0 64 -2 193 -7 241c39 0 76 1 108 5c-2 -29 -3 -109 -3 -148v-416c0 -38 1 -116 3 -144zM-3 911l113 9l91 -149l-59 -5z" glyph-name="Igrave"/>
<glyph horiz-adv-x="238" unicode="ì" d="M169 0h-103c5 43 7 105 7 164v126c0 58 -2 127 -7 170c36 0 73 2 103 5c-3 -26 -4 -72 -4 -107v-261c0 -35 1 -71 4 -97zM-43 681l113 9l91 -149l-59 -5z" glyph-name="igrave"/>
<glyph horiz-adv-x="261" d="M181 0h-102c4 35 5 127 5 174v159c0 46 -1 139 -5 173c29 0 78 1 102 4c-3 -21 -3 -79 -3 -107v-299c0 -28 0 -84 3 -104zM-30 725l113 9l91 -149l-59 -5z" glyph-name="igrave.sc"/>
<glyph horiz-adv-x="318" unicode="Ī" d="M211 0h-108c5 48 7 176 7 241v221c0 64 -2 193 -7 241c39 0 76 1 108 5c-2 -29 -3 -109 -3 -148v-416c0 -38 1 -116 3 -144zM309 885c-3 -20 -5 -53 -5 -76c-40 1 -76 2 -113 2h-76c-43 0 -75 -1 -109 -2c2 18 4 54 4 76c49 -2 83 -3 149 -3c46 0 101 1 150 3z" glyph-name="Imacron"/>
<glyph horiz-adv-x="238" unicode="ī" d="M169 0h-103c5 43 7 105 7 164v126c0 58 -2 127 -7 170c36 0 73 2 103 5c-3 -26 -4 -72 -4 -107v-261c0 -35 1 -71 4 -97zM269 655c-3 -20 -5 -53 -5 -76c-40 1 -76 2 -113 2h-76c-43 0 -75 -1 -109 -2c2 18 4 54 4 76c49 -2 83 -3 149 -3c46 0 101 1 150 3z" glyph-name="imacron"/>
<glyph horiz-adv-x="261" d="M181 0h-102c4 35 5 127 5 174v159c0 46 -1 139 -5 173c29 0 78 1 102 4c-3 -21 -3 -79 -3 -107v-299c0 -28 0 -84 3 -104zM282 699c-3 -20 -5 -53 -5 -76c-40 1 -76 2 -113 2h-76c-43 0 -75 -1 -109 -2c2 18 4 54 4 76c49 -2 83 -3 149 -3c46 0 101 1 150 3z" glyph-name="imacron.sc"/>
<glyph horiz-adv-x="319" unicode="Į" d="M49 -131c0 48 28 90 85 131h-31c5 48 7 176 7 241v221c0 64 -2 193 -7 241c39 0 76 1 108 5c-2 -29 -3 -109 -3 -148v-416c0 -37 0 -111 2 -141l4 -3c-68 -46 -91 -83 -91 -118c0 -24 16 -42 47 -42c21 0 40 7 62 21l-5 -62c-21 -14 -49 -20 -73 -20 c-64 0 -105 35 -105 90z" glyph-name="Iogonek"/>
<glyph horiz-adv-x="238" unicode="į" d="M169 0c-65 -46 -89 -83 -89 -118c0 -24 16 -42 47 -42c21 0 40 7 62 21l-5 -62c-21 -14 -49 -20 -73 -20c-64 0 -105 35 -105 90c0 48 28 90 82 131h-22c5 43 7 105 7 164v126c0 58 -2 127 -7 170c36 0 73 2 103 5c-3 -26 -4 -72 -4 -107v-261c0 -35 1 -71 4 -97z M184 632c0 -35 -25 -65 -62 -65c-36 0 -59 29 -59 59c0 35 25 65 62 65c35 0 59 -29 59 -59z" glyph-name="iogonek"/>
<glyph horiz-adv-x="261" d="M181 0c-65 -46 -89 -83 -89 -118c0 -24 16 -42 47 -42c21 0 40 7 62 21l-5 -62c-21 -14 -49 -20 -73 -20c-64 0 -105 35 -105 90c0 48 28 90 82 131h-21c4 35 5 127 5 174v159c0 46 -1 139 -5 173c29 0 78 1 102 4c-3 -21 -3 -79 -3 -107v-299c0 -28 0 -84 3 -104z" glyph-name="iogonek.sc"/>
<glyph horiz-adv-x="648" unicode="Ķ" d="M523 -8l-319 357v-205c0 -38 1 -116 3 -144h-108c5 48 7 176 7 241v221c0 64 -2 193 -7 241c39 0 76 1 108 5c-2 -29 -3 -109 -3 -148v-187l129 141c54 59 116 129 171 191h127l-321 -338l147 -162c55 -62 129 -143 186 -205zM285 -231l30 20c25 17 37 39 37 57 c0 15 -8 29 -32 42l-13 7c10 33 36 49 62 49c31 0 58 -25 58 -64c0 -44 -33 -93 -118 -140z" glyph-name="Kcommaaccent"/>
<glyph horiz-adv-x="470" unicode="ķ" d="M374 -12l-209 240v-131c0 -35 1 -72 4 -97h-103c5 43 7 105 7 163v382c0 58 -2 122 -7 165c36 3 73 7 103 13c-3 -26 -4 -75 -4 -110v-355c45 55 143 168 174 209c37 0 84 1 117 4l-199 -219l43 -48c60 -68 124 -146 172 -196zM175 -231l30 20c25 17 37 39 37 57 c0 15 -8 29 -32 42l-13 7c10 33 36 49 62 49c31 0 58 -25 58 -64c0 -44 -33 -93 -118 -140z" glyph-name="kcommaaccent"/>
<glyph horiz-adv-x="511" d="M498 1l-110 -7l-213 252v-142c0 -28 1 -84 3 -104h-102c4 35 6 127 6 174v159c0 46 -2 139 -6 173c29 0 78 1 102 4c-2 -21 -3 -79 -3 -107v-132l86 102c30 35 82 97 112 135h115l-218 -244l109 -127c30 -35 86 -101 119 -136zM201 -231l30 20c25 17 37 39 37 57 c0 15 -8 29 -32 42l-13 7c10 33 36 49 62 49c31 0 58 -25 58 -64c0 -44 -33 -93 -118 -140z" glyph-name="kcommaaccent.sc"/>
<glyph horiz-adv-x="532" unicode="Ĺ" d="M227 901l131 9l-161 -149l-63 -5zM515 86c-4 -28 -6 -58 -7 -90c-60 4 -134 5 -205 5s-145 -1 -204 -5c5 48 7 180 7 245v221c0 64 -2 193 -7 241c39 0 76 1 108 5c-2 -29 -3 -109 -3 -148v-414c0 -16 0 -42 2 -62c28 0 60 -1 90 -1c81 0 151 1 219 3z" glyph-name="Lacute"/>
<glyph horiz-adv-x="238" unicode="ĺ" d="M169 0h-103c5 43 7 105 7 164v381c0 58 -2 122 -7 165c36 3 73 7 103 13c-3 -26 -4 -75 -4 -109v-517c0 -35 1 -71 4 -97zM148 911l131 9l-161 -149l-63 -5z" glyph-name="lacute"/>
<glyph horiz-adv-x="415" d="M76 -3c4 35 5 128 5 175v161c0 46 -1 139 -5 173c29 0 78 1 102 4c-3 -21 -3 -79 -3 -107v-282c0 -10 0 -28 1 -41c20 0 41 -1 61 -1c57 0 106 1 154 2c-3 -26 -5 -55 -6 -84c-45 3 -99 4 -153 4s-110 -1 -156 -4zM196 726l131 9l-161 -149l-63 -5z" glyph-name="lacute.sc"/>
<glyph horiz-adv-x="532" unicode="Ľ" d="M328 538l-40 -9c5 61 8 102 8 166c23 4 54 8 76 11c-13 -55 -30 -124 -44 -168zM515 86c-4 -28 -6 -58 -7 -90c-60 4 -134 5 -205 5s-145 -1 -204 -5c5 48 7 180 7 245v221c0 64 -2 193 -7 241c39 0 76 1 108 5c-2 -29 -3 -109 -3 -148v-414c0 -16 0 -42 2 -62 c28 0 60 -1 90 -1c81 0 151 1 219 3z" glyph-name="Lcaron"/>
<glyph horiz-adv-x="238" unicode="ľ" d="M169 0h-103c5 43 7 105 7 164v381c0 58 -2 122 -7 165c36 3 73 7 103 13c-3 -26 -4 -75 -4 -109v-517c0 -35 1 -71 4 -97zM257 553l-40 -9c5 61 8 102 8 166c23 4 54 8 76 11c-13 -55 -30 -124 -44 -168z" glyph-name="lcaron"/>
<glyph horiz-adv-x="415" d="M76 -3c4 35 5 128 5 175v161c0 46 -1 139 -5 173c29 0 78 1 102 4c-3 -21 -3 -79 -3 -107v-282c0 -10 0 -28 1 -41c20 0 41 -1 61 -1c57 0 106 1 154 2c-3 -26 -5 -55 -6 -84c-45 3 -99 4 -153 4s-110 -1 -156 -4zM286 351l-40 -9c5 61 8 102 8 166c23 4 54 8 76 11 c-13 -55 -30 -124 -44 -168z" glyph-name="lcaron.sc"/>
<glyph horiz-adv-x="532" unicode="Ļ" d="M515 86c-4 -28 -6 -58 -7 -90c-60 4 -134 5 -205 5s-145 -1 -204 -5c5 48 7 180 7 245v221c0 64 -2 193 -7 241c39 0 76 1 108 5c-2 -29 -3 -109 -3 -148v-414c0 -16 0 -42 2 -62c28 0 60 -1 90 -1c81 0 151 1 219 3zM221 -231l30 20c25 17 37 39 37 57 c0 15 -8 29 -32 42l-13 7c10 33 36 49 62 49c31 0 58 -25 58 -64c0 -44 -33 -93 -118 -140z" glyph-name="Lcommaaccent"/>
<glyph horiz-adv-x="238" unicode="ļ" d="M169 0h-103c5 43 7 105 7 164v381c0 58 -2 122 -7 165c36 3 73 7 103 13c-3 -26 -4 -75 -4 -109v-517c0 -35 1 -71 4 -97zM31 -231l30 20c25 17 37 39 37 57c0 15 -8 29 -32 42l-13 7c10 33 36 49 62 49c31 0 58 -25 58 -64c0 -44 -33 -93 -118 -140z" glyph-name="lcommaaccent"/>
<glyph horiz-adv-x="415" d="M76 -3c4 35 5 128 5 175v161c0 46 -1 139 -5 173c29 0 78 1 102 4c-3 -21 -3 -79 -3 -107v-282c0 -10 0 -28 1 -41c20 0 41 -1 61 -1c57 0 106 1 154 2c-3 -26 -5 -55 -6 -84c-45 3 -99 4 -153 4s-110 -1 -156 -4zM147 -231l30 20c25 17 37 39 37 57c0 15 -8 29 -32 42 l-13 7c10 33 36 49 62 49c31 0 58 -25 58 -64c0 -44 -33 -93 -118 -140z" glyph-name="lcommaaccent.sc"/>
<glyph horiz-adv-x="532" unicode="Ŀ" d="M475 386c0 -35 -24 -65 -60 -65c-35 0 -57 29 -57 59c0 35 24 65 60 65c34 0 57 -29 57 -59zM515 86c-4 -28 -6 -58 -7 -90c-60 4 -134 5 -205 5s-145 -1 -204 -5c5 48 7 180 7 245v221c0 64 -2 193 -7 241c39 0 76 1 108 5c-2 -29 -3 -109 -3 -148v-414 c0 -16 0 -42 2 -62c28 0 60 -1 90 -1c81 0 151 1 219 3z" glyph-name="Ldot"/>
<glyph horiz-adv-x="354" unicode="ŀ" d="M169 0h-103c5 43 7 105 7 164v381c0 58 -2 122 -7 165c36 3 73 7 103 13c-3 -26 -4 -75 -4 -109v-517c0 -35 1 -71 4 -97zM349 351c0 -35 -24 -65 -60 -65c-35 0 -57 29 -57 59c0 35 24 65 60 65c34 0 57 -29 57 -59z" glyph-name="ldot"/>
<glyph horiz-adv-x="415" d="M76 -3c4 35 5 128 5 175v161c0 46 -1 139 -5 173c29 0 78 1 102 4c-3 -21 -3 -79 -3 -107v-282c0 -10 0 -28 1 -41c20 0 41 -1 61 -1c57 0 106 1 154 2c-3 -26 -5 -55 -6 -84c-45 3 -99 4 -153 4s-110 -1 -156 -4zM387 288c0 -35 -24 -65 -60 -65c-35 0 -57 29 -57 59 c0 35 24 65 60 65c34 0 57 -29 57 -59z" glyph-name="ldot.sc"/>
<glyph horiz-adv-x="532" unicode="Ł" d="M515 86c-4 -28 -6 -58 -7 -90c-60 4 -134 5 -205 5s-145 -1 -204 -5c5 48 7 180 7 245v54c-23 -13 -44 -27 -65 -39c-7 18 -27 53 -38 73c33 16 66 35 103 55v78c0 64 -2 193 -7 241c39 0 76 1 108 5c-2 -29 -3 -109 -3 -148v-121l116 69c7 -19 25 -53 36 -73 c-45 -25 -103 -56 -152 -84v-205c0 -16 0 -42 2 -62c28 0 60 -1 90 -1c81 0 151 1 219 3z" glyph-name="Lslash"/>
<glyph horiz-adv-x="238" unicode="ł" d="M169 0h-103c5 43 7 105 7 164v133l-59 -34c-8 17 -24 48 -36 67c36 18 60 32 95 51v164c0 58 -2 122 -7 165c36 3 73 7 103 13c-3 -26 -4 -75 -4 -109v-180l61 38c8 -17 24 -48 36 -67c-28 -15 -64 -35 -97 -54v-254c0 -35 1 -71 4 -97z" glyph-name="lslash"/>
<glyph horiz-adv-x="415" d="M76 -4c4 35 5 128 5 175v27c-15 -8 -28 -16 -46 -27c-8 17 -24 48 -36 67c31 16 54 28 82 44v50c0 46 -1 139 -5 173c29 0 78 1 102 4c-3 -21 -3 -79 -3 -107v-67l72 45c8 -17 24 -48 36 -67c-31 -17 -72 -40 -108 -61v-132c0 -10 0 -28 1 -41c20 0 41 -1 61 -1 c57 0 106 1 154 2c-3 -26 -5 -55 -6 -84c-45 3 -99 4 -153 4s-110 -1 -156 -4z" glyph-name="lslash.sc"/>
<glyph horiz-adv-x="785" unicode="Ń" d="M90 0c6 48 11 176 12 241l4 240c1 64 0 184 -4 232l26 7l462 -535v277c0 64 -2 193 -8 241c39 0 77 1 111 5c-4 -29 -7 -109 -8 -148l-7 -422c-1 -39 -1 -120 2 -148l-26 -7l-458 527v-366c0 -39 1 -116 4 -144h-110zM435 911l131 9l-161 -149l-63 -5z" glyph-name="Nacute"/>
<glyph horiz-adv-x="545" unicode="ń" d="M478 0h-103c5 43 7 112 7 170v120c0 58 -19 103 -80 103c-66 0 -137 -65 -137 -125v-165c0 -35 1 -77 4 -103h-102c4 43 6 112 6 170v120c0 58 -2 127 -6 170c35 0 60 2 90 5l7 -89c38 62 106 98 162 98c100 0 148 -62 148 -166v-205c0 -35 2 -77 4 -103zM319 681l131 9 l-161 -149l-63 -5z" glyph-name="nacute"/>
<glyph horiz-adv-x="593" d="M71 0c4 35 8 127 8 174l2 170c1 46 1 133 -3 167l35 7l313 -351v166c0 46 -1 139 -6 173c29 0 76 1 100 4c-3 -21 -4 -79 -5 -107l-4 -305c0 -28 0 -84 2 -104l-35 -7l-310 348v-231c0 -28 1 -84 3 -104h-100zM336 725l131 9l-161 -149l-63 -5z" glyph-name="nacute.sc"/>
<glyph horiz-adv-x="785" unicode="Ň" d="M90 0c6 48 11 176 12 241l4 240c1 64 0 184 -4 232l26 7l462 -535v277c0 64 -2 193 -8 241c39 0 77 1 111 5c-4 -29 -7 -109 -8 -148l-7 -422c-1 -39 -1 -120 2 -148l-26 -7l-458 527v-366c0 -39 1 -116 4 -144h-110zM449 772h-115l-98 149l71 6l86 -94l83 89h77z" glyph-name="Ncaron"/>
<glyph horiz-adv-x="545" unicode="ň" d="M478 0h-103c5 43 7 112 7 170v120c0 58 -19 103 -80 103c-66 0 -137 -65 -137 -125v-165c0 -35 1 -77 4 -103h-102c4 43 6 112 6 170v120c0 58 -2 127 -6 170c35 0 60 2 90 5l7 -89c38 62 106 98 162 98c100 0 148 -62 148 -166v-205c0 -35 2 -77 4 -103zM333 542h-115 l-98 149l71 6l86 -94l83 89h77z" glyph-name="ncaron"/>
<glyph horiz-adv-x="593" d="M71 0c4 35 8 127 8 174l2 170c1 46 1 133 -3 167l35 7l313 -351v166c0 46 -1 139 -6 173c29 0 76 1 100 4c-3 -21 -4 -79 -5 -107l-4 -305c0 -28 0 -84 2 -104l-35 -7l-310 348v-231c0 -28 1 -84 3 -104h-100zM350 586h-115l-98 149l71 6l86 -94l83 89h77z" glyph-name="ncaron.sc"/>
<glyph horiz-adv-x="785" unicode="Ņ" d="M90 0c6 48 11 176 12 241l4 240c1 64 0 184 -4 232l26 7l462 -535v277c0 64 -2 193 -8 241c39 0 77 1 111 5c-4 -29 -7 -109 -8 -148l-7 -422c-1 -39 -1 -120 2 -148l-26 -7l-458 527v-366c0 -39 1 -116 4 -144h-110zM308 -231l30 20c25 17 37 39 37 57 c0 15 -8 29 -32 42l-13 7c10 33 36 49 62 49c31 0 58 -25 58 -64c0 -44 -33 -93 -118 -140z" glyph-name="Ncommaaccent"/>
<glyph horiz-adv-x="545" unicode="ņ" d="M478 0h-103c5 43 7 112 7 170v120c0 58 -19 103 -80 103c-66 0 -137 -65 -137 -125v-165c0 -35 1 -77 4 -103h-102c4 43 6 112 6 170v120c0 58 -2 127 -6 170c35 0 60 2 90 5l7 -89c38 62 106 98 162 98c100 0 148 -62 148 -166v-205c0 -35 2 -77 4 -103zM192 -231l30 20 c25 17 37 39 37 57c0 15 -8 29 -32 42l-13 7c10 33 36 49 62 49c31 0 58 -25 58 -64c0 -44 -33 -93 -118 -140z" glyph-name="ncommaaccent"/>
<glyph horiz-adv-x="593" d="M71 0c4 35 8 127 8 174l2 170c1 46 1 133 -3 167l35 7l313 -351v166c0 46 -1 139 -6 173c29 0 76 1 100 4c-3 -21 -4 -79 -5 -107l-4 -305c0 -28 0 -84 2 -104l-35 -7l-310 348v-231c0 -28 1 -84 3 -104h-100zM209 -231l30 20c25 17 37 39 37 57c0 15 -8 29 -32 42l-13 7 c10 33 36 49 62 49c31 0 58 -25 58 -64c0 -44 -33 -93 -118 -140z" glyph-name="ncommaaccent.sc"/>
<glyph horiz-adv-x="785" unicode="Ñ" d="M90 0c6 48 11 176 12 241l4 240c1 64 0 184 -4 232l26 7l462 -535v277c0 64 -2 193 -8 241c39 0 77 1 111 5c-4 -29 -7 -109 -8 -148l-7 -422c-1 -39 -1 -120 2 -148l-26 -7l-458 527v-366c0 -39 1 -116 4 -144h-110zM221 780c17 107 55 141 107 141 c59 0 108 -73 144 -73c16 0 29 17 38 77l69 -10c-16 -105 -56 -146 -108 -146c-58 0 -110 73 -145 73c-17 0 -27 -13 -35 -72z" glyph-name="Ntilde"/>
<glyph horiz-adv-x="545" unicode="ñ" d="M478 0h-103c5 43 7 112 7 170v120c0 58 -19 103 -80 103c-66 0 -137 -65 -137 -125v-165c0 -35 1 -77 4 -103h-102c4 43 6 112 6 170v120c0 58 -2 127 -6 170c35 0 60 2 90 5l7 -89c38 62 106 98 162 98c100 0 148 -62 148 -166v-205c0 -35 2 -77 4 -103zM105 550 c17 107 55 141 107 141c59 0 108 -73 144 -73c16 0 29 17 38 77l69 -10c-16 -105 -56 -146 -108 -146c-58 0 -110 73 -145 73c-17 0 -27 -13 -35 -72z" glyph-name="ntilde"/>
<glyph horiz-adv-x="593" d="M71 0c4 35 8 127 8 174l2 170c1 46 1 133 -3 167l35 7l313 -351v166c0 46 -1 139 -6 173c29 0 76 1 100 4c-3 -21 -4 -79 -5 -107l-4 -305c0 -28 0 -84 2 -104l-35 -7l-310 348v-231c0 -28 1 -84 3 -104h-100zM122 594c17 107 55 141 107 141c59 0 108 -73 144 -73 c16 0 29 17 38 77l69 -10c-16 -105 -56 -146 -108 -146c-58 0 -110 73 -145 73c-17 0 -27 -13 -35 -72z" glyph-name="ntilde.sc"/>
<glyph horiz-adv-x="811" unicode="Ó" d="M404 65c150 0 252 132 252 286c0 177 -107 286 -249 286c-150 0 -252 -132 -252 -286c0 -177 107 -286 249 -286zM396 -18c-204 0 -342 162 -342 351c0 216 147 387 361 387c204 0 342 -162 342 -351c0 -216 -147 -387 -361 -387zM446 921l131 9l-161 -149l-63 -5z" glyph-name="Oacute"/>
<glyph horiz-adv-x="538" unicode="ó" d="M498 240c0 -144 -93 -258 -236 -258c-136 0 -222 109 -222 234c0 144 93 258 235 258c137 0 223 -109 223 -234zM407 227c0 107 -60 166 -136 166c-85 0 -140 -72 -140 -162c0 -111 54 -168 136 -168c88 0 140 73 140 164zM310 681l131 9l-161 -149l-63 -5z" glyph-name="oacute"/>
<glyph horiz-adv-x="602" d="M308 518c149 0 248 -115 248 -253c0 -157 -107 -278 -262 -278c-149 0 -248 115 -248 253c0 157 107 278 262 278zM300 67c97 0 161 85 161 185c0 115 -67 186 -159 186c-97 0 -161 -85 -161 -185c0 -115 67 -186 159 -186zM342 725l131 9l-161 -149l-63 -5z" glyph-name="oacute.sc"/>
<glyph horiz-adv-x="811" unicode="Ŏ" d="M404 65c150 0 252 132 252 286c0 177 -107 286 -249 286c-150 0 -252 -132 -252 -286c0 -177 107 -286 249 -286zM396 -18c-204 0 -342 162 -342 351c0 216 147 387 361 387c204 0 342 -162 342 -351c0 -216 -147 -387 -361 -387zM482 932l77 5 c2 -100 -57 -162 -157 -162c-88 0 -152 65 -152 152l79 14c0 -64 30 -98 78 -98c53 0 75 41 75 89z" glyph-name="Obreve"/>
<glyph horiz-adv-x="538" unicode="ŏ" d="M498 240c0 -144 -93 -258 -236 -258c-136 0 -222 109 -222 234c0 144 93 258 235 258c137 0 223 -109 223 -234zM407 227c0 107 -60 166 -136 166c-85 0 -140 -72 -140 -162c0 -111 54 -168 136 -168c88 0 140 73 140 164zM346 692l77 5c2 -100 -57 -162 -157 -162 c-88 0 -152 65 -152 152l79 14c0 -64 30 -98 78 -98c53 0 75 41 75 89z" glyph-name="obreve"/>
<glyph horiz-adv-x="602" d="M308 518c149 0 248 -115 248 -253c0 -157 -107 -278 -262 -278c-149 0 -248 115 -248 253c0 157 107 278 262 278zM300 67c97 0 161 85 161 185c0 115 -67 186 -159 186c-97 0 -161 -85 -161 -185c0 -115 67 -186 159 -186zM378 736l77 5c2 -100 -57 -162 -157 -162 c-88 0 -152 65 -152 152l79 14c0 -64 30 -98 78 -98c53 0 75 41 75 89z" glyph-name="obreve.sc"/>
<glyph horiz-adv-x="811" unicode="Ô" d="M404 65c150 0 252 132 252 286c0 177 -107 286 -249 286c-150 0 -252 -132 -252 -286c0 -177 107 -286 249 -286zM396 -18c-204 0 -342 162 -342 351c0 216 147 387 361 387c204 0 342 -162 342 -351c0 -216 -147 -387 -361 -387zM353 931h115l96 -152l-68 -6l-87 97 l-82 -89h-80z" glyph-name="Ocircumflex"/>
<glyph horiz-adv-x="538" unicode="ô" d="M498 240c0 -144 -93 -258 -236 -258c-136 0 -222 109 -222 234c0 144 93 258 235 258c137 0 223 -109 223 -234zM407 227c0 107 -60 166 -136 166c-85 0 -140 -72 -140 -162c0 -111 54 -168 136 -168c88 0 140 73 140 164zM217 691h115l96 -152l-68 -6l-87 97l-82 -89 h-80z" glyph-name="ocircumflex"/>
<glyph horiz-adv-x="602" d="M308 518c149 0 248 -115 248 -253c0 -157 -107 -278 -262 -278c-149 0 -248 115 -248 253c0 157 107 278 262 278zM300 67c97 0 161 85 161 185c0 115 -67 186 -159 186c-97 0 -161 -85 -161 -185c0 -115 67 -186 159 -186zM249 735h115l96 -152l-68 -6l-87 97l-82 -89 h-80z" glyph-name="ocircumflex.sc"/>
<glyph horiz-adv-x="811" unicode="Ö" d="M404 65c150 0 252 132 252 286c0 177 -107 286 -249 286c-150 0 -252 -132 -252 -286c0 -177 107 -286 249 -286zM396 -18c-204 0 -342 162 -342 351c0 216 147 387 361 387c204 0 342 -162 342 -351c0 -216 -147 -387 -361 -387zM374 862c0 -35 -24 -65 -60 -65 c-35 0 -57 29 -57 59c0 35 24 65 60 65c34 0 57 -29 57 -59zM554 862c0 -35 -24 -65 -60 -65c-35 0 -57 29 -57 59c0 35 24 65 60 65c34 0 57 -29 57 -59z" glyph-name="Odieresis"/>
<glyph horiz-adv-x="538" unicode="ö" d="M498 240c0 -144 -93 -258 -236 -258c-136 0 -222 109 -222 234c0 144 93 258 235 258c137 0 223 -109 223 -234zM407 227c0 107 -60 166 -136 166c-85 0 -140 -72 -140 -162c0 -111 54 -168 136 -168c88 0 140 73 140 164zM238 622c0 -35 -24 -65 -60 -65 c-35 0 -57 29 -57 59c0 35 24 65 60 65c34 0 57 -29 57 -59zM418 622c0 -35 -24 -65 -60 -65c-35 0 -57 29 -57 59c0 35 24 65 60 65c34 0 57 -29 57 -59z" glyph-name="odieresis"/>
<glyph horiz-adv-x="602" d="M308 518c149 0 248 -115 248 -253c0 -157 -107 -278 -262 -278c-149 0 -248 115 -248 253c0 157 107 278 262 278zM300 67c97 0 161 85 161 185c0 115 -67 186 -159 186c-97 0 -161 -85 -161 -185c0 -115 67 -186 159 -186zM270 666c0 -35 -24 -65 -60 -65 c-35 0 -57 29 -57 59c0 35 24 65 60 65c34 0 57 -29 57 -59zM450 666c0 -35 -24 -65 -60 -65c-35 0 -57 29 -57 59c0 35 24 65 60 65c34 0 57 -29 57 -59z" glyph-name="odieresis.sc"/>
<glyph horiz-adv-x="811" unicode="Ò" d="M404 65c150 0 252 132 252 286c0 177 -107 286 -249 286c-150 0 -252 -132 -252 -286c0 -177 107 -286 249 -286zM396 -18c-204 0 -342 162 -342 351c0 216 147 387 361 387c204 0 342 -162 342 -351c0 -216 -147 -387 -361 -387zM245 921l113 9l91 -149l-59 -5z" glyph-name="Ograve"/>
<glyph horiz-adv-x="538" unicode="ò" d="M498 240c0 -144 -93 -258 -236 -258c-136 0 -222 109 -222 234c0 144 93 258 235 258c137 0 223 -109 223 -234zM407 227c0 107 -60 166 -136 166c-85 0 -140 -72 -140 -162c0 -111 54 -168 136 -168c88 0 140 73 140 164zM109 681l113 9l91 -149l-59 -5z" glyph-name="ograve"/>
<glyph horiz-adv-x="602" d="M308 518c149 0 248 -115 248 -253c0 -157 -107 -278 -262 -278c-149 0 -248 115 -248 253c0 157 107 278 262 278zM300 67c97 0 161 85 161 185c0 115 -67 186 -159 186c-97 0 -161 -85 -161 -185c0 -115 67 -186 159 -186zM141 725l113 9l91 -149l-59 -5z" glyph-name="ograve.sc"/>
<glyph horiz-adv-x="811" unicode="Ő" d="M404 65c150 0 252 132 252 286c0 177 -107 286 -249 286c-150 0 -252 -132 -252 -286c0 -177 107 -286 249 -286zM396 -18c-204 0 -342 162 -342 351c0 216 147 387 361 387c204 0 342 -162 342 -351c0 -216 -147 -387 -361 -387zM342 926l116 9l-99 -156l-66 -3z M506 928l121 11l-111 -158l-66 -3z" glyph-name="Ohungarumlaut"/>
<glyph horiz-adv-x="538" unicode="ő" d="M498 240c0 -144 -93 -258 -236 -258c-136 0 -222 109 -222 234c0 144 93 258 235 258c137 0 223 -109 223 -234zM407 227c0 107 -60 166 -136 166c-85 0 -140 -72 -140 -162c0 -111 54 -168 136 -168c88 0 140 73 140 164zM206 686l116 9l-99 -156l-66 -3zM370 688 l121 11l-111 -158l-66 -3z" glyph-name="ohungarumlaut"/>
<glyph horiz-adv-x="602" d="M308 518c149 0 248 -115 248 -253c0 -157 -107 -278 -262 -278c-149 0 -248 115 -248 253c0 157 107 278 262 278zM300 67c97 0 161 85 161 185c0 115 -67 186 -159 186c-97 0 -161 -85 -161 -185c0 -115 67 -186 159 -186zM238 730l116 9l-99 -156l-66 -3zM402 732 l121 11l-111 -158l-66 -3z" glyph-name="ohungarumlaut.sc"/>
<glyph horiz-adv-x="811" unicode="Ō" d="M404 65c150 0 252 132 252 286c0 177 -107 286 -249 286c-150 0 -252 -132 -252 -286c0 -177 107 -286 249 -286zM396 -18c-204 0 -342 162 -342 351c0 216 147 387 361 387c204 0 342 -162 342 -351c0 -216 -147 -387 -361 -387zM557 895c-3 -20 -5 -53 -5 -76 c-40 1 -76 2 -113 2h-76c-43 0 -75 -1 -109 -2c2 18 4 54 4 76c49 -2 83 -3 149 -3c46 0 101 1 150 3z" glyph-name="Omacron"/>
<glyph horiz-adv-x="538" unicode="ō" d="M498 240c0 -144 -93 -258 -236 -258c-136 0 -222 109 -222 234c0 144 93 258 235 258c137 0 223 -109 223 -234zM407 227c0 107 -60 166 -136 166c-85 0 -140 -72 -140 -162c0 -111 54 -168 136 -168c88 0 140 73 140 164zM421 655c-3 -20 -5 -53 -5 -76 c-40 1 -76 2 -113 2h-76c-43 0 -75 -1 -109 -2c2 18 4 54 4 76c49 -2 83 -3 149 -3c46 0 101 1 150 3z" glyph-name="omacron"/>
<glyph horiz-adv-x="602" d="M308 518c149 0 248 -115 248 -253c0 -157 -107 -278 -262 -278c-149 0 -248 115 -248 253c0 157 107 278 262 278zM300 67c97 0 161 85 161 185c0 115 -67 186 -159 186c-97 0 -161 -85 -161 -185c0 -115 67 -186 159 -186zM453 699c-3 -20 -5 -53 -5 -76 c-40 1 -76 2 -113 2h-76c-43 0 -75 -1 -109 -2c2 18 4 54 4 76c49 -2 83 -3 149 -3c46 0 101 1 150 3z" glyph-name="omacron.sc"/>
<glyph horiz-adv-x="810" unicode="Ø" d="M751 701c-23 -25 -55 -62 -82 -94c55 -63 87 -147 87 -238c0 -216 -147 -387 -361 -387c-80 0 -149 24 -204 66l-67 -79l-64 33c29 30 58 61 83 90c-57 63 -89 149 -89 241c0 216 147 387 361 387c80 0 149 -25 204 -66c33 38 51 59 69 84c20 -13 43 -27 63 -37zM157 351 c0 -74 18 -136 50 -183l351 413c-42 35 -94 54 -152 54c-148 0 -249 -131 -249 -284zM404 67c148 0 249 128 249 284c0 72 -19 132 -50 179l-351 -412c41 -33 94 -51 152 -51z" glyph-name="Oslash"/>
<glyph horiz-adv-x="538" unicode="ø" d="M510 452l-59 -64c30 -41 47 -93 47 -148c0 -144 -93 -258 -236 -258c-52 0 -97 16 -133 43c-16 -18 -36 -38 -54 -59l-48 35l61 65c-31 41 -48 94 -48 150c0 144 93 258 235 258c53 0 99 -17 135 -45l53 61c10 -10 35 -30 47 -38zM130 231c0 -39 6 -71 19 -97l203 231 c-23 18 -51 28 -81 28c-85 0 -141 -72 -141 -162zM408 227c0 36 -7 67 -20 92l-203 -231c22 -17 50 -25 82 -25c88 0 141 73 141 164z" glyph-name="oslash"/>
<glyph horiz-adv-x="602" d="M95 -32l-48 35c30 32 47 50 60 66c-39 45 -61 105 -61 171c0 157 107 278 262 278c56 0 106 -17 145 -45c24 27 41 47 53 62c10 -10 35 -30 47 -38c-15 -16 -37 -41 -57 -64c38 -45 60 -104 60 -168c0 -157 -107 -278 -262 -278c-56 0 -105 16 -144 43 c-17 -19 -37 -40 -55 -62zM141 253c0 -45 10 -83 28 -113l227 266c-26 21 -58 32 -94 32c-97 0 -161 -85 -161 -185zM300 67c97 0 161 85 161 185c0 43 -10 81 -27 110l-226 -266c25 -19 57 -29 92 -29z" glyph-name="oslash.sc"/>
<glyph horiz-adv-x="810" unicode="Ǿ" d="M751 701c-23 -25 -55 -62 -82 -94c55 -63 87 -147 87 -238c0 -216 -147 -387 -361 -387c-80 0 -149 24 -204 66l-67 -79l-64 33c29 30 58 61 83 90c-57 63 -89 149 -89 241c0 216 147 387 361 387c80 0 149 -25 204 -66c33 38 51 59 69 84c20 -13 43 -27 63 -37zM157 351 c0 -74 18 -136 50 -183l351 413c-42 35 -94 54 -152 54c-148 0 -249 -131 -249 -284zM404 67c148 0 249 128 249 284c0 72 -19 132 -50 179l-351 -412c41 -33 94 -51 152 -51zM446 921l131 9l-161 -149l-63 -5z" glyph-name="Oslashacute"/>
<glyph horiz-adv-x="538" unicode="ǿ" d="M510 452l-59 -64c30 -41 47 -93 47 -148c0 -144 -93 -258 -236 -258c-52 0 -97 16 -133 43c-16 -18 -36 -38 -54 -59l-48 35l61 65c-31 41 -48 94 -48 150c0 144 93 258 235 258c53 0 99 -17 135 -45l53 61c10 -10 35 -30 47 -38zM130 231c0 -39 6 -71 19 -97l203 231 c-23 18 -51 28 -81 28c-85 0 -141 -72 -141 -162zM408 227c0 36 -7 67 -20 92l-203 -231c22 -17 50 -25 82 -25c88 0 141 73 141 164zM309 681l131 9l-161 -149l-63 -5z" glyph-name="oslashacute"/>
<glyph horiz-adv-x="602" d="M95 -32l-48 35c30 32 47 50 60 66c-39 45 -61 105 -61 171c0 157 107 278 262 278c56 0 106 -17 145 -45c24 27 41 47 53 62c10 -10 35 -30 47 -38c-15 -16 -37 -41 -57 -64c38 -45 60 -104 60 -168c0 -157 -107 -278 -262 -278c-56 0 -105 16 -144 43 c-17 -19 -37 -40 -55 -62zM141 253c0 -45 10 -83 28 -113l227 266c-26 21 -58 32 -94 32c-97 0 -161 -85 -161 -185zM300 67c97 0 161 85 161 185c0 43 -10 81 -27 110l-226 -266c25 -19 57 -29 92 -29zM342 725l131 9l-161 -149l-63 -5z" glyph-name="oslashacute.sc"/>
<glyph horiz-adv-x="811" unicode="Õ" d="M404 65c150 0 252 132 252 286c0 177 -107 286 -249 286c-150 0 -252 -132 -252 -286c0 -177 107 -286 249 -286zM396 -18c-204 0 -342 162 -342 351c0 216 147 387 361 387c204 0 342 -162 342 -351c0 -216 -147 -387 -361 -387zM232 790c17 107 55 141 107 141 c59 0 108 -73 144 -73c16 0 29 17 38 77l69 -10c-16 -105 -56 -146 -108 -146c-58 0 -110 73 -145 73c-17 0 -27 -13 -35 -72z" glyph-name="Otilde"/>
<glyph horiz-adv-x="538" unicode="õ" d="M498 240c0 -144 -93 -258 -236 -258c-136 0 -222 109 -222 234c0 144 93 258 235 258c137 0 223 -109 223 -234zM407 227c0 107 -60 166 -136 166c-85 0 -140 -72 -140 -162c0 -111 54 -168 136 -168c88 0 140 73 140 164zM96 550c17 107 55 141 107 141 c59 0 108 -73 144 -73c16 0 29 17 38 77l69 -10c-16 -105 -56 -146 -108 -146c-58 0 -110 73 -145 73c-17 0 -27 -13 -35 -72z" glyph-name="otilde"/>
<glyph horiz-adv-x="602" d="M308 518c149 0 248 -115 248 -253c0 -157 -107 -278 -262 -278c-149 0 -248 115 -248 253c0 157 107 278 262 278zM300 67c97 0 161 85 161 185c0 115 -67 186 -159 186c-97 0 -161 -85 -161 -185c0 -115 67 -186 159 -186zM128 594c17 107 55 141 107 141 c59 0 108 -73 144 -73c16 0 29 17 38 77l69 -10c-16 -105 -56 -146 -108 -146c-58 0 -110 73 -145 73c-17 0 -27 -13 -35 -72z" glyph-name="otilde.sc"/>
<glyph horiz-adv-x="633" unicode="Ŕ" d="M611 6l-116 -13l-181 284h-111v-133c0 -38 1 -116 3 -144h-108c5 48 7 176 7 241v221c0 64 -2 193 -7 241c36 0 138 4 184 5c175 3 272 -94 269 -204c-3 -97 -53 -162 -148 -204l103 -151c27 -38 82 -115 105 -143zM203 359h105c90 0 142 61 142 132 c0 86 -53 132 -158 132c-33 0 -62 -1 -89 -3v-261zM344 911l131 9l-161 -149l-63 -5z" glyph-name="Racute"/>
<glyph horiz-adv-x="340" unicode="ŕ" d="M326 474l-12 -106c-66 12 -149 -23 -149 -93v-172c0 -35 1 -77 4 -103h-102c5 43 6 112 6 170v140c0 58 -3 103 -10 144c32 1 62 6 91 13l10 -91c38 62 87 89 162 98zM235 681l131 9l-161 -149l-63 -5z" glyph-name="racute"/>
<glyph horiz-adv-x="496" d="M476 4l-107 -10l-122 192h-73v-82c0 -28 1 -84 3 -104h-101c4 35 5 127 5 174v159c0 46 -1 139 -5 173c26 0 114 3 147 4c135 1 211 -63 210 -151c-1 -70 -37 -116 -103 -148l77 -112c18 -26 53 -74 69 -95zM174 260h70c60 0 96 39 96 85c0 54 -33 85 -109 85 c-20 0 -39 -1 -56 -2c-1 -15 -1 -27 -1 -38v-130zM282 725l131 9l-161 -149l-63 -5z" glyph-name="racute.sc"/>
<glyph horiz-adv-x="633" unicode="Ř" d="M611 6l-116 -13l-181 284h-111v-133c0 -38 1 -116 3 -144h-108c5 48 7 176 7 241v221c0 64 -2 193 -7 241c36 0 138 4 184 5c175 3 272 -94 269 -204c-3 -97 -53 -162 -148 -204l103 -151c27 -38 82 -115 105 -143zM203 359h105c90 0 142 61 142 132 c0 86 -53 132 -158 132c-33 0 -62 -1 -89 -3v-261zM358 772h-115l-98 149l71 6l86 -94l83 89h77z" glyph-name="Rcaron"/>
<glyph horiz-adv-x="340" unicode="ř" d="M326 474l-12 -106c-66 12 -149 -23 -149 -93v-172c0 -35 1 -77 4 -103h-102c5 43 6 112 6 170v140c0 58 -3 103 -10 144c32 1 62 6 91 13l10 -91c38 62 87 89 162 98zM249 542h-115l-98 149l71 6l86 -94l83 89h77z" glyph-name="rcaron"/>
<glyph horiz-adv-x="496" d="M476 4l-107 -10l-122 192h-73v-82c0 -28 1 -84 3 -104h-101c4 35 5 127 5 174v159c0 46 -1 139 -5 173c26 0 114 3 147 4c135 1 211 -63 210 -151c-1 -70 -37 -116 -103 -148l77 -112c18 -26 53 -74 69 -95zM296 586h-115l-98 149l71 6l86 -94l83 89h77zM174 260h70 c60 0 96 39 96 85c0 54 -33 85 -109 85c-20 0 -39 -1 -56 -2c-1 -15 -1 -27 -1 -38v-130z" glyph-name="rcaron.sc"/>
<glyph horiz-adv-x="633" unicode="Ŗ" d="M611 6l-116 -13l-181 284h-111v-133c0 -38 1 -116 3 -144h-108c5 48 7 176 7 241v221c0 64 -2 193 -7 241c36 0 138 4 184 5c175 3 272 -94 269 -204c-3 -97 -53 -162 -148 -204l103 -151c27 -38 82 -115 105 -143zM203 359h105c90 0 142 61 142 132 c0 86 -53 132 -158 132c-33 0 -62 -1 -89 -3v-261zM243 -231l30 20c25 17 37 39 37 57c0 15 -8 29 -32 42l-13 7c10 33 36 49 62 49c31 0 58 -25 58 -64c0 -44 -33 -93 -118 -140z" glyph-name="Rcommaaccent"/>
<glyph horiz-adv-x="340" unicode="ŗ" d="M326 474l-12 -106c-66 12 -149 -23 -149 -93v-172c0 -35 1 -77 4 -103h-102c5 43 6 112 6 170v140c0 58 -3 103 -10 144c32 1 62 6 91 13l10 -91c38 62 87 89 162 98zM38 -231l30 20c25 17 37 39 37 57c0 15 -8 29 -32 42l-13 7c10 33 36 49 62 49c31 0 58 -25 58 -64 c0 -44 -33 -93 -118 -140z" glyph-name="rcommaaccent"/>
<glyph horiz-adv-x="496" d="M476 4l-107 -10l-122 192h-73v-82c0 -28 1 -84 3 -104h-101c4 35 5 127 5 174v159c0 46 -1 139 -5 173c26 0 114 3 147 4c135 1 211 -63 210 -151c-1 -70 -37 -116 -103 -148l77 -112c18 -26 53 -74 69 -95zM174 260h70c60 0 96 39 96 85c0 54 -33 85 -109 85 c-20 0 -39 -1 -56 -2c-1 -15 -1 -27 -1 -38v-130zM173 -231l30 20c25 17 37 39 37 57c0 15 -8 29 -32 42l-13 7c10 33 36 49 62 49c31 0 58 -25 58 -64c0 -44 -33 -93 -118 -140z" glyph-name="rcommaaccent.sc"/>
<glyph horiz-adv-x="528" unicode="Ś" d="M478 197c0 -120 -88 -215 -233 -215c-65 0 -145 25 -197 59l6 104c40 -36 122 -75 197 -75c76 0 129 39 129 114c0 138 -304 149 -304 333c0 113 91 203 221 203c66 0 124 -23 163 -52l-32 -86c-34 28 -90 50 -135 50c-71 0 -119 -41 -119 -103c0 -128 304 -132 304 -332 zM332 921l131 9l-161 -149l-63 -5z" glyph-name="Sacute"/>
<glyph horiz-adv-x="415" unicode="ś" d="M220 474c58 0 112 -18 144 -38l-31 -80c-31 23 -72 37 -113 37c-40 0 -78 -14 -78 -56c0 -74 237 -58 237 -202c0 -95 -83 -153 -181 -153c-50 0 -121 16 -158 41l5 95c40 -32 102 -55 155 -55c51 0 89 20 89 57c0 91 -236 64 -236 213c0 78 69 141 167 141zM263 681 l131 9l-161 -149l-63 -5z" glyph-name="sacute"/>
<glyph horiz-adv-x="418" d="M373 145c0 -92 -69 -158 -176 -158c-51 0 -113 18 -152 42l4 94c31 -26 94 -54 152 -54c48 0 81 22 81 65c0 89 -220 99 -220 234c0 88 69 150 168 150c51 0 99 -16 129 -37l-25 -80c-27 20 -69 36 -104 36c-47 0 -76 -25 -76 -60c0 -83 219 -88 219 -232zM266 725l131 9 l-161 -149l-63 -5z" glyph-name="sacute.sc"/>
<glyph horiz-adv-x="528" unicode="Š" d="M478 197c0 -120 -88 -215 -233 -215c-65 0 -145 25 -197 59l6 104c40 -36 122 -75 197 -75c76 0 129 39 129 114c0 138 -304 149 -304 333c0 113 91 203 221 203c66 0 124 -23 163 -52l-32 -86c-34 28 -90 50 -135 50c-71 0 -119 -41 -119 -103c0 -128 304 -132 304 -332 zM346 782h-115l-98 149l71 6l86 -94l83 89h77z" glyph-name="Scaron"/>
<glyph horiz-adv-x="415" unicode="š" d="M220 474c58 0 112 -18 144 -38l-31 -80c-31 23 -72 37 -113 37c-40 0 -78 -14 -78 -56c0 -74 237 -58 237 -202c0 -95 -83 -153 -181 -153c-50 0 -121 16 -158 41l5 95c40 -32 102 -55 155 -55c51 0 89 20 89 57c0 91 -236 64 -236 213c0 78 69 141 167 141zM277 542 h-115l-98 149l71 6l86 -94l83 89h77z" glyph-name="scaron"/>
<glyph horiz-adv-x="418" d="M373 145c0 -92 -69 -158 -176 -158c-51 0 -113 18 -152 42l4 94c31 -26 94 -54 152 -54c48 0 81 22 81 65c0 89 -220 99 -220 234c0 88 69 150 168 150c51 0 99 -16 129 -37l-25 -80c-27 20 -69 36 -104 36c-47 0 -76 -25 -76 -60c0 -83 219 -88 219 -232zM280 586h-115 l-98 149l71 6l86 -94l83 89h77z" glyph-name="scaron.sc"/>
<glyph horiz-adv-x="528" unicode="Ş" d="M478 197c0 -110 -73 -197 -196 -212l-15 -54c71 -20 103 -55 103 -93c0 -43 -39 -84 -111 -84c-26 0 -55 5 -85 14l13 58c25 -9 56 -15 79 -15c24 0 38 7 38 25c0 21 -37 37 -91 50l-5 4c6 18 16 58 25 92c-63 3 -136 27 -185 59l6 104c40 -36 122 -75 197 -75 c76 0 129 39 129 114c0 138 -304 149 -304 333c0 113 91 203 221 203c66 0 124 -23 163 -52l-32 -86c-34 28 -90 50 -135 50c-71 0 -119 -41 -119 -103c0 -128 304 -132 304 -332z" glyph-name="Scedilla"/>
<glyph horiz-adv-x="415" unicode="ş" d="M220 474c58 0 112 -18 144 -38l-31 -80c-31 23 -72 37 -113 37c-40 0 -78 -14 -78 -56c0 -74 237 -58 237 -202c0 -84 -64 -138 -146 -150l-15 -54c71 -20 103 -55 103 -93c0 -43 -39 -84 -111 -84c-26 0 -55 5 -85 14l13 58c25 -9 56 -15 79 -15c24 0 38 7 38 25 c0 21 -37 37 -91 50l-5 4c6 18 16 58 25 93c-49 2 -111 17 -144 40l5 95c40 -32 102 -55 155 -55c51 0 89 20 89 57c0 91 -236 64 -236 213c0 78 69 141 167 141z" glyph-name="scedilla"/>
<glyph horiz-adv-x="418" d="M373 145c0 -82 -54 -143 -141 -155l-15 -54c71 -20 103 -55 103 -93c0 -43 -39 -84 -111 -84c-26 0 -55 5 -85 14l13 58c25 -9 56 -15 79 -15c24 0 38 7 38 25c0 21 -37 37 -91 50l-5 4c6 18 16 58 25 93c-48 3 -103 19 -138 41l4 94c31 -26 94 -54 152 -54 c48 0 81 22 81 65c0 89 -220 99 -220 234c0 88 69 150 168 150c51 0 99 -16 129 -37l-25 -80c-27 20 -69 36 -104 36c-47 0 -76 -25 -76 -60c0 -83 219 -88 219 -232z" glyph-name="scedilla.sc"/>
<glyph horiz-adv-x="528" unicode="Ș" d="M175 -231l30 20c25 17 37 39 37 57c0 15 -8 29 -32 42l-13 7c10 33 36 49 62 49c31 0 58 -25 58 -64c0 -44 -33 -93 -118 -140zM478 197c0 -120 -88 -215 -233 -215c-65 0 -145 25 -197 59l6 104c40 -36 122 -75 197 -75c76 0 129 39 129 114c0 138 -304 149 -304 333 c0 113 91 203 221 203c66 0 124 -23 163 -52l-32 -86c-34 28 -90 50 -135 50c-71 0 -119 -41 -119 -103c0 -128 304 -132 304 -332z" glyph-name="Scommaaccent"/>
<glyph horiz-adv-x="415" unicode="ș" d="M220 474c58 0 112 -18 144 -38l-31 -80c-31 23 -72 37 -113 37c-40 0 -78 -14 -78 -56c0 -74 237 -58 237 -202c0 -95 -83 -153 -181 -153c-50 0 -121 16 -158 41l5 95c40 -32 102 -55 155 -55c51 0 89 20 89 57c0 91 -236 64 -236 213c0 78 69 141 167 141zM116 -231 l30 20c25 17 37 39 37 57c0 15 -8 29 -32 42l-13 7c10 33 36 49 62 49c31 0 58 -25 58 -64c0 -44 -33 -93 -118 -140z" glyph-name="scommaaccent"/>
<glyph horiz-adv-x="418" d="M373 145c0 -92 -69 -158 -176 -158c-51 0 -113 18 -152 42l4 94c31 -26 94 -54 152 -54c48 0 81 22 81 65c0 89 -220 99 -220 234c0 88 69 150 168 150c51 0 99 -16 129 -37l-25 -80c-27 20 -69 36 -104 36c-47 0 -76 -25 -76 -60c0 -83 219 -88 219 -232zM113 -231 l30 20c25 17 37 39 37 57c0 15 -8 29 -32 42l-13 7c10 33 36 49 62 49c31 0 58 -25 58 -64c0 -44 -33 -93 -118 -140z" glyph-name="scommaaccent.sc"/>
<glyph horiz-adv-x="642" unicode="Ť" d="M611 709c-5 -29 -7 -57 -8 -89c-77 1 -144 2 -234 2c-1 -22 -1 -48 -1 -65v-413c0 -38 1 -116 3 -144h-108c5 48 7 176 7 241v217c0 42 0 108 -2 164c-90 0 -161 -1 -237 -2c3 25 4 58 4 89c90 -3 176 -5 284 -5c109 0 200 2 292 5zM376 772h-115l-98 149l71 6l86 -94 l83 89h77z" glyph-name="Tcaron"/>
<glyph horiz-adv-x="349" unicode="ť" d="M323 92l-4 -80c-21 -17 -61 -26 -91 -26c-87 0 -123 49 -123 136v262h-83l24 80h60l9 98l82 22v-120h123c-2 -22 -3 -44 -3 -80h-120v-256c0 -47 17 -60 51 -60c25 0 55 11 75 24zM294 553l-40 -9c5 61 8 102 8 166c23 4 54 8 76 11c-13 -55 -30 -124 -44 -168z" glyph-name="tcaron"/>
<glyph horiz-adv-x="494" d="M461 510c-3 -26 -5 -55 -5 -86c-54 1 -100 2 -162 2c-1 -15 -1 -34 -1 -45v-277c0 -28 0 -84 3 -104h-102c4 35 6 127 6 174v142c0 28 -1 71 -3 110c-61 0 -111 -1 -164 -2c2 24 2 59 2 86c67 -2 131 -3 211 -3s148 1 215 3zM302 586h-115l-98 149l71 6l86 -94l83 89h77z " glyph-name="tcaron.sc"/>
<glyph horiz-adv-x="642" unicode="Ţ" d="M611 709c-5 -29 -7 -57 -8 -89c-77 1 -144 2 -234 2c-1 -22 -1 -48 -1 -65v-413c0 -38 1 -116 3 -144h-108c5 48 7 176 7 241v217c0 42 0 108 -2 164c-90 0 -161 -1 -237 -2c3 25 4 58 4 89c90 -3 176 -5 284 -5c109 0 200 2 292 5zM235 -231l30 20c25 17 37 39 37 57 c0 15 -8 29 -32 42l-13 7c10 33 36 49 62 49c31 0 58 -25 58 -64c0 -44 -33 -93 -118 -140z" glyph-name="Tcommaaccent"/>
<glyph horiz-adv-x="642" unicode="Ț" d="M611 709c-5 -29 -7 -57 -8 -89c-77 1 -144 2 -234 2c-1 -22 -1 -48 -1 -65v-413c0 -38 1 -116 3 -144h-108c5 48 7 176 7 241v217c0 42 0 108 -2 164c-90 0 -161 -1 -237 -2c3 25 4 58 4 89c90 -3 176 -5 284 -5c109 0 200 2 292 5zM235 -231l30 20c25 17 37 39 37 57 c0 15 -8 29 -32 42l-13 7c10 33 36 49 62 49c31 0 58 -25 58 -64c0 -44 -33 -93 -118 -140z" glyph-name="Tcommaaccent"/>
<glyph horiz-adv-x="349" unicode="ţ" d="M318 92l-4 -80c-21 -17 -61 -26 -91 -26c-87 0 -123 49 -123 136v262h-83l24 80h60l9 98l82 22v-120h123c-2 -22 -3 -44 -3 -80h-120v-256c0 -47 17 -60 51 -60c25 0 55 11 75 24zM129 -231l30 20c25 17 37 39 37 57c0 15 -8 29 -32 42l-13 7c10 33 36 49 62 49 c31 0 58 -25 58 -64c0 -44 -33 -93 -118 -140z" glyph-name="tcommaaccent"/>
<glyph horiz-adv-x="349" unicode="ț" d="M318 92l-4 -80c-21 -17 -61 -26 -91 -26c-87 0 -123 49 -123 136v262h-83l24 80h60l9 98l82 22v-120h123c-2 -22 -3 -44 -3 -80h-120v-256c0 -47 17 -60 51 -60c25 0 55 11 75 24zM129 -231l30 20c25 17 37 39 37 57c0 15 -8 29 -32 42l-13 7c10 33 36 49 62 49 c31 0 58 -25 58 -64c0 -44 -33 -93 -118 -140z" glyph-name="tcommaaccent"/>
<glyph horiz-adv-x="494" d="M461 510c-3 -26 -5 -55 -5 -86c-54 1 -100 2 -162 2c-1 -15 -1 -34 -1 -45v-277c0 -28 0 -84 3 -104h-102c4 35 6 127 6 174v142c0 28 -1 71 -3 110c-61 0 -111 -1 -164 -2c2 24 2 59 2 86c67 -2 131 -3 211 -3s148 1 215 3zM161 -231l30 20c25 17 37 39 37 57 c0 15 -8 29 -32 42l-13 7c10 33 36 49 62 49c31 0 58 -25 58 -64c0 -44 -33 -93 -118 -140z" glyph-name="tcommaaccent.sc"/>
<glyph horiz-adv-x="756" unicode="Ú" d="M666 708c-4 -29 -5 -109 -5 -148v-268c0 -117 -25 -178 -77 -229c-53 -53 -123 -81 -221 -81c-157 0 -268 99 -268 258v222c0 64 -2 193 -7 241c40 0 76 1 109 5c-3 -29 -4 -109 -4 -148v-288c0 -149 74 -203 189 -203c114 0 181 70 181 182v211c0 64 -2 193 -8 241 c40 0 77 1 111 5zM418 911l131 9l-161 -149l-63 -5z" glyph-name="Uacute"/>
<glyph horiz-adv-x="545" unicode="ú" d="M479 0h-85l-11 72c-38 -62 -108 -90 -150 -90c-105 0 -162 57 -162 179v129c0 58 -2 127 -6 170c36 0 72 2 102 5c-3 -26 -4 -72 -4 -107v-179c0 -75 24 -116 94 -116c48 0 123 51 123 111v116c0 58 -2 127 -7 170c36 0 74 2 104 5c-3 -26 -5 -72 -5 -107v-192 c0 -58 2 -120 7 -166zM313 681l131 9l-161 -149l-63 -5z" glyph-name="uacute"/>
<glyph horiz-adv-x="575" d="M504 510c-3 -21 -4 -79 -4 -107v-188c0 -84 -19 -130 -58 -168c-39 -39 -93 -60 -164 -60c-120 0 -203 71 -203 190v156c0 46 -1 139 -5 173c29 0 77 1 101 4c-2 -21 -3 -79 -3 -107v-198c0 -98 47 -134 122 -134s117 45 117 120v142c0 46 -2 139 -6 173c29 0 78 1 103 4 zM327 725l131 9l-161 -149l-63 -5z" glyph-name="uacute.sc"/>
<glyph horiz-adv-x="756" unicode="Ŭ" d="M666 708c-4 -29 -5 -109 -5 -148v-268c0 -117 -25 -178 -77 -229c-53 -53 -123 -81 -221 -81c-157 0 -268 99 -268 258v222c0 64 -2 193 -7 241c40 0 76 1 109 5c-3 -29 -4 -109 -4 -148v-288c0 -149 74 -203 189 -203c114 0 181 70 181 182v211c0 64 -2 193 -8 241 c40 0 77 1 111 5zM454 922l77 5c2 -100 -57 -162 -157 -162c-88 0 -152 65 -152 152l79 14c0 -64 30 -98 78 -98c53 0 75 41 75 89z" glyph-name="Ubreve"/>
<glyph horiz-adv-x="545" unicode="ŭ" d="M479 0h-85l-11 72c-38 -62 -108 -90 -150 -90c-105 0 -162 57 -162 179v129c0 58 -2 127 -6 170c36 0 72 2 102 5c-3 -26 -4 -72 -4 -107v-179c0 -75 24 -116 94 -116c48 0 123 51 123 111v116c0 58 -2 127 -7 170c36 0 74 2 104 5c-3 -26 -5 -72 -5 -107v-192 c0 -58 2 -120 7 -166zM349 692l77 5c2 -100 -57 -162 -157 -162c-88 0 -152 65 -152 152l79 14c0 -64 30 -98 78 -98c53 0 75 41 75 89z" glyph-name="ubreve"/>
<glyph horiz-adv-x="575" d="M504 510c-3 -21 -4 -79 -4 -107v-188c0 -84 -19 -130 -58 -168c-39 -39 -93 -60 -164 -60c-120 0 -203 71 -203 190v156c0 46 -1 139 -5 173c29 0 77 1 101 4c-2 -21 -3 -79 -3 -107v-198c0 -98 47 -134 122 -134s117 45 117 120v142c0 46 -2 139 -6 173c29 0 78 1 103 4 zM363 736l77 5c2 -100 -57 -162 -157 -162c-88 0 -152 65 -152 152l79 14c0 -64 30 -98 78 -98c53 0 75 41 75 89z" glyph-name="ubreve.sc"/>
<glyph horiz-adv-x="756" unicode="Û" d="M666 708c-4 -29 -5 -109 -5 -148v-268c0 -117 -25 -178 -77 -229c-53 -53 -123 -81 -221 -81c-157 0 -268 99 -268 258v222c0 64 -2 193 -7 241c40 0 76 1 109 5c-3 -29 -4 -109 -4 -148v-288c0 -149 74 -203 189 -203c114 0 181 70 181 182v211c0 64 -2 193 -8 241 c40 0 77 1 111 5zM325 921h115l96 -152l-68 -6l-87 97l-82 -89h-80z" glyph-name="Ucircumflex"/>
<glyph horiz-adv-x="545" unicode="û" d="M479 0h-85l-11 72c-38 -62 -108 -90 -150 -90c-105 0 -162 57 -162 179v129c0 58 -2 127 -6 170c36 0 72 2 102 5c-3 -26 -4 -72 -4 -107v-179c0 -75 24 -116 94 -116c48 0 123 51 123 111v116c0 58 -2 127 -7 170c36 0 74 2 104 5c-3 -26 -5 -72 -5 -107v-192 c0 -58 2 -120 7 -166zM220 691h115l96 -152l-68 -6l-87 97l-82 -89h-80z" glyph-name="ucircumflex"/>
<glyph horiz-adv-x="575" d="M504 510c-3 -21 -4 -79 -4 -107v-188c0 -84 -19 -130 -58 -168c-39 -39 -93 -60 -164 -60c-120 0 -203 71 -203 190v156c0 46 -1 139 -5 173c29 0 77 1 101 4c-2 -21 -3 -79 -3 -107v-198c0 -98 47 -134 122 -134s117 45 117 120v142c0 46 -2 139 -6 173c29 0 78 1 103 4 zM234 735h115l96 -152l-68 -6l-87 97l-82 -89h-80z" glyph-name="ucircumflex.sc"/>
<glyph horiz-adv-x="756" unicode="Ü" d="M666 708c-4 -29 -5 -109 -5 -148v-268c0 -117 -25 -178 -77 -229c-53 -53 -123 -81 -221 -81c-157 0 -268 99 -268 258v222c0 64 -2 193 -7 241c40 0 76 1 109 5c-3 -29 -4 -109 -4 -148v-288c0 -149 74 -203 189 -203c114 0 181 70 181 182v211c0 64 -2 193 -8 241 c40 0 77 1 111 5zM346 852c0 -35 -24 -65 -60 -65c-35 0 -57 29 -57 59c0 35 24 65 60 65c34 0 57 -29 57 -59zM526 852c0 -35 -24 -65 -60 -65c-35 0 -57 29 -57 59c0 35 24 65 60 65c34 0 57 -29 57 -59z" glyph-name="Udieresis"/>
<glyph horiz-adv-x="545" unicode="ü" d="M479 0h-85l-11 72c-38 -62 -108 -90 -150 -90c-105 0 -162 57 -162 179v129c0 58 -2 127 -6 170c36 0 72 2 102 5c-3 -26 -4 -72 -4 -107v-179c0 -75 24 -116 94 -116c48 0 123 51 123 111v116c0 58 -2 127 -7 170c36 0 74 2 104 5c-3 -26 -5 -72 -5 -107v-192 c0 -58 2 -120 7 -166zM241 622c0 -35 -24 -65 -60 -65c-35 0 -57 29 -57 59c0 35 24 65 60 65c34 0 57 -29 57 -59zM421 622c0 -35 -24 -65 -60 -65c-35 0 -57 29 -57 59c0 35 24 65 60 65c34 0 57 -29 57 -59z" glyph-name="udieresis"/>
<glyph horiz-adv-x="575" d="M504 510c-3 -21 -4 -79 -4 -107v-188c0 -84 -19 -130 -58 -168c-39 -39 -93 -60 -164 -60c-120 0 -203 71 -203 190v156c0 46 -1 139 -5 173c29 0 77 1 101 4c-2 -21 -3 -79 -3 -107v-198c0 -98 47 -134 122 -134s117 45 117 120v142c0 46 -2 139 -6 173c29 0 78 1 103 4 zM255 666c0 -35 -24 -65 -60 -65c-35 0 -57 29 -57 59c0 35 24 65 60 65c34 0 57 -29 57 -59zM435 666c0 -35 -24 -65 -60 -65c-35 0 -57 29 -57 59c0 35 24 65 60 65c34 0 57 -29 57 -59z" glyph-name="udieresis.sc"/>
<glyph horiz-adv-x="756" unicode="Ù" d="M666 708c-4 -29 -5 -109 -5 -148v-268c0 -117 -25 -178 -77 -229c-53 -53 -123 -81 -221 -81c-157 0 -268 99 -268 258v222c0 64 -2 193 -7 241c40 0 76 1 109 5c-3 -29 -4 -109 -4 -148v-288c0 -149 74 -203 189 -203c114 0 181 70 181 182v211c0 64 -2 193 -8 241 c40 0 77 1 111 5zM217 911l113 9l91 -149l-59 -5z" glyph-name="Ugrave"/>
<glyph horiz-adv-x="545" unicode="ù" d="M479 0h-85l-11 72c-38 -62 -108 -90 -150 -90c-105 0 -162 57 -162 179v129c0 58 -2 127 -6 170c36 0 72 2 102 5c-3 -26 -4 -72 -4 -107v-179c0 -75 24 -116 94 -116c48 0 123 51 123 111v116c0 58 -2 127 -7 170c36 0 74 2 104 5c-3 -26 -5 -72 -5 -107v-192 c0 -58 2 -120 7 -166zM112 681l113 9l91 -149l-59 -5z" glyph-name="ugrave"/>
<glyph horiz-adv-x="575" d="M504 510c-3 -21 -4 -79 -4 -107v-188c0 -84 -19 -130 -58 -168c-39 -39 -93 -60 -164 -60c-120 0 -203 71 -203 190v156c0 46 -1 139 -5 173c29 0 77 1 101 4c-2 -21 -3 -79 -3 -107v-198c0 -98 47 -134 122 -134s117 45 117 120v142c0 46 -2 139 -6 173c29 0 78 1 103 4 zM126 725l113 9l91 -149l-59 -5z" glyph-name="ugrave.sc"/>
<glyph horiz-adv-x="756" unicode="Ű" d="M666 708c-4 -29 -5 -109 -5 -148v-268c0 -117 -25 -178 -77 -229c-53 -53 -123 -81 -221 -81c-157 0 -268 99 -268 258v222c0 64 -2 193 -7 241c40 0 76 1 109 5c-3 -29 -4 -109 -4 -148v-288c0 -149 74 -203 189 -203c114 0 181 70 181 182v211c0 64 -2 193 -8 241 c40 0 77 1 111 5zM314 916l116 9l-99 -156l-66 -3zM478 918l121 11l-111 -158l-66 -3z" glyph-name="Uhungarumlaut"/>
<glyph horiz-adv-x="545" unicode="ű" d="M479 0h-85l-11 72c-38 -62 -108 -90 -150 -90c-105 0 -162 57 -162 179v129c0 58 -2 127 -6 170c36 0 72 2 102 5c-3 -26 -4 -72 -4 -107v-179c0 -75 24 -116 94 -116c48 0 123 51 123 111v116c0 58 -2 127 -7 170c36 0 74 2 104 5c-3 -26 -5 -72 -5 -107v-192 c0 -58 2 -120 7 -166zM209 686l116 9l-99 -156l-66 -3zM373 688l121 11l-111 -158l-66 -3z" glyph-name="uhungarumlaut"/>
<glyph horiz-adv-x="575" d="M504 510c-3 -21 -4 -79 -4 -107v-188c0 -84 -19 -130 -58 -168c-39 -39 -93 -60 -164 -60c-120 0 -203 71 -203 190v156c0 46 -1 139 -5 173c29 0 77 1 101 4c-2 -21 -3 -79 -3 -107v-198c0 -98 47 -134 122 -134s117 45 117 120v142c0 46 -2 139 -6 173c29 0 78 1 103 4 zM223 730l116 9l-99 -156l-66 -3zM387 732l121 11l-111 -158l-66 -3z" glyph-name="uhungarumlaut.sc"/>
<glyph horiz-adv-x="756" unicode="Ū" d="M666 708c-4 -29 -5 -109 -5 -148v-268c0 -117 -25 -178 -77 -229c-53 -53 -123 -81 -221 -81c-157 0 -268 99 -268 258v222c0 64 -2 193 -7 241c40 0 76 1 109 5c-3 -29 -4 -109 -4 -148v-288c0 -149 74 -203 189 -203c114 0 181 70 181 182v211c0 64 -2 193 -8 241 c40 0 77 1 111 5zM529 885c-3 -20 -5 -53 -5 -76c-40 1 -76 2 -113 2h-76c-43 0 -75 -1 -109 -2c2 18 4 54 4 76c49 -2 83 -3 149 -3c46 0 101 1 150 3z" glyph-name="Umacron"/>
<glyph horiz-adv-x="545" unicode="ū" d="M479 0h-85l-11 72c-38 -62 -108 -90 -150 -90c-105 0 -162 57 -162 179v129c0 58 -2 127 -6 170c36 0 72 2 102 5c-3 -26 -4 -72 -4 -107v-179c0 -75 24 -116 94 -116c48 0 123 51 123 111v116c0 58 -2 127 -7 170c36 0 74 2 104 5c-3 -26 -5 -72 -5 -107v-192 c0 -58 2 -120 7 -166zM424 655c-3 -20 -5 -53 -5 -76c-40 1 -76 2 -113 2h-76c-43 0 -75 -1 -109 -2c2 18 4 54 4 76c49 -2 83 -3 149 -3c46 0 101 1 150 3z" glyph-name="umacron"/>
<glyph horiz-adv-x="575" d="M504 510c-3 -21 -4 -79 -4 -107v-188c0 -84 -19 -130 -58 -168c-39 -39 -93 -60 -164 -60c-120 0 -203 71 -203 190v156c0 46 -1 139 -5 173c29 0 77 1 101 4c-2 -21 -3 -79 -3 -107v-198c0 -98 47 -134 122 -134s117 45 117 120v142c0 46 -2 139 -6 173c29 0 78 1 103 4 zM438 699c-3 -20 -5 -53 -5 -76c-40 1 -76 2 -113 2h-76c-43 0 -75 -1 -109 -2c2 18 4 54 4 76c49 -2 83 -3 149 -3c46 0 101 1 150 3z" glyph-name="umacron.sc"/>
<glyph horiz-adv-x="756" unicode="Ų" d="M399 -221c-64 0 -105 35 -105 90c0 41 27 78 78 113h-9c-157 0 -268 99 -268 258v222c0 64 -2 193 -7 241c40 0 78 1 111 5c-3 -29 -4 -109 -4 -148v-287c0 -149 73 -202 187 -202s180 69 180 180v211c0 64 -2 193 -8 241c40 0 79 1 113 5c-4 -29 -5 -109 -5 -148v-267 c0 -118 -25 -178 -77 -230c-22 -22 -57 -47 -94 -62c-79 -33 -123 -73 -123 -119c0 -24 16 -42 47 -42c21 0 40 7 62 21l-5 -62c-21 -14 -49 -20 -73 -20z" glyph-name="Uogonek"/>
<glyph horiz-adv-x="545" unicode="ų" d="M479 0c-82 -46 -113 -83 -113 -118c0 -24 16 -42 47 -42c21 0 40 7 62 21l-5 -62c-21 -14 -49 -20 -73 -20c-64 0 -105 35 -105 90c0 49 35 91 102 132l-11 71c-38 -62 -108 -90 -150 -90c-105 0 -162 57 -162 179v129c0 58 -2 127 -6 170c36 0 72 2 102 5 c-3 -26 -4 -72 -4 -107v-179c0 -75 24 -116 94 -116c48 0 123 51 123 111v116c0 58 -2 127 -7 170c36 0 74 2 104 5c-3 -26 -5 -72 -5 -107v-192c0 -58 2 -120 7 -166z" glyph-name="uogonek"/>
<glyph horiz-adv-x="575" d="M203 -131c0 43 26 81 77 118h-2c-120 0 -203 71 -203 190v156c0 46 -1 139 -5 173c29 0 77 1 101 4c-2 -21 -3 -79 -3 -107v-198c0 -98 47 -134 122 -134s117 45 117 120v142c0 46 -2 139 -6 173c29 0 78 1 103 4c-3 -21 -4 -79 -4 -107v-188c0 -84 -18 -126 -57 -165 c-20 -20 -42 -35 -77 -55s-89 -60 -89 -113c0 -24 16 -42 47 -42c21 0 40 7 62 21l-5 -62c-21 -14 -49 -20 -73 -20c-64 0 -105 35 -105 90z" glyph-name="uogonek.sc"/>
<glyph horiz-adv-x="756" unicode="Ů" d="M666 708c-4 -29 -5 -109 -5 -148v-268c0 -117 -25 -178 -77 -229c-53 -53 -123 -81 -221 -81c-157 0 -268 99 -268 258v222c0 64 -2 193 -7 241c40 0 76 1 109 5c-3 -29 -4 -109 -4 -148v-288c0 -149 74 -203 189 -203c114 0 181 70 181 182v211c0 64 -2 193 -8 241 c40 0 77 1 111 5zM496 883c0 -64 -48 -117 -121 -117c-71 0 -116 50 -116 106c0 65 48 115 121 115c72 0 116 -48 116 -104zM432 876c0 35 -19 59 -54 59c-36 0 -55 -26 -55 -56c0 -35 22 -60 54 -60c36 0 55 27 55 57z" glyph-name="Uring"/>
<glyph horiz-adv-x="545" unicode="ů" d="M479 0h-85l-11 72c-38 -62 -108 -90 -150 -90c-105 0 -162 57 -162 179v129c0 58 -2 127 -6 170c36 0 72 2 102 5c-3 -26 -4 -72 -4 -107v-179c0 -75 24 -116 94 -116c48 0 123 51 123 111v116c0 58 -2 127 -7 170c36 0 74 2 104 5c-3 -26 -5 -72 -5 -107v-192 c0 -58 2 -120 7 -166zM391 653c0 -64 -48 -117 -121 -117c-71 0 -116 50 -116 106c0 65 48 115 121 115c72 0 116 -48 116 -104zM327 646c0 35 -19 59 -54 59c-36 0 -55 -26 -55 -56c0 -35 22 -60 54 -60c36 0 55 27 55 57z" glyph-name="uring"/>
<glyph horiz-adv-x="575" d="M504 510c-3 -21 -4 -79 -4 -107v-188c0 -84 -19 -130 -58 -168c-39 -39 -93 -60 -164 -60c-120 0 -203 71 -203 190v156c0 46 -1 139 -5 173c29 0 77 1 101 4c-2 -21 -3 -79 -3 -107v-198c0 -98 47 -134 122 -134s117 45 117 120v142c0 46 -2 139 -6 173c29 0 78 1 103 4 zM405 697c0 -64 -48 -117 -121 -117c-71 0 -116 50 -116 106c0 65 48 115 121 115c72 0 116 -48 116 -104zM341 690c0 35 -19 59 -54 59c-36 0 -55 -26 -55 -56c0 -35 22 -60 54 -60c36 0 55 27 55 57z" glyph-name="uring.sc"/>
<glyph horiz-adv-x="990" unicode="Ẃ" d="M984 702l-194 -512c-32 -86 -54 -143 -73 -201l-24 -7l-195 519l-123 -316c-19 -51 -50 -122 -80 -203h-24l-187 515c-23 64 -53 145 -78 204l106 8l178 -516l125 327l71 192l25 7l193 -524l110 316c20 60 43 130 62 191h108zM542 911l131 9l-161 -149l-63 -5z" glyph-name="Wacute"/>
<glyph horiz-adv-x="706" unicode="ẃ" d="M182 -11c-12 47 -34 110 -55 169l-48 128c-22 59 -47 126 -67 169l101 13l103 -317l45 130c24 68 45 131 60 181l67 6l113 -315l41 129c12 37 40 130 53 180c36 0 68 1 98 4l-164 -470l-59 -7c-15 53 -37 120 -63 191l-53 142l-112 -326zM397 681l131 9l-161 -149l-63 -5 z" glyph-name="wacute"/>
<glyph horiz-adv-x="751" d="M736 506l-140 -367c-23 -61 -38 -102 -52 -144l-34 -7l-133 350l-79 -202c-14 -36 -35 -87 -57 -146l-34 -2l-134 369c-16 45 -39 103 -58 147l99 6l121 -341l76 204l50 137l34 6l132 -342l66 194c15 44 30 93 44 138h99zM416 725l131 9l-161 -149l-63 -5z" glyph-name="wacute.sc"/>
<glyph horiz-adv-x="990" unicode="Ŵ" d="M984 702l-194 -512c-32 -86 -54 -143 -73 -201l-24 -7l-195 519l-123 -316c-19 -51 -50 -122 -80 -203h-24l-187 515c-23 64 -53 145 -78 204l106 8l178 -516l125 327l71 192l25 7l193 -524l110 316c20 60 43 130 62 191h108zM449 921h115l96 -152l-68 -6l-87 97l-82 -89 h-80z" glyph-name="Wcircumflex"/>
<glyph horiz-adv-x="706" unicode="ŵ" d="M182 -11c-12 47 -34 110 -55 169l-48 128c-22 59 -47 126 -67 169l101 13l103 -317l45 130c24 68 45 131 60 181l67 6l113 -315l41 129c12 37 40 130 53 180c36 0 68 1 98 4l-164 -470l-59 -7c-15 53 -37 120 -63 191l-53 142l-112 -326zM304 691h115l96 -152l-68 -6 l-87 97l-82 -89h-80z" glyph-name="wcircumflex"/>
<glyph horiz-adv-x="751" d="M736 506l-140 -367c-23 -61 -38 -102 -52 -144l-34 -7l-133 350l-79 -202c-14 -36 -35 -87 -57 -146l-34 -2l-134 369c-16 45 -39 103 -58 147l99 6l121 -341l76 204l50 137l34 6l132 -342l66 194c15 44 30 93 44 138h99zM323 735h115l96 -152l-68 -6l-87 97l-82 -89h-80 z" glyph-name="wcircumflex.sc"/>
<glyph horiz-adv-x="990" unicode="Ẅ" d="M984 702l-194 -512c-32 -86 -54 -143 -73 -201l-24 -7l-195 519l-123 -316c-19 -51 -50 -122 -80 -203h-24l-187 515c-23 64 -53 145 -78 204l106 8l178 -516l125 327l71 192l25 7l193 -524l110 316c20 60 43 130 62 191h108zM470 852c0 -35 -24 -65 -60 -65 c-35 0 -57 29 -57 59c0 35 24 65 60 65c34 0 57 -29 57 -59zM650 852c0 -35 -24 -65 -60 -65c-35 0 -57 29 -57 59c0 35 24 65 60 65c34 0 57 -29 57 -59z" glyph-name="Wdieresis"/>
<glyph horiz-adv-x="706" unicode="ẅ" d="M182 -11c-12 47 -34 110 -55 169l-48 128c-22 59 -47 126 -67 169l101 13l103 -317l45 130c24 68 45 131 60 181l67 6l113 -315l41 129c12 37 40 130 53 180c36 0 68 1 98 4l-164 -470l-59 -7c-15 53 -37 120 -63 191l-53 142l-112 -326zM325 622c0 -35 -24 -65 -60 -65 c-35 0 -57 29 -57 59c0 35 24 65 60 65c34 0 57 -29 57 -59zM505 622c0 -35 -24 -65 -60 -65c-35 0 -57 29 -57 59c0 35 24 65 60 65c34 0 57 -29 57 -59z" glyph-name="wdieresis"/>
<glyph horiz-adv-x="751" d="M736 506l-140 -367c-23 -61 -38 -102 -52 -144l-34 -7l-133 350l-79 -202c-14 -36 -35 -87 -57 -146l-34 -2l-134 369c-16 45 -39 103 -58 147l99 6l121 -341l76 204l50 137l34 6l132 -342l66 194c15 44 30 93 44 138h99zM344 666c0 -35 -24 -65 -60 -65 c-35 0 -57 29 -57 59c0 35 24 65 60 65c34 0 57 -29 57 -59zM524 666c0 -35 -24 -65 -60 -65c-35 0 -57 29 -57 59c0 35 24 65 60 65c34 0 57 -29 57 -59z" glyph-name="wdieresis.sc"/>
<glyph horiz-adv-x="990" unicode="Ẁ" d="M984 702l-194 -512c-32 -86 -54 -143 -73 -201l-24 -7l-195 519l-123 -316c-19 -51 -50 -122 -80 -203h-24l-187 515c-23 64 -53 145 -78 204l106 8l178 -516l125 327l71 192l25 7l193 -524l110 316c20 60 43 130 62 191h108zM341 911l113 9l91 -149l-59 -5z" glyph-name="Wgrave"/>
<glyph horiz-adv-x="706" unicode="ẁ" d="M182 -11c-12 47 -34 110 -55 169l-48 128c-22 59 -47 126 -67 169l101 13l103 -317l45 130c24 68 45 131 60 181l67 6l113 -315l41 129c12 37 40 130 53 180c36 0 68 1 98 4l-164 -470l-59 -7c-15 53 -37 120 -63 191l-53 142l-112 -326zM196 681l113 9l91 -149l-59 -5z " glyph-name="wgrave"/>
<glyph horiz-adv-x="751" d="M736 506l-140 -367c-23 -61 -38 -102 -52 -144l-34 -7l-133 350l-79 -202c-14 -36 -35 -87 -57 -146l-34 -2l-134 369c-16 45 -39 103 -58 147l99 6l121 -341l76 204l50 137l34 6l132 -342l66 194c15 44 30 93 44 138h99zM215 725l113 9l91 -149l-59 -5z" glyph-name="wgrave.sc"/>
<glyph horiz-adv-x="624" unicode="Ý" d="M6 704l110 8l199 -321l60 93c42 63 95 154 136 221h114l-262 -396v-165c0 -38 1 -116 3 -144h-108c5 48 7 176 7 241v63l-106 164c-41 67 -108 170 -153 236zM356 911l131 9l-161 -149l-63 -5z" glyph-name="Yacute"/>
<glyph horiz-adv-x="468" unicode="ý" d="M77 -212l115 262c-14 35 -28 72 -43 108l-58 128c-26 59 -56 126 -79 169l103 13l124 -313l54 132c25 62 46 120 65 175c36 0 73 1 102 4l-224 -529c-14 -36 -41 -96 -57 -145c-35 0 -72 -1 -102 -4zM282 681l131 9l-161 -149l-63 -5z" glyph-name="yacute"/>
<glyph horiz-adv-x="490" d="M13 506l103 6l131 -218l39 62c25 38 67 112 91 151h104l-190 -289v-114c0 -28 1 -84 4 -104h-102c4 35 6 127 6 174v41l-75 119c-25 40 -84 133 -111 172zM288 725l131 9l-161 -149l-63 -5z" glyph-name="yacute.sc"/>
<glyph horiz-adv-x="624" unicode="Ŷ" d="M6 704l110 8l199 -321l60 93c42 63 95 154 136 221h114l-262 -396v-165c0 -38 1 -116 3 -144h-108c5 48 7 176 7 241v63l-106 164c-41 67 -108 170 -153 236zM263 921h115l96 -152l-68 -6l-87 97l-82 -89h-80z" glyph-name="Ycircumflex"/>
<glyph horiz-adv-x="468" unicode="ŷ" d="M77 -212l115 262c-14 35 -28 72 -43 108l-58 128c-26 59 -56 126 -79 169l103 13l124 -313l54 132c25 62 46 120 65 175c36 0 73 1 102 4l-224 -529c-14 -36 -41 -96 -57 -145c-35 0 -72 -1 -102 -4zM189 691h115l96 -152l-68 -6l-87 97l-82 -89h-80z" glyph-name="ycircumflex"/>
<glyph horiz-adv-x="490" d="M13 506l103 6l131 -218l39 62c25 38 67 112 91 151h104l-190 -289v-114c0 -28 1 -84 4 -104h-102c4 35 6 127 6 174v41l-75 119c-25 40 -84 133 -111 172zM195 735h115l96 -152l-68 -6l-87 97l-82 -89h-80z" glyph-name="ycircumflex.sc"/>
<glyph horiz-adv-x="624" unicode="Ÿ" d="M6 704l110 8l199 -321l60 93c42 63 95 154 136 221h114l-262 -396v-165c0 -38 1 -116 3 -144h-108c5 48 7 176 7 241v63l-106 164c-41 67 -108 170 -153 236zM464 852c0 -35 -24 -65 -60 -65c-35 0 -57 29 -57 59c0 35 24 65 60 65c34 0 57 -29 57 -59zM284 852 c0 -35 -24 -65 -60 -65c-35 0 -57 29 -57 59c0 35 24 65 60 65c34 0 57 -29 57 -59z" glyph-name="Ydieresis"/>
<glyph horiz-adv-x="468" unicode="ÿ" d="M77 -212l115 262c-14 35 -28 72 -43 108l-58 128c-26 59 -56 126 -79 169l103 13l124 -313l54 132c25 62 46 120 65 175c36 0 73 1 102 4l-224 -529c-14 -36 -41 -96 -57 -145c-35 0 -72 -1 -102 -4zM390 622c0 -35 -24 -65 -60 -65c-35 0 -57 29 -57 59 c0 35 24 65 60 65c34 0 57 -29 57 -59zM210 622c0 -35 -24 -65 -60 -65c-35 0 -57 29 -57 59c0 35 24 65 60 65c34 0 57 -29 57 -59z" glyph-name="ydieresis"/>
<glyph horiz-adv-x="490" d="M13 506l103 6l131 -218l39 62c25 38 67 112 91 151h104l-190 -289v-114c0 -28 1 -84 4 -104h-102c4 35 6 127 6 174v41l-75 119c-25 40 -84 133 -111 172zM396 666c0 -35 -24 -65 -60 -65c-35 0 -57 29 -57 59c0 35 24 65 60 65c34 0 57 -29 57 -59zM216 666 c0 -35 -24 -65 -60 -65c-35 0 -57 29 -57 59c0 35 24 65 60 65c34 0 57 -29 57 -59z" glyph-name="ydieresis.sc"/>
<glyph horiz-adv-x="624" unicode="Ỳ" d="M6 704l110 8l199 -321l60 93c42 63 95 154 136 221h114l-262 -396v-165c0 -38 1 -116 3 -144h-108c5 48 7 176 7 241v63l-106 164c-41 67 -108 170 -153 236zM155 911l113 9l91 -149l-59 -5z" glyph-name="Ygrave"/>
<glyph horiz-adv-x="468" unicode="ỳ" d="M77 -212l115 262c-14 35 -28 72 -43 108l-58 128c-26 59 -56 126 -79 169l103 13l124 -313l54 132c25 62 46 120 65 175c36 0 73 1 102 4l-224 -529c-14 -36 -41 -96 -57 -145c-35 0 -72 -1 -102 -4zM81 681l113 9l91 -149l-59 -5z" glyph-name="ygrave"/>
<glyph horiz-adv-x="490" d="M13 506l103 6l131 -218l39 62c25 38 67 112 91 151h104l-190 -289v-114c0 -28 1 -84 4 -104h-102c4 35 6 127 6 174v41l-75 119c-25 40 -84 133 -111 172zM87 725l113 9l91 -149l-59 -5z" glyph-name="ygrave.sc"/>
<glyph horiz-adv-x="634" unicode="Ź" d="M591 709l19 -18l-430 -609c38 0 95 -1 134 -1c102 0 207 1 274 3c-5 -28 -7 -56 -8 -88c-57 4 -169 5 -258 5c-109 0 -209 -1 -278 -5l-20 19l430 608c-43 1 -79 1 -128 1c-98 0 -182 -1 -257 -2c3 25 4 56 4 87c89 -3 135 -5 254 -5s201 2 264 5zM381 911l131 9 l-161 -149l-63 -5z" glyph-name="Zacute"/>
<glyph horiz-adv-x="459" unicode="ź" d="M422 466l13 -23l-267 -366c60 0 190 0 258 2c-5 -29 -7 -51 -8 -84c-59 3 -121 5 -191 5c-71 0 -126 -2 -186 -5l-13 23l266 368c-89 0 -165 -1 -241 -2c2 26 4 51 4 82c64 -2 87 -3 164 -3c78 0 136 1 201 3zM285 681l131 9l-161 -149l-63 -5z" glyph-name="zacute"/>
<glyph horiz-adv-x="489" d="M446 510l19 -18l-294 -414c22 -1 69 -1 92 -1c68 0 137 1 182 2c-3 -25 -5 -53 -6 -82c-42 3 -124 4 -191 4c-80 0 -152 -1 -204 -4l-20 19l295 414c-24 1 -58 1 -86 1c-68 0 -122 -1 -174 -2c2 23 3 55 3 81c68 -2 100 -3 191 -3c88 0 145 1 193 3zM302 725l131 9 l-161 -149l-63 -5z" glyph-name="zacute.sc"/>
<glyph horiz-adv-x="634" unicode="Ž" d="M591 709l19 -18l-430 -609c38 0 95 -1 134 -1c102 0 207 1 274 3c-5 -28 -7 -56 -8 -88c-57 4 -169 5 -258 5c-109 0 -209 -1 -278 -5l-20 19l430 608c-43 1 -79 1 -128 1c-98 0 -182 -1 -257 -2c3 25 4 56 4 87c89 -3 135 -5 254 -5s201 2 264 5zM395 772h-115l-98 149 l71 6l86 -94l83 89h77z" glyph-name="Zcaron"/>
<glyph horiz-adv-x="459" unicode="ž" d="M422 466l13 -23l-267 -366c60 0 190 0 258 2c-5 -29 -7 -51 -8 -84c-59 3 -121 5 -191 5c-71 0 -126 -2 -186 -5l-13 23l266 368c-89 0 -165 -1 -241 -2c2 26 4 51 4 82c64 -2 87 -3 164 -3c78 0 136 1 201 3zM299 542h-115l-98 149l71 6l86 -94l83 89h77z" glyph-name="zcaron"/>
<glyph horiz-adv-x="489" d="M446 510l19 -18l-294 -414c22 -1 69 -1 92 -1c68 0 137 1 182 2c-3 -25 -5 -53 -6 -82c-42 3 -124 4 -191 4c-80 0 -152 -1 -204 -4l-20 19l295 414c-24 1 -58 1 -86 1c-68 0 -122 -1 -174 -2c2 23 3 55 3 81c68 -2 100 -3 191 -3c88 0 145 1 193 3zM316 586h-115 l-98 149l71 6l86 -94l83 89h77z" glyph-name="zcaron.sc"/>
<glyph horiz-adv-x="634" unicode="Ż" d="M591 709l19 -18l-430 -609c38 0 95 -1 134 -1c102 0 207 1 274 3c-5 -28 -7 -56 -8 -88c-57 4 -169 5 -258 5c-109 0 -209 -1 -278 -5l-20 19l430 608c-43 1 -79 1 -128 1c-98 0 -182 -1 -257 -2c3 25 4 56 4 87c89 -3 135 -5 254 -5s201 2 264 5zM399 852 c0 -35 -24 -65 -60 -65c-35 0 -57 29 -57 59c0 35 24 65 60 65c34 0 57 -29 57 -59z" glyph-name="Zdotaccent"/>
<glyph horiz-adv-x="459" unicode="ż" d="M422 466l13 -23l-267 -366c60 0 190 0 258 2c-5 -29 -7 -51 -8 -84c-59 3 -121 5 -191 5c-71 0 -126 -2 -186 -5l-13 23l266 368c-89 0 -165 -1 -241 -2c2 26 4 51 4 82c64 -2 87 -3 164 -3c78 0 136 1 201 3zM303 622c0 -35 -24 -65 -60 -65c-35 0 -57 29 -57 59 c0 35 24 65 60 65c34 0 57 -29 57 -59z" glyph-name="zdotaccent"/>
<glyph horiz-adv-x="489" d="M446 510l19 -18l-294 -414c22 -1 69 -1 92 -1c68 0 137 1 182 2c-3 -25 -5 -53 -6 -82c-42 3 -124 4 -191 4c-80 0 -152 -1 -204 -4l-20 19l295 414c-24 1 -58 1 -86 1c-68 0 -122 -1 -174 -2c2 23 3 55 3 81c68 -2 100 -3 191 -3c88 0 145 1 193 3zM320 666 c0 -35 -24 -65 -60 -65c-35 0 -57 29 -57 59c0 35 24 65 60 65c34 0 57 -29 57 -59z" glyph-name="zdotaccent.sc"/>
<glyph horiz-adv-x="888" unicode="Æ" d="M-15 0l313 512c52 84 87 140 117 197c59 -3 153 -5 224 -5s139 2 199 5c-5 -29 -7 -56 -8 -89c-59 1 -120 2 -191 2c-30 0 -60 0 -89 -1c-2 -18 -2 -44 -2 -59v-151l243 2c-2 -25 -3 -56 -3 -86l-240 2v-185c0 -15 0 -42 2 -60c29 0 59 -1 89 -1c81 0 151 1 219 3 c-4 -29 -6 -57 -7 -90c-60 4 -134 5 -205 5s-146 -1 -205 -5c4 40 6 135 7 203h-240l-4 -7c-35 -59 -74 -130 -108 -192h-111zM448 468c0 27 0 78 -1 124l-190 -311h191v187z" glyph-name="AE"/>
<glyph horiz-adv-x="770" unicode="æ" d="M735 247l-60 -36l-268 -8c7 -93 52 -140 141 -140c70 0 120 31 165 68l-4 -94c-51 -34 -104 -55 -170 -55c-97 0 -153 42 -182 105c-35 -61 -86 -101 -171 -101c-90 0 -151 56 -151 138c0 90 79 151 233 151c16 0 35 -1 53 -1l1 15c3 68 -29 104 -99 104 c-46 0 -97 -20 -129 -44l-21 80c50 29 105 45 161 45c76 0 124 -31 146 -84c35 52 89 84 160 84c136 0 195 -102 195 -227zM198 60c71 0 116 62 120 134l1 21c-19 0 -37 1 -54 1c-103 0 -141 -37 -141 -87c0 -38 23 -69 74 -69zM409 272l240 7c-10 77 -43 118 -112 118 c-65 0 -115 -57 -128 -125z" glyph-name="ae"/>
<glyph horiz-adv-x="688" d="M99 0h-102l226 369c38 63 60 100 82 141c52 -2 98 -3 161 -3c62 0 121 1 172 3c-4 -25 -6 -53 -6 -82c-41 1 -85 1 -134 1h-65c-1 -13 -1 -26 -1 -36v-90l172 2c-2 -22 -2 -53 -2 -79l-170 1v-112c0 -10 0 -24 1 -36c21 0 44 -1 65 -1c56 0 107 1 154 3 c-3 -26 -4 -54 -5 -84c-45 3 -102 4 -154 4c-55 0 -113 -1 -159 -4c3 25 4 82 5 129h-168c-24 -39 -50 -86 -72 -126zM339 336c0 17 0 45 -1 71l-126 -210h127v139z" glyph-name="ae.sc"/>
<glyph horiz-adv-x="888" unicode="Ǽ" d="M-15 0l313 512c52 84 87 140 117 197c59 -3 153 -5 224 -5s139 2 199 5c-5 -29 -7 -56 -8 -89c-59 1 -120 2 -191 2c-30 0 -60 0 -89 -1c-2 -18 -2 -44 -2 -59v-151l243 2c-2 -25 -3 -56 -3 -86l-240 2v-185c0 -15 0 -42 2 -60c29 0 59 -1 89 -1c81 0 151 1 219 3 c-4 -29 -6 -57 -7 -90c-60 4 -134 5 -205 5s-146 -1 -205 -5c4 40 6 135 7 203h-240l-4 -7c-35 -59 -74 -130 -108 -192h-111zM448 468c0 27 0 78 -1 124l-190 -311h191v187zM598 911l131 9l-161 -149l-63 -5z" glyph-name="AEacute"/>
<glyph horiz-adv-x="770" unicode="ǽ" d="M735 247l-60 -36l-268 -8c7 -93 52 -140 141 -140c70 0 120 31 165 68l-4 -94c-51 -34 -104 -55 -170 -55c-97 0 -153 42 -182 105c-35 -61 -86 -101 -171 -101c-90 0 -151 56 -151 138c0 90 79 151 233 151c16 0 35 -1 53 -1l1 15c3 68 -29 104 -99 104 c-46 0 -97 -20 -129 -44l-21 80c50 29 105 45 161 45c76 0 124 -31 146 -84c35 52 89 84 160 84c136 0 195 -102 195 -227zM198 60c71 0 116 62 120 134l1 21c-19 0 -37 1 -54 1c-103 0 -141 -37 -141 -87c0 -38 23 -69 74 -69zM409 272l240 7c-10 77 -43 118 -112 118 c-65 0 -115 -57 -128 -125zM426 681l131 9l-161 -149l-63 -5z" glyph-name="aeacute"/>
<glyph horiz-adv-x="688" d="M99 0h-102l226 369c38 63 60 100 82 141c52 -2 98 -3 161 -3c62 0 121 1 172 3c-4 -25 -6 -53 -6 -82c-41 1 -85 1 -134 1h-65c-1 -13 -1 -26 -1 -36v-90l172 2c-2 -22 -2 -53 -2 -79l-170 1v-112c0 -10 0 -24 1 -36c21 0 44 -1 65 -1c56 0 107 1 154 3 c-3 -26 -4 -54 -5 -84c-45 3 -102 4 -154 4c-55 0 -113 -1 -159 -4c3 25 4 82 5 129h-168c-24 -39 -50 -86 -72 -126zM339 336c0 17 0 45 -1 71l-126 -210h127v139zM469 725l131 9l-161 -149l-63 -5z" glyph-name="aeacute.sc"/>
<glyph horiz-adv-x="937" unicode="Œ" d="M404 -2c-189 0 -349 154 -349 344c0 219 171 364 369 364c59 0 193 -2 264 -2s139 2 199 5c-5 -29 -7 -56 -8 -89c-59 1 -120 2 -191 2c-30 0 -60 0 -89 -1c-2 -18 -2 -44 -2 -59v-151l243 2c-2 -25 -3 -56 -3 -86l-240 2v-185c0 -15 0 -42 2 -60c29 0 59 -1 89 -1 c81 0 151 1 219 3c-4 -29 -6 -57 -7 -90c-60 4 -134 5 -205 5s-232 -3 -291 -3zM414 87c32 0 58 0 80 2c2 52 3 116 3 148v231c0 37 0 93 -2 145c-26 3 -38 3 -65 3c-165 0 -273 -107 -273 -250c0 -172 111 -279 257 -279z" glyph-name="OE"/>
<glyph horiz-adv-x="868" unicode="œ" d="M833 247l-60 -36l-273 -8c7 -93 55 -140 144 -140c70 0 122 31 167 68l-4 -94c-51 -34 -106 -55 -172 -55c-95 0 -157 41 -191 102c-39 -62 -103 -102 -185 -102c-136 0 -219 109 -219 234c0 144 90 258 232 258c83 0 146 -42 181 -105c38 64 103 105 188 105 c136 0 192 -102 192 -227zM402 227c0 107 -58 166 -134 166c-85 0 -138 -72 -138 -162c0 -111 52 -168 134 -168c88 0 138 73 138 164zM502 272l245 7c-10 77 -42 118 -111 118c-74 0 -121 -54 -134 -125z" glyph-name="oe"/>
<glyph horiz-adv-x="727" d="M311 510c47 0 148 -3 204 -3c58 0 114 1 162 3c-4 -25 -6 -53 -6 -82c-41 1 -85 1 -134 1h-65c-1 -13 -1 -26 -1 -36v-90l172 2c-2 -22 -2 -53 -2 -79l-170 1v-112c0 -10 0 -24 1 -36c21 0 44 -1 65 -1c56 0 107 1 154 3c-3 -26 -4 -54 -5 -84c-45 3 -102 4 -154 4 c-50 0 -164 -1 -206 -1c-182 0 -280 105 -280 243c0 158 106 267 265 267zM139 251c0 -101 66 -171 183 -171c20 0 35 1 54 2c1 12 1 32 1 42v265c0 11 0 24 -1 37c-20 2 -32 4 -56 4c-130 0 -181 -84 -181 -179z" glyph-name="oe.sc"/>
<glyph horiz-adv-x="728" unicode="Ð" d="M674 373c0 -218 -146 -373 -363 -373h-212c5 48 7 176 7 241v74l-81 -2c2 21 3 60 3 85l78 -3v67c0 64 -2 193 -7 241c36 0 100 5 195 5c249 0 380 -154 380 -335zM573 360c0 158 -99 263 -281 263c-32 0 -60 -1 -87 -3c-1 -18 -1 -46 -1 -62v-163c46 0 104 1 150 3 c-3 -23 -5 -59 -5 -85c-42 1 -83 2 -123 2h-22v-169c0 -17 0 -36 1 -56c30 -3 53 -5 90 -5c201 0 278 127 278 275z" glyph-name="Eth"/>
<glyph horiz-adv-x="539" unicode="ð" d="M262 -18c-136 0 -222 108 -222 234c0 149 97 258 225 258c59 0 107 -25 138 -65c-23 64 -60 119 -104 164l-5 -2c-35 -20 -81 -48 -125 -74c-14 17 -40 41 -57 54l131 71c-38 29 -80 52 -122 68l85 42c39 -18 76 -40 110 -68c40 24 65 39 111 68c15 -17 40 -42 55 -57 c-36 -18 -71 -37 -112 -60c78 -84 131 -199 132 -340c1 -181 -98 -293 -240 -293zM412 234c0 98 -64 159 -139 159c-87 0 -143 -77 -143 -164c0 -96 59 -166 139 -166c84 0 143 77 143 171z" glyph-name="eth"/>
<glyph horiz-adv-x="553" d="M506 267c0 -158 -106 -267 -265 -267h-165c4 35 5 127 5 174v45l-69 -2c2 20 3 55 3 79l66 -3v40c0 46 -1 138 -5 173c26 0 78 4 150 4c182 0 280 -105 280 -243zM413 259c0 101 -66 171 -183 171c-20 0 -35 -1 -54 -2c-1 -12 -1 -32 -1 -42v-93c34 0 74 1 107 3 c-3 -22 -5 -54 -5 -79c-33 1 -65 2 -97 2h-5v-98c0 -11 0 -24 1 -37c20 -2 32 -4 56 -4c130 0 181 84 181 179z" glyph-name="eth.sc"/>
<glyph horiz-adv-x="594" unicode="Þ" d="M105 462c0 64 -2 193 -7 241c40 0 78 1 111 5c-3 -29 -4 -137 -4 -137c30 2 60 3 80 3c171 0 267 -94 267 -203c0 -135 -88 -244 -296 -244c-17 0 -32 1 -51 2c0 0 1 -101 4 -129h-111c5 48 7 176 7 241v221zM205 212c19 -2 34 -3 52 -3c115 0 192 48 192 141 c0 81 -57 134 -165 134c-32 0 -53 -1 -79 -2v-270z" glyph-name="Thorn"/>
<glyph horiz-adv-x="550" unicode="þ" d="M165 336v-228c24 -28 60 -47 116 -47c83 0 138 82 138 175c0 96 -46 157 -133 157c-44 0 -91 -23 -121 -57zM73 -45v591c0 58 -2 122 -7 165c36 3 73 8 103 13c-3 -26 -4 -74 -4 -109v-197c38 33 89 56 145 56c117 0 201 -91 201 -227c0 -164 -122 -265 -228 -265 c-46 0 -92 16 -118 38v-132c0 -34 1 -68 4 -93l-103 -9c5 43 7 111 7 169z" glyph-name="thorn"/>
<glyph horiz-adv-x="484" d="M175 340c-1 -15 -1 -29 -1 -39v-137c12 -2 34 -2 46 -2c76 0 132 30 132 91c0 56 -41 88 -122 88c-21 0 -36 0 -55 -1zM175 421c19 1 40 1 60 1c134 0 209 -66 209 -163c0 -98 -75 -172 -225 -172c-11 0 -33 0 -44 1c0 -25 1 -70 3 -88h-102c4 35 5 127 5 174v159 c0 46 -1 139 -5 173c29 0 78 1 102 4c-3 -18 -3 -59 -3 -89z" glyph-name="thorn.sc"/>
<glyph horiz-adv-x="500" unicode="ə" d="M35 209l60 36l273 8c-7 93 -55 140 -144 140c-70 0 -122 -31 -167 -68l4 94c51 34 106 55 172 55c154 0 227 -109 227 -234c0 -144 -91 -258 -233 -258c-136 0 -192 102 -192 227zM366 184l-245 -7c10 -77 42 -118 111 -118c74 0 121 54 134 125z" glyph-name="schwa"/>
<glyph horiz-adv-x="501" unicode="ß" d="M66 0c5 43 7 105 7 163v322c0 159 75 238 191 238c97 0 166 -66 166 -146c0 -120 -106 -152 -106 -193c0 -17 7 -24 48 -58c51 -42 104 -91 104 -166c0 -77 -64 -164 -180 -164c-18 0 -37 2 -58 7l-9 83c21 -6 41 -9 59 -9c62 0 98 35 98 77c0 92 -158 133 -158 221 c0 57 112 99 112 185c0 50 -35 82 -80 82c-50 0 -92 -42 -95 -128v-417c0 -35 1 -72 4 -97h-103z" glyph-name="germandbls"/>
<glyph horiz-adv-x="593" unicode="0" d="M542 261c0 -156 -97 -280 -253 -280c-149 0 -238 118 -238 254c0 155 97 279 253 279c149 0 238 -117 238 -253zM448 245c0 115 -57 187 -148 187c-101 0 -155 -89 -155 -182c0 -115 58 -187 149 -187c100 0 154 89 154 182z" glyph-name="zero"/>
<glyph horiz-adv-x="362" unicode="1" d="M255 0h-100c4 34 5 127 5 173v234l-108 -27l-15 82c57 14 115 29 150 40l55 15l13 -10c-3 -27 -3 -73 -3 -109v-294c0 -28 1 -83 3 -104z" glyph-name="one"/>
<glyph horiz-adv-x="319" d="M210 0h-103c5 44 7 108 7 169v161c0 59 -2 130 -7 175c37 0 72 2 103 5c-3 -27 -4 -74 -4 -110v-300c0 -36 1 -73 4 -100z" glyph-name="one.alt"/>
<glyph horiz-adv-x="493" unicode="2" d="M447 85c-4 -30 -6 -55 -8 -89c-61 3 -118 4 -190 4c-73 0 -130 -1 -192 -4l-15 65c221 168 286 228 286 293c0 50 -36 79 -93 79c-42 0 -91 -18 -139 -58l-28 79c49 38 114 61 173 61c98 0 180 -59 180 -153c0 -66 -38 -121 -100 -176c-34 -30 -91 -75 -131 -105 c84 0 187 1 257 4z" glyph-name="two"/>
<glyph horiz-adv-x="480" unicode="3" d="M420 30c0 -110 -102 -190 -244 -190c-40 0 -85 5 -129 17l-14 83c46 -11 91 -18 129 -18c92 0 164 34 164 110c0 61 -67 112 -199 104l-13 67c144 48 200 91 200 150c0 43 -33 80 -101 80c-46 0 -102 -21 -138 -50l-31 76c53 35 116 56 173 56c115 0 190 -66 190 -151 c0 -88 -59 -135 -151 -173c90 -13 164 -64 164 -161z" glyph-name="three"/>
<glyph horiz-adv-x="538" unicode="4" d="M318 -157c4 34 5 117 5 163v36h-52c-73 0 -174 -1 -236 -4l-18 63l252 323l72 95l74 -7c-2 -27 -3 -73 -3 -109v-287c43 0 81 1 105 2c-5 -30 -7 -46 -8 -80l-97 3v-83c0 -28 1 -94 3 -115h-97zM127 116h196v256z" glyph-name="four"/>
<glyph horiz-adv-x="487" unicode="5" d="M55 -152l-14 83c24 -5 55 -8 81 -8c125 0 219 48 219 133c0 69 -56 104 -134 104c-49 0 -80 -6 -118 -14l-24 15c3 32 5 76 6 115l4 119c1 34 3 65 0 99l14 13c66 -2 95 -3 172 -3c74 0 96 1 167 3c-6 -21 -10 -66 -12 -90c-50 1 -79 2 -155 2h-99l-6 -181 c21 3 41 5 61 5c148 0 218 -74 218 -179c0 -144 -134 -224 -298 -224c-31 0 -62 3 -82 8z" glyph-name="five"/>
<glyph horiz-adv-x="553" unicode="6" d="M470 596c-191 -32 -281 -124 -311 -241c37 33 84 60 152 60c123 0 192 -98 192 -202c0 -129 -90 -231 -226 -231c-139 0 -225 107 -225 264c0 191 120 390 401 432zM282 338c-52 0 -105 -28 -135 -53c-1 -12 -1 -24 -1 -36c0 -123 54 -186 139 -186c78 0 124 64 124 142 c0 83 -49 133 -127 133z" glyph-name="six"/>
<glyph horiz-adv-x="496" unicode="7" d="M443 507l22 -41c-15 -23 -43 -84 -59 -117l-186 -390c-12 -25 -51 -110 -57 -130l-84 44c24 42 64 117 85 163l181 383h-129c-71 0 -120 0 -181 -1c2 24 7 68 7 89c73 -2 100 -3 188 -3c87 0 140 1 213 3z" glyph-name="seven"/>
<glyph horiz-adv-x="532" unicode="8" d="M50 162c0 83 54 145 132 175c-59 29 -108 82 -108 158c0 101 86 183 202 183c112 0 193 -82 193 -174c0 -75 -43 -121 -110 -158c78 -41 123 -97 123 -164c0 -116 -87 -200 -218 -200c-125 0 -214 78 -214 180zM389 172c0 59 -40 98 -124 134c-78 -32 -122 -73 -122 -138 c0 -68 61 -108 129 -108c74 0 117 50 117 112zM166 495c0 -52 40 -87 112 -116c66 25 99 72 99 120c0 63 -45 102 -105 102c-65 0 -106 -45 -106 -106z" glyph-name="eight"/>
<glyph horiz-adv-x="555" unicode="9" d="M91 -96c167 44 262 112 298 223c-43 -26 -91 -44 -144 -44c-108 0 -194 87 -194 204c0 127 90 228 226 228s222 -97 222 -258c0 -214 -106 -355 -369 -428zM273 161c48 0 92 13 130 36c2 17 3 35 3 54c0 121 -47 182 -132 182c-77 0 -128 -63 -128 -139 c0 -80 50 -133 127 -133z" glyph-name="nine"/>
<glyph horiz-adv-x="622" d="M316 703c160 0 249 -152 249 -349c0 -216 -100 -372 -261 -372c-159 0 -247 152 -247 349c0 216 100 372 259 372zM311 65c100 0 158 130 158 273c0 180 -63 282 -158 282c-99 0 -158 -129 -158 -273c0 -180 64 -282 158 -282z" glyph-name="zero.lin"/>
<glyph horiz-adv-x="404" d="M272 703l12 -9c-3 -27 -3 -72 -3 -107v-486c0 -27 1 -80 3 -101h-101c4 33 5 123 5 169v418l-147 -46l-21 81c68 20 137 43 179 57z" glyph-name="one.lin"/>
<glyph horiz-adv-x="564" d="M183 84c105 0 229 1 320 4c-3 -30 -5 -59 -7 -92c-69 3 -131 4 -213 4c-87 0 -157 -1 -228 -4l-13 65c233 227 345 326 345 439c0 67 -47 112 -122 112c-50 0 -105 -19 -164 -69l-33 81c58 46 134 76 205 76c123 0 210 -71 210 -188c0 -103 -64 -179 -143 -268 c-41 -46 -106 -113 -157 -160z" glyph-name="two.lin"/>
<glyph horiz-adv-x="531" d="M60 11l-16 93c57 -19 113 -32 172 -32c96 0 157 40 157 102c0 74 -72 126 -233 131l-12 68c157 33 233 96 233 157c0 43 -40 83 -119 83c-52 0 -114 -22 -153 -54l-33 80c58 38 127 61 192 61c127 0 210 -72 210 -160c0 -91 -69 -146 -170 -181c127 -28 183 -90 183 -174 c0 -117 -101 -201 -246 -201c-53 0 -111 7 -165 27z" glyph-name="three.lin"/>
<glyph horiz-adv-x="584" d="M356 0c4 34 5 121 5 168v14h-46c-83 0 -201 -1 -272 -4l-21 62l292 362l78 99l63 -6c-2 -29 -3 -79 -3 -115v-322c43 0 82 1 106 2c-5 -32 -7 -47 -8 -82l-98 3v-62c0 -28 1 -97 3 -119h-99zM137 258h224v274z" glyph-name="four.lin"/>
<glyph horiz-adv-x="537" d="M479 199c0 -123 -96 -215 -243 -215c-52 0 -110 7 -163 27l-16 92c56 -19 117 -32 175 -32c96 0 152 61 152 124c0 82 -69 131 -201 131c-24 0 -54 -3 -81 -6l-14 7c3 35 5 74 6 115l4 123c1 37 4 70 0 106l16 15c74 -2 80 -3 170 -3c87 0 102 1 178 3 c-6 -23 -11 -70 -13 -95c-53 1 -85 2 -165 2h-94l-7 -185c11 0 27 1 38 1c176 0 258 -96 258 -210z" glyph-name="five.lin"/>
<glyph horiz-adv-x="560" d="M459 626c-184 -35 -281 -133 -315 -264c39 46 97 77 164 77c111 0 208 -91 208 -218c0 -133 -97 -239 -236 -239c-142 0 -230 105 -230 275c0 227 120 402 387 451zM420 217c0 84 -59 140 -139 140c-71 0 -134 -59 -134 -144s58 -148 139 -148c79 0 134 66 134 152z" glyph-name="six.lin"/>
<glyph horiz-adv-x="536" d="M47 686c77 -2 115 -3 207 -3c91 0 149 1 225 3l23 -43c-15 -25 -44 -88 -61 -123l-195 -393c-18 -34 -55 -113 -63 -135l-105 14c26 44 63 115 91 170l207 417h-137c-74 0 -135 0 -199 -1c2 24 7 72 7 94z" glyph-name="seven.lin"/>
<glyph horiz-adv-x="576" d="M56 167c0 89 61 153 153 185c-72 30 -129 86 -129 163c0 104 92 188 219 188c124 0 209 -84 209 -178c0 -77 -49 -127 -130 -166c92 -43 142 -102 142 -181c0 -111 -93 -196 -233 -196c-139 0 -231 83 -231 185zM424 174c0 65 -43 107 -136 143 c-86 -32 -136 -75 -136 -143c0 -69 64 -112 143 -112c78 0 129 50 129 112zM175 519c0 -55 47 -95 127 -125c71 26 111 76 111 125c0 64 -52 104 -119 104c-72 0 -119 -45 -119 -104z" glyph-name="eight.lin"/>
<glyph horiz-adv-x="560" d="M101 58c184 34 281 133 314 264c-38 -47 -97 -77 -163 -77c-111 0 -208 91 -208 218c0 133 97 239 236 239c142 0 230 -105 230 -275c0 -227 -120 -402 -387 -451zM140 467c0 -84 59 -140 139 -140c71 0 134 59 134 144s-58 148 -139 148c-79 0 -134 -66 -134 -152z" glyph-name="nine.lin"/>
<glyph horiz-adv-x="232" unicode="." d="M177 49c0 -36 -26 -67 -63 -67c-36 0 -59 30 -59 61c0 37 25 67 62 67c35 0 60 -29 60 -61z" glyph-name="period"/>
<glyph horiz-adv-x="233" unicode="," d="M45 -192l-29 47c65 39 96 73 96 118c0 24 -13 47 -53 67l-16 8c15 45 46 65 75 65c40 0 78 -36 78 -95c0 -76 -54 -145 -151 -210z" glyph-name="comma"/>
<glyph horiz-adv-x="232" unicode=":" d="M177 49c0 -36 -26 -67 -63 -67c-36 0 -59 30 -59 61c0 37 25 67 62 67c35 0 60 -29 60 -61zM177 351c0 -36 -26 -67 -63 -67c-36 0 -59 30 -59 61c0 37 25 67 62 67c35 0 60 -29 60 -61z" glyph-name="colon"/>
<glyph horiz-adv-x="233" unicode=";" d="M45 -192l-29 47c65 39 96 73 96 118c0 24 -14 47 -53 67l-16 8c15 45 46 65 75 65c40 0 78 -36 78 -95c0 -76 -54 -145 -151 -210zM179 351c0 -36 -26 -67 -63 -67c-36 0 -59 30 -59 61c0 37 25 67 62 67c35 0 60 -29 60 -61z" glyph-name="semicolon"/>
<glyph horiz-adv-x="728" unicode="…" d="M177 49c0 -36 -26 -67 -63 -67c-36 0 -59 30 -59 61c0 37 25 67 62 67c35 0 60 -29 60 -61zM425 49c0 -36 -26 -67 -63 -67c-36 0 -59 30 -59 61c0 37 25 67 62 67c35 0 60 -29 60 -61zM673 49c0 -36 -26 -67 -63 -67c-36 0 -59 30 -59 61c0 37 25 67 62 67 c35 0 60 -29 60 -61z" glyph-name="ellipsis"/>
<glyph horiz-adv-x="233" unicode="·" d="M182 351c0 -36 -26 -67 -63 -67c-36 0 -59 30 -59 61c0 37 25 67 62 67c35 0 60 -29 60 -61z" glyph-name="periodcentered"/>
<glyph horiz-adv-x="703" unicode="&amp;" d="M264 -18c-117 0 -217 70 -217 192c0 87 61 155 167 200c-28 45 -46 86 -46 130c0 103 81 168 177 168c108 0 159 -78 159 -146s-34 -127 -156 -184c38 -49 82 -95 144 -149c40 41 76 85 110 131l66 -54c-38 -47 -76 -90 -114 -129c36 -30 76 -63 122 -96l-61 -70 c-41 38 -82 73 -123 107c-76 -62 -153 -100 -228 -100zM272 67c57 0 109 26 159 69c-66 55 -121 105 -171 173c-68 -30 -116 -73 -116 -131c0 -60 43 -111 128 -111zM261 506c0 -33 14 -66 41 -103c81 36 111 78 111 119c0 44 -29 74 -72 74c-41 0 -80 -33 -80 -90z" glyph-name="ampersand"/>
<glyph horiz-adv-x="252" unicode="!" d="M187 717c-3 -29 -7 -77 -8 -103l-15 -308c-2 -42 -4 -70 -4 -94l-66 -5c0 34 -3 79 -6 160l-7 201c-1 42 -6 103 -10 140c30 2 87 6 116 9zM187 49c0 -36 -26 -67 -63 -67c-36 0 -59 30 -59 61c0 37 25 67 62 67c35 0 60 -29 60 -61z" glyph-name="exclam"/>
<glyph horiz-adv-x="252" unicode="¡" d="M67 -15c3 29 7 77 8 103l15 308c2 42 4 70 4 94l66 5c0 -34 3 -79 6 -160l7 -201c1 -42 6 -103 10 -140c-30 -2 -87 -6 -116 -9zM67 653c0 36 26 67 63 67c36 0 59 -30 59 -61c0 -37 -25 -67 -62 -67c-35 0 -60 29 -60 61z" glyph-name="exclamdown"/>
<glyph horiz-adv-x="453" unicode="?" d="M421 562c0 -153 -248 -148 -248 -235c0 -34 25 -53 70 -53c23 0 51 5 73 14l18 -87c-23 -7 -56 -13 -90 -13c-102 0 -166 53 -166 135c0 151 249 140 249 237c0 46 -37 73 -103 73c-55 0 -123 -20 -169 -56l-5 96c40 28 118 47 173 47c120 0 198 -62 198 -158zM261 51 c0 -37 -27 -69 -66 -69c-38 0 -62 31 -62 63c0 38 26 69 65 69c37 0 63 -30 63 -63z" glyph-name="question"/>
<glyph horiz-adv-x="453" unicode="¿" d="M32 140c0 153 248 148 248 235c0 34 -25 53 -70 53c-23 0 -51 -5 -73 -14l-18 87c23 7 56 13 90 13c102 0 166 -53 166 -135c0 -151 -249 -140 -249 -237c0 -46 37 -73 103 -73c55 0 123 20 169 56l5 -96c-40 -28 -118 -47 -173 -47c-120 0 -198 62 -198 158zM192 651 c0 37 27 69 66 69c38 0 62 -31 62 -63c0 -38 -26 -69 -65 -69c-37 0 -63 30 -63 63z" glyph-name="questiondown"/>
<glyph horiz-adv-x="435" unicode="“" d="M384 729l29 -47c-65 -39 -96 -73 -96 -118c0 -24 13 -47 53 -67l16 -8c-15 -45 -46 -65 -75 -65c-40 0 -78 36 -78 95c0 76 54 145 151 210zM174 729l29 -47c-65 -39 -96 -73 -96 -118c0 -24 13 -47 53 -67l16 -8c-15 -45 -46 -65 -75 -65c-40 0 -78 36 -78 95 c0 76 54 145 151 210z" glyph-name="quotedblleft"/>
<glyph horiz-adv-x="435" unicode="”" d="M51 415l-29 47c65 39 96 73 96 118c0 24 -13 47 -53 67l-16 8c15 45 46 65 75 65c40 0 78 -36 78 -95c0 -76 -54 -145 -151 -210zM261 415l-29 47c65 39 96 73 96 118c0 24 -13 47 -53 67l-16 8c15 45 46 65 75 65c40 0 78 -36 78 -95c0 -76 -54 -145 -151 -210z" glyph-name="quotedblright"/>
<glyph horiz-adv-x="225" unicode="‘" d="M174 729l29 -47c-65 -39 -96 -73 -96 -118c0 -24 13 -47 53 -67l16 -8c-15 -45 -46 -65 -75 -65c-40 0 -78 36 -78 95c0 76 54 145 151 210z" glyph-name="quoteleft"/>
<glyph horiz-adv-x="225" unicode="’" d="M51 415l-29 47c65 39 96 73 96 118c0 24 -13 47 -53 67l-16 8c15 45 46 65 75 65c40 0 78 -36 78 -95c0 -76 -54 -145 -151 -210z" glyph-name="quoteright"/>
<glyph horiz-adv-x="435" unicode="„" d="M50 -192l-29 47c65 39 96 73 96 118c0 24 -13 47 -53 67l-16 8c15 45 46 65 75 65c40 0 78 -36 78 -95c0 -76 -54 -145 -151 -210zM260 -192l-29 47c65 39 96 73 96 118c0 24 -13 47 -53 67l-16 8c15 45 46 65 75 65c40 0 78 -36 78 -95c0 -76 -54 -145 -151 -210z" glyph-name="quotedblbase"/>
<glyph horiz-adv-x="225" unicode="‚" d="M50 -192l-29 47c65 39 96 73 96 118c0 24 -13 47 -53 67l-16 8c15 45 46 65 75 65c40 0 78 -36 78 -95c0 -76 -54 -145 -151 -210z" glyph-name="quotesinglbase"/>
<glyph horiz-adv-x="591" unicode="«" d="M242 455c31 1 60 5 83 9c-52 -81 -98 -149 -161 -233c39 -63 83 -128 150 -224l-53 -24c-82 85 -151 160 -211 234l3 15c69 78 146 170 189 223zM463 455c31 1 60 5 83 9c-52 -81 -98 -149 -161 -233c40 -63 83 -138 150 -234l-53 -24c-82 85 -151 170 -211 244l3 15 c69 78 146 170 189 223z" glyph-name="guillemotleft"/>
<glyph horiz-adv-x="591" unicode="»" d="M349 -8c-31 -1 -60 -5 -82 -9c51 81 97 149 160 233c-39 63 -82 128 -150 224l54 24c81 -85 150 -160 210 -234l-3 -15c-68 -78 -145 -170 -189 -223zM128 -8c-31 -1 -60 -5 -83 -9c52 81 98 149 161 233c-39 63 -83 128 -150 224l53 24c82 -85 151 -160 211 -234l-3 -15 c-69 -78 -146 -170 -189 -223z" glyph-name="guillemotright"/>
<glyph horiz-adv-x="370" unicode="‹" d="M242 455c31 1 60 5 83 9c-52 -81 -98 -149 -161 -233c39 -63 83 -128 150 -224l-53 -24c-82 85 -151 160 -211 234l3 15c69 78 146 170 189 223z" glyph-name="guilsinglleft"/>
<glyph horiz-adv-x="370" unicode="›" d="M128 -8c-31 -1 -60 -5 -83 -9c52 81 98 149 161 233c-39 63 -83 128 -150 224l53 24c82 -85 151 -160 211 -234l-3 -15c-69 -78 -146 -170 -189 -223z" glyph-name="guilsinglright"/>
<glyph horiz-adv-x="446" unicode="-" d="M381 315c-3 -20 -5 -53 -5 -76c-39 1 -76 2 -113 2h-90c-42 0 -75 -1 -108 -2c2 19 3 54 3 76c49 -2 90 -3 156 -3c46 0 108 1 157 3z" glyph-name="hyphen"/>
<glyph horiz-adv-x="555" unicode="–" d="M490 315c-3 -20 -5 -53 -5 -76c-58 1 -99 2 -166 2h-86c-67 0 -111 -1 -168 -2c2 19 3 54 3 76c68 -2 127 -3 208 -3c82 0 146 1 214 3z" glyph-name="endash"/>
<glyph horiz-adv-x="1010" unicode="—" d="M945 315c-3 -20 -5 -53 -5 -76c-58 1 -133 2 -199 2h-475c-67 0 -144 -1 -201 -2c2 19 3 54 3 76c68 -2 354 -3 435 -3c82 0 374 1 442 3z" glyph-name="emdash"/>
<glyph horiz-adv-x="446" d="M381 385c-3 -20 -5 -53 -5 -76c-39 1 -76 2 -113 2h-90c-42 0 -75 -1 -108 -2c2 19 3 54 3 76c49 -2 90 -3 156 -3c46 0 108 1 157 3z" glyph-name="hyphen.lin"/>
<glyph horiz-adv-x="555" d="M490 385c-3 -20 -5 -53 -5 -76c-58 1 -99 2 -166 2h-86c-67 0 -111 -1 -168 -2c2 19 3 54 3 76c68 -2 127 -3 208 -3c82 0 146 1 214 3z" glyph-name="endash.lin"/>
<glyph horiz-adv-x="1010" d="M945 385c-3 -20 -5 -53 -5 -76c-58 1 -133 2 -199 2h-475c-67 0 -144 -1 -201 -2c2 19 3 54 3 76c68 -2 354 -3 435 -3c82 0 374 1 442 3z" glyph-name="emdash.lin"/>
<glyph horiz-adv-x="677" unicode="_" d="M647 74c-3 -20 -5 -53 -5 -76c-58 1 -133 2 -199 2h-210c-67 0 -144 -1 -201 -2c2 19 3 54 3 76c68 -2 222 -3 303 -3c82 0 241 1 309 3z" glyph-name="underscore"/>
<glyph horiz-adv-x="340" unicode="/" d="M340 737c-11 -35 -37 -117 -48 -158l-188 -677c-13 -45 -23 -84 -38 -140l-84 -8c25 83 32 109 65 229l148 530c27 95 46 165 58 220c26 -1 56 1 87 4z" glyph-name="slash"/>
<glyph horiz-adv-x="319" unicode="\" d="M254 -246c-13 54 -25 100 -39 148l-191 677c-14 50 -34 119 -45 154c30 0 60 1 86 4c10 -51 27 -114 58 -224l149 -530c34 -122 49 -175 63 -221z" glyph-name="backslash"/>
<glyph horiz-adv-x="316" unicode="|" d="M199 -240h-85c5 48 6 176 6 241v491c0 64 -1 193 -6 241c23 0 59 2 85 5c-3 -29 -3 -109 -3 -148v-686c0 -39 0 -116 3 -144z" glyph-name="bar"/>
<glyph horiz-adv-x="417" unicode="(" d="M378 -228c-168 95 -298 260 -298 472c0 214 127 384 298 481l35 -61c-126 -78 -246 -213 -246 -416s121 -340 247 -418z" glyph-name="parenleft"/>
<glyph horiz-adv-x="417" unicode=")" d="M39 -228l-35 61c126 78 246 213 246 416s-122 339 -248 417l37 59c168 -95 298 -260 298 -472c0 -214 -127 -384 -298 -481z" glyph-name="parenright"/>
<glyph horiz-adv-x="390" unicode="[" d="M384 -150c-5 -28 -7 -46 -8 -78c-43 4 -67 4 -119 4c-53 0 -104 -1 -142 -4l-12 7c4 39 6 146 6 200v537c0 54 -2 156 -6 195l13 14c38 -3 85 -5 137 -5s82 1 126 4c-3 -29 -4 -54 -5 -78c-44 1 -69 2 -121 2c-22 0 -41 0 -62 -1v-670c0 -32 1 -104 4 -128 c21 0 39 -1 62 -1c52 0 83 1 127 2z" glyph-name="bracketleft"/>
<glyph horiz-adv-x="390" unicode="]" d="M6 646c5 28 7 46 8 78c43 -4 67 -4 119 -4c53 0 104 1 142 4l12 -7c-4 -39 -6 -146 -6 -200v-537c0 -54 2 -156 6 -195l-13 -14c-38 3 -85 5 -137 5s-82 -1 -126 -4c3 29 4 54 5 78c44 -1 69 -2 121 -2c22 0 41 0 62 1v667c0 32 -1 107 -4 131c-21 0 -39 1 -62 1 c-52 0 -83 -1 -127 -2z" glyph-name="bracketright"/>
<glyph horiz-adv-x="407" unicode="{" d="M72 223v50c114 26 139 46 139 66c0 38 -73 108 -73 186c0 80 46 160 202 197l18 -58c-98 -29 -137 -73 -137 -118c0 -58 67 -124 67 -183c0 -43 -25 -84 -105 -115c88 -30 105 -72 105 -115c0 -59 -67 -124 -67 -182c0 -45 39 -89 137 -118l-18 -58 c-156 37 -202 117 -202 197c0 78 73 147 73 185c0 20 -25 40 -139 66z" glyph-name="braceleft"/>
<glyph horiz-adv-x="407" unicode="}" d="M335 274v-50c-114 -26 -139 -46 -139 -66c0 -38 73 -108 73 -186c0 -80 -46 -160 -202 -197l-18 58c98 29 137 73 137 118c0 58 -67 124 -67 183c0 43 25 84 105 115c-88 30 -105 72 -105 115c0 59 67 124 67 182c0 45 -39 89 -137 118l18 58c156 -37 202 -117 202 -197 c0 -78 -73 -147 -73 -185c0 -20 25 -40 139 -66z" glyph-name="braceright"/>
<glyph horiz-adv-x="417" d="M378 -129c-168 95 -298 260 -298 472c0 214 127 384 298 481l35 -61c-126 -78 -246 -213 -246 -416s121 -340 247 -418z" glyph-name="parenleft.lin"/>
<glyph horiz-adv-x="417" d="M39 -129l-35 61c126 78 246 213 246 416s-122 339 -248 417l37 59c168 -95 298 -260 298 -472c0 -214 -127 -384 -298 -481z" glyph-name="parenright.lin"/>
<glyph horiz-adv-x="390" d="M384 -51c-5 -28 -7 -46 -8 -78c-43 4 -67 4 -119 4c-53 0 -104 -1 -142 -4l-12 7c4 39 6 146 6 200v537c0 54 -2 156 -6 195l13 14c38 -3 85 -5 137 -5s82 1 126 4c-3 -29 -4 -54 -5 -78c-44 1 -69 2 -121 2c-22 0 -41 0 -62 -1v-670c0 -32 1 -104 4 -128 c21 0 39 -1 62 -1c52 0 83 1 127 2z" glyph-name="bracketleft.lin"/>
<glyph horiz-adv-x="390" d="M6 745c5 28 7 46 8 78c43 -4 67 -4 119 -4c53 0 104 1 142 4l12 -7c-4 -39 -6 -146 -6 -200v-537c0 -54 2 -156 6 -195l-13 -14c-38 3 -85 5 -137 5s-82 -1 -126 -4c3 29 4 54 5 78c44 -1 69 -2 121 -2c22 0 41 0 62 1v667c0 32 -1 107 -4 131c-21 0 -39 1 -62 1 c-52 0 -83 -1 -127 -2z" glyph-name="bracketright.lin"/>
<glyph horiz-adv-x="407" d="M72 322v50c114 26 139 46 139 66c0 38 -73 108 -73 186c0 80 46 160 202 197l18 -58c-98 -29 -137 -73 -137 -118c0 -58 67 -124 67 -183c0 -43 -25 -84 -105 -115c88 -30 105 -72 105 -115c0 -59 -67 -124 -67 -182c0 -45 39 -89 137 -118l-18 -58 c-156 37 -202 117 -202 197c0 78 73 147 73 185c0 20 -25 40 -139 66z" glyph-name="braceleft.lin"/>
<glyph horiz-adv-x="407" d="M335 373v-50c-114 -26 -139 -46 -139 -66c0 -38 73 -108 73 -186c0 -80 -46 -160 -202 -197l-18 58c98 29 137 73 137 118c0 58 -67 124 -67 183c0 43 25 84 105 115c-88 30 -105 72 -105 115c0 59 67 124 67 182c0 45 -39 89 -137 118l18 58c156 -37 202 -117 202 -197 c0 -78 -73 -147 -73 -185c0 -20 25 -40 139 -66z" glyph-name="braceright.lin"/>
<glyph horiz-adv-x="869" unicode="@" d="M750 328c0 125 -74 259 -277 259c-190 0 -342 -167 -342 -358c0 -199 129 -306 302 -306c83 0 183 26 248 67l20 -47c-77 -46 -177 -75 -280 -75c-208 0 -350 160 -350 345c0 265 210 429 418 429c211 0 321 -148 321 -298c0 -149 -99 -287 -237 -287 c-74 0 -86 59 -67 128c-39 -78 -108 -128 -153 -128c-65 0 -95 56 -95 129c0 120 97 263 213 263c36 0 69 -12 79 -23l55 28l7 -7l-42 -268c-6 -40 -7 -70 26 -70c69 0 154 82 154 219zM527 367c-15 14 -36 20 -62 20c-68 0 -132 -92 -132 -182c0 -62 15 -85 48 -85 c44 0 121 76 137 186z" glyph-name="at"/>
<glyph horiz-adv-x="833" d="M558 164c-70 0 -81 56 -63 121c-37 -74 -103 -121 -146 -121c-61 0 -90 53 -90 122c0 114 92 250 202 250c35 0 66 -11 76 -22l52 27l6 -7l-39 -254c-6 -38 -7 -67 24 -67c66 0 147 76 147 206c0 119 -71 248 -264 248c-180 0 -325 -160 -325 -342 c0 -189 123 -290 287 -290c79 0 174 24 236 63l19 -44c-73 -44 -168 -72 -266 -72c-198 0 -333 152 -333 328c0 252 200 410 398 410c200 0 305 -143 305 -285s-95 -271 -226 -271zM515 458c-15 14 -35 19 -59 19c-65 0 -126 -87 -126 -173c0 -58 15 -80 46 -80 c42 0 115 72 130 176z" glyph-name="at.cap"/>
<glyph horiz-adv-x="868" unicode="©" d="M803 351c0 -204 -165 -369 -369 -369s-369 165 -369 369s165 369 369 369s369 -165 369 -369zM747 351c0 174 -137 317 -313 317c-175 0 -313 -143 -313 -317s138 -317 313 -317c176 0 313 143 313 317zM562 198c-34 -24 -74 -37 -119 -37c-112 0 -189 84 -189 184 c0 115 83 204 200 204c40 0 82 -13 110 -32l-15 -64c-25 19 -59 32 -94 32c-74 0 -125 -54 -125 -129c0 -85 54 -132 122 -132c48 0 82 20 114 48z" glyph-name="copyright"/>
<glyph horiz-adv-x="868" unicode="℗" d="M803 351c0 -204 -165 -369 -369 -369s-369 165 -369 369s165 369 369 369s369 -165 369 -369zM747 351c0 174 -137 317 -313 317c-175 0 -313 -143 -313 -317s138 -317 313 -317c176 0 313 143 313 317zM407 480v-128c8 -1 15 -1 22 -1c53 0 86 23 86 66 c0 44 -30 65 -76 65c-12 0 -18 -1 -32 -2zM407 245c0 -20 0 -61 2 -75h-80c3 25 3 92 3 126v116c0 34 0 102 -3 127c19 0 77 3 109 3c99 0 154 -53 154 -117c0 -70 -47 -133 -162 -134c-7 0 -15 0 -23 1v-47z" glyph-name="published"/>
<glyph horiz-adv-x="868" d="M803 351c0 -204 -165 -369 -369 -369s-369 165 -369 369s165 369 369 369s369 -165 369 -369zM747 351c0 174 -137 317 -313 317c-175 0 -313 -143 -313 -317s138 -317 313 -317c176 0 313 143 313 317zM313 539c19 0 87 3 111 3c102 1 157 -48 156 -110 c-2 -51 -26 -86 -74 -110l64 -92c15 -22 37 -51 42 -57l-85 -7l-90 137h-46v-77c0 -23 1 -41 2 -56h-80c2 25 3 92 3 127v116c0 33 -1 101 -3 126zM391 359h38c49 0 74 27 74 62s-22 61 -71 61c-14 0 -29 -1 -41 -2v-121z" glyph-name="registered.alt"/>
<glyph horiz-adv-x="466" unicode="®" d="M425 527c0 -105 -83 -191 -193 -191c-108 0 -191 86 -191 191c0 107 83 193 191 193c110 0 193 -86 193 -193zM391 527c0 92 -66 163 -159 163c-91 0 -157 -71 -157 -163c0 -90 66 -161 157 -161c93 0 159 71 159 161zM169 625c8 0 44 2 57 2c57 0 82 -29 82 -59 c-1 -26 -10 -43 -41 -56l37 -48l18 -22l-43 -3l-49 65h-22v-34c0 -12 0 -22 1 -29h-40c1 11 1 46 1 63v59c0 16 0 51 -1 62zM208 535h20c29 0 42 13 42 31c0 17 -11 30 -40 30c-7 0 -16 -1 -22 -1v-60z" glyph-name="registered"/>
<glyph horiz-adv-x="804" unicode="℠" d="M753 353l-77 -4c0 13 -3 50 -5 67l-13 135s-97 -179 -108 -203l-21 -4c-10 24 -104 202 -104 202l-17 -132c-2 -16 -6 -49 -6 -61h-72c7 36 15 88 20 120l18 110c6 33 15 100 18 126l22 3c8 -16 25 -49 35 -67l99 -183l97 183c10 17 27 52 35 67h21l19 -129l18 -110 c6 -32 14 -84 21 -120zM280 454c0 -65 -48 -110 -122 -110c-36 0 -79 12 -106 28l3 67c22 -18 65 -36 105 -36c32 0 53 16 53 46c0 59 -150 61 -150 159c0 63 49 105 116 105c36 0 70 -11 91 -25l-17 -56c-19 13 -49 22 -73 22c-30 0 -49 -16 -49 -41 c0 -56 149 -56 149 -159z" glyph-name="servicemark"/>
<glyph horiz-adv-x="849" unicode="™" d="M798 353l-77 -4c0 13 -3 50 -5 67l-13 135s-97 -179 -108 -203l-21 -4c-10 24 -104 202 -104 202l-17 -132c-2 -16 -6 -49 -6 -61h-72c7 36 15 88 20 120l18 110c6 33 15 100 18 126l22 3c8 -16 25 -49 35 -67l99 -183l97 183c10 17 27 52 35 67h21l19 -129l18 -110 c6 -32 14 -84 21 -120zM351 707c-2 -14 -3 -49 -4 -66c-41 1 -65 1 -112 1c-1 -10 -1 -24 -1 -32v-185c0 -20 1 -58 3 -72h-83c3 23 4 88 4 120v88c0 20 0 54 -1 81c-48 0 -74 0 -114 -1c1 13 2 50 2 66c48 -2 93 -2 151 -2s107 0 155 2z" glyph-name="trademark"/>
<glyph unicode="*" d="M354 612c1 -23 2 -49 5 -70c-26 1 -84 1 -129 -1c13 -32 46 -99 57 -119c-23 -7 -45 -16 -66 -25c-9 35 -27 100 -38 129c-26 -19 -82 -73 -101 -91c-13 18 -26 35 -45 54c37 24 82 51 113 74c-27 18 -89 54 -111 66c14 20 27 39 39 59c27 -23 76 -65 100 -83 c10 32 24 103 29 128c22 -6 51 -14 70 -18c-8 -17 -35 -80 -48 -122c34 2 102 15 125 19z" glyph-name="asterisk"/>
<glyph horiz-adv-x="518" unicode="†" d="M487 536l-3 -84c-18 2 -36 3 -64 4l-63 3c-20 1 -38 1 -63 1l2 -335c0 -69 1 -114 4 -145h-86c4 50 5 130 6 241l3 239c-19 0 -41 0 -76 -1l-48 -2c-27 -1 -46 -3 -68 -5l3 84c12 -2 26 -4 44 -5l97 -6c18 -1 37 -1 48 -1c0 67 -4 159 -9 203c40 0 58 2 92 5 c-3 -31 -5 -70 -8 -147l-2 -61c16 0 31 0 49 1l96 6c20 1 35 3 46 5z" glyph-name="dagger"/>
<glyph horiz-adv-x="518" unicode="‡" d="M298 585l-3 -61l126 5c28 1 54 4 66 6l-3 -82c-22 3 -46 5 -84 6l-106 3l1 -226l126 5c28 1 54 4 66 6l-3 -82c-22 3 -46 5 -84 6l-104 3v-49c0 -69 1 -114 4 -145h-86c3 42 5 107 6 194l-91 -2c-41 -1 -69 -2 -98 -6l3 81c16 -2 39 -4 64 -5l122 -6l3 226l-94 -2 c-41 -1 -69 -2 -98 -6l3 81c16 -2 39 -4 64 -5l124 -6v52c-1 37 -4 112 -8 151c40 0 58 2 92 5c-3 -31 -5 -70 -8 -147z" glyph-name="daggerdbl"/>
<glyph horiz-adv-x="446" unicode="•" d="M366 350c0 -78 -60 -143 -141 -143c-82 0 -145 67 -145 150c0 78 60 143 141 143c83 0 145 -67 145 -150z" glyph-name="bullet"/>
<glyph horiz-adv-x="578" unicode="^" d="M342 543l-57 71l-58 -75c-17 -23 -63 -84 -88 -120l-65 50c64 81 141 181 190 247l40 4c49 -64 161 -203 200 -251l-68 -48c-22 30 -49 66 -94 122z" glyph-name="asciicircum"/>
<glyph horiz-adv-x="510" unicode="~" d="M60 228c17 91 59 125 111 125c59 0 129 -53 165 -53c16 0 35 17 42 61l72 -10c-16 -91 -61 -130 -113 -130c-58 0 -130 54 -165 54c-17 0 -34 -14 -40 -57z" glyph-name="asciitilde"/>
<glyph horiz-adv-x="529" unicode="$" d="M278 -124h-78c3 23 8 66 12 110c-57 6 -117 23 -177 56l7 98c57 -41 122 -66 178 -75c3 37 7 102 19 239c-87 33 -177 73 -177 179c0 96 77 178 203 186l4 100c23 0 47 0 74 2c-3 -23 -6 -67 -9 -104c50 -7 97 -24 136 -47l-26 -83c-30 21 -73 40 -117 49l-16 -216 c86 -33 175 -73 175 -180c0 -110 -73 -191 -203 -204zM397 183c0 47 -40 73 -93 95l-17 -215c70 10 110 58 110 120zM150 492c0 -49 42 -75 96 -98c7 101 12 159 15 197c-72 -5 -111 -48 -111 -99z" glyph-name="dollar"/>
<glyph horiz-adv-x="559" d="M297 -131h-84c4 24 7 68 11 115c-66 6 -137 28 -188 56l6 101c39 -31 113 -64 189 -72l5 52l16 197c-92 37 -188 78 -188 186c0 102 87 186 215 197c3 42 5 81 6 104c23 0 51 0 80 3c-3 -26 -7 -71 -10 -109c57 -6 108 -25 143 -47l-32 -85c-32 21 -77 38 -120 45 l-18 -226c92 -35 187 -77 187 -193c0 -107 -81 -194 -214 -209c-3 -41 -4 -91 -4 -115zM419 179c0 54 -43 85 -98 111l-15 -219c67 10 113 48 113 108zM160 515c0 -52 43 -80 100 -103l11 142l3 60c-69 -8 -114 -46 -114 -99z" glyph-name="dollar.lin"/>
<glyph horiz-adv-x="507" unicode="£" d="M43 292c2 20 3 59 3 82h82c-13 28 -23 60 -23 97c0 110 86 201 213 201c45 0 95 -10 137 -32l-21 -81c-39 21 -82 31 -119 31c-65 0 -119 -38 -119 -110c0 -38 15 -71 32 -105c72 1 109 2 183 7c-3 -22 -4 -58 -5 -83c-46 1 -85 1 -143 0c6 -18 10 -37 10 -57 c0 -58 -24 -111 -77 -160c87 0 213 4 286 7c-4 -33 -6 -57 -7 -93c-65 4 -114 4 -191 4c-75 0 -174 -1 -238 -6l-13 66c97 47 153 95 153 170c0 22 -7 43 -17 64z" glyph-name="sterling"/>
<glyph horiz-adv-x="535" d="M43 304c2 21 3 62 3 87h86c-14 30 -25 63 -25 102c0 115 92 209 227 209c50 0 104 -9 149 -33l-21 -86c-43 23 -90 32 -131 32c-70 0 -128 -38 -128 -113c0 -40 16 -75 34 -110c79 1 119 2 200 8c-3 -24 -4 -63 -5 -88c-52 1 -95 1 -159 -1c6 -18 10 -37 10 -57 c0 -61 -24 -117 -79 -168c94 0 228 5 307 8c-5 -35 -7 -60 -7 -98c-69 4 -123 4 -204 4c-79 0 -186 -1 -254 -6l-14 70c101 48 160 98 160 177c0 22 -7 44 -17 65z" glyph-name="sterling.lin"/>
<glyph horiz-adv-x="656" unicode="€" d="M318 279c71 0 145 1 205 4c-3 -24 -8 -53 -9 -79c-62 1 -124 1 -196 1h-95c40 -92 122 -142 211 -142c65 0 131 20 190 77l-6 -101c-67 -45 -133 -57 -198 -57c-136 0 -252 88 -293 223c-40 0 -80 0 -115 -1c2 20 3 54 3 79c29 -2 63 -3 98 -4c-1 11 -1 22 -1 33 c0 21 2 42 4 62c-34 0 -69 -1 -99 -1c2 20 4 54 4 78c32 -1 72 -3 112 -3c44 134 154 225 302 225c66 0 135 -20 182 -56l-25 -81c-41 33 -106 56 -163 56c-92 0 -171 -55 -208 -144h97c71 0 163 1 223 3c-4 -23 -8 -53 -9 -78c-63 1 -142 1 -214 1h-116 c-2 -14 -3 -29 -3 -44c0 -18 1 -35 4 -51h115z" glyph-name="Euro"/>
<glyph horiz-adv-x="681" d="M330 293c75 0 152 1 214 4c-3 -26 -8 -58 -10 -85c-64 1 -128 1 -204 1h-97c40 -94 126 -143 219 -143c66 0 136 18 198 77l-6 -106c-71 -47 -140 -59 -207 -59c-141 0 -263 91 -306 231c-42 0 -83 0 -119 -1c2 20 3 58 3 85c30 -2 64 -3 101 -4c-1 11 -1 22 -1 33 c0 22 1 43 4 64c-36 0 -71 -1 -102 -1c2 21 5 59 5 83c33 -1 74 -3 115 -3c47 139 162 233 316 233c68 0 140 -20 190 -57l-27 -86c-43 34 -110 56 -169 56c-95 0 -176 -55 -215 -146h98c75 0 171 1 233 3c-4 -23 -8 -58 -9 -83c-66 1 -148 1 -224 1h-119 c-2 -16 -3 -32 -3 -48c0 -17 1 -34 3 -49h119z" glyph-name="Euro.lin"/>
<glyph horiz-adv-x="631" unicode="¥" d="M263 0c3 27 5 105 6 140c-71 0 -153 0 -214 -2c2 20 3 54 3 79c58 -2 145 -3 211 -3l1 62l-18 28c-67 0 -139 0 -195 -1c2 20 3 52 3 76c40 -2 94 -3 145 -3l-36 57c-42 68 -99 159 -142 223l101 7l187 -303l56 90c39 63 86 142 125 207h110l-185 -281c54 0 111 1 153 3 c-4 -22 -5 -50 -7 -76c-56 1 -127 1 -193 1l-16 -24v-66c70 0 155 1 214 3c-4 -22 -5 -53 -7 -79c-61 2 -137 2 -207 2v-5c0 -36 1 -108 4 -135h-99z" glyph-name="yen"/>
<glyph horiz-adv-x="647" d="M270 0c2 27 5 107 6 144c-74 0 -156 0 -220 -2c2 21 3 58 3 84c61 -2 148 -3 217 -3l1 70l-14 22c-70 0 -145 0 -205 -1c2 20 3 56 3 82c44 -2 100 -4 154 -4l-41 67l-147 226l106 7l191 -316l56 91c39 64 89 150 129 219h113l-192 -294c56 0 114 2 159 4 c-5 -24 -6 -55 -8 -82c-60 1 -131 1 -201 1l-11 -18v-74c72 0 155 1 218 3c-5 -23 -6 -56 -8 -84c-63 2 -137 2 -210 2v-5c0 -38 1 -111 3 -139h-102z" glyph-name="yen.lin"/>
<glyph horiz-adv-x="485" unicode="¢" d="M309 360l-15 -222l-5 -80c54 1 104 21 152 63l-4 -92c-49 -30 -95 -45 -153 -47c-2 -41 -3 -69 -2 -91h-73l8 97c-107 23 -177 115 -177 228c0 130 84 236 206 255c2 41 3 76 3 91c30 0 48 2 75 5c-3 -26 -6 -60 -8 -95c46 -6 92 -25 126 -48l-26 -75 c-30 23 -68 40 -105 46c-1 -12 -2 -24 -2 -35zM129 232c0 -87 35 -143 93 -164c1 23 3 48 5 75l14 219c0 10 1 21 2 32c-72 -17 -114 -82 -114 -162z" glyph-name="cent"/>
<glyph horiz-adv-x="500" d="M324 478l-14 -226l-5 -78c53 2 104 24 152 65l-4 -99c-50 -29 -96 -45 -153 -47c-2 -43 -3 -72 -2 -93h-80l8 99c-108 25 -180 118 -180 231c0 133 87 241 210 260c2 42 3 78 3 93c30 0 54 2 81 5c-3 -26 -6 -61 -8 -97c45 -6 92 -25 126 -48l-27 -81 c-30 24 -68 40 -105 46c-1 -11 -2 -21 -2 -30zM141 347c0 -87 34 -141 90 -163c1 23 3 47 5 73l15 223c0 8 0 17 1 26c-71 -18 -111 -79 -111 -159z" glyph-name="cent.lin"/>
<glyph horiz-adv-x="626" unicode="฿" d="M310 -1h-134l-70 -135c-16 10 -43 25 -72 34c25 48 46 88 66 123c3 57 5 159 5 215v215c0 61 -2 189 -7 235c35 0 148 6 194 6c60 0 107 -12 144 -30c22 43 50 93 75 145c15 -9 47 -30 69 -39l-83 -153c26 -31 38 -68 38 -101c0 -68 -44 -120 -107 -145 c92 -30 140 -89 140 -169c0 -107 -88 -201 -258 -201zM203 89c30 -3 69 -5 100 -5c100 0 166 39 166 119c0 68 -59 119 -185 119c-31 0 -57 -1 -82 -5v-177c0 -16 0 -31 1 -51zM203 397c22 -1 47 -1 73 -1c102 0 161 43 161 109c0 67 -56 101 -153 101c-38 0 -61 -2 -81 -3 c-1 -14 -1 -39 -1 -54v-98c0 -20 0 -41 1 -54z" glyph-name="baht"/>
<glyph horiz-adv-x="747" unicode="₡" d="M188 -106c-19 13 -50 30 -72 40c23 53 41 93 57 128c-75 64 -119 160 -119 263c0 212 153 377 362 377c9 0 19 -1 28 -1c13 33 28 70 52 124c15 -8 51 -29 74 -37c-16 -34 -31 -68 -46 -103c35 -11 67 -26 93 -42c15 34 30 72 54 131l72 -36 c-58 -137 -121 -278 -186 -429l-99 -236c65 13 119 50 172 99l-8 -108c-61 -49 -128 -76 -202 -81c-21 -48 -40 -96 -57 -138c-17 12 -49 30 -71 38l46 104c-35 6 -68 16 -98 31zM275 101c29 -17 62 -28 97 -32l41 92l150 356c6 15 13 29 18 42c-27 19 -59 35 -93 46 c-34 -80 -69 -161 -105 -248zM155 328c0 -71 22 -131 59 -175c7 18 15 36 24 57l151 357c7 18 15 35 21 50c-149 0 -255 -118 -255 -289z" glyph-name="colonmonetary"/>
<glyph horiz-adv-x="459" unicode="ƒ" d="M373 387h-138l-35 -243c-11 -77 -14 -115 -17 -144h-101c9 48 30 166 42 241l22 146h-91l37 77h66l3 15c25 163 94 221 190 221c30 0 51 -3 78 -16l-20 -78c-18 4 -36 12 -59 12c-58 0 -83 -29 -100 -129l-4 -25h141c-5 -22 -9 -41 -14 -77z" glyph-name="florin"/>
<glyph horiz-adv-x="876" unicode="₦" d="M821 469c-5 -19 -7 -54 -7 -77c-34 0 -64 1 -95 2l-2 -109c45 0 81 0 104 1c-5 -21 -7 -55 -7 -79c-39 1 -65 3 -98 3l-1 -76c-1 -37 -1 -118 2 -145l-26 -6l-198 228h-191h-56v-71c0 -37 1 -114 4 -141h-109c5 42 9 142 11 210c-33 0 -65 -2 -98 -2c4 19 5 56 5 79 c19 -1 54 -2 95 -2l2 110c-35 -1 -61 -2 -102 -2c4 18 5 56 5 77c18 -1 57 -1 99 -1v3c1 64 0 179 -5 227l25 7l206 -239h123h121c-1 67 -3 177 -9 220c40 0 77 1 111 5c-3 -27 -7 -105 -8 -144l-2 -79c43 0 80 1 101 1zM246 284h183l-183 211v-211zM628 394h-182l182 -212 v212z" glyph-name="naira"/>
<glyph horiz-adv-x="722" unicode="₱" d="M41 488c32 -1 66 -2 100 -2c-1 71 -3 161 -7 201c36 0 125 5 196 5c159 0 243 -94 253 -206c34 0 68 1 100 2c-3 -18 -6 -56 -6 -80c-43 0 -68 1 -98 1c-19 -117 -106 -206 -285 -206c-18 0 -36 0 -53 2v-62c0 -37 1 -115 3 -143h-110c5 46 8 172 8 234v176 c-30 -1 -55 -2 -104 -2c2 19 3 59 3 80zM241 484h239c-11 78 -64 126 -166 126c-29 0 -45 -1 -73 -3v-123zM295 285c100 0 167 46 183 127h-237v-124c17 -2 35 -3 54 -3z" glyph-name="peso"/>
<glyph horiz-adv-x="1135" d="M599 6l-114 -13l-177 276h-106v-129c0 -37 1 -114 3 -141h-107c5 47 6 172 6 236v216c0 62 -1 188 -6 235c35 0 136 3 181 4c171 4 265 -90 262 -198c-3 -94 -51 -159 -143 -200l99 -147c27 -38 80 -112 102 -139zM1078 246c0 -164 -122 -264 -228 -264 c-46 0 -92 16 -118 38v-132c0 -34 1 -68 4 -93l-103 -9c5 43 7 111 7 169v335c0 58 -2 127 -7 170c36 0 60 1 90 4l4 -62c34 41 88 72 148 72c127 0 203 -102 203 -228zM988 237c0 111 -64 157 -137 157c-46 0 -91 -28 -119 -69v-217c24 -28 60 -47 116 -47 c83 0 140 83 140 176zM202 351h101c88 0 138 61 138 129c0 82 -52 126 -153 126c-32 0 -60 -1 -86 -1v-254z" glyph-name="R_p"/>
<glyph horiz-adv-x="1023" unicode="₨" d="M599 6l-114 -13l-177 276h-106v-129c0 -37 1 -114 3 -141h-107c5 47 6 172 6 236v216c0 62 -1 188 -6 235c35 0 136 3 181 4c171 4 265 -90 262 -198c-3 -94 -51 -159 -143 -200l99 -147c27 -38 80 -112 102 -139zM806 474c58 0 112 -18 144 -38l-31 -80 c-31 23 -72 37 -113 37c-40 0 -78 -14 -78 -56c0 -74 237 -58 237 -202c0 -95 -83 -153 -181 -153c-50 0 -121 16 -158 41l5 95c40 -32 102 -55 155 -55c51 0 89 20 89 57c0 91 -236 64 -236 213c0 78 69 141 167 141zM202 351h101c88 0 138 61 138 129 c0 82 -52 126 -153 126c-32 0 -60 -1 -86 -1v-254z" glyph-name="rupee"/>
<glyph horiz-adv-x="1129" unicode="₩" d="M1069 472c-3 -20 -6 -55 -6 -78l-132 2l-42 -112c75 0 142 2 180 3c-3 -20 -6 -56 -6 -77c-73 0 -134 1 -201 1l-10 -26c-32 -84 -53 -139 -72 -196l-20 -7l-86 229h-218l-11 -30c-19 -50 -49 -120 -79 -199h-20l-84 229c-64 -1 -127 -1 -202 -1c2 18 3 55 3 77 c36 -1 101 -1 172 -2l-39 110c-49 0 -91 -1 -136 -1c2 18 3 56 3 78c24 -1 62 -2 106 -2l-6 16c-23 62 -52 142 -76 199l100 8l77 -224h209l15 39c12 36 56 153 69 188l21 7l86 -234h204l10 30c20 59 42 128 61 187h102l-82 -216c45 0 83 1 110 2zM567 494l-82 -210h161z M445 395h-155l74 -212zM691 396l78 -212l73 212h-151z" glyph-name="won"/>
<glyph horiz-adv-x="693" unicode="₪" d="M272 122c-23 82 -43 147 -56 200l69 -6l49 -159c14 -48 41 -66 81 -66h119l-1 263c0 35 -1 134 -3 160h88c-6 -43 -7 -169 -7 -224v-290h-198c-90 0 -119 42 -141 122zM380 206v153c0 43 -25 64 -65 64h-154v-310c0 -35 0 -87 2 -113h-88c5 43 8 122 8 180v334h230 c90 0 138 -44 142 -111c2 -31 1 -47 2 -93c1 -37 2 -69 5 -99z" glyph-name="sheqel"/>
<glyph horiz-adv-x="695" unicode="#" d="M523 499l-2 -14c70 0 135 1 160 2c-6 -22 -12 -52 -15 -78c-20 0 -87 1 -155 1l-21 -166c70 0 136 1 161 2c-6 -22 -12 -52 -15 -78c-21 0 -88 1 -155 1l-1 -9c-5 -43 -15 -130 -16 -160h-89c8 33 20 103 28 169l-157 1l-1 -10c-5 -43 -15 -130 -16 -160h-89 c8 33 19 103 29 170c-64 0 -134 -1 -155 -2c4 21 10 54 13 78c24 -1 83 -2 151 -2l22 168c-64 0 -134 -2 -156 -3c4 21 10 54 13 78c24 -1 84 -2 153 -2c8 65 13 138 14 173c43 0 54 1 89 5c-7 -32 -20 -120 -25 -164l-2 -14h158c8 65 14 138 15 173c43 0 54 1 89 5 c-7 -32 -19 -120 -25 -164zM277 411l-22 -167h158l22 166z" glyph-name="numbersign"/>
<glyph horiz-adv-x="722" d="M543 519l-2 -14c75 0 142 1 167 2c-6 -22 -12 -55 -15 -82c-21 0 -90 1 -162 1l-21 -171c72 0 141 1 167 2c-6 -24 -13 -56 -15 -84c-22 0 -93 2 -162 2l-1 -9c-5 -45 -16 -135 -17 -166h-93c9 35 21 106 30 175l-163 1l-1 -10c-6 -45 -16 -135 -17 -166h-93 c8 35 20 106 30 176c-66 0 -140 -1 -161 -3c4 23 11 58 14 84c25 -1 86 -2 157 -2l22 173c-67 0 -138 -2 -162 -3c4 22 11 57 14 82c25 -1 87 -2 159 -2c8 68 13 144 14 181c45 0 57 1 92 5c-6 -33 -20 -126 -25 -172l-2 -14h165c8 68 14 144 15 181c44 0 56 1 92 5 c-6 -33 -19 -126 -26 -172zM287 427l-21 -172h163l23 171z" glyph-name="numbersign.lin"/>
<glyph horiz-adv-x="1188" unicode="№" d="M89 1c6 45 10 164 11 224l4 223c1 60 1 171 -3 215l25 7l432 -483v242c0 61 -2 180 -8 224c38 0 79 2 111 5c-4 -26 -6 -101 -7 -137l-7 -392c-1 -36 -1 -110 2 -138l-25 -6l-429 474v-324c0 -36 1 -108 4 -134h-110zM1134 489c0 -113 -76 -201 -190 -201 c-109 0 -180 85 -180 183c0 113 77 201 191 201c110 0 179 -84 179 -183zM952 597c-59 0 -98 -51 -98 -114c0 -77 39 -121 94 -121c59 0 97 53 97 115c0 77 -42 120 -93 120zM1136 209c-2 -20 -4 -56 -4 -79c-61 1 -119 1 -190 1c-69 0 -122 0 -183 -1c3 17 3 56 3 79 c73 -2 120 -3 181 -3c59 0 121 1 193 3z" glyph-name="numero"/>
<glyph horiz-adv-x="635" unicode="¶" d="M540 0h-85c6 45 8 164 8 224v206c0 59 -2 181 -8 226c38 0 54 1 85 4c-3 -27 -5 -101 -5 -137v-389c0 -36 2 -108 5 -134zM283 660c43 0 74 -2 108 -2c-3 -27 -4 -99 -4 -135v-389c0 -36 1 -108 4 -134h-85c5 45 8 164 8 224v19c-194 0 -273 92 -273 217 c0 102 83 200 242 200z" glyph-name="paragraph"/>
<glyph horiz-adv-x="693" d="M293 689c48 0 89 -2 128 -2c-3 -29 -4 -104 -4 -141v-407c0 -37 1 -112 4 -139h-104c4 47 7 170 7 234v20c-202 0 -284 95 -284 226c0 107 86 209 253 209zM600 0h-106c6 47 8 170 8 234v215c0 61 0 189 -8 236c43 0 69 1 106 4c-3 -29 -5 -106 -5 -143v-407 c0 -37 2 -112 5 -139z" glyph-name="paragraph.lin"/>
<glyph horiz-adv-x="467" unicode="§" d="M49 257c0 60 35 106 91 132c-49 32 -72 77 -72 122c0 78 69 161 187 161c61 0 116 -19 151 -43l-25 -80c-39 26 -87 43 -131 43c-52 0 -91 -29 -91 -74c0 -106 266 -102 266 -262c0 -60 -31 -102 -82 -131c49 -31 72 -74 72 -118c0 -88 -68 -168 -206 -168 c-55 0 -114 17 -159 44l5 93c44 -32 104 -56 162 -56c63 0 107 31 107 80c0 103 -275 96 -275 257zM141 270c0 -42 42 -67 131 -105c38 15 65 46 65 81c0 49 -62 75 -124 103c-49 -18 -72 -46 -72 -79z" glyph-name="section"/>
<glyph horiz-adv-x="477" d="M48 274c0 61 35 109 93 136c-49 31 -73 76 -73 121c0 81 70 171 193 171c61 0 119 -19 156 -44l-27 -83c-40 27 -89 44 -134 44c-54 0 -95 -29 -95 -76c0 -109 275 -105 275 -270c0 -61 -32 -105 -85 -136c51 -31 74 -72 74 -117c0 -92 -70 -177 -212 -177 c-57 0 -117 18 -164 46l5 95c46 -33 107 -58 168 -58c64 0 109 32 109 83c0 106 -283 99 -283 265zM142 284c0 -40 43 -65 132 -103c42 15 71 45 71 82c0 49 -63 77 -128 106c-51 -18 -75 -49 -75 -85z" glyph-name="section.lin"/>
<glyph horiz-adv-x="359" unicode="ª" d="M163 655c-32 0 -67 -14 -90 -30l-14 63c35 19 78 32 119 32c84 0 124 -43 122 -120l-4 -129c-1 -20 9 -25 20 -25c8 0 15 2 22 5l-4 -48c-15 -8 -30 -13 -49 -13c-29 0 -52 15 -58 50c-18 -31 -57 -50 -94 -50c-60 0 -98 36 -98 90c0 62 52 106 156 106c9 0 21 -1 33 -2 l1 14c2 38 -20 57 -62 57zM157 447c33 0 64 26 65 64l1 27c-10 1 -19 2 -28 2c-56 0 -83 -21 -83 -50c0 -23 14 -43 45 -43z" glyph-name="ordfeminine"/>
<glyph horiz-adv-x="350" d="M163 684c-32 0 -68 -12 -90 -28l-14 63c35 19 78 32 119 32c84 0 124 -43 122 -120l-4 -126c0 -18 8 -27 20 -27c6 0 12 2 18 3l10 -40c-18 -13 -38 -20 -59 -20c-29 0 -52 15 -58 50c-18 -31 -57 -50 -94 -50c-60 0 -98 36 -98 90c0 62 55 104 159 104c9 0 20 -1 30 -2 l1 14c2 38 -20 57 -62 57zM157 478c33 0 64 23 65 61l1 31c-10 1 -19 2 -28 2c-59 0 -83 -22 -83 -51c0 -23 14 -43 45 -43z" glyph-name="ordfeminine.lin"/>
<glyph horiz-adv-x="389" unicode="º" d="M355 562c0 -97 -66 -173 -165 -173c-95 0 -156 73 -156 158c0 97 66 173 165 173c95 0 156 -73 156 -158zM275 553c0 69 -36 103 -79 103c-48 0 -82 -42 -82 -99c0 -69 33 -104 79 -104c49 0 82 43 82 100z" glyph-name="ordmasculine"/>
<glyph horiz-adv-x="379" d="M355 593c0 -97 -66 -173 -165 -173c-95 0 -156 73 -156 158c0 97 66 173 165 173c95 0 156 -73 156 -158zM275 584c0 69 -36 103 -79 103c-48 0 -82 -42 -82 -99c0 -69 33 -104 79 -104c49 0 82 43 82 100z" glyph-name="ordmasculine.lin"/>
<glyph horiz-adv-x="381" unicode="°" d="M342 574c0 -91 -62 -163 -156 -163c-90 0 -147 69 -147 148c0 90 62 161 155 161c91 0 148 -68 148 -146zM270 564c0 58 -29 93 -79 93c-51 0 -80 -40 -80 -88c0 -58 30 -94 79 -94c51 0 80 41 80 89z" glyph-name="degree"/>
<glyph horiz-adv-x="372" d="M342 605c0 -91 -62 -163 -156 -163c-90 0 -147 69 -147 148c0 90 62 161 155 161c91 0 148 -68 148 -146zM270 595c0 58 -29 93 -79 93c-51 0 -80 -40 -80 -88c0 -58 30 -94 79 -94c51 0 80 41 80 89z" glyph-name="degree.lin"/>
<glyph horiz-adv-x="733" unicode="%" d="M339 547c0 -114 -87 -243 -187 -243c-74 0 -114 55 -114 126c0 113 88 243 188 243c73 0 113 -54 113 -126zM695 229c0 -114 -87 -243 -187 -243c-74 0 -114 55 -114 126c0 113 88 243 188 243c73 0 113 -54 113 -126zM131 -31l-64 31c69 83 92 114 129 162l282 368 c70 91 100 130 120 160l63 -35c-26 -31 -66 -83 -91 -116l-362 -471c-24 -32 -46 -59 -77 -99zM265 548c0 37 -14 58 -42 58c-59 0 -110 -99 -110 -176c0 -38 12 -58 42 -58c58 0 110 99 110 176zM621 230c0 37 -14 58 -42 58c-59 0 -110 -99 -110 -176c0 -38 12 -58 42 -58 c58 0 110 99 110 176z" glyph-name="percent"/>
<glyph horiz-adv-x="757" d="M232 698c76 0 118 -57 118 -131c0 -117 -91 -252 -195 -252c-76 0 -118 57 -118 131c0 117 91 252 195 252zM601 368c76 0 118 -57 118 -131c0 -117 -91 -252 -195 -252c-76 0 -118 57 -118 131c0 117 91 252 195 252zM133 -32l-65 32c70 86 95 118 133 168l293 382 c72 95 103 135 124 165l66 -35c-27 -32 -69 -87 -95 -121l-375 -488c-26 -34 -48 -61 -81 -103zM158 384c62 0 115 104 115 183c0 40 -13 62 -44 62c-61 0 -114 -104 -114 -183c0 -39 12 -62 43 -62zM527 54c62 0 115 104 115 183c0 40 -13 62 -44 62 c-61 0 -114 -104 -114 -183c0 -39 12 -62 43 -62z" glyph-name="percent.lin"/>
<glyph horiz-adv-x="357" unicode='&quot;' d="M267 466l-51 -12c6 76 10 176 9 258c29 4 77 11 104 14c-14 -77 -44 -202 -62 -260zM93 460l-51 -12c6 76 10 176 9 258c29 4 78 11 105 14c-14 -77 -45 -202 -63 -260z" glyph-name="quotedbl"/>
<glyph horiz-adv-x="357" d="M267 501l-51 -12c6 76 10 176 9 258c29 4 77 11 104 14c-14 -77 -44 -202 -62 -260zM93 495l-51 -12c6 76 10 176 9 258c29 4 78 11 105 14c-14 -77 -45 -202 -63 -260z" glyph-name="quotedbl.lin"/>
<glyph horiz-adv-x="183" unicode="&apos;" d="M93 460l-51 -12c6 76 10 176 9 258c29 4 78 11 105 14c-14 -77 -45 -202 -63 -260z" glyph-name="quotesingle"/>
<glyph horiz-adv-x="183" d="M93 495l-51 -12c6 76 10 176 9 258c29 4 78 11 105 14c-14 -77 -45 -202 -63 -260z" glyph-name="quotesingle.lin"/>
<glyph horiz-adv-x="570" unicode="+" d="M495 315c-3 -20 -5 -53 -6 -76l-148 2h-19v-30c0 -39 1 -126 4 -154h-85c4 40 6 124 7 184h-27l-146 -2c2 18 3 54 3 76c50 -2 110 -3 170 -4c-1 60 -3 142 -7 181c23 0 59 3 85 5c-3 -29 -4 -119 -4 -157v-29c55 1 125 2 173 4z" glyph-name="plus"/>
<glyph horiz-adv-x="570" d="M495 371c-3 -20 -5 -55 -6 -78l-147 2h-19v-31c0 -39 1 -124 4 -152h-87c4 40 6 123 7 183h-27l-145 -2c2 18 3 56 3 78c50 -2 109 -3 169 -4c-1 60 -3 141 -7 180c23 0 61 3 87 5c-3 -29 -4 -119 -4 -157v-28c55 1 124 2 172 4z" glyph-name="plus.lin"/>
<glyph horiz-adv-x="570" unicode="−" d="M475 315c-3 -20 -5 -53 -5 -76c-58 1 -99 2 -166 2h-41c-67 0 -111 -1 -168 -2c2 19 3 54 3 76c68 -2 107 -3 188 -3c82 0 121 1 189 3z" glyph-name="minus"/>
<glyph horiz-adv-x="570" d="M475 372c-3 -20 -5 -57 -5 -80c-58 1 -99 2 -166 2h-41c-67 0 -111 -1 -168 -2c2 19 3 58 3 80c68 -2 107 -3 188 -3c82 0 121 1 189 3z" glyph-name="minus.lin"/>
<glyph horiz-adv-x="570" unicode="÷" d="M500 315c-3 -20 -5 -53 -5 -76c-58 1 -109 2 -176 2h-71c-67 0 -121 -1 -178 -2c2 19 3 54 3 76c68 -2 132 -3 213 -3c82 0 146 1 214 3zM341 454c0 -35 -24 -65 -60 -65c-35 0 -57 29 -57 59c0 35 24 65 60 65c34 0 57 -29 57 -59zM341 105c0 -35 -24 -65 -60 -65 c-35 0 -57 29 -57 59c0 35 24 65 60 65c34 0 57 -29 57 -59z" glyph-name="divide"/>
<glyph horiz-adv-x="570" d="M510 372c-3 -20 -5 -57 -5 -80c-58 1 -109 2 -176 2h-71c-67 0 -121 -1 -178 -2c2 19 3 58 3 80c68 -2 132 -3 213 -3c82 0 146 1 214 3zM353 509c0 -35 -24 -66 -62 -66c-37 0 -59 30 -59 60c0 35 24 66 62 66c36 0 59 -30 59 -60zM353 160c0 -35 -24 -66 -62 -66 c-37 0 -59 30 -59 60c0 35 24 66 62 66c36 0 59 -30 59 -60z" glyph-name="divide.lin"/>
<glyph horiz-adv-x="570" unicode="=" d="M486 402c-3 -20 -5 -54 -6 -77l-139 2h-118l-138 -2c2 18 3 55 3 77c59 -2 124 -4 198 -4c63 0 141 2 200 4zM486 227c-3 -20 -5 -54 -6 -77l-139 2h-118l-138 -2c2 18 3 55 3 77c59 -2 124 -4 198 -4c63 0 141 2 200 4z" glyph-name="equal"/>
<glyph horiz-adv-x="570" d="M486 460c-3 -20 -5 -58 -6 -81l-139 2h-118l-138 -2c2 18 3 59 3 81c59 -2 124 -4 198 -4c63 0 141 2 200 4zM486 283c-3 -20 -5 -58 -6 -81l-139 2h-118l-138 -2c2 18 3 59 3 81c59 -2 124 -4 198 -4c63 0 141 2 200 4z" glyph-name="equal.lin"/>
<glyph horiz-adv-x="570" unicode="×" d="M492 119c-15 -12 -44 -38 -60 -53c-38 43 -86 95 -146 159c-82 -83 -114 -117 -153 -158c-11 14 -38 41 -54 57c42 41 92 89 155 152c-63 63 -113 112 -155 152c17 12 45 35 61 51c40 -41 72 -76 146 -153c62 64 109 116 147 159c13 -17 38 -42 53 -59 c-41 -40 -73 -73 -148 -151c80 -81 113 -116 154 -156z" glyph-name="multiply"/>
<glyph horiz-adv-x="570" d="M493 174c-15 -12 -45 -40 -61 -55c-38 43 -86 95 -146 159c-82 -83 -114 -117 -153 -158c-11 14 -39 43 -55 59c42 41 92 89 155 152c-63 63 -113 112 -155 152c17 12 46 37 62 53c40 -41 72 -76 146 -153c62 64 109 116 147 159c13 -17 39 -44 54 -61 c-41 -40 -73 -73 -148 -151c80 -81 113 -116 154 -156z" glyph-name="multiply.lin"/>
<glyph horiz-adv-x="570" unicode="&lt;" d="M404 34c-92 73 -209 160 -282 215l-2 44c72 55 230 181 283 225l43 -64c-33 -24 -72 -52 -137 -103l-97 -77l102 -79c51 -40 105 -78 134 -97z" glyph-name="less"/>
<glyph horiz-adv-x="570" d="M403 87c-92 73 -209 160 -282 215l-2 48c72 55 230 181 283 225l45 -66c-33 -24 -72 -52 -137 -103l-97 -77l102 -79c51 -40 105 -78 134 -97z" glyph-name="less.lin"/>
<glyph horiz-adv-x="570" unicode="&gt;" d="M166 518c92 -73 209 -160 282 -215l2 -44c-72 -55 -230 -181 -283 -225l-43 64c33 24 72 52 137 103l96 77l-101 79c-51 40 -105 78 -134 97z" glyph-name="greater"/>
<glyph horiz-adv-x="570" d="M167 575c92 -73 209 -160 282 -215l2 -48c-72 -55 -230 -181 -283 -225l-45 66c33 24 72 52 137 103l96 77l-101 79c-51 40 -105 78 -134 97z" glyph-name="greater.lin"/>
<glyph horiz-adv-x="570" unicode="±" d="M485 395c-3 -20 -5 -53 -6 -76l-148 2h-9v-10c0 -39 1 -126 4 -154h-85c4 40 6 104 7 164h-17l-146 -2c2 18 3 54 3 76c50 -2 100 -3 160 -4c-1 60 -3 122 -7 161c23 0 59 3 85 5c-3 -29 -4 -119 -4 -157v-9c55 1 115 2 163 4zM485 73c-3 -20 -5 -52 -5 -75 c-58 1 -99 2 -166 2h-61c-67 0 -111 -1 -168 -2c2 19 3 53 3 75c68 -2 117 -3 198 -3c82 0 131 1 199 3z" glyph-name="plusminus"/>
<glyph horiz-adv-x="570" d="M485 452c-3 -20 -5 -57 -6 -80l-146 2h-9v-10c0 -39 1 -124 4 -152h-89c4 40 6 102 7 162h-17l-144 -2c2 18 3 58 3 80c50 -2 98 -3 158 -4c-1 60 -3 120 -7 159c23 0 63 3 89 5c-3 -29 -4 -117 -4 -155v-9c55 1 113 2 161 4zM485 130c-3 -20 -5 -56 -5 -79 c-58 1 -99 2 -166 2h-61c-67 0 -111 -1 -168 -2c2 19 3 57 3 79c68 -2 117 -3 198 -3c82 0 131 1 199 3z" glyph-name="plusminus.lin"/>
<glyph horiz-adv-x="840" unicode="½" d="M524 294l-27 61c33 28 86 52 136 52c79 0 135 -42 135 -112c0 -58 -36 -102 -87 -151c-23 -23 -61 -56 -90 -79c62 0 135 2 188 3l-4 -70c-45 1 -84 2 -138 2c-55 0 -100 -1 -145 -2l-8 54c64 54 114 95 148 129c41 41 61 71 61 102c0 34 -25 55 -66 55 c-32 0 -67 -13 -103 -44zM175 -15l-59 25c60 83 80 114 112 162l242 373c60 91 87 130 103 160c18 -10 40 -19 59 -29c-23 -31 -57 -83 -79 -116l-312 -476c-20 -32 -39 -59 -66 -99zM154 613l-88 -25l-14 63c44 11 86 26 113 34l46 14l18 -6c-2 -16 -2 -48 -2 -69v-266 c0 -17 0 -53 2 -66h-79c3 22 4 81 4 111v210z" glyph-name="onehalf"/>
<glyph horiz-adv-x="934" d="M618 294l-27 61c33 28 86 52 136 52c79 0 135 -42 135 -112c0 -58 -36 -102 -87 -151c-23 -23 -61 -56 -90 -79c62 0 135 2 188 3l-4 -70c-45 1 -84 2 -138 2c-55 0 -100 -1 -145 -2l-8 54c64 54 114 95 148 129c41 41 61 71 61 102c0 34 -25 55 -66 55 c-32 0 -67 -13 -103 -44zM280 -15l-59 25c60 83 80 114 112 162l242 373c60 91 87 130 103 160c18 -10 40 -19 59 -29c-23 -31 -57 -83 -79 -116l-312 -476c-20 -32 -39 -59 -66 -99zM344 358c-1 -12 -1 -53 -1 -67c-29 1 -81 1 -93 1h-87c-28 0 -54 0 -93 -1 c0 14 -1 55 -2 67c27 -2 60 -2 77 -2h28c1 17 1 34 1 47v211l-95 -28l-12 64c44 11 89 27 116 35l46 14l18 -6c-2 -16 -2 -48 -2 -69v-266v-2h19c17 0 58 0 80 2z" glyph-name="onehalf.alt"/>
<glyph horiz-adv-x="840" unicode="⅓" d="M154 613l-88 -25l-14 63c44 11 86 26 113 34l46 14l18 -6c-2 -16 -2 -48 -2 -69v-266c0 -17 0 -53 2 -66h-79c3 22 4 81 4 111v210zM170 -15l-59 25c60 83 80 114 112 162l242 373c60 91 87 130 103 160c18 -10 40 -19 59 -29c-23 -31 -57 -83 -79 -116l-312 -476 c-20 -32 -39 -59 -66 -99zM506 6l-10 68c37 -10 73 -17 109 -17c62 0 101 20 101 51c0 38 -46 61 -140 63l-8 48c98 18 142 47 142 79c0 22 -25 42 -76 42c-36 0 -78 -11 -107 -29l-20 60c40 21 89 35 137 35c85 0 141 -41 141 -95c0 -53 -44 -84 -109 -104 c81 -15 117 -51 117 -98c0 -72 -70 -118 -169 -118c-33 0 -72 4 -108 15z" glyph-name="onethird"/>
<glyph horiz-adv-x="934" d="M600 6l-10 68c37 -10 73 -17 109 -17c62 0 101 20 101 51c0 38 -46 61 -140 63l-8 48c98 18 142 47 142 79c0 22 -25 42 -76 42c-36 0 -78 -11 -107 -29l-20 60c40 21 89 35 137 35c85 0 141 -41 141 -95c0 -53 -44 -84 -109 -104c81 -15 117 -51 117 -98 c0 -72 -70 -118 -169 -118c-33 0 -72 4 -108 15zM281 -15l-59 25c60 83 80 114 112 162l242 373c60 91 87 130 103 160c18 -10 40 -19 59 -29c-23 -31 -57 -83 -79 -116l-312 -476c-20 -32 -39 -59 -66 -99zM344 358c-1 -12 -1 -53 -1 -67c-29 1 -81 1 -93 1h-87 c-28 0 -54 0 -93 -1c0 14 -1 55 -2 67c27 -2 60 -2 77 -2h28c1 17 1 34 1 47v211l-95 -28l-12 64c44 11 89 27 116 35l46 14l18 -6c-2 -16 -2 -48 -2 -69v-266v-2h19c17 0 58 0 80 2z" glyph-name="onethird.alt"/>
<glyph horiz-adv-x="934" unicode="⅔" d="M600 6l-10 68c37 -10 73 -17 109 -17c62 0 101 20 101 51c0 38 -46 61 -140 63l-8 48c98 18 142 47 142 79c0 22 -25 42 -76 42c-36 0 -78 -11 -107 -29l-20 60c40 21 89 35 137 35c85 0 141 -41 141 -95c0 -53 -44 -84 -109 -104c81 -15 117 -51 117 -98 c0 -72 -70 -118 -169 -118c-33 0 -72 4 -108 15zM112 586l-27 61c33 28 86 52 136 52c79 0 135 -42 135 -112c0 -58 -36 -102 -87 -151c-23 -23 -61 -56 -90 -79c62 0 135 2 188 3l-4 -70c-45 1 -84 2 -138 2c-55 0 -100 -1 -145 -2l-8 54c64 54 114 95 148 129 c41 41 61 71 61 102c0 34 -25 55 -66 55c-32 0 -67 -13 -103 -44zM289 -15l-59 25c60 83 80 114 112 162l242 373c60 91 87 130 103 160c18 -10 40 -19 59 -29c-23 -31 -57 -83 -79 -116l-312 -476c-20 -32 -39 -59 -66 -99z" glyph-name="twothirds"/>
<glyph horiz-adv-x="840" unicode="¼" d="M662 0c3 18 3 61 3 86v13h-34c-49 0 -123 0 -163 -2l-11 54l166 208c16 19 35 43 46 55l65 -5c-2 -17 -2 -47 -2 -68v-183c26 0 48 0 62 1c-3 -23 -5 -35 -5 -62c-14 1 -35 1 -57 1v-32c0 -18 0 -52 2 -66h-72zM206 -15l-59 25c60 83 80 114 112 162l242 373 c60 91 87 130 103 160c18 -10 40 -19 59 -29c-23 -31 -57 -83 -79 -116l-312 -476c-20 -32 -39 -59 -66 -99zM154 613l-88 -25l-14 63c44 11 86 26 113 34l46 14l18 -6c-2 -16 -2 -48 -2 -69v-266c0 -17 0 -53 2 -66h-79c3 22 4 81 4 111v210zM668 325l-135 -170h134z" glyph-name="onequarter"/>
<glyph horiz-adv-x="934" d="M756 0c3 18 3 61 3 86v13h-34c-49 0 -123 0 -163 -2l-11 54l166 208c16 19 35 43 46 55l65 -5c-2 -17 -2 -47 -2 -68v-183c26 0 48 0 62 1c-3 -23 -5 -35 -5 -62c-14 1 -35 1 -57 1v-32c0 -18 0 -52 2 -66h-72zM301 -15l-59 25c60 83 80 114 112 162l242 373 c60 91 87 130 103 160c18 -10 40 -19 59 -29c-23 -31 -57 -83 -79 -116l-312 -476c-20 -32 -39 -59 -66 -99zM344 358c-1 -12 -1 -53 -1 -67c-29 1 -81 1 -93 1h-87c-28 0 -54 0 -93 -1c0 14 -1 55 -2 67c27 -2 60 -2 77 -2h28c1 17 1 34 1 47v211l-95 -28l-12 64 c44 11 89 27 116 35l46 14l18 -6c-2 -16 -2 -48 -2 -69v-266v-2h19c17 0 58 0 80 2zM762 325l-135 -170h134z" glyph-name="onequarter.alt"/>
<glyph horiz-adv-x="934" unicode="¾" d="M756 0c3 18 3 61 3 86v13h-34c-49 0 -123 0 -163 -2l-11 54l166 208c16 19 35 43 46 55l65 -5c-2 -17 -2 -47 -2 -68v-183c26 0 48 0 62 1c-3 -23 -5 -35 -5 -62c-14 1 -35 1 -57 1v-32c0 -18 0 -52 2 -66h-72zM87 298l-10 68c37 -10 73 -17 109 -17c62 0 101 20 101 51 c0 38 -46 61 -140 63l-8 48c98 18 142 47 142 79c0 22 -25 42 -76 42c-36 0 -78 -11 -107 -29l-20 60c40 21 89 35 137 35c85 0 141 -41 141 -95c0 -53 -44 -84 -109 -104c81 -15 117 -51 117 -98c0 -72 -70 -118 -169 -118c-33 0 -72 4 -108 15zM294 -15l-59 25 c60 83 80 114 112 162l242 373c60 91 87 130 103 160c18 -10 40 -19 59 -29c-23 -31 -57 -83 -79 -116l-312 -476c-20 -32 -39 -59 -66 -99zM762 325l-135 -170h134z" glyph-name="threequarters"/>
<glyph horiz-adv-x="840" unicode="⅕" d="M503 7l-8 68c39 -11 76 -18 113 -18c65 0 97 28 97 61c0 41 -40 63 -126 63c-18 0 -38 -1 -58 -3l-8 5c0 19 2 41 3 65l3 72c1 22 0 50 0 70l9 8c55 -1 55 -2 120 -2c61 0 67 1 121 2c-2 -17 -8 -52 -8 -71c-37 1 -55 1 -108 1h-65l-4 -87h23c113 0 173 -49 173 -123 c0 -75 -62 -127 -163 -127c-39 0 -76 4 -114 16zM181 -15l-59 25c60 83 80 114 112 162l242 373c60 91 87 130 103 160c18 -10 40 -19 59 -29c-23 -31 -57 -83 -79 -116l-312 -476c-20 -32 -39 -59 -66 -99zM154 613l-88 -25l-14 63c44 11 86 26 113 34l46 14l18 -6 c-2 -16 -2 -48 -2 -69v-266c0 -17 0 -53 2 -66h-79c3 22 4 81 4 111v210z" glyph-name="onefifth"/>
<glyph horiz-adv-x="934" d="M597 7l-8 68c39 -11 76 -18 113 -18c65 0 97 28 97 61c0 41 -40 63 -126 63c-18 0 -38 -1 -58 -3l-8 5c0 19 2 41 3 65l3 72c1 22 0 50 0 70l9 8c55 -1 55 -2 120 -2c61 0 67 1 121 2c-2 -17 -8 -52 -8 -71c-37 1 -55 1 -108 1h-65l-4 -87h23c113 0 173 -49 173 -123 c0 -75 -62 -127 -163 -127c-39 0 -76 4 -114 16zM286 -15l-59 25c60 83 80 114 112 162l242 373c60 91 87 130 103 160c18 -10 40 -19 59 -29c-23 -31 -57 -83 -79 -116l-312 -476c-20 -32 -39 -59 -66 -99zM344 358c-1 -12 -1 -53 -1 -67c-29 1 -81 1 -93 1h-87 c-28 0 -54 0 -93 -1c0 14 -1 55 -2 67c27 -2 60 -2 77 -2h28c1 17 1 34 1 47v211l-95 -28l-12 64c44 11 89 27 116 35l46 14l18 -6c-2 -16 -2 -48 -2 -69v-266v-2h19c17 0 58 0 80 2z" glyph-name="onefifth.alt"/>
<glyph horiz-adv-x="934" unicode="⅖" d="M597 7l-8 68c39 -11 76 -18 113 -18c65 0 97 28 97 61c0 41 -40 63 -126 63c-18 0 -38 -1 -58 -3l-8 5c0 19 2 41 3 65l3 72c1 22 0 50 0 70l9 8c55 -1 55 -2 120 -2c61 0 67 1 121 2c-2 -17 -8 -52 -8 -71c-37 1 -55 1 -108 1h-65l-4 -87h23c113 0 173 -49 173 -123 c0 -75 -62 -127 -163 -127c-39 0 -76 4 -114 16zM112 586l-27 61c33 28 86 52 136 52c79 0 135 -42 135 -112c0 -58 -36 -102 -87 -151c-23 -23 -61 -56 -90 -79c62 0 135 2 188 3l-4 -70c-45 1 -84 2 -138 2c-55 0 -100 -1 -145 -2l-8 54c64 54 114 95 148 129 c41 41 61 71 61 102c0 34 -25 55 -66 55c-32 0 -67 -13 -103 -44zM292 -15l-59 25c60 83 80 114 112 162l242 373c60 91 87 130 103 160c18 -10 40 -19 59 -29c-23 -31 -57 -83 -79 -116l-312 -476c-20 -32 -39 -59 -66 -99z" glyph-name="twofifths"/>
<glyph horiz-adv-x="934" unicode="⅗" d="M597 7l-8 68c39 -11 76 -18 113 -18c65 0 97 28 97 61c0 41 -40 63 -126 63c-18 0 -38 -1 -58 -3l-8 5c0 19 2 41 3 65l3 72c1 22 0 50 0 70l9 8c55 -1 55 -2 120 -2c61 0 67 1 121 2c-2 -17 -8 -52 -8 -71c-37 1 -55 1 -108 1h-65l-4 -87h23c113 0 173 -49 173 -123 c0 -75 -62 -127 -163 -127c-39 0 -76 4 -114 16zM87 298l-10 68c37 -10 73 -17 109 -17c62 0 101 20 101 51c0 38 -46 61 -140 63l-8 48c98 18 142 47 142 79c0 22 -25 42 -76 42c-36 0 -78 -11 -107 -29l-20 60c40 21 89 35 137 35c85 0 141 -41 141 -95 c0 -53 -44 -84 -109 -104c81 -15 117 -51 117 -98c0 -72 -70 -118 -169 -118c-33 0 -72 4 -108 15zM274 -15l-59 25c60 83 80 114 112 162l242 373c60 91 87 130 103 160c18 -10 40 -19 59 -29c-23 -31 -57 -83 -79 -116l-312 -476c-20 -32 -39 -59 -66 -99z" glyph-name="threefifths"/>
<glyph horiz-adv-x="934" unicode="⅘" d="M247 292c3 18 3 61 3 86v13h-34c-49 0 -123 0 -163 -2l-11 54l166 208c16 19 35 43 46 55l65 -5c-2 -17 -2 -47 -2 -68v-183c26 0 48 0 62 1c-3 -23 -5 -35 -5 -62c-14 1 -35 1 -57 1v-32c0 -18 0 -52 2 -66h-72zM597 7l-8 68c39 -11 76 -18 113 -18c65 0 97 28 97 61 c0 41 -40 63 -126 63c-18 0 -38 -1 -58 -3l-8 5c0 19 2 41 3 65l3 72c1 22 0 50 0 70l9 8c55 -1 55 -2 120 -2c61 0 67 1 121 2c-2 -17 -8 -52 -8 -71c-37 1 -55 1 -108 1h-65l-4 -87h23c113 0 173 -49 173 -123c0 -75 -62 -127 -163 -127c-39 0 -76 4 -114 16zM281 -15 l-59 25c60 83 80 114 112 162l242 373c60 91 87 130 103 160c18 -10 40 -19 59 -29c-23 -31 -57 -83 -79 -116l-312 -476c-20 -32 -39 -59 -66 -99zM253 617l-135 -170h134z" glyph-name="fourfifths"/>
<glyph horiz-adv-x="840" unicode="⅙" d="M753 346c-110 -14 -173 -60 -196 -127c24 23 60 37 100 37c74 0 133 -54 133 -125c0 -79 -63 -141 -156 -141c-94 0 -151 61 -151 165c0 133 85 234 256 255zM194 -15l-59 25c60 83 80 114 112 162l242 373c60 91 87 130 103 160c18 -10 40 -19 59 -29 c-23 -31 -57 -83 -79 -116l-312 -476c-20 -32 -39 -59 -66 -99zM154 613l-88 -25l-14 63c44 11 86 26 113 34l46 14l18 -6c-2 -16 -2 -48 -2 -69v-266c0 -17 0 -53 2 -66h-79c3 22 4 81 4 111v210zM717 127c0 48 -32 74 -79 74c-46 0 -81 -30 -81 -74c0 -46 33 -77 80 -77 c48 0 80 32 80 77z" glyph-name="onesixth"/>
<glyph horiz-adv-x="934" d="M847 346c-110 -14 -173 -60 -196 -127c24 23 60 37 100 37c74 0 133 -54 133 -125c0 -79 -63 -141 -156 -141c-94 0 -151 61 -151 165c0 133 85 234 256 255zM288 -15l-59 25c60 83 80 114 112 162l242 373c60 91 87 130 103 160c18 -10 40 -19 59 -29 c-23 -31 -57 -83 -79 -116l-312 -476c-20 -32 -39 -59 -66 -99zM344 358c-1 -12 -1 -53 -1 -67c-29 1 -81 1 -93 1h-87c-28 0 -54 0 -93 -1c0 14 -1 55 -2 67c27 -2 60 -2 77 -2h28c1 17 1 34 1 47v211l-95 -28l-12 64c44 11 89 27 116 35l46 14l18 -6c-2 -16 -2 -48 -2 -69 v-266v-2h19c17 0 58 0 80 2zM811 127c0 48 -32 74 -79 74c-46 0 -81 -30 -81 -74c0 -46 33 -77 80 -77c48 0 80 32 80 77z" glyph-name="onesixth.alt"/>
<glyph horiz-adv-x="934" unicode="⅚" d="M847 346c-110 -14 -173 -60 -196 -127c24 23 60 37 100 37c74 0 133 -54 133 -125c0 -79 -63 -141 -156 -141c-94 0 -151 61 -151 165c0 133 85 234 256 255zM72 299l-8 68c39 -11 76 -18 113 -18c65 0 97 28 97 61c0 41 -40 63 -126 63c-18 0 -38 -1 -58 -3l-8 5 c0 19 2 41 3 65l3 72c1 22 0 50 0 70l9 8c55 -1 55 -2 120 -2c61 0 67 1 121 2c-2 -17 -8 -52 -8 -71c-37 1 -55 1 -108 1h-65l-4 -87h23c113 0 173 -49 173 -123c0 -75 -62 -127 -163 -127c-39 0 -76 4 -114 16zM276 -15l-59 25c60 83 80 114 112 162l242 373 c60 91 87 130 103 160c18 -10 40 -19 59 -29c-23 -31 -57 -83 -79 -116l-312 -476c-20 -32 -39 -59 -66 -99zM811 127c0 48 -32 74 -79 74c-46 0 -81 -30 -81 -74c0 -46 33 -77 80 -77c48 0 80 32 80 77z" glyph-name="fivesixths"/>
<glyph horiz-adv-x="840" unicode="⅛" d="M636 -10c-91 0 -151 46 -151 110c0 50 33 85 92 104c-46 18 -78 49 -78 93c0 64 62 111 144 111c83 0 139 -47 140 -106c1 -46 -29 -74 -80 -95c61 -25 88 -59 88 -101c0 -69 -63 -116 -155 -116zM186 -15l-59 25c60 83 80 114 112 162l242 373c60 91 87 130 103 160 c18 -10 40 -19 59 -29c-23 -31 -57 -83 -79 -116l-312 -476c-20 -32 -39 -59 -66 -99zM154 613l-88 -25l-14 63c44 11 86 26 113 34l46 14l18 -6c-2 -16 -2 -48 -2 -69v-266c0 -17 0 -53 2 -66h-79c3 22 4 81 4 111v210zM718 106c0 40 -40 58 -82 71 c-56 -16 -79 -39 -79 -72c0 -35 35 -58 84 -58s77 26 77 59zM569 299c0 -27 19 -49 77 -66c48 13 67 38 67 64c0 32 -28 54 -72 54c-45 0 -72 -24 -72 -52z" glyph-name="oneeighth"/>
<glyph horiz-adv-x="934" d="M730 -10c-91 0 -151 46 -151 110c0 50 33 85 92 104c-46 18 -78 49 -78 93c0 64 62 111 144 111c83 0 139 -47 140 -106c1 -46 -29 -74 -80 -95c61 -25 88 -59 88 -101c0 -69 -63 -116 -155 -116zM287 -15l-59 25c60 83 80 114 112 162l242 373c60 91 87 130 103 160 c18 -10 40 -19 59 -29c-23 -31 -57 -83 -79 -116l-312 -476c-20 -32 -39 -59 -66 -99zM344 358c-1 -12 -1 -53 -1 -67c-29 1 -81 1 -93 1h-87c-28 0 -54 0 -93 -1c0 14 -1 55 -2 67c27 -2 60 -2 77 -2h28c1 17 1 34 1 47v211l-95 -28l-12 64c44 11 89 27 116 35l46 14l18 -6 c-2 -16 -2 -48 -2 -69v-266v-2h19c17 0 58 0 80 2zM812 106c0 40 -41 57 -82 71c-56 -16 -79 -40 -79 -72c0 -35 35 -58 84 -58s77 26 77 59zM663 299c0 -27 19 -49 77 -66c48 13 67 38 67 64c0 32 -28 54 -72 54c-45 0 -72 -24 -72 -52z" glyph-name="oneeighth.alt"/>
<glyph horiz-adv-x="934" unicode="⅜" d="M730 -10c-91 0 -151 46 -151 110c0 50 33 85 92 104c-46 18 -78 49 -78 93c0 64 62 111 144 111c83 0 139 -47 140 -106c1 -46 -29 -74 -80 -95c61 -25 88 -59 88 -101c0 -69 -63 -116 -155 -116zM87 298l-10 68c37 -10 73 -17 109 -17c62 0 101 20 101 51 c0 38 -46 61 -140 63l-8 48c98 18 142 47 142 79c0 22 -25 42 -76 42c-36 0 -78 -11 -107 -29l-20 60c40 21 89 35 137 35c85 0 141 -41 141 -95c0 -53 -44 -84 -109 -104c81 -15 117 -51 117 -98c0 -72 -70 -118 -169 -118c-33 0 -72 4 -108 15zM276 -15l-59 25 c60 83 80 114 112 162l242 373c60 91 87 130 103 160c18 -10 40 -19 59 -29c-23 -31 -57 -83 -79 -116l-312 -476c-20 -32 -39 -59 -66 -99zM812 106c0 40 -40 58 -82 71c-56 -16 -79 -39 -79 -72c0 -35 35 -58 84 -58s77 26 77 59zM663 299c0 -27 19 -49 77 -66 c48 13 67 38 67 64c0 32 -28 54 -72 54c-45 0 -72 -24 -72 -52z" glyph-name="threeeighths"/>
<glyph horiz-adv-x="934" unicode="⅝" d="M730 -10c-91 0 -151 46 -151 110c0 50 33 85 92 104c-46 18 -78 49 -78 93c0 64 62 111 144 111c83 0 139 -47 140 -106c1 -46 -29 -74 -80 -95c61 -25 88 -59 88 -101c0 -69 -63 -116 -155 -116zM72 299l-8 68c39 -11 76 -18 113 -18c65 0 97 28 97 61 c0 41 -40 63 -126 63c-18 0 -38 -1 -58 -3l-8 5c0 19 2 41 3 65l3 72c1 22 0 50 0 70l9 8c55 -1 55 -2 120 -2c61 0 67 1 121 2c-2 -17 -8 -52 -8 -71c-37 1 -55 1 -108 1h-65l-4 -87h23c113 0 173 -49 173 -123c0 -75 -62 -127 -163 -127c-39 0 -76 4 -114 16zM271 -15 l-59 25c60 83 80 114 112 162l242 373c60 91 87 130 103 160c18 -10 40 -19 59 -29c-23 -31 -57 -83 -79 -116l-312 -476c-20 -32 -39 -59 -66 -99zM812 106c0 40 -40 58 -82 71c-56 -16 -79 -39 -79 -72c0 -35 35 -58 84 -58s77 26 77 59zM663 299c0 -27 19 -49 77 -66 c48 13 67 38 67 64c0 32 -28 54 -72 54c-45 0 -72 -24 -72 -52z" glyph-name="fiveeighths"/>
</font>
</defs>
</svg>
